<?xml version="1.0" encoding="utf-8"?>
<!-- Generator: Adobe Illustrator 22.1.0, SVG Export Plug-In . SVG Version: 6.00 Build 0)  -->
<svg version="1.1" id="Layer_1" xmlns="http://www.w3.org/2000/svg" xmlns:xlink="http://www.w3.org/1999/xlink" x="0px" y="0px"
	 viewBox="0 0 96 96" style="enable-background:new 0 0 96 96;" xml:space="preserve">
<style type="text/css">
	.st0{fill:#FDF5EA;stroke:#5B5B4B;stroke-linecap:round;stroke-miterlimit:10;}
</style>
<g>
	<path id="XMLID_445_" class="st0" d="M59.3,82.6c0.1-1.9-0.6-7.2-0.9-8.9c-0.1-1.6-0.4-2.9-0.8-4c5.9-10.4-11.1-22.1-16.9-8.6
		c-1.7,4.2-1.4,12.3-1.4,13.6c0,1.7,0.2,7.8,0.3,9.3c0.2,8.6,13.2,15.3,18,3.9"/>
	<g id="XMLID_434_">
		<g id="XMLID_435_">
			<path id="XMLID_444_" class="st0" d="M47.9,4c0,0,27.8,1.5,24.6,34.4c-3.2,33-2.1,38.9-17.8,42.6C39,84.7,30.2,73.3,28.4,64.6
				S13,8.9,47.9,4z"/>
			<path id="XMLID_443_" class="st0" d="M42.5,79c0,0-2.9,3.4,4.1,4c7,0.7,11.3-1.7,9.6-4.2"/>
			<path id="XMLID_442_" class="st0" d="M70.3,42c0,0,10.1-11.7,9.8-2.1c-0.3,9.7-3.8,19.8-7.1,18.2c-3.3-1.5-3.1-4.4-3.1-4.4"/>
			<path id="XMLID_441_" class="st0" d="M73.3,42.9c0,0,4-5.4,4.8-2.6"/>
			<path id="XMLID_440_" class="st0" d="M71.6,46.8c0,0,5.4-1,4.4,2c-0.9,3-2.9,5-3.7,1.6"/>
			<g id="XMLID_436_">
				<path id="XMLID_439_" class="st0" d="M27.3,44.1c0,0-9.5-12.1-9.5-2.4s2.7,20,6.1,18.6s3.3-4.2,3.3-4.2"/>
				<path id="XMLID_438_" class="st0" d="M24.2,44.8c0,0-3.7-5.6-4.5-2.8"/>
				<path id="XMLID_437_" class="st0" d="M25.7,48.6c0,0-5.3-1.4-4.5,1.8c0.9,3,2.7,5.2,3.6,1.6"/>
			</g>
		</g>
	</g>
</g>
</svg>
