<?xml version="1.0" encoding="utf-8"?>
<!-- Generator: Adobe Illustrator 22.1.0, SVG Export Plug-In . SVG Version: 6.00 Build 0)  -->
<svg version="1.1" id="Layer_1" xmlns="http://www.w3.org/2000/svg" xmlns:xlink="http://www.w3.org/1999/xlink" x="0px" y="0px"
	 viewBox="0 0 360.6 222.3" style="enable-background:new 0 0 360.6 222.3;" xml:space="preserve">
<style type="text/css">
	.st0{opacity:0.1;}
	.st1{fill:#5B5B4B;stroke:#5B5B4B;stroke-linecap:round;stroke-miterlimit:10;}
	.st2{fill:none;stroke:#5B5B4B;stroke-linecap:round;stroke-miterlimit:10;}
	.st3{fill:#FDF5EA;stroke:#5B5B4B;stroke-linecap:round;stroke-miterlimit:10;}
</style>
<g class="st0">
	<g>
		<g id="XMLID_24873_">
			<path id="XMLID_24885_" class="st1" d="M233.7,48.9c0,0-1.4-26.7-19.5-18.9s-8.3,83.5,37.7,72.8s27.6-70.2,27.6-70.2
				s-19-17.1-22.6,12.3c0,0-1.1,19.7-10.1,21.3C238,67.7,232.8,53.8,233.7,48.9z"/>
			<g id="XMLID_24883_">
				<path id="XMLID_24884_" class="st1" d="M210.5,65.2c0,0-31.7,31.1-25.1-27.2c0,0-7.4-18.1-22.2-10.6s-17.4,99.9,53.4,74.3
					c0,0,19-7.2,24.1-10.9"/>
			</g>
			<line id="XMLID_24882_" class="st2" x1="178.1" y1="98.7" x2="181.1" y2="100"/>
			<path id="XMLID_24881_" class="st1" d="M247,79.2c0,0,1.1,2.4-0.7,3.5"/>
			<path id="XMLID_24880_" class="st1" d="M278.5,74.3c0,0-0.5,2.2-1.1,2.9"/>
			<path id="XMLID_24879_" class="st1" d="M260.9,43.9c0,0,0.9-4.1,0-4.1"/>
			<path id="XMLID_24878_" class="st1" d="M170.6,29.8c0,0,3.9,0.5,3.5,1.2"/>
			<path id="XMLID_24877_" class="st1" d="M195.2,79.2c0,0,4.5-0.6,4.8-1.5"/>
			<path id="XMLID_24876_" class="st1" d="M218.2,33.8c0,0-3,1.4-3.8,2.8"/>
			<line id="XMLID_24875_" class="st2" x1="246.9" y1="68.7" x2="250" y2="67.8"/>
			<line id="XMLID_24874_" class="st2" x1="253.5" y1="98" x2="256.6" y2="97.1"/>
		</g>
		<g id="XMLID_24859_">
			<path id="XMLID_24872_" class="st1" d="M133.3,37.5"/>
			<path id="XMLID_24869_" class="st1" d="M156.1,32.3c-36.2-26.9-64.7,6.5-64.7,6.5s-23.5,53.3,20.8,67.6
				C156.5,120.8,192.4,59.2,156.1,32.3z M136.2,69c-8.5,21.9-34.3-12.6-15.8-15.1C120.4,53.9,144.7,47.1,136.2,69z"/>
			<path id="XMLID_24868_" class="st1" d="M142,28.8"/>
			<line id="XMLID_24867_" class="st2" x1="100.2" y1="95.7" x2="103.1" y2="97"/>
			<path id="XMLID_24866_" class="st1" d="M144.8,98.5c0,0-0.5,2.6-2.6,2.4"/>
			<path id="XMLID_24865_" class="st1" d="M139.5,69.5c0,0-0.5,2.2-1.1,2.9"/>
			<path id="XMLID_24864_" class="st1" d="M166.1,67.8c0,0,0.9-4.1,0-4.1"/>
			<path id="XMLID_24863_" class="st1" d="M139.8,28.2c0,0,3.9,0.5,3.5,1.2"/>
			<path id="XMLID_24862_" class="st1" d="M114.7,75.9c0,0,3.8,2.6,4.5,2.1"/>
			<path id="XMLID_24861_" class="st1" d="M98,39.6c0,0-3,1.4-3.8,2.8"/>
			<line id="XMLID_24860_" class="st2" x1="115.5" y1="51.2" x2="118.7" y2="50.4"/>
		</g>
		<g id="XMLID_24848_">
			<path id="XMLID_24858_" class="st1" d="M48,29.1c0,0-3.7-18.4-21.7-12S16.8,93.3,25,98.7C33.3,104.2,56.5,137.5,48,29.1z"/>
			<path id="XMLID_24857_" class="st1" d="M43.6,62.6c0,0,31.7-31.1,25.1,27.2c0,0,7.4,18.1,22.2,10.6c14.7-7.4,17.3-100-53.5-74.3"
				/>
			<line id="XMLID_24856_" class="st2" x1="33.4" y1="98.1" x2="36.4" y2="99.4"/>
			<path id="XMLID_24855_" class="st1" d="M87.4,90.4c0,0,1.1,2.4-0.7,3.5"/>
			<path id="XMLID_24854_" class="st1" d="M94.5,60.5c0,0-0.5,2.2-1.1,2.9"/>
			<path id="XMLID_24853_" class="st1" d="M44.2,78.9c0,0,0.9-4.1,0-4.1"/>
			<path id="XMLID_24852_" class="st1" d="M66.6,50.6c0,0,3.9,0.5,3.5,1.2"/>
			<path id="XMLID_24851_" class="st1" d="M28.9,69.9c0,0,4.5-0.6,4.8-1.5"/>
			<path id="XMLID_24850_" class="st1" d="M51.9,27c0,0-3,1.4-3.8,2.8"/>
			<line id="XMLID_24849_" class="st2" x1="24.8" y1="31.8" x2="27.9" y2="30.9"/>
		</g>
		<g id="XMLID_24837_">
			<path id="XMLID_24847_" class="st1" d="M67.2,91.7c0,0-3.7-18.4-21.7-12c-18.1,6.3-9.5,76.2-1.2,81.6
				C52.6,166.6,75.8,199.9,67.2,91.7z"/>
			<path id="XMLID_24846_" class="st1" d="M62.9,125.1c0,0,31.7-31.1,25.1,27.2c0,0,7.4,18.1,22.2,10.6c14.7-7.4,17.3-100-53.5-74.3
				"/>
			<line id="XMLID_24845_" class="st2" x1="53.7" y1="163" x2="56.7" y2="164.4"/>
			<path id="XMLID_24844_" class="st1" d="M107.7,155.5c0,0,1.1,2.4-0.7,3.5"/>
			<path id="XMLID_24843_" class="st1" d="M114.8,125.6c0,0-0.5,2.2-1.1,2.9"/>
			<path id="XMLID_24842_" class="st1" d="M64.6,144c0,0,0.9-4.1,0-4.1"/>
			<path id="XMLID_24841_" class="st1" d="M86.9,115.7c0,0,3.9,0.5,3.5,1.2"/>
			<path id="XMLID_24840_" class="st1" d="M49.2,134.9c0,0,4.5-0.6,4.8-1.5"/>
			<path id="XMLID_24839_" class="st1" d="M72.2,92.1c0,0-3,1.4-3.8,2.8"/>
			<line id="XMLID_24838_" class="st2" x1="45.2" y1="96.8" x2="48.3" y2="96"/>
		</g>
		<g>
			<g id="XMLID_24835_">
				<path id="XMLID_24836_" class="st1" d="M131.1,123.3c0,0,5.2-26.8-17.4-19.3s-9.3,66.3,2.7,63.8
					C128.5,165.3,134,155.9,131.1,123.3z"/>
			</g>
			<line id="XMLID_24834_" class="st2" x1="111.9" y1="160.4" x2="114.9" y2="161.7"/>
			<path id="XMLID_24833_" class="st1" d="M126.8,151.1c0,0,1.1,2.4-0.7,3.5"/>
			<path id="XMLID_24832_" class="st1" d="M108.8,116.4c0,0-0.5,2.2-1.1,2.9"/>
			<path id="XMLID_24831_" class="st1" d="M127.7,117.9c0,0,0.9-4.1,0-4.1"/>
			<path id="XMLID_24830_" class="st1" d="M117.4,106c0,0,3.9,0.5,3.5,1.2"/>
		</g>
		<g>
			<path id="XMLID_24829_" class="st1" d="M119.1,67.5c0,0,25.4,14.7,0.3,25.4S102.1,54.2,119.1,67.5z"/>
			<path id="XMLID_24828_" class="st1" d="M114.5,91.3c0,0,4.5-0.6,4.8-1.5"/>
			<path id="XMLID_24827_" class="st1" d="M112.2,69.3c0,0-3,1.4-3.8,2.8"/>
		</g>
		<g id="XMLID_24812_">
			<path id="XMLID_24826_" class="st1" d="M161.1,110.2"/>
			<path id="XMLID_24823_" class="st1" d="M181.3,105.7c-32-23.7-57.2,5.8-57.2,5.8s-20.8,47,18.3,59.7
				C181.6,183.8,213.3,129.4,181.3,105.7z M164.5,138.4c-8.3,21.2-33.2-12.2-15.3-14.6C149.2,123.9,172.8,117.3,164.5,138.4z"/>
			<path id="XMLID_24822_" class="st1" d="M168.7,102.7"/>
			<path id="XMLID_24821_" class="st1" d="M168.7,102.7c0,0,25.1-26.6,25.5,23.6s8.6,96-39.5,95.5c0,0-26-12.3,0.1-25.1
				c12.8-6.2,15.4-19.3,15.3-35.7"/>
			<line id="XMLID_24820_" class="st2" x1="152.3" y1="215.3" x2="155.3" y2="216.6"/>
			<path id="XMLID_24819_" class="st1" d="M178.3,210.4c0,0,1.1,2.4-0.7,3.5"/>
			<path id="XMLID_24818_" class="st1" d="M191.3,185.2c0,0-0.5,2.2-1.1,2.9"/>
			<path id="XMLID_24817_" class="st1" d="M189,153.1c0,0,0.9-4.1,0-4.1"/>
			<path id="XMLID_24816_" class="st1" d="M133.9,163.5c0,0,3.9,0.5,3.5,1.2"/>
			<path id="XMLID_24815_" class="st1" d="M181.1,122.3c0,0,4.5-0.6,4.8-1.5"/>
			<path id="XMLID_24814_" class="st1" d="M134.4,109.8c0,0-3,1.4-3.8,2.8"/>
			<line id="XMLID_24813_" class="st2" x1="166.7" y1="144.7" x2="163.8" y2="146.3"/>
		</g>
		<path id="XMLID_24811_" class="st1" d="M225,108.7c0,0-6.7-4.7-9.5-1c-2.9,3.7-7.8,9.9-2.1,22s27.9,2.2,30-3.5"/>
		<g>
			<path id="XMLID_24810_" class="st1" d="M250.9,118.5L250.9,118.5c-4.2-11.2-13.3-20.1-27.4-21.6c-28.1-2.9-39.8,15.2-44.2,26.3
				c0,0-1,1.7-1.7,4.9c-0.6,1.9-0.7,3.6-0.6,4.3c-0.4,6.1,0.5,15.1,6.2,27c4.6,9.7,16.3,13.3,24.1,14.5c2.2,0.5,4.6,0.7,7.1,0.7
				c0.1,0,0.2,0,0.2,0l0,0c2.7,0,5.6-0.4,8.7-1.1c12.3-2.7,20.8-10.6,25.7-20.3c-0.8-11.2-10.3-12.6-16.1-13.5
				c-3.1-0.5-6.4,1.4-8.8,3.5c-0.3,0.2-0.5,0.4-0.8,0.6c-8.3,6.1-30.1-6-18.5-15c0,0,3.9-4.1,8.5-6l0,0c0,0,3.8-1.9,6.9-0.8
				c1.2,0.4,2.3,1.3,3,3c0,0.1,0.1,0.2,0.1,0.3c0.3,0.8,0.8,1.6,1.3,2.5c3.8,6.1,12.1,14.3,20,8.7c9-6.5,8-9,8.4-11.5l0,0
				C253.2,122.7,250.9,118.5,250.9,118.5z"/>
			<line id="XMLID_24809_" class="st2" x1="187.7" y1="158.7" x2="189.6" y2="161.3"/>
			<path id="XMLID_24808_" class="st1" d="M241.2,156.2c0,0,1.1,2.4-0.7,3.5"/>
			<path id="XMLID_24807_" class="st1" d="M250.4,125.1c0,0-0.5,2.2-1.1,2.9"/>
			<path id="XMLID_24806_" class="st1" d="M199.3,128.5c0,0,0.9-4.1,0-4.1"/>
			<path id="XMLID_24805_" class="st1" d="M220.4,116.3c0,0,3.9,0.5,3.5,1.2"/>
			<path id="XMLID_24804_" class="st1" d="M215.9,170.7c0,0,4.5-0.6,4.8-1.5"/>
			<path id="XMLID_24803_" class="st1" d="M192.9,110.4c0,0-3,1.4-3.8,2.8"/>
			<line id="XMLID_24802_" class="st2" x1="237.4" y1="135.4" x2="240.5" y2="134.6"/>
		</g>
		<g>
			<path id="XMLID_24801_" class="st1" d="M268,87c0,0-3.7-21.4-21.7-14s-9.6,89-1.2,95.3C253.3,174.6,276.5,213.4,268,87z"/>
			<path id="XMLID_24800_" class="st1" d="M260.3,166.3c0,0,1.1,2.4-0.7,3.5"/>
			<path id="XMLID_24799_" class="st1" d="M266.2,127.6c0,0,0.3,2.2,0,3.2"/>
			<path id="XMLID_24798_" class="st1" d="M243,142.7c0,0,0.9-4.1,0-4.1"/>
			<path id="XMLID_24797_" class="st1" d="M248.4,77.5c0,0-3,1.4-3.8,2.8"/>
		</g>
		<g id="XMLID_24726_">
			<path id="XMLID_24796_" class="st1" d="M321.3,185.8c0.2-3.5-0.9-13.6-1.1-16.9c-0.2-3-0.6-5.6-1.3-7.7
				c11.7-19.8-20.3-42.8-31.9-17.2c-3.6,8-3.2,23.4-3.2,26c0.1,3.4,0.1,14.9,0.1,17.9c0,16.6,24.6,29.9,34.5,8.4"/>
			<g id="XMLID_24727_">
				<g id="XMLID_24792_">
					<path id="XMLID_24795_" class="st1" d="M263.3,102.8c0,0-17.8-23.8-18.3-5.3c-0.6,18.5,4.4,38.4,11,35.9c6.6-2.5,6.7-8,6.7-8"
						/>
					<path id="XMLID_24794_" class="st1" d="M257.4,104c0,0-7-10.8-8.7-5.7"/>
					<path id="XMLID_24793_" class="st1" d="M260.1,111.5c0,0-10.3-2.7-8.8,3.3s5.1,9.9,7,3.3"/>
				</g>
				<path id="XMLID_24791_" class="st1" d="M317.3,19.9c0,0-6.7,5.9,1.6,8.6C327.3,31.2,324.6,16.9,317.3,19.9z"/>
				<path id="XMLID_24790_" class="st1" d="M303,34.2c0,0,53.6,4.1,45.8,67.3s-5.8,74.8-36.1,81c-30.2,6.3-46.7-15.9-50-32.7
					C259.7,133,235.9,42.2,303,34.2z"/>
				<path id="XMLID_24789_" class="st1" d="M346.1,49.5c-0.2-2.1-1.1-4.8-3-8.1v-0.1l0,0c-0.4-0.7-0.8-1.4-1.3-2.2
					c-6-9.4-15.7-14.9-24.6-17.6c-38.3-17.5-42.4,19-42.5,32.8c0,1.3,17.3,0,33.1-4c19.9,8.2,38.8,17.3,38.8,17.3
					S347.9,55.7,346.1,49.5z"/>
				<path id="XMLID_24788_" class="st1" d="M272.4,67.2c0,0,36.5-3.3,23.2,26C282.3,122.6,241.7,87.6,272.4,67.2z"/>
				<path id="XMLID_24787_" class="st1" d="M268.9,87.5c0,0,5.5-2.2,4.9,3.4C273.2,96.5,265.1,92.4,268.9,87.5z"/>
				<path id="XMLID_24786_" class="st1" d="M312.1,106.8c0,0,9.5,7.1,21.9,2.9"/>
				<path id="XMLID_24785_" class="st1" d="M308.7,111.6c0,0-9.6-12-9.2-18.7"/>
				<path id="XMLID_24784_" class="st1" d="M288.7,107.1c0,0-15.4,3.2-18.7,1.8"/>
				<g id="XMLID_24781_">
					<path id="XMLID_24783_" class="st1" d="M291.9,112.8c0.4,3.2,1.4,5.4,3.4,5.8c1.1,0.2,2.1,0.2,2.9,0c0.7-0.2,1.2-0.4,1.6-0.6"
						/>
					<path id="XMLID_24782_" class="st1" d="M302.5,74.6c0,0-7.5,19.7-9.5,33.6"/>
				</g>
				<path id="XMLID_24780_" class="st1" d="M313,71.5c0,0-26.9,23.5,6.5,34.3S342.2,59.6,313,71.5z"/>
				<path id="XMLID_24779_" class="st1" d="M331.5,91.1c0,0,5.5-2.2,4.9,3.4C335.8,100.1,327.8,95.9,331.5,91.1z"/>
				<path id="XMLID_24778_" class="st1" d="M285.3,177.1c0,0-6.4,5.9,6.8,8.5s21.8-0.8,19.2-5.7"/>
				<path id="XMLID_24777_" class="st1" d="M315.2,66.8c0,0-12.3,1.3-3.5,10.1c8.8,8.7,25.7,0.4,24.8-2.7
					C335.6,71.1,334,66,315.2,66.8z"/>
				<path id="XMLID_24776_" class="st1" d="M265.1,59.3c0,0,20.5-8.2,44.6-2.8s36.6,11.1,36.6,11.1c-7.6-26.5-54.2-26.9-77.8-25.5
					c-23.5,1.4-17.3,10.4-17.3,10.4S254.6,56.6,265.1,59.3z"/>
				<path id="XMLID_24775_" class="st1" d="M265.1,59.3c0,0-40.7-11.5,15.7-13.7s65.4,21.9,65.4,21.9S294.3,44.7,265.1,59.3z"/>
				<g id="XMLID_24769_">
					<path id="XMLID_24774_" class="st1" d="M288.4,114.4c0,0-7.1,8.3,4.3,10.6"/>
					<path id="XMLID_24773_" class="st1" d="M308.1,114.5c0,0,7.6,6.3-3.1,10.6"/>
					<path id="XMLID_24772_" class="st1" d="M304.6,121.4c-1.6,0.4-3.2-2.1-2.1-1.8c1.1,0.3,2.7-1.9,3.9,0"/>
					<path id="XMLID_24771_" class="st1" d="M292.9,120.6c0.9,0.5-1.3,1.8-1.3,1.8c-2.2-0.1-2.7-1.8-1.5-2.7"/>
					<path id="XMLID_24770_" class="st1" d="M299.3,110.1c0,0,2.2-0.1,2.8,0.7"/>
				</g>
				<path id="XMLID_24768_" class="st1" d="M284.2,119.5c0,0-6.2,3.1-8,3.8"/>
				<line id="XMLID_24767_" class="st2" x1="265.9" y1="122" x2="268.4" y2="123.2"/>
				<path id="XMLID_24766_" class="st1" d="M312.5,117.9c0,0,7.3,3.5,8,3.4"/>
				<path id="XMLID_24765_" class="st1" d="M343.5,87c0,0,1,2.1-0.6,3"/>
				<path id="XMLID_24764_" class="st1" d="M337.8,108.5c0,0-0.5,1.9-1,2.6"/>
				<path id="XMLID_24763_" class="st1" d="M338.6,71.2c0,0,0.8-3.6,0-3.6"/>
				<path id="XMLID_24762_" class="st1" d="M286.4,58.9c0,0,3.4,0.5,3,1"/>
				<path id="XMLID_24761_" class="st1" d="M307.1,65.3c0,0,3.9-0.6,4.2-1.3"/>
				<path id="XMLID_24760_" class="st1" d="M277.1,161.4c0,0,2.8,0.6,3,1.2"/>
				<path id="XMLID_24759_" class="st1" d="M323.3,162.8c0,0-2.6,1.2-3.4,2.5"/>
				<path id="XMLID_24758_" class="st1" d="M279.4,61.4c0,0-19-1.2-10.2,9.5s24.4-0.1,25.6-4.7S279.4,61.4,279.4,61.4z"/>
				<path id="XMLID_24757_" class="st1" d="M270.2,99.6"/>
				<path id="XMLID_24756_" class="st1" d="M288.7,102"/>
				<line id="XMLID_24755_" class="st2" x1="330.5" y1="123" x2="333.2" y2="122.3"/>
				<path id="XMLID_24754_" class="st1" d="M341.3,109.9c0,0,19.9-22,18.7-3.5s-8,37.9-14.4,34.7c-6.4-3.1-6-8.5-6-8.5"/>
				<path id="XMLID_24753_" class="st1" d="M347.1,111.6c0,0,7.9-10.2,9.2-5"/>
				<path id="XMLID_24752_" class="st1" d="M343.8,118.9c0,0,10.4-1.8,8.5,4s-6,9.4-7.2,2.7"/>
				<g id="XMLID_24747_">
					<path id="XMLID_24751_" class="st1" d="M270.3,98.6c0,0-5.3,0.7-3,3.2s3.5-0.6,7.4,1.4"/>
					<path id="XMLID_24750_" class="st1" d="M335.7,101.3c0,0,5.3,0.7,3,3.2s-3.5-0.6-7.4,1.4"/>
					<path id="XMLID_24749_" class="st1" d="M329.9,100.8c0,0-12.3-0.9-19.5,1"/>
					<path id="XMLID_24748_" class="st1" d="M276.3,97.5c0,0,7.2-1.4,15.2,1.2"/>
				</g>
				<g id="XMLID_24735_">
					<path id="XMLID_24746_" class="st1" d="M291.5,136c0,0,36.5-3.3,23.2,26C301.4,191.4,260.7,156.4,291.5,136z"/>
					<path id="XMLID_24745_" class="st1" d="M292.7,165.5c-3.6-1.6-7.7,9.5-11.5-0.9c-3.8-10.3,19.4-0.7,19.4-0.7s7.3,2.4,10,3.7"/>
					<path id="XMLID_24744_" class="st1" d="M311.1,167.9c1.3-1.6,2.6-3.5,3.6-5.8c13.3-29.3-23.2-26-23.2-26
						c-11.4,7.6-13,17-9.8,24.7c3.9-2.9,18.8,3.3,18.8,3.3s7.3,2.4,10,3.7"/>
					<g id="XMLID_24737_">
						<path id="XMLID_24743_" class="st1" d="M283,143c0,0,5.5-2.2,4.9,3.4C287.2,152.2,279.2,147.9,283,143z"/>
						<path id="XMLID_24742_" class="st1" d="M288.9,143.1c0,0,5.5-2.2,4.9,3.4C293.1,152.1,285.1,148,288.9,143.1z"/>
						<path id="XMLID_24741_" class="st1" d="M294.9,143.1c0,0,5.5-2.2,4.9,3.4C299.1,152.1,291,148,294.9,143.1z"/>
						<path id="XMLID_24740_" class="st1" d="M300.8,143.1c0,0,5.5-2.2,4.9,3.4C304.9,152.2,296.9,148,300.8,143.1z"/>
						<path id="XMLID_24739_" class="st1" d="M306.7,143.2c0,0,5.5-2.2,4.9,3.4C310.9,152.2,302.8,148,306.7,143.2z"/>
						<path id="XMLID_24738_" class="st1" d="M312.6,143.2c0,0,5.5-2.2,4.9,3.4C316.7,152.3,308.7,148.1,312.6,143.2z"/>
					</g>
					<path id="XMLID_24736_" class="st1" d="M289.1,143.3c0,0,5.1-2,4.9,2.9l0,0c-0.1-0.9,0.2-1.8,1-2.9c0,0,5.1-2,4.9,2.9l0,0
						c-0.1-0.9,0.2-1.8,1-2.9c0,0,5.1-2,4.9,2.9l0,0c-0.1-0.9,0.2-1.8,1-2.9c0,0,5.1-2,4.9,2.9l0,0c-0.1-0.9,0.2-1.8,1-2.9
						c0,0,1.3-0.5,2.5-0.4c-6.6-8.3-23.6-6.8-23.6-6.8c-3.2,2.1-5.6,4.4-7.3,6.7c1.5-0.3,3.9-0.2,3.7,3.2l0,0
						C288,145.3,288.3,144.3,289.1,143.3z"/>
				</g>
				<g id="XMLID_24730_">
					<path id="XMLID_24734_" class="st1" d="M286.1,139.5c0,0-19.6,2.5-8.7,9.7C288.3,156.3,286.1,139.5,286.1,139.5z"/>
					<path id="XMLID_24733_" class="st1" d="M283.2,133.7c0,0-16.2-1-8.7,7.5c7.5,8.4,20.8-0.1,21.9-3.7
						C297.4,133.9,283.2,133.7,283.2,133.7z"/>
					<path id="XMLID_24732_" class="st1" d="M315.6,138c0,0-7.9-2.6-6.5,7.4c1.3,10,15,8.4,15.8,5.5
						C325.6,147.9,327,143.1,315.6,138z"/>
					<path id="XMLID_24731_" class="st1" d="M308.8,135.4c0,0-23-3-0.3,8.2C331,154.7,335,138.9,308.8,135.4z"/>
				</g>
				<path id="XMLID_24729_" class="st1" d="M328.5,26.6c0,0,1.8,1.4,0.8,3"/>
				<line id="XMLID_24728_" class="st2" x1="280.4" y1="41.4" x2="281.5" y2="38.8"/>
			</g>
		</g>
		<path id="XMLID_24723_" class="st1" d="M234.1,188.7c-0.9-6.8-2.5-9.4-4.5-10.6c0,0-10.7-4-13.7,6.1c-3,10.2,6,12.2,7.2,12.1
			C224.3,196.4,234.9,195.5,234.1,188.7z M227.2,188.1c-0.3,0.6-0.9,1.1-2.7,1.4c-1.8,0.3-2.3-2.4-2.3-2.7s0.3-2.8,3.1-2.2
			C228,185.1,227.2,188.1,227.2,188.1z"/>
		<g>
			<g id="XMLID_24719_">
				<path id="XMLID_24722_" class="st1" d="M247.5,192"/>
				<path id="XMLID_24721_" class="st1" d="M253.9,191.6c0-2.7-0.2-6.4,0.8-7.2c1.4-1.1,5.8-0.6,5.2,2.2c-0.4,1.6-0.4,3.5-0.4,4.7
					c0,0.9,0,1.6,0,1.9c0,0.7,0.3,2.2,2.8,2.5c3.2,0.4,3.7-0.7,3.7-3s2.7-13.3-6.6-15.2c-6.6-1.4-10,2.4-11.5,5.3"/>
				<path id="XMLID_24720_" class="st1" d="M254.2,184"/>
			</g>
			<g id="XMLID_24715_">
				<path id="XMLID_24718_" class="st1" d="M235.5,191.9c0.4,1.9,6.3,0.5,6.3-0.4c0-2.7-0.2-6.4,0.8-7.2c1.1-0.9,4.3-0.8,5.1,0.8
					c0.2,0.4,0.2,0.8,0.1,1.3c-0.4,1.6-0.4,3.5-0.4,4.7c0,0.9,0,1.6,0,1.9c0,0.7,0.3,2.2,2.8,2.5c3.2,0.4,3.7-0.7,3.7-3
					s2.7-13.3-6.6-15.2c-9.4-1.9-12.4,6.4-12.4,8.4C234.9,187,235.2,189.6,235.5,191.9"/>
				<path id="XMLID_24717_" class="st1" d="M242.2,184"/>
				<path id="XMLID_24716_" class="st1" d="M242.2,184c0.2,3.8,0,8.1-0.5,9.8c0,0-1.8,3.2-4.5,1.7s-2.8-16.8-1.2-17.5
					c1.7-0.7,5-2.2,5.8,1.3"/>
			</g>
		</g>
		<path id="XMLID_24714_" class="st1" d="M211.7,187.8c-0.5,0.2-0.9,0.7-1.3,1.3c-0.1,0.2-0.2,0.3-0.3,0.5c-0.1,0.1-0.4,0.4-0.5,0.5
			c-1.4,0.6-4.1,1.4-5.2-1.4c-0.1-0.2-0.2-1-0.2-1.2c0-0.4,0-0.8,0.1-1.1c0.3-3,1.3-4.3,2.2-4.4c1.1-0.1,3.3,0.6,3.9,2.1
			c0,0,0.6,2.7,2.1,2.3s4.3-1.9,2.1-4.8c-2.2-2.9-4.4-5.9-10.6-3.8c-6.2,2.1-5,10-4.8,10.5s3.3,11.5,11.8,6.7
			C219.3,190,212.6,187.5,211.7,187.8z"/>
		<path id="XMLID_24713_" class="st1" d="M227.9,185.7"/>
		<path id="XMLID_24712_" class="st1" d="M193.8,194c-0.3,0.6-0.9,1.1-2.7,1.4c-1.8,0.3-2.3-2.4-2.3-2.7s0.3-2.8,3.1-2.2
			S193.8,194,193.8,194z"/>
	</g>
</g>
<g>
	<g>
		<g id="XMLID_162_">
			<path id="XMLID_174_" class="st1" d="M226.2,41.3c0,0-1.4-26.7-19.5-18.9s-8.3,83.5,37.7,72.8S272.1,25,272.1,25
				s-19-17.1-22.6,12.3c0,0-1.1,19.7-10.1,21.3C230.5,60,225.3,46.2,226.2,41.3z"/>
			<g id="XMLID_172_">
				<path id="XMLID_173_" class="st1" d="M203,57.6c0,0-31.7,31.1-25.1-27.2c0,0-7.4-18.1-22.2-10.6s-17.3,100,53.5,74.3
					c0,0,19-7.2,24.1-10.9"/>
			</g>
			<line id="XMLID_171_" class="st2" x1="170.6" y1="91" x2="173.6" y2="92.3"/>
			<path id="XMLID_170_" class="st1" d="M239.6,71.6c0,0,1.1,2.4-0.7,3.5"/>
			<path id="XMLID_169_" class="st1" d="M271,66.7c0,0-0.5,2.2-1.1,2.9"/>
			<path id="XMLID_168_" class="st1" d="M253.4,36.2c0,0,0.9-4.1,0-4.1"/>
			<path id="XMLID_167_" class="st1" d="M163.1,22.1c0,0,3.9,0.5,3.5,1.2"/>
			<path id="XMLID_166_" class="st1" d="M187.8,71.5c0,0,4.5-0.6,4.8-1.5"/>
			<path id="XMLID_165_" class="st1" d="M210.8,26.1c0,0-3,1.4-3.8,2.8"/>
			<line id="XMLID_164_" class="st2" x1="239.4" y1="61" x2="242.5" y2="60.2"/>
			<line id="XMLID_163_" class="st2" x1="246" y1="90.4" x2="249.1" y2="89.5"/>
		</g>
		<g id="XMLID_148_">
			<path id="XMLID_161_" class="st1" d="M125.9,29.9"/>
			<path id="XMLID_158_" class="st1" d="M148.7,24.7C112.5-2.2,84,31.2,84,31.2s-23.5,53.3,20.8,67.6C149,113.2,185,51.5,148.7,24.7
				z M128.7,61.4c-8.5,21.9-34.3-12.6-15.8-15.1C112.9,46.3,137.2,39.4,128.7,61.4z"/>
			<path id="XMLID_157_" class="st1" d="M134.5,21.2"/>
			<line id="XMLID_156_" class="st2" x1="92.7" y1="87.9" x2="95.6" y2="89.2"/>
			<path id="XMLID_155_" class="st1" d="M137.3,90.8c0,0-0.5,2.6-2.6,2.4"/>
			<path id="XMLID_154_" class="st1" d="M132,61.8c0,0-0.5,2.2-1.1,2.9"/>
			<path id="XMLID_153_" class="st1" d="M158.7,60.2c0,0,0.9-4.1,0-4.1"/>
			<path id="XMLID_152_" class="st1" d="M132.3,20.6c0,0,3.9,0.5,3.5,1.2"/>
			<path id="XMLID_151_" class="st1" d="M107.2,68.3c0,0,3.8,2.6,4.5,2.1"/>
			<path id="XMLID_150_" class="st1" d="M90.5,32c0,0-3,1.4-3.8,2.8"/>
			<line id="XMLID_149_" class="st2" x1="108" y1="43.6" x2="111.2" y2="42.8"/>
		</g>
		<g id="XMLID_137_">
			<path id="XMLID_147_" class="st1" d="M40.5,21.5c0,0-3.7-18.4-21.7-12s-9.6,76.2-1.2,81.6C25.9,96.5,49,129.7,40.5,21.5z"/>
			<path id="XMLID_146_" class="st1" d="M36.1,55c0,0,31.7-31.1,25.1,27.2c0,0,7.4,18.1,22.2,10.6c14.7-7.4,17.3-100-53.5-74.3"/>
			<line id="XMLID_145_" class="st2" x1="25.9" y1="90.3" x2="28.9" y2="91.6"/>
			<path id="XMLID_144_" class="st1" d="M79.9,82.8c0,0,1.1,2.4-0.7,3.5"/>
			<path id="XMLID_143_" class="st1" d="M87.1,52.9c0,0-0.5,2.2-1.1,2.9"/>
			<path id="XMLID_142_" class="st1" d="M36.8,71.3c0,0,0.9-4.1,0-4.1"/>
			<path id="XMLID_141_" class="st1" d="M59.1,43c0,0,3.9,0.5,3.5,1.2"/>
			<path id="XMLID_140_" class="st1" d="M21.4,62.3c0,0,4.5-0.6,4.8-1.5"/>
			<path id="XMLID_139_" class="st1" d="M44.4,19.4c0,0-3,1.4-3.8,2.8"/>
			<line id="XMLID_138_" class="st2" x1="17.4" y1="24.2" x2="20.5" y2="23.3"/>
		</g>
		<g id="XMLID_126_">
			<path id="XMLID_136_" class="st1" d="M59.7,84.1c0,0-3.7-18.4-21.7-12c-18.1,6.3-9.5,76.2-1.2,81.6
				C45.2,159.1,68.3,192.3,59.7,84.1z"/>
			<path id="XMLID_135_" class="st1" d="M55.5,117.5c0,0,31.7-31.1,25.1,27.2c0,0,7.4,18.1,22.2,10.6S120.1,55.4,49.3,81"/>
			<line id="XMLID_134_" class="st2" x1="46.2" y1="155.4" x2="49.2" y2="156.7"/>
			<path id="XMLID_133_" class="st1" d="M100.2,147.9c0,0,1.1,2.4-0.7,3.5"/>
			<path id="XMLID_132_" class="st1" d="M107.4,118c0,0-0.5,2.2-1.1,2.9"/>
			<path id="XMLID_131_" class="st1" d="M57.1,136.3c0,0,0.9-4.1,0-4.1"/>
			<path id="XMLID_130_" class="st1" d="M79.4,108.1c0,0,3.9,0.5,3.5,1.2"/>
			<path id="XMLID_129_" class="st1" d="M41.7,127.3c0,0,4.5-0.6,4.8-1.5"/>
			<path id="XMLID_128_" class="st1" d="M64.7,84.5c0,0-3,1.4-3.8,2.8"/>
			<line id="XMLID_127_" class="st2" x1="37.7" y1="89.2" x2="40.8" y2="88.4"/>
		</g>
		<g>
			<g id="XMLID_124_">
				<path id="XMLID_125_" class="st1" d="M123.7,115.6c0,0,5.2-26.8-17.4-19.3s-9.3,66.3,2.7,63.8S126.5,148.3,123.7,115.6z"/>
			</g>
			<line id="XMLID_123_" class="st2" x1="104.4" y1="152.8" x2="107.4" y2="154.1"/>
			<path id="XMLID_122_" class="st1" d="M119.4,143.4c0,0,1.1,2.4-0.7,3.5"/>
			<path id="XMLID_121_" class="st1" d="M101.3,108.7c0,0-0.5,2.2-1.1,2.9"/>
			<path id="XMLID_120_" class="st1" d="M120.2,110.2c0,0,0.9-4.1,0-4.1"/>
			<path id="XMLID_119_" class="st1" d="M110,98.4c0,0,3.9,0.5,3.5,1.2"/>
		</g>
		<g>
			<path id="XMLID_118_" class="st1" d="M111.6,59.9c0,0,25.4,14.7,0.3,25.4S94.7,46.5,111.6,59.9z"/>
			<path id="XMLID_117_" class="st1" d="M107,83.7c0,0,4.5-0.6,4.8-1.5"/>
			<path id="XMLID_116_" class="st1" d="M104.7,61.7c0,0-3,1.4-3.8,2.8"/>
		</g>
		<g id="XMLID_101_">
			<path id="XMLID_115_" class="st1" d="M153.6,102.6"/>
			<path id="XMLID_112_" class="st1" d="M173.9,98.1c-32-23.7-57.2,5.8-57.2,5.8s-20.8,47,18.3,59.7
				C174.1,176.2,205.9,121.8,173.9,98.1z M157,130.8c-8.3,21.2-33.2-12.2-15.3-14.6C141.8,116.2,165.3,109.6,157,130.8z"/>
			<path id="XMLID_111_" class="st1" d="M161.3,95"/>
			<path id="XMLID_110_" class="st1" d="M161.3,95c0,0,25.1-26.6,25.5,23.6s8.6,96-39.5,95.5c0,0-26-12.3,0.1-25.1
				c12.8-6.2,15.4-19.3,15.3-35.7"/>
			<line id="XMLID_109_" class="st2" x1="145" y1="207.6" x2="147.9" y2="208.9"/>
			<path id="XMLID_108_" class="st1" d="M170.8,202.7c0,0,1.1,2.4-0.7,3.5"/>
			<path id="XMLID_107_" class="st1" d="M183.8,177.6c0,0-0.5,2.2-1.1,2.9"/>
			<path id="XMLID_106_" class="st1" d="M181.6,145.5c0,0,0.9-4.1,0-4.1"/>
			<path id="XMLID_105_" class="st1" d="M126.4,155.9c0,0,3.9,0.5,3.5,1.2"/>
			<path id="XMLID_104_" class="st1" d="M173.6,114.7c0,0,4.5-0.6,4.8-1.5"/>
			<path id="XMLID_103_" class="st1" d="M126.9,102.2c0,0-3,1.4-3.8,2.8"/>
			<line id="XMLID_102_" class="st2" x1="159.2" y1="137" x2="156.4" y2="138.7"/>
		</g>
		<path id="XMLID_100_" class="st1" d="M217.5,101c0,0-6.7-4.7-9.5-1c-2.9,3.7-7.8,9.9-2.1,22s27.9,2.2,30-3.5"/>
		<g>
			<path id="XMLID_99_" class="st1" d="M243.4,110.9L243.4,110.9c-4.2-11.2-13.3-20.1-27.4-21.6c-28.1-2.9-39.8,15.2-44.2,26.3
				c0,0-1,1.7-1.7,4.9c-0.6,1.9-0.7,3.6-0.6,4.3c-0.4,6.1,0.5,15.1,6.2,27c4.6,9.7,16.3,13.3,24.1,14.5c2.2,0.5,4.6,0.7,7.1,0.7
				c0.1,0,0.2,0,0.2,0l0,0c2.7,0,5.6-0.4,8.7-1.1c12.3-2.7,20.8-10.6,25.7-20.3c-0.8-11.2-10.3-12.6-16.1-13.5
				c-3.1-0.5-6.4,1.4-8.8,3.5c-0.3,0.2-0.5,0.4-0.8,0.6c-8.3,6.1-30.1-6-18.5-15c0,0,3.9-4.1,8.5-6l0,0c0,0,3.8-1.9,6.9-0.8
				c1.2,0.4,2.3,1.3,3,3c0,0.1,0.1,0.2,0.1,0.3c0.3,0.8,0.8,1.6,1.3,2.5c3.8,6.1,12.1,14.3,20,8.7c9-6.5,8-9,8.4-11.5l0,0
				C245.7,115,243.4,110.9,243.4,110.9z"/>
			<line id="XMLID_98_" class="st2" x1="180.2" y1="151.1" x2="182.1" y2="153.7"/>
			<path id="XMLID_97_" class="st1" d="M233.7,148.5c0,0,1.1,2.4-0.7,3.5"/>
			<path id="XMLID_96_" class="st1" d="M243,117.5c0,0-0.5,2.2-1.1,2.9"/>
			<path id="XMLID_95_" class="st1" d="M191.9,120.9c0,0,0.9-4.1,0-4.1"/>
			<path id="XMLID_94_" class="st1" d="M212.9,108.6c0,0,3.9,0.5,3.5,1.2"/>
			<path id="XMLID_93_" class="st1" d="M208.5,163c0,0,4.5-0.6,4.8-1.5"/>
			<path id="XMLID_92_" class="st1" d="M185.4,102.7c0,0-3,1.4-3.8,2.8"/>
			<line id="XMLID_91_" class="st2" x1="229.9" y1="127.7" x2="233" y2="126.9"/>
		</g>
		<g>
			<path id="XMLID_90_" class="st1" d="M260.5,79.4c0,0-3.7-21.4-21.7-14c-18.1,7.4-9.6,89-1.2,95.3C245.9,167,269,205.8,260.5,79.4
				z"/>
			<path id="XMLID_89_" class="st1" d="M252.8,158.5c0,0,1.1,2.4-0.7,3.5"/>
			<path id="XMLID_88_" class="st1" d="M258.8,119.9c0,0,0.3,2.2,0,3.2"/>
			<path id="XMLID_87_" class="st1" d="M235.5,135c0,0,0.9-4.1,0-4.1"/>
			<path id="XMLID_86_" class="st1" d="M241,69.9c0,0-3,1.4-3.8,2.8"/>
		</g>
		<g id="XMLID_15_">
			<path id="XMLID_85_" class="st1" d="M313.8,178.2c0.2-3.5-0.9-13.6-1.1-16.9c-0.2-3-0.6-5.6-1.3-7.7
				c11.7-19.8-20.3-42.8-31.9-17.2c-3.6,8-3.2,23.4-3.2,26c0.1,3.4,0.1,14.9,0.1,17.9c0,16.6,24.6,29.9,34.5,8.4"/>
			<g id="XMLID_16_">
				<g id="XMLID_81_">
					<path id="XMLID_84_" class="st1" d="M255.9,95.1c0,0-17.8-23.8-18.3-5.3c-0.6,18.5,4.4,38.4,11,35.9c6.6-2.5,6.7-8,6.7-8"/>
					<path id="XMLID_83_" class="st1" d="M250,96.4c0,0-7-10.8-8.7-5.7"/>
					<path id="XMLID_82_" class="st1" d="M252.6,103.9c0,0-10.3-2.7-8.8,3.3s5.1,9.9,7,3.3"/>
				</g>
				<path id="XMLID_80_" class="st1" d="M309.8,12.3c0,0-6.7,5.9,1.6,8.6C319.8,23.6,317.1,9.3,309.8,12.3z"/>
				<path id="XMLID_79_" class="st1" d="M295.6,26.6c0,0,53.6,4.1,45.8,67.3s-5.8,74.8-36.1,81c-30.2,6.3-46.7-15.9-50-32.7
					C252.1,125.4,228.4,34.6,295.6,26.6z"/>
				<path id="XMLID_78_" class="st1" d="M338.6,41.9c-0.2-2.1-1.1-4.8-3-8.1v-0.1l0,0c-0.4-0.7-0.8-1.4-1.3-2.2
					c-6-9.4-15.7-14.9-24.6-17.6c-38.3-17.5-42.4,19-42.5,32.8c0,1.3,17.3,0,33.1-4c20,8.2,38.8,17.3,38.8,17.3
					S340.5,48.1,338.6,41.9z"/>
				<path id="XMLID_77_" class="st1" d="M264.9,59.6c0,0,36.5-3.3,23.2,26C274.8,115,234.2,79.9,264.9,59.6z"/>
				<path id="XMLID_76_" class="st1" d="M261.4,79.9c0,0,5.5-2.2,4.9,3.4C265.7,88.9,257.7,84.7,261.4,79.9z"/>
				<path id="XMLID_75_" class="st1" d="M304.7,99.1c0,0,9.5,7.1,21.9,2.9"/>
				<path id="XMLID_74_" class="st1" d="M301.2,103.9c0,0-9.6-12-9.2-18.7"/>
				<path id="XMLID_73_" class="st1" d="M281.3,99.4c0,0-15.4,3.2-18.7,1.8"/>
				<g id="XMLID_70_">
					<path id="XMLID_72_" class="st1" d="M284.4,105.2c0.4,3.2,1.4,5.4,3.4,5.8c1.1,0.2,2.1,0.2,2.9,0c0.7-0.2,1.2-0.4,1.6-0.6"/>
					<path id="XMLID_71_" class="st1" d="M295,67c0,0-7.5,19.7-9.5,33.6"/>
				</g>
				<path id="XMLID_69_" class="st1" d="M305.5,63.8c0,0-26.9,23.5,6.5,34.3S334.8,52,305.5,63.8z"/>
				<path id="XMLID_68_" class="st1" d="M324,83.4c0,0,5.5-2.2,4.9,3.4C328.3,92.5,320.3,88.3,324,83.4z"/>
				<path id="XMLID_67_" class="st1" d="M277.8,169.3c0,0-6.4,5.9,6.8,8.5c13.2,2.7,21.8-0.8,19.2-5.7"/>
				<path id="XMLID_66_" class="st1" d="M307.7,59.2c0,0-12.3,1.3-3.5,10.1c8.8,8.7,25.7,0.4,24.8-2.7
					C328.1,63.4,326.5,58.3,307.7,59.2z"/>
				<path id="XMLID_65_" class="st1" d="M257.7,51.5c0,0,20.5-8.2,44.6-2.8s36.6,11.1,36.6,11.1c-7.6-26.5-54.2-26.9-77.8-25.5
					c-23.5,1.4-17.3,10.4-17.3,10.4S247.2,49,257.7,51.5z"/>
				<path id="XMLID_64_" class="st1" d="M257.7,51.5c0,0-40.7-11.5,15.7-13.7s65.4,21.9,65.4,21.9S286.8,37.1,257.7,51.5z"/>
				<g id="XMLID_58_">
					<path id="XMLID_63_" class="st1" d="M281,106.7c0,0-7.1,8.3,4.3,10.6"/>
					<path id="XMLID_62_" class="st1" d="M300.6,106.8c0,0,7.6,6.3-3.1,10.6"/>
					<path id="XMLID_61_" class="st1" d="M297.1,113.8c-1.6,0.4-3.2-2.1-2.1-1.8s2.7-1.9,3.9,0"/>
					<path id="XMLID_60_" class="st1" d="M285.4,113c0.9,0.5-1.3,1.8-1.3,1.8c-2.2-0.1-2.7-1.8-1.5-2.7"/>
					<path id="XMLID_59_" class="st1" d="M291.8,102.5c0,0,2.2-0.1,2.8,0.7"/>
				</g>
				<path id="XMLID_57_" class="st1" d="M276.8,111.8c0,0-6.2,3.1-8,3.8"/>
				<line id="XMLID_56_" class="st2" x1="258.5" y1="114.3" x2="261" y2="115.5"/>
				<path id="XMLID_55_" class="st1" d="M305,110.2c0,0,7.3,3.5,8,3.4"/>
				<path id="XMLID_54_" class="st1" d="M336.1,79.4c0,0,1,2.1-0.6,3"/>
				<path id="XMLID_53_" class="st1" d="M330.3,100.9c0,0-0.5,1.9-1,2.6"/>
				<path id="XMLID_52_" class="st1" d="M331.1,63.6c0,0,0.8-3.6,0-3.6"/>
				<path id="XMLID_51_" class="st1" d="M279,51.2c0,0,3.4,0.5,3,1"/>
				<path id="XMLID_50_" class="st1" d="M299.6,57.6c0,0,3.9-0.6,4.2-1.3"/>
				<path id="XMLID_49_" class="st1" d="M269.6,153.8c0,0,2.8,0.6,3,1.2"/>
				<path id="XMLID_48_" class="st1" d="M315.8,155.2c0,0-2.6,1.2-3.4,2.5"/>
				<path id="XMLID_47_" class="st1" d="M272,53.7c0,0-19-1.2-10.2,9.5c8.8,10.6,24.4-0.1,25.6-4.7C288.7,54.1,272,53.7,272,53.7z"
					/>
				<path id="XMLID_46_" class="st1" d="M262.7,92"/>
				<path id="XMLID_45_" class="st1" d="M281.3,94.2"/>
				<line id="XMLID_44_" class="st2" x1="323" y1="115.3" x2="325.7" y2="114.5"/>
				<path id="XMLID_43_" class="st1" d="M333.8,102.3c0,0,19.9-22,18.7-3.5s-8,37.9-14.4,34.7c-6.4-3.1-6-8.5-6-8.5"/>
				<path id="XMLID_42_" class="st1" d="M339.6,104c0,0,7.9-10.2,9.2-5"/>
				<path id="XMLID_41_" class="st1" d="M336.3,111.3c0,0,10.4-1.8,8.5,4s-6,9.4-7.2,2.7"/>
				<g id="XMLID_36_">
					<path id="XMLID_40_" class="st1" d="M262.8,91c0,0-5.3,0.7-3,3.2s3.5-0.6,7.4,1.4"/>
					<path id="XMLID_39_" class="st1" d="M328.3,93.5c0,0,5.3,0.7,3,3.2s-3.5-0.6-7.4,1.4"/>
					<path id="XMLID_38_" class="st1" d="M322.5,93.1c0,0-12.3-0.9-19.5,1"/>
					<path id="XMLID_37_" class="st1" d="M268.8,89.9c0,0,7.2-1.4,15.2,1.2"/>
				</g>
				<g id="XMLID_24_">
					<path id="XMLID_35_" class="st1" d="M284,128.4c0,0,36.5-3.3,23.2,26S253.2,148.7,284,128.4z"/>
					<path id="XMLID_34_" class="st1" d="M285.2,157.9c-3.6-1.6-7.7,9.5-11.5-0.9c-3.8-10.3,19.4-0.7,19.4-0.7s7.3,2.4,10,3.7"/>
					<path id="XMLID_33_" class="st1" d="M303.6,160.2c1.3-1.6,2.6-3.5,3.6-5.8c13.3-29.3-23.2-26-23.2-26c-11.4,7.6-13,17-9.8,24.7
						c3.9-2.9,18.8,3.3,18.8,3.3s7.3,2.4,10,3.7"/>
					<g id="XMLID_26_">
						<path id="XMLID_32_" class="st1" d="M275.5,135.4c0,0,5.5-2.2,4.9,3.4C279.8,144.4,271.8,140.2,275.5,135.4z"/>
						<path id="XMLID_31_" class="st1" d="M281.4,135.4c0,0,5.5-2.2,4.9,3.4C285.7,144.5,277.7,140.2,281.4,135.4z"/>
						<path id="XMLID_30_" class="st1" d="M287.4,135.5c0,0,5.5-2.2,4.9,3.4C291.6,144.6,283.6,140.3,287.4,135.5z"/>
						<path id="XMLID_29_" class="st1" d="M293.3,135.5c0,0,5.5-2.2,4.9,3.4C297.6,144.5,289.5,140.3,293.3,135.5z"/>
						<path id="XMLID_28_" class="st1" d="M299.2,135.5c0,0,5.5-2.2,4.9,3.4C303.4,144.6,295.4,140.3,299.2,135.5z"/>
						<path id="XMLID_27_" class="st1" d="M305.1,135.5c0,0,5.5-2.2,4.9,3.4C309.4,144.6,301.3,140.3,305.1,135.5z"/>
					</g>
					<path id="XMLID_25_" class="st1" d="M281.6,135.6c0,0,5.1-2,4.9,2.9l0,0c-0.1-0.9,0.2-1.8,1-2.9c0,0,5.1-2,4.9,2.9l0,0
						c-0.1-0.9,0.2-1.8,1-2.9c0,0,5.1-2,4.9,2.9l0,0c-0.1-0.9,0.2-1.8,1-2.9c0,0,5.1-2,4.9,2.9l0,0c-0.1-0.9,0.2-1.8,1-2.9
						c0,0,1.3-0.5,2.5-0.4c-6.6-8.3-23.6-6.8-23.6-6.8c-3.2,2.1-5.6,4.4-7.3,6.7c1.5-0.3,3.9-0.2,3.7,3.2l0,0
						C280.5,137.5,280.8,136.6,281.6,135.6z"/>
				</g>
				<g id="XMLID_19_">
					<path id="XMLID_23_" class="st1" d="M278.7,131.8c0,0-19.6,2.5-8.7,9.7C280.8,148.6,278.7,131.8,278.7,131.8z"/>
					<path id="XMLID_22_" class="st1" d="M275.7,126c0,0-16.2-1-8.7,7.5c7.5,8.4,20.8-0.1,21.9-3.7C289.9,126.3,275.7,126,275.7,126
						z"/>
					<path id="XMLID_21_" class="st1" d="M308.1,130.4c0,0-7.9-2.6-6.5,7.4c1.3,10,15,8.4,15.8,5.5
						C318.2,140.3,319.5,135.5,308.1,130.4z"/>
					<path id="XMLID_20_" class="st1" d="M301.3,127.6c0,0-23-3-0.3,8.2C323.5,147,327.6,131.2,301.3,127.6z"/>
				</g>
				<path id="XMLID_18_" class="st1" d="M321,19c0,0,1.8,1.4,0.8,3"/>
				<line id="XMLID_17_" class="st2" x1="272.9" y1="33.8" x2="274.1" y2="31.2"/>
			</g>
		</g>
		<path id="XMLID_12_" class="st1" d="M230.4,184.9c-0.9-6.8-2.5-9.4-4.5-10.6c0,0-10.7-4-13.7,6.1c-3,10.2,6,12.2,7.2,12.1
			C220.7,192.6,231.3,191.7,230.4,184.9z M223.5,184.3c-0.3,0.6-0.9,1.1-2.7,1.4c-1.8,0.4-2.3-2.4-2.3-2.7s0.3-2.8,3.1-2.2
			C224.3,181.3,223.5,184.3,223.5,184.3z"/>
		<g>
			<g id="XMLID_8_">
				<path id="XMLID_11_" class="st1" d="M243.9,188.2"/>
				<path id="XMLID_10_" class="st1" d="M250.2,187.8c0-2.7-0.2-6.4,0.8-7.2c1.4-1.1,5.8-0.6,5.2,2.2c-0.4,1.6-0.4,3.5-0.4,4.7
					c0,0.9,0,1.6,0,1.9c0,0.7,0.3,2.2,2.8,2.5c3.2,0.4,3.7-0.7,3.7-3s2.7-13.3-6.6-15.2c-6.6-1.4-10,2.4-11.5,5.3"/>
				<path id="XMLID_9_" class="st1" d="M250.6,180.2"/>
			</g>
			<g id="XMLID_4_">
				<path id="XMLID_7_" class="st1" d="M231.9,188.1c0.4,1.9,6.3,0.5,6.3-0.4c0-2.7-0.2-6.4,0.8-7.2c1.1-0.9,4.3-0.8,5.1,0.8
					c0.2,0.4,0.2,0.8,0.1,1.3c-0.4,1.6-0.4,3.5-0.4,4.7c0,0.9,0,1.6,0,1.9c0,0.7,0.3,2.2,2.8,2.5c3.2,0.4,3.7-0.7,3.7-3
					s2.7-13.3-6.6-15.2c-9.4-1.9-12.4,6.4-12.4,8.4C231.2,183.2,231.5,185.8,231.9,188.1"/>
				<path id="XMLID_6_" class="st1" d="M238.6,180.2"/>
				<path id="XMLID_5_" class="st1" d="M238.6,180.2c0.2,3.8,0,8.1-0.5,9.8c0,0-1.8,3.2-4.5,1.7s-2.8-16.8-1.2-17.5
					c1.7-0.7,5-2.2,5.8,1.3"/>
			</g>
		</g>
		<path id="XMLID_3_" class="st1" d="M208,184c-0.5,0.2-0.9,0.7-1.3,1.3c-0.1,0.2-0.2,0.3-0.3,0.5c-0.1,0.1-0.4,0.4-0.5,0.5
			c-1.4,0.6-4.1,1.4-5.2-1.4c-0.1-0.2-0.2-1-0.2-1.2c0-0.4,0-0.8,0.1-1.1c0.3-3,1.3-4.3,2.2-4.4c1.1-0.1,3.3,0.6,3.9,2.1
			c0,0,0.6,2.7,2.1,2.3s4.3-1.9,2.1-4.8c-2.2-2.9-4.4-5.9-10.6-3.8c-6.2,2.1-5,10-4.8,10.5s3.3,11.5,11.8,6.7
			C215.6,186.2,208.9,183.7,208,184z"/>
		<path id="XMLID_2_" class="st1" d="M224.2,181.9"/>
		<path id="XMLID_1_" class="st1" d="M190.2,190.1c-0.3,0.6-0.9,1.1-2.7,1.4c-1.8,0.3-2.3-2.4-2.3-2.7s0.3-2.8,3.1-2.2
			C191,187.2,190.2,190.1,190.2,190.1z"/>
	</g>
</g>
<g>
	<g>
		<g id="XMLID_336_">
			<path id="XMLID_348_" class="st3" d="M218.6,33.7c0,0-1.4-26.7-19.5-18.9s-8.3,83.5,37.7,72.8s27.7-70.2,27.7-70.2
				s-19-17.1-22.6,12.3c0,0-1.1,19.7-10.1,21.3C223,52.4,217.7,38.6,218.6,33.7z"/>
			<g id="XMLID_346_">
				<path id="XMLID_347_" class="st3" d="M195.4,49.9c0,0-31.7,31.1-25.1-27.2c0,0-7.4-18.1-22.2-10.6s-17.3,100,53.5,74.3
					c0,0,19-7.2,24.1-10.9"/>
			</g>
			<line id="XMLID_345_" class="st2" x1="163" y1="83.3" x2="166" y2="84.6"/>
			<path id="XMLID_344_" class="st3" d="M232,63.9c0,0,1.1,2.4-0.7,3.5"/>
			<path id="XMLID_343_" class="st3" d="M263.4,59.1c0,0-0.5,2.2-1.1,2.9"/>
			<path id="XMLID_342_" class="st3" d="M245.9,28.5c0,0,0.9-4.1,0-4.1"/>
			<path id="XMLID_341_" class="st3" d="M155.5,14.5c0,0,3.9,0.5,3.5,1.2"/>
			<path id="XMLID_340_" class="st3" d="M180.1,63.8c0,0,4.5-0.6,4.8-1.5"/>
			<path id="XMLID_339_" class="st3" d="M203.2,18.5c0,0-3,1.4-3.8,2.8"/>
			<line id="XMLID_338_" class="st2" x1="231.9" y1="53.3" x2="235" y2="52.5"/>
			<line id="XMLID_337_" class="st2" x1="238.4" y1="82.7" x2="241.5" y2="81.9"/>
		</g>
		<g id="XMLID_322_">
			<path id="XMLID_335_" class="st3" d="M118.3,22.2"/>
			<path id="XMLID_332_" class="st3" d="M141.1,17c-36.2-26.9-64.7,6.5-64.7,6.5S52.8,76.8,97.1,91.1S177.3,43.9,141.1,17z
				 M121.2,53.7c-8.5,21.9-34.3-12.6-15.8-15.1C105.3,38.7,129.6,31.8,121.2,53.7z"/>
			<path id="XMLID_331_" class="st3" d="M126.8,13.6"/>
			<line id="XMLID_330_" class="st2" x1="85.1" y1="80.3" x2="88" y2="81.6"/>
			<path id="XMLID_329_" class="st3" d="M129.7,83.2c0,0-0.5,2.6-2.6,2.4"/>
			<path id="XMLID_328_" class="st3" d="M124.4,54.2c0,0-0.5,2.2-1.1,2.9"/>
			<path id="XMLID_327_" class="st3" d="M151.1,52.6c0,0,0.9-4.1,0-4.1"/>
			<path id="XMLID_326_" class="st3" d="M124.7,13c0,0,3.9,0.5,3.5,1.2"/>
			<path id="XMLID_325_" class="st3" d="M99.6,60.5c0,0,3.8,2.6,4.5,2.1"/>
			<path id="XMLID_324_" class="st3" d="M83,24.4c0,0-3,1.4-3.8,2.8"/>
			<line id="XMLID_323_" class="st2" x1="100.4" y1="36" x2="103.5" y2="35.1"/>
		</g>
		<g id="XMLID_311_">
			<path id="XMLID_321_" class="st3" d="M32.8,13.9c0,0-3.7-18.4-21.7-12S1.6,78.1,9.9,83.5C18.3,88.8,41.5,122.1,32.8,13.9z"/>
			<path id="XMLID_320_" class="st3" d="M28.6,47.2c0,0,31.7-31.1,25.1,27.2c0,0,7.4,18.1,22.2,10.6c14.6-7.4,17.3-99.9-53.6-74.3"
				/>
			<line id="XMLID_319_" class="st2" x1="18.3" y1="82.7" x2="21.2" y2="84"/>
			<path id="XMLID_318_" class="st3" d="M72.4,75.1c0,0,1.1,2.4-0.7,3.5"/>
			<path id="XMLID_317_" class="st3" d="M79.5,45.2c0,0-0.5,2.2-1.1,2.9"/>
			<path id="XMLID_316_" class="st3" d="M29.1,63.5c0,0,0.9-4.1,0-4.1"/>
			<path id="XMLID_315_" class="st3" d="M51.5,35.3c0,0,3.9,0.5,3.5,1.2"/>
			<path id="XMLID_314_" class="st3" d="M13.8,54.6c0,0,4.5-0.6,4.8-1.5"/>
			<path id="XMLID_313_" class="st3" d="M36.8,11.8c0,0-3,1.4-3.8,2.8"/>
			<line id="XMLID_312_" class="st2" x1="9.8" y1="16.5" x2="12.9" y2="15.7"/>
		</g>
		<g id="XMLID_300_">
			<path id="XMLID_310_" class="st3" d="M52.2,76.3c0,0-3.7-18.4-21.7-12c-18.1,6.3-9.5,76.2-1.2,81.6
				C37.6,151.4,60.7,184.7,52.2,76.3z"/>
			<path id="XMLID_309_" class="st3" d="M47.9,109.8c0,0,31.7-31.1,25.1,27.2c0,0,7.4,18.1,22.2,10.6c14.7-7.5,17.3-100-53.5-74.3"
				/>
			<line id="XMLID_308_" class="st2" x1="38.6" y1="147.8" x2="41.6" y2="149.1"/>
			<path id="XMLID_307_" class="st3" d="M92.7,140.2c0,0,1.1,2.4-0.7,3.5"/>
			<path id="XMLID_306_" class="st3" d="M99.8,110.2c0,0-0.5,2.2-1.1,2.9"/>
			<path id="XMLID_305_" class="st3" d="M49.4,128.6c0,0,0.9-4.1,0-4.1"/>
			<path id="XMLID_304_" class="st3" d="M71.8,100.3c0,0,3.9,0.5,3.5,1.2"/>
			<path id="XMLID_303_" class="st3" d="M34.2,119.7c0,0,4.5-0.6,4.8-1.5"/>
			<path id="XMLID_302_" class="st3" d="M57.2,76.8c0,0-3,1.4-3.8,2.8"/>
			<line id="XMLID_301_" class="st2" x1="30.1" y1="81.5" x2="33.2" y2="80.8"/>
		</g>
		<g>
			<g id="XMLID_298_">
				<path id="XMLID_299_" class="st3" d="M116.1,107.9c0,0,5.2-26.8-17.4-19.3s-9.3,66.3,2.7,63.8S119,140.6,116.1,107.9z"/>
			</g>
			<line id="XMLID_297_" class="st2" x1="96.9" y1="145" x2="99.8" y2="146.4"/>
			<path id="XMLID_296_" class="st3" d="M111.8,135.8c0,0,1.1,2.4-0.7,3.5"/>
			<path id="XMLID_295_" class="st3" d="M93.6,101c0,0-0.5,2.2-1.1,2.9"/>
			<path id="XMLID_294_" class="st3" d="M112.6,102.6c0,0,0.9-4.1,0-4.1"/>
			<path id="XMLID_293_" class="st3" d="M102.4,90.8c0,0,3.9,0.5,3.5,1.2"/>
		</g>
		<g>
			<path id="XMLID_292_" class="st3" d="M104.1,52.3c0,0,25.4,14.7,0.3,25.4S87,38.8,104.1,52.3z"/>
			<path id="XMLID_291_" class="st3" d="M99.5,76c0,0,4.5-0.6,4.8-1.5"/>
			<path id="XMLID_290_" class="st3" d="M97.2,53.9c0,0-3,1.4-3.8,2.8"/>
		</g>
		<g id="XMLID_275_">
			<path id="XMLID_289_" class="st3" d="M146.1,95"/>
			<path id="XMLID_286_" class="st3" d="M166.3,90.4c-32-23.7-57.2,5.8-57.2,5.8s-20.8,47,18.3,59.7S198.3,114.1,166.3,90.4z
				 M149.4,123.2c-8.3,21.2-33.2-12.2-15.3-14.6C134.1,108.6,157.7,102,149.4,123.2z"/>
			<path id="XMLID_285_" class="st3" d="M153.7,87.3"/>
			<path id="XMLID_284_" class="st3" d="M153.7,87.3c0,0,25.1-26.6,25.5,23.6s8.6,96-39.5,95.5c0,0-26-12.3,0.1-25.1
				c12.8-6.2,15.4-19.3,15.3-35.7"/>
			<line id="XMLID_283_" class="st2" x1="137.3" y1="199.9" x2="140.3" y2="201.2"/>
			<path id="XMLID_282_" class="st3" d="M163.1,195c0,0,1.1,2.4-0.7,3.5"/>
			<path id="XMLID_281_" class="st3" d="M176.1,169.9c0,0-0.5,2.2-1.1,2.9"/>
			<path id="XMLID_280_" class="st3" d="M174,137.8c0,0,0.9-4.1,0-4.1"/>
			<path id="XMLID_279_" class="st3" d="M118.8,148.1c0,0,3.9,0.5,3.5,1.2"/>
			<path id="XMLID_278_" class="st3" d="M166,107c0,0,4.5-0.6,4.8-1.5"/>
			<path id="XMLID_277_" class="st3" d="M119.4,94.5c0,0-3,1.4-3.8,2.8"/>
			<line id="XMLID_276_" class="st2" x1="151.6" y1="129.4" x2="148.8" y2="131.1"/>
		</g>
		<path id="XMLID_274_" class="st3" d="M210,93.3c0,0-6.7-4.7-9.5-1c-2.9,3.7-7.8,9.9-2.1,22s27.9,2.2,30-3.5"/>
		<g>
			<path id="XMLID_273_" class="st3" d="M235.8,103.2L235.8,103.2c-4.2-11.2-13.3-20.1-27.4-21.6c-28.1-2.9-39.8,15.2-44.2,26.3
				c0,0-1,1.7-1.7,4.9c-0.6,1.9-0.7,3.6-0.6,4.3c-0.4,6.1,0.5,15.1,6.2,27c4.6,9.7,16.3,13.3,24.1,14.5c2.2,0.5,4.6,0.7,7.1,0.7
				c0.1,0,0.2,0,0.2,0l0,0c2.7,0,5.6-0.4,8.7-1.1c12.3-2.7,20.8-10.6,25.7-20.3c-0.8-11.2-10.3-12.6-16.1-13.5
				c-3.1-0.5-6.4,1.4-8.8,3.5c-0.3,0.2-0.5,0.4-0.8,0.6c-8.3,6.1-30.1-6-18.5-15c0,0,3.9-4.1,8.5-6l0,0c0,0,3.8-1.9,6.9-0.8
				c1.2,0.4,2.3,1.3,3,3c0,0.1,0.1,0.2,0.1,0.3c0.3,0.8,0.8,1.6,1.3,2.5c3.8,6.1,12.1,14.3,20,8.7c9-6.5,8-9,8.4-11.5l0,0
				C238.1,107.4,235.8,103.2,235.8,103.2z"/>
			<line id="XMLID_272_" class="st2" x1="172.7" y1="143.5" x2="174.5" y2="146.1"/>
			<path id="XMLID_271_" class="st3" d="M226.2,140.8c0,0,1.1,2.4-0.7,3.5"/>
			<path id="XMLID_270_" class="st3" d="M235.4,109.8c0,0-0.5,2.2-1.1,2.9"/>
			<path id="XMLID_269_" class="st3" d="M184.3,113.1c0,0,0.9-4.1,0-4.1"/>
			<path id="XMLID_268_" class="st3" d="M205.3,101c0,0,3.9,0.5,3.5,1.2"/>
			<path id="XMLID_267_" class="st3" d="M200.9,155.3c0,0,4.5-0.6,4.8-1.5"/>
			<path id="XMLID_266_" class="st3" d="M177.9,95.1c0,0-3,1.4-3.8,2.8"/>
			<line id="XMLID_265_" class="st2" x1="222.4" y1="120.1" x2="225.5" y2="119.3"/>
		</g>
		<g>
			<path id="XMLID_264_" class="st3" d="M253,71.7c0,0-3.7-21.4-21.7-14s-9.6,89-1.2,95.3C238.3,159.4,261.4,198.2,253,71.7z"/>
			<path id="XMLID_263_" class="st3" d="M245.2,150.9c0,0,1.1,2.4-0.7,3.5"/>
			<path id="XMLID_262_" class="st3" d="M251.2,112.3c0,0,0.3,2.2,0,3.2"/>
			<path id="XMLID_261_" class="st3" d="M227.9,127.4c0,0,0.9-4.1,0-4.1"/>
			<path id="XMLID_260_" class="st3" d="M233.3,62.2c0,0-3,1.4-3.8,2.8"/>
		</g>
		<g id="XMLID_189_">
			<path id="XMLID_259_" class="st3" d="M306.2,170.6c0.2-3.5-0.9-13.6-1.1-16.9c-0.2-3-0.6-5.6-1.3-7.7
				c11.7-19.8-20.3-42.8-31.9-17.2c-3.6,8-3.2,23.4-3.2,26c0.1,3.4,0.1,14.9,0.1,17.9c0,16.6,24.6,29.9,34.5,8.4"/>
			<g id="XMLID_190_">
				<g id="XMLID_255_">
					<path id="XMLID_258_" class="st3" d="M248.3,87.5c0,0-17.8-23.8-18.3-5.3c-0.6,18.5,4.4,38.4,11,35.9s6.7-8,6.7-8"/>
					<path id="XMLID_257_" class="st3" d="M242.4,88.8c0,0-7-10.8-8.7-5.7"/>
					<path id="XMLID_256_" class="st3" d="M245.1,96.3c0,0-10.3-2.7-8.8,3.3s5.1,9.9,7,3.3"/>
				</g>
				<path id="XMLID_254_" class="st3" d="M302.3,4.6c0,0-6.7,5.9,1.6,8.6C312.2,16,309.6,1.7,302.3,4.6z"/>
				<path id="XMLID_253_" class="st3" d="M288,19c0,0,53.6,4.1,45.8,67.3s-5.8,74.8-36.1,81c-30.2,6.3-46.7-15.9-50-32.7
					S220.8,27,288,19z"/>
				<path id="XMLID_252_" class="st3" d="M331,34.3c-0.2-2.1-1.1-4.8-3-8.1v-0.1l0,0c-0.4-0.7-0.8-1.4-1.3-2.2
					C320.7,14.5,311,9,302,6.2c-38.3-17.5-42.4,19-42.5,32.8c0,1.3,17.3,0,33.1-4c20,8.2,38.8,17.3,38.8,17.3S332.9,40.5,331,34.3z"
					/>
				<path id="XMLID_251_" class="st3" d="M257.4,51.9c0,0,36.5-3.3,23.2,26S226.6,72.3,257.4,51.9z"/>
				<path id="XMLID_250_" class="st3" d="M253.9,72.2c0,0,5.5-2.2,4.9,3.4C258.1,81.2,250.1,77,253.9,72.2z"/>
				<path id="XMLID_249_" class="st3" d="M297.1,91.5c0,0,9.5,7.1,21.9,2.9"/>
				<path id="XMLID_248_" class="st3" d="M293.7,96.2c0,0-9.6-12-9.2-18.7"/>
				<path id="XMLID_247_" class="st3" d="M273.7,91.7c0,0-15.4,3.2-18.7,1.8"/>
				<g id="XMLID_244_">
					<path id="XMLID_246_" class="st3" d="M276.9,97.4c0.4,3.2,1.4,5.4,3.4,5.8c1.1,0.2,2.1,0.2,2.9,0c0.7-0.2,1.2-0.4,1.6-0.6"/>
					<path id="XMLID_245_" class="st3" d="M287.4,59.4c0,0-7.5,19.7-9.5,33.6"/>
				</g>
				<path id="XMLID_243_" class="st3" d="M297.9,56.2c0,0-26.9,23.5,6.5,34.3S327.2,44.3,297.9,56.2z"/>
				<path id="XMLID_242_" class="st3" d="M316.5,75.8c0,0,5.5-2.2,4.9,3.4C320.7,84.8,312.6,80.6,316.5,75.8z"/>
				<path id="XMLID_241_" class="st3" d="M270.2,161.7c0,0-6.4,5.9,6.8,8.5c13.2,2.7,21.8-0.8,19.2-5.7"/>
				<path id="XMLID_240_" class="st3" d="M300.2,51.4c0,0-12.3,1.3-3.5,10.1c8.8,8.7,25.7,0.4,24.8-2.7
					C320.5,55.8,319,50.6,300.2,51.4z"/>
				<path id="XMLID_239_" class="st3" d="M250.1,43.9c0,0,20.5-8.2,44.6-2.8s36.6,11.1,36.6,11.1c-7.6-26.6-54.2-27-77.8-25.6
					S236.2,37,236.2,37S239.6,41.4,250.1,43.9z"/>
				<path id="XMLID_238_" class="st3" d="M250.1,43.9c0,0-40.7-11.5,15.7-13.7s65.4,21.9,65.4,21.9S279.3,29.4,250.1,43.9z"/>
				<g id="XMLID_232_">
					<path id="XMLID_237_" class="st3" d="M273.4,99.1c0,0-7.1,8.3,4.3,10.6"/>
					<path id="XMLID_236_" class="st3" d="M293,99.2c0,0,7.6,6.3-3.1,10.6"/>
					<path id="XMLID_235_" class="st3" d="M289.5,106.1c-1.6,0.4-3.2-2.1-2.1-1.8s2.7-1.9,3.9,0"/>
					<path id="XMLID_234_" class="st3" d="M277.8,105.3c0.9,0.5-1.3,1.8-1.3,1.8c-2.2-0.1-2.7-1.8-1.5-2.7"/>
					<path id="XMLID_233_" class="st3" d="M284.3,94.9c0,0,2.2-0.1,2.8,0.7"/>
				</g>
				<path id="XMLID_231_" class="st3" d="M269.1,104.2c0,0-6.2,3.1-8,3.8"/>
				<line id="XMLID_230_" class="st2" x1="250.8" y1="106.7" x2="253.4" y2="107.8"/>
				<path id="XMLID_229_" class="st3" d="M297.4,102.6c0,0,7.3,3.5,8,3.4"/>
				<path id="XMLID_228_" class="st3" d="M328.5,71.6c0,0,1,2.1-0.6,3"/>
				<path id="XMLID_227_" class="st3" d="M322.8,93.1c0,0-0.5,1.9-1,2.6"/>
				<path id="XMLID_226_" class="st3" d="M323.5,55.8c0,0,0.8-3.6,0-3.6"/>
				<path id="XMLID_225_" class="st3" d="M271.4,43.5c0,0,3.4,0.5,3,1"/>
				<path id="XMLID_224_" class="st3" d="M292.1,50c0,0,3.9-0.6,4.2-1.3"/>
				<path id="XMLID_223_" class="st3" d="M261.9,146.2c0,0,2.8,0.6,3,1.2"/>
				<path id="XMLID_222_" class="st3" d="M308.1,147.6c0,0-2.6,1.2-3.4,2.5"/>
				<path id="XMLID_221_" class="st3" d="M264.4,46.1c0,0-19-1.2-10.2,9.5c8.8,10.6,24.4-0.1,25.6-4.7
					C281,46.2,264.4,46.1,264.4,46.1z"/>
				<path id="XMLID_220_" class="st3" d="M255,84.3"/>
				<path id="XMLID_219_" class="st3" d="M273.7,86.6"/>
				<line id="XMLID_218_" class="st2" x1="315.3" y1="107.7" x2="318.1" y2="106.9"/>
				<path id="XMLID_217_" class="st3" d="M326.3,94.5c0,0,19.9-22,18.7-3.5c-1.2,18.5-8,37.9-14.4,34.7c-6.4-3.1-6-8.5-6-8.5"/>
				<path id="XMLID_216_" class="st3" d="M332,96.4c0,0,7.9-10.2,9.2-5"/>
				<path id="XMLID_215_" class="st3" d="M328.6,103.6c0,0,10.4-1.8,8.5,4s-6,9.4-7.2,2.7"/>
				<g id="XMLID_210_">
					<path id="XMLID_214_" class="st3" d="M255.2,83.3c0,0-5.3,0.7-3,3.2s3.5-0.6,7.4,1.4"/>
					<path id="XMLID_213_" class="st3" d="M320.7,85.9c0,0,5.3,0.7,3,3.2s-3.5-0.6-7.4,1.4"/>
					<path id="XMLID_212_" class="st3" d="M314.9,85.5c0,0-12.3-0.9-19.5,1"/>
					<path id="XMLID_211_" class="st3" d="M261.2,82.3c0,0,7.2-1.4,15.2,1.2"/>
				</g>
				<g id="XMLID_198_">
					<path id="XMLID_209_" class="st3" d="M276.5,120.7c0,0,36.5-3.3,23.2,26C286.3,176.1,245.7,141.1,276.5,120.7z"/>
					<path id="XMLID_208_" class="st3" d="M277.6,150.2c-3.6-1.6-7.7,9.5-11.5-0.9s19.4-0.7,19.4-0.7s7.3,2.4,10,3.7"/>
					<path id="XMLID_207_" class="st3" d="M296,152.5c1.3-1.6,2.6-3.5,3.6-5.8c13.3-29.3-23.2-26-23.2-26c-11.4,7.6-13,17-9.8,24.7
						c3.9-2.9,18.8,3.3,18.8,3.3s7.3,2.4,10,3.7"/>
					<g id="XMLID_200_">
						<path id="XMLID_206_" class="st3" d="M267.9,127.8c0,0,5.5-2.2,4.9,3.4C272.1,136.9,264.1,132.6,267.9,127.8z"/>
						<path id="XMLID_205_" class="st3" d="M273.8,127.8c0,0,5.5-2.2,4.9,3.4C278.1,136.8,270.1,132.6,273.8,127.8z"/>
						<path id="XMLID_204_" class="st3" d="M279.7,127.8c0,0,5.5-2.2,4.9,3.4C284,136.9,276,132.6,279.7,127.8z"/>
						<path id="XMLID_203_" class="st3" d="M285.6,127.9c0,0,5.5-2.2,4.9,3.4C289.9,137,281.9,132.6,285.6,127.9z"/>
						<path id="XMLID_202_" class="st3" d="M291.6,127.9c0,0,5.5-2.2,4.9,3.4C295.9,136.9,287.8,132.7,291.6,127.9z"/>
						<path id="XMLID_201_" class="st3" d="M297.5,127.9c0,0,5.5-2.2,4.9,3.4C301.7,137,293.7,132.7,297.5,127.9z"/>
					</g>
					<path id="XMLID_199_" class="st3" d="M273.9,127.9c0,0,5.1-2,4.9,2.9l0,0c-0.1-0.9,0.2-1.8,1-2.9c0,0,5.1-2,4.9,2.9l0,0
						c-0.1-0.9,0.2-1.8,1-2.9c0,0,5.1-2,4.9,2.9l0,0c-0.1-0.9,0.2-1.8,1-2.9c0,0,5.1-2,4.9,2.9l0,0c-0.1-0.9,0.2-1.8,1-2.9
						c0,0,1.3-0.5,2.5-0.4c-6.6-8.3-23.6-6.8-23.6-6.8c-3.2,2.1-5.6,4.4-7.3,6.7c1.5-0.3,3.9-0.2,3.7,3.2l0,0
						C272.9,129.9,273.2,128.9,273.9,127.9z"/>
				</g>
				<g id="XMLID_193_">
					<path id="XMLID_197_" class="st3" d="M271,124.2c0,0-19.6,2.5-8.7,9.7C273.3,140.9,271,124.2,271,124.2z"/>
					<path id="XMLID_196_" class="st3" d="M268.2,118.4c0,0-16.2-1-8.7,7.5c7.5,8.4,20.8-0.1,21.9-3.7
						C282.4,118.6,268.2,118.4,268.2,118.4z"/>
					<path id="XMLID_195_" class="st3" d="M300.5,122.7c0,0-7.9-2.6-6.5,7.4s15,8.4,15.8,5.5C310.6,132.6,311.9,127.9,300.5,122.7z"
						/>
					<path id="XMLID_194_" class="st3" d="M293.8,120c0,0-23-3-0.3,8.2C316.2,139.4,319.9,123.5,293.8,120z"/>
				</g>
				<path id="XMLID_192_" class="st3" d="M313.3,11.4c0,0,1.8,1.4,0.8,3"/>
				<line id="XMLID_191_" class="st2" x1="265.4" y1="26.1" x2="266.5" y2="23.5"/>
			</g>
		</g>
		<path id="XMLID_186_" class="st3" d="M226.6,181.1c-0.9-6.8-2.5-9.4-4.5-10.6c0,0-10.7-4-13.7,6.1c-3,10.2,6,12.2,7.2,12.1
			C216.9,188.7,227.5,187.9,226.6,181.1z M219.7,180.5c-0.3,0.6-0.9,1.1-2.7,1.4c-1.8,0.4-2.3-2.4-2.3-2.7s0.3-2.8,3.1-2.2
			C220.5,177.5,219.7,180.5,219.7,180.5z"/>
		<g>
			<g id="XMLID_182_">
				<path id="XMLID_185_" class="st3" d="M240.1,184.4"/>
				<path id="XMLID_184_" class="st3" d="M246.4,184c0-2.7-0.2-6.4,0.8-7.2c1.4-1.1,5.8-0.6,5.2,2.2c-0.4,1.6-0.4,3.5-0.4,4.7
					c0,0.9,0,1.6,0,1.9c0,0.7,0.3,2.2,2.8,2.5c3.2,0.4,3.7-0.7,3.7-3s2.7-13.3-6.6-15.2c-6.6-1.4-10,2.4-11.5,5.3"/>
				<path id="XMLID_183_" class="st3" d="M246.7,176.4"/>
			</g>
			<g id="XMLID_178_">
				<path id="XMLID_181_" class="st3" d="M228.1,184.3c0.4,1.9,6.3,0.5,6.3-0.4c0-2.7-0.2-6.4,0.8-7.2c1.1-0.9,4.3-0.8,5.1,0.8
					c0.2,0.4,0.2,0.8,0.1,1.3c-0.4,1.6-0.4,3.5-0.4,4.7c0,0.9,0,1.6,0,1.9c0,0.7,0.3,2.2,2.8,2.5c3.2,0.4,3.7-0.7,3.7-3
					s2.7-13.3-6.6-15.2c-9.4-1.9-12.4,6.4-12.4,8.4C227.4,179.3,227.7,182,228.1,184.3"/>
				<path id="XMLID_180_" class="st3" d="M234.8,176.3"/>
				<path id="XMLID_179_" class="st3" d="M234.8,176.3c0.2,3.8,0,8.1-0.5,9.8c0,0-1.8,3.2-4.5,1.7s-2.8-16.8-1.2-17.5
					c1.7-0.7,5-2.2,5.8,1.3"/>
			</g>
		</g>
		<path id="XMLID_177_" class="st3" d="M204.2,180.2c-0.5,0.2-0.9,0.7-1.3,1.3c-0.1,0.2-0.2,0.3-0.3,0.5c-0.1,0.1-0.4,0.4-0.5,0.5
			c-1.4,0.6-4.1,1.4-5.2-1.4c-0.1-0.2-0.2-1-0.2-1.2c0-0.4,0-0.8,0.1-1.1c0.3-3,1.3-4.3,2.2-4.4c1.1-0.1,3.3,0.6,3.9,2.1
			c0,0,0.6,2.7,2.1,2.3s4.3-1.9,2.1-4.8c-2.2-2.9-4.4-5.9-10.6-3.8c-6.2,2.1-5,10-4.8,10.5s3.3,11.5,11.8,6.7
			C211.8,182.3,205.1,179.9,204.2,180.2z"/>
		<path id="XMLID_176_" class="st3" d="M220.4,178"/>
		<path id="XMLID_175_" class="st3" d="M186.4,186.3c-0.3,0.6-0.9,1.1-2.7,1.4c-1.8,0.3-2.3-2.4-2.3-2.7s0.3-2.8,3.1-2.2
			C187.2,183.4,186.4,186.3,186.4,186.3z"/>
	</g>
</g>
</svg>
