<?xml version="1.0" encoding="utf-8"?>
<!-- Generator: Adobe Illustrator 22.1.0, SVG Export Plug-In . SVG Version: 6.00 Build 0)  -->
<svg version="1.1" id="Layer_1" xmlns="http://www.w3.org/2000/svg" xmlns:xlink="http://www.w3.org/1999/xlink" x="0px" y="0px"
	 viewBox="0 0 483.3 361" style="enable-background:new 0 0 483.3 361;" xml:space="preserve">
<style type="text/css">
	.st0{fill:#FDF5EA;stroke:#5B5B4B;stroke-linecap:round;stroke-miterlimit:10;}
</style>
<g>
	<g>
		<path class="st0" d="M369.9,284.3c0,0-1.2,17-1.1,30.1c0,1.5,0.1,3,0.1,4.3l0,0c0.1,3.2,0,4.6-0.3,5c-0.9,7.6,0.1,36.5,0.1,36.5
			l-5.4,0.4c0,0,1-17.4,0.4-29.2c-0.7-11.8-1.6-43.5-2.7-45.1"/>
		<path class="st0" d="M385.8,283.3c0,0-1.2,17-1.1,30.1c0,1.5,0.1,3,0.1,4.3l0,0c0.1,3.2,0,4.6-0.3,5c-0.9,7.6,0.1,36.5,0.1,36.5
			l-5.4,0.4c0,0,1-17.4,0.4-29.2c-0.7-11.8-1.6-43.5-2.7-45.1"/>
		<path class="st0" d="M317.9,283.3c0,0,1.2,17,1.1,30.1c0,1.5-0.1,3-0.1,4.3l0,0c-0.1,3.2,0,4.6,0.3,5c0.9,7.6-0.1,36.5-0.1,36.5
			l5.4,0.4c0,0-1-17.4-0.4-29.2c0.7-11.8,1.6-43.5,2.7-45.1"/>
		<path class="st0" d="M302,282.4c0,0,1.2,17,1.1,30.1c0,1.5-0.1,3-0.1,4.3l0,0c-0.1,3.2,0,4.6,0.3,5c0.9,7.6-0.1,36.5-0.1,36.5
			l5.4,0.4c0,0-1-17.4-0.4-29.2c0.7-11.8,1.6-43.5,2.7-45.1"/>
		<path class="st0" d="M385.6,293.7c1.3-3.7,0-10.5,0-10.5s0.3-0.1-0.7-0.1c-0.1,0-0.1,0-0.2,0s-0.1,0-0.2,0c0,0-15.5-0.1-40.9-0.1
			s-40.9,0.1-40.9,0.1c-0.1,0-0.1,0-0.2,0s-0.1,0-0.2,0c-1,0-0.7,0.1-0.7,0.1s-1.3,6.9,0,10.5c0,0-0.3,0.1,0.7,0.1c0,0,0.3,0,0.7,0
			c0.1,0,0.1,0,0.2,0c12,0.1,26.7,0.1,40.3,0.1c13.6,0,28.3,0,40.3-0.1c0.1,0,0.2,0,0.2,0c0.5,0,0.7,0,0.7,0
			C385.9,293.8,385.6,293.7,385.6,293.7z"/>
		<path class="st0" d="M375.7,290.6c0,0,0.3-51.4,0-127c0-1.5-0.1-1.1-0.1-1.1s-61.4-1.3-63.8,0c0,0-0.1-0.4-0.1,1.1
			c0,0-0.1,77.4,0,126.1"/>
	</g>
</g>
</svg>
