<?xml version="1.0" encoding="utf-8"?>
<!-- Generator: Adobe Illustrator 19.0.0, SVG Export Plug-In . SVG Version: 6.00 Build 0)  -->
<svg version="1.1" id="Layer_1" xmlns="http://www.w3.org/2000/svg" xmlns:xlink="http://www.w3.org/1999/xlink" x="0px" y="0px"
	 viewBox="0 0 863 464.4" style="enable-background:new 0 0 863 464.4;" xml:space="preserve">
<style type="text/css">
	.st0{opacity:0.1;}
	.st1{fill:#0A2E31;}
	.st2{opacity:0.1;fill:#0A2E31;}
	.st3{fill:#FDF5EB;stroke:#231F20;stroke-miterlimit:10;}
	.st4{fill:#092D31;stroke:#092D31;stroke-linecap:round;stroke-miterlimit:10;}
	.st5{fill:none;stroke:#231F20;stroke-miterlimit:10;}
</style>
<g id="XMLID_1615_" class="st0">
	<path id="XMLID_1617_" class="st1" d="M256.9,57.3c181,127.5,69.3,312,69.3,312c-16.7,36.2-204.1,135-258.4,77.6l0,0
		c-54.3-57.3-13.3-101.8,10.4-128c18.4-20.3,58.1-16.6,74.9-14c4.9,0.8,7.8,1.5,7.8,1.5c34.2,5,65.5-7.3,57.8-47.7
		c0,0-1.4-31.4-13.6-55.6l0,0c0,0-8.9-21.8-25.6-28.3c-6.6-2.6-14.3-2.8-23.2,1.6c-0.5,0.2-1,0.4-1.5,0.7c-4.1,1.9-9,3.8-14.5,5.5
		c-37.8,11.8-102.1,15.1-114.3-36.3c-14.2-59.6-0.8-66.1,6.7-78c0,0,0,0,0,0c7.5-11.9,31.8-20.9,31.8-20.9l0,0
		C122.8,15.8,193,12.2,256.9,57.3z"/>
	<path id="XMLID_1616_" class="st1" d="M18.4,73.7c0,0,15.4-88,89.6-57.2s37.6,365.3,3.3,391.2C77.1,433.6-18.7,592.8,18.4,73.7z"/>
</g>
<path id="XMLID_1614_" class="st2" d="M390.7,41.5c0,0,97.7-93.2,99.9,82.1c2.2,175.3,35,335.2-152.8,334c0,0-102.1-42.6,0-87.5
	c50-22,59.9-67.7,58.9-125C396.7,245.1,376.5,52.7,390.7,41.5z"/>
<g class="st0">
	<path id="XMLID_1611_" class="st1" d="M491.8,103.3c-51.2,16.3-24.3,77.8-24.3,77.8s32.7,38.6,74.7,7.9
		C584.1,158.2,543,87,491.8,103.3z M499,167.7c-28-3.8,11.3-56,24.1-22.7C535.8,178.2,499,167.7,499,167.7z"/>
	<g id="XMLID_1604_">
		<path id="XMLID_1610_" class="st1" d="M581.2,121.5"/>
		<path id="XMLID_1607_" class="st1" d="M607.4,116c-41.9-30.8-74.7,7.9-74.7,7.9s-26.9,61.6,24.3,77.8
			C608.2,218,649.3,146.8,607.4,116z M588.3,160c-12.8,33.3-52.1-18.9-24.1-22.7C564.2,137.3,601,126.8,588.3,160z"/>
		<path id="XMLID_1606_" class="st1" d="M591.2,111.4"/>
		<path id="XMLID_1605_" class="st1" d="M591.2,109.3c0,0,33.2-31.7,34,27.9s11.9,114.1-52,113.7c0,0-34.8-14.5,0-29.8
			c17-7.5,20.4-23,20-42.5"/>
	</g>
	<path id="XMLID_1603_" class="st1" d="M437.7,175c0,0,5,30,29,19.4s12.2-124.3,1.1-133.1S425.7-1.6,437.7,175z"/>
	<path id="XMLID_1600_" class="st1" d="M623.5,103.3c-51.2,16.3-24.3,77.8-24.3,77.8s32.7,38.6,74.7,7.9
		C715.7,158.2,674.6,87,623.5,103.3z M630.6,167.7c-28-3.8,11.3-56,24.1-22.7C667.4,178.2,630.6,167.7,630.6,167.7z"/>
</g>
<g id="XMLID_1597_" class="st0">
	<path id="XMLID_1599_" class="st1" d="M644.5,357.5c0,0-8.9-6.2-12.7-1.4s-10.4,13.1-2.6,29.3c7.8,16.2,37,2.8,39.8-4.7"/>
	<path id="XMLID_1598_" class="st1" d="M677.2,371.4L677.2,371.4c-5.4-14.4-17.2-25.7-35.2-27.5c-36-3.6-50.8,19.7-56.4,33.9
		c0,0-1.3,2.1-2.2,6.3c-0.7,2.5-0.9,4.6-0.8,5.5c-0.5,7.8,0.8,19.3,8,34.6c5.9,12.4,21,16.9,31,18.5c2.8,0.6,5.9,0.9,9.1,0.9
		c0.2,0,0.3,0,0.3,0l0,0c3.5-0.1,7.2-0.5,11.2-1.4c15.8-3.6,26.6-13.7,32.7-26.1c-1-14.3-13.3-16.1-20.7-17.2
		c-4-0.6-8.2,1.9-11.3,4.5c-0.3,0.3-0.7,0.6-1,0.8c-10.6,7.9-38.5-7.6-23.9-19.1c0,0,5-5.3,10.8-7.7h0c0,0,4.9-2.5,8.8-1.1
		c1.5,0.5,2.9,1.7,3.8,3.8c0,0.1,0.1,0.2,0.2,0.3c0.4,1,1,2,1.7,3.2c4.8,7.8,15.6,18.2,25.6,11c11.5-8.3,10.2-11.5,10.7-14.7
		c0,0,0,0,0,0C680.1,376.6,677.2,371.4,677.2,371.4z"/>
</g>
<g id="XMLID_1594_" class="st0">
	<path id="XMLID_1596_" class="st1" d="M528.3,315.2c0,0-5.3-30-30.5-19.4c-25.2,10.5-12.8,124.3-1.1,133.1S540.9,491.8,528.3,315.2
		z"/>
	<path id="XMLID_1595_" class="st1" d="M521.8,379.8c0,0,42-41.5,33.5,36c0,0,10,24,29.5,14s22.5-133-71.5-98.5"/>
</g>
<g id="XMLID_1591_" class="st0">
	<path id="XMLID_1593_" class="st1" d="M760.2,355.1c0,0-54.3-37.3-77.7,28.6c-23.4,66,33.6,76.3,32.3,36.2s12.4-43.4,28.2-37.2
		S781,382.2,760.2,355.1z"/>
	<path id="XMLID_1592_" class="st1" d="M714.1,359c0,0-3.6-24.7-25.7-11.7c-22.1,13,1.2,34.5,1.2,34.5"/>
</g>
<g id="XMLID_1588_" class="st0">
	<path id="XMLID_1590_" class="st1" d="M827.8,357.5c0,0-8.9-6.2-12.7-1.4s-10.4,13.1-2.6,29.3c7.8,16.2,37,2.8,39.8-4.7"/>
	<path id="XMLID_1589_" class="st1" d="M860.6,371.4L860.6,371.4c-5.4-14.4-17.2-25.7-35.2-27.5c-36-3.6-50.8,19.7-56.4,33.9
		c0,0-1.3,2.1-2.2,6.3c-0.7,2.5-0.9,4.6-0.8,5.5c-0.5,7.8,0.8,19.3,8,34.6c5.9,12.4,21,16.9,31,18.5c2.8,0.6,5.9,0.9,9.1,0.9
		c0.2,0,0.3,0,0.3,0l0,0c3.5-0.1,7.2-0.5,11.2-1.4c15.8-3.6,26.6-13.7,32.7-26.1c-1-14.3-13.3-16.1-20.7-17.2
		c-4-0.6-8.2,1.9-11.3,4.5c-0.3,0.3-0.7,0.6-1,0.8c-10.6,7.9-38.5-7.6-23.9-19.1c0,0,5-5.3,10.8-7.7h0c0,0,4.9-2.5,8.8-1.1
		c1.5,0.5,2.9,1.7,3.8,3.8c0,0.1,0.1,0.2,0.2,0.3c0.4,1,1,2,1.7,3.2c4.8,7.8,15.6,18.2,25.6,11c11.5-8.3,10.2-11.5,10.7-14.7
		c0,0,0,0,0,0C863.5,376.6,860.6,371.4,860.6,371.4z"/>
</g>
<g class="st0">
	<path id="XMLID_1585_" class="st1" d="M680.5,236.7c-31.5,10-15,47.9-15,47.9s20.2,23.8,46,4.8C737.3,270.5,712,226.7,680.5,236.7z
		 M684.9,276.4c-17.2-2.3,7-34.5,14.8-14C707.5,282.8,684.9,276.4,684.9,276.4z"/>
	<g id="XMLID_1578_">
		<path id="XMLID_1584_" class="st1" d="M645.2,248"/>
		<path id="XMLID_1581_" class="st1" d="M661.4,244.6c-25.8-18.9-46,4.8-46,4.8s-16.5,37.9,15,47.9
			C661.9,307.3,687.2,263.5,661.4,244.6z M649.6,271.6c-7.9,20.5-32-11.7-14.8-14C634.8,257.7,657.4,251.2,649.6,271.6z"/>
		<path id="XMLID_1580_" class="st1" d="M651.4,241.7"/>
		<path id="XMLID_1579_" class="st1" d="M651.4,240.4c0,0,20.5-19.5,20.9,17.2c0.5,36.7,7.3,70.2-32,70c0,0-21.4-8.9,0-18.3
			c10.5-4.6,12.5-14.2,12.3-26.2"/>
	</g>
	<g id="XMLID_1575_">
		<path id="XMLID_1577_" class="st1" d="M750.1,243.9c0,0-5.5-3.8-7.8-0.8c-2.3,3-6.4,8.1-1.6,18c4.8,10,22.8,1.7,24.5-2.9"/>
		<path id="XMLID_1576_" class="st1" d="M770.2,252.4L770.2,252.4c-3.3-8.8-10.6-15.8-21.7-16.9c-22.1-2.2-31.3,12.1-34.7,20.8
			c0,0-0.8,1.3-1.3,3.9c-0.4,1.5-0.6,2.8-0.5,3.4c-0.3,4.8,0.5,11.9,4.9,21.3c3.6,7.7,12.9,10.4,19.1,11.4c1.7,0.4,3.6,0.6,5.6,0.5
			c0.1,0,0.2,0,0.2,0l0,0c2.1,0,4.4-0.3,6.9-0.9c9.7-2.2,16.4-8.4,20.1-16c-0.6-8.8-8.2-9.9-12.7-10.6c-2.5-0.4-5,1.1-7,2.8
			c-0.2,0.2-0.4,0.3-0.6,0.5c-6.6,4.8-23.7-4.7-14.7-11.8c0,0,3.1-3.3,6.7-4.7h0c0,0,3-1.5,5.4-0.7c0.9,0.3,1.8,1,2.4,2.3
			c0,0.1,0.1,0.1,0.1,0.2c0.3,0.6,0.6,1.3,1,1.9c3,4.8,9.6,11.2,15.7,6.8c7.1-5.1,6.3-7.1,6.6-9c0,0,0,0,0,0
			C772,255.6,770.2,252.4,770.2,252.4z"/>
	</g>
	<g id="XMLID_1571_">
		<path id="XMLID_1574_" class="st1" d="M812.5,256.5c0,0,10.7-0.5,9.5-9.5c-0.9-7.1-30.7-20-42.9-4.6c-3.2,4-5.2,10-5.1,18.5
			c0,0,0,0.1,0,0.1c0.9,2.9,2.4,5.3,4.4,7.4c0.7,0.8,1.5,1.5,2.3,2c5.5,4.2,13.2,6,19.9,6.2c-1,3.8-5.5,6-20.1-1.1
			c0,0-10.7,0.5-9.5,9.5c0.9,7.1,30.8,20,42.9,4.5c3.2-4,5.1-10,5.1-18.5c0,0,0,0,0,0c-0.9-2.9-2.4-5.4-4.4-7.4
			c-0.7-0.8-1.5-1.5-2.3-2c-5.5-4.2-13.2-6-19.9-6.2C793.3,251.5,797.9,249.4,812.5,256.5z"/>
		<path id="XMLID_1573_" class="st1" d="M799,267.5c0,0,10.2,22-18.6,8c0,0-10.7,0.5-9.5,9.5c1.2,8.9,48.3,27.2,48-14"/>
		<path id="XMLID_1572_" class="st1" d="M793.9,264.5c0,0-10.2-22,18.6-8c0,0,10.7-0.5,9.5-9.5s-48.3-27.2-48,14"/>
	</g>
</g>
<g id="XMLID_1662_">
	<path id="XMLID_1664_" class="st3" d="M246.9,47.3c181,127.5,69.3,312,69.3,312c-16.7,36.2-204.1,135-258.4,77.6l0,0
		C3.5,379.6,44.5,335.1,68.2,309c18.4-20.3,58.1-16.6,74.9-14c4.9,0.8,7.8,1.5,7.8,1.5c34.2,5,65.5-7.3,57.8-47.7
		c0,0-1.4-31.4-13.6-55.6l0,0c0,0-8.9-21.8-25.6-28.3c-6.6-2.6-14.3-2.8-23.2,1.6c-0.5,0.2-1,0.4-1.5,0.7c-4.1,1.9-9,3.8-14.5,5.5
		c-37.8,11.8-102.1,15.1-114.3-36.3c-14.2-59.6-0.8-66.1,6.7-78c0,0,0,0,0,0c7.5-11.9,31.8-20.9,31.8-20.9l0,0
		C112.8,5.8,183,2.2,246.9,47.3z"/>
	<path id="XMLID_1663_" class="st3" d="M8.4,63.7c0,0,15.4-88,89.6-57.2s37.6,365.3,3.3,391.2C67.1,423.6-28.7,582.8,8.4,63.7z"/>
</g>
<path id="XMLID_1661_" class="st3" d="M380.7,31.5c0,0,97.7-93.2,99.9,82.1c2.2,175.3,35,335.2-152.8,334c0,0-102.1-42.6,0-87.5
	c50-22,59.9-67.7,58.9-125C386.7,235.1,366.5,42.7,380.7,31.5z"/>
<g>
	<path id="XMLID_1658_" class="st3" d="M481.8,93.3c-51.2,16.3-24.3,77.8-24.3,77.8s32.7,38.6,74.7,7.9
		C574.1,148.2,533,77,481.8,93.3z M489,157.7c-28-3.8,11.3-56,24.1-22.7C525.8,168.2,489,157.7,489,157.7z"/>
	<g id="XMLID_1651_">
		<path id="XMLID_1657_" class="st4" d="M571.2,111.5"/>
		<path id="XMLID_1654_" class="st3" d="M597.4,106c-41.9-30.8-74.7,7.9-74.7,7.9s-26.9,61.6,24.3,77.8
			C598.2,208,639.3,136.8,597.4,106z M578.3,150c-12.8,33.3-52.1-18.9-24.1-22.7C554.2,127.3,591,116.8,578.3,150z"/>
		<path id="XMLID_1653_" class="st3" d="M581.2,101.4"/>
		<path id="XMLID_1652_" class="st3" d="M581.2,99.3c0,0,33.2-31.7,34,27.9s11.9,114.1-52,113.7c0,0-34.8-14.5,0-29.8
			c17-7.5,20.4-23,20-42.5"/>
	</g>
	<path id="XMLID_1650_" class="st3" d="M427.7,165c0,0,5,30,29,19.4s12.2-124.3,1.1-133.1S415.7-11.6,427.7,165z"/>
	<path id="XMLID_1647_" class="st3" d="M613.5,93.3c-51.2,16.3-24.3,77.8-24.3,77.8s32.7,38.6,74.7,7.9
		C705.7,148.2,664.6,77,613.5,93.3z M620.6,157.7c-28-3.8,11.3-56,24.1-22.7C657.4,168.2,620.6,157.7,620.6,157.7z"/>
</g>
<g id="XMLID_1644_">
	<path id="XMLID_1646_" class="st3" d="M634.5,347.5c0,0-8.9-6.2-12.7-1.4s-10.4,13.1-2.6,29.3c7.8,16.2,37,2.8,39.8-4.7"/>
	<path id="XMLID_1645_" class="st3" d="M667.2,361.4L667.2,361.4c-5.4-14.4-17.2-25.7-35.2-27.5c-36-3.6-50.8,19.7-56.4,33.9
		c0,0-1.3,2.1-2.2,6.3c-0.7,2.5-0.9,4.6-0.8,5.5c-0.5,7.8,0.8,19.3,8,34.6c5.9,12.4,21,16.9,31,18.5c2.8,0.6,5.9,0.9,9.1,0.9
		c0.2,0,0.3,0,0.3,0l0,0c3.5-0.1,7.2-0.5,11.2-1.4c15.8-3.6,26.6-13.7,32.7-26.1c-1-14.3-13.3-16.1-20.7-17.2
		c-4-0.6-8.2,1.9-11.3,4.5c-0.3,0.3-0.7,0.6-1,0.8c-10.6,7.9-38.5-7.6-23.9-19.1c0,0,5-5.3,10.8-7.7h0c0,0,4.9-2.5,8.8-1.1
		c1.5,0.5,2.9,1.7,3.8,3.8c0,0.1,0.1,0.2,0.2,0.3c0.4,1,1,2,1.7,3.2c4.8,7.8,15.6,18.2,25.6,11c11.5-8.3,10.2-11.5,10.7-14.7
		c0,0,0,0,0,0C670.1,366.6,667.2,361.4,667.2,361.4z"/>
</g>
<g id="XMLID_1641_">
	<path id="XMLID_1643_" class="st3" d="M518.3,305.2c0,0-5.3-30-30.5-19.4c-25.2,10.5-12.8,124.3-1.1,133.1S530.9,481.8,518.3,305.2
		z"/>
	<path id="XMLID_1642_" class="st3" d="M511.8,369.8c0,0,42-41.5,33.5,36c0,0,10,24,29.5,14s22.5-133-71.5-98.5"/>
</g>
<g id="XMLID_1638_">
	<path id="XMLID_1640_" class="st3" d="M750.2,345.1c0,0-54.3-37.3-77.7,28.6c-23.4,66,33.6,76.3,32.3,36.2s12.4-43.4,28.2-37.2
		S771,372.2,750.2,345.1z"/>
	<path id="XMLID_1639_" class="st3" d="M704.1,349c0,0-3.6-24.7-25.7-11.7c-22.1,13,1.2,34.5,1.2,34.5"/>
</g>
<g id="XMLID_1635_">
	<path id="XMLID_1637_" class="st3" d="M817.8,347.5c0,0-8.9-6.2-12.7-1.4s-10.4,13.1-2.6,29.3c7.8,16.2,37,2.8,39.8-4.7"/>
	<path id="XMLID_1636_" class="st3" d="M850.6,361.4L850.6,361.4c-5.4-14.4-17.2-25.7-35.2-27.5c-36-3.6-50.8,19.7-56.4,33.9
		c0,0-1.3,2.1-2.2,6.3c-0.7,2.5-0.9,4.6-0.8,5.5c-0.5,7.8,0.8,19.3,8,34.6c5.9,12.4,21,16.9,31,18.5c2.8,0.6,5.9,0.9,9.1,0.9
		c0.2,0,0.3,0,0.3,0l0,0c3.5-0.1,7.2-0.5,11.2-1.4c15.8-3.6,26.6-13.7,32.7-26.1c-1-14.3-13.3-16.1-20.7-17.2
		c-4-0.6-8.2,1.9-11.3,4.5c-0.3,0.3-0.7,0.6-1,0.8c-10.6,7.9-38.5-7.6-23.9-19.1c0,0,5-5.3,10.8-7.7h0c0,0,4.9-2.5,8.8-1.1
		c1.5,0.5,2.9,1.7,3.8,3.8c0,0.1,0.1,0.2,0.2,0.3c0.4,1,1,2,1.7,3.2c4.8,7.8,15.6,18.2,25.6,11c11.5-8.3,10.2-11.5,10.7-14.7
		c0,0,0,0,0,0C853.5,366.6,850.6,361.4,850.6,361.4z"/>
</g>
<g>
	<path id="XMLID_1632_" class="st3" d="M670.5,226.7c-31.5,10-15,47.9-15,47.9s20.2,23.8,46,4.8C727.3,260.5,702,216.7,670.5,226.7z
		 M674.9,266.4c-17.2-2.3,7-34.5,14.8-14C697.5,272.8,674.9,266.4,674.9,266.4z"/>
	<g id="XMLID_1625_">
		<path id="XMLID_1631_" class="st4" d="M635.2,238"/>
		<path id="XMLID_1628_" class="st3" d="M651.4,234.6c-25.8-18.9-46,4.8-46,4.8s-16.5,37.9,15,47.9
			C651.9,297.3,677.2,253.5,651.4,234.6z M639.6,261.6c-7.9,20.5-32-11.7-14.8-14C624.8,247.7,647.4,241.2,639.6,261.6z"/>
		<path id="XMLID_1627_" class="st3" d="M641.4,231.7"/>
		<path id="XMLID_1626_" class="st3" d="M641.4,230.4c0,0,20.5-19.5,20.9,17.2c0.5,36.7,7.3,70.2-32,70c0,0-21.4-8.9,0-18.3
			c10.5-4.6,12.5-14.2,12.3-26.2"/>
	</g>
	<g id="XMLID_1622_">
		<path id="XMLID_1624_" class="st3" d="M740.1,233.9c0,0-5.5-3.8-7.8-0.8c-2.3,3-6.4,8.1-1.6,18s22.8,1.7,24.5-2.9"/>
		<path id="XMLID_1623_" class="st3" d="M760.2,242.4L760.2,242.4c-3.3-8.8-10.6-15.8-21.7-16.9c-22.1-2.2-31.3,12.1-34.7,20.8
			c0,0-0.8,1.3-1.3,3.9c-0.4,1.5-0.6,2.8-0.5,3.4c-0.3,4.8,0.5,11.9,4.9,21.3c3.6,7.7,12.9,10.4,19.1,11.4c1.7,0.4,3.6,0.6,5.6,0.5
			c0.1,0,0.2,0,0.2,0l0,0c2.1,0,4.4-0.3,6.9-0.9c9.7-2.2,16.4-8.4,20.1-16c-0.6-8.8-8.2-9.9-12.7-10.6c-2.5-0.4-5,1.1-7,2.8
			c-0.2,0.2-0.4,0.3-0.6,0.5c-6.6,4.8-23.7-4.7-14.7-11.8c0,0,3.1-3.3,6.7-4.7h0c0,0,3-1.5,5.4-0.7c0.9,0.3,1.8,1,2.4,2.3
			c0,0.1,0.1,0.1,0.1,0.2c0.3,0.6,0.6,1.3,1,1.9c3,4.8,9.6,11.2,15.7,6.8c7.1-5.1,6.3-7.1,6.6-9c0,0,0,0,0,0
			C762,245.6,760.2,242.4,760.2,242.4z"/>
	</g>
	<g id="XMLID_1618_">
		<path id="XMLID_1621_" class="st3" d="M802.5,246.5c0,0,10.7-0.5,9.5-9.5c-0.9-7.1-30.7-20-42.9-4.6c-3.2,4-5.2,10-5.1,18.5
			c0,0,0,0.1,0,0.1c0.9,2.9,2.4,5.3,4.4,7.4c0.7,0.8,1.5,1.5,2.3,2c5.5,4.2,13.2,6,19.9,6.2c-1,3.8-5.5,6-20.1-1.1
			c0,0-10.7,0.5-9.5,9.5c0.9,7.1,30.8,20,42.9,4.5c3.2-4,5.1-10,5.1-18.5c0,0,0,0,0,0c-0.9-2.9-2.4-5.4-4.4-7.4
			c-0.7-0.8-1.5-1.5-2.3-2c-5.5-4.2-13.2-6-19.9-6.2C783.3,241.5,787.9,239.4,802.5,246.5z"/>
		<path id="XMLID_1620_" class="st5" d="M789,257.5c0,0,10.2,22-18.6,8c0,0-10.7,0.5-9.5,9.5c1.2,8.9,48.3,27.2,48-14"/>
		<path id="XMLID_1619_" class="st3" d="M783.9,254.5c0,0-10.2-22,18.6-8c0,0,10.7-0.5,9.5-9.5s-48.3-27.2-48,14"/>
	</g>
</g>
</svg>
