<?xml version="1.0" encoding="utf-8"?>
<!-- Generator: Adobe Illustrator 22.1.0, SVG Export Plug-In . SVG Version: 6.00 Build 0)  -->
<svg version="1.1" id="Layer_1" xmlns="http://www.w3.org/2000/svg" xmlns:xlink="http://www.w3.org/1999/xlink" x="0px" y="0px"
	 viewBox="0 0 483.3 361" style="enable-background:new 0 0 483.3 361;" xml:space="preserve">
<style type="text/css">
	.st0{fill:#FDF5EA;stroke:#5B5B4B;stroke-linecap:round;stroke-miterlimit:10;}
	.st1{fill:#5B5B4B;stroke:#5B5B4B;stroke-linecap:round;stroke-miterlimit:10;}
</style>
<g>
	<path class="st0" d="M405.6,177.4c4.8,0.1,34.1-0.1,49.4-0.3c5.6-0.1,9.3-0.1,9.3-0.1s1.9-0.4,2.2-1.2c0.1-0.4,0.2-1.2,0.3-2.5
		c-0.1-5.4-0.3-9.8-0.3-9.8c0.1-0.8-2.2-1.2-2.2-1.2c-0.5-0.1-4.1-0.2-9.3-0.2c-16.6-0.2-49.5-0.1-49.5-0.1s-1.7,0.3-2.1,0.8
		c0,1.5,0,2.9,0,4.2c0,2.4,0,5.8,0,9.3C403.9,177.1,405.6,177.4,405.6,177.4z"/>
	<path class="st0" d="M415,177.4c4.8,0.1,34.1-0.1,49.4-0.3c5.6-0.1,9.3-0.1,9.3-0.1s1.9-0.4,2.2-1.2c0.1-0.4,0.2-1.2,0.3-2.5
		c-0.1-5.4-0.3-9.8-0.3-9.8c0.1-0.8-2.2-1.2-2.2-1.2c-0.5-0.1-4.1-0.2-9.3-0.2c-16.6-0.2-49.5-0.1-49.5-0.1s-1.7,0.3-2.1,0.8
		c0,1.5,0,2.9,0,4.2c0,2.4,0,5.8,0,9.3C413.2,177.1,415,177.4,415,177.4z"/>
	<g>
		<g>
			<path id="XMLID_338_" class="st0" d="M456.5,171c0,0,4.9,6.9,8,0.2C467.7,164.5,455.5,162.6,456.5,171z"/>
			<g>
				<path id="XMLID_336_" class="st0" d="M458.2,170.5c0,0,2.9,4.1,4.7,0.1S457.6,165.6,458.2,170.5z"/>
			</g>
		</g>
	</g>
	<g>
		<g>
			<path id="XMLID_341_" class="st0" d="M416.3,171c0,0,4.9,6.9,8,0.2C427.5,164.5,415.3,162.6,416.3,171z"/>
			<g>
				<path id="XMLID_340_" class="st1" d="M418,170.5c0,0,2.9,4.1,4.7,0.1C424.6,166.7,417.4,165.6,418,170.5z"/>
			</g>
		</g>
	</g>
	<g>
		<g>
			<path id="XMLID_343_" class="st0" d="M428.5,171c0,0,4.9,6.9,8,0.2S427.4,162.6,428.5,171z"/>
			<g>
				<path id="XMLID_342_" class="st1" d="M430.2,170.5c0,0,2.9,4.1,4.7,0.1C436.8,166.7,429.6,165.6,430.2,170.5z"/>
			</g>
		</g>
	</g>
	<g>
		<g>
			<path id="XMLID_345_" class="st0" d="M467.7,168.5c0,0,3.2,4.5,5.2,0.1C475,164.2,467,163,467.7,168.5z"/>
			<g>
				<path id="XMLID_344_" class="st0" d="M469.2,168.1c0,0,1.5,2.1,2.4,0.1C472.5,166.1,468.9,165.6,469.2,168.1z"/>
			</g>
		</g>
	</g>
	<g>
		<g>
			<g>
				<path id="XMLID_346_" class="st0" d="M469.2,174.6c0,0,1.5,2.1,2.4,0.1C472.5,172.7,468.9,172.1,469.2,174.6z"/>
			</g>
		</g>
	</g>
	<g>
		<path class="st0" d="M443.2,164.6c-1.1,0.1-2.2,0.9-2,2.8c0,0,1.1,1.5,2.3,1.6c0.6,0,6.8,0.1,7.7,0c0.5-0.1,1.1-0.5,1.5-1.5
			c0.8-1.7-0.4-2.8-1.7-2.9C450.2,164.5,444,164.5,443.2,164.6z"/>
		<g>
			<path id="XMLID_348_" class="st0" d="M442.1,167.1c0,0,1.5,2.1,2.4,0.1C445.4,165.2,441.8,164.6,442.1,167.1z"/>
		</g>
		<g>
			<path id="XMLID_352_" class="st0" d="M449.6,167.1c0,0,1.5,2.1,2.4,0.1C452.9,165.2,449.3,164.6,449.6,167.1z"/>
		</g>
	</g>
	<g>
		<path class="st0" d="M440.4,172.1c-0.6,0-1.2,0.5-1.1,1.5c0,0,0.6,0.8,1.2,0.8c0.3,0,3.6,0.1,4.1,0c0.3,0,0.6-0.3,0.8-0.8
			c0.4-0.9-0.2-1.5-0.9-1.6C444.1,172.1,440.8,172.1,440.4,172.1z"/>
		<g>
			<path id="XMLID_350_" class="st0" d="M439.8,173.5c0,0,0.8,1.1,1.3,0C441.6,172.5,439.6,172.2,439.8,173.5z"/>
		</g>
		<g>
			<path id="XMLID_349_" class="st0" d="M443.8,173.5c0,0,0.8,1.1,1.3,0C445.6,172.5,443.6,172.2,443.8,173.5z"/>
		</g>
	</g>
	<g>
		<path class="st0" d="M449.7,172.1c-0.6,0-1.2,0.5-1.1,1.5c0,0,0.6,0.8,1.2,0.8c0.3,0,3.6,0.1,4.1,0c0.3,0,0.6-0.3,0.8-0.8
			c0.4-0.9-0.2-1.5-0.9-1.6C453.5,172.1,450.2,172.1,449.7,172.1z"/>
		<g>
			<path id="XMLID_353_" class="st0" d="M449.1,173.5c0,0,0.8,1.1,1.3,0C450.9,172.5,449,172.2,449.1,173.5z"/>
		</g>
		<g>
			<path id="XMLID_351_" class="st0" d="M453.1,173.5c0,0,0.8,1.1,1.3,0C454.9,172.5,453,172.2,453.1,173.5z"/>
		</g>
	</g>
</g>
</svg>
