<?xml version="1.0" encoding="utf-8"?>
<!-- Generator: Adobe Illustrator 19.0.0, SVG Export Plug-In . SVG Version: 6.00 Build 0)  -->
<svg version="1.1" id="Layer_1" xmlns="http://www.w3.org/2000/svg" xmlns:xlink="http://www.w3.org/1999/xlink" x="0px" y="0px"
	 viewBox="0 0 238.2 227.8" style="enable-background:new 0 0 238.2 227.8;" xml:space="preserve">
<g>
	<path style="fill:#e2a03f;" d="M119,64.9c20,0,40,0.1,60-0.1c3.9,0,5.1,1,5.1,5c-0.2,29.2-0.1,58.3-0.1,87.5
		c0,11-5.5,17.8-16.1,19.5c-3.3,0.5-3,1.5-1.7,3.7c4.2,7.2,8.4,14.4,12.3,21.7c5.1,9.6-0.2,20.2-10.7,21.4
		c-6.7,0.8-11.4-2.6-14.6-8.3c-6.5-11.6-13.2-23.1-19.7-34.8c-1.3-2.4-2.8-3.7-5.8-3.6c-7.5,0.2-15,0.2-22.5,0
		c-3.4-0.1-4.2,1.1-4.2,4.3c0.2,10.3,0.1,20.7,0.1,31c0,9.1-5.8,15.5-14,15.7C79,228,73,221.5,72.9,212.5c-0.1-10.3-0.1-20.7,0-31
		c0-2.8-0.3-4.3-3.7-5c-9.5-1.9-14.8-8.7-14.9-18.5c-0.1-29.7,0-59.3-0.1-89c0-3.9,1.7-4.2,4.8-4.2C79,64.9,99,64.9,119,64.9z"/>
	<path style="fill:#e2a03f;" d="M118.5,58.9c-19.5,0-39-0.2-58.5,0.1c-5,0.1-5.5-1.9-4.9-5.8c1.6-10.3,5.6-19.5,12.6-27.2
		c2.2-2.4,2.5-4.1,0.7-6.8c-3.2-5-6.1-10.3-9-15.5c-0.6-1-2.2-2.3-0.2-3.3c1.7-0.9,2.2,0.9,2.9,1.9c3,5,6,10,8.8,15.1
		c1.3,2.3,2.1,3.2,4.6,1.1c23.9-19.7,63.5-19.6,87.1,0c2.6,2.2,3.4,1.2,4.6-1.1c2.8-5.1,5.8-10.1,8.7-15.1c0.6-1.1,1.2-2.8,2.9-1.9
		c1.8,1,0.3,2.4-0.3,3.4c-2.8,4.9-5.4,9.9-8.5,14.7c-2,3.1-2.1,5.1,0.6,8.1c6.9,7.5,10.7,16.7,12.3,26.8c0.6,4-0.1,5.9-5,5.8
		C158.2,58.7,138.3,58.9,118.5,58.9z M98.9,33.7c0.1-3.8-3.4-7.3-7.3-7.3c-3.8-0.1-7.4,3.4-7.5,7.2c0,3.8,3.4,7.3,7.3,7.3
		C95.3,40.9,98.9,37.5,98.9,33.7z M153.9,33.6c0-3.8-3.5-7.3-7.4-7.3c-3.8,0-7.4,3.5-7.4,7.3c0,3.8,3.5,7.3,7.4,7.3
		C150.4,40.9,153.9,37.4,153.9,33.6z"/>
	<path style="fill:#e2a03f;" d="M238.2,27.1c0.2,2.2-0.7,4.5-1.6,6.9c-6.9,18-13.7,36-20.7,54c-3.2,8.3-10.8,12.1-18.3,9.4
		c-7.9-2.8-11.6-10.7-8.5-19c7-18.8,14.2-37.6,21.6-56.3c2.8-7.2,9.3-10.4,16.4-8.9C233.6,14.4,238.1,20,238.2,27.1z"/>
	<path style="fill:#e2a03f;" d="M50.3,84.9c0,2.4-0.9,4.6-1.7,6.8c-6.9,18-13.7,36-20.6,54c-3.3,8.5-11,12.4-18.7,9.5
		c-7.8-2.9-11.3-10.9-8.1-19.3c7-18.5,14-36.9,21.2-55.4c2.6-6.6,7.9-10.2,14.1-9.9c5.9,0.2,10.9,3.9,12.8,9.5
		C49.8,81.6,50,83.3,50.3,84.9z"/>
</g>
</svg>
