<?xml version="1.0" encoding="utf-8"?>
<!-- Generator: Adobe Illustrator 19.0.0, SVG Export Plug-In . SVG Version: 6.00 Build 0)  -->
<svg version="1.1" id="Layer_1" xmlns="http://www.w3.org/2000/svg" xmlns:xlink="http://www.w3.org/1999/xlink" x="0px" y="0px"
	 viewBox="0 0 147 183.6" style="enable-background:new 0 0 147 183.6;" xml:space="preserve">
<g>
	<path style="fill:#FB4911;" d="M107.2,110.1c-5.5,0-11,0.2-16.5-0.1c-3.4-0.2-5,1.2-6.3,4.2c-4.6,10.8-9.1,21.7-15.6,31.7
		C53.7,169.6,32.1,182.1,4,183.6c-3.1,0.2-4.1-0.9-4-3.9c0.1-9.8,0-19.7,0-29.5c0-1.9,0-3.8,2.7-3.8c22.3-0.5,33.4-14.9,41.8-33.1
		C53.3,94.1,59.8,74,68.6,54.8c10.1-22.1,24.3-40.5,47.9-49.6c8.6-3.3,17.5-5.1,26.8-5.2c2.8,0,3.8,0.8,3.8,3.6
		c-0.1,9.7-0.1,19.3,0,29c0,2.6-0.6,3.8-3.5,4c-21.4,1.3-32.9,15.1-41.1,33c-1.4,3.2-0.2,3.6,2.6,3.6c6.5-0.1,13,0.1,19.5-0.1
		c3-0.1,4.1,0.8,4.1,4c-0.2,9.7-0.2,19.3,0,29c0.1,3.5-1.4,4.2-4.4,4.1C118.6,110,112.9,110.1,107.2,110.1
		C107.2,110.1,107.2,110.1,107.2,110.1z"/>
</g>
</svg>
