<?xml version="1.0" encoding="utf-8"?>
<!-- Generator: Adobe Illustrator 19.0.0, SVG Export Plug-In . SVG Version: 6.00 Build 0)  -->
<svg version="1.1" id="Layer_1" xmlns="http://www.w3.org/2000/svg" xmlns:xlink="http://www.w3.org/1999/xlink" x="0px" y="0px"
	 viewBox="0 0 1989.2 1265.9" style="enable-background:new 0 0 1989.2 1265.9;" xml:space="preserve">
<g>
	<path style="fill:#020202;" d="M1246.4,621.1c-0.2,66.2-4.9,128.9-16.9,191c-16,82.5-43.2,160.7-88.8,231.8
		c-52.3,81.6-121.8,143.4-211,182.3c-45,19.6-92,31.5-140.8,36.7c-56.1,6-111.8,3.4-166.8-9.5c-80.7-19-150.9-57.4-210.3-115.4
		c-48.4-47.2-84.7-102.7-111.9-164.4c-23.7-53.7-39.4-109.7-49.3-167.4c-11.5-66.3-14.9-133-12.8-200.1
		c2.6-81.9,14.3-162.4,39.8-240.5c22.3-68.4,54.1-131.9,99.4-188.1C445.3,92.7,532.2,37.2,638.3,12.7C695.1-0.4,752.6-3.1,810.6,3.4
		c72.2,8.1,138.8,31.6,199.2,72.1c55.8,37.4,100.4,85.5,135.9,142.4c37.4,60,62,125.1,78,193.8
		C1239.9,481.5,1246.2,552.5,1246.4,621.1z M1208.6,617.6c-0.7-62.4-7.2-127.1-22-190.8c-15.8-68-40-132.6-77.5-191.8
		c-31.4-49.5-70.4-91.9-119.3-124.7C927.4,68.4,858,48,783.5,43.8c-44.8-2.6-89.2,0.5-133.1,9.7c-78.4,16.3-147.1,51.5-205.3,106.7
		c-53.2,50.4-91.2,111.1-118.6,178.7c-32.2,79.5-47.6,162.6-51.8,247.9c-3.4,68.1,0.3,135.9,11.7,203.1
		c10.2,60.1,26.7,118.3,52.1,173.8c29.6,64.7,69.3,122,123.8,168.3c62.9,53.4,135.8,83.2,217.4,92.6c38.6,4.5,77.1,4.2,115.7-0.8
		c45-5.8,88.2-17.9,129.1-37.6c65.6-31.5,118.8-77.9,161.8-136.3c44.7-60.8,74.5-128.6,94.2-201.1
		C1200.9,774,1209.1,697.8,1208.6,617.6z"/>
	<path style="fill:#020202;" d="M1632.1,1264c-77.4,0-151.7-14.9-222.4-46.6c-15.5-6.9-30.2-15.4-44.1-25.2c-2.9-2.1-3.7-3.7-2-7.2
		c4.5-9.4,8.7-19,12.9-28.6c1.1-2.7,1.9-3.6,4.8-1.7c53.3,33.7,111.3,55.6,172.7,68.6c67.2,14.2,133.5,11.1,198.2-12.6
		c74.4-27.2,132.6-73.9,169.7-144.9c20.4-39.1,29.8-80.9,30.2-124.9c0.4-50.4-8.8-98.6-33.4-143.2c-20.7-37.5-49.7-67.8-83.5-93.6
		c-39.9-30.5-83.9-53.7-129.5-74.3c-35.6-16.1-71.8-30.6-106.8-48c-42.1-20.9-82.7-44.2-118.4-75.2c-47.3-41.2-78.7-91.7-86.4-154.5
		c-12.1-98.4,13.6-185.1,84.4-256.3c36.1-36.3,79.8-60.6,128.4-76C1659,3.2,1712.5-0.8,1766.8,3.4c45.5,3.5,89.9,12.2,132.5,29.1
		c14.8,5.9,29.1,13,42.6,21.6c2.7,1.7,3.4,3.1,1.8,6.3c-4.1,8.2-7.8,16.5-11.5,24.9c-1,2.2-1.8,2.5-3.9,1.2
		c-33.5-20.7-70.8-30.8-108.9-38.6c-36.7-7.6-73.8-10.7-111.3-9.1c-67,2.9-128.3,22-180.3,65.8c-48.3,40.7-78.6,92.4-91.2,154.2
		c-9.8,48-6.5,95.1,13,140.4c14.7,34.1,38.6,61.1,67.3,84.2c31.5,25.4,66.7,44.9,102.5,63.3c43.7,22.4,88.8,42.1,132.3,65
		c43.5,22.9,85.9,47.4,124.2,78.4c42.2,34.2,76.1,74.8,94.9,126.6c14,38.4,18.6,78.2,18.1,118.8c-0.6,47.8-9.7,93.9-29.7,137.5
		c-34.1,74.5-90,126.6-165,158.9C1745.9,1252.8,1687.5,1263.5,1632.1,1264z"/>
	<path style="fill:#020202;" d="M52.7,810.1c0,144,0,287.9,0.1,431.9c0,4.3-0.7,6-5.5,5.7c-9-0.5-18-0.2-27-0.1
		c-2.9,0.1-4-0.8-3.6-3.6c0.1-0.8,0-1.7,0-2.5c0-287.8,0-575.5-0.1-863.3c0-5.5,1.6-6.6,6.6-6.3c8.1,0.4,16.3,0.4,24.5,0
		c4.3-0.2,5.7,1.3,5,5.3c-0.2,1,0,2,0,3C52.7,523.5,52.7,666.8,52.7,810.1z"/>
	<path style="fill:#020202;" d="M69.6,102.8c-0.6,31.7-25,42.5-45.6,36.8c-14.1-3.9-23.3-17.9-24-35.5C-0.7,85,12.5,67.9,29.8,65.5
		c19.4-2.6,35.2,8.8,38.8,28C69.2,96.8,69.8,100.1,69.6,102.8z"/>
</g>
</svg>
