<?xml version="1.0" encoding="utf-8"?>
<!-- Generator: Adobe Illustrator 19.0.0, SVG Export Plug-In . SVG Version: 6.00 Build 0)  -->
<svg version="1.1" id="Layer_1" xmlns="http://www.w3.org/2000/svg" xmlns:xlink="http://www.w3.org/1999/xlink" x="0px" y="0px"
	 viewBox="962.8 126.7 581.7 581.7" style="enable-background:new 962.8 126.7 581.7 581.7;" xml:space="preserve">
<style type="text/css">
	.st0{fill:#8A4182;}
</style>
<g>
	<path class="st0" d="M1231.1,367.5h45.1l11.2-15.4V231.4h-67.4v120.7L1231.1,367.5 M1202.1,421.4l13.9-42.8l-11.2-15.4L1090,325.8
		l-20.8,64.1l114.8,37.3L1202.1,421.4 M1244.3,465.6l-36.4-26.5l-18.1,5.9l-70.9,97.7l54.6,39.6l71-97.7L1244.3,465.6 M1299.4,439.1
		l-36.5,26.5l0,19l70.9,97.7l54.6-39.6l-71-97.7L1299.4,439.1 M1291.3,378.5l13.9,42.9l18.1,5.9l114.8-37.3l-20.8-64.1l-114.8,37.3
		L1291.3,378.5"/>
	<path class="st0" d="M1253.7,126.7c-160.4,0-290.9,130.5-290.9,290.8c0,160.4,130.5,290.9,290.9,290.9
		c160.4,0,290.8-130.5,290.8-290.9C1544.5,257.1,1414,126.7,1253.7,126.7L1253.7,126.7z M1253.7,185.5
		c128.1,0,231.9,103.8,231.9,231.9c0,128.1-103.9,232-231.9,232c-128.1,0-232-103.9-232-232C1021.7,289.4,1125.5,185.5,1253.7,185.5
		"/>
	<path class="st0" d="M1429.8,482.1l-87.3-28.4l5.8-17.8l87.3,28.4L1429.8,482.1 M1318.5,342l-15.1-11l53.9-74.2l15.1,11L1318.5,342
		 M1189.7,341.3l-53.9-74.2l15.1-11l53.9,74.2L1189.7,341.3 M1077.1,481l-5.8-17.8l87.3-28.3l5.8,17.8L1077.1,481 M1243.7,602.9
		h18.7v-91.8h-18.7V602.9z"/>
</g>
<wappalyzerData  id="wappalyzerData" style="display: none"></wappalyzerData>
<script  id="wappalyzerEnvDetection" src="chrome-extension://gppongmhjkpfnbhagpmjfkannfbllamg/js/inject.js"></script>
</svg>
