<?xml version="1.0" encoding="utf-8"?>
<!-- Generator: Adobe Illustrator 19.0.0, SVG Export Plug-In . SVG Version: 6.00 Build 0)  -->
<svg version="1.1" id="Layer_1" xmlns="http://www.w3.org/2000/svg" xmlns:xlink="http://www.w3.org/1999/xlink" x="0px" y="0px"
	 viewBox="0 0 956.6 396.9" style="enable-background:new 0 0 956.6 396.9;" xml:space="preserve">
<path style="fill:#31ABE6;" d="M952.2,64c-7.5,0-15,0.1-22.5-0.1c-5.2-0.1-6.5-1.8-5-6.3c6.3-19,11.6-38.3,16.9-57.7
	c-3.3,0-6.7,0-10,0c-29.7,0-59.3,0-89,0c0.1,0.3,0,0.6-0.1,0.8c-0.3,1.7-0.8,3.1-1.5,4.4c0.7-1.3,1.2-2.7,1.5-4.4
	C831.5,0.8,820.7,2.7,810,5c-29.3,6.5-54.2,20.4-73,44.3c-14.8,18.9-23.5,40.7-29.9,63.6c-0.4,0.9-1,1.8-1.3,2.7
	c-8.4,27.1-16.7,54.3-25.2,81.4c-11.2,35.8-22.3,71.7-36,106.7c-1.2,3-3.4,5.8-2.6,9.4c-1,0.8-1.5,2.2-3.3,2.5
	c-5.1-15.5-9.5-31.2-13.5-47c0,0,0,0,0,0c-4.2-17.6-8.3-35.1-12.5-52.7c-7.1-29.7-14-59.4-23.7-88.4c-1.1-6.8-3.9-13-6.3-19.4
	c-9.4-25.4-20.6-49.7-38.4-70.6c-21-24.7-48.3-31.2-78.9-29.2c-2.8,0-5.6,0-8.4,0c-0.2,0.4-0.3,0.8-0.5,1.2h0
	c0.2-0.4,0.3-0.8,0.5-1.2c-2.8-0.8-5.6-0.8-8.5,0c-4.3,0-8.5,0-12.8,0c0,0,0,0,0,0c-3.6-0.7-7.3-0.8-10.9,0.1c-14,0-27.9,0-41.9,0
	c-2.2-0.7-4.3-0.7-6.5,0c-8.8,0-17.7,0.1-26.5,0.1c-18.4-1-36.8-0.7-55.1,0c-2.4,0.1-5-0.5-7.3,0.9c-2.9-0.2-5.9-0.5-8.8-0.7
	c0,0,0,0,0,0c-1.9-1.4-4.1-0.8-6.2-0.6c-16.9,0.1-32.5,5.1-47.1,13c-34.4,18.5-61,45.8-85.1,75.8c-4.3,3.8-7.3,8.6-10.7,13.1
	c-28.2,37.8-51.5,78.4-71.6,121C34.6,281,15.6,332.5,1.6,385.9c-2.9,11-2.9,11,8.2,10.8c10.6,0,21.1-0.1,31.7-0.1
	c0.2-3.4,0.5-6.8,0.9-10.2c-0.4,3.4-0.7,6.8-0.9,10.2c4.6,0.1,9.3,0.4,13.9,0.3c14.7-0.4,29.5,1,44.2-1.2l0,0
	c14.1-0.1,27.7-2.8,41.1-6.8c26.7-8.1,48.9-22.6,65.2-45.7c0.6-0.7,1.4-1.4,1.9-2.2c8.9-12.8,15.3-26.9,20.7-41.5
	c3.3-8.8,5.4-18.1,8.3-27c7.3-21.9,13.6-44.1,20.8-66c4-12.1,7-24.6,12-36.4c7.2-8.5,13.8-17.4,20-26.7c8.6-10.5,17.2-21,25.9-31.4
	c8.9-10.6,18.6-20.6,28.8-30.8c7.4,22.3,12.7,44.5,18.3,66.7c3.2,15.9,7.1,31.6,11.2,47.2c7.8,32.5,15.9,65,27.8,96.3
	c5.5,14.4,11.2,28.7,19.7,41.7c9.3,17.1,21.1,32,38,42.4c14.9,9.2,31.2,12.5,48.6,10.7c2.5,0.2,5,0.5,7.4,0.5
	c50.9,0,101.8,0.1,152.7,0c13.5,0,27,1,40.3-1.3c25.5-4.5,45-19.6,62.9-37.2c0,0,0,0,0,0c15.8-14.9,29.7-31.5,42.3-49.1
	c10.6-13,19.8-27,29.1-41c3.7-3.5,5.1-8.4,8.1-12.4c11.9-16.2,21.8-33.7,32.2-50.9c15.9-26.3,31.3-52.8,46.4-79.6
	c8.6-15.3,17.8-30.4,25.9-46C957.6,64.8,957.1,64,952.2,64z"/>
</svg>
