<svg xmlns="http://www.w3.org/2000/svg" width="1500" height="1200" clip-rule="evenodd">
 <title>pyramid</title>
 <desc>Piramide</desc>
 <defs>
  <filter id="l">
   <!-- licht donkerder -->
  </filter>
  <filter id="d">
   <!--  donkerder -->
  </filter>
 </defs>
 <g>
  <title>Layer 1</title>
  <g id="piramide">
   <g id="laag5" fill="RoyalBlue">
    <polygon filter="url(#d)" points="172.9662094116211,849.1297607421875 1273.5076904296875,849.1297607421875 1389.473876953125,733.8705444335938 329.8616027832031,733.8705444335938 " id="svg_1"/>
    <polygon filter="url(#l)" opacity="0.8;" points="1396.29541015625,1003.626220703125 1273.5076904296875,849.1297607421875 1389.473876953125,733.8705444335938 1534.9998779296875,866.2960815429688 " id="svg_2"/>
    <polygon points="172.9662094116211,849.1297607421875 1273.5076904296875,849.1297607421875 1396.29541015625,1003.626220703125 57.000056743621826,1003.626220703125 " id="svg_3"/>
   </g>
   <g id="laag4" fill="CornflowerBlue">
    <polygon filter="url(#d)" points="311.6708068847656,645.20556640625 1137.076904296875,645.20556640625 1225.757080078125,559.3741455078125 475.3877258300781,559.3741455078125 " id="svg_4"/>
    <polygon filter="url(#l)" opacity="0.8;" points="1255.3167724609375,804.6065673828125 1137.076904296875,645.20556640625 1225.757080078125,559.3741455078125 1369.0093994140625,694.2518920898438 " id="svg_5"/>
    <polygon points="195.7046661376953,804.6065673828125 1255.3167724609375,804.6065673828125 1137.076904296875,645.20556640625 311.6708068847656,645.20556640625 " id="svg_6"/>
   </g>
   <g id="laag3" fill="DeepSkyBlue">
    <polygon filter="url(#d)" points="448.1015930175781,446.18585205078125 1000.646240234375,446.18585205078125 1057.4922485351562,389.7823791503906 602.72314453125,389.7823791503906 " id="svg_7"/>
    <polygon filter="url(#l)" opacity="0.8;" points="1000.646240234375,446.18585205078125 1121.1600341796875,600.6822509765625 1203.0184326171875,522.2078552246094 1059.7660522460938,389.7823791503906 " id="svg_8"/>
    <polygon points="332.1354064941406,600.6822509765625 1121.1600341796875,600.6822509765625 1000.646240234375,446.18585205078125 448.1015930175781,443.7334899902344 " id="svg_9"/>
   </g>
   <g id="laag2" fill="LightSkyBlue">
    <polygon filter="url(#d)" points="589.0800170898438,242.26153564453125 864.2153930664062,242.26153564453125 893.775390625,212.83364868164062 684.58154296875,212.83364868164062 " id="svg_10"/>
    <polygon filter="url(#l)" opacity="0.8;" points="982.4554443359375,399.21026611328125 1037.0277709960938,345.2591247558594 893.775390625,212.83364868164062 864.2153930664062,242.26153564453125 " id="svg_11"/>
    <polygon points="468.56622314453125,399.21026611328125 982.4554443359375,399.21026611328125 864.2153930664062,242.26153564453125 589.0800170898438,242.26153564453125 " id="svg_12"/>
   </g>
   <g id="laag1" fill="PowderBlue">
    <polygon points="604.9969482421875,195.2859649658203 843.7506713867188,195.2859649658203 725.5107421875,38.337223052978516 " id="svg_13"/>
    <polygon filter="url(#l)" opacity="0.8;" points="843.7506713867188,195.2859649658203 871.0369873046875,170.7626953125 725.5107421875,38.337223052978516 " id="svg_14"/>
   </g>
  </g>
 </g>
<wappalyzerData id="wappalyzerData" style="display: none"/><script id="wappalyzerEnvDetection" src="chrome-extension://gppongmhjkpfnbhagpmjfkannfbllamg/js/inject.js"/></svg>