<?xml version="1.0" encoding="utf-8"?>
<!-- Generator: Adobe Illustrator 19.0.0, SVG Export Plug-In . SVG Version: 6.00 Build 0)  -->
<svg version="1.1" id="Layer_1" xmlns="http://www.w3.org/2000/svg" xmlns:xlink="http://www.w3.org/1999/xlink" x="0px" y="0px"
	 viewBox="-158 248.1 259 194" style="enable-background:new -158 248.1 259 194;" xml:space="preserve">
<style type="text/css">
	.st0{fill:#BE6E94;}
	.st1{fill:#B86C91;}
	.st2{fill:#AD6E8E;}
	.st3{fill:#A06E89;}
	.st4{fill:#A3748B;}
	.st5{fill:#CC6598;}
	.st6{fill:#B06B8B;}
	.st7{fill:#B27495;}
	.st8{fill:#AA6A87;}
</style>
<g>
	<g>
		<path class="st0" d="M101,391.1c-2.7,6.5-6.3,12-14.5,12.4c4.7-4.3,9.6-8.3,9.3-15.4c1.7,0.6,3,2.8,5.2,1
			C101,389.7,101,390.4,101,391.1z"/>
		<path class="st1" d="M34,329.2c-0.9,3.2-3.5,3.1-6,2.9c-3-0.2-4.2,0.5-4.3,4.2c-0.1,2.7,0,7-4.5,7.8c1-3.5,1.7-7.1,3-10.4
			C24.3,327.8,29.5,329.3,34,329.2z"/>
		<path class="st2" d="M2,338.1c-4.6,0.2-9.5-1.2-13.2,3.2c-0.3,0.4-0.8-0.7-0.9-1.3C-9.1,336.5-3.2,335.8,2,338.1z"/>
		<path class="st3" d="M-75,336.9c5-1.4,9.9-1.3,14.9-0.1C-65,337.3-70,337.3-75,336.9z"/>
		<path class="st1" d="M36.7,337.9c-1.3-2.6-0.4-5.4-0.6-8.1c2.2,0.2,2.8,1.4,2,3.4C37.6,334.8,37.1,336.4,36.7,337.9z"/>
		<path class="st4" d="M4.7,285c-1.1-3.3-1.1-6.6,0-9.8C5.2,278.4,5.3,281.7,4.7,285z"/>
		<path class="st5" d="M77.7,361.4c-10.8-2.8-21.7-2.3-32.1,2c-3.3,1.4-4.8,0.9-6.4-2.3c-3.8-7.5-4.7-15.1-2.5-23.1
			c-0.7-2.7,1.5-5.5-0.6-8.1c-0.5-0.8-1.3-0.8-2.1-0.7c-1.8,1.4-3.9,1.6-6,1.7c-3.2,0.1-5,1.1-5.3,4.9c-0.2,2.9-1.1,6.1-3.6,8.3
			c-4.6,8.3-8.6,16.9-14.4,25c-4.9-8.3-5.2-16.5-2.5-24.9c0.6-2.1,1.7-4.1-0.1-6c-4.9-1.1-9.7-0.8-14.1,1.9
			c-7.3,20.2-16.5,39.5-26.3,58.6c-1.2-3-0.8-5.8-0.2-8.5c1.7-7.1,3.6-14.1,5.4-21.2c0.9-3.4,0.6-7.5-3.5-7.1
			c-5.6,0.6-4.2-2.6-4.3-5.4c-0.3-8.3-5.1-11.7-13-9c-6.5,2.2-11.3,6.8-15.8,11.8c-1.3,1.5-2.6,3-4.4,4c-7,3.8-14,7.7-20.9,11.6
			c-1.6,0.9-2.7,1.3-4.3-0.3c-7.6-7.7-16.9-13.5-25-20.6c-8.4-7.4-15.5-15.6-13.7-28.2c1.2-8.5,5.5-15.3,11.3-21.2
			c20.5-20.4,45.3-33,73.3-39c11.7-2.5,23.8-3.1,35.3,2.2c6.4,3,9.7,7.8,9.2,15c-0.9,11.1-7,19.2-14.8,26.2
			c-13.6,12.3-29.9,18.5-47.9,19.8c-8.1,0.6-15.9-1.1-22.3-6.7c-1.1-0.9-1.9-2.9-3.6-1.6c-1.3,1.1-0.1,2.8,0.4,4.1
			c0.9,2.1,2.4,3.6,4,5c5.2,4.6,11.3,6.7,18.1,7.4c5-0.6,9.9-0.4,14.9-0.1c9.3-1,18.4-2.9,26.9-6.8c19.6-9,33.7-22.9,37.8-45
			c-0.3-3.3-0.3-6.6,0-9.8C3,262.8-5.3,256.3-16,252.2c-4.8-1.8-10-2.8-15-4.2c-6.3,0-12.7,0-19,0c-6.5,1.1-13.2,0.9-19.5,3.1
			c-27,9.3-52.3,21.3-72.4,42.4c-7.8,8.2-14.1,17.1-16.1,28.5c0,3.3,0,6.7,0,10c1.3,6.9,4.8,12.6,9.5,17.7
			c6.6,7.1,13.9,13.4,22,18.8c4.6,3,8.9,6.4,13.5,9.5c2.8,1.9,2.8,3.2-0.3,4.9c-7.2,3.8-14.2,8.1-20.5,13.3
			c-6.3,5.2-12.4,10.6-15.2,18.7c-4.7,13.6,0.7,24.8,13.1,27.1c3.7,0,7.3,0,11,0c11.5-0.9,20.3-6.7,27.2-15.5
			c9.1-11.6,11-24.8,7.9-38.8c-0.9-3.9-0.2-6.1,3.3-7.5c1.8-0.7,3.2-2.3,5.3-2.4c0.2,2.5-1,4.6-0.5,6.7c0.6,5.6,0.5,11.2,0.1,16.9
			c0.1,4.7,2.1,8.7,4.4,12.6c4.1,6.9,13.3,7.2,17.9,0.7c3-4.2,5.1-8.9,7.3-14.3c-0.5,3.9,0.1,6.9,1.2,9.9c2.3,6,7.3,7.3,12.3,3.4
			c2.9-2.3,5.1-5.3,6.8-8.5c5.3-9.8,10.7-19.5,15.1-29.8c1.6-3.9,3.3-7.8,5.5-12.7c1.1,5.4,2.3,9.4,4.4,13c2.2,3.8,1.6,6.5-0.9,9.9
			c-4.2,5.8-10,10.3-13.6,16.5c-3.4,5.8-1.2,10,5.5,10.1c10,0.1,18.5-3.6,25-11.3c1.6-1.9,2.8-4.2,2.6-6.8c-0.6-3.2-0.6-6.4-0.2-9.6
			c0.2-2.8-2.2-5.6-0.5-8.3c4.3-6.7,8.1-13.9,12.3-21.1c1.9,3.5,1.6,7.1,4,9.7c2.3,1.8,5,3.4,2,6.8c-2.1,1.9-4.2,3.8-6.1,5.9
			c-4.2,4.7-7.2,10-8.3,16.2c-1,6.1,2.9,10.7,8.4,10.2c14.6-1.5,24.7-13.8,23.2-28.5c-0.2-2.2,0.1-3.5,2.4-4.1
			c10.3-2.9,20.4-2.4,30.4,1c7.9,2.7,12.8,8.6,15.6,16.4c1.9,1.4,3.7,3.6,5.9,0.5c0-1.7,0-3.3,0-5C97.6,372,89.7,364.4,77.7,361.4z
			 M-121.9,427.8c-3.6,1.3-7.7,2.5-10.8-0.5c-3.3-3.2-1.8-7.5-0.6-11.2c1.7-5.1,5.1-9.4,9.1-12.8c5.6-4.7,11.5-9,17.7-12.8
			c4.8-2.9,5.1-2.7,5.5,3.1c0.1,1.2,0.1,2.3,0.2,3C-100.6,410.5-109.4,423.4-121.9,427.8z M-49.9,365.6c-3,10.9-7.1,21.4-11.8,31.7
			c-0.6,1.4-1.4,2.7-2.2,3.9c-0.6,1-1.3,2.2-2.6,2.1c-1.5-0.2-2-1.8-2.3-3c-0.6-2.6-0.9-5.2-1.2-7c0.7-12.3,4.5-22.5,11.7-31.5
			c0.1-0.1,0.2-0.3,0.3-0.4c2.3-2.1,5-5.4,8-3.8C-46.6,359.3-49.1,363-49.9,365.6z M-12.9,404.1c4-4.5,7.9-9.1,11.9-13.6
			C-1.4,397.9-6.4,401.6-12.9,404.1z M23.9,395.8c0.5-7.5,4.6-12.6,9.5-17.6C36.5,386,32.6,393.1,23.9,395.8z"/>
		<path class="st6" d="M-80.8,402c-1.3-6-0.8-11.9,0-17.9C-79.6,390.1-79.5,396-80.8,402z"/>
		<path class="st7" d="M30.8,372c0-3-2.5-5.1-2.8-7.9C31.7,365.7,33.5,368.1,30.8,372z"/>
		<path class="st8" d="M10.8,384.1c0.6,3.3,0.7,6.6,0.1,9.9C9.5,390.7,9.6,387.4,10.8,384.1z"/>
	</g>
</g>
<wappalyzerData  id="wappalyzerData" style="display: none"></wappalyzerData>
<script  id="wappalyzerEnvDetection" src="chrome-extension://gppongmhjkpfnbhagpmjfkannfbllamg/js/inject.js"></script>
</svg>
