<?xml version="1.0" encoding="utf-8"?>
<!-- Generator: Adobe Illustrator 22.1.0, SVG Export Plug-In . SVG Version: 6.00 Build 0)  -->
<svg version="1.1" id="Layer_1" xmlns="http://www.w3.org/2000/svg" xmlns:xlink="http://www.w3.org/1999/xlink" x="0px" y="0px"
	 viewBox="0 0 483.3 361" style="enable-background:new 0 0 483.3 361;" xml:space="preserve">
<style type="text/css">
	.st0{fill:#FDF5EA;stroke:#5B5B4B;stroke-linecap:round;stroke-miterlimit:10;}
</style>
<g>
	<path id="XMLID_331_" class="st0" d="M97.7,68.8c-0.8-0.2-1.2,2.2-1.2,2.2s0,56.5,0.3,58.8c0,0,0.4,2.3,1.2,2.2
		c0,0,28.4,0.9,30.9-0.1c0.8-0.3,1.2-2.2,1.2-2.2s0.5-52.1,0.3-58.7c0,0-0.4-2.3-1.2-2.2C129.3,68.8,98.6,69,97.7,68.8z"/>
	<g>
		<path class="st0" d="M120,120.2c0.4,0,0.7,0.1,0.9,0.2c0.1-15.3,0.4-44.6,0.3-49.4c0,0-0.4-2.3-1.2-2.2c0,0-30.7,0.2-31.6-0.1
			c-0.8-0.2-1.2,2.2-1.2,2.2s0,32.9,0.1,49.5c0.2-0.1,0.5-0.3,1-0.3C89.2,120.3,120,120.2,120,120.2z"/>
		<path class="st0" d="M120.8,129.7c0,0,0-3.7,0.1-9.3c-0.2-0.1-0.5-0.2-0.9-0.2c0,0-30.7,0-31.6,0c-0.5,0-0.8,0.2-1,0.3
			c0,5.1,0.1,8.7,0.2,9.3c0,0,0.4,2.3,1.2,2.2c0,0,12.2,0.4,21.4,0.4c4.8,0,8.7-0.1,9.6-0.4C120.4,131.6,120.8,129.7,120.8,129.7z"
			/>
	</g>
	<g>
		<g>
			<path id="XMLID_337_" class="st0" d="M105.5,121.9c0,0,6.9,4.9,0.2,8C99,133.1,97.1,120.9,105.5,121.9z"/>
			<g>
				<path id="XMLID_332_" class="st0" d="M105,123.6c0,0,4.1,2.9,0.1,4.7C101.1,130.2,100,123,105,123.6z"/>
			</g>
		</g>
	</g>
</g>
</svg>
