<?xml version="1.0" encoding="utf-8"?>
<!-- Generator: Adobe Illustrator 22.1.0, SVG Export Plug-In . SVG Version: 6.00 Build 0)  -->
<svg version="1.1" id="Layer_1" xmlns="http://www.w3.org/2000/svg" xmlns:xlink="http://www.w3.org/1999/xlink" x="0px" y="0px"
	 viewBox="0 0 483.3 361" style="enable-background:new 0 0 483.3 361;" xml:space="preserve">
<style type="text/css">
	.st0{fill:#5B5B4B;stroke:#5B5B4B;stroke-linecap:round;stroke-miterlimit:10;}
	.st1{fill:#FDF5EA;stroke:#5B5B4B;stroke-linecap:round;stroke-miterlimit:10;}
</style>
<g>
	<g>
		<g>
			<path class="st0" d="M115.9,179.4c0,0-2.5,39.6-2.3,70.1c0.1,3.6,0.2,7,0.2,9.9c0,0,0,0,0,0.1c0.2,7.5-0.1,10.8-0.7,11.6
				c-2,17.7,0.2,85,0.2,85l-11.4,1c0,0,2.2-40.5,0.8-68c-1.4-27.6-3.4-101.3-5.7-105.1"/>
			<path class="st0" d="M426.5,179.4c0,0-2.5,39.6-2.3,70.1c0.1,3.6,0.2,7,0.2,9.9c0,0,0,0,0,0.1c0.2,7.5-0.1,10.8-0.7,11.6
				c-2,17.7,0.2,85,0.2,85l-11.4,1c0,0,2.2-40.5,0.8-68c-1.4-27.6-3.4-101.3-5.7-105.1"/>
			<path class="st1" d="M448.1,188c3.8-3.7,0-10.5,0-10.5s0.9-0.1-2.1-0.1c-81.4-0.2-148.2-0.1-191.3-0.1
				c-108.6-0.1-178.3,0.1-178.3,0.1c-2.9,0-2.1,0.1-2.1,0.1s-0.2,5.8,1.7,10.6c0,0-0.9,0.1,2.1,0.1c50.8,0.1,117.8,0.1,168.5,0
				c90.2,0.1,199.4-0.1,199.4-0.1C449,188.1,448.1,188,448.1,188z"/>
		</g>
	</g>
	<g>
		<g>
			<path class="st1" d="M144,179.4c0,0-2.5,39.6-2.3,70.1c0.1,3.6,0.2,7,0.2,9.9c0,0,0,0,0,0.1c0.2,7.5-0.1,10.8-0.7,11.6
				c-2,17.7,0.2,85,0.2,85l-11.4,1c0,0,2.2-40.5,0.8-68c-1.4-27.6-3.4-101.3-5.7-105.1"/>
			<path class="st1" d="M454.5,179.4c0,0-2.5,39.6-2.3,70.1c0.1,3.6,0.2,7,0.2,9.9c0,0,0,0,0,0.1c0.2,7.5-0.1,10.8-0.7,11.6
				c-2,17.7,0.2,85,0.2,85l-11.4,1c0,0,2.2-40.5,0.8-68c-1.4-27.6-3.4-101.3-5.7-105.1"/>
			<path class="st1" d="M476.2,188c3.8-3.7,0-10.5,0-10.5s0.9-0.1-2.1-0.1c-81.4-0.2-148.2-0.1-191.3-0.1
				c-108.6-0.1-178.3,0.1-178.3,0.1c-2.9,0-2.1,0.1-2.1,0.1s-0.2,5.8,1.7,10.6c0,0-0.9,0.1,2.1,0.1c50.8,0.1,117.8,0.1,168.5,0
				c90.2,0.1,199.4-0.1,199.4-0.1C477,188.1,476.2,188,476.2,188z"/>
		</g>
	</g>
</g>
</svg>
