<?xml version="1.0" encoding="utf-8"?>
<!-- Generator: Adobe Illustrator 22.1.0, SVG Export Plug-In . SVG Version: 6.00 Build 0)  -->
<svg version="1.1" id="Layer_1" xmlns="http://www.w3.org/2000/svg" xmlns:xlink="http://www.w3.org/1999/xlink" x="0px" y="0px"
	 viewBox="0 0 483.3 361" style="enable-background:new 0 0 483.3 361;" xml:space="preserve">
<style type="text/css">
	.st0{fill:#FDF5EA;stroke:#5B5B4B;stroke-linecap:round;stroke-miterlimit:10;}
</style>
<g>
	<path id="XMLID_354_" class="st0" d="M23.8,172.6c-0.8-0.2-1.2,2.2-1.2,2.2s0,56.5,0.3,58.8c0,0,0.4,2.3,1.2,2.2
		c0,0,28.4,0.9,30.9-0.1c0.8-0.3,1.2-2.2,1.2-2.2s0.5-52.1,0.3-58.7c0,0-0.4-2.3-1.2-2.2C55.5,172.6,24.7,172.8,23.8,172.6z"/>
	<g>
		<path class="st0" d="M46.1,224c0.4,0,0.7,0.1,0.9,0.2c0.1-15.3,0.4-44.6,0.3-49.4c0,0-0.4-2.3-1.2-2.2c0,0-30.7,0.2-31.6-0.1
			c-0.8-0.2-1.2,2.2-1.2,2.2s0,32.9,0.1,49.5c0.2-0.1,0.5-0.3,1-0.3C15.4,224,46.1,224,46.1,224z"/>
		<path class="st0" d="M46.9,233.5c0,0,0-3.7,0.1-9.3c-0.2-0.1-0.5-0.2-0.9-0.2c0,0-30.7,0-31.6,0c-0.5,0-0.8,0.2-1,0.3
			c0,5.1,0.1,8.7,0.2,9.3c0,0,0.4,2.3,1.2,2.2c0,0,12.2,0.4,21.4,0.4c4.8,0,8.7-0.1,9.6-0.4C46.5,235.4,46.9,233.5,46.9,233.5z"/>
	</g>
	<g>
		<g>
			<path id="XMLID_347_" class="st0" d="M31.6,225.7c0,0,6.9,4.9,0.2,8S23.2,224.7,31.6,225.7z"/>
			<g>
				<path id="XMLID_339_" class="st0" d="M31.1,227.4c0,0,4.1,2.9,0.1,4.7C27.2,234,26.1,226.8,31.1,227.4z"/>
			</g>
		</g>
	</g>
</g>
</svg>
