<?xml version="1.0" encoding="utf-8"?>
<!-- Generator: Adobe Illustrator 22.1.0, SVG Export Plug-In . SVG Version: 6.00 Build 0)  -->
<svg version="1.1" id="Layer_1" xmlns="http://www.w3.org/2000/svg" xmlns:xlink="http://www.w3.org/1999/xlink" x="0px" y="0px"
	 viewBox="0 0 483.3 361" style="enable-background:new 0 0 483.3 361;" xml:space="preserve">
<style type="text/css">
	.st0{fill:#FDF5EA;stroke:#5B5B4B;stroke-linecap:round;stroke-miterlimit:10;}
</style>
<g>
	<path class="st0" d="M150.2,147.4V171c0,0,0,4.7,1.4,5.7c1.4,0.9,36.3,0,37.3,0s2.4,0,2.4-3.8c0-2.8-1-18.4-1.5-25.9"/>
	<path id="XMLID_326_" class="st0" d="M87,157.9c0,0-0.6,1.7,1.4,1.8c63,2,163.2-0.1,163.2-0.1c2-0.2,1.4-1.8,1.4-1.8
		c2.6-53.4,0-152.6,0-152.6s0.6-1.7-1.4-1.8c-97.9-4-164.3-0.1-164.3-0.1c-2,0.2-1.4,1.8-1.4,1.8S85.7,88.8,87,157.9z"/>
	<path id="XMLID_325_" class="st0" d="M92.2,17.5c0,0-0.7-4.8,3.1-5c0,0,66.9-5.6,149.2,0.1c3.8,0.3,3.1,5,3.1,5s0.7,62.5-1.4,106.2
		c0,0,0.7,4.8-3.1,5c0,0-63.7,3.9-146.4,0.1c-3.8-0.2-3.1-5-3.1-5L92.2,17.5z"/>
	<path id="XMLID_324_" class="st0" d="M104.1,19.5c-3.2-0.3-4.8,3.6-4.8,3.6s-0.1,91.3,1.4,95.1c0,0,1.6,3.7,4.8,3.6
		c0,0,117.7,1.5,128.2-0.1c3.2-0.5,4.8-3.6,4.8-3.6s2.3-84.3,1.4-94.9c0,0-1.6-3.7-4.8-3.6C235.2,19.6,107.8,19.9,104.1,19.5z"/>
	<path id="XMLID_323_" class="st0" d="M109.6,33.9c0.8,2.3,1.3,4.1,1.6,5.5c0.6,2.7,2.7,3.1,4,1.9c2-1.9,1.8-4.2,1.2-6.2
		c-0.3-1.3,0.7-2.4,2-3.1c1-0.5,3.6-1.4,0.8-2.1c-1.5-0.4-3.4-0.7-5.1-0.8C111,29.1,108.3,30.1,109.6,33.9z"/>
	<path id="XMLID_322_" class="st0" d="M87,160.2c0,0-0.6,0.2,1.4,0.3c63,0.3,163.2,0,163.2,0c2,0,1.4-0.3,1.4-0.3
		c2.6-7.6,0-21.7,0-21.7s0.6-0.2-1.4-0.3c-97.9-0.6-164.3,0-164.3,0c-2,0-1.4,0.3-1.4,0.3S85.7,150.4,87,160.2z"/>
</g>
</svg>
