<?xml version="1.0" encoding="utf-8"?>
<!-- Generator: Adobe Illustrator 22.1.0, SVG Export Plug-In . SVG Version: 6.00 Build 0)  -->
<svg version="1.1" id="Layer_1" xmlns="http://www.w3.org/2000/svg" xmlns:xlink="http://www.w3.org/1999/xlink" x="0px" y="0px"
	 viewBox="0 0 361.2 222.1" style="enable-background:new 0 0 361.2 222.1;" xml:space="preserve">
<style type="text/css">
	.st0{opacity:0.1;}
	.st1{fill:#5B5B4B;stroke:#5B5B4B;stroke-linecap:round;stroke-miterlimit:10;}
	.st2{fill:none;stroke:#5B5B4B;stroke-linecap:round;stroke-miterlimit:10;}
	.st3{fill:#FDF5EA;stroke:#5B5B4B;stroke-linecap:round;stroke-miterlimit:10;}
</style>
<g class="st0">
	<g>
		<g id="XMLID_24873_">
			<path id="XMLID_24885_" class="st1" d="M233.8,48.3c0,0-1.6-26.7-19.6-18.7s-7.7,83.5,38.2,72.5s27.2-70.4,27.2-70.4
				s-19.1-16.9-22.5,12.5c0,0-0.9,19.7-9.9,21.3C238.3,66.9,232.9,53.2,233.8,48.3z"/>
			<g id="XMLID_24883_">
				<path id="XMLID_24884_" class="st1" d="M210.8,64.7c0,0-31.5,31.3-25.3-27c0,0-7.5-18.1-22.2-10.4s-16.7,100,53.9,74
					c0,0,19-7.3,24.1-11.1"/>
			</g>
			<line id="XMLID_24882_" class="st2" x1="178.6" y1="98.4" x2="181.6" y2="99.7"/>
			<path id="XMLID_24881_" class="st1" d="M247.4,78.4c0,0,1.1,2.4-0.7,3.5"/>
			<path id="XMLID_24880_" class="st1" d="M278.8,73.3c0,0-0.5,2.2-1.1,2.9"/>
			<path id="XMLID_24879_" class="st1" d="M261,43c0,0,0.9-4.1,0-4.1"/>
			<path id="XMLID_24878_" class="st1" d="M170.6,29.5c0,0,3.9,0.5,3.5,1.2"/>
			<path id="XMLID_24877_" class="st1" d="M195.6,78.8c0,0,4.5-0.6,4.8-1.5"/>
			<path id="XMLID_24876_" class="st1" d="M218.3,33.2c0,0-3,1.4-3.8,2.8"/>
			<line id="XMLID_24875_" class="st2" x1="247.2" y1="67.9" x2="250.3" y2="67"/>
			<line id="XMLID_24874_" class="st2" x1="254" y1="97.2" x2="257.1" y2="96.3"/>
		</g>
		<g id="XMLID_24859_">
			<path id="XMLID_24872_" class="st1" d="M133.4,37.5"/>
			<path id="XMLID_24869_" class="st1" d="M156.2,32.2c-36.4-26.6-64.7,7-64.7,7s-23.2,53.5,21.3,67.4
				C157.1,120.7,192.7,58.8,156.2,32.2z M136.5,69c-8.3,21.9-34.4-12.4-15.9-15C120.6,54.1,144.8,47.1,136.5,69z"/>
			<path id="XMLID_24868_" class="st1" d="M142,28.8"/>
			<line id="XMLID_24867_" class="st2" x1="100.7" y1="95.9" x2="103.6" y2="97.2"/>
			<path id="XMLID_24866_" class="st1" d="M145.3,98.5c0,0-0.5,2.6-2.6,2.4"/>
			<path id="XMLID_24865_" class="st1" d="M139.8,69.5c0,0-0.5,2.2-1.1,2.9"/>
			<path id="XMLID_24864_" class="st1" d="M166.4,67.6c0,0,0.9-4.1,0-4.1"/>
			<path id="XMLID_24863_" class="st1" d="M139.8,28.2c0,0,3.9,0.5,3.5,1.2"/>
			<path id="XMLID_24862_" class="st1" d="M115,76.1c0,0,3.8,2.6,4.5,2.1"/>
			<path id="XMLID_24861_" class="st1" d="M98.1,39.9c0,0-3,1.4-3.8,2.8"/>
			<line id="XMLID_24860_" class="st2" x1="115.6" y1="51.4" x2="118.8" y2="50.6"/>
		</g>
		<g id="XMLID_24848_">
			<path id="XMLID_24858_" class="st1" d="M48,29.7c0,0-3.8-18.4-21.8-11.8s-9,76.2-0.7,81.6C33.9,104.9,57.3,138,48,29.7z"/>
			<path id="XMLID_24857_" class="st1" d="M43.9,63.3c0,0,31.5-31.3,25.3,27c0,0,7.5,18.1,22.2,10.4c14.7-7.5,16.6-100.1-54-74"/>
			<line id="XMLID_24856_" class="st2" x1="33.9" y1="98.8" x2="36.9" y2="100.1"/>
			<path id="XMLID_24855_" class="st1" d="M87.8,90.7c0,0,1.1,2.4-0.7,3.5"/>
			<path id="XMLID_24854_" class="st1" d="M94.8,60.8c0,0-0.5,2.2-1.1,2.9"/>
			<path id="XMLID_24853_" class="st1" d="M44.6,79.6c0,0,0.9-4.1,0-4.1"/>
			<path id="XMLID_24852_" class="st1" d="M66.7,51.1c0,0,3.9,0.5,3.5,1.2"/>
			<path id="XMLID_24851_" class="st1" d="M29.2,70.7c0,0,4.5-0.6,4.8-1.5"/>
			<path id="XMLID_24850_" class="st1" d="M51.9,27.6c0,0-3,1.4-3.8,2.8"/>
			<line id="XMLID_24849_" class="st2" x1="24.9" y1="32.6" x2="28" y2="31.7"/>
		</g>
		<g id="XMLID_24837_">
			<path id="XMLID_24847_" class="st1" d="M67.6,92.2c0,0-3.8-18.4-21.8-11.8c-18.1,6.4-9,76.2-0.6,81.6
				C53.5,167.2,77,200.4,67.6,92.2z"/>
			<path id="XMLID_24846_" class="st1" d="M63.6,125.6c0,0,31.5-31.3,25.3,27c0,0,7.5,18.1,22.2,10.4c14.7-7.5,16.6-100.1-54-74"/>
			<line id="XMLID_24845_" class="st2" x1="54.6" y1="163.6" x2="57.6" y2="164.9"/>
			<path id="XMLID_24844_" class="st1" d="M108.6,155.7c0,0,1.1,2.4-0.7,3.5"/>
			<path id="XMLID_24843_" class="st1" d="M115.5,125.8c0,0-0.5,2.2-1.1,2.9"/>
			<path id="XMLID_24842_" class="st1" d="M65.4,144.5c0,0,0.9-4.1,0-4.1"/>
			<path id="XMLID_24841_" class="st1" d="M87.5,116c0,0,3.9,0.5,3.5,1.2"/>
			<path id="XMLID_24840_" class="st1" d="M50,135.5c0,0,4.5-0.6,4.8-1.5"/>
			<path id="XMLID_24839_" class="st1" d="M72.7,92.6c0,0-3,1.4-3.8,2.8"/>
			<line id="XMLID_24838_" class="st2" x1="45.7" y1="97.5" x2="48.8" y2="96.6"/>
		</g>
		<g>
			<g id="XMLID_24835_">
				<path id="XMLID_24836_" class="st1" d="M131.8,123.3c0,0,5-26.8-17.6-19.2s-8.8,66.3,3.2,63.8
					C129.4,165.3,134.9,155.9,131.8,123.3z"/>
			</g>
			<line id="XMLID_24834_" class="st2" x1="112.8" y1="160.6" x2="115.8" y2="161.9"/>
			<path id="XMLID_24833_" class="st1" d="M127.7,151.1c0,0,1.1,2.4-0.7,3.5"/>
			<path id="XMLID_24832_" class="st1" d="M109.4,116.6c0,0-0.5,2.2-1.1,2.9"/>
			<path id="XMLID_24831_" class="st1" d="M128.3,117.9c0,0,0.9-4.1,0-4.1"/>
			<path id="XMLID_24830_" class="st1" d="M118,106.2c0,0,3.9,0.5,3.5,1.2"/>
		</g>
		<g>
			<path id="XMLID_24829_" class="st1" d="M119.4,67.7c0,0,25.5,14.5,0.5,25.4S102.4,54.4,119.4,67.7z"/>
			<path id="XMLID_24828_" class="st1" d="M114.9,91.5c0,0,4.5-0.6,4.8-1.5"/>
			<path id="XMLID_24827_" class="st1" d="M112.5,69.5c0,0-3,1.4-3.8,2.8"/>
		</g>
		<g id="XMLID_24812_">
			<path id="XMLID_24826_" class="st1" d="M161.7,110"/>
			<path id="XMLID_24823_" class="st1" d="M181.9,105.4c-32.2-23.5-57.2,6.1-57.2,6.1s-20.5,47.2,18.8,59.6
				C182.7,183.5,214,128.9,181.9,105.4z M165.3,138.2c-8.1,21.2-33.3-12-15.4-14.5C149.9,123.8,173.4,117,165.3,138.2z"/>
			<path id="XMLID_24822_" class="st1" d="M169.3,102.4"/>
			<path id="XMLID_24821_" class="st1" d="M169.3,102.4c0,0,24.9-26.8,25.7,23.4s9.3,96-38.8,95.8c0,0-26.1-12.1-0.1-25.1
				c12.8-6.3,15.2-19.4,15-35.8"/>
			<line id="XMLID_24820_" class="st2" x1="153.7" y1="215.2" x2="156.7" y2="216.5"/>
			<path id="XMLID_24819_" class="st1" d="M179.6,210.1c0,0,1.1,2.4-0.7,3.5"/>
			<path id="XMLID_24818_" class="st1" d="M192.4,184.9c0,0-0.5,2.2-1.1,2.9"/>
			<path id="XMLID_24817_" class="st1" d="M189.9,152.8c0,0,0.9-4.1,0-4.1"/>
			<path id="XMLID_24816_" class="st1" d="M134.8,163.5c0,0,3.9,0.5,3.5,1.2"/>
			<path id="XMLID_24815_" class="st1" d="M181.7,122c0,0,4.5-0.6,4.8-1.5"/>
			<path id="XMLID_24814_" class="st1" d="M135,109.8c0,0-3,1.4-3.8,2.8"/>
			<line id="XMLID_24813_" class="st2" x1="167.5" y1="144.5" x2="164.7" y2="146.1"/>
		</g>
		<path id="XMLID_24811_" class="st1" d="M225.6,108.1c0,0-6.7-4.7-9.5-1c-2.9,3.7-7.8,9.9-1.9,22s27.9,2,30-3.7"/>
		<g>
			<path id="XMLID_24810_" class="st1" d="M251.5,117.7L251.5,117.7c-4.2-11.2-13.5-20-27.6-21.4c-28.1-2.7-39.7,15.5-44,26.6
				c0,0-1,1.7-1.7,4.9c-0.6,1.9-0.7,3.6-0.6,4.3c-0.4,6.1,0.6,15.1,6.4,27c4.6,9.7,16.4,13.2,24.2,14.3c2.2,0.5,4.6,0.7,7.1,0.7
				c0.1,0,0.2,0,0.2,0l0,0c2.7,0,5.6-0.4,8.7-1.1c12.3-2.8,20.8-10.8,25.5-20.5c-0.8-11.2-10.4-12.6-16.2-13.4
				c-3.1-0.5-6.4,1.4-8.8,3.5c-0.3,0.2-0.5,0.4-0.8,0.6c-8.3,6.1-30.1-5.8-18.6-14.9c0,0,3.9-4.1,8.5-6l0,0c0,0,3.8-1.9,6.9-0.8
				c1.2,0.4,2.3,1.3,3,3c0,0.1,0.1,0.2,0.1,0.3c0.3,0.8,0.8,1.6,1.3,2.5c3.8,6.1,12.2,14.2,20,8.5c9-6.5,8-9,8.3-11.5l0,0
				C253.8,121.9,251.5,117.7,251.5,117.7z"/>
			<line id="XMLID_24809_" class="st2" x1="188.6" y1="158.4" x2="190.5" y2="161"/>
			<path id="XMLID_24808_" class="st1" d="M242.1,155.4c0,0,1.1,2.4-0.7,3.5"/>
			<path id="XMLID_24807_" class="st1" d="M251.1,124.3c0,0-0.5,2.2-1.1,2.9"/>
			<path id="XMLID_24806_" class="st1" d="M200,128c0,0,0.9-4.1,0-4.1"/>
			<path id="XMLID_24805_" class="st1" d="M221,115.7c0,0,3.9,0.5,3.5,1.2"/>
			<path id="XMLID_24804_" class="st1" d="M217,170.1c0,0,4.5-0.6,4.8-1.5"/>
			<path id="XMLID_24803_" class="st1" d="M193.5,110c0,0-3,1.4-3.8,2.8"/>
			<line id="XMLID_24802_" class="st2" x1="238.2" y1="134.6" x2="241.3" y2="133.8"/>
		</g>
		<g>
			<path id="XMLID_24801_" class="st1" d="M268.4,86.1c0,0-3.9-21.4-21.8-13.8c-18,7.5-9,89-0.6,95.3
				C254.4,173.8,277.8,212.4,268.4,86.1z"/>
			<path id="XMLID_24800_" class="st1" d="M261.2,165.4c0,0,1.1,2.4-0.7,3.5"/>
			<path id="XMLID_24799_" class="st1" d="M266.9,126.7c0,0,0.3,2.2,0,3.2"/>
			<path id="XMLID_24798_" class="st1" d="M243.8,141.9c0,0,0.9-4.1,0-4.1"/>
			<path id="XMLID_24797_" class="st1" d="M248.8,76.7c0,0-3,1.4-3.8,2.8"/>
		</g>
		<g id="XMLID_24726_">
			<path id="XMLID_24796_" class="st1" d="M322.4,184.5c0.2-3.5-1-13.6-1.2-16.9c-0.2-3-0.6-5.6-1.3-7.7c11.5-19.9-20.6-42.6-32-17
				c-3.6,8-3,23.4-3,26c0.1,3.4,0.2,14.9,0.2,17.9c0.1,16.6,24.8,29.7,34.5,8.1"/>
			<g id="XMLID_24727_">
				<g id="XMLID_24792_">
					<path id="XMLID_24795_" class="st1" d="M263.9,101.9c0,0-18-23.7-18.3-5.2c-0.5,18.5,4.7,38.4,11.3,35.9s6.7-8,6.7-8"/>
					<path id="XMLID_24794_" class="st1" d="M258,103.2c0,0-7-10.8-8.7-5.7"/>
					<path id="XMLID_24793_" class="st1" d="M260.7,110.7c0,0-10.3-2.7-8.8,3.3s5.1,9.9,7,3.3"/>
				</g>
				<path id="XMLID_24791_" class="st1" d="M317.3,18.6c0,0-6.7,5.9,1.6,8.6C327.3,29.9,324.6,15.6,317.3,18.6z"/>
				<path id="XMLID_24790_" class="st1" d="M303.1,33.1c0,0,53.6,3.8,46.3,67c-7.3,63.2-5.3,74.8-35.5,81.3s-46.8-15.6-50.2-32.4
					C260.5,132.2,236,41.6,303.1,33.1z"/>
				<path id="XMLID_24789_" class="st1" d="M346.2,48.1c-0.2-2.1-1.1-4.8-3-8.1v-0.1l0,0c-0.4-0.7-0.8-1.4-1.3-2.2
					c-6-9.4-15.8-14.8-24.7-17.4C278.8,3.1,275,39.6,274.9,53.4c0,1.3,17.3-0.1,33.1-4.2c20,8,38.9,17,38.9,17
					S348.2,54.3,346.2,48.1z"/>
				<path id="XMLID_24788_" class="st1" d="M272.7,66.3c0,0,36.5-3.6,23.4,25.8C282.9,121.6,242.1,86.8,272.7,66.3z"/>
				<path id="XMLID_24787_" class="st1" d="M269.3,86.6c0,0,5.5-2.2,4.9,3.4C273.7,95.6,265.5,91.5,269.3,86.6z"/>
				<path id="XMLID_24786_" class="st1" d="M312.7,105.6c0,0,9.5,7.1,21.9,2.7"/>
				<path id="XMLID_24785_" class="st1" d="M309.3,110.4c0,0-9.7-12-9.3-18.7"/>
				<path id="XMLID_24784_" class="st1" d="M289.3,106c0,0-15.4,3.3-18.7,1.9"/>
				<g id="XMLID_24781_">
					<path id="XMLID_24783_" class="st1" d="M292.5,111.7c0.4,3.2,1.4,5.4,3.4,5.8c1.1,0.2,2.1,0.2,2.9,0c0.7-0.2,1.2-0.4,1.6-0.6"
						/>
					<path id="XMLID_24782_" class="st1" d="M302.8,73.5c0,0-7.3,19.7-9.3,33.6"/>
				</g>
				<path id="XMLID_24780_" class="st1" d="M313.3,70.3c0,0-26.7,23.7,6.7,34.3S342.5,58.2,313.3,70.3z"/>
				<path id="XMLID_24779_" class="st1" d="M331.9,89.7c0,0,5.5-2.2,4.9,3.4C336.3,98.7,328.3,94.6,331.9,89.7z"/>
				<path id="XMLID_24778_" class="st1" d="M286.4,176c0,0-6.4,5.9,6.8,8.5c13.2,2.6,21.8-1,19.2-5.9"/>
				<path id="XMLID_24777_" class="st1" d="M315.5,65.5c0,0-12.3,1.4-3.5,10.1s25.7,0.2,24.8-2.9C335.9,69.7,334.3,64.6,315.5,65.5z
					"/>
				<path id="XMLID_24776_" class="st1" d="M265.4,58.4c0,0,20.5-8.4,44.6-3.1s36.6,10.8,36.6,10.8c-7.8-26.5-54.4-26.6-78-25
					c-23.5,1.6-17.3,10.5-17.3,10.5S254.9,55.8,265.4,58.4z"/>
				<path id="XMLID_24775_" class="st1" d="M265.4,58.4c0,0-40.7-11.2,15.6-13.8S346.6,66,346.6,66S294.4,43.6,265.4,58.4z"/>
				<g id="XMLID_24769_">
					<path id="XMLID_24774_" class="st1" d="M289,113.3c0,0-7.1,8.3,4.3,10.6"/>
					<path id="XMLID_24773_" class="st1" d="M308.7,113.3c0,0,7.6,6.3-3.1,10.6"/>
					<path id="XMLID_24772_" class="st1" d="M305.2,120.3c-1.6,0.4-3.2-2.1-2.1-1.8c1.1,0.3,2.7-1.9,3.9,0"/>
					<path id="XMLID_24771_" class="st1" d="M293.5,119.5c0.9,0.5-1.3,1.8-1.3,1.8c-2.2-0.1-2.7-1.8-1.5-2.7"/>
					<path id="XMLID_24770_" class="st1" d="M299.9,109c0,0,2.2-0.1,2.8,0.7"/>
				</g>
				<path id="XMLID_24768_" class="st1" d="M284.8,118.4c0,0-6.2,3.1-8,3.8"/>
				<line id="XMLID_24767_" class="st2" x1="266.5" y1="121.1" x2="269.1" y2="122.3"/>
				<path id="XMLID_24766_" class="st1" d="M313.1,116.7c0,0,7.3,3.5,8,3.4"/>
				<path id="XMLID_24765_" class="st1" d="M343.9,85.6c0,0,1,2.1-0.6,3"/>
				<path id="XMLID_24764_" class="st1" d="M338.4,107.1c0,0-0.5,1.9-1,2.6"/>
				<path id="XMLID_24763_" class="st1" d="M338.9,69.8c0,0,0.8-3.6,0-3.6"/>
				<path id="XMLID_24762_" class="st1" d="M286.7,57.8c0,0,3.4,0.5,3,1"/>
				<path id="XMLID_24761_" class="st1" d="M307.4,64.1c0,0,3.9-0.6,4.2-1.3"/>
				<path id="XMLID_24760_" class="st1" d="M278,160.4c0,0,2.8,0.6,3,1.2"/>
				<path id="XMLID_24759_" class="st1" d="M324.2,161.5c0,0-2.6,1.2-3.4,2.5"/>
				<path id="XMLID_24758_" class="st1" d="M279.7,60.4c0,0-19-1.1-10.2,9.5s24.4-0.3,25.6-4.9C296.3,60.5,279.7,60.4,279.7,60.4z"
					/>
				<path id="XMLID_24757_" class="st1" d="M270.7,98.7"/>
				<path id="XMLID_24756_" class="st1" d="M289.3,100.9"/>
				<line id="XMLID_24755_" class="st2" x1="331.1" y1="121.6" x2="333.8" y2="120.9"/>
				<path id="XMLID_24754_" class="st1" d="M341.9,108.5c0,0,19.7-22.2,18.7-3.6s-7.7,37.9-14.1,34.8s-6-8.5-6-8.5"/>
				<path id="XMLID_24753_" class="st1" d="M347.7,110.2c0,0,7.9-10.2,9.2-5"/>
				<path id="XMLID_24752_" class="st1" d="M344.4,117.5c0,0,10.4-1.8,8.5,4s-6,9.4-7.2,2.7"/>
				<g id="XMLID_24747_">
					<path id="XMLID_24751_" class="st1" d="M270.8,97.7c0,0-5.3,0.7-3,3.2s3.5-0.6,7.4,1.4"/>
					<path id="XMLID_24750_" class="st1" d="M336.3,99.9c0,0,5.3,0.7,3,3.2s-3.5-0.6-7.4,1.4"/>
					<path id="XMLID_24749_" class="st1" d="M330.5,99.4c0,0-12.3-0.8-19.5,1.2"/>
					<path id="XMLID_24748_" class="st1" d="M276.8,96.5c0,0,7.2-1.4,15.2,1.1"/>
				</g>
				<g id="XMLID_24735_">
					<path id="XMLID_24746_" class="st1" d="M292.3,134.9c0,0,36.5-3.6,23.4,25.8C302.5,190.3,261.6,155.5,292.3,134.9z"/>
					<path id="XMLID_24745_" class="st1" d="M293.6,164.4c-3.6-1.6-7.7,9.5-11.5-0.8s19.4-0.9,19.4-0.9s7.3,2.4,10,3.7"/>
					<path id="XMLID_24744_" class="st1" d="M312,166.7c1.3-1.6,2.6-3.5,3.6-5.8c13.1-29.4-23.4-25.8-23.4-25.8
						c-11.4,7.6-12.9,17.1-9.6,24.7c3.9-2.9,18.8,3.2,18.8,3.2s7.3,2.4,10,3.7"/>
					<g id="XMLID_24737_">
						<path id="XMLID_24743_" class="st1" d="M283.8,142c0,0,5.5-2.2,4.9,3.4C288.1,151.1,280.1,146.9,283.8,142z"/>
						<path id="XMLID_24742_" class="st1" d="M289.7,142c0,0,5.5-2.2,4.9,3.4C294,151,286,146.9,289.7,142z"/>
						<path id="XMLID_24741_" class="st1" d="M295.7,142c0,0,5.5-2.2,4.9,3.4C300,151,291.9,146.9,295.7,142z"/>
						<path id="XMLID_24740_" class="st1" d="M301.6,142c0,0,5.5-2.2,4.9,3.4C305.8,151.1,297.8,146.9,301.6,142z"/>
						<path id="XMLID_24739_" class="st1" d="M307.5,142c0,0,5.5-2.2,4.9,3.4C311.8,151,303.7,146.9,307.5,142z"/>
						<path id="XMLID_24738_" class="st1" d="M313.4,142c0,0,5.5-2.2,4.9,3.4C317.6,151,309.6,146.9,313.4,142z"/>
					</g>
					<path id="XMLID_24736_" class="st1" d="M289.9,142.2c0,0,5.1-2,4.9,2.9l0,0c-0.1-0.9,0.2-1.8,1-2.9c0,0,5.1-2,4.9,2.9l0,0
						c-0.1-0.9,0.2-1.8,1-2.9c0,0,5.1-2,4.9,2.9l0,0c-0.1-0.9,0.2-1.8,1-2.9c0,0,5.1-2,4.9,2.9l0,0c-0.1-0.9,0.2-1.8,1-2.9
						c0,0,1.3-0.5,2.5-0.4c-6.6-8.3-23.6-6.6-23.6-6.6c-3.2,2.1-5.6,4.4-7.3,6.7c1.5-0.3,3.9-0.2,3.7,3.2l0,0
						C288.8,144.2,289.1,143.2,289.9,142.2z"/>
				</g>
				<g id="XMLID_24730_">
					<path id="XMLID_24734_" class="st1" d="M286.9,138.4c0,0-19.6,2.7-8.7,9.7C289.2,155.2,286.9,138.4,286.9,138.4z"/>
					<path id="XMLID_24733_" class="st1" d="M284,132.6c0,0-16.2-0.9-8.7,7.5s20.8-0.3,21.9-3.9C298.2,132.8,284,132.6,284,132.6z"
						/>
					<path id="XMLID_24732_" class="st1" d="M316.4,136.7c0,0-7.9-2.6-6.5,7.4c1.3,10,15,8.3,15.8,5.4
						C326.5,146.6,327.8,141.8,316.4,136.7z"/>
					<path id="XMLID_24731_" class="st1" d="M309.6,134.2c0,0-23-2.8-0.3,8.2C331.9,153.3,335.8,137.5,309.6,134.2z"/>
				</g>
				<path id="XMLID_24729_" class="st1" d="M328.5,25.3c0,0,1.8,1.4,0.8,3"/>
				<line id="XMLID_24728_" class="st2" x1="280.5" y1="40.4" x2="281.6" y2="37.8"/>
			</g>
		</g>
		<path id="XMLID_24723_" class="st1" d="M235.2,188.1c-0.9-6.8-2.5-9.4-4.5-10.6c0,0-10.7-4-13.7,6.2s6.1,12.2,7.3,12.1
			C225.5,195.8,236.1,194.9,235.2,188.1z M228.3,187.5c-0.3,0.6-0.9,1.1-2.7,1.4c-1.8,0.3-2.3-2.4-2.3-2.7s0.3-2.8,3.1-2.2
			C229.1,184.5,228.3,187.5,228.3,187.5z"/>
		<g>
			<g id="XMLID_24719_">
				<path id="XMLID_24722_" class="st1" d="M248.7,191.2"/>
				<path id="XMLID_24721_" class="st1" d="M255,190.8c0-2.7-0.2-6.4,0.8-7.2c1.4-1.1,5.8-0.6,5.2,2.2c-0.4,1.6-0.4,3.5-0.4,4.7
					c0,0.9,0,1.6,0,1.9c0,0.7,0.3,2.2,2.8,2.5c3.2,0.4,3.7-0.7,3.7-3s2.6-13.3-6.7-15.2c-6.6-1.4-10,2.4-11.5,5.4"/>
				<path id="XMLID_24720_" class="st1" d="M255.3,183.2"/>
			</g>
			<g id="XMLID_24715_">
				<path id="XMLID_24718_" class="st1" d="M236.7,191.3c0.4,1.9,6.3,0.5,6.3-0.4c0-2.7-0.2-6.4,0.8-7.2c1.1-0.9,4.3-0.8,5.1,0.8
					c0.2,0.4,0.2,0.8,0.1,1.3c-0.4,1.6-0.4,3.5-0.4,4.7c0,0.9,0,1.6,0,1.9c0,0.7,0.3,2.2,2.8,2.5c3.2,0.4,3.7-0.7,3.7-3
					s2.6-13.3-6.7-15.2c-9.4-1.9-12.4,6.5-12.4,8.5C236,186.4,236.3,189,236.7,191.3"/>
				<path id="XMLID_24717_" class="st1" d="M243.3,183.2"/>
				<path id="XMLID_24716_" class="st1" d="M243.3,183.2c0.2,3.8,0,8.1-0.5,9.8c0,0-1.8,3.2-4.5,1.7s-2.9-16.8-1.3-17.5
					c1.7-0.7,5-2.2,5.8,1.3"/>
			</g>
		</g>
		<path id="XMLID_24714_" class="st1" d="M212.8,187.3c-0.5,0.2-0.9,0.7-1.3,1.3c-0.1,0.2-0.2,0.3-0.3,0.5c-0.1,0.1-0.4,0.4-0.5,0.5
			c-1.4,0.6-4.1,1.4-5.2-1.4c-0.1-0.2-0.2-1-0.2-1.2c0-0.4,0-0.8,0.1-1.1c0.3-3,1.3-4.3,2.2-4.4c1.1-0.1,3.3,0.6,3.9,2.1
			c0,0,0.6,2.7,2.1,2.3s4.3-1.9,2.1-4.8c-2.2-2.9-4.4-5.9-10.6-3.8c-6.2,2.1-5,10-4.8,10.5s3.4,11.5,11.8,6.6
			C220.4,189.4,213.7,187,212.8,187.3z"/>
		<path id="XMLID_24713_" class="st1" d="M229,185.1"/>
		<path id="XMLID_24712_" class="st1" d="M195,193.6c-0.3,0.6-0.9,1.1-2.7,1.4c-1.8,0.3-2.3-2.4-2.3-2.7s0.3-2.8,3.1-2.2
			C195.8,190.7,195,193.6,195,193.6z"/>
	</g>
</g>
<g>
	<g>
		<g id="XMLID_162_">
			<path id="XMLID_174_" class="st1" d="M226.3,40.7c0,0-1.6-26.7-19.6-18.7s-7.7,83.5,38.2,72.5s27.2-70.4,27.2-70.4
				S253,7.2,249.6,36.6c0,0-0.9,19.7-9.9,21.3C230.8,59.4,225.4,45.6,226.3,40.7z"/>
			<g id="XMLID_172_">
				<path id="XMLID_173_" class="st1" d="M203.3,57.1c0,0-31.5,31.3-25.3-27c0,0-7.5-18.1-22.2-10.4c-14.7,7.6-16.6,100.1,54,74
					c0,0,19-7.3,24.1-11.1"/>
			</g>
			<line id="XMLID_171_" class="st2" x1="171" y1="90.7" x2="174" y2="92"/>
			<path id="XMLID_170_" class="st1" d="M239.9,70.8c0,0,1.1,2.4-0.7,3.5"/>
			<path id="XMLID_169_" class="st1" d="M271.3,65.8c0,0-0.5,2.2-1.1,2.9"/>
			<path id="XMLID_168_" class="st1" d="M253.5,35.4c0,0,0.9-4.1,0-4.1"/>
			<path id="XMLID_167_" class="st1" d="M163.1,21.9c0,0,3.9,0.5,3.5,1.2"/>
			<path id="XMLID_166_" class="st1" d="M188.1,71.2c0,0,4.5-0.6,4.8-1.5"/>
			<path id="XMLID_165_" class="st1" d="M210.8,25.6c0,0-3,1.4-3.8,2.8"/>
			<line id="XMLID_164_" class="st2" x1="239.7" y1="60.2" x2="242.8" y2="59.4"/>
			<line id="XMLID_163_" class="st2" x1="246.4" y1="89.6" x2="249.5" y2="88.7"/>
		</g>
		<g id="XMLID_148_">
			<path id="XMLID_161_" class="st1" d="M125.9,29.9"/>
			<path id="XMLID_158_" class="st1" d="M148.7,24.6C112.3-2,84,31.6,84,31.6S60.8,85.1,105.3,99C149.6,113.1,185.1,51.2,148.7,24.6
				z M129,61.4c-8.3,21.9-34.4-12.4-15.9-15C113,46.5,137.3,39.4,129,61.4z"/>
			<path id="XMLID_157_" class="st1" d="M134.5,21.2"/>
			<line id="XMLID_156_" class="st2" x1="93.1" y1="88.2" x2="96" y2="89.5"/>
			<path id="XMLID_155_" class="st1" d="M137.7,90.8c0,0-0.5,2.6-2.6,2.4"/>
			<path id="XMLID_154_" class="st1" d="M132.3,61.8c0,0-0.5,2.2-1.1,2.9"/>
			<path id="XMLID_153_" class="st1" d="M159,60.1c0,0,0.9-4.1,0-4.1"/>
			<path id="XMLID_152_" class="st1" d="M132.3,20.6c0,0,3.9,0.5,3.5,1.2"/>
			<path id="XMLID_151_" class="st1" d="M107.5,68.5c0,0,3.8,2.6,4.5,2.1"/>
			<path id="XMLID_150_" class="st1" d="M90.6,32.3c0,0-3,1.4-3.8,2.8"/>
			<line id="XMLID_149_" class="st2" x1="108.1" y1="43.8" x2="111.3" y2="43"/>
		</g>
		<g id="XMLID_137_">
			<path id="XMLID_147_" class="st1" d="M40.5,22.2c0,0-3.8-18.4-21.8-11.8s-9,76.2-0.6,81.6C26.4,97.3,49.7,130.3,40.5,22.2z"/>
			<path id="XMLID_146_" class="st1" d="M36.4,55.7c0,0,31.5-31.3,25.3,27c0,0,7.5,18.1,22.2,10.4c14.7-7.5,16.6-100.1-54-74"/>
			<line id="XMLID_145_" class="st2" x1="26.3" y1="91.1" x2="29.4" y2="92.4"/>
			<path id="XMLID_144_" class="st1" d="M80.3,83.2c0,0,1.1,2.4-0.7,3.5"/>
			<path id="XMLID_143_" class="st1" d="M87.2,53.2c0,0-0.5,2.2-1.1,2.9"/>
			<path id="XMLID_142_" class="st1" d="M37.1,72c0,0,0.9-4.1,0-4.1"/>
			<path id="XMLID_141_" class="st1" d="M59.2,43.5c0,0,3.9,0.5,3.5,1.2"/>
			<path id="XMLID_140_" class="st1" d="M21.7,63.1c0,0,4.5-0.6,4.8-1.5"/>
			<path id="XMLID_139_" class="st1" d="M44.4,20.1c0,0-3,1.4-3.8,2.8"/>
			<line id="XMLID_138_" class="st2" x1="17.4" y1="25" x2="20.5" y2="24.1"/>
		</g>
		<g id="XMLID_126_">
			<path id="XMLID_136_" class="st1" d="M60.1,84.6c0,0-3.8-18.4-21.8-11.8c-18.1,6.4-9,76.2-0.6,81.6
				C46.1,159.8,69.5,192.8,60.1,84.6z"/>
			<path id="XMLID_135_" class="st1" d="M56.1,118c0,0,31.5-31.3,25.3,27c0,0,7.5,18.1,22.2,10.4c14.7-7.6,16.6-100-54-74"/>
			<line id="XMLID_134_" class="st2" x1="47.1" y1="156" x2="50.1" y2="157.3"/>
			<path id="XMLID_133_" class="st1" d="M101.1,148.1c0,0,1.1,2.4-0.7,3.5"/>
			<path id="XMLID_132_" class="st1" d="M108,118.2c0,0-0.5,2.2-1.1,2.9"/>
			<path id="XMLID_131_" class="st1" d="M57.9,136.8c0,0,0.9-4.1,0-4.1"/>
			<path id="XMLID_130_" class="st1" d="M80,108.5c0,0,3.9,0.5,3.5,1.2"/>
			<path id="XMLID_129_" class="st1" d="M42.4,128c0,0,4.5-0.6,4.8-1.5"/>
			<path id="XMLID_128_" class="st1" d="M65.1,85c0,0-3,1.4-3.8,2.8"/>
			<line id="XMLID_127_" class="st2" x1="38.1" y1="89.9" x2="41.2" y2="89.1"/>
		</g>
		<g>
			<g id="XMLID_124_">
				<path id="XMLID_125_" class="st1" d="M124.3,115.6c0,0,5-26.8-17.6-19.2c-22.6,7.7-8.8,66.3,3.2,63.8
					C121.9,157.8,127.4,148.3,124.3,115.6z"/>
			</g>
			<line id="XMLID_123_" class="st2" x1="105.3" y1="153" x2="108.3" y2="154.3"/>
			<path id="XMLID_122_" class="st1" d="M120.2,143.6c0,0,1.1,2.4-0.7,3.5"/>
			<path id="XMLID_121_" class="st1" d="M101.9,108.9c0,0-0.5,2.2-1.1,2.9"/>
			<path id="XMLID_120_" class="st1" d="M120.8,110.4c0,0,0.9-4.1,0-4.1"/>
			<path id="XMLID_119_" class="st1" d="M110.5,98.6c0,0,3.9,0.5,3.5,1.2"/>
		</g>
		<g>
			<path id="XMLID_118_" class="st1" d="M111.9,60.1c0,0,25.5,14.5,0.5,25.4S94.8,46.8,111.9,60.1z"/>
			<path id="XMLID_117_" class="st1" d="M107.4,83.9c0,0,4.5-0.6,4.8-1.5"/>
			<path id="XMLID_116_" class="st1" d="M105,61.9c0,0-3,1.4-3.8,2.8"/>
		</g>
		<g id="XMLID_101_">
			<path id="XMLID_115_" class="st1" d="M154.2,102.5"/>
			<path id="XMLID_112_" class="st1" d="M174.4,97.8c-32.2-23.5-57.2,6.2-57.2,6.2s-20.5,47.2,18.8,59.6
				C175.2,175.9,206.5,121.3,174.4,97.8z M157.8,130.7c-8.1,21.2-33.3-12-15.4-14.5C142.4,116.2,165.9,109.4,157.8,130.7z"/>
			<path id="XMLID_111_" class="st1" d="M161.8,94.8"/>
			<path id="XMLID_110_" class="st1" d="M161.8,94.8c0,0,24.9-26.8,25.7,23.4s9.3,96-38.8,95.8c0,0-26.1-12.1-0.1-25.1
				c12.8-6.3,15.2-19.4,15-35.8"/>
			<line id="XMLID_109_" class="st2" x1="146.3" y1="207.6" x2="149.2" y2="208.8"/>
			<path id="XMLID_108_" class="st1" d="M172,202.4c0,0,1.1,2.4-0.7,3.5"/>
			<path id="XMLID_107_" class="st1" d="M184.9,177.3c0,0-0.5,2.2-1.1,2.9"/>
			<path id="XMLID_106_" class="st1" d="M182.4,145.2c0,0,0.9-4.1,0-4.1"/>
			<path id="XMLID_105_" class="st1" d="M127.3,155.9c0,0,3.9,0.5,3.5,1.2"/>
			<path id="XMLID_104_" class="st1" d="M174.2,114.4c0,0,4.5-0.6,4.8-1.5"/>
			<path id="XMLID_103_" class="st1" d="M127.5,102.2c0,0-3,1.4-3.8,2.8"/>
			<line id="XMLID_102_" class="st2" x1="160" y1="136.9" x2="157.2" y2="138.6"/>
		</g>
		<path id="XMLID_100_" class="st1" d="M218.1,100.4c0,0-6.7-4.7-9.5-1c-2.9,3.7-7.8,9.9-1.9,22c5.8,12.1,27.9,2,30-3.7"/>
		<g>
			<path id="XMLID_99_" class="st1" d="M244,110.1L244,110.1c-4.2-11.2-13.5-20-27.6-21.4c-28.1-2.7-39.7,15.5-44,26.6
				c0,0-1,1.7-1.7,4.9c-0.6,1.9-0.7,3.6-0.6,4.3c-0.4,6.1,0.6,15.1,6.4,27c4.6,9.7,16.4,13.2,24.2,14.3c2.2,0.5,4.6,0.7,7.1,0.7
				c0.1,0,0.2,0,0.2,0l0,0c2.7,0,5.6-0.4,8.7-1.1c12.3-2.8,20.8-10.8,25.5-20.5c-0.8-11.2-10.4-12.6-16.2-13.4
				c-3.1-0.5-6.4,1.4-8.8,3.5c-0.3,0.2-0.5,0.4-0.8,0.6c-8.3,6.1-30.1-5.8-18.6-14.9c0,0,3.9-4.1,8.5-6l0,0c0,0,3.8-1.9,6.9-0.8
				c1.2,0.4,2.3,1.3,3,3c0,0.1,0.1,0.2,0.1,0.3c0.3,0.8,0.8,1.6,1.3,2.5c3.8,6.1,12.2,14.2,20,8.5c9-6.5,8-9,8.3-11.5l0,0
				C246.3,114.2,244,110.1,244,110.1z"/>
			<line id="XMLID_98_" class="st2" x1="181.1" y1="150.8" x2="183" y2="153.4"/>
			<path id="XMLID_97_" class="st1" d="M234.6,147.9c0,0,1.1,2.4-0.7,3.5"/>
			<path id="XMLID_96_" class="st1" d="M243.6,116.7c0,0-0.5,2.2-1.1,2.9"/>
			<path id="XMLID_95_" class="st1" d="M192.5,120.5c0,0,0.9-4.1,0-4.1"/>
			<path id="XMLID_94_" class="st1" d="M213.5,108.1c0,0,3.9,0.5,3.5,1.2"/>
			<path id="XMLID_93_" class="st1" d="M209.4,162.5c0,0,4.5-0.6,4.8-1.5"/>
			<path id="XMLID_92_" class="st1" d="M186,102.4c0,0-3,1.4-3.8,2.8"/>
			<line id="XMLID_91_" class="st2" x1="230.6" y1="127.1" x2="233.7" y2="126.3"/>
		</g>
		<g>
			<path id="XMLID_90_" class="st1" d="M260.9,78.5c0,0-3.9-21.4-21.8-13.8c-18.1,7.5-9,89-0.6,95.3
				C246.8,166.2,270.2,204.9,260.9,78.5z"/>
			<path id="XMLID_89_" class="st1" d="M253.7,157.7c0,0,1.1,2.4-0.7,3.5"/>
			<path id="XMLID_88_" class="st1" d="M259.4,119.1c0,0,0.3,2.2,0,3.2"/>
			<path id="XMLID_87_" class="st1" d="M236.3,134.4c0,0,0.9-4.1,0-4.1"/>
			<path id="XMLID_86_" class="st1" d="M241.3,69.1c0,0-3,1.4-3.8,2.8"/>
		</g>
		<g id="XMLID_15_">
			<path id="XMLID_85_" class="st1" d="M314.9,176.9c0.2-3.5-1-13.6-1.2-16.9c-0.2-3-0.6-5.6-1.3-7.7c11.5-19.9-20.6-42.6-32-17
				c-3.6,8-3,23.4-3,26c0.1,3.4,0.2,14.9,0.2,17.9c0.1,16.6,24.8,29.7,34.5,8.1"/>
			<g id="XMLID_16_">
				<g id="XMLID_81_">
					<path id="XMLID_84_" class="st1" d="M256.4,94.3c0,0-18-23.7-18.3-5.2c-0.5,18.5,4.7,38.4,11.3,35.9s6.7-8,6.7-8"/>
					<path id="XMLID_83_" class="st1" d="M250.5,95.6c0,0-7-10.8-8.7-5.7"/>
					<path id="XMLID_82_" class="st1" d="M253.2,103.1c0,0-10.3-2.7-8.8,3.3s5.1,9.9,7,3.3"/>
				</g>
				<path id="XMLID_80_" class="st1" d="M309.7,11.1c0,0-6.7,5.9,1.6,8.6C319.8,22.3,317,8,309.7,11.1z"/>
				<path id="XMLID_79_" class="st1" d="M295.6,25.5c0,0,53.6,3.8,46.3,67c-7.3,63.2-5.3,74.8-35.5,81.3s-46.8-15.6-50.2-32.4
					C252.8,124.6,228.5,34,295.6,25.5z"/>
				<path id="XMLID_78_" class="st1" d="M338.7,40.5c-0.2-2.1-1.1-4.8-3-8.1v-0.1l0,0c-0.4-0.7-0.8-1.4-1.3-2.2
					c-6-9.4-15.8-14.8-24.7-17.4C271.2-4.5,267.4,32,267.3,45.8c0,1.3,17.3-0.1,33.1-4.2c20,8,38.9,17,38.9,17
					S340.6,46.7,338.7,40.5z"/>
				<path id="XMLID_77_" class="st1" d="M265.2,58.7c0,0,36.5-3.6,23.4,25.8C275.4,114.1,234.6,79.3,265.2,58.7z"/>
				<path id="XMLID_76_" class="st1" d="M261.8,79c0,0,5.5-2.2,4.9,3.4S258.1,83.9,261.8,79z"/>
				<path id="XMLID_75_" class="st1" d="M305.2,98c0,0,9.5,7.1,21.9,2.7"/>
				<path id="XMLID_74_" class="st1" d="M301.8,102.8c0,0-9.7-12-9.3-18.7"/>
				<path id="XMLID_73_" class="st1" d="M281.8,98.4c0,0-15.4,3.3-18.7,1.9"/>
				<g id="XMLID_70_">
					<path id="XMLID_72_" class="st1" d="M285,104.1c0.4,3.2,1.4,5.4,3.4,5.8c1.1,0.2,2.1,0.2,2.9,0c0.7-0.2,1.2-0.4,1.6-0.6"/>
					<path id="XMLID_71_" class="st1" d="M295.3,65.9c0,0-7.3,19.7-9.3,33.6"/>
				</g>
				<path id="XMLID_69_" class="st1" d="M305.8,62.7c0,0-26.7,23.7,6.7,34.3S334.9,50.6,305.8,62.7z"/>
				<path id="XMLID_68_" class="st1" d="M324.4,82.1c0,0,5.5-2.2,4.9,3.4C328.7,91.2,320.7,87,324.4,82.1z"/>
				<path id="XMLID_67_" class="st1" d="M278.9,168.3c0,0-6.4,5.9,6.8,8.5c13.2,2.6,21.8-1,19.2-5.9"/>
				<path id="XMLID_66_" class="st1" d="M308,58c0,0-12.3,1.4-3.5,10.1s25.7,0.2,24.8-2.9C328.4,62.1,326.8,57,308,58z"/>
				<path id="XMLID_65_" class="st1" d="M257.8,50.7c0,0,20.5-8.4,44.6-3.1S339,58.4,339,58.4c-7.8-26.5-54.4-26.6-78-25
					c-23.5,1.6-17.3,10.5-17.3,10.5S247.3,48.2,257.8,50.7z"/>
				<path id="XMLID_64_" class="st1" d="M257.8,50.7c0,0-40.7-11.2,15.6-13.8S339,58.3,339,58.3S286.9,36,257.8,50.7z"/>
				<g id="XMLID_58_">
					<path id="XMLID_63_" class="st1" d="M281.6,105.7c0,0-7.1,8.3,4.3,10.6"/>
					<path id="XMLID_62_" class="st1" d="M301.2,105.7c0,0,7.6,6.3-3.1,10.6"/>
					<path id="XMLID_61_" class="st1" d="M297.7,112.7c-1.6,0.4-3.2-2.1-2.1-1.8c1.1,0.3,2.7-1.9,3.9,0"/>
					<path id="XMLID_60_" class="st1" d="M286,111.9c0.9,0.5-1.3,1.8-1.3,1.8c-2.2-0.1-2.7-1.8-1.5-2.7"/>
					<path id="XMLID_59_" class="st1" d="M292.4,101.4c0,0,2.2-0.1,2.8,0.7"/>
				</g>
				<path id="XMLID_57_" class="st1" d="M277.4,110.8c0,0-6.2,3.1-8,3.8"/>
				<line id="XMLID_56_" class="st2" x1="259.1" y1="113.5" x2="261.6" y2="114.6"/>
				<path id="XMLID_55_" class="st1" d="M305.6,109.1c0,0,7.3,3.5,8,3.4"/>
				<path id="XMLID_54_" class="st1" d="M336.5,78c0,0,1,2.1-0.6,3"/>
				<path id="XMLID_53_" class="st1" d="M330.9,99.5c0,0-0.5,1.9-1,2.6"/>
				<path id="XMLID_52_" class="st1" d="M331.4,62.2c0,0,0.8-3.6,0-3.6"/>
				<path id="XMLID_51_" class="st1" d="M279.1,50.2c0,0,3.4,0.5,3,1"/>
				<path id="XMLID_50_" class="st1" d="M299.9,56.5c0,0,3.9-0.6,4.2-1.3"/>
				<path id="XMLID_49_" class="st1" d="M270.5,152.9c0,0,2.8,0.6,3,1.2"/>
				<path id="XMLID_48_" class="st1" d="M316.7,153.9c0,0-2.6,1.2-3.4,2.5"/>
				<path id="XMLID_47_" class="st1" d="M272.1,52.8c0,0-19-1.1-10.2,9.5s24.4-0.3,25.6-4.9C288.8,53,272.1,52.8,272.1,52.8z"/>
				<path id="XMLID_46_" class="st1" d="M263.1,91.1"/>
				<path id="XMLID_45_" class="st1" d="M281.8,93.2"/>
				<line id="XMLID_44_" class="st2" x1="323.6" y1="114" x2="326.3" y2="113.2"/>
				<path id="XMLID_43_" class="st1" d="M334.4,100.9c0,0,19.7-22.2,18.7-3.6s-7.7,37.9-14.1,34.8c-6.4-3.1-6-8.5-6-8.5"/>
				<path id="XMLID_42_" class="st1" d="M340.2,102.6c0,0,7.9-10.2,9.2-5"/>
				<path id="XMLID_41_" class="st1" d="M336.9,109.9c0,0,10.4-1.8,8.5,4s-6,9.4-7.2,2.7"/>
				<g id="XMLID_36_">
					<path id="XMLID_40_" class="st1" d="M263.2,90.1c0,0-5.3,0.7-3,3.2s3.5-0.6,7.4,1.4"/>
					<path id="XMLID_39_" class="st1" d="M328.8,92.2c0,0,5.3,0.7,3,3.2s-3.5-0.6-7.4,1.4"/>
					<path id="XMLID_38_" class="st1" d="M322.9,91.8c0,0-12.3-0.8-19.5,1.2"/>
					<path id="XMLID_37_" class="st1" d="M269.2,89c0,0,7.2-1.4,15.2,1.1"/>
				</g>
				<g id="XMLID_24_">
					<path id="XMLID_35_" class="st1" d="M284.7,127.3c0,0,36.5-3.6,23.4,25.8S254.1,147.9,284.7,127.3z"/>
					<path id="XMLID_34_" class="st1" d="M286.1,156.8c-3.6-1.6-7.7,9.5-11.5-0.8s19.4-0.9,19.4-0.9s7.3,2.4,10,3.7"/>
					<path id="XMLID_33_" class="st1" d="M304.5,159.1c1.3-1.6,2.6-3.5,3.6-5.8c13.1-29.4-23.4-25.8-23.4-25.8
						c-11.4,7.6-12.9,17.1-9.6,24.7c3.9-2.9,18.8,3.2,18.8,3.2s7.3,2.4,10,3.7"/>
					<g id="XMLID_26_">
						<path id="XMLID_32_" class="st1" d="M276.3,134.4c0,0,5.5-2.2,4.9,3.4C280.6,143.4,272.6,139.3,276.3,134.4z"/>
						<path id="XMLID_31_" class="st1" d="M282.2,134.4c0,0,5.5-2.2,4.9,3.4C286.5,143.4,278.5,139.2,282.2,134.4z"/>
						<path id="XMLID_30_" class="st1" d="M288.2,134.4c0,0,5.5-2.2,4.9,3.4C292.4,143.5,284.4,139.2,288.2,134.4z"/>
						<path id="XMLID_29_" class="st1" d="M294.1,134.4c0,0,5.5-2.2,4.9,3.4C298.4,143.4,290.3,139.2,294.1,134.4z"/>
						<path id="XMLID_28_" class="st1" d="M300,134.4c0,0,5.5-2.2,4.9,3.4C304.2,143.5,296.2,139.2,300,134.4z"/>
						<path id="XMLID_27_" class="st1" d="M305.9,134.4c0,0,5.5-2.2,4.9,3.4C310.2,143.4,302.1,139.2,305.9,134.4z"/>
					</g>
					<path id="XMLID_25_" class="st1" d="M282.4,134.6c0,0,5.1-2,4.9,2.9l0,0c-0.1-0.9,0.2-1.8,1-2.9c0,0,5.1-2,4.9,2.9l0,0
						c-0.1-0.9,0.2-1.8,1-2.9c0,0,5.1-2,4.9,2.9l0,0c-0.1-0.9,0.2-1.8,1-2.9c0,0,5.1-2,4.9,2.9l0,0c-0.1-0.9,0.2-1.8,1-2.9
						c0,0,1.3-0.5,2.5-0.4c-6.6-8.3-23.6-6.6-23.6-6.6c-3.2,2.1-5.6,4.4-7.3,6.7c1.5-0.3,3.9-0.2,3.7,3.2l0,0
						C281.3,136.5,281.6,135.6,282.4,134.6z"/>
				</g>
				<g id="XMLID_19_">
					<path id="XMLID_23_" class="st1" d="M279.5,130.8c0,0-19.6,2.7-8.7,9.7S279.5,130.8,279.5,130.8z"/>
					<path id="XMLID_22_" class="st1" d="M276.4,125c0,0-16.2-0.9-8.7,7.5s20.8-0.3,21.9-3.9C290.6,125.2,276.4,125,276.4,125z"/>
					<path id="XMLID_21_" class="st1" d="M308.8,129.2c0,0-7.9-2.6-6.5,7.4c1.3,10,15,8.3,15.8,5.4C319,139,320.3,134.2,308.8,129.2
						z"/>
					<path id="XMLID_20_" class="st1" d="M302,126.5c0,0-23-2.8-0.3,8.2S328.3,129.9,302,126.5z"/>
				</g>
				<path id="XMLID_18_" class="st1" d="M321,17.7c0,0,1.8,1.4,0.8,3"/>
				<line id="XMLID_17_" class="st2" x1="273" y1="32.9" x2="274.1" y2="30.3"/>
			</g>
		</g>
		<path id="XMLID_12_" class="st1" d="M231.5,184.3c-0.9-6.8-2.5-9.4-4.5-10.6c0,0-10.7-4-13.7,6.2s6.1,12.2,7.3,12.1
			C221.9,192,232.4,191.1,231.5,184.3z M224.6,183.7c-0.3,0.6-0.9,1.1-2.7,1.4c-1.8,0.4-2.3-2.4-2.3-2.7s0.3-2.8,3.1-2.2
			C225.4,180.7,224.6,183.7,224.6,183.7z"/>
		<g>
			<g id="XMLID_8_">
				<path id="XMLID_11_" class="st1" d="M245,187.4"/>
				<path id="XMLID_10_" class="st1" d="M251.3,187c0-2.7-0.2-6.4,0.8-7.2c1.4-1.1,5.8-0.6,5.2,2.2c-0.4,1.6-0.4,3.5-0.4,4.7
					c0,0.9,0,1.6,0,1.9c0,0.7,0.3,2.2,2.8,2.5c3.2,0.4,3.7-0.7,3.7-3s2.6-13.3-6.7-15.2c-6.6-1.4-10,2.4-11.5,5.4"/>
				<path id="XMLID_9_" class="st1" d="M251.7,179.4"/>
			</g>
			<g id="XMLID_4_">
				<path id="XMLID_7_" class="st1" d="M233,187.5c0.4,1.9,6.3,0.5,6.3-0.4c0-2.7-0.2-6.4,0.8-7.2c1.1-0.9,4.3-0.8,5.1,0.8
					c0.2,0.4,0.2,0.8,0.1,1.3c-0.4,1.6-0.4,3.5-0.4,4.7c0,0.9,0,1.6,0,1.9c0,0.7,0.3,2.2,2.8,2.5c3.2,0.4,3.7-0.7,3.7-3
					s2.6-13.3-6.7-15.2c-9.4-1.9-12.4,6.5-12.4,8.5C232.3,182.6,232.6,185.2,233,187.5"/>
				<path id="XMLID_6_" class="st1" d="M239.7,179.4"/>
				<path id="XMLID_5_" class="st1" d="M239.7,179.4c0.2,3.8,0,8.1-0.5,9.8c0,0-1.8,3.2-4.5,1.7s-2.9-16.8-1.3-17.5
					c1.7-0.7,5-2.2,5.8,1.3"/>
			</g>
		</g>
		<path id="XMLID_3_" class="st1" d="M209.1,183.5c-0.5,0.2-0.9,0.7-1.3,1.3c-0.1,0.2-0.2,0.3-0.3,0.5c-0.1,0.1-0.4,0.4-0.5,0.5
			c-1.4,0.6-4.1,1.4-5.2-1.4c-0.1-0.2-0.2-1-0.2-1.2c0-0.4,0-0.8,0.1-1.1c0.3-3,1.3-4.3,2.2-4.4c1.1-0.1,3.3,0.6,3.9,2.1
			c0,0,0.6,2.7,2.1,2.3s4.3-1.9,2.1-4.8c-2.2-2.9-4.4-5.9-10.6-3.8s-5,10-4.8,10.5s3.4,11.5,11.8,6.6
			C216.7,185.6,210,183.2,209.1,183.5z"/>
		<path id="XMLID_2_" class="st1" d="M225.3,181.3"/>
		<path id="XMLID_1_" class="st1" d="M191.3,189.8c-0.3,0.6-0.9,1.1-2.7,1.4c-1.8,0.3-2.3-2.4-2.3-2.7s0.3-2.8,3.1-2.2
			C192.1,186.9,191.3,189.8,191.3,189.8z"/>
	</g>
</g>
<g>
	<g>
		<g id="XMLID_336_">
			<path id="XMLID_348_" class="st3" d="M218.7,33.1c0,0-1.6-26.7-19.6-18.7s-7.7,83.5,38.2,72.5s27.2-70.4,27.2-70.4
				S245.4-0.4,242,29c0,0-0.9,19.7-9.9,21.3C223.1,51.8,217.8,38,218.7,33.1z"/>
			<g id="XMLID_346_">
				<path id="XMLID_347_" class="st3" d="M195.5,49.5c0,0-31.5,31.3-25.3-27c0,0-7.5-18.1-22.2-10.4c-14.7,7.6-16.6,100.1,54,74
					c0,0,19-7.3,24.1-11.1"/>
			</g>
			<line id="XMLID_345_" class="st2" x1="163.4" y1="83.1" x2="166.4" y2="84.4"/>
			<path id="XMLID_344_" class="st3" d="M232.3,63.3c0,0,1.1,2.4-0.7,3.5"/>
			<path id="XMLID_343_" class="st3" d="M263.7,58.2c0,0-0.5,2.2-1.1,2.9"/>
			<path id="XMLID_342_" class="st3" d="M245.9,27.7c0,0,0.9-4.1,0-4.1"/>
			<path id="XMLID_341_" class="st3" d="M155.4,14.4c0,0,3.9,0.5,3.5,1.2"/>
			<path id="XMLID_340_" class="st3" d="M180.4,63.5c0,0,4.5-0.6,4.8-1.5"/>
			<path id="XMLID_339_" class="st3" d="M203.2,18c0,0-3,1.4-3.8,2.8"/>
			<line id="XMLID_338_" class="st2" x1="232" y1="52.7" x2="235.1" y2="51.9"/>
			<line id="XMLID_337_" class="st2" x1="238.8" y1="81.9" x2="241.9" y2="81.1"/>
		</g>
		<g id="XMLID_322_">
			<path id="XMLID_335_" class="st3" d="M118.3,22.4"/>
			<path id="XMLID_332_" class="st3" d="M141.1,17c-36.4-26.6-64.7,7-64.7,7S53.2,77.4,97.5,91.4C142,105.4,177.4,43.6,141.1,17z
				 M121.3,53.9c-8.3,21.9-34.4-12.4-15.9-15C105.4,38.9,129.7,31.8,121.3,53.9z"/>
			<path id="XMLID_331_" class="st3" d="M126.7,13.6"/>
			<line id="XMLID_330_" class="st2" x1="85.5" y1="80.6" x2="88.4" y2="81.9"/>
			<path id="XMLID_329_" class="st3" d="M130.1,83.2c0,0-0.5,2.6-2.6,2.4"/>
			<path id="XMLID_328_" class="st3" d="M124.7,54.2c0,0-0.5,2.2-1.1,2.9"/>
			<path id="XMLID_327_" class="st3" d="M151.2,52.5c0,0,0.9-4.1,0-4.1"/>
			<path id="XMLID_326_" class="st3" d="M124.6,13c0,0,3.9,0.5,3.5,1.2"/>
			<path id="XMLID_325_" class="st3" d="M99.9,60.8c0,0,3.8,2.6,4.5,2.1"/>
			<path id="XMLID_324_" class="st3" d="M83,24.8c0,0-3,1.4-3.8,2.8"/>
			<line id="XMLID_323_" class="st2" x1="100.5" y1="36.2" x2="103.6" y2="35.3"/>
		</g>
		<g id="XMLID_311_">
			<path id="XMLID_321_" class="st3" d="M32.7,14.6c0,0-3.8-18.4-21.8-11.8s-9,76.2-0.6,81.6C18.7,89.6,42.1,122.8,32.7,14.6z"/>
			<path id="XMLID_320_" class="st3" d="M28.7,48c0,0,31.5-31.3,25.3,27c0,0,7.5,18.1,22.2,10.4c14.7-7.5,16.6-100-54-74"/>
			<line id="XMLID_319_" class="st2" x1="18.7" y1="83.5" x2="21.6" y2="84.8"/>
			<path id="XMLID_318_" class="st3" d="M72.7,75.6c0,0,1.1,2.4-0.7,3.5"/>
			<path id="XMLID_317_" class="st3" d="M79.6,45.6c0,0-0.5,2.2-1.1,2.9"/>
			<path id="XMLID_316_" class="st3" d="M29.4,64.3c0,0,0.9-4.1,0-4.1"/>
			<path id="XMLID_315_" class="st3" d="M51.6,35.9c0,0,3.9,0.5,3.5,1.2"/>
			<path id="XMLID_314_" class="st3" d="M14.1,55.4c0,0,4.5-0.6,4.8-1.5"/>
			<path id="XMLID_313_" class="st3" d="M36.7,12.5c0,0-3,1.4-3.8,2.8"/>
			<line id="XMLID_312_" class="st2" x1="9.8" y1="17.3" x2="12.9" y2="16.5"/>
		</g>
		<g id="XMLID_300_">
			<path id="XMLID_310_" class="st3" d="M52.5,76.9c0,0-3.8-18.4-21.8-11.8c-18.1,6.4-9,76.2-0.6,81.6
				C38.5,152.1,61.8,185.2,52.5,76.9z"/>
			<path id="XMLID_309_" class="st3" d="M48.5,110.4c0,0,31.5-31.3,25.3,27c0,0,7.5,18.1,22.2,10.4s16.6-100.1-54-74"/>
			<line id="XMLID_308_" class="st2" x1="39.5" y1="148.5" x2="42.5" y2="149.8"/>
			<path id="XMLID_307_" class="st3" d="M93.5,140.5c0,0,1.1,2.4-0.7,3.5"/>
			<path id="XMLID_306_" class="st3" d="M100.4,110.5c0,0-0.5,2.2-1.1,2.9"/>
			<path id="XMLID_305_" class="st3" d="M50.1,129.2c0,0,0.9-4.1,0-4.1"/>
			<path id="XMLID_304_" class="st3" d="M72.4,100.8c0,0,3.9,0.5,3.5,1.2"/>
			<path id="XMLID_303_" class="st3" d="M34.8,120.4c0,0,4.5-0.6,4.8-1.5"/>
			<path id="XMLID_302_" class="st3" d="M57.5,77.3c0,0-3,1.4-3.8,2.8"/>
			<line id="XMLID_301_" class="st2" x1="30.5" y1="82.3" x2="33.6" y2="81.5"/>
		</g>
		<g>
			<g id="XMLID_298_">
				<path id="XMLID_299_" class="st3" d="M116.7,108.1c0,0,5-26.8-17.6-19.2s-8.8,66.3,3.2,63.8S119.8,140.8,116.7,108.1z"/>
			</g>
			<line id="XMLID_297_" class="st2" x1="97.7" y1="145.3" x2="100.7" y2="146.6"/>
			<path id="XMLID_296_" class="st3" d="M112.6,136c0,0,1.1,2.4-0.7,3.5"/>
			<path id="XMLID_295_" class="st3" d="M94.2,101.3c0,0-0.5,2.2-1.1,2.9"/>
			<path id="XMLID_294_" class="st3" d="M113.2,102.8c0,0,0.9-4.1,0-4.1"/>
			<path id="XMLID_293_" class="st3" d="M102.8,91c0,0,3.9,0.5,3.5,1.2"/>
		</g>
		<g>
			<path id="XMLID_292_" class="st3" d="M104.2,52.5c0,0,25.5,14.5,0.5,25.4S87.1,39.1,104.2,52.5z"/>
			<path id="XMLID_291_" class="st3" d="M99.8,76.3c0,0,4.5-0.6,4.8-1.5"/>
			<path id="XMLID_290_" class="st3" d="M97.4,54.2c0,0-3,1.4-3.8,2.8"/>
		</g>
		<g id="XMLID_275_">
			<path id="XMLID_289_" class="st3" d="M146.6,94.9"/>
			<path id="XMLID_286_" class="st3" d="M166.7,90.2c-32.2-23.5-57.2,6.1-57.2,6.1s-20.5,47.2,18.8,59.6
				C167.5,168.3,198.9,113.7,166.7,90.2z M150.1,123.1c-8.1,21.2-33.3-12-15.4-14.5C134.7,108.6,158.3,101.9,150.1,123.1z"/>
			<path id="XMLID_285_" class="st3" d="M154.1,87.2"/>
			<path id="XMLID_284_" class="st3" d="M154.1,87.2c0,0,24.9-26.8,25.7,23.4c0.7,50.2,9.3,96-38.8,95.8c0,0-26.1-12.1-0.1-25.1
				c12.8-6.3,15.2-19.4,15-35.8"/>
			<line id="XMLID_283_" class="st2" x1="138.5" y1="199.9" x2="141.5" y2="201.2"/>
			<path id="XMLID_282_" class="st3" d="M164.3,194.8c0,0,1.1,2.4-0.7,3.5"/>
			<path id="XMLID_281_" class="st3" d="M177.2,169.6c0,0-0.5,2.2-1.1,2.9"/>
			<path id="XMLID_280_" class="st3" d="M174.8,137.5c0,0,0.9-4.1,0-4.1"/>
			<path id="XMLID_279_" class="st3" d="M119.7,148.3c0,0,3.9,0.5,3.5,1.2"/>
			<path id="XMLID_278_" class="st3" d="M166.6,106.8c0,0,4.5-0.6,4.8-1.5"/>
			<path id="XMLID_277_" class="st3" d="M119.9,94.7c0,0-3,1.4-3.8,2.8"/>
			<line id="XMLID_276_" class="st2" x1="152.3" y1="129.3" x2="149.6" y2="131"/>
		</g>
		<path id="XMLID_274_" class="st3" d="M210.5,92.8c0,0-6.7-4.7-9.5-1c-2.9,3.7-7.8,9.9-1.9,22c5.8,12.1,27.9,2,30-3.7"/>
		<g>
			<path id="XMLID_273_" class="st3" d="M236.4,102.6L236.4,102.6c-4.2-11.2-13.5-20-27.6-21.4c-28.1-2.7-39.7,15.5-44,26.6
				c0,0-1,1.7-1.7,4.9c-0.6,1.9-0.7,3.6-0.6,4.3c-0.4,6.1,0.6,15.1,6.4,27c4.6,9.7,16.4,13.2,24.2,14.3c2.2,0.5,4.6,0.7,7.1,0.7
				c0.1,0,0.2,0,0.2,0l0,0c2.7,0,5.6-0.4,8.7-1.1c12.3-2.8,20.8-10.8,25.5-20.5c-0.8-11.2-10.4-12.6-16.2-13.4
				c-3.1-0.5-6.4,1.4-8.8,3.5c-0.3,0.2-0.5,0.4-0.8,0.6c-8.3,6.1-30.1-5.8-18.6-14.9c0,0,3.9-4.1,8.5-6l0,0c0,0,3.8-1.9,6.9-0.8
				c1.2,0.4,2.3,1.3,3,3c0,0.1,0.1,0.2,0.1,0.3c0.3,0.8,0.8,1.6,1.3,2.5c3.8,6.1,12.2,14.2,20,8.5c9-6.5,8-9,8.3-11.5l0,0
				C238.7,106.6,236.4,102.6,236.4,102.6z"/>
			<line id="XMLID_272_" class="st2" x1="173.5" y1="143.2" x2="175.4" y2="145.8"/>
			<path id="XMLID_271_" class="st3" d="M227,140.2c0,0,1.1,2.4-0.7,3.5"/>
			<path id="XMLID_270_" class="st3" d="M236,109.2c0,0-0.5,2.2-1.1,2.9"/>
			<path id="XMLID_269_" class="st3" d="M184.9,112.8c0,0,0.9-4.1,0-4.1"/>
			<path id="XMLID_268_" class="st3" d="M205.9,100.5c0,0,3.9,0.5,3.5,1.2"/>
			<path id="XMLID_267_" class="st3" d="M201.8,154.8c0,0,4.5-0.6,4.8-1.5"/>
			<path id="XMLID_266_" class="st3" d="M178.4,94.8c0,0-3,1.4-3.8,2.8"/>
			<line id="XMLID_265_" class="st2" x1="223" y1="119.5" x2="226.1" y2="118.7"/>
		</g>
		<g>
			<path id="XMLID_264_" class="st3" d="M253.3,70.9c0,0-3.9-21.4-21.8-13.8s-9,89-0.6,95.3C239.2,158.6,262.6,197.3,253.3,70.9z"/>
			<path id="XMLID_263_" class="st3" d="M246.1,150.1c0,0,1.1,2.4-0.7,3.5"/>
			<path id="XMLID_262_" class="st3" d="M251.8,111.5c0,0,0.3,2.2,0,3.2"/>
			<path id="XMLID_261_" class="st3" d="M228.6,126.8c0,0,0.9-4.1,0-4.1"/>
			<path id="XMLID_260_" class="st3" d="M233.6,61.6c0,0-3,1.4-3.8,2.8"/>
		</g>
		<g id="XMLID_189_">
			<path id="XMLID_259_" class="st3" d="M307.3,169.4c0.2-3.5-1-13.6-1.2-16.9c-0.2-3-0.6-5.6-1.3-7.7c11.5-19.9-20.6-42.6-32-17
				c-3.6,8-3,23.4-3,26c0.1,3.4,0.2,14.9,0.2,17.9c0.1,16.6,24.8,29.7,34.5,8.1"/>
			<g id="XMLID_190_">
				<g id="XMLID_255_">
					<path id="XMLID_258_" class="st3" d="M248.7,86.7c0,0-18-23.7-18.3-5.2c-0.5,18.5,4.7,38.4,11.3,35.9s6.7-8,6.7-8"/>
					<path id="XMLID_257_" class="st3" d="M242.8,88c0,0-7-10.8-8.7-5.7"/>
					<path id="XMLID_256_" class="st3" d="M245.6,95.5c0,0-10.3-2.7-8.8,3.3s5.1,9.9,7,3.3"/>
				</g>
				<path id="XMLID_254_" class="st3" d="M302.1,3.5c0,0-6.7,5.9,1.6,8.6C312.1,14.8,309.4,0.5,302.1,3.5z"/>
				<path id="XMLID_253_" class="st3" d="M288,17.9c0,0,53.6,3.8,46.3,67c-7.3,63.2-5.3,74.8-35.5,81.3s-46.8-15.6-50.2-32.4
					C245.2,117,220.8,26.4,288,17.9z"/>
				<path id="XMLID_252_" class="st3" d="M331.1,32.9c-0.2-2.1-1.1-4.8-3-8.1v-0.1l0,0c-0.4-0.7-0.8-1.4-1.3-2.2
					C320.8,13.1,311,7.7,302,5c-38.4-17.2-42.2,19.3-42.3,33.1c0,1.3,17.3-0.1,33.1-4.2c20,8,38.9,17,38.9,17S333,39.1,331.1,32.9z"
					/>
				<path id="XMLID_251_" class="st3" d="M257.5,51.1c0,0,36.5-3.6,23.4,25.8S226.9,71.7,257.5,51.1z"/>
				<path id="XMLID_250_" class="st3" d="M254.2,71.4c0,0,5.5-2.2,4.9,3.4S250.4,76.2,254.2,71.4z"/>
				<path id="XMLID_249_" class="st3" d="M297.5,90.4c0,0,9.5,7.1,21.9,2.7"/>
				<path id="XMLID_248_" class="st3" d="M294.2,95.1c0,0-9.7-12-9.3-18.7"/>
				<path id="XMLID_247_" class="st3" d="M274.1,90.8c0,0-15.4,3.3-18.7,1.9"/>
				<g id="XMLID_244_">
					<path id="XMLID_246_" class="st3" d="M277.4,96.4c0.4,3.2,1.4,5.4,3.4,5.8c1.1,0.2,2.1,0.2,2.9,0c0.7-0.2,1.2-0.4,1.6-0.6"/>
					<path id="XMLID_245_" class="st3" d="M287.7,58.3c0,0-7.3,19.7-9.3,33.6"/>
				</g>
				<path id="XMLID_243_" class="st3" d="M298.2,55.1c0,0-26.7,23.7,6.7,34.3S327.3,43,298.2,55.1z"/>
				<path id="XMLID_242_" class="st3" d="M316.8,74.5c0,0,5.5-2.2,4.9,3.4S313,79.4,316.8,74.5z"/>
				<path id="XMLID_241_" class="st3" d="M271.1,160.8c0,0-6.4,5.9,6.8,8.5c13.2,2.6,21.8-1,19.2-5.9"/>
				<path id="XMLID_240_" class="st3" d="M300.3,50.3c0,0-12.3,1.4-3.5,10.1s25.7,0.2,24.8-2.9C320.8,54.5,319.1,49.3,300.3,50.3z"
					/>
				<path id="XMLID_239_" class="st3" d="M250.2,43.1c0,0,20.5-8.4,44.6-3.1c24.1,5.2,36.6,10.8,36.6,10.8
					c-7.8-26.5-54.4-26.6-78-25s-17.2,10.6-17.2,10.6S239.7,40.6,250.2,43.1z"/>
				<path id="XMLID_238_" class="st3" d="M250.2,43.1c0,0-40.7-11.2,15.6-13.8s65.6,21.4,65.6,21.4S279.3,28.4,250.2,43.1z"/>
				<g id="XMLID_232_">
					<path id="XMLID_237_" class="st3" d="M273.9,98.2c0,0-7.1,8.3,4.3,10.6"/>
					<path id="XMLID_236_" class="st3" d="M293.5,98.1c0,0,7.6,6.3-3.1,10.6"/>
					<path id="XMLID_235_" class="st3" d="M290.1,105c-1.6,0.4-3.2-2.1-2.1-1.8c1.1,0.3,2.7-1.9,3.9,0"/>
					<path id="XMLID_234_" class="st3" d="M278.4,104.3c0.9,0.5-1.3,1.8-1.3,1.8c-2.2-0.1-2.7-1.8-1.5-2.7"/>
					<path id="XMLID_233_" class="st3" d="M284.8,93.8c0,0,2.2-0.1,2.8,0.7"/>
				</g>
				<path id="XMLID_231_" class="st3" d="M269.7,103.3c0,0-6.2,3.1-8,3.8"/>
				<line id="XMLID_230_" class="st2" x1="251.4" y1="105.9" x2="254" y2="107"/>
				<path id="XMLID_229_" class="st3" d="M298,101.5c0,0,7.3,3.5,8,3.4"/>
				<path id="XMLID_228_" class="st3" d="M328.8,70.3c0,0,1,2.1-0.6,3"/>
				<path id="XMLID_227_" class="st3" d="M323.2,91.8c0,0-0.5,1.9-1,2.6"/>
				<path id="XMLID_226_" class="st3" d="M323.8,54.5c0,0,0.8-3.6,0-3.6"/>
				<path id="XMLID_225_" class="st3" d="M271.5,42.6c0,0,3.4,0.5,3,1"/>
				<path id="XMLID_224_" class="st3" d="M292.2,48.9c0,0,3.9-0.6,4.2-1.3"/>
				<path id="XMLID_223_" class="st3" d="M262.8,145.3c0,0,2.8,0.6,3,1.2"/>
				<path id="XMLID_222_" class="st3" d="M309,146.4c0,0-2.6,1.2-3.4,2.5"/>
				<path id="XMLID_221_" class="st3" d="M264.5,45.2c0,0-19-1.1-10.2,9.5s24.4-0.3,25.6-4.9S264.5,45.2,264.5,45.2z"/>
				<path id="XMLID_220_" class="st3" d="M255.4,83.5"/>
				<path id="XMLID_219_" class="st3" d="M274.1,85.7"/>
				<line id="XMLID_218_" class="st2" x1="315.9" y1="106.4" x2="318.7" y2="105.6"/>
				<path id="XMLID_217_" class="st3" d="M326.8,93.2c0,0,19.7-22.2,18.7-3.6c-1.1,18.5-7.7,37.9-14.1,34.8s-6-8.5-6-8.5"/>
				<path id="XMLID_216_" class="st3" d="M332.5,95c0,0,7.9-10.2,9.2-5"/>
				<path id="XMLID_215_" class="st3" d="M329.2,102.3c0,0,10.4-1.8,8.5,4s-6,9.4-7.2,2.7"/>
				<g id="XMLID_210_">
					<path id="XMLID_214_" class="st3" d="M255.6,82.5c0,0-5.3,0.7-3,3.2s3.5-0.6,7.4,1.4"/>
					<path id="XMLID_213_" class="st3" d="M321.1,84.6c0,0,5.3,0.7,3,3.2s-3.5-0.6-7.4,1.4"/>
					<path id="XMLID_212_" class="st3" d="M315.3,84.2c0,0-12.3-0.8-19.5,1.2"/>
					<path id="XMLID_211_" class="st3" d="M261.6,81.4c0,0,7.2-1.4,15.2,1.1"/>
				</g>
				<g id="XMLID_198_">
					<path id="XMLID_209_" class="st3" d="M277.1,119.7c0,0,36.5-3.6,23.4,25.8C287.4,175,246.5,140.3,277.1,119.7z"/>
					<path id="XMLID_208_" class="st3" d="M278.5,149.2c-3.6-1.6-7.7,9.5-11.5-0.8s19.4-0.9,19.4-0.9s7.3,2.4,10,3.7"/>
					<path id="XMLID_207_" class="st3" d="M296.9,151.4c1.3-1.6,2.6-3.5,3.6-5.8c13.1-29.4-23.4-25.8-23.4-25.8
						c-11.4,7.6-12.9,17.1-9.6,24.7c3.9-2.9,18.8,3.2,18.8,3.2s7.3,2.4,10,3.7"/>
					<g id="XMLID_200_">
						<path id="XMLID_206_" class="st3" d="M268.6,126.9c0,0,5.5-2.2,4.9,3.4C272.9,136,264.9,131.7,268.6,126.9z"/>
						<path id="XMLID_205_" class="st3" d="M274.5,126.9c0,0,5.5-2.2,4.9,3.4C278.9,135.8,270.9,131.7,274.5,126.9z"/>
						<path id="XMLID_204_" class="st3" d="M280.4,126.8c0,0,5.5-2.2,4.9,3.4C284.8,135.8,276.8,131.6,280.4,126.8z"/>
						<path id="XMLID_203_" class="st3" d="M286.3,126.8c0,0,5.5-2.2,4.9,3.4C290.7,135.9,282.7,131.6,286.3,126.8z"/>
						<path id="XMLID_202_" class="st3" d="M292.3,126.8c0,0,5.5-2.2,4.9,3.4C296.7,135.8,288.6,131.6,292.3,126.8z"/>
						<path id="XMLID_201_" class="st3" d="M298.2,126.8c0,0,5.5-2.2,4.9,3.4C302.5,135.9,294.5,131.6,298.2,126.8z"/>
					</g>
					<path id="XMLID_199_" class="st3" d="M274.6,127c0,0,5.1-2,4.9,2.9l0,0c-0.1-0.9,0.2-1.8,1-2.9c0,0,5.1-2,4.9,2.9l0,0
						c-0.1-0.9,0.2-1.8,1-2.9c0,0,5.1-2,4.9,2.9l0,0c-0.1-0.9,0.2-1.8,1-2.9c0,0,5.1-2,4.9,2.9l0,0c-0.1-0.9,0.2-1.8,1-2.9
						c0,0,1.3-0.5,2.5-0.4c-6.6-8.3-23.6-6.6-23.6-6.6c-3.2,2.1-5.6,4.4-7.3,6.7c1.5-0.3,3.9-0.2,3.7,3.2l0,0
						C273.6,129,273.9,128,274.6,127z"/>
				</g>
				<g id="XMLID_193_">
					<path id="XMLID_197_" class="st3" d="M271.7,123.3c0,0-19.6,2.7-8.7,9.7C274.1,140,271.7,123.3,271.7,123.3z"/>
					<path id="XMLID_196_" class="st3" d="M268.8,117.5c0,0-16.2-0.9-8.7,7.5c7.5,8.4,20.8-0.3,21.9-3.9
						C283,117.6,268.8,117.5,268.8,117.5z"/>
					<path id="XMLID_195_" class="st3" d="M301.1,121.6c0,0-7.9-2.6-6.5,7.4s15,8.3,15.8,5.4C311.4,131.4,312.6,126.7,301.1,121.6z"
						/>
					<path id="XMLID_194_" class="st3" d="M294.4,118.9c0,0-23-2.8-0.3,8.2C316.9,138.1,320.6,122.2,294.4,118.9z"/>
				</g>
				<path id="XMLID_192_" class="st3" d="M313.2,10.2c0,0,1.8,1.4,0.8,3"/>
				<line id="XMLID_191_" class="st2" x1="265.4" y1="25.2" x2="266.5" y2="22.6"/>
			</g>
		</g>
		<path id="XMLID_186_" class="st3" d="M227.7,180.5c-0.9-6.8-2.5-9.4-4.5-10.6c0,0-10.7-4-13.7,6.2s6.1,12.2,7.3,12.1
			S228.6,187.3,227.7,180.5z M220.8,179.9c-0.3,0.6-0.9,1.1-2.7,1.4c-1.8,0.4-2.3-2.4-2.3-2.7s0.3-2.8,3.1-2.2
			C221.6,176.9,220.8,179.9,220.8,179.9z"/>
		<g>
			<g id="XMLID_182_">
				<path id="XMLID_185_" class="st3" d="M241.2,183.6"/>
				<path id="XMLID_184_" class="st3" d="M247.5,183.2c0-2.7-0.2-6.4,0.8-7.2c1.4-1.1,5.8-0.6,5.2,2.2c-0.4,1.6-0.4,3.5-0.4,4.7
					c0,0.9,0,1.6,0,1.9c0,0.7,0.3,2.2,2.8,2.5c3.2,0.4,3.7-0.7,3.7-3s2.6-13.3-6.7-15.2c-6.6-1.4-10,2.4-11.5,5.4"/>
				<path id="XMLID_183_" class="st3" d="M247.8,175.6"/>
			</g>
			<g id="XMLID_178_">
				<path id="XMLID_181_" class="st3" d="M229.2,183.7c0.4,1.9,6.3,0.5,6.3-0.4c0-2.7-0.2-6.4,0.8-7.2c1.1-0.9,4.3-0.8,5.1,0.8
					c0.2,0.4,0.2,0.8,0.1,1.3c-0.4,1.6-0.4,3.5-0.4,4.7c0,0.9,0,1.6,0,1.9c0,0.7,0.3,2.2,2.8,2.5c3.2,0.4,3.7-0.7,3.7-3
					s2.6-13.3-6.7-15.2c-9.4-1.9-12.4,6.5-12.4,8.5C228.5,178.7,228.8,181.4,229.2,183.7"/>
				<path id="XMLID_180_" class="st3" d="M235.9,175.7"/>
				<path id="XMLID_179_" class="st3" d="M235.9,175.7c0.2,3.8,0,8.1-0.5,9.8c0,0-1.8,3.2-4.5,1.7s-2.9-16.8-1.3-17.5
					c1.7-0.7,5-2.2,5.8,1.3"/>
			</g>
		</g>
		<path id="XMLID_177_" class="st3" d="M205.3,179.7c-0.5,0.2-0.9,0.7-1.3,1.3c-0.1,0.2-0.2,0.3-0.3,0.5c-0.1,0.1-0.4,0.4-0.5,0.5
			c-1.4,0.6-4.1,1.4-5.2-1.4c-0.1-0.2-0.2-1-0.2-1.2c0-0.4,0-0.8,0.1-1.1c0.3-3,1.3-4.3,2.2-4.4c1.1-0.1,3.3,0.6,3.9,2.1
			c0,0,0.6,2.7,2.1,2.3s4.3-1.9,2.1-4.8c-2.2-2.9-4.4-5.9-10.6-3.8c-6.2,2.1-5,10-4.8,10.5s3.4,11.5,11.8,6.6
			C212.9,181.8,206.2,179.4,205.3,179.7z"/>
		<path id="XMLID_176_" class="st3" d="M221.5,177.4"/>
		<path id="XMLID_175_" class="st3" d="M187.5,186c-0.3,0.6-0.9,1.1-2.7,1.4c-1.8,0.3-2.3-2.4-2.3-2.7s0.3-2.8,3.1-2.2
			C188.3,183.1,187.5,186,187.5,186z"/>
	</g>
</g>
</svg>
