<?xml version="1.0" encoding="utf-8"?>
<!-- Generator: Adobe Illustrator 22.1.0, SVG Export Plug-In . SVG Version: 6.00 Build 0)  -->
<svg version="1.1" id="Layer_1" xmlns="http://www.w3.org/2000/svg" xmlns:xlink="http://www.w3.org/1999/xlink" x="0px" y="0px"
	 viewBox="0 0 96 96" style="enable-background:new 0 0 96 96;" xml:space="preserve">
<style type="text/css">
	.st0{fill:#FDF5EA;stroke:#5B5B4B;stroke-linecap:round;stroke-miterlimit:10;}
</style>
<g>
	<path id="XMLID_445_" class="st0" d="M57.7,81.8c0.1-1.9-0.5-7.2-0.7-8.9c-0.1-1.6-0.3-2.9-0.7-4c6.1-10.3-10.7-22.3-16.7-8.9
		C37.8,64.2,38,72.3,38,73.6c0,1.7,0.1,7.8,0.1,9.3c0,8.6,12.9,15.5,17.9,4.2"/>
	<g id="XMLID_434_">
		<g id="XMLID_435_">
			<path id="XMLID_444_" class="st0" d="M47.7,3c0,0,27.8,2,24,34.8c-3.8,32.9-2.8,38.9-18.5,42.3C37.4,83.5,28.8,72,27.1,63.2
				S12.7,7.3,47.7,3z"/>
			<path id="XMLID_443_" class="st0" d="M41,77.9c0,0-3,3.3,4,4.1c7,0.8,11.3-1.5,9.7-4"/>
			<path id="XMLID_442_" class="st0" d="M69.4,41.4c0,0,10.3-11.5,9.8-1.9c-0.5,9.7-4.1,19.7-7.4,18.1c-3.3-1.6-3-4.5-3-4.5"/>
			<path id="XMLID_441_" class="st0" d="M72.4,42.3c0,0,4.1-5.3,4.8-2.5"/>
			<path id="XMLID_440_" class="st0" d="M70.6,46.2c0,0,5.4-0.9,4.4,2.1s-3,4.9-3.7,1.5"/>
			<g id="XMLID_436_">
				<path id="XMLID_439_" class="st0" d="M26.4,42.7c0,0-9.3-12.3-9.5-2.6s2.4,20,5.8,18.7s3.4-4.1,3.4-4.1"/>
				<path id="XMLID_438_" class="st0" d="M23.3,43.4c0,0-3.6-5.7-4.5-2.9"/>
				<path id="XMLID_437_" class="st0" d="M24.7,47.2c0,0-5.3-1.5-4.5,1.7c0.8,3,2.6,5.2,3.6,1.7"/>
			</g>
		</g>
	</g>
</g>
</svg>
