<?xml version="1.0" encoding="utf-8"?>
<!-- Generator: Adobe Illustrator 22.1.0, SVG Export Plug-In . SVG Version: 6.00 Build 0)  -->
<svg version="1.1" id="Layer_1" xmlns="http://www.w3.org/2000/svg" xmlns:xlink="http://www.w3.org/1999/xlink" x="0px" y="0px"
	 viewBox="0 0 96 96" style="enable-background:new 0 0 96 96;" xml:space="preserve">
<style type="text/css">
	.st0{fill:#FDF5EA;stroke:#5B5B4B;stroke-linecap:round;stroke-miterlimit:10;}
</style>
<g>
	<path id="XMLID_445_" class="st0" d="M59.4,81.9c0.1-1.9-0.4-7.2-0.6-8.9c-0.1-1.6-0.3-2.9-0.7-4c6.2-10.2-10.5-22.4-16.6-9
		c-1.8,4.2-1.7,12.3-1.7,13.6c0,1.7,0,7.8,0,9.3c-0.1,8.6,12.8,15.6,17.9,4.4"/>
	<g id="XMLID_434_">
		<g id="XMLID_435_">
			<path id="XMLID_444_" class="st0" d="M50.1,3c0,0,27.8,2.2,23.7,35c-4.1,32.9-3.1,38.9-18.9,42.1C39.1,83.4,30.6,71.8,29,63
				C27.3,54.2,15.1,7,50.1,3z"/>
			<path id="XMLID_443_" class="st0" d="M42.7,77.8c0,0-3,3.3,4,4.1s11.3-1.4,9.7-3.9"/>
			<path id="XMLID_442_" class="st0" d="M71.5,41.6c0,0,10.4-11.4,9.8-1.8c-0.6,9.7-4.3,19.7-7.6,18c-3.3-1.6-3-4.5-3-4.5"/>
			<path id="XMLID_441_" class="st0" d="M74.4,42.5c0,0,4.1-5.3,4.8-2.5"/>
			<path id="XMLID_440_" class="st0" d="M72.6,46.4c0,0,5.4-0.9,4.4,2.1c-1,3-3,4.9-3.7,1.5"/>
			<g id="XMLID_436_">
				<path id="XMLID_439_" class="st0" d="M28.4,42.5c0,0-9.2-12.4-9.5-2.7c-0.3,9.7,2.2,20,5.6,18.7c3.4-1.3,3.4-4.1,3.4-4.1"/>
				<path id="XMLID_438_" class="st0" d="M25.3,43.2c0,0-3.6-5.7-4.5-2.9"/>
				<path id="XMLID_437_" class="st0" d="M26.7,47c0,0-5.3-1.5-4.5,1.7c0.8,3,2.6,5.2,3.6,1.7"/>
			</g>
		</g>
	</g>
</g>
</svg>
