<?xml version="1.0" encoding="utf-8"?>
<!-- Generator: Adobe Illustrator 22.1.0, SVG Export Plug-In . SVG Version: 6.00 Build 0)  -->
<svg version="1.1" id="Layer_1" xmlns="http://www.w3.org/2000/svg" xmlns:xlink="http://www.w3.org/1999/xlink" x="0px" y="0px"
	 viewBox="0 0 90 91" style="enable-background:new 0 0 90 91;" xml:space="preserve">
<style type="text/css">
	.st0{fill:#FDF5EA;stroke:#5B5B4B;stroke-linecap:round;stroke-miterlimit:10;}
</style>
<g>
	<path id="XMLID_655_" class="st0" d="M18.4,2.5c0,0-0.6-0.3-0.6,0.7c-0.7,32.7,0,84.6,0,84.6c0.1,1,0.6,0.7,0.6,0.7
		c18.5,1.4,52.9,0,52.9,0s0.6,0.3,0.6-0.7c1.4-50.7,0-85.2,0-85.2c-0.1-1-0.6-0.7-0.6-0.7S42.3,1.9,18.4,2.5z"/>
	<path id="XMLID_654_" class="st0" d="M61.4,12.2c0,0,1.5-0.2,1.6,1c0,0,1.7,21.4,0,47.9c-0.1,1.3-1.6,1-1.6,1s-19.4,0.2-33-0.5
		c0,0-1.5,0.2-1.6-1c0,0-1.2-20.5,0-47c0.1-1.3,1.6-1,1.6-1L61.4,12.2z"/>
	<path id="XMLID_656_" class="st0" d="M48.7,69.8c0,0-8.6-3.2-11,4.9c-2.4,8.1,4.8,9.8,5.8,9.7c1-0.1,9.4-0.8,8.7-6.1
		C51.6,72.9,50.3,70.6,48.7,69.8z"/>
</g>
</svg>
