<?xml version="1.0" encoding="utf-8"?>
<!-- Generator: Adobe Illustrator 22.1.0, SVG Export Plug-In . SVG Version: 6.00 Build 0)  -->
<svg version="1.1" id="Layer_1" xmlns="http://www.w3.org/2000/svg" xmlns:xlink="http://www.w3.org/1999/xlink" x="0px" y="0px"
	 viewBox="0 0 91 91" style="enable-background:new 0 0 91 91;" xml:space="preserve">
<style type="text/css">
	.st0{fill:#FDF5EA;stroke:#5B5B4B;stroke-linecap:round;stroke-miterlimit:10;}
</style>
<g>
	<path class="st0" d="M69.2,86C66.7,73,63,67.6,58.5,65.1c0,0-26.7-9.4-33.7,15.9c-0.5,2.1-0.9,4-1.1,5.8L69.2,86L69.2,86z"/>
	<path class="st0" d="M87,5.7c0,0,0.3-0.9-0.7-0.9C36.7,3.6,3.1,6.1,3.1,6.1c-0.9,0.1-0.6,1-0.6,1s0.3,28.2,1.1,57.6l84.8-1.5
		L87,5.7z"/>
	<path class="st0" d="M4.8,78.6c31.9,0.1,82.7-1.4,82.7-1.4c0.9-0.1,0.7-0.6,0.7-0.6c0.1-2.7,0.2-5.6,0.2-8.7l-0.1-5L3.5,64.3
		c0.2,4.5,0.3,9.2,0.5,13.6C4.1,77.9,3.8,78.5,4.8,78.6z"/>
	<path class="st0" d="M76.3,15.1c0,0,0.2-0.6-0.5-0.6c-36.4-0.7-61.1,1.1-61.1,1.1c-0.8,0.1-0.5,0.6-0.5,0.6s0.3,18.4,0.8,37.8
		l62.2-1.1L76.3,15.1z"/>
</g>
</svg>
