<?xml version="1.0" encoding="utf-8"?>
<!-- Generator: Adobe Illustrator 22.1.0, SVG Export Plug-In . SVG Version: 6.00 Build 0)  -->
<svg version="1.1" id="Layer_1" xmlns="http://www.w3.org/2000/svg" xmlns:xlink="http://www.w3.org/1999/xlink" x="0px" y="0px"
	 viewBox="0 0 90 91.7" style="enable-background:new 0 0 90 91.7;" xml:space="preserve">
<style type="text/css">
	.st0{fill:#FDF5EA;stroke:#5B5B4B;stroke-linecap:round;stroke-miterlimit:10;}
	.st1{opacity:0;fill:#FFFFFF;}
</style>
<g>
	<path id="XMLID_655_" class="st0" d="M18.1,4c0,0-0.6-0.3-0.6,0.7c-0.1,32.3,1.4,83.7,1.4,83.7c0.1,1,0.6,0.7,0.6,0.7
		c18.3,1.1,52.3-1,52.3-1s0.6,0.3,0.6-0.7C72.9,37.2,71,3.1,71,3.1c-0.1-1-0.6-0.7-0.6-0.7S41.8,3,18.1,4z"/>
	<path id="XMLID_654_" class="st0" d="M60.8,12.8c0,0,1.4-0.2,1.5,1c0,0,2.1,21.2,0.9,47.3c-0.1,1.2-1.5,1-1.5,1s-19.2,0.5-32.6,0.1
		c0,0-1.4,0.2-1.5-1c0,0-1.5-20.2-0.8-46.5c0.1-1.2,1.5-1,1.5-1L60.8,12.8z"/>
	<path id="XMLID_656_" class="st0" d="M49.2,69.9c0,0-8.6-3-10.7,5.1c-2.3,8.1,5,9.6,5.9,9.5c1-0.1,9.3-1,8.5-6.2
		C52.2,73,50.9,70.8,49.2,69.9z"/>
</g>
<rect y="0.8" class="st1" width="90" height="90"/>
</svg>
