<?xml version="1.0" encoding="utf-8"?>
<!-- Generator: Adobe Illustrator 22.1.0, SVG Export Plug-In . SVG Version: 6.00 Build 0)  -->
<svg version="1.1" id="Layer_1" xmlns="http://www.w3.org/2000/svg" xmlns:xlink="http://www.w3.org/1999/xlink" x="0px" y="0px"
	 viewBox="0 0 91 91" style="enable-background:new 0 0 91 91;" xml:space="preserve">
<style type="text/css">
	.st0{fill:#FDF5EA;stroke:#5B5B4B;stroke-linecap:round;stroke-miterlimit:10;}
</style>
<g>
	<g>
		<path class="st0" d="M87.2,23.6c0,0-0.9-1.8-2.9-1.7c0,0-76.8-1.2-79-1.4c-1.9-0.2-3,1.6-3,1.6S1.5,65.5,2.4,67.3
			c0,0,0.9,1.8,2.9,1.7c0,0,11.6,0.3,25.8,0.6c0-0.1,0-0.3,0.2-0.4c0.4-0.3,12.6-12.1,12.6-12.1c0.3-0.3,0.9,0,0.9,0
			c1.5,1.3,12,12.6,12,12.6s0.1,0.2,0.1,0.4c12.7,0.2,23.5,0.3,25.8,0.1c1.9-0.2,3-1.6,3-1.6S87.6,28.6,87.2,23.6z"/>
		<path class="st0" d="M44.9,57.1c0,0-0.7-0.4-0.9,0c0,0-12.2,11.9-12.6,12.1c-0.1,0.1-0.2,0.2-0.2,0.4c8.2,0.2,17.4,0.4,25.7,0.5
			c0-0.2-0.1-0.4-0.1-0.4S46.3,58.5,44.9,57.1z"/>
	</g>
	<g>
		<path class="st0" d="M36.3,45.4c0-0.2,0-0.4,0-0.6c0-0.8-0.1-1.5-0.2-2.3c-0.2-0.9-0.4-1.7-0.7-2.6c0,0-0.1-0.1-0.2-0.2
			c-0.4-1.4-1.1-2.6-2.1-3.4c-0.8-1.1-1.9-1.8-3.3-2.3c-0.7-0.4-1.3-0.8-2.1-1.2c0,0-0.5,0-1.3,0c-0.8-0.3-1.7-0.4-2.5-0.4
			c-0.2,0-0.4,0-0.6,0c-0.8,0-1.5,0.1-2.3,0.2c-0.9,0.2-1.7,0.4-2.6,0.7c0,0-0.1,0.1-0.2,0.2c-1.4,0.4-2.6,1.1-3.4,2.1
			c-1.1,0.8-1.8,1.9-2.3,3.3c-0.4,0.7-0.8,1.3-1.2,2.1c0,0,0,0.5,0,1.3c-0.3,0.8-0.4,1.7-0.4,2.5c0,0.2,0,0.4,0,0.6
			c0,0.8,0.1,1.5,0.2,2.3c0.2,0.9,0.4,1.7,0.7,2.6c0,0,0.1,0.1,0.2,0.2c0.4,1.4,1.1,2.6,2.1,3.4c0.8,1.1,1.9,1.8,3.3,2.3
			c0.7,0.4,1.3,0.8,2.1,1.2c0,0,0.5,0,1.3,0c0.8,0.3,1.7,0.4,2.5,0.4c0.2,0,0.4,0,0.6,0c0.8,0,1.5-0.1,2.3-0.2
			c0.9-0.2,1.7-0.4,2.6-0.7c0,0,0.1-0.1,0.2-0.2c1.4-0.4,2.6-1.1,3.4-2.1c1.1-0.8,1.8-1.9,2.3-3.3c0.4-0.7,0.8-1.3,1.2-2.1
			c0,0,0-0.5,0-1.3C36.2,47.1,36.4,46.2,36.3,45.4z"/>
		<path class="st0" d="M78.7,46.1c0-0.2,0-0.4,0-0.6c0-0.8-0.1-1.5-0.2-2.3c-0.2-0.9-0.4-1.7-0.7-2.6c0,0-0.1-0.1-0.2-0.2
			c-0.4-1.4-1.1-2.6-2.1-3.4c-0.8-1.1-1.9-1.8-3.3-2.3c-0.7-0.4-1.3-0.8-2.1-1.2c0,0-0.5,0-1.3,0c-0.8-0.3-1.7-0.4-2.5-0.4
			c-0.2,0-0.4,0-0.6,0c-0.8,0-1.5,0.1-2.3,0.2c-0.9,0.2-1.7,0.4-2.6,0.7c0,0-0.1,0.1-0.2,0.2c-1.4,0.4-2.6,1.1-3.4,2.1
			c-1.1,0.8-1.8,1.9-2.3,3.3c-0.4,0.7-0.8,1.3-1.2,2.1c0,0,0,0.5,0,1.3c-0.3,0.8-0.4,1.7-0.4,2.5c0,0.2,0,0.4,0,0.6
			c0,0.8,0.1,1.5,0.2,2.3c0.2,0.9,0.4,1.7,0.7,2.6c0,0,0.1,0.1,0.2,0.2c0.4,1.4,1.1,2.6,2.1,3.4c0.8,1.1,1.9,1.8,3.3,2.3
			c0.7,0.4,1.3,0.8,2.1,1.2c0,0,0.5,0,1.3,0c0.8,0.3,1.7,0.4,2.5,0.4c0.2,0,0.4,0,0.6,0c0.8,0,1.5-0.1,2.3-0.2
			c0.9-0.2,1.7-0.4,2.6-0.7c0,0,0.1-0.1,0.2-0.2c1.4-0.4,2.6-1.1,3.4-2.1c1.1-0.8,1.8-1.9,2.3-3.3c0.4-0.7,0.8-1.3,1.2-2.1
			c0,0,0-0.5,0-1.3C78.6,47.8,78.8,47,78.7,46.1z"/>
	</g>
</g>
</svg>
