<?xml version="1.0" encoding="utf-8"?>
<!-- Generator: Adobe Illustrator 22.1.0, SVG Export Plug-In . SVG Version: 6.00 Build 0)  -->
<svg version="1.1" id="Layer_1" xmlns="http://www.w3.org/2000/svg" xmlns:xlink="http://www.w3.org/1999/xlink" x="0px" y="0px"
	 viewBox="0 0 91 91" style="enable-background:new 0 0 91 91;" xml:space="preserve">
<style type="text/css">
	.st0{fill:#FDF5EA;stroke:#5B5B4B;stroke-linecap:round;stroke-miterlimit:10;}
</style>
<g>
	<g>
		<path class="st0" d="M86.7,23.5c0,0-1-1.8-2.9-1.7c0,0-76.8,0.8-79,0.7c-1.9-0.2-2.9,1.7-2.9,1.7S2,67.6,3,69.4c0,0,1,1.8,2.9,1.7
			c0,0,11.6,0,25.8,0c0-0.1,0-0.3,0.2-0.4c0.4-0.3,12.2-12.5,12.2-12.5c0.3-0.3,0.9,0,0.9,0c1.5,1.2,12.3,12.3,12.3,12.3
			s0.1,0.2,0.1,0.4c12.7-0.1,23.5-0.3,25.7-0.6c1.9-0.2,2.9-1.7,2.9-1.7S87.2,28.5,86.7,23.5z"/>
		<path class="st0" d="M45.2,58.1c0,0-0.7-0.4-0.9,0c0,0-11.9,12.2-12.2,12.5c-0.1,0.1-0.2,0.2-0.2,0.4c8.2,0,17.4-0.1,25.7-0.1
			c0-0.2-0.1-0.4-0.1-0.4S46.7,59.4,45.2,58.1z"/>
	</g>
	<g>
		<path class="st0" d="M36.3,46.6c0-0.2,0-0.4,0-0.6c0-0.8-0.1-1.5-0.3-2.3c-0.2-0.8-0.5-1.7-0.8-2.5c0,0-0.1-0.1-0.2-0.2
			c-0.5-1.4-1.2-2.5-2.2-3.4c-0.9-1-2-1.8-3.3-2.2c-0.7-0.4-1.3-0.7-2.1-1.1c0,0-0.5,0-1.3,0c-0.9-0.3-1.7-0.4-2.6-0.4
			c-0.2,0-0.4,0-0.6,0c-0.8,0-1.5,0.1-2.3,0.3c-0.8,0.2-1.7,0.5-2.5,0.8c0,0-0.1,0.1-0.2,0.2c-1.4,0.5-2.5,1.2-3.4,2.2
			c-1,0.9-1.8,2-2.2,3.3c-0.4,0.7-0.7,1.3-1.1,2.1c0,0,0,0.5,0,1.3c-0.3,0.9-0.4,1.7-0.4,2.6c0,0.2,0,0.4,0,0.6
			c0,0.8,0.1,1.5,0.3,2.3c0.2,0.8,0.5,1.7,0.8,2.5c0,0,0.1,0.1,0.2,0.2c0.5,1.4,1.2,2.5,2.2,3.4c0.9,1,2,1.8,3.3,2.2
			c0.7,0.4,1.3,0.7,2.1,1.1c0,0,0.5,0,1.3,0c0.9,0.3,1.7,0.4,2.6,0.4c0.2,0,0.4,0,0.6,0c0.8,0,1.5-0.1,2.3-0.3
			c0.8-0.2,1.7-0.5,2.5-0.8c0,0,0.1-0.1,0.2-0.2c1.4-0.5,2.5-1.2,3.4-2.2c1-0.9,1.8-2,2.2-3.3c0.4-0.7,0.7-1.3,1.1-2.1
			c0,0,0-0.5,0-1.3C36.2,48.3,36.4,47.4,36.3,46.6z"/>
		<path class="st0" d="M78.7,46.2c0-0.2,0-0.4,0-0.6c0-0.8-0.1-1.5-0.3-2.3c-0.2-0.8-0.5-1.7-0.8-2.5c0,0-0.1-0.1-0.2-0.2
			c-0.5-1.4-1.2-2.5-2.2-3.4c-0.9-1-2-1.8-3.3-2.2c-0.7-0.4-1.3-0.7-2.1-1.1c0,0-0.5,0-1.3,0c-0.9-0.3-1.7-0.4-2.6-0.4
			c-0.2,0-0.4,0-0.6,0c-0.8,0-1.5,0.1-2.3,0.3c-0.8,0.2-1.7,0.5-2.5,0.8c0,0-0.1,0.1-0.2,0.2c-1.4,0.5-2.5,1.2-3.4,2.2
			c-1,0.9-1.8,2-2.2,3.3c-0.4,0.7-0.7,1.3-1.1,2.1c0,0,0,0.5,0,1.3c-0.3,0.9-0.4,1.7-0.4,2.6c0,0.2,0,0.4,0,0.6
			c0,0.8,0.1,1.5,0.3,2.3c0.2,0.8,0.5,1.7,0.8,2.5c0,0,0.1,0.1,0.2,0.2c0.5,1.4,1.2,2.5,2.2,3.4c0.9,1,2,1.8,3.3,2.2
			c0.7,0.4,1.3,0.7,2.1,1.1c0,0,0.5,0,1.3,0c0.9,0.3,1.7,0.4,2.6,0.4c0.2,0,0.4,0,0.6,0c0.8,0,1.5-0.1,2.3-0.3
			c0.8-0.2,1.7-0.5,2.5-0.8c0,0,0.1-0.1,0.2-0.2c1.4-0.5,2.5-1.2,3.4-2.2c1-0.9,1.8-2,2.2-3.3c0.4-0.7,0.7-1.3,1.1-2.1
			c0,0,0-0.5,0-1.3C78.7,47.9,78.8,47.1,78.7,46.2z"/>
	</g>
</g>
</svg>
