<?xml version="1.0" encoding="utf-8"?>
<!-- Generator: Adobe Illustrator 22.1.0, SVG Export Plug-In . SVG Version: 6.00 Build 0)  -->
<svg version="1.1" id="Layer_1" xmlns="http://www.w3.org/2000/svg" xmlns:xlink="http://www.w3.org/1999/xlink" x="0px" y="0px"
	 viewBox="0 0 91 91" style="enable-background:new 0 0 91 91;" xml:space="preserve">
<style type="text/css">
	.st0{fill:#FDF5EA;stroke:#5B5B4B;stroke-linecap:round;stroke-miterlimit:10;}
</style>
<g>
	<path class="st0" d="M68.8,87.2c-2.4-12.9-6-18.4-10.5-20.9c0,0-26.7-9.6-33.8,15.6c-0.5,2.1-0.9,4-1.2,5.8L68.8,87.2L68.8,87.2z"
		/>
	<path class="st0" d="M87.3,7.1c0,0,0.3-0.9-0.7-0.9C37.1,4.5,3.4,6.8,3.4,6.8c-0.9,0.1-0.7,1-0.7,1s0.1,28.2,0.6,57.6l84.8-0.7
		L87.3,7.1z"/>
	<path class="st0" d="M4.5,79.2c31.9,0.4,82.7-0.7,82.7-0.7c0.9-0.1,0.7-0.6,0.7-0.6c0.2-2.6,0.2-5.6,0.3-8.7l0-5L3.4,64.9
		c0.1,4.5,0.3,9.2,0.4,13.6C3.8,78.6,3.5,79.1,4.5,79.2z"/>
	<path class="st0" d="M76.5,16.3c0,0,0.2-0.6-0.5-0.6c-36.4-1-61.1,0.5-61.1,0.5c-0.8,0.1-0.5,0.6-0.5,0.6s0.2,18.4,0.5,37.8
		l62.2-0.5L76.5,16.3z"/>
</g>
</svg>
