<?xml version="1.0" encoding="utf-8"?>
<!-- Generator: Adobe Illustrator 19.0.0, SVG Export Plug-In . SVG Version: 6.00 Build 0)  -->
<svg version="1.1" id="Layer_1" xmlns="http://www.w3.org/2000/svg" xmlns:xlink="http://www.w3.org/1999/xlink" x="0px" y="0px"
	 viewBox="0 0 150 150" style="enable-background:new 0 0 150 150;" xml:space="preserve">
<g>
	<path style="fill:#64B133;" d="M47.2,44c-2.5,3-5.2,5.6-7.2,8.7c-10.3,15.7-9.1,36.5,3,51c12,14.4,32,19.5,49.2,12.3
		c2.1-0.9,3.9-1,6.1-0.4c9.8,2.8,19.7,2.4,29.7,0.4c0.8-0.2,1.7-0.3,2.5-0.4c0.2,1.5-0.9,2.2-1.5,3c-17.4,20.5-39.5,29.2-65.8,24
		c-27.1-5.4-44.6-22.4-52.4-48.9c-2.7-9.1-4.2-18.7-0.9-28c5.7-16.3,20.7-25.4,36.2-22.1C46.4,43.6,46.7,43.8,47.2,44z"/>
	<path style="fill:#5981D7;" d="M23.1,34.3C34.1,20,48.8,11.4,66.6,9.1c37.2-4.8,69.4,18.9,76.3,55.6c1.3,7.1,1.9,14.4-0.1,21.6
		c-3.5,12.8-13.5,20.2-27.8,20.8c-2.6,0.1-5.2,0.4-7.7-0.4c0.2-1.6,1.3-2.3,2.1-3.2c12.3-14.9,13.1-36.2,2.1-51.9
		c-11.3-16.1-31.7-22.5-50.1-15.8c-1.3,0.5-2.3,1-3.8,0.2c-10.5-5.8-21.4-6.2-32.4-1.5c-0.5,0.2-1,0.3-1.4,0.4
		C23.4,34.7,23.2,34.5,23.1,34.3z"/>
	<path style="fill:#5981D7;" d="M65.5,42.5c12-5.1,29-0.1,38,10.9c12,14.6,10.6,35.8-3.1,48.8c-3.4,3.2-4.9,3.3-8.1-0.1
		c-5.5-6-8.4-13.5-11.1-21c-2.6-7.3-4.5-14.8-7-22.1C72.3,53,69.3,47.5,65.5,42.5z"/>
	<path style="fill:#64B133;" d="M55,104.8c-18.7-13.4-19.3-42.3-1.6-56.1c1.5-1.2,2.5-1.5,4.2-0.3c7.3,5.6,9.9,13.8,13,21.9
		c0.5,1.4-0.6,2.6-1.2,3.8C64.5,84.1,58.4,93.6,55,104.8z"/>
	<path style="fill:#64B133;" d="M73.2,78c3.8,11.4,5.7,22.8,13.8,32.1c-7.5,2.4-14.6,2.2-21.7,0c-1.5-0.4-1.4-1.5-1.4-2.7
		c-0.1-3.5,0.5-7,1.6-10.3C67.5,90.8,70,84.6,73.2,78z"/>
	<path style="fill:#5981D7;" d="M23.6,34.9C23.3,35,23,35,22.7,35c0.1-0.2,0.2-0.5,0.3-0.7C23.2,34.5,23.4,34.7,23.6,34.9z"/>
</g>
</svg>
