<?xml version="1.0" encoding="utf-8"?>
<!-- Generator: Adobe Illustrator 19.0.0, SVG Export Plug-In . SVG Version: 6.00 Build 0)  -->
<svg version="1.1" id="Layer_1" xmlns="http://www.w3.org/2000/svg" xmlns:xlink="http://www.w3.org/1999/xlink" x="0px" y="0px"
	 viewBox="0 0 278.8 107.2" style="enable-background:new 0 0 278.8 107.2;" xml:space="preserve">
<g>
	<path style="fill:#FD521D;" d="M92.3,77.9c4.3-6.9,8.2-13.2,12.2-19.5c1.5-2.3,2.9-4.4,6.3-4.9c4.3-0.7,6,0,6.1,4.5
		c0.2,7.4-1.5,14.6-2.5,21.8c-0.5,3.8-1,7.6-0.4,11.4c0.6,3.8,2.7,4.7,6.1,3.4c4.3-1.7,6.8-4.5,7.5-9.5c2.6-18.2,3-36.7,7.1-54.7
		c1.7-7.3,4.2-14.4,8.1-20.9c3.2-5.4,7.5-9.7,14.6-9.5c3.9,0.1,6.2,2.1,7.4,5.8c3.3,9.2,1.8,18.1-1.3,27
		c-2.8,7.9-7.2,14.9-11.8,21.7c0.4,0.4,0.6,0.9,0.8,0.9c12.1-1.3,19.1,5.8,17.9,18c-0.6,6.1-2.7,11.8-5.3,17.7
		c9.7-1.7,15-6.7,16.9-15.2c1.7-7.5,5.5-13.8,10.7-19.4c4.1-4.4,9.5-5.1,14.8-5.5c4.7-0.3,7.8,2.7,8.9,7.3
		c1.8,8.1,0.8,15.2-5.9,21.2c-4.1,3.7-8.3,7-13.5,9c-2.9,1.1-3,3-0.4,4.6c3.8,2.2,7.6,3.4,12.2,1.3c4.7-2.1,9.2-4.6,13.5-7.5
		c3.1-2.1,3.9-5,4.5-8.4c1.3-7.4,2.3-14.7,4.5-21.9c0.9-3.1,2.7-4.7,5.7-4.3c3.2,0.4,2.2,3.3,2.3,5.2c0.2,4.1,0.1,8.1,1.1,12.4
		c0.8-1.5,1.6-3.1,2.4-4.6c1.6-2.7,3.1-5.5,4.9-8.1c1.9-2.5,4.4-5.4,7.8-4.3c3.4,1,2.2,4.7,2.3,7.4c0.1,4-0.2,8,0,12
		c0.4,7.8,4,10,11.3,7.3c2-0.8,3.8-2,5.8-2.9c2.8-1.4,4.2-0.6,3.9,2.7c-0.2,2.6-0.8,4.8-3.3,6.1c-2.4,1.2-4.6,2.7-7.1,3.6
		c-12.3,4.3-17.3-1.1-19.1-12.8c-0.4-2.8-0.2-2.8-1.9-5.4c-1.6,1.4-2,3.4-2.6,5.1c-3.1,8.6-6.1,17.2-9.4,25.8
		c-0.9,2.4-2.1,5.4-5.2,5.3c-3.1-0.1-4.2-2.4-4.8-5.4c-0.4-2-1.7-3.8-4.4-1.4c-4,3.7-9,5.7-14.4,6.5c-9.3,1.4-17.3-0.8-22.8-8.9
		c-1.9-2.7-3.4-2.9-6.1-1.4c-9,5-18.9,7.4-28.8,9.6c-6.4,1.5-12.6,0.4-18.3-3.1c-2.6-1.6-4.7-1.8-7.3,0c-3.1,2.1-6.6,3.2-10.7,3.3
		c-4.5,0.1-6.4-1.6-7.4-5.4c-1.4-5.6-1.1-11.2-0.9-16.9c0.1-3.1,0-6.1,0-9.7c-2.6,1.5-2.9,3.7-3.8,5.5c-3,6.5-5.1,13.4-7.4,20.1
		c-1.2,3.4-2.4,7.3-7.5,6.2c-4.6-1-5.1-4.5-5.2-8.4c-0.2-7.7,2-15.1,2.3-23.1c-3.2,0.8-3.8,3.5-4.8,5.6c-3.3,7.1-6.4,14.3-9.8,21.3
		c-1.2,2.5-2.6,4.7-6.3,4.7c-2.9,0-4.8-0.8-5.3-3.3c-1-4.2-3-3.4-5.6-1.7c-4.7,3-10,4.4-15.5,5.1c-9.7,1.1-16.3-2.5-19.7-11.6
		c-1.4-3.7-3.4-5.3-7.1-5.7c-1.8-0.2-3.5-0.8-5.3-1.2c-3.2-0.7-4-2.5-2.8-5.5c1.1-2.9,2.6-3.1,5.4-1.8c6.3,3,8.1,2.1,9.5-4.9
		c1.1-5.5,3.1-10.5,6.3-15.1c3.6-5.1,8.5-7.8,14.7-8c11.2-0.4,17.5,10.3,12,20.6c-3.6,6.7-9.7,10.8-16.4,14.1
		c-1.9,0.9-5.3,1.1-4.4,4.3c1,3.4,4.3,5,7.5,4.5c7.5-1.1,14.3-4.5,20.2-9.2c3.8-3.1,2.4-8.2,3.2-12.3c1.2-6.2,2.6-12.4,4.1-18.5
		c0.9-3.9,3.8-4.4,7-3.9c3.5,0.5,3.1,3.5,2.9,5.9c-0.4,4.3-1.2,8.6-1.7,12.9c-0.1,1.2-1.1,3,0.4,3.6c1.8,0.7,2.3-1.4,3-2.6
		c2.2-3.6,4.1-7.2,6.3-10.8c1.8-3,4-5.7,7.3-7.3c5.1-2.4,7.2-1.2,7.2,4.4c0,3.7-0.8,7.2-1.7,10.8C92.6,71.7,91.2,74.1,92.3,77.9z
		 M158.9,77.6c0.2-7.1-2.2-11.6-6.7-12.4c-5.5-1-9.7,1.8-12.3,8.5c-2.3,5.9-3.3,12.2-3.7,18.5c-0.3,4.2,2.4,6.4,6.6,5.9
		C153,96.8,158.6,89.6,158.9,77.6z M139.3,56.4c7.5-12.1,14.5-24.3,17.9-38.2c0.3-1.1,0.4-2.3,0.4-3.4c-0.1-1.9-0.4-4-2.3-4.7
		c-2.2-0.8-3.3,1.3-4.2,2.7c-2.7,4.5-5.3,9-6.5,14.3C142.6,36.8,139,46.2,139.3,56.4z M192.7,77.4c-0.2,2-0.1,3.6,2.6,3.7
		c6.8,0.2,14.4-10,12.2-16.4c-1.5-4.4-5.2-5.4-8.3-2.1C195.3,66.8,193.3,71.8,192.7,77.4z M25.8,77.1c-0.1,2-0.5,4,2.4,4
		c5.6-0.1,13.4-7.9,13.4-13.5c0-2.5-0.9-4.5-3.2-5.7c-2.2-1.2-3.9,0.1-5.4,1.3C28.5,66.8,26.6,71.8,25.8,77.1z M70.6,76.3
		c-0.1-0.1-0.2-0.2-0.3-0.2c-0.4,0.1-0.5,0.4-0.1,0.6c0.1,0,0.2,0,0.3-0.1C70.6,76.6,70.6,76.4,70.6,76.3z"/>
	<path style="fill:#FEFEFE;" d="M70.6,76.3c0,0.1,0,0.2,0,0.3c-0.1,0.1-0.2,0.2-0.3,0.1c-0.4-0.2-0.4-0.5,0.1-0.6
		C70.4,76.1,70.5,76.3,70.6,76.3z"/>
</g>
</svg>
