<?xml version="1.0" encoding="utf-8"?>
<!-- Generator: Adobe Illustrator 19.0.0, SVG Export Plug-In . SVG Version: 6.00 Build 0)  -->
<svg version="1.1" id="Layer_1" xmlns="http://www.w3.org/2000/svg" xmlns:xlink="http://www.w3.org/1999/xlink" x="0px" y="0px"
	 viewBox="0 0 380.1 84.3" style="enable-background:new 0 0 380.1 84.3;" xml:space="preserve">
<g>
	<path style="fill:#4E5A65;" d="M119.2,16.6C127.6,2.1,140-3.3,153.7,2.1c8.1,3.2,12.6,9.6,14.9,17.6c2.9,9.9,2.6,19.8-1.5,29.3
		c-4.3,9.8-11.8,15.5-22.8,15.6c-10.9,0.1-18.9-4.4-23.5-14.5c-0.3-0.6-0.5-1.2-0.8-1.8c0-0.1-0.3,0-0.7,0c0,10.9,0,21.9,0,32.8
		c0,1.1,0.8,3.2-1.2,3.1c-1.9,0-1.3-2-1.3-3.2c0-25.3,0-50.6,0-75.9c0-1.2-0.6-3.3,1.1-3.3c2.3-0.1,1.3,2.2,1.3,3.5
		C119.3,9,119.2,12.8,119.2,16.6z M168,32.2c-0.4-4.8-0.9-9.6-2.7-14.2c-3.6-9-9.7-14.6-19.6-15.1c-9.4-0.5-17,3.2-21.6,11.5
		c-6.6,11.7-6.6,24-0.8,35.9c4,8.2,11.4,11.9,20.4,12c8.7,0.1,15.2-3.8,19.7-11.4C166.7,45.1,167.6,38.7,168,32.2z"/>
	<path style="fill:#56616B;" d="M28.6,33.2c-7.5,0-15,0-22.5,0c-2.1,0-3.2,0.2-3.3,2.9C2.7,54.5,16.5,65.7,34.3,61.3
		c8-1.9,13-7,15.6-14.7c0.3-0.8,0.3-1.6,0.5-2.4c0.3-1.1,0.6-2.6,2.2-2c1.1,0.4,0.6,1.7,0.5,2.7c-1.4,10-10.9,18.6-21.8,19.6
		C13.4,66.1,3.4,58.2,0.6,39.6C-1.1,28,0.7,16.9,9.2,8c7.1-7.4,15.9-9.4,25.7-6.7c10.4,2.8,15.9,10.4,18.3,20.4
		c2.7,11.5,2.5,11.5-9,11.5C39,33.2,33.8,33.2,28.6,33.2z M27.2,30.4c6.6,0,13.3-0.2,19.9,0.1c3.4,0.1,4.5-0.7,4.2-4.4
		C50.1,12.4,40.5,2.8,27.5,2.8C14.9,2.7,3.9,13.7,3.1,27.1c-0.2,2.7,0.6,3.4,3.2,3.4C13.2,30.3,20.2,30.4,27.2,30.4z"/>
	<path style="fill:#56616B;" d="M240.6,33.2c-7.5,0-15,0-22.5,0c-2.1,0-3.2,0.2-3.2,2.9c-0.2,18.4,13.6,29.6,31.4,25.2
		c8-1.9,13-7,15.5-14.7c0.3-0.8,0.3-1.6,0.5-2.4c0.3-1.1,0.6-2.6,2.2-2c1.1,0.4,0.6,1.7,0.5,2.7c-1.4,10-10.9,18.6-21.8,19.6
		c-17.6,1.6-27.3-5.9-30.5-23.9c-2-11.6-0.4-22.7,7.7-31.8c6.9-7.8,15.9-10.1,25.9-7.6c10.7,2.7,16.4,10.3,18.7,20.6
		c2.7,11.4,2.5,11.5-9,11.5C250.9,33.2,245.8,33.2,240.6,33.2z M238.8,30.4c7.1,0,14.3-0.1,21.4,0.1c2.7,0.1,3.4-0.8,3.2-3.4
		c-0.6-6.3-2.4-12-6.7-16.8c-6.4-7.2-17.5-9.4-26.5-5.6C222,8.1,214.7,19.8,215,28.2c0.1,2.9,1.9,2.2,3.3,2.2
		C225.1,30.4,232,30.4,238.8,30.4z"/>
	<path style="fill:#4E5A65;" d="M319.6,20.2c-2.6-1.2-1.9-3.4-2.3-5c-1-4.3-3.2-7.8-7.1-9.7c-7.8-3.7-15.8-3.8-23.6-0.2
		c-4.8,2.2-7.1,6.3-6.8,11.7c0.3,5.5,3.5,8.4,8.3,10.1c8,2.8,16.5,4,24.4,7.3c5.8,2.4,9.4,6.3,9.6,12.7c0.2,6.8-2.8,12-9,14.8
		c-9.5,4.3-19.2,4.1-28.5-0.3c-6.9-3.3-9.3-9.6-9.6-16.9c0-1-0.3-2.2,1.1-2.3c1.1-0.1,1.1,0.9,1.3,1.7c4.1,16.2,16.7,22.6,32.5,16.4
		c6.3-2.4,9.6-6.8,9.6-12.6c0-5.6-2.9-9.8-9.5-12c-7.4-2.5-15-4.3-22.5-6.4c-6.3-1.8-10-5.7-10.2-12.5c-0.3-6.8,2.9-11.7,8.9-14.3
		c8.5-3.7,17.2-3.6,25.6,0.6C318,6.4,320.8,12.7,319.6,20.2z"/>
	<path style="fill:#4E5A65;" d="M377.6,20.2c-2.6-1.2-1.9-3.4-2.3-5c-1-4.3-3.2-7.8-7.1-9.7c-7.8-3.7-15.8-3.8-23.6-0.2
		c-4.8,2.2-7.1,6.3-6.8,11.7c0.3,5.5,3.5,8.4,8.3,10c8,2.8,16.5,4,24.4,7.3c5.8,2.4,9.4,6.3,9.6,12.7c0.2,6.8-2.8,12-9,14.8
		c-9.5,4.3-19.2,4.1-28.5-0.3c-6.9-3.3-9.3-9.6-9.6-16.9c0-1-0.3-2.2,1.1-2.3c1.1-0.1,1,1,1.2,1.7c4,16.2,16.7,22.6,32.5,16.4
		c6.3-2.4,9.6-6.8,9.6-12.6c0-5.6-3-9.8-9.5-12c-7.4-2.4-15.1-4.1-22.5-6.5c-7.3-2.3-9.9-5.9-10.2-12.5c-0.3-6.8,2.9-11.7,8.9-14.3
		c8.5-3.7,17.2-3.6,25.6,0.6C376,6.4,378.9,12.7,377.6,20.2z"/>
	<path style="fill:#4E5A65;" d="M61.6,1c8.3,8.5,14.2,19.2,22,28.2C91.4,20,97.7,9.8,105.7,1.1c0.5,0.4,1,0.8,1.5,1.2
		c-4.4,5.9-8.9,11.7-13.3,17.7c-2.8,3.9-8.1,7.4-7.8,11.7c0.3,3.9,5,7.5,7.8,11.2c5.1,6.7,10.3,13.3,15.5,20.1
		c-2.9,1.3-3.7-0.7-4.7-2.1c-6.2-8-12.5-16-18.6-24.1c-1.9-2.6-3-3.1-5.2-0.1c-6,8.2-12.3,16.1-18.5,24.2c-1,1.3-1.7,3.5-4.6,2.1
		c7.1-9.3,14.1-18.6,21.4-27.6c2.3-2.9,2.3-4.7,0-7.6c-6.6-8.3-12.8-16.9-19.2-25.3C60.6,1.8,61.1,1.4,61.6,1z"/>
	<path style="fill:#4E5A65;" d="M185.2,14.5c4.4-9.1,11.5-13.5,21.2-14.1c1-0.1,2.8-0.7,3,0.8c0.3,2.1-1.7,1.7-2.8,1.7
		c-10.7,0.1-20.7,8.1-21.3,24.3c-0.4,10.8-0.1,21.6-0.2,32.4c0,1.3,1,3.6-1.1,3.6c-2.2,0-1.3-2.3-1.3-3.6c-0.1-18,0-35.9,0-53.9
		c0-0.7,0-1.3,0-2c0.1-1,0.2-2.1,1.6-2c1.2,0.2,0.9,1.3,0.9,2C185.2,7.3,185.2,10.9,185.2,14.5z"/>
</g>
</svg>
