<?xml version="1.0" encoding="utf-8"?>
<!-- Generator: Adobe Illustrator 19.0.0, SVG Export Plug-In . SVG Version: 6.00 Build 0)  -->
<svg version="1.1"
	 id="svg2" xmlns:cc="http://creativecommons.org/ns#" xmlns:svg="http://www.w3.org/2000/svg" xmlns:sodipodi="http://sodipodi.sourceforge.net/DTD/sodipodi-0.dtd" xmlns:dc="http://purl.org/dc/elements/1.1/" xmlns:rdf="http://www.w3.org/1999/02/22-rdf-syntax-ns#" xmlns:inkscape="http://www.inkscape.org/namespaces/inkscape" sodipodi:docname="json_blog_post_logo_font_embed_small.svg" inkscape:version="0.91 r13725"
	 xmlns="http://www.w3.org/2000/svg" xmlns:xlink="http://www.w3.org/1999/xlink" x="0px" y="0px" viewBox="366.6 349.5 93.6 93.6"
	 style="enable-background:new 366.6 349.5 93.6 93.6;" xml:space="preserve">
<style type="text/css">
	.st0{fill:url(#path7508_1_);}
	.st1{fill:url(#path7510_1_);}
</style>
<sodipodi:namedview  id="base" bordercolor="#666666" borderopacity="1.0" inkscape:zoom="0.24748738" inkscape:cx="1849.9196" inkscape:cy="-637.41954" showgrid="false" units="px" fit-margin-left="25" fit-margin-top="25" showborder="true" pagecolor="#ffffff" fit-margin-right="25" fit-margin-bottom="25" inkscape:window-height="1089" inkscape:window-width="2048" inkscape:window-maximized="1" inkscape:pageshadow="2" inkscape:window-y="250" inkscape:window-x="1072" inkscape:document-units="px" inkscape:pageopacity="0.0" inkscape:current-layer="text3349">
	</sodipodi:namedview>
<g id="layer1" transform="translate(11.422664,-476.27379)" inkscape:label="Layer 1" inkscape:groupmode="layer">
</g>
<g id="layer3" transform="translate(11.422664,-23.91163)" inkscape:label="JSON swirl" inkscape:groupmode="layer">
	<g id="g3383" transform="matrix(0.58479193,0,0,0.58479193,331.14107,176.44319)">
		
			<linearGradient id="path7508_1_" gradientUnits="userSpaceOnUse" x1="-1715.4971" y1="-182.8167" x2="-1602.6504" y2="-295.6794" gradientTransform="matrix(0.5841 0 0 -0.584 1065.3102 255.2101)">
			<stop  offset="0" style="stop-color:#000000"/>
			<stop  offset="1" style="stop-color:#FFFFFF"/>
		</linearGradient>
		<path id="path7508" inkscape:connector-curvature="0" class="st0" d="M120.9,456c35.4,48.3,70-13.5,70-50.6
			c-0.1-43.9-44.5-68.4-70-68.4C80,337,41,370.8,41,417c0,51.4,44.6,79.9,79.8,79.9c-8-1.1-34.5-6.8-34.9-68
			c-0.2-41.3,13.5-57.9,34.8-50.6c0.5,0.2,23.5,9.3,23.5,39C144.3,446.8,120.9,456,120.9,456z"/>
		
			<linearGradient id="path7510_1_" gradientUnits="userSpaceOnUse" x1="-1513.7911" y1="-367.0761" x2="-1626.6378" y2="-254.2135" gradientTransform="matrix(0.5841 0 0 -0.584 1065.3102 255.2101)">
			<stop  offset="0" style="stop-color:#000000"/>
			<stop  offset="1" style="stop-color:#FFFFFF"/>
		</linearGradient>
		<path id="path7510" inkscape:connector-curvature="0" class="st1" d="M120.9,378.3c-23.4-8.1-52,11.2-52,49.8
			c0,63,46.7,68.8,52.4,68.8c40.9,0,79.8-33.8,79.8-80c0-51.4-44.6-79.9-79.8-79.9c9.7-1.4,52.5,10.5,52.5,69
			c0,38.1-32,58.9-52.7,50c-0.5-0.2-23.5-9.3-23.5-39C97.5,387.5,120.9,378.3,120.9,378.3z"/>
	</g>
</g>
<wappalyzerData  id="wappalyzerData" style="display: none"></wappalyzerData>
<script  id="wappalyzerEnvDetection" src="chrome-extension://gppongmhjkpfnbhagpmjfkannfbllamg/js/inject.js"></script>
</svg>
