<?xml version="1.0" encoding="utf-8"?>
<!-- Generator: Adobe Illustrator 19.0.0, SVG Export Plug-In . SVG Version: 6.00 Build 0)  -->
<svg version="1.1" id="Layer_1" xmlns="http://www.w3.org/2000/svg" xmlns:xlink="http://www.w3.org/1999/xlink" x="0px" y="0px"
	 viewBox="114.5 311.4 82.5 183.6" style="enable-background:new 114.5 311.4 82.5 183.6;" xml:space="preserve">
<style type="text/css">
	.st0{fill:#599636;}
	.st1{fill:#6CAC48;}
	.st2{fill:#C2BFBF;}
</style>
<path class="st0" d="M155.2,311.9c1.4,2.6,3.3,6.7,4.9,9.2c1.1,1.7,2.3,3.2,3.7,4.6c4.1,4.1,8,8.4,11.5,13
	c8.3,10.9,13.9,23,17.9,36.1c2.4,8,3.7,16.2,3.8,24.5c0.4,24.8-8.1,46.1-25.3,63.8c-2.8,2.8-5.8,5.4-9,7.7c-1.7,0-2.5-1.3-3.2-2.5
	c-1.3-2.2-2.1-4.7-2.5-7.2c-0.6-3-1-6-0.8-9.1c0-0.5,0-0.9,0-1.4C156.1,450.3,154.6,312.6,155.2,311.9z"/>
<path class="st1" d="M155.2,311.6c-0.2-0.4-0.4-0.1-0.6,0.1c0.1,2-0.6,3.8-1.7,5.5c-1.2,1.7-2.8,3-4.4,4.4
	c-8.9,7.7-15.9,17-21.5,27.4c-7.4,14-11.3,29-12.4,44.8c-0.5,5.7,1.8,25.8,3.6,31.6c4.9,15.4,13.7,28.3,25.1,39.5
	c2.8,2.7,5.8,5.2,8.9,7.6c0.9,0,1-0.8,1.2-1.4c0.4-1.3,0.7-2.6,0.9-3.9c0.9-5,1.4-10,2-15C156.3,451.6,155.5,312.1,155.2,311.6z"/>
<path class="st2" d="M160.1,476.9c0.2-2.3,1.3-4.2,2.5-6.1c-1.2-0.5-2.1-1.5-2.8-2.6c-0.6-1-1.1-2.2-1.5-3.3
	c-1.4-4.2-1.7-8.6-2.1-12.9l0,0l0,0c0-0.4,0-0.9,0-1.3l0,0c0-0.4,0-0.9,0-1.3c-0.5,0.4-0.6,3.8-0.6,4.3c-0.3,4.6-0.9,9.1-1.8,13.5
	c-0.3,1.8-0.5,3.6-1.6,5.2c0,0.2,0,0.4,0.1,0.7c1.8,5.3,2.3,10.7,2.6,16.2c0,0.7,0,1.3,0,2c0,2.4-0.1,1.9,1.9,2.7
	c0.8,0.3,1.7,0.4,2.5,1c0.6,0,0.7-0.5,0.7-0.9c-0.1-1.1-0.3-2.2-0.3-3.3c0-3.1-0.1-6.1,0-9.2C159.6,480,159.9,478.4,160.1,476.9z"/>
<wappalyzerData  id="wappalyzerData" style="display: none"></wappalyzerData>
<script  id="wappalyzerEnvDetection" src="chrome-extension://gppongmhjkpfnbhagpmjfkannfbllamg/js/inject.js"></script>
</svg>
