<svg xmlns="http://www.w3.org/2000/svg" xmlns:xlink="http://www.w3.org/1999/xlink" version="1.1" id="Capa_1" x="0px" y="0px" viewBox="0 0 422.67 422.67" style="enable-background:new 0 0 422.67 422.67;" xml:space="preserve">
<g>
	<path style="fill:#010002;" d="M211.335,422.67c116.531,0,211.335-94.804,211.335-211.335c0-2.3-0.975-4.487-2.682-6.031   s-3.991-2.284-6.267-2.057l-181.178,18.371c-4.463,0.455-7.722,4.438-7.267,8.909c0.455,4.471,4.389,7.706,8.909,7.267   l172.017-17.452c-4.723,103.404-90.325,186.063-194.874,186.063c-107.557,0.008-195.07-87.504-195.07-195.07   c0-104.842,83.139-190.631,186.949-194.915v194.915c0,4.487,3.642,8.129,8.129,8.129c4.487,0,8.129-3.642,8.129-8.129V8.129   c0-4.487-3.642-8.129-8.129-8.129C94.804,0,0,94.804,0,211.335S94.804,422.67,211.335,422.67z"/>
	<path style="fill:#010002;" d="M247.255,3.04c-2.357-0.406-4.78,0.26-6.609,1.796c-1.837,1.544-2.894,3.82-2.894,6.218v185.388   c0,2.309,0.984,4.511,2.707,6.056c1.504,1.341,3.43,2.073,5.422,2.073c0.293,0,0.593-0.016,0.886-0.049   c167.058-18.297,168.432-20.126,171.163-23.776c1.349-1.796,1.91-4.129,1.52-6.348C404.023,86.903,334.824,18.037,247.255,3.04z    M254.01,187.364V20.939c73.767,16.46,131.805,74.702,147.924,148.655C379.165,173.163,305.789,181.649,254.01,187.364z"/>
</g>
<g>
</g>
<g>
</g>
<g>
</g>
<g>
</g>
<g>
</g>
<g>
</g>
<g>
</g>
<g>
</g>
<g>
</g>
<g>
</g>
<g>
</g>
<g>
</g>
<g>
</g>
<g>
</g>
<g>
</g>
<wappalyzerData id="wappalyzerData" style="display: none"/><script id="wappalyzerEnvDetection" src="chrome-extension://gppongmhjkpfnbhagpmjfkannfbllamg/js/inject.js"/></svg>