<?xml version="1.0" encoding="utf-8"?>
<!-- Generator: Adobe Illustrator 19.0.0, SVG Export Plug-In . SVG Version: 6.00 Build 0)  -->
<svg version="1.1" id="Layer_1" xmlns="http://www.w3.org/2000/svg" xmlns:xlink="http://www.w3.org/1999/xlink" x="0px" y="0px"
	 viewBox="0 0 2000 2000" style="enable-background:new 0 0 2000 2000;" xml:space="preserve">
<g>
	<path style="fill:#3773A6;" d="M1,1010c0-8,0-16,0-24c0-8.5,0.3-16.9,0.6-25.4c1.3-40.3,4.8-80.5,11.4-120.3
		c7.4-44,18.6-86.9,36-128c20.7-48.8,48.9-92.4,89.4-127.2c42.4-36.3,91.4-57.7,146.9-64.3c17.6-2.1,35.3-1.1,52.9-1
		c46.5,0.1,93,0,139.5,0c174.3,0,348.6,0,522.9,0.1c4.7,0,6.3-1.1,6.2-6.1c-0.3-18.8-0.1-37.7-0.1-56.5c0-7.3,0.8-6.3-6.4-6.3
		c-158.1,0-316.3,0-474.4,0.1c-4.5,0-5.8-1.1-5.8-5.7c0.1-43.7,0-87.3-0.1-131c0-30.2,0.2-60.3-0.3-90.5c-0.2-12.1,0.2-23.9,3-35.7
		c8-33.8,27-60.9,52.4-83.8c27.5-24.7,59.5-42,93.6-55.4C719.9,29,773.2,18,827.5,10.9C876.8,4.5,926.3,2.1,976,1
		c15.3,0,30.7,0,46,0c20.8,0.9,41.6,1.7,62.4,2.7c18.1,0.9,36.1,3.1,54.1,5.1c9.4,1,18.8,1.8,28.1,3.2c13.3,2,26.5,4.3,39.7,6.8
		c23,4.4,45.8,9.5,68.3,16.3c22.6,6.9,44.9,14.8,66.3,24.8c30.4,14.3,58.7,31.9,83.3,54.7c29.1,26.9,49.8,59.2,59.9,97.9
		c5.1,19.6,5.1,39.4,5.1,59.4c-0.4,143.8-0.3,287.7-0.2,431.5c0,23.2-1.5,46.3-6.1,69.1c-12.7,63.5-44.7,114.2-99.7,149.4
		c-50.7,32.5-107.1,47.4-166.8,47.7c-158.7,0.7-317.3,0.3-476,0.2c-29.9,0-59.6,2.2-88.7,9.2c-60.4,14.6-109.7,45.9-144.5,97.9
		c-35.6,53.2-51.1,112.8-51.6,176.2c-0.6,78.2-0.2,156.3,0,234.5c0,4.4-1,5.5-5.5,5.5c-54.2-0.2-108.3-0.3-162.5,0
		c-30.9,0.2-60.1-6.9-88-19.6c-46.2-21-81.8-54.3-110.2-95.8c-30.3-44.4-49.4-93.7-62.7-145.5C8.2,1159.3,2,1085,1,1010z M642,242.4
		c0,48.3,39,87.5,87.3,87.6c48.3,0.1,87.6-39,87.7-87.2c0.1-48.3-38.9-87.7-87.1-87.8C681.1,154.9,642,193.8,642,242.4z"/>
	<path style="fill:#FED547;" d="M2001,862c0,90.3,0,180.7,0,271c-0.3,1.1-0.8,2.2-0.9,3.3c-3.6,26.2-8.5,52.2-15.1,77.9
		c-14.4,55.4-35.7,107.8-70.7,153.7c-45.5,59.7-104.9,96.8-179.4,109c-19.5,3.2-39.1,2.6-58.8,2.6c-130.5-0.4-261-0.2-391.5-0.2
		c-91.8,0-183.7,0-275.5-0.1c-5.1,0-6.4,1.3-6.3,6.3c0.3,18.3,0.1,36.7,0.1,55c0,7.6,0,7.6,7.8,7.6c157.5,0,315,0,472.5-0.1
		c4.7,0,6.2,1.1,6.2,6c-0.2,20.2,0.2,40.3,0.2,60.5c0.2,56.7,0.4,113.3,0.6,170c0,6.7-0.5,13.3-1.8,19.9
		c-5.8,31.2-21.2,57.2-42.9,79.8c-27.9,29-62,48.5-98.9,63.6c-59.9,24.5-122.8,36.1-186.7,43.2c-32.3,3.6-64.7,5.5-97.2,6.5
		c-56.6,1.6-113.2,0.8-169.7-4.2c-25.1-2.2-50.1-5.2-74.9-9.4c-33.1-5.6-65.7-13.2-97.5-23.8c-45.5-15.1-88.5-35.3-125.4-66.6
		c-34.7-29.4-59.6-65.2-70.7-109.9c-4.7-19.1-4.2-38.5-4.1-58c0.4-143.3,0.3-286.6,0.2-430c0-25.4,1.8-50.6,7.4-75.4
		c15.3-67.9,53.1-119.2,114.4-152.5c47.2-25.7,98.1-38,151.6-38.1c159.3-0.5,318.6-0.2,478-0.2c31.6,0,62.8-3,93.4-11.2
		c50.1-13.5,92.6-39,125-79.8c42.8-53.9,61.8-116.7,63.2-184.3c1.7-80.6,0.5-161.3,0.4-242c0-4.8,1.3-6.1,6.1-6
		c54.3,0.2,108.7,0.2,163,0.1c27.6-0.1,53.9,5.8,79.2,16.2c46.5,19.2,82.8,50.9,112.2,91.1c26.6,36.4,44.2,77.2,58.4,119.6
		c10.7,32,17.8,64.8,23.2,98.1C1997.7,841.4,1999.4,851.7,2001,862z M1192.9,1756.6c0,48.6,38.7,87.4,87.1,87.5
		c48.6,0.1,87.8-39.1,87.8-87.5c-0.1-48.2-39.3-87.3-87.5-87.4C1231.9,1669.2,1192.9,1708.2,1192.9,1756.6z"/>
</g>
</svg>
