<?xml version="1.0" encoding="utf-8"?>
<!-- Generator: Adobe Illustrator 22.1.0, SVG Export Plug-In . SVG Version: 6.00 Build 0)  -->
<svg version="1.1" id="Layer_1" xmlns="http://www.w3.org/2000/svg" xmlns:xlink="http://www.w3.org/1999/xlink" x="0px" y="0px"
	 viewBox="0 0 90 91.3" style="enable-background:new 0 0 90 91.3;" xml:space="preserve">
<style type="text/css">
	.st0{fill:#FDF5EA;stroke:#5B5B4B;stroke-linecap:round;stroke-miterlimit:10;}
</style>
<g>
	<path id="XMLID_655_" class="st0" d="M18.2,3.1c0,0-0.6-0.3-0.6,0.7c-0.4,32.6,0.7,84.5,0.7,84.5c0.1,1,0.6,0.7,0.6,0.7
		c18.5,1.2,52.8-0.5,52.8-0.5s0.6,0.3,0.6-0.7c0.9-50.6-0.8-85-0.8-85c-0.1-1-0.6-0.7-0.6-0.7S42.1,2.3,18.2,3.1z"/>
	<path id="XMLID_654_" class="st0" d="M61.2,12.4c0,0,1.5-0.2,1.5,1c0,0,1.9,21.4,0.4,47.8c-0.1,1.3-1.5,1-1.5,1s-19.3,0.4-32.9-0.2
		c0,0-1.5,0.2-1.5-1c0,0-1.4-20.4-0.4-46.9c0.1-1.3,1.5-1,1.5-1L61.2,12.4z"/>
	<path id="XMLID_656_" class="st0" d="M49,69.9c0,0-8.6-3.1-10.9,5c-2.3,8.1,4.9,9.8,5.9,9.6c1-0.1,9.4-0.9,8.6-6.2
		C51.9,73,50.6,70.8,49,69.9z"/>
</g>
</svg>
