<?xml version="1.0" encoding="utf-8"?>
<!-- Generator: Adobe Illustrator 22.1.0, SVG Export Plug-In . SVG Version: 6.00 Build 0)  -->
<svg version="1.1" id="Layer_1" xmlns="http://www.w3.org/2000/svg" xmlns:xlink="http://www.w3.org/1999/xlink" x="0px" y="0px"
	 viewBox="0 0 361 221.9" style="enable-background:new 0 0 361 221.9;" xml:space="preserve">
<style type="text/css">
	.st0{opacity:0.1;}
	.st1{fill:#5B5B4B;stroke:#5B5B4B;stroke-linecap:round;stroke-miterlimit:10;}
	.st2{fill:none;stroke:#5B5B4B;stroke-linecap:round;stroke-miterlimit:10;}
	.st3{fill:#FDF5EA;stroke:#5B5B4B;stroke-linecap:round;stroke-miterlimit:10;}
</style>
<g class="st0">
	<g>
		<g id="XMLID_24873_">
			<path id="XMLID_24885_" class="st1" d="M233.8,48.2c0,0-1.5-26.7-19.6-18.8s-7.9,83.5,38,72.6s27.4-70.3,27.4-70.3
				s-19.1-17-22.5,12.4c0,0-1,19.7-10,21.3C238.2,66.9,232.9,53.1,233.8,48.2z"/>
			<g id="XMLID_24883_">
				<path id="XMLID_24884_" class="st1" d="M210.7,64.6c0,0-31.6,31.2-25.2-27.1c0,0-7.5-18.1-22.2-10.5s-17,100,53.7,74.1
					c0,0,19-7.3,24.1-11"/>
			</g>
			<line id="XMLID_24882_" class="st2" x1="178.4" y1="98.2" x2="181.4" y2="99.5"/>
			<path id="XMLID_24881_" class="st1" d="M247.3,78.4c0,0,1.1,2.4-0.7,3.5"/>
			<path id="XMLID_24880_" class="st1" d="M278.7,73.4c0,0-0.5,2.2-1.1,2.9"/>
			<path id="XMLID_24879_" class="st1" d="M261,43c0,0,0.9-4.1,0-4.1"/>
			<path id="XMLID_24878_" class="st1" d="M170.6,29.3c0,0,3.9,0.5,3.5,1.2"/>
			<path id="XMLID_24877_" class="st1" d="M195.5,78.6c0,0,4.5-0.6,4.8-1.5"/>
			<path id="XMLID_24876_" class="st1" d="M218.3,33.1c0,0-3,1.4-3.8,2.8"/>
			<line id="XMLID_24875_" class="st2" x1="247.1" y1="67.9" x2="250.2" y2="67"/>
			<line id="XMLID_24874_" class="st2" x1="253.8" y1="97.2" x2="256.9" y2="96.3"/>
		</g>
		<g id="XMLID_24859_">
			<path id="XMLID_24872_" class="st1" d="M133.4,37.2"/>
			<path id="XMLID_24869_" class="st1" d="M156.2,31.9c-36.3-26.7-64.7,6.8-64.7,6.8s-23.3,53.4,21.1,67.5
				C156.9,120.4,192.6,58.6,156.2,31.9z M136.4,68.7c-8.4,21.9-34.4-12.5-15.9-15C120.5,53.7,144.8,46.8,136.4,68.7z"/>
			<path id="XMLID_24868_" class="st1" d="M142,28.5"/>
			<line id="XMLID_24867_" class="st2" x1="100.5" y1="95.5" x2="103.4" y2="96.8"/>
			<path id="XMLID_24866_" class="st1" d="M145.1,98.2c0,0-0.5,2.6-2.6,2.4"/>
			<path id="XMLID_24865_" class="st1" d="M139.7,69.2c0,0-0.5,2.2-1.1,2.9"/>
			<path id="XMLID_24864_" class="st1" d="M166.3,67.4c0,0,0.9-4.1,0-4.1"/>
			<path id="XMLID_24863_" class="st1" d="M139.8,27.9c0,0,3.9,0.5,3.5,1.2"/>
			<path id="XMLID_24862_" class="st1" d="M114.9,75.7c0,0,3.8,2.6,4.5,2.1"/>
			<path id="XMLID_24861_" class="st1" d="M98.1,39.5c0,0-3,1.4-3.8,2.8"/>
			<line id="XMLID_24860_" class="st2" x1="115.6" y1="51" x2="118.8" y2="50.2"/>
		</g>
		<g id="XMLID_24848_">
			<path id="XMLID_24858_" class="st1" d="M48,29.2c0,0-3.8-18.4-21.8-11.9S17,93.5,25.3,98.9C33.7,104.3,57,137.5,48,29.2z"/>
			<path id="XMLID_24857_" class="st1" d="M43.8,62.7c0,0,31.6-31.2,25.2,27.1c0,0,7.5,18.1,22.2,10.5
				c14.7-7.5,16.9-100.1-53.8-74.1"/>
			<line id="XMLID_24856_" class="st2" x1="33.7" y1="98.2" x2="36.7" y2="99.5"/>
			<path id="XMLID_24855_" class="st1" d="M87.7,90.3c0,0,1.1,2.4-0.7,3.5"/>
			<path id="XMLID_24854_" class="st1" d="M94.7,60.4c0,0-0.5,2.2-1.1,2.9"/>
			<path id="XMLID_24853_" class="st1" d="M44.5,79c0,0,0.9-4.1,0-4.1"/>
			<path id="XMLID_24852_" class="st1" d="M66.7,50.6c0,0,3.9,0.5,3.5,1.2"/>
			<path id="XMLID_24851_" class="st1" d="M29.1,70.1c0,0,4.5-0.6,4.8-1.5"/>
			<path id="XMLID_24850_" class="st1" d="M51.9,27.1c0,0-3,1.4-3.8,2.8"/>
			<line id="XMLID_24849_" class="st2" x1="24.9" y1="32" x2="28" y2="31.1"/>
		</g>
		<g id="XMLID_24837_">
			<path id="XMLID_24847_" class="st1" d="M67.5,91.7c0,0-3.8-18.4-21.8-11.9c-18.1,6.4-9.2,76.2-0.8,81.6
				C53.2,166.7,76.6,199.9,67.5,91.7z"/>
			<path id="XMLID_24846_" class="st1" d="M63.4,125.1c0,0,31.6-31.2,25.2,27.1c0,0,7.5,18.1,22.2,10.5
				c14.7-7.5,16.9-100.1-53.8-74.1"/>
			<line id="XMLID_24845_" class="st2" x1="54.3" y1="163.1" x2="57.3" y2="164.4"/>
			<path id="XMLID_24844_" class="st1" d="M108.3,155.3c0,0,1.1,2.4-0.7,3.5"/>
			<path id="XMLID_24843_" class="st1" d="M115.3,125.4c0,0-0.5,2.2-1.1,2.9"/>
			<path id="XMLID_24842_" class="st1" d="M65.1,144c0,0,0.9-4.1,0-4.1"/>
			<path id="XMLID_24841_" class="st1" d="M87.3,115.6c0,0,3.9,0.5,3.5,1.2"/>
			<path id="XMLID_24840_" class="st1" d="M49.7,135c0,0,4.5-0.6,4.8-1.5"/>
			<path id="XMLID_24839_" class="st1" d="M72.5,92.1c0,0-3,1.4-3.8,2.8"/>
			<line id="XMLID_24838_" class="st2" x1="45.5" y1="96.9" x2="48.6" y2="96.1"/>
		</g>
		<g>
			<g id="XMLID_24835_">
				<path id="XMLID_24836_" class="st1" d="M131.6,123c0,0,5.1-26.8-17.5-19.2c-22.6,7.6-9,66.3,3,63.8
					C129.1,165,134.6,155.6,131.6,123z"/>
			</g>
			<line id="XMLID_24834_" class="st2" x1="112.5" y1="160.2" x2="115.5" y2="161.5"/>
			<path id="XMLID_24833_" class="st1" d="M127.4,150.8c0,0,1.1,2.4-0.7,3.5"/>
			<path id="XMLID_24832_" class="st1" d="M109.2,116.2c0,0-0.5,2.2-1.1,2.9"/>
			<path id="XMLID_24831_" class="st1" d="M128.1,117.6c0,0,0.9-4.1,0-4.1"/>
			<path id="XMLID_24830_" class="st1" d="M117.8,105.8c0,0,3.9,0.5,3.5,1.2"/>
		</g>
		<g>
			<path id="XMLID_24829_" class="st1" d="M119.3,67.3c0,0,25.5,14.6,0.4,25.4S102.3,54,119.3,67.3z"/>
			<path id="XMLID_24828_" class="st1" d="M114.8,91.1c0,0,4.5-0.6,4.8-1.5"/>
			<path id="XMLID_24827_" class="st1" d="M112.4,69.1c0,0-3,1.4-3.8,2.8"/>
		</g>
		<g id="XMLID_24812_">
			<path id="XMLID_24826_" class="st1" d="M161.5,109.8"/>
			<path id="XMLID_24823_" class="st1" d="M181.7,105.2c-32.1-23.6-57.2,6-57.2,6s-20.6,47.1,18.6,59.6S213.8,128.8,181.7,105.2z
				 M165,138c-8.2,21.2-33.3-12.1-15.4-14.5C149.7,123.5,173.2,116.8,165,138z"/>
			<path id="XMLID_24822_" class="st1" d="M169.1,102.2"/>
			<path id="XMLID_24821_" class="st1" d="M169.1,102.2c0,0,25-26.7,25.6,23.5s9,96-39.1,95.7c0,0-26.1-12.2,0-25.1
				c12.8-6.3,15.3-19.4,15.1-35.8"/>
			<line id="XMLID_24820_" class="st2" x1="153.2" y1="214.9" x2="156.2" y2="216.2"/>
			<path id="XMLID_24819_" class="st1" d="M179.1,209.9c0,0,1.1,2.4-0.7,3.5"/>
			<path id="XMLID_24818_" class="st1" d="M192,184.7c0,0-0.5,2.2-1.1,2.9"/>
			<path id="XMLID_24817_" class="st1" d="M189.6,152.6c0,0,0.9-4.1,0-4.1"/>
			<path id="XMLID_24816_" class="st1" d="M134.5,163.2c0,0,3.9,0.5,3.5,1.2"/>
			<path id="XMLID_24815_" class="st1" d="M181.5,121.8c0,0,4.5-0.6,4.8-1.5"/>
			<path id="XMLID_24814_" class="st1" d="M134.8,109.5c0,0-3,1.4-3.8,2.8"/>
			<line id="XMLID_24813_" class="st2" x1="167.2" y1="144.3" x2="164.4" y2="145.9"/>
		</g>
		<path id="XMLID_24811_" class="st1" d="M225.4,108c0,0-6.7-4.7-9.5-1c-2.9,3.7-7.8,9.9-2,22s27.9,2.1,30-3.6"/>
		<g>
			<path id="XMLID_24810_" class="st1" d="M251.3,117.7L251.3,117.7c-4.2-11.2-13.4-20-27.5-21.5c-28.1-2.8-39.7,15.4-44.1,26.5
				c0,0-1,1.7-1.7,4.9c-0.6,1.9-0.7,3.6-0.6,4.3c-0.4,6.1,0.6,15.1,6.3,27c4.6,9.7,16.4,13.2,24.2,14.4c2.2,0.5,4.6,0.7,7.1,0.7
				c0.1,0,0.2,0,0.2,0l0,0c2.7,0,5.6-0.4,8.7-1.1c12.3-2.8,20.8-10.7,25.6-20.4c-0.8-11.2-10.4-12.6-16.2-13.4
				c-3.1-0.5-6.4,1.4-8.8,3.5c-0.3,0.2-0.5,0.4-0.8,0.6c-8.3,6.1-30.1-5.9-18.6-14.9c0,0,3.9-4.1,8.5-6l0,0c0,0,3.8-1.9,6.9-0.8
				c1.2,0.4,2.3,1.3,3,3c0,0.1,0.1,0.2,0.1,0.3c0.3,0.8,0.8,1.6,1.3,2.5c3.8,6.1,12.2,14.2,20,8.6c9-6.5,8-9,8.3-11.5l0,0
				C253.6,121.9,251.3,117.7,251.3,117.7z"/>
			<line id="XMLID_24809_" class="st2" x1="188.3" y1="158.2" x2="190.2" y2="160.8"/>
			<path id="XMLID_24808_" class="st1" d="M241.8,155.4c0,0,1.1,2.4-0.7,3.5"/>
			<path id="XMLID_24807_" class="st1" d="M250.9,124.3c0,0-0.5,2.2-1.1,2.9"/>
			<path id="XMLID_24806_" class="st1" d="M199.8,127.9c0,0,0.9-4.1,0-4.1"/>
			<path id="XMLID_24805_" class="st1" d="M220.8,115.6c0,0,3.9,0.5,3.5,1.2"/>
			<path id="XMLID_24804_" class="st1" d="M216.6,170c0,0,4.5-0.6,4.8-1.5"/>
			<path id="XMLID_24803_" class="st1" d="M193.3,109.8c0,0-3,1.4-3.8,2.8"/>
			<line id="XMLID_24802_" class="st2" x1="237.9" y1="134.6" x2="241" y2="133.8"/>
		</g>
		<g>
			<path id="XMLID_24801_" class="st1" d="M268.3,86.1c0,0-3.8-21.4-21.8-13.9s-9.2,89-0.8,95.3C254,173.8,277.3,212.5,268.3,86.1z"
				/>
			<path id="XMLID_24800_" class="st1" d="M260.9,165.4c0,0,1.1,2.4-0.7,3.5"/>
			<path id="XMLID_24799_" class="st1" d="M266.7,126.7c0,0,0.3,2.2,0,3.2"/>
			<path id="XMLID_24798_" class="st1" d="M243.5,141.9c0,0,0.9-4.1,0-4.1"/>
			<path id="XMLID_24797_" class="st1" d="M248.7,76.7c0,0-3,1.4-3.8,2.8"/>
		</g>
		<g id="XMLID_24726_">
			<path id="XMLID_24796_" class="st1" d="M322,184.7c0.2-3.5-1-13.6-1.2-16.9c-0.2-3-0.6-5.6-1.3-7.7c11.6-19.9-20.5-42.7-32-17.1
				c-3.6,8-3.1,23.4-3.1,26c0.1,3.4,0.2,14.9,0.2,17.9c0.1,16.6,24.7,29.8,34.5,8.2"/>
			<g id="XMLID_24727_">
				<g id="XMLID_24792_">
					<path id="XMLID_24795_" class="st1" d="M263.7,101.9c0,0-17.9-23.7-18.3-5.2c-0.5,18.5,4.6,38.4,11.2,35.9s6.7-8,6.7-8"/>
					<path id="XMLID_24794_" class="st1" d="M257.8,103.2c0,0-7-10.8-8.7-5.7"/>
					<path id="XMLID_24793_" class="st1" d="M260.5,110.7c0,0-10.3-2.7-8.8,3.3s5.1,9.9,7,3.3"/>
				</g>
				<path id="XMLID_24791_" class="st1" d="M317.3,18.8c0,0-6.7,5.9,1.6,8.6C327.3,30.1,324.6,15.8,317.3,18.8z"/>
				<path id="XMLID_24790_" class="st1" d="M303.1,33.2c0,0,53.6,3.9,46.1,67.1s-5.5,74.8-35.7,81.2s-46.8-15.7-50.1-32.5
					C260.2,132.2,236,41.5,303.1,33.2z"/>
				<path id="XMLID_24789_" class="st1" d="M346.2,48.3c-0.2-2.1-1.1-4.8-3-8.1v-0.1l0,0c-0.4-0.7-0.8-1.4-1.3-2.2
					c-6-9.4-15.8-14.8-24.7-17.5c-38.4-17.3-42.3,19.2-42.4,33c0,1.3,17.3-0.1,33.1-4.1c20,8.1,38.9,17.1,38.9,17.1
					S348.1,54.5,346.2,48.3z"/>
				<path id="XMLID_24788_" class="st1" d="M272.6,66.3c0,0,36.5-3.5,23.3,25.9C282.7,121.7,242,86.8,272.6,66.3z"/>
				<path id="XMLID_24787_" class="st1" d="M269.2,86.6c0,0,5.5-2.2,4.9,3.4S265.4,91.5,269.2,86.6z"/>
				<path id="XMLID_24786_" class="st1" d="M312.5,105.7c0,0,9.5,7.1,21.9,2.8"/>
				<path id="XMLID_24785_" class="st1" d="M309.1,110.5c0,0-9.7-12-9.3-18.7"/>
				<path id="XMLID_24784_" class="st1" d="M289.1,106.1c0,0-15.4,3.3-18.7,1.9"/>
				<g id="XMLID_24781_">
					<path id="XMLID_24783_" class="st1" d="M292.3,111.8c0.4,3.2,1.4,5.4,3.4,5.8c1.1,0.2,2.1,0.2,2.9,0c0.7-0.2,1.2-0.4,1.6-0.6"
						/>
					<path id="XMLID_24782_" class="st1" d="M302.7,73.6c0,0-7.4,19.7-9.4,33.6"/>
				</g>
				<path id="XMLID_24780_" class="st1" d="M313.2,70.4c0,0-26.8,23.6,6.6,34.3S342.4,58.4,313.2,70.4z"/>
				<path id="XMLID_24779_" class="st1" d="M331.8,89.9c0,0,5.5-2.2,4.9,3.4S328.1,94.8,331.8,89.9z"/>
				<path id="XMLID_24778_" class="st1" d="M286,176.1c0,0-6.4,5.9,6.8,8.5c13.2,2.6,21.8-0.9,19.2-5.8"/>
				<path id="XMLID_24777_" class="st1" d="M315.4,65.7c0,0-12.3,1.4-3.5,10.1s25.7,0.3,24.8-2.8C335.8,69.9,334.2,64.8,315.4,65.7z
					"/>
				<path id="XMLID_24776_" class="st1" d="M265.3,58.4c0,0,20.5-8.3,44.6-3s36.6,10.9,36.6,10.9c-7.7-26.5-54.3-26.7-77.9-25.2
					c-23.5,1.5-17.3,10.5-17.3,10.5S254.8,55.8,265.3,58.4z"/>
				<path id="XMLID_24775_" class="st1" d="M265.3,58.4c0,0-40.7-11.3,15.6-13.8s65.5,21.6,65.5,21.6S294.4,43.7,265.3,58.4z"/>
				<g id="XMLID_24769_">
					<path id="XMLID_24774_" class="st1" d="M288.8,113.4c0,0-7.1,8.3,4.3,10.6"/>
					<path id="XMLID_24773_" class="st1" d="M308.5,113.4c0,0,7.6,6.3-3.1,10.6"/>
					<path id="XMLID_24772_" class="st1" d="M305,120.4c-1.6,0.4-3.2-2.1-2.1-1.8s2.7-1.9,3.9,0"/>
					<path id="XMLID_24771_" class="st1" d="M293.3,119.6c0.9,0.5-1.3,1.8-1.3,1.8c-2.2-0.1-2.7-1.8-1.5-2.7"/>
					<path id="XMLID_24770_" class="st1" d="M299.7,109.1c0,0,2.2-0.1,2.8,0.7"/>
				</g>
				<path id="XMLID_24768_" class="st1" d="M284.6,118.5c0,0-6.2,3.1-8,3.8"/>
				<line id="XMLID_24767_" class="st2" x1="266.3" y1="121.1" x2="268.9" y2="122.3"/>
				<path id="XMLID_24766_" class="st1" d="M312.9,116.8c0,0,7.3,3.5,8,3.4"/>
				<path id="XMLID_24765_" class="st1" d="M343.8,85.8c0,0,1,2.1-0.6,3"/>
				<path id="XMLID_24764_" class="st1" d="M338.2,107.3c0,0-0.5,1.9-1,2.6"/>
				<path id="XMLID_24763_" class="st1" d="M338.8,70c0,0,0.8-3.6,0-3.6"/>
				<path id="XMLID_24762_" class="st1" d="M286.6,57.9c0,0,3.4,0.5,3,1"/>
				<path id="XMLID_24761_" class="st1" d="M307.3,64.2c0,0,3.9-0.6,4.2-1.3"/>
				<path id="XMLID_24760_" class="st1" d="M277.7,160.5c0,0,2.8,0.6,3,1.2"/>
				<path id="XMLID_24759_" class="st1" d="M323.9,161.7c0,0-2.6,1.2-3.4,2.5"/>
				<path id="XMLID_24758_" class="st1" d="M279.6,60.5c0,0-19-1.1-10.2,9.5s24.4-0.2,25.6-4.8S279.6,60.5,279.6,60.5z"/>
				<path id="XMLID_24757_" class="st1" d="M270.5,98.7"/>
				<path id="XMLID_24756_" class="st1" d="M289.1,101"/>
				<line id="XMLID_24755_" class="st2" x1="330.9" y1="121.8" x2="333.6" y2="121.1"/>
				<path id="XMLID_24754_" class="st1" d="M341.7,108.7c0,0,19.8-22.1,18.7-3.6s-7.8,37.9-14.2,34.8c-6.4-3.1-6-8.5-6-8.5"/>
				<path id="XMLID_24753_" class="st1" d="M347.5,110.4c0,0,7.9-10.2,9.2-5"/>
				<path id="XMLID_24752_" class="st1" d="M344.2,117.7c0,0,10.4-1.8,8.5,4s-6,9.4-7.2,2.7"/>
				<g id="XMLID_24747_">
					<path id="XMLID_24751_" class="st1" d="M270.6,97.7c0,0-5.3,0.7-3,3.2s3.5-0.6,7.4,1.4"/>
					<path id="XMLID_24750_" class="st1" d="M336.1,100.1c0,0,5.3,0.7,3,3.2s-3.5-0.6-7.4,1.4"/>
					<path id="XMLID_24749_" class="st1" d="M330.3,99.6c0,0-12.3-0.8-19.5,1.1"/>
					<path id="XMLID_24748_" class="st1" d="M276.6,96.6c0,0,7.2-1.4,15.2,1.1"/>
				</g>
				<g id="XMLID_24735_">
					<path id="XMLID_24746_" class="st1" d="M292,135c0,0,36.5-3.5,23.3,25.9C302.1,190.4,261.3,155.5,292,135z"/>
					<path id="XMLID_24745_" class="st1" d="M293.3,164.5c-3.6-1.6-7.7,9.5-11.5-0.8s19.4-0.8,19.4-0.8s7.3,2.4,10,3.7"/>
					<path id="XMLID_24744_" class="st1" d="M311.7,166.8c1.3-1.6,2.6-3.5,3.6-5.8c13.2-29.4-23.3-25.9-23.3-25.9
						c-11.4,7.6-12.9,17.1-9.7,24.7c3.9-2.9,18.8,3.2,18.8,3.2s7.3,2.4,10,3.7"/>
					<g id="XMLID_24737_">
						<path id="XMLID_24743_" class="st1" d="M283.5,142.1c0,0,5.5-2.2,4.9,3.4C287.8,151.2,279.8,147,283.5,142.1z"/>
						<path id="XMLID_24742_" class="st1" d="M289.4,142.1c0,0,5.5-2.2,4.9,3.4S285.7,147,289.4,142.1z"/>
						<path id="XMLID_24741_" class="st1" d="M295.4,142.1c0,0,5.5-2.2,4.9,3.4S291.6,147,295.4,142.1z"/>
						<path id="XMLID_24740_" class="st1" d="M301.3,142.1c0,0,5.5-2.2,4.9,3.4C305.5,151.2,297.5,147,301.3,142.1z"/>
						<path id="XMLID_24739_" class="st1" d="M307.2,142.1c0,0,5.5-2.2,4.9,3.4S303.4,147,307.2,142.1z"/>
						<path id="XMLID_24738_" class="st1" d="M313.1,142.1c0,0,5.5-2.2,4.9,3.4C317.3,151.2,309.3,147,313.1,142.1z"/>
					</g>
					<path id="XMLID_24736_" class="st1" d="M289.6,142.3c0,0,5.1-2,4.9,2.9l0,0c-0.1-0.9,0.2-1.8,1-2.9c0,0,5.1-2,4.9,2.9l0,0
						c-0.1-0.9,0.2-1.8,1-2.9c0,0,5.1-2,4.9,2.9l0,0c-0.1-0.9,0.2-1.8,1-2.9c0,0,5.1-2,4.9,2.9l0,0c-0.1-0.9,0.2-1.8,1-2.9
						c0,0,1.3-0.5,2.5-0.4c-6.6-8.3-23.6-6.7-23.6-6.7c-3.2,2.1-5.6,4.4-7.3,6.7c1.5-0.3,3.9-0.2,3.7,3.2l0,0
						C288.5,144.3,288.8,143.3,289.6,142.3z"/>
				</g>
				<g id="XMLID_24730_">
					<path id="XMLID_24734_" class="st1" d="M286.6,138.5c0,0-19.6,2.6-8.7,9.7C288.9,155.3,286.6,138.5,286.6,138.5z"/>
					<path id="XMLID_24733_" class="st1" d="M283.7,132.7c0,0-16.2-0.9-8.7,7.5s20.8-0.2,21.9-3.8
						C297.9,132.9,283.7,132.7,283.7,132.7z"/>
					<path id="XMLID_24732_" class="st1" d="M316.1,136.9c0,0-7.9-2.6-6.5,7.4c1.3,10,15,8.3,15.8,5.4S327.5,142,316.1,136.9z"/>
					<path id="XMLID_24731_" class="st1" d="M309.3,134.3c0,0-23-2.9-0.3,8.2C331.6,153.5,335.5,137.7,309.3,134.3z"/>
				</g>
				<path id="XMLID_24729_" class="st1" d="M328.5,25.5c0,0,1.8,1.4,0.8,3"/>
				<line id="XMLID_24728_" class="st2" x1="280.5" y1="40.5" x2="281.6" y2="37.9"/>
			</g>
		</g>
		<path id="XMLID_24723_" class="st1" d="M234.8,188c-0.9-6.8-2.5-9.4-4.5-10.6c0,0-10.7-4-13.7,6.2s6.1,12.2,7.3,12.1
			C225.1,195.7,235.7,194.8,234.8,188z M227.9,187.4c-0.3,0.6-0.9,1.1-2.7,1.4s-2.3-2.4-2.3-2.7s0.3-2.8,3.1-2.2
			C228.7,184.4,227.9,187.4,227.9,187.4z"/>
		<g>
			<g id="XMLID_24719_">
				<path id="XMLID_24722_" class="st1" d="M248.3,191.2"/>
				<path id="XMLID_24721_" class="st1" d="M254.6,190.8c0-2.7-0.2-6.4,0.8-7.2c1.4-1.1,5.8-0.6,5.2,2.2c-0.4,1.6-0.4,3.5-0.4,4.7
					c0,0.9,0,1.6,0,1.9c0,0.7,0.3,2.2,2.8,2.5c3.2,0.4,3.7-0.7,3.7-3s2.6-13.3-6.7-15.2c-6.6-1.4-10,2.4-11.5,5.4"/>
				<path id="XMLID_24720_" class="st1" d="M254.9,183.2"/>
			</g>
			<g id="XMLID_24715_">
				<path id="XMLID_24718_" class="st1" d="M236.3,191.2c0.4,1.9,6.3,0.5,6.3-0.4c0-2.7-0.2-6.4,0.8-7.2c1.1-0.9,4.3-0.8,5.1,0.8
					c0.2,0.4,0.2,0.8,0.1,1.3c-0.4,1.6-0.4,3.5-0.4,4.7c0,0.9,0,1.6,0,1.9c0,0.7,0.3,2.2,2.8,2.5c3.2,0.4,3.7-0.7,3.7-3
					s2.6-13.3-6.7-15.2c-9.4-1.9-12.4,6.5-12.4,8.5C235.6,186.3,235.9,188.9,236.3,191.2"/>
				<path id="XMLID_24717_" class="st1" d="M242.9,183.2"/>
				<path id="XMLID_24716_" class="st1" d="M242.9,183.2c0.2,3.8,0,8.1-0.5,9.8c0,0-1.8,3.2-4.5,1.7s-2.9-16.8-1.3-17.5
					c1.7-0.7,5-2.2,5.8,1.3"/>
			</g>
		</g>
		<path id="XMLID_24714_" class="st1" d="M212.4,187.2c-0.5,0.2-0.9,0.7-1.3,1.3c-0.1,0.2-0.2,0.3-0.3,0.5c-0.1,0.1-0.4,0.4-0.5,0.5
			c-1.4,0.6-4.1,1.4-5.2-1.4c-0.1-0.2-0.2-1-0.2-1.2c0-0.4,0-0.8,0.1-1.1c0.3-3,1.3-4.3,2.2-4.4c1.1-0.1,3.3,0.6,3.9,2.1
			c0,0,0.6,2.7,2.1,2.3s4.3-1.9,2.1-4.8c-2.2-2.9-4.4-5.9-10.6-3.8c-6.2,2.1-5,10-4.8,10.5s3.4,11.5,11.8,6.6
			C220,189.3,213.3,186.9,212.4,187.2z"/>
		<path id="XMLID_24713_" class="st1" d="M228.6,185"/>
		<path id="XMLID_24712_" class="st1" d="M194.6,193.4c-0.3,0.6-0.9,1.1-2.7,1.4s-2.3-2.4-2.3-2.7s0.3-2.8,3.1-2.2
			C195.4,190.5,194.6,193.4,194.6,193.4z"/>
	</g>
</g>
<g>
	<g>
		<g id="XMLID_162_">
			<path id="XMLID_174_" class="st1" d="M226.3,40.6c0,0-1.5-26.7-19.6-18.8s-7.9,83.5,38,72.6s27.4-70.3,27.4-70.3
				s-19.1-17-22.5,12.4c0,0-1,19.7-10,21.3C230.7,59.3,225.4,45.5,226.3,40.6z"/>
			<g id="XMLID_172_">
				<path id="XMLID_173_" class="st1" d="M203.2,57c0,0-31.6,31.2-25.2-27.1c0,0-7.5-18.1-22.2-10.5s-16.9,100.1,53.8,74.1
					c0,0,19-7.3,24.1-11"/>
			</g>
			<line id="XMLID_171_" class="st2" x1="170.9" y1="90.5" x2="173.9" y2="91.8"/>
			<path id="XMLID_170_" class="st1" d="M239.8,70.8c0,0,1.1,2.4-0.7,3.5"/>
			<path id="XMLID_169_" class="st1" d="M271.2,65.8c0,0-0.5,2.2-1.1,2.9"/>
			<path id="XMLID_168_" class="st1" d="M253.5,35.4c0,0,0.9-4.1,0-4.1"/>
			<path id="XMLID_167_" class="st1" d="M163.1,21.7c0,0,3.9,0.5,3.5,1.2"/>
			<path id="XMLID_166_" class="st1" d="M188,71c0,0,4.5-0.6,4.8-1.5"/>
			<path id="XMLID_165_" class="st1" d="M210.8,25.5c0,0-3,1.4-3.8,2.8"/>
			<line id="XMLID_164_" class="st2" x1="239.6" y1="60.2" x2="242.7" y2="59.4"/>
			<line id="XMLID_163_" class="st2" x1="246.3" y1="89.6" x2="249.4" y2="88.7"/>
		</g>
		<g id="XMLID_148_">
			<path id="XMLID_161_" class="st1" d="M125.9,29.6"/>
			<path id="XMLID_158_" class="st1" d="M148.7,24.3C112.4-2.4,84,31.1,84,31.1s-23.3,53.4,21.1,67.5
				C149.4,112.8,185.1,51,148.7,24.3z M128.9,61.1c-8.4,21.9-34.4-12.5-15.9-15C113,46.1,137.3,39.1,128.9,61.1z"/>
			<path id="XMLID_157_" class="st1" d="M134.5,20.9"/>
			<line id="XMLID_156_" class="st2" x1="93" y1="87.8" x2="95.9" y2="89.1"/>
			<path id="XMLID_155_" class="st1" d="M137.6,90.5c0,0-0.5,2.6-2.6,2.4"/>
			<path id="XMLID_154_" class="st1" d="M132.2,61.5c0,0-0.5,2.2-1.1,2.9"/>
			<path id="XMLID_153_" class="st1" d="M158.9,59.8c0,0,0.9-4.1,0-4.1"/>
			<path id="XMLID_152_" class="st1" d="M132.3,20.3c0,0,3.9,0.5,3.5,1.2"/>
			<path id="XMLID_151_" class="st1" d="M107.4,68.1c0,0,3.8,2.6,4.5,2.1"/>
			<path id="XMLID_150_" class="st1" d="M90.6,31.9c0,0-3,1.4-3.8,2.8"/>
			<line id="XMLID_149_" class="st2" x1="108.1" y1="43.4" x2="111.3" y2="42.6"/>
		</g>
		<g id="XMLID_137_">
			<path id="XMLID_147_" class="st1" d="M40.5,21.6c0,0-3.8-18.4-21.8-11.9s-9.2,76.2-0.8,81.6C26.2,96.7,49.5,129.8,40.5,21.6z"/>
			<path id="XMLID_146_" class="st1" d="M36.3,55.1c0,0,31.6-31.2,25.2,27.1c0,0,7.5,18.1,22.2,10.5c14.7-7.5,16.9-100.1-53.8-74.1"
				/>
			<line id="XMLID_145_" class="st2" x1="26.2" y1="90.5" x2="29.2" y2="91.8"/>
			<path id="XMLID_144_" class="st1" d="M80.2,82.7c0,0,1.1,2.4-0.7,3.5"/>
			<path id="XMLID_143_" class="st1" d="M87.2,52.8c0,0-0.5,2.2-1.1,2.9"/>
			<path id="XMLID_142_" class="st1" d="M37,71.4c0,0,0.9-4.1,0-4.1"/>
			<path id="XMLID_141_" class="st1" d="M59.2,43c0,0,3.9,0.5,3.5,1.2"/>
			<path id="XMLID_140_" class="st1" d="M21.6,62.5c0,0,4.5-0.6,4.8-1.5"/>
			<path id="XMLID_139_" class="st1" d="M44.4,19.5c0,0-3,1.4-3.8,2.8"/>
			<line id="XMLID_138_" class="st2" x1="17.4" y1="24.4" x2="20.5" y2="23.5"/>
		</g>
		<g id="XMLID_126_">
			<path id="XMLID_136_" class="st1" d="M60,84.1c0,0-3.8-18.4-21.8-11.9c-18.1,6.4-9.2,76.2-0.8,81.6S69.1,192.3,60,84.1z"/>
			<path id="XMLID_135_" class="st1" d="M55.9,117.5c0,0,31.6-31.2,25.2,27.1c0,0,7.5,18.1,22.2,10.5s16.9-100-53.8-74.1"/>
			<line id="XMLID_134_" class="st2" x1="46.8" y1="155.5" x2="49.8" y2="156.8"/>
			<path id="XMLID_133_" class="st1" d="M100.8,147.7c0,0,1.1,2.4-0.7,3.5"/>
			<path id="XMLID_132_" class="st1" d="M107.8,117.8c0,0-0.5,2.2-1.1,2.9"/>
			<path id="XMLID_131_" class="st1" d="M57.6,136.3c0,0,0.9-4.1,0-4.1"/>
			<path id="XMLID_130_" class="st1" d="M79.8,108c0,0,3.9,0.5,3.5,1.2"/>
			<path id="XMLID_129_" class="st1" d="M42.2,127.4c0,0,4.5-0.6,4.8-1.5"/>
			<path id="XMLID_128_" class="st1" d="M65,84.5c0,0-3,1.4-3.8,2.8"/>
			<line id="XMLID_127_" class="st2" x1="38" y1="89.3" x2="41.1" y2="88.5"/>
		</g>
		<g>
			<g id="XMLID_124_">
				<path id="XMLID_125_" class="st1" d="M124.1,115.3c0,0,5.1-26.8-17.5-19.2c-22.6,7.6-9,66.3,3,63.8S127.1,148,124.1,115.3z"/>
			</g>
			<line id="XMLID_123_" class="st2" x1="105" y1="152.6" x2="108" y2="153.9"/>
			<path id="XMLID_122_" class="st1" d="M119.9,143.2c0,0,1.1,2.4-0.7,3.5"/>
			<path id="XMLID_121_" class="st1" d="M101.7,108.5c0,0-0.5,2.2-1.1,2.9"/>
			<path id="XMLID_120_" class="st1" d="M120.6,110c0,0,0.9-4.1,0-4.1"/>
			<path id="XMLID_119_" class="st1" d="M110.3,98.2c0,0,3.9,0.5,3.5,1.2"/>
		</g>
		<g>
			<path id="XMLID_118_" class="st1" d="M111.8,59.7c0,0,25.5,14.6,0.4,25.4S94.8,46.4,111.8,59.7z"/>
			<path id="XMLID_117_" class="st1" d="M107.3,83.5c0,0,4.5-0.6,4.8-1.5"/>
			<path id="XMLID_116_" class="st1" d="M104.9,61.5c0,0-3,1.4-3.8,2.8"/>
		</g>
		<g id="XMLID_101_">
			<path id="XMLID_115_" class="st1" d="M154,102.2"/>
			<path id="XMLID_112_" class="st1" d="M174.2,97.6c-32.1-23.6-57.2,6-57.2,6s-20.6,47.1,18.6,59.6S206.3,121.2,174.2,97.6z
				 M157.5,130.4c-8.2,21.2-33.3-12.1-15.4-14.5C142.2,115.9,165.7,109.2,157.5,130.4z"/>
			<path id="XMLID_111_" class="st1" d="M161.6,94.6"/>
			<path id="XMLID_110_" class="st1" d="M161.6,94.6c0,0,25-26.7,25.6,23.5s9,96-39.1,95.7c0,0-26.1-12.2,0-25.1
				c12.8-6.3,15.3-19.4,15.1-35.8"/>
			<line id="XMLID_109_" class="st2" x1="145.8" y1="207.3" x2="148.7" y2="208.5"/>
			<path id="XMLID_108_" class="st1" d="M171.6,202.2c0,0,1.1,2.4-0.7,3.5"/>
			<path id="XMLID_107_" class="st1" d="M184.5,177.1c0,0-0.5,2.2-1.1,2.9"/>
			<path id="XMLID_106_" class="st1" d="M182.1,145c0,0,0.9-4.1,0-4.1"/>
			<path id="XMLID_105_" class="st1" d="M127,155.6c0,0,3.9,0.5,3.5,1.2"/>
			<path id="XMLID_104_" class="st1" d="M174,114.2c0,0,4.5-0.6,4.8-1.5"/>
			<path id="XMLID_103_" class="st1" d="M127.3,101.9c0,0-3,1.4-3.8,2.8"/>
			<line id="XMLID_102_" class="st2" x1="159.7" y1="136.6" x2="156.9" y2="138.3"/>
		</g>
		<path id="XMLID_100_" class="st1" d="M217.9,100.3c0,0-6.7-4.7-9.5-1c-2.9,3.7-7.8,9.9-2,22c5.8,12.1,27.9,2.1,30-3.6"/>
		<g>
			<path id="XMLID_99_" class="st1" d="M243.8,110.1L243.8,110.1c-4.2-11.2-13.4-20-27.5-21.5c-28.1-2.8-39.7,15.4-44.1,26.5
				c0,0-1,1.7-1.7,4.9c-0.6,1.9-0.7,3.6-0.6,4.3c-0.4,6.1,0.6,15.1,6.3,27c4.6,9.7,16.4,13.2,24.2,14.4c2.2,0.5,4.6,0.7,7.1,0.7
				c0.1,0,0.2,0,0.2,0l0,0c2.7,0,5.6-0.4,8.7-1.1c12.3-2.8,20.8-10.7,25.6-20.4c-0.8-11.2-10.4-12.6-16.2-13.4
				c-3.1-0.5-6.4,1.4-8.8,3.5c-0.3,0.2-0.5,0.4-0.8,0.6c-8.3,6.1-30.1-5.9-18.6-14.9c0,0,3.9-4.1,8.5-6l0,0c0,0,3.8-1.9,6.9-0.8
				c1.2,0.4,2.3,1.3,3,3c0,0.1,0.1,0.2,0.1,0.3c0.3,0.8,0.8,1.6,1.3,2.5c3.8,6.1,12.2,14.2,20,8.6c9-6.5,8-9,8.3-11.5l0,0
				C246.1,114.2,243.8,110.1,243.8,110.1z"/>
			<line id="XMLID_98_" class="st2" x1="180.8" y1="150.6" x2="182.7" y2="153.2"/>
			<path id="XMLID_97_" class="st1" d="M234.3,147.8c0,0,1.1,2.4-0.7,3.5"/>
			<path id="XMLID_96_" class="st1" d="M243.4,116.7c0,0-0.5,2.2-1.1,2.9"/>
			<path id="XMLID_95_" class="st1" d="M192.3,120.3c0,0,0.9-4.1,0-4.1"/>
			<path id="XMLID_94_" class="st1" d="M213.3,108c0,0,3.9,0.5,3.5,1.2"/>
			<path id="XMLID_93_" class="st1" d="M209.1,162.4c0,0,4.5-0.6,4.8-1.5"/>
			<path id="XMLID_92_" class="st1" d="M185.8,102.2c0,0-3,1.4-3.8,2.8"/>
			<line id="XMLID_91_" class="st2" x1="230.4" y1="127" x2="233.5" y2="126.2"/>
		</g>
		<g>
			<path id="XMLID_90_" class="st1" d="M260.8,78.5c0,0-3.8-21.4-21.8-13.9c-18.1,7.5-9.2,89-0.8,95.3
				C246.5,166.2,269.8,204.9,260.8,78.5z"/>
			<path id="XMLID_89_" class="st1" d="M253.4,157.7c0,0,1.1,2.4-0.7,3.5"/>
			<path id="XMLID_88_" class="st1" d="M259.2,119.1c0,0,0.3,2.2,0,3.2"/>
			<path id="XMLID_87_" class="st1" d="M236,134.3c0,0,0.9-4.1,0-4.1"/>
			<path id="XMLID_86_" class="st1" d="M241.2,69.1c0,0-3,1.4-3.8,2.8"/>
		</g>
		<g id="XMLID_15_">
			<path id="XMLID_85_" class="st1" d="M314.5,177.1c0.2-3.5-1-13.6-1.2-16.9c-0.2-3-0.6-5.6-1.3-7.7c11.6-19.9-20.5-42.7-32-17.1
				c-3.6,8-3.1,23.4-3.1,26c0.1,3.4,0.2,14.9,0.2,17.9c0.1,16.6,24.7,29.8,34.5,8.2"/>
			<g id="XMLID_16_">
				<g id="XMLID_81_">
					<path id="XMLID_84_" class="st1" d="M256.2,94.3c0,0-17.9-23.7-18.3-5.2c-0.5,18.5,4.6,38.4,11.2,35.9c6.6-2.5,6.7-8,6.7-8"/>
					<path id="XMLID_83_" class="st1" d="M250.3,95.6c0,0-7-10.8-8.7-5.7"/>
					<path id="XMLID_82_" class="st1" d="M253,103.1c0,0-10.3-2.7-8.8,3.3s5.1,9.9,7,3.3"/>
				</g>
				<path id="XMLID_80_" class="st1" d="M309.8,11.2c0,0-6.7,5.9,1.6,8.6C319.8,22.5,317.1,8.2,309.8,11.2z"/>
				<path id="XMLID_79_" class="st1" d="M295.6,25.6c0,0,53.6,3.9,46.1,67.1s-5.5,74.8-35.7,81.2s-46.8-15.7-50.1-32.5
					C252.6,124.6,228.5,33.9,295.6,25.6z"/>
				<path id="XMLID_78_" class="st1" d="M338.7,40.7c-0.2-2.1-1.1-4.8-3-8.1v-0.1l0,0c-0.4-0.7-0.8-1.4-1.3-2.2
					c-6-9.4-15.8-14.8-24.7-17.5c-38.4-17.3-42.3,19.2-42.4,33c0,1.3,17.3-0.1,33.1-4.1c20,8.1,38.9,17.1,38.9,17.1
					S340.6,46.9,338.7,40.7z"/>
				<path id="XMLID_77_" class="st1" d="M265.1,58.7c0,0,36.5-3.5,23.3,25.9C275.2,114.1,234.5,79.2,265.1,58.7z"/>
				<path id="XMLID_76_" class="st1" d="M261.7,79c0,0,5.5-2.2,4.9,3.4S258,83.9,261.7,79z"/>
				<path id="XMLID_75_" class="st1" d="M305,98.1c0,0,9.5,7.1,21.9,2.8"/>
				<path id="XMLID_74_" class="st1" d="M301.6,102.9c0,0-9.7-12-9.3-18.7"/>
				<path id="XMLID_73_" class="st1" d="M281.6,98.5c0,0-15.4,3.3-18.7,1.9"/>
				<g id="XMLID_70_">
					<path id="XMLID_72_" class="st1" d="M284.8,104.2c0.4,3.2,1.4,5.4,3.4,5.8c1.1,0.2,2.1,0.2,2.9,0c0.7-0.2,1.2-0.4,1.6-0.6"/>
					<path id="XMLID_71_" class="st1" d="M295.2,66c0,0-7.4,19.7-9.4,33.6"/>
				</g>
				<path id="XMLID_69_" class="st1" d="M305.7,62.8c0,0-26.8,23.6,6.6,34.3S334.9,50.8,305.7,62.8z"/>
				<path id="XMLID_68_" class="st1" d="M324.3,82.3c0,0,5.5-2.2,4.9,3.4C328.6,91.4,320.6,87.2,324.3,82.3z"/>
				<path id="XMLID_67_" class="st1" d="M278.5,168.4c0,0-6.4,5.9,6.8,8.5c13.2,2.6,21.8-0.9,19.2-5.8"/>
				<path id="XMLID_66_" class="st1" d="M307.9,58.1c0,0-12.3,1.4-3.5,10.1s25.7,0.3,24.8-2.8C328.3,62.3,326.7,57.2,307.9,58.1z"/>
				<path id="XMLID_65_" class="st1" d="M257.8,50.7c0,0,20.5-8.3,44.6-3S339,58.6,339,58.6c-7.7-26.5-54.3-26.7-77.9-25.2
					c-23.5,1.5-17.3,10.5-17.3,10.5S247.3,48.2,257.8,50.7z"/>
				<path id="XMLID_64_" class="st1" d="M257.8,50.7c0,0-40.7-11.3,15.6-13.8s65.5,21.6,65.5,21.6S286.9,36.1,257.8,50.7z"/>
				<g id="XMLID_58_">
					<path id="XMLID_63_" class="st1" d="M281.4,105.8c0,0-7.1,8.3,4.3,10.6"/>
					<path id="XMLID_62_" class="st1" d="M301,105.8c0,0,7.6,6.3-3.1,10.6"/>
					<path id="XMLID_61_" class="st1" d="M297.5,112.8c-1.6,0.4-3.2-2.1-2.1-1.8s2.7-1.9,3.9,0"/>
					<path id="XMLID_60_" class="st1" d="M285.8,112c0.9,0.5-1.3,1.8-1.3,1.8c-2.2-0.1-2.7-1.8-1.5-2.7"/>
					<path id="XMLID_59_" class="st1" d="M292.2,101.5c0,0,2.2-0.1,2.8,0.7"/>
				</g>
				<path id="XMLID_57_" class="st1" d="M277.2,110.9c0,0-6.2,3.1-8,3.8"/>
				<line id="XMLID_56_" class="st2" x1="258.9" y1="113.5" x2="261.4" y2="114.6"/>
				<path id="XMLID_55_" class="st1" d="M305.4,109.2c0,0,7.3,3.5,8,3.4"/>
				<path id="XMLID_54_" class="st1" d="M336.4,78.2c0,0,1,2.1-0.6,3"/>
				<path id="XMLID_53_" class="st1" d="M330.7,99.7c0,0-0.5,1.9-1,2.6"/>
				<path id="XMLID_52_" class="st1" d="M331.3,62.4c0,0,0.8-3.6,0-3.6"/>
				<path id="XMLID_51_" class="st1" d="M279.1,50.3c0,0,3.4,0.5,3,1"/>
				<path id="XMLID_50_" class="st1" d="M299.8,56.6c0,0,3.9-0.6,4.2-1.3"/>
				<path id="XMLID_49_" class="st1" d="M270.2,152.9c0,0,2.8,0.6,3,1.2"/>
				<path id="XMLID_48_" class="st1" d="M316.4,154.1c0,0-2.6,1.2-3.4,2.5"/>
				<path id="XMLID_47_" class="st1" d="M272.1,52.8c0,0-19-1.1-10.2,9.5c8.8,10.6,24.4-0.2,25.6-4.8
					C288.8,53.1,272.1,52.8,272.1,52.8z"/>
				<path id="XMLID_46_" class="st1" d="M263,91.1"/>
				<path id="XMLID_45_" class="st1" d="M281.6,93.3"/>
				<line id="XMLID_44_" class="st2" x1="323.4" y1="114.2" x2="326.1" y2="113.4"/>
				<path id="XMLID_43_" class="st1" d="M334.2,101.1c0,0,19.8-22.1,18.7-3.6s-7.8,37.9-14.2,34.8c-6.4-3.1-6-8.5-6-8.5"/>
				<path id="XMLID_42_" class="st1" d="M340,102.8c0,0,7.9-10.2,9.2-5"/>
				<path id="XMLID_41_" class="st1" d="M336.7,110.1c0,0,10.4-1.8,8.5,4s-6,9.4-7.2,2.7"/>
				<g id="XMLID_36_">
					<path id="XMLID_40_" class="st1" d="M263.1,90.1c0,0-5.3,0.7-3,3.2s3.5-0.6,7.4,1.4"/>
					<path id="XMLID_39_" class="st1" d="M328.6,92.4c0,0,5.3,0.7,3,3.2s-3.5-0.6-7.4,1.4"/>
					<path id="XMLID_38_" class="st1" d="M322.8,92c0,0-12.3-0.8-19.5,1.1"/>
					<path id="XMLID_37_" class="st1" d="M269.1,89c0,0,7.2-1.4,15.2,1.1"/>
				</g>
				<g id="XMLID_24_">
					<path id="XMLID_35_" class="st1" d="M284.5,127.4c0,0,36.5-3.5,23.3,25.9S253.8,147.9,284.5,127.4z"/>
					<path id="XMLID_34_" class="st1" d="M285.8,156.9c-3.6-1.6-7.7,9.5-11.5-0.8s19.4-0.8,19.4-0.8s7.3,2.4,10,3.7"/>
					<path id="XMLID_33_" class="st1" d="M304.2,159.2c1.3-1.6,2.6-3.5,3.6-5.8c13.2-29.4-23.3-25.9-23.3-25.9
						c-11.4,7.6-12.9,17.1-9.7,24.7c3.9-2.9,18.8,3.2,18.8,3.2s7.3,2.4,10,3.7"/>
					<g id="XMLID_26_">
						<path id="XMLID_32_" class="st1" d="M276,134.5c0,0,5.5-2.2,4.9,3.4S272.3,139.3,276,134.5z"/>
						<path id="XMLID_31_" class="st1" d="M281.9,134.5c0,0,5.5-2.2,4.9,3.4S278.2,139.3,281.9,134.5z"/>
						<path id="XMLID_30_" class="st1" d="M287.9,134.5c0,0,5.5-2.2,4.9,3.4C292.1,143.6,284.1,139.3,287.9,134.5z"/>
						<path id="XMLID_29_" class="st1" d="M293.8,134.5c0,0,5.5-2.2,4.9,3.4S290,139.3,293.8,134.5z"/>
						<path id="XMLID_28_" class="st1" d="M299.7,134.5c0,0,5.5-2.2,4.9,3.4C303.9,143.6,295.9,139.3,299.7,134.5z"/>
						<path id="XMLID_27_" class="st1" d="M305.6,134.5c0,0,5.5-2.2,4.9,3.4S301.8,139.3,305.6,134.5z"/>
					</g>
					<path id="XMLID_25_" class="st1" d="M282.1,134.7c0,0,5.1-2,4.9,2.9l0,0c-0.1-0.9,0.2-1.8,1-2.9c0,0,5.1-2,4.9,2.9l0,0
						c-0.1-0.9,0.2-1.8,1-2.9c0,0,5.1-2,4.9,2.9l0,0c-0.1-0.9,0.2-1.8,1-2.9c0,0,5.1-2,4.9,2.9l0,0c-0.1-0.9,0.2-1.8,1-2.9
						c0,0,1.3-0.5,2.5-0.4c-6.6-8.3-23.6-6.7-23.6-6.7c-3.2,2.1-5.6,4.4-7.3,6.7c1.5-0.3,3.9-0.2,3.7,3.2l0,0
						C281,136.6,281.3,135.7,282.1,134.7z"/>
				</g>
				<g id="XMLID_19_">
					<path id="XMLID_23_" class="st1" d="M279.2,130.9c0,0-19.6,2.6-8.7,9.7C281.4,147.7,279.2,130.9,279.2,130.9z"/>
					<path id="XMLID_22_" class="st1" d="M276.2,125.1c0,0-16.2-0.9-8.7,7.5s20.8-0.2,21.9-3.8C290.4,125.3,276.2,125.1,276.2,125.1
						z"/>
					<path id="XMLID_21_" class="st1" d="M308.6,129.3c0,0-7.9-2.6-6.5,7.4c1.3,10,15,8.3,15.8,5.4
						C318.7,139.2,320,134.4,308.6,129.3z"/>
					<path id="XMLID_20_" class="st1" d="M301.8,126.6c0,0-23-2.9-0.3,8.2C324.1,145.9,328.1,130.1,301.8,126.6z"/>
				</g>
				<path id="XMLID_18_" class="st1" d="M321,17.9c0,0,1.8,1.4,0.8,3"/>
				<line id="XMLID_17_" class="st2" x1="273" y1="32.9" x2="274.1" y2="30.3"/>
			</g>
		</g>
		<path id="XMLID_12_" class="st1" d="M231.1,184.2c-0.9-6.8-2.5-9.4-4.5-10.6c0,0-10.7-4-13.7,6.2s6.1,12.2,7.3,12.1
			C221.5,191.9,232,191,231.1,184.2z M224.2,183.6c-0.3,0.6-0.9,1.1-2.7,1.4c-1.8,0.4-2.3-2.4-2.3-2.7s0.3-2.8,3.1-2.2
			C225,180.6,224.2,183.6,224.2,183.6z"/>
		<g>
			<g id="XMLID_8_">
				<path id="XMLID_11_" class="st1" d="M244.6,187.4"/>
				<path id="XMLID_10_" class="st1" d="M250.9,187c0-2.7-0.2-6.4,0.8-7.2c1.4-1.1,5.8-0.6,5.2,2.2c-0.4,1.6-0.4,3.5-0.4,4.7
					c0,0.9,0,1.6,0,1.9c0,0.7,0.3,2.2,2.8,2.5c3.2,0.4,3.7-0.7,3.7-3s2.6-13.3-6.7-15.2c-6.6-1.4-10,2.4-11.5,5.4"/>
				<path id="XMLID_9_" class="st1" d="M251.3,179.4"/>
			</g>
			<g id="XMLID_4_">
				<path id="XMLID_7_" class="st1" d="M232.6,187.4c0.4,1.9,6.3,0.5,6.3-0.4c0-2.7-0.2-6.4,0.8-7.2c1.1-0.9,4.3-0.8,5.1,0.8
					c0.2,0.4,0.2,0.8,0.1,1.3c-0.4,1.6-0.4,3.5-0.4,4.7c0,0.9,0,1.6,0,1.9c0,0.7,0.3,2.2,2.8,2.5c3.2,0.4,3.7-0.7,3.7-3
					s2.6-13.3-6.7-15.2c-9.4-1.9-12.4,6.5-12.4,8.5C231.9,182.5,232.2,185.1,232.6,187.4"/>
				<path id="XMLID_6_" class="st1" d="M239.3,179.4"/>
				<path id="XMLID_5_" class="st1" d="M239.3,179.4c0.2,3.8,0,8.1-0.5,9.8c0,0-1.8,3.2-4.5,1.7s-2.9-16.8-1.3-17.5
					c1.7-0.7,5-2.2,5.8,1.3"/>
			</g>
		</g>
		<path id="XMLID_3_" class="st1" d="M208.7,183.4c-0.5,0.2-0.9,0.7-1.3,1.3c-0.1,0.2-0.2,0.3-0.3,0.5c-0.1,0.1-0.4,0.4-0.5,0.5
			c-1.4,0.6-4.1,1.4-5.2-1.4c-0.1-0.2-0.2-1-0.2-1.2c0-0.4,0-0.8,0.1-1.1c0.3-3,1.3-4.3,2.2-4.4c1.1-0.1,3.3,0.6,3.9,2.1
			c0,0,0.6,2.7,2.1,2.3s4.3-1.9,2.1-4.8c-2.2-2.9-4.4-5.9-10.6-3.8c-6.2,2.1-5,10-4.8,10.5s3.4,11.5,11.8,6.6
			C216.3,185.5,209.6,183.1,208.7,183.4z"/>
		<path id="XMLID_2_" class="st1" d="M224.9,181.2"/>
		<path id="XMLID_1_" class="st1" d="M190.9,189.6c-0.3,0.6-0.9,1.1-2.7,1.4s-2.3-2.4-2.3-2.7s0.3-2.8,3.1-2.2
			C191.7,186.7,190.9,189.6,190.9,189.6z"/>
	</g>
</g>
<g>
	<g>
		<g id="XMLID_336_">
			<path id="XMLID_348_" class="st3" d="M218.7,33c0,0-1.5-26.7-19.6-18.8s-7.9,83.5,38,72.6s27.4-70.3,27.4-70.3
				s-19.1-17-22.5,12.4c0,0-1,19.7-10,21.3C223.1,51.7,217.8,37.9,218.7,33z"/>
			<g id="XMLID_346_">
				<path id="XMLID_347_" class="st3" d="M195.5,49.3c0,0-31.6,31.2-25.2-27.1c0,0-7.5-18.1-22.2-10.5s-16.9,100.1,53.8,74.1
					c0,0,19-7.3,24.1-11"/>
			</g>
			<line id="XMLID_345_" class="st2" x1="163.3" y1="82.9" x2="166.3" y2="84.2"/>
			<path id="XMLID_344_" class="st3" d="M232.2,63.2c0,0,1.1,2.4-0.7,3.5"/>
			<path id="XMLID_343_" class="st3" d="M263.6,58.2c0,0-0.5,2.2-1.1,2.9"/>
			<path id="XMLID_342_" class="st3" d="M245.9,27.7c0,0,0.9-4.1,0-4.1"/>
			<path id="XMLID_341_" class="st3" d="M155.5,14.1c0,0,3.9,0.5,3.5,1.2"/>
			<path id="XMLID_340_" class="st3" d="M180.3,63.3c0,0,4.5-0.6,4.8-1.5"/>
			<path id="XMLID_339_" class="st3" d="M203.2,17.9c0,0-3,1.4-3.8,2.8"/>
			<line id="XMLID_338_" class="st2" x1="232" y1="52.6" x2="235.1" y2="51.8"/>
			<line id="XMLID_337_" class="st2" x1="238.7" y1="81.9" x2="241.8" y2="81.1"/>
		</g>
		<g id="XMLID_322_">
			<path id="XMLID_335_" class="st3" d="M118.3,22"/>
			<path id="XMLID_332_" class="st3" d="M141.1,16.7c-36.3-26.7-64.7,6.8-64.7,6.8S53.1,76.9,97.4,91
				C141.8,105.1,177.4,43.4,141.1,16.7z M121.3,53.5c-8.4,21.9-34.4-12.5-15.9-15C105.4,38.5,129.7,31.5,121.3,53.5z"/>
			<path id="XMLID_331_" class="st3" d="M126.8,13.3"/>
			<line id="XMLID_330_" class="st2" x1="85.4" y1="80.2" x2="88.3" y2="81.5"/>
			<path id="XMLID_329_" class="st3" d="M130,82.9c0,0-0.5,2.6-2.6,2.4"/>
			<path id="XMLID_328_" class="st3" d="M124.6,53.9c0,0-0.5,2.2-1.1,2.9"/>
			<path id="XMLID_327_" class="st3" d="M151.2,52.2c0,0,0.9-4.1,0-4.1"/>
			<path id="XMLID_326_" class="st3" d="M124.7,12.7c0,0,3.9,0.5,3.5,1.2"/>
			<path id="XMLID_325_" class="st3" d="M99.8,60.4c0,0,3.8,2.6,4.5,2.1"/>
			<path id="XMLID_324_" class="st3" d="M83,24.3c0,0-3,1.4-3.8,2.8"/>
			<line id="XMLID_323_" class="st2" x1="100.5" y1="35.8" x2="103.6" y2="34.9"/>
		</g>
		<g id="XMLID_311_">
			<path id="XMLID_321_" class="st3" d="M32.8,14C32.8,14,29-4.4,11,2.1s-9.2,76.2-0.8,81.6C18.6,89,41.9,122.2,32.8,14z"/>
			<path id="XMLID_320_" class="st3" d="M28.7,47.4c0,0,31.6-31.2,25.2,27.1c0,0,7.5,18.1,22.2,10.5C90.8,77.5,93-15,22.3,10.9"/>
			<line id="XMLID_319_" class="st2" x1="18.6" y1="82.9" x2="21.5" y2="84.2"/>
			<path id="XMLID_318_" class="st3" d="M72.6,75.1c0,0,1.1,2.4-0.7,3.5"/>
			<path id="XMLID_317_" class="st3" d="M79.6,45.1c0,0-0.5,2.2-1.1,2.9"/>
			<path id="XMLID_316_" class="st3" d="M29.3,63.7c0,0,0.9-4.1,0-4.1"/>
			<path id="XMLID_315_" class="st3" d="M51.6,35.4c0,0,3.9,0.5,3.5,1.2"/>
			<path id="XMLID_314_" class="st3" d="M14,54.8c0,0,4.5-0.6,4.8-1.5"/>
			<path id="XMLID_313_" class="st3" d="M36.8,11.9c0,0-3,1.4-3.8,2.8"/>
			<line id="XMLID_312_" class="st2" x1="9.8" y1="16.7" x2="12.9" y2="15.9"/>
		</g>
		<g id="XMLID_300_">
			<path id="XMLID_310_" class="st3" d="M52.4,76.4c0,0-3.8-18.4-21.8-11.9c-18.1,6.4-9.2,76.2-0.8,81.6S61.4,184.7,52.4,76.4z"/>
			<path id="XMLID_309_" class="st3" d="M48.3,109.9c0,0,31.6-31.2,25.2,27.1c0,0,7.5,18.1,22.2,10.5s16.9-100.1-53.8-74.1"/>
			<line id="XMLID_308_" class="st2" x1="39.2" y1="147.9" x2="42.2" y2="149.2"/>
			<path id="XMLID_307_" class="st3" d="M93.2,140.1c0,0,1.1,2.4-0.7,3.5"/>
			<path id="XMLID_306_" class="st3" d="M100.2,110.1c0,0-0.5,2.2-1.1,2.9"/>
			<path id="XMLID_305_" class="st3" d="M49.9,128.7c0,0,0.9-4.1,0-4.1"/>
			<path id="XMLID_304_" class="st3" d="M72.2,100.3c0,0,3.9,0.5,3.5,1.2"/>
			<path id="XMLID_303_" class="st3" d="M34.6,119.8c0,0,4.5-0.6,4.8-1.5"/>
			<path id="XMLID_302_" class="st3" d="M57.4,76.8c0,0-3,1.4-3.8,2.8"/>
			<line id="XMLID_301_" class="st2" x1="30.4" y1="81.7" x2="33.5" y2="80.9"/>
		</g>
		<g>
			<g id="XMLID_298_">
				<path id="XMLID_299_" class="st3" d="M116.5,107.7c0,0,5.1-26.8-17.5-19.2c-22.6,7.6-9,66.3,3,63.8S119.5,140.4,116.5,107.7z"/>
			</g>
			<line id="XMLID_297_" class="st2" x1="97.4" y1="144.9" x2="100.4" y2="146.2"/>
			<path id="XMLID_296_" class="st3" d="M112.3,135.6c0,0,1.1,2.4-0.7,3.5"/>
			<path id="XMLID_295_" class="st3" d="M94,100.9c0,0-0.5,2.2-1.1,2.9"/>
			<path id="XMLID_294_" class="st3" d="M113,102.4c0,0,0.9-4.1,0-4.1"/>
			<path id="XMLID_293_" class="st3" d="M102.7,90.6c0,0,3.9,0.5,3.5,1.2"/>
		</g>
		<g>
			<path id="XMLID_292_" class="st3" d="M104.2,52.1c0,0,25.5,14.6,0.4,25.4S87.1,38.7,104.2,52.1z"/>
			<path id="XMLID_291_" class="st3" d="M99.7,75.9c0,0,4.5-0.6,4.8-1.5"/>
			<path id="XMLID_290_" class="st3" d="M97.3,53.8c0,0-3,1.4-3.8,2.8"/>
		</g>
		<g id="XMLID_275_">
			<path id="XMLID_289_" class="st3" d="M146.4,94.6"/>
			<path id="XMLID_286_" class="st3" d="M166.6,90c-32.1-23.6-57.2,6-57.2,6s-20.6,47.1,18.6,59.6S198.7,113.5,166.6,90z
				 M149.9,122.8c-8.2,21.2-33.3-12.1-15.4-14.5C134.5,108.3,158.1,101.6,149.9,122.8z"/>
			<path id="XMLID_285_" class="st3" d="M154,86.9"/>
			<path id="XMLID_284_" class="st3" d="M154,86.9c0,0,25-26.7,25.6,23.5s9,96-39.1,95.7c0,0-26.1-12.2,0-25.1
				c12.8-6.3,15.3-19.4,15.1-35.8"/>
			<line id="XMLID_283_" class="st2" x1="138.1" y1="199.6" x2="141.1" y2="200.9"/>
			<path id="XMLID_282_" class="st3" d="M163.9,194.6c0,0,1.1,2.4-0.7,3.5"/>
			<path id="XMLID_281_" class="st3" d="M176.8,169.4c0,0-0.5,2.2-1.1,2.9"/>
			<path id="XMLID_280_" class="st3" d="M174.5,137.3c0,0,0.9-4.1,0-4.1"/>
			<path id="XMLID_279_" class="st3" d="M119.4,147.9c0,0,3.9,0.5,3.5,1.2"/>
			<path id="XMLID_278_" class="st3" d="M166.4,106.6c0,0,4.5-0.6,4.8-1.5"/>
			<path id="XMLID_277_" class="st3" d="M119.7,94.3c0,0-3,1.4-3.8,2.8"/>
			<line id="XMLID_276_" class="st2" x1="152.1" y1="129" x2="149.3" y2="130.7"/>
		</g>
		<path id="XMLID_274_" class="st3" d="M210.3,92.7c0,0-6.7-4.7-9.5-1c-2.9,3.7-7.8,9.9-2,22s27.9,2.1,30-3.6"/>
		<g>
			<path id="XMLID_273_" class="st3" d="M236.2,102.5L236.2,102.5c-4.2-11.2-13.4-20-27.5-21.5c-28.1-2.8-39.7,15.4-44.1,26.5
				c0,0-1,1.7-1.7,4.9c-0.6,1.9-0.7,3.6-0.6,4.3c-0.4,6.1,0.6,15.1,6.3,27c4.6,9.7,16.4,13.2,24.2,14.4c2.2,0.5,4.6,0.7,7.1,0.7
				c0.1,0,0.2,0,0.2,0l0,0c2.7,0,5.6-0.4,8.7-1.1c12.3-2.8,20.8-10.7,25.6-20.4c-0.8-11.2-10.4-12.6-16.2-13.4
				c-3.1-0.5-6.4,1.4-8.8,3.5c-0.3,0.2-0.5,0.4-0.8,0.6c-8.3,6.1-30.1-5.9-18.6-14.9c0,0,3.9-4.1,8.5-6l0,0c0,0,3.8-1.9,6.9-0.8
				c1.2,0.4,2.3,1.3,3,3c0,0.1,0.1,0.2,0.1,0.3c0.3,0.8,0.8,1.6,1.3,2.5c3.8,6.1,12.2,14.2,20,8.6c9-6.5,8-9,8.3-11.5l0,0
				C238.5,106.6,236.2,102.5,236.2,102.5z"/>
			<line id="XMLID_272_" class="st2" x1="173.2" y1="143" x2="175.1" y2="145.6"/>
			<path id="XMLID_271_" class="st3" d="M226.7,140.1c0,0,1.1,2.4-0.7,3.5"/>
			<path id="XMLID_270_" class="st3" d="M235.8,109.1c0,0-0.5,2.2-1.1,2.9"/>
			<path id="XMLID_269_" class="st3" d="M184.7,112.6c0,0,0.9-4.1,0-4.1"/>
			<path id="XMLID_268_" class="st3" d="M205.7,100.4c0,0,3.9,0.5,3.5,1.2"/>
			<path id="XMLID_267_" class="st3" d="M201.5,154.7c0,0,4.5-0.6,4.8-1.5"/>
			<path id="XMLID_266_" class="st3" d="M178.2,94.6c0,0-3,1.4-3.8,2.8"/>
			<line id="XMLID_265_" class="st2" x1="222.8" y1="119.4" x2="225.9" y2="118.6"/>
		</g>
		<g>
			<path id="XMLID_264_" class="st3" d="M253.2,70.9c0,0-3.8-21.4-21.8-13.9s-9.2,89-0.8,95.3C238.9,158.6,262.2,197.3,253.2,70.9z"
				/>
			<path id="XMLID_263_" class="st3" d="M245.8,150.1c0,0,1.1,2.4-0.7,3.5"/>
			<path id="XMLID_262_" class="st3" d="M251.6,111.5c0,0,0.3,2.2,0,3.2"/>
			<path id="XMLID_261_" class="st3" d="M228.4,126.7c0,0,0.9-4.1,0-4.1"/>
			<path id="XMLID_260_" class="st3" d="M233.5,61.5c0,0-3,1.4-3.8,2.8"/>
		</g>
		<g id="XMLID_189_">
			<path id="XMLID_259_" class="st3" d="M306.9,169.5c0.2-3.5-1-13.6-1.2-16.9c-0.2-3-0.6-5.6-1.3-7.7c11.6-19.9-20.5-42.7-32-17.1
				c-3.6,8-3.1,23.4-3.1,26c0.1,3.4,0.2,14.9,0.2,17.9c0.1,16.6,24.7,29.8,34.5,8.2"/>
			<g id="XMLID_190_">
				<g id="XMLID_255_">
					<path id="XMLID_258_" class="st3" d="M248.6,86.7c0,0-17.9-23.7-18.3-5.2c-0.5,18.5,4.6,38.4,11.2,35.9c6.6-2.5,6.7-8,6.7-8"/>
					<path id="XMLID_257_" class="st3" d="M242.7,88c0,0-7-10.8-8.7-5.7"/>
					<path id="XMLID_256_" class="st3" d="M245.4,95.5c0,0-10.3-2.7-8.8,3.3s5.1,9.9,7,3.3"/>
				</g>
				<path id="XMLID_254_" class="st3" d="M302.2,3.6c0,0-6.7,5.9,1.6,8.6C312.2,14.9,309.5,0.6,302.2,3.6z"/>
				<path id="XMLID_253_" class="st3" d="M288,18c0,0,53.6,3.9,46.1,67.1s-5.5,74.8-35.7,81.2s-46.8-15.7-50.1-32.5
					S220.8,26.3,288,18z"/>
				<path id="XMLID_252_" class="st3" d="M331.1,33.1c-0.2-2.1-1.1-4.8-3-8.1v-0.1l0,0c-0.4-0.7-0.8-1.4-1.3-2.2
					c-6-9.4-15.8-14.8-24.8-17.6c-38.4-17.3-42.3,19.2-42.4,33c0,1.3,17.3-0.1,33.1-4.1c20,8.1,38.9,17.1,38.9,17.1
					S333,39.3,331.1,33.1z"/>
				<path id="XMLID_251_" class="st3" d="M257.5,51.1c0,0,36.5-3.5,23.3,25.9C267.6,106.4,226.8,71.6,257.5,51.1z"/>
				<path id="XMLID_250_" class="st3" d="M254.1,71.4c0,0,5.5-2.2,4.9,3.4S250.3,76.2,254.1,71.4z"/>
				<path id="XMLID_249_" class="st3" d="M297.4,90.5c0,0,9.5,7.1,21.9,2.8"/>
				<path id="XMLID_248_" class="st3" d="M294,95.2c0,0-9.7-12-9.3-18.7"/>
				<path id="XMLID_247_" class="st3" d="M274,90.8c0,0-15.4,3.3-18.7,1.9"/>
				<g id="XMLID_244_">
					<path id="XMLID_246_" class="st3" d="M277.2,96.5c0.4,3.2,1.4,5.4,3.4,5.8c1.1,0.2,2.1,0.2,2.9,0c0.7-0.2,1.2-0.4,1.6-0.6"/>
					<path id="XMLID_245_" class="st3" d="M287.6,58.4c0,0-7.4,19.7-9.4,33.6"/>
				</g>
				<path id="XMLID_243_" class="st3" d="M298.1,55.2c0,0-26.8,23.6,6.6,34.3S327.3,43.2,298.1,55.2z"/>
				<path id="XMLID_242_" class="st3" d="M316.7,74.7c0,0,5.5-2.2,4.9,3.4S312.9,79.5,316.7,74.7z"/>
				<path id="XMLID_241_" class="st3" d="M270.8,160.8c0,0-6.4,5.9,6.8,8.5c13.2,2.6,21.8-0.9,19.2-5.8"/>
				<path id="XMLID_240_" class="st3" d="M300.3,50.4c0,0-12.3,1.4-3.5,10.1s25.7,0.3,24.8-2.8C320.7,54.7,319.1,49.5,300.3,50.4z"
					/>
				<path id="XMLID_239_" class="st3" d="M250.2,43.1c0,0,20.5-8.3,44.6-3S331.4,51,331.4,51c-7.7-26.5-54.3-26.7-77.9-25.2
					s-17.3,10.5-17.3,10.5S239.7,40.6,250.2,43.1z"/>
				<path id="XMLID_238_" class="st3" d="M250.2,43.1c0,0-40.7-11.3,15.6-13.8s65.5,21.6,65.5,21.6S279.3,28.5,250.2,43.1z"/>
				<g id="XMLID_232_">
					<path id="XMLID_237_" class="st3" d="M273.7,98.2c0,0-7.1,8.3,4.3,10.6"/>
					<path id="XMLID_236_" class="st3" d="M293.3,98.2c0,0,7.6,6.3-3.1,10.6"/>
					<path id="XMLID_235_" class="st3" d="M289.9,105.1c-1.6,0.4-3.2-2.1-2.1-1.8s2.7-1.9,3.9,0"/>
					<path id="XMLID_234_" class="st3" d="M278.2,104.4c0.9,0.5-1.3,1.8-1.3,1.8c-2.2-0.1-2.7-1.8-1.5-2.7"/>
					<path id="XMLID_233_" class="st3" d="M284.6,93.9c0,0,2.2-0.1,2.8,0.7"/>
				</g>
				<path id="XMLID_231_" class="st3" d="M269.5,103.3c0,0-6.2,3.1-8,3.8"/>
				<line id="XMLID_230_" class="st2" x1="251.2" y1="105.9" x2="253.8" y2="107"/>
				<path id="XMLID_229_" class="st3" d="M297.8,101.6c0,0,7.3,3.5,8,3.4"/>
				<path id="XMLID_228_" class="st3" d="M328.7,70.5c0,0,1,2.1-0.6,3"/>
				<path id="XMLID_227_" class="st3" d="M323.1,92c0,0-0.5,1.9-1,2.6"/>
				<path id="XMLID_226_" class="st3" d="M323.7,54.7c0,0,0.8-3.6,0-3.6"/>
				<path id="XMLID_225_" class="st3" d="M271.5,42.6c0,0,3.4,0.5,3,1"/>
				<path id="XMLID_224_" class="st3" d="M292.2,49c0,0,3.9-0.6,4.2-1.3"/>
				<path id="XMLID_223_" class="st3" d="M262.5,145.3c0,0,2.8,0.6,3,1.2"/>
				<path id="XMLID_222_" class="st3" d="M308.7,146.5c0,0-2.6,1.2-3.4,2.5"/>
				<path id="XMLID_221_" class="st3" d="M264.5,45.2c0,0-19-1.1-10.2,9.5c8.8,10.6,24.4-0.2,25.6-4.8S264.5,45.2,264.5,45.2z"/>
				<path id="XMLID_220_" class="st3" d="M255.3,83.5"/>
				<path id="XMLID_219_" class="st3" d="M274,85.7"/>
				<line id="XMLID_218_" class="st2" x1="315.7" y1="106.6" x2="318.5" y2="105.8"/>
				<path id="XMLID_217_" class="st3" d="M326.6,93.4c0,0,19.8-22.1,18.7-3.6s-7.8,37.9-14.2,34.8c-6.4-3.1-6-8.5-6-8.5"/>
				<path id="XMLID_216_" class="st3" d="M332.3,95.2c0,0,7.9-10.2,9.2-5"/>
				<path id="XMLID_215_" class="st3" d="M329,102.5c0,0,10.4-1.8,8.5,4s-6,9.4-7.2,2.7"/>
				<g id="XMLID_210_">
					<path id="XMLID_214_" class="st3" d="M255.5,82.5c0,0-5.3,0.7-3,3.2s3.5-0.6,7.4,1.4"/>
					<path id="XMLID_213_" class="st3" d="M321,84.8c0,0,5.3,0.7,3,3.2s-3.5-0.6-7.4,1.4"/>
					<path id="XMLID_212_" class="st3" d="M315.2,84.4c0,0-12.3-0.8-19.5,1.1"/>
					<path id="XMLID_211_" class="st3" d="M261.5,81.4c0,0,7.2-1.4,15.2,1.1"/>
				</g>
				<g id="XMLID_198_">
					<path id="XMLID_209_" class="st3" d="M276.9,119.8c0,0,36.5-3.5,23.3,25.9C287,175.1,246.2,140.3,276.9,119.8z"/>
					<path id="XMLID_208_" class="st3" d="M278.2,149.3c-3.6-1.6-7.7,9.5-11.5-0.8s19.4-0.8,19.4-0.8s7.3,2.4,10,3.7"/>
					<path id="XMLID_207_" class="st3" d="M296.6,151.5c1.3-1.6,2.6-3.5,3.6-5.8c13.2-29.4-23.3-25.9-23.3-25.9
						c-11.4,7.6-12.9,17.1-9.7,24.7c3.9-2.9,18.8,3.2,18.8,3.2s7.3,2.4,10,3.7"/>
					<g id="XMLID_200_">
						<path id="XMLID_206_" class="st3" d="M268.4,126.9c0,0,5.5-2.2,4.9,3.4C272.6,136,264.6,131.7,268.4,126.9z"/>
						<path id="XMLID_205_" class="st3" d="M274.3,126.9c0,0,5.5-2.2,4.9,3.4C278.6,135.9,270.6,131.7,274.3,126.9z"/>
						<path id="XMLID_204_" class="st3" d="M280.2,126.9c0,0,5.5-2.2,4.9,3.4C284.5,135.9,276.5,131.7,280.2,126.9z"/>
						<path id="XMLID_203_" class="st3" d="M286.1,126.9c0,0,5.5-2.2,4.9,3.4C290.4,136,282.4,131.7,286.1,126.9z"/>
						<path id="XMLID_202_" class="st3" d="M292.1,126.9c0,0,5.5-2.2,4.9,3.4C296.4,135.9,288.3,131.7,292.1,126.9z"/>
						<path id="XMLID_201_" class="st3" d="M298,126.9c0,0,5.5-2.2,4.9,3.4C302.2,136,294.2,131.7,298,126.9z"/>
					</g>
					<path id="XMLID_199_" class="st3" d="M274.4,127c0,0,5.1-2,4.9,2.9l0,0c-0.1-0.9,0.2-1.8,1-2.9c0,0,5.1-2,4.9,2.9l0,0
						c-0.1-0.9,0.2-1.8,1-2.9c0,0,5.1-2,4.9,2.9l0,0c-0.1-0.9,0.2-1.8,1-2.9c0,0,5.1-2,4.9,2.9l0,0c-0.1-0.9,0.2-1.8,1-2.9
						c0,0,1.3-0.5,2.5-0.4c-6.6-8.3-23.6-6.7-23.6-6.7c-3.2,2.1-5.6,4.4-7.3,6.7c1.5-0.3,3.9-0.2,3.7,3.2l0,0
						C273.4,129,273.7,128,274.4,127z"/>
				</g>
				<g id="XMLID_193_">
					<path id="XMLID_197_" class="st3" d="M271.5,123.3c0,0-19.6,2.6-8.7,9.7C273.8,140,271.5,123.3,271.5,123.3z"/>
					<path id="XMLID_196_" class="st3" d="M268.6,117.5c0,0-16.2-0.9-8.7,7.5s20.8-0.2,21.9-3.8
						C282.8,117.7,268.6,117.5,268.6,117.5z"/>
					<path id="XMLID_195_" class="st3" d="M300.9,121.7c0,0-7.9-2.6-6.5,7.4s15,8.3,15.8,5.4C311.1,131.5,312.4,126.8,300.9,121.7z"
						/>
					<path id="XMLID_194_" class="st3" d="M294.2,119c0,0-23-2.9-0.3,8.2S320.4,122.4,294.2,119z"/>
				</g>
				<path id="XMLID_192_" class="st3" d="M313.3,10.3c0,0,1.8,1.4,0.8,3"/>
				<line id="XMLID_191_" class="st2" x1="265.4" y1="25.2" x2="266.5" y2="22.6"/>
			</g>
		</g>
		<path id="XMLID_186_" class="st3" d="M227.3,180.4c-0.9-6.8-2.5-9.4-4.5-10.6c0,0-10.7-4-13.7,6.2s6.1,12.2,7.3,12.1
			C217.6,188,228.2,187.2,227.3,180.4z M220.4,179.8c-0.3,0.6-0.9,1.1-2.7,1.4c-1.8,0.4-2.3-2.4-2.3-2.7s0.3-2.8,3.1-2.2
			C221.2,176.8,220.4,179.8,220.4,179.8z"/>
		<g>
			<g id="XMLID_182_">
				<path id="XMLID_185_" class="st3" d="M240.8,183.6"/>
				<path id="XMLID_184_" class="st3" d="M247.1,183.2c0-2.7-0.2-6.4,0.8-7.2c1.4-1.1,5.8-0.6,5.2,2.2c-0.4,1.6-0.4,3.5-0.4,4.7
					c0,0.9,0,1.6,0,1.9c0,0.7,0.3,2.2,2.8,2.5c3.2,0.4,3.7-0.7,3.7-3s2.6-13.3-6.7-15.2c-6.6-1.4-10,2.4-11.5,5.4"/>
				<path id="XMLID_183_" class="st3" d="M247.4,175.6"/>
			</g>
			<g id="XMLID_178_">
				<path id="XMLID_181_" class="st3" d="M228.8,183.6c0.4,1.9,6.3,0.5,6.3-0.4c0-2.7-0.2-6.4,0.8-7.2c1.1-0.9,4.3-0.8,5.1,0.8
					c0.2,0.4,0.2,0.8,0.1,1.3c-0.4,1.6-0.4,3.5-0.4,4.7c0,0.9,0,1.6,0,1.9c0,0.7,0.3,2.2,2.8,2.5c3.2,0.4,3.7-0.7,3.7-3
					s2.6-13.3-6.7-15.2c-9.4-1.9-12.4,6.5-12.4,8.5C228.1,178.6,228.4,181.3,228.8,183.6"/>
				<path id="XMLID_180_" class="st3" d="M235.5,175.6"/>
				<path id="XMLID_179_" class="st3" d="M235.5,175.6c0.2,3.8,0,8.1-0.5,9.8c0,0-1.8,3.2-4.5,1.7s-2.9-16.8-1.3-17.5
					c1.7-0.7,5-2.2,5.8,1.3"/>
			</g>
		</g>
		<path id="XMLID_177_" class="st3" d="M204.9,179.6c-0.5,0.2-0.9,0.7-1.3,1.3c-0.1,0.2-0.2,0.3-0.3,0.5c-0.1,0.1-0.4,0.4-0.5,0.5
			c-1.4,0.6-4.1,1.4-5.2-1.4c-0.1-0.2-0.2-1-0.2-1.2c0-0.4,0-0.8,0.1-1.1c0.3-3,1.3-4.3,2.2-4.4c1.1-0.1,3.3,0.6,3.9,2.1
			c0,0,0.6,2.7,2.1,2.3s4.3-1.9,2.1-4.8c-2.2-2.9-4.4-5.9-10.6-3.8c-6.2,2.1-5,10-4.8,10.5s3.4,11.5,11.8,6.6
			C212.5,181.7,205.8,179.3,204.9,179.6z"/>
		<path id="XMLID_176_" class="st3" d="M221.1,177.3"/>
		<path id="XMLID_175_" class="st3" d="M187.1,185.8c-0.3,0.6-0.9,1.1-2.7,1.4s-2.3-2.4-2.3-2.7s0.3-2.8,3.1-2.2
			C187.9,182.9,187.1,185.8,187.1,185.8z"/>
	</g>
</g>
</svg>
