<?xml version="1.0" encoding="utf-8"?>
<!-- Generator: Adobe Illustrator 22.1.0, SVG Export Plug-In . SVG Version: 6.00 Build 0)  -->
<svg version="1.1" id="Layer_1" xmlns="http://www.w3.org/2000/svg" xmlns:xlink="http://www.w3.org/1999/xlink" x="0px" y="0px"
	 viewBox="0 0 129 456.6" style="enable-background:new 0 0 129 456.6;" xml:space="preserve">
<style type="text/css">
	.st0{fill:#FDF5EA;stroke:#5B5B4B;stroke-linecap:round;stroke-miterlimit:10;}
	.st1{fill:#FDF5EA;}
	.st2{fill:#FDF5EA;stroke:#5B5B4B;stroke-linecap:round;stroke-linejoin:round;stroke-miterlimit:10;}
	.st3{fill:none;stroke:#5B5B4B;stroke-linecap:round;stroke-miterlimit:10;}
</style>
<g>
	<path class="st0" d="M17.9,136.2c0,0,1,5.3,47.8,7.4c46.8,2.1,66.3-10.5,36.8-20.1S-4.7,119.3,17.9,136.2z"/>
	<path class="st0" d="M98.9,233L23,230.2c0,0,0.4,20.1,0.9,27.8c0,0.7,0.1,1.4,0.2,2.2c0,0.3,0.1,0.5,0.1,0.6c0,0,0,0,0,0
		c2.1,11.7,15.4,21.9,36.3,22.2c34.2,0.5,35.2-9.9,35.2-9.9c1.7-3.1,2.6-6.1,3-8.9c0.1,0,0.2,0,0.2,0S100.1,239.1,98.9,233z"/>
	<g>
		<path class="st0" d="M29.6,259.6c0,0,2.5,39.5,2.3,70c-0.1,3.6-0.2,6.9-0.2,9.9c0,0,0,0,0,0.1c-0.2,7.5,0.1,10.8,0.7,11.5
			c2,17.6-0.2,84.9-0.2,84.9l11.6,1c0,0-2.2-40.4-0.8-67.9c1.4-27.5,3.4-101.1,5.8-104.9"/>
		<path class="st0" d="M43.8,435l-5.8-0.5l-5.8,0.5c0,0.3-0.1,0.5-0.1,0.7c0,1.5-0.1,2.7-0.1,3.3c0,0.2,0,0.3,0,0.4
			c0,0.2,0,0.3,0,0.3c0,0,0,0,0.1,0c-1.2,4.7-3.1,7.8-3.8,10.1c-0.1,0.3-0.1,0.5-0.2,0.7c0,0.2-0.1,0.5-0.1,0.7c0,0.4,0,0.8,0.2,1.2
			c0.1,0.4,0.4,0.8,0.7,1.1c0.2,0.2,0.4,0.4,0.6,0.5c1.5,1.1,4.5,1.7,8.4,2c3.9-0.3,6.9-0.9,8.4-2c0.2-0.2,0.4-0.3,0.6-0.5
			c0.4-0.4,0.6-0.7,0.7-1.1c0.1-0.4,0.2-0.8,0.2-1.2c0-0.2,0-0.4-0.1-0.7c0-0.2-0.1-0.5-0.2-0.7c-0.7-2.3-2.6-5.3-3.8-10.1
			c0.1,0,0.1,0,0.1,0c0,0,0-0.1,0-0.3c0-0.1,0-0.2,0-0.4c0-0.7,0-1.8-0.1-3.3C43.9,435.5,43.9,435.3,43.8,435z"/>
		<g>
			<g id="XMLID_25995_">
				<path id="XMLID_25996_" class="st0" d="M37.9,449.8c0,0,6.1-0.6,3.9,4.3S32.8,453.2,37.9,449.8z"/>
			</g>
			<g id="XMLID_25993_">
				<path id="XMLID_25994_" class="st0" d="M27.3,451.4c0,0,4.6-0.4,2.9,3.2C28.6,458.3,23.4,453.9,27.3,451.4z"/>
			</g>
			<path id="XMLID_25992_" class="st0" d="M47.1,456c0,0-7.2,0.5-3.9-4.2s9.3,0.1,9.8,2.1S47.1,456,47.1,456z"/>
			<g id="XMLID_25990_">
				<path id="XMLID_25991_" class="st0" d="M32.2,450.6c0,0,5.3-0.5,3.4,3.8C33.7,458.7,27.7,453.6,32.2,450.6z"/>
			</g>
			<g id="XMLID_25988_">
				<path id="XMLID_25989_" class="st0" d="M22.9,451.8c0,0,4.1-0.4,2.6,2.9C24.1,458.1,19.5,454.2,22.9,451.8z"/>
			</g>
		</g>
		<path id="XMLID_25987_" class="st0" d="M39.3,345c0,0,1.6,0.1,1.6,1.4"/>
		<path id="XMLID_25986_" class="st0" d="M36.8,356.4c0,0-1.8-0.6-2-1"/>
		<g id="XMLID_25984_">
			<path id="XMLID_25985_" class="st0" d="M34.2,438.4c-4.2,3.4-7.7-4.9-1.5-5.6"/>
		</g>
		<g id="XMLID_25982_">
			<path id="XMLID_25983_" class="st0" d="M34.9,353.3c-5.2,1.4-5.1-7.5,0.8-5.8"/>
		</g>
	</g>
	<g>
		<path class="st0" d="M94.1,259.6c0,0-2.5,39.5-2.3,70c0.1,3.6,0.2,6.9,0.2,9.9c0,0,0,0,0,0.1c0.2,7.5-0.1,10.8-0.7,11.5
			c-2,17.6,0.2,84.9,0.2,84.9l-11.6,1c0,0,2.2-40.4,0.8-67.9c-1.4-27.5-3.4-101.1-5.8-104.9"/>
		<path class="st0" d="M91.3,435l-5.8-0.5l-5.8,0.5c0,0.3-0.1,0.5-0.1,0.7c0,1.5-0.1,2.7-0.1,3.3c0,0.2,0,0.3,0,0.4
			c0,0.2,0,0.3,0,0.3c0,0,0,0,0.1,0c-1.2,4.7-3.1,7.8-3.8,10.1c-0.1,0.3-0.1,0.5-0.2,0.7c0,0.2-0.1,0.5-0.1,0.7c0,0.4,0,0.8,0.2,1.2
			c0.1,0.4,0.4,0.8,0.7,1.1c0.2,0.2,0.4,0.4,0.6,0.5c1.5,1.1,4.5,1.7,8.4,2c3.9-0.3,6.9-0.9,8.4-2c0.2-0.2,0.4-0.3,0.6-0.5
			c0.4-0.4,0.6-0.7,0.7-1.1c0.1-0.4,0.2-0.8,0.2-1.2c0-0.2,0-0.4-0.1-0.7c0-0.2-0.1-0.5-0.2-0.7c-0.7-2.3-2.6-5.3-3.8-10.1
			c0.1,0,0.1,0,0.1,0c0,0,0-0.1,0-0.3c0-0.1,0-0.2,0-0.4c0-0.7,0-1.8-0.1-3.3C91.4,435.5,91.4,435.3,91.3,435z"/>
		<g>
			<g id="XMLID_25980_">
				<path id="XMLID_25981_" class="st0" d="M85.7,449.8c0,0-6.1-0.6-3.9,4.3S90.8,453.2,85.7,449.8z"/>
			</g>
			<g id="XMLID_25978_">
				<path id="XMLID_25979_" class="st0" d="M96.3,451.4c0,0-4.6-0.4-2.9,3.2C95,458.3,100.2,453.9,96.3,451.4z"/>
			</g>
			<path id="XMLID_25977_" class="st0" d="M76.5,456c0,0,7.2,0.5,3.9-4.2c-3.3-4.7-9.3,0.1-9.8,2.1C70.2,455.9,76.5,456,76.5,456z"
				/>
			<g id="XMLID_25975_">
				<path id="XMLID_25976_" class="st0" d="M91.4,450.6c0,0-5.3-0.5-3.4,3.8C89.9,458.7,95.9,453.6,91.4,450.6z"/>
			</g>
			<g id="XMLID_25973_">
				<path id="XMLID_25974_" class="st0" d="M100.7,451.8c0,0-4.1-0.4-2.6,2.9C99.5,458.1,104.1,454.2,100.7,451.8z"/>
			</g>
		</g>
		<path id="XMLID_25972_" class="st0" d="M83.1,345.1c0,0,0.9-1.3,2-0.7"/>
		<path id="XMLID_25971_" class="st0" d="M87.7,355.4c0,0-1.8-0.6-2-1"/>
		<g id="XMLID_25969_">
			<path id="XMLID_25970_" class="st0" d="M89.5,433.7c4.2-3.4,7.7,4.9,1.5,5.6"/>
		</g>
		<g id="XMLID_25967_">
			<path id="XMLID_25968_" class="st0" d="M88.2,347.9c4.2-3.4,7.7,4.9,1.5,5.6"/>
		</g>
	</g>
	<g>
		<g id="XMLID_25965_">
			<path id="XMLID_25966_" class="st0" d="M114.2,208.9c4.2-3.4,7.7,4.9,1.5,5.6"/>
		</g>
		<path id="XMLID_25964_" class="st0" d="M119.4,153.7c-1,22.9-1.9,49.4-2.6,63.7c-1.4,27.5,0.8,67.9,0.8,67.9l-11.6-1
			c0,0,2.4-71.3,0-86.3c-1.6-9.9,0.9-44.8,2-68.3"/>
		<path id="XMLID_25963_" class="st0" d="M112.1,209c0,0,1.6,0.1,1.6,1.4"/>
		<path id="XMLID_25962_" class="st0" d="M111.7,213.4c0,0-1.8-0.6-2-1"/>
		<g id="XMLID_25949_">
			<path id="XMLID_25961_" class="st1" d="M103.3,303.9c2,0.5,3.4,0.6,4.3,0.5c-0.6,7.4,3,5.2,4.8,3.7l0.7,0.3
				c2.4,4.3,5.2,0.1,6-1.3l0.1,1.1c3.8,1.9,3.6-2.2,3.3-4.4c0.4,0.7,1.4,1.3,4,1.3c5-0.1-9.6-24-9.6-24l-11.1,2.6
				C105.9,283.7,93.2,301.4,103.3,303.9z"/>
			<path id="XMLID_25960_" class="st0" d="M105.9,283.7c0,0-12.7,17.7-2.6,20.3c2,0.5,3.4,0.6,4.3,0.5c-0.6,7.4,3,5.2,4.8,3.7
				l0.7,0.3c2.4,4.3,5.2,0.1,6-1.3l0.1,1.1c3.8,1.9,3.6-2.2,3.3-4.4c0.4,0.7,1.4,1.3,4,1.3c5-0.1-9.6-24-9.6-24"/>
			<g id="XMLID_25953_">
				<g id="XMLID_25955_">
					<path id="XMLID_25959_" class="st2" d="M117,281.1c0,0,14.6,23.9,9.6,24c-5,0.1-4.1-2.4-4.3-2.6c0,0,2.1,8.4-3,5.7"/>
					<path id="XMLID_25958_" class="st2" d="M119.5,306.8c0,0-3.6,7.2-6.4,1.5"/>
					<path id="XMLID_25957_" class="st2" d="M105.9,283.7c0,0-12.7,17.7-2.6,20.3c10.1,2.6,5.1-4.5,2.2-4.3"/>
					<path id="XMLID_25956_" class="st2" d="M113.3,307.4c0,0-6.7,7.1-5.6-3.7l0.4-5.4"/>
				</g>
				<path id="XMLID_25954_" class="st2" d="M115.2,280.5c0,0,6.8-6.9,0-7.4"/>
			</g>
			<path id="XMLID_25952_" class="st0" d="M112.7,297.8c0,0-0.3,3.3,0.3,5.1"/>
			<path id="XMLID_25951_" class="st0" d="M118.2,301.8c0,0,0.1,2.4,0.6,2.4"/>
			<path id="XMLID_25950_" class="st2" d="M118.7,292.2c0.5,1.5,2.5,4.8,2.5,4.8"/>
		</g>
	</g>
	<g>
		<g id="XMLID_25947_">
			<path id="XMLID_25948_" class="st0" d="M6.3,214.3c-5.2,1.4-5.1-7.5,0.8-5.8"/>
		</g>
		<path id="XMLID_25946_" class="st0" d="M3.2,163.7c0.8,20.2,1.6,41.5,2.2,53.7c1.4,27.5-0.8,67.9-0.8,67.9l11.6-1
			c0,0-2.4-71.3,0-86.3c1.2-7.8,0-31.2-1.2-52.3"/>
		<g id="XMLID_25944_">
			<path id="XMLID_25945_" class="st0" d="M16.2,282.9c4.8,4.9,6.2,6.6,8.7,13c2.5,6.5-6.8-9.2-6.2-6.9c0.6,2.3,9.3,46.9,2.1,19.5
				c-7.2-27.4-4.4-9.9-4.4-9.9c0,37.6-3,7.5-3.9,2.8s-7.1,25.1-6,10.3s0-16-2.5-3.7s-1.2-16.6-1.2-16.6s0.6-9,2.8-8.3"/>
		</g>
		<path id="XMLID_25943_" class="st0" d="M9.7,208.8c0,0,1.9,0.4,2,0.8"/>
		<path id="XMLID_25942_" class="st0" d="M9.4,213.4c0,0-1.5,0.3-1.9-0.9"/>
		<path id="XMLID_25941_" class="st2" d="M7.1,274.9c0,0-9.3,6.3,0,6.7"/>
	</g>
	<g>
		<path id="XMLID_25940_" class="st0" d="M21.5,123.6c-6.9,1.5-13,3.4-14.5,5.5c-3.9,5.5-10.1,66.7-0.8,67.3s10.6,0.2,10.5-3.1
			c-0.1-3.3,5.2-41.7,3.8-44.7"/>
		<path id="XMLID_25939_" class="st0" d="M102.8,148.4c-1.5,2.9,2.8,41.5,2.6,44.8c-0.2,3.3,1.1,3.7,10.4,3.4s4.8-61.7,1-67.3
			c-1.3-2-6.6-3.9-12.8-5.5"/>
		<path class="st1" d="M21.4,126.7c-5,5.1-3.6,12-3.6,12s1.9,72.6,0.8,81.7c-1,8.5-3.3,30.1,5.4,29.5c0.6,0,1.3-0.1,2.1-0.4
			c0.8,0,3.7,0,8,0.1l52.7,2.8c3.4,0.5,6.2,1.1,8.1,1.8c1.2,0.4,2.2,0.6,3.1,0.6c8.8,0,6.2-19.7,5.3-29.4c-1-10.7,3.3-90,3.3-90
			l-0.4,3.6c0.1-2.3,0.2-3.6,0.2-3.6s-0.2-4.4-0.8-6.6c-0.2-0.7-0.5-1.3-1-1.9"/>
		<g>
			<path class="st3" d="M25.8,249.7c-10.9,3.8-8.4-19.9-7.3-28.8s-0.8-81-0.8-81"/>
			<path class="st3" d="M87,252.5c-14.3-2.1-40.2-2.6-53.2-2.8"/>
			<path class="st3" d="M106.4,136.4c0,0-4.3,78.7-3.3,89.3c1,10.6,4,33.1-8.2,28.6c-0.7-0.3-1.6-0.5-2.6-0.8"/>
		</g>
		<path id="XMLID_25938_" class="st0" d="M99.8,174.7c0,0-5.9,63.9-3.5,73.3"/>
		<path id="XMLID_25937_" class="st0" d="M22.7,205.2c0,0,1.9-64.1-1.2-73.4"/>
		<g>
			<g>
				<path id="XMLID_25936_" class="st0" d="M94,137.2c0,0,1.2,1,0.5,2"/>
				<path id="XMLID_25935_" class="st0" d="M85.5,136.7c0,0-1.7,0.8-2.2,1.6"/>
				<path id="XMLID_25934_" class="st0" d="M94.3,144.7c0,0,0.5-1.8,0.2-2.7"/>
				<path id="XMLID_25933_" class="st0" d="M85.1,150.5c0,0,1.7,0.7,2.7,0.5"/>
				<path id="XMLID_25932_" class="st0" d="M93.2,149.1c0,0-0.6,1.4-1.8,1"/>
				<path id="XMLID_25931_" class="st0" d="M83.7,141.7c0,0-0.3,1.3-0.7,1.7"/>
				<line id="XMLID_25930_" class="st0" x1="90.4" y1="136.3" x2="88.5" y2="136.3"/>
				<path id="XMLID_25929_" class="st0" d="M83,146.6c0,0-0.4,1.8-0.1,2.7"/>
			</g>
			<g>
				<path id="XMLID_25928_" class="st0" d="M56.9,270.1c0,0-1.1-2-0.3-3.1"/>
				<path id="XMLID_25927_" class="st0" d="M59.5,261.6c0,0-1.3,1.3-1.5,2.3"/>
				<path id="XMLID_25926_" class="st0" d="M58.7,273.3c0,0,0.5,1.8,1.3,2.4"/>
			</g>
		</g>
		<path class="st0" d="M19,130.8"/>
	</g>
	<path id="XMLID_25925_" class="st0" d="M67.7,129c0.6-0.2,1.1-0.7,1.7-1.5"/>
	<path id="XMLID_25924_" class="st0" d="M46.1,124.3c0,0,0.2,0.8,0.7,1.5"/>
	<g>
		<path id="XMLID_25923_" class="st1" d="M71.6,115.7c0.1-2.4-0.7-9.1-0.8-11.3c-0.1-2-0.4-3.7-0.9-5.2C77.8,86,56.3,70.7,48.6,87.8
			c-2.4,5.3-2.1,15.7-2,17.4c0.1,2.3,0.1,10,0.1,12c0,11.1,16.6,20,23.1,5.5"/>
		<path id="XMLID_25922_" class="st3" d="M48.7,123.7c-1.2-2-2-4.2-2-6.6c0-2-0.1-9.7-0.1-12c0-1.8-0.4-12.1,2-17.4
			C56.3,70.7,77.8,86,70,99.2c0.4,1.4,0.7,3.2,0.9,5.2c0.1,2.2,0.9,9,0.8,11.3l-1.9,6.9c-0.6,1.4-1.4,2.7-2.2,3.7"/>
		<path id="XMLID_25921_" class="st3" d="M48.7,123.7"/>
		<path id="XMLID_25920_" class="st3" d="M64.5,128.9c-4.4,2.5-9.6,1.2-13.3-2.1"/>
	</g>
	<g>
		<g id="XMLID_25909_">
			<g id="XMLID_25910_">
				<path id="XMLID_25919_" class="st0" d="M59.2,17.2c0,0,35.2,2.5,30.2,44c-4.9,41.5-3.6,49.1-23.4,53.3
					c-19.8,4.2-30.7-10.3-32.9-21.3S15.2,22.6,59.2,17.2z"/>
				<path id="XMLID_25918_" class="st0" d="M50.7,111.6c0,0-3.8,4.2,5,5.1c8.8,0.9,14.2-1.9,12.2-5"/>
				<path id="XMLID_25917_" class="st0" d="M86.6,65.7c0,0,13-14.5,12.3-2.4s-5.1,24.9-9.3,22.9c-4.2-2-3.9-5.6-3.9-5.6"/>
				<path id="XMLID_25916_" class="st0" d="M90.3,66.8c0,0,5.2-6.7,6-3.3"/>
				<path id="XMLID_25915_" class="st0" d="M88.1,71.6c0,0,6.9-1.2,5.5,2.6C92.4,78,89.8,80.4,89,76"/>
				<g id="XMLID_25911_">
					<path id="XMLID_25914_" class="st0" d="M32.3,67.2c0,0-11.7-15.5-12-3.4C20,76,23.3,89,27.6,87.4s4.4-5.2,4.4-5.2"/>
					<path id="XMLID_25913_" class="st0" d="M28.5,68.1c0,0-4.6-7.1-5.7-3.8"/>
					<path id="XMLID_25912_" class="st0" d="M30.3,73c0,0-6.7-1.8-5.8,2.1c1,3.9,3.4,6.5,4.6,2.2"/>
				</g>
			</g>
		</g>
		<path id="XMLID_25908_" class="st0" d="M40.4,39.6c0,0,24.4-2.4,15.6,17.3S19.8,53.3,40.4,39.6z"/>
		<path id="XMLID_25907_" class="st0" d="M37.1,51.2c0,0,3.7-1.5,3.3,2.3C39.9,57.2,34.6,54.4,37.1,51.2z"/>
		<path id="XMLID_25906_" class="st0" d="M67.5,40.6c0,0-17.9,15.8,4.4,23S87,32.6,67.5,40.6z"/>
		<path id="XMLID_25905_" class="st0" d="M79,52.7c0,0,3.7-1.5,3.3,2.3S76.5,55.9,79,52.7z"/>
		<path id="XMLID_25904_" class="st0" d="M69,35.8c0,0-8.2,1-2.3,6.7s17.2,0.2,16.6-1.9S81.6,35.2,69,35.8z"/>
		<path id="XMLID_25903_" class="st0" d="M45,35.6c0,0-12.7-0.7-6.8,6.3s16.3-0.2,17.2-3.2S45,35.6,45,35.6z"/>
		<path id="XMLID_25902_" class="st0" d="M39,60.6c0,0-3.5,0.5-2,2.2c1.6,1.7,2.3-0.4,4.9,0.9"/>
		<path id="XMLID_25901_" class="st0" d="M82.8,60.4c0,0,3.5,0.5,2,2.2c-1.6,1.7-2.3-0.4-4.9,0.9"/>
		<path id="XMLID_25900_" class="st0" d="M78.9,60.2c0,0-8.2-0.6-13.1,0.7"/>
		<path id="XMLID_25899_" class="st0" d="M43,59.8c0,0,4.8-0.9,10.2,0.8"/>
		<g>
			<path id="XMLID_25898_" class="st0" d="M64.7,69.8c0,0-6.5-8-6.2-12.5"/>
			<g id="XMLID_25895_">
				<path id="XMLID_25897_" class="st0" d="M53.5,70.7c0.2,2.1,0.9,3.6,2.3,3.9c0.8,0.1,1.4,0.1,1.9,0c0.4-0.1,0.8-0.3,1.1-0.4"/>
				<path id="XMLID_25896_" class="st0" d="M60.5,45.1c0,0-4.9,13.2-6.3,22.4"/>
			</g>
			<g id="XMLID_25889_">
				<path id="XMLID_25894_" class="st0" d="M51.2,71.8c0,0-4.8,5.5,2.9,7.1"/>
				<path id="XMLID_25893_" class="st0" d="M64.3,71.8c0,0,5.1,4.2-2.1,7.1"/>
				<path id="XMLID_25892_" class="st0" d="M60.6,75.2c0.7,0.2,1.8-1.3,2.6,0c0.8,1.3-0.1,0.9-1.2,1.2C60.9,76.7,59.8,75,60.6,75.2z
					"/>
				<path id="XMLID_25891_" class="st0" d="M53.3,77.1c-1.4-0.1-1.8-1.2-1-1.8c0.3-0.2,1.1,0.2,1.9,0.6
					C54.8,76.3,53.3,77.1,53.3,77.1z"/>
				<path id="XMLID_25890_" class="st0" d="M58.5,68.9c0,0,1.5,0,1.9,0.5"/>
			</g>
		</g>
		<g>
			<g id="XMLID_25884_">
				<path id="XMLID_25888_" class="st0" d="M49.6,86.2c0,0-13,2.5-5.4,6.8S49.6,86.2,49.6,86.2z"/>
				<path id="XMLID_25887_" class="st0" d="M47.5,82.4c0,0-10.8,0-5.5,5.3c5.3,5.3,13.9-0.9,14.5-3.3C57,82,47.5,82.4,47.5,82.4z"/>
				<path id="XMLID_25886_" class="st0" d="M69.2,83.9c0,0-5.4-1.5-4.1,5.2c1.3,6.6,10.3,4.9,10.8,3C76.4,90.2,77.1,86.9,69.2,83.9z
					"/>
				<path id="XMLID_25885_" class="st0" d="M64.6,82.4c0,0-15.5-1,0.1,5.5S82.3,83.7,64.6,82.4z"/>
			</g>
			<g id="XMLID_25880_">
				<path id="XMLID_25883_" class="st0" d="M51.6,92c0,0,8,7.9,12.5,0"/>
				<path id="XMLID_25882_" class="st0" d="M53.5,90.7c0,0,2.2-2.3,3.9,0"/>
				<path id="XMLID_25881_" class="st0" d="M61.2,90.7c0,0-2.2-2.3-3.9,0"/>
			</g>
		</g>
		<g>
			<path id="XMLID_25879_" class="st0" d="M68.5,6.7c0,0-4.4,3.9,1.1,5.6C75,14.1,73.3,4.7,68.5,6.7z"/>
			<path id="XMLID_25878_" class="st0" d="M87.4,26c-0.1-1.4-0.7-3.1-2-5.3c0,0,0,0,0,0l0,0c-0.3-0.5-0.5-0.9-0.9-1.4
				c-3.9-6.1-10.4-9.7-16.2-11.5C43.2-3.6,40.6,20.3,40.6,29.3c0,0.9,11.4-0.1,21.7-2.7C75.4,32,87.8,37.9,87.8,37.9
				S88.7,30.1,87.4,26z"/>
			<path id="XMLID_25877_" class="st0" d="M34.3,32.6c0,0,13.4-5.5,29.2-2s24,7.1,24,7.1c-5-17.4-35.7-17.5-51.1-16.5
				s-11.3,6.9-11.3,6.9S27.5,31,34.3,32.6z"/>
			<path id="XMLID_25876_" class="st0" d="M34.3,32.6c0,0-26.7-7.4,10.2-9s43,14.2,43,14.2S53.5,23,34.3,32.6z"/>
			<path id="XMLID_25875_" class="st0" d="M75.8,11.1c0,0,1.2,1,0.5,2"/>
			<line id="XMLID_25874_" class="st0" x1="44.3" y1="20.9" x2="45.1" y2="19.2"/>
		</g>
		<path id="XMLID_25873_" class="st0" d="M66.8,66.2c0,0,6.4,4.8,14.6,1.8"/>
		<path id="XMLID_25872_" class="st0" d="M51.1,66.5c0,0-10.3,2.2-12.5,1.3"/>
		<path id="XMLID_25871_" class="st0" d="M48.1,74.8c0,0-4.2,2.1-5.4,2.5"/>
		<line id="XMLID_25870_" class="st0" x1="35.9" y1="76.6" x2="37.6" y2="77.3"/>
		<path id="XMLID_25869_" class="st0" d="M67,73.7c0,0,4.9,2.3,5.3,2.3"/>
		<path id="XMLID_25868_" class="st0" d="M87.7,52.9c0,0,0.7,1.4-0.4,2"/>
		<path id="XMLID_25867_" class="st0" d="M83.9,67.3c0,0-0.3,1.3-0.7,1.7"/>
		<path id="XMLID_25866_" class="st0" d="M85.3,43.3c0,0,0.5-2.4,0-2.4"/>
		<path id="XMLID_25865_" class="st0" d="M44.4,32.2c0,0,2.3,0.3,2,0.7"/>
		<path id="XMLID_25864_" class="st0" d="M58.2,36.5c0,0,2.6-0.4,2.8-0.9"/>
		<path id="XMLID_25863_" class="st0" d="M45.4,102.9c0,0,1.9,0.4,2,0.8"/>
		<path id="XMLID_25862_" class="st0" d="M74.3,103.7c0,0-1.7,0.8-2.2,1.7"/>
	</g>
	<path id="XMLID_25861_" class="st0" d="M50.9,130.7c0.2,0.1,0.4,0.2,0.6,0.3"/>
</g>
</svg>
