<?xml version="1.0" encoding="utf-8"?>
<!-- Generator: Adobe Illustrator 22.1.0, SVG Export Plug-In . SVG Version: 6.00 Build 0)  -->
<svg version="1.1" id="Layer_1" xmlns="http://www.w3.org/2000/svg" xmlns:xlink="http://www.w3.org/1999/xlink" x="0px" y="0px"
	 viewBox="0 0 483.3 361" style="enable-background:new 0 0 483.3 361;" xml:space="preserve">
<style type="text/css">
	.st0{fill:#FDF5EA;stroke:#5B5B4B;stroke-linecap:round;stroke-miterlimit:10;}
</style>
<g>
	<g>
		<path class="st0" d="M2.7,355.9c4.8,0.1,34.1-0.1,49.4-0.3c5.6-0.1,9.3-0.1,9.3-0.1s1.9-0.4,2.2-1.2c0.1-0.4,0.2-1.2,0.3-2.5
			c-0.1-5.4-0.3-9.8-0.3-9.8c0.1-0.8-2.2-1.2-2.2-1.2c-0.5-0.1-4.1-0.2-9.3-0.2c-16.6-0.2-49.5-0.1-49.5-0.1s-1.6,0.5-2.1,1
			c0,1.5,0,2.9,0,4.2c0,2.4,0,5.8,0,9.3C0.9,355.6,2.7,355.9,2.7,355.9z"/>
		<path class="st0" d="M12,355.9c4.8,0.1,34.1-0.1,49.4-0.3c5.6-0.1,9.3-0.1,9.3-0.1s1.9-0.4,2.2-1.2c0.1-0.4,0.2-1.2,0.3-2.5
			c-0.1-5.4-0.3-9.8-0.3-9.8c0.1-0.8-2.2-1.2-2.2-1.2c-0.5-0.1-4.1-0.2-9.3-0.2c-16.6-0.2-49.5-0.1-49.5-0.1s-1.7,0.3-2.1,0.8
			c0,1.5,0,2.9,0,4.2c0,2.4,0,5.8,0,9.3C10.2,355.6,12,355.9,12,355.9z"/>
	</g>
	<g>
		<path class="st0" d="M71,341c-4.8,0.1-34.1-0.1-49.4-0.3c-5.6-0.1-9.3-0.1-9.3-0.1s-1.9-0.4-2.2-1.2c-0.1-0.4-0.2-1.2-0.3-2.5
			c0.1-5.4,0.3-9.8,0.3-9.8c-0.1-0.8,2.2-1.2,2.2-1.2c0.5-0.1,4.1-0.2,9.3-0.2c16.6-0.2,49.5-0.1,49.5-0.1s1.7,0.3,2.1,0.8
			c0,1.5,0,2.9,0,4.2c0,2.4,0,5.8,0,9.3C72.8,340.7,71,341,71,341z"/>
		<path class="st0" d="M61.7,341c-4.8,0.1-34.1-0.1-49.4-0.3c-5.6-0.1-9.3-0.1-9.3-0.1s-1.9-0.4-2.2-1.2c-0.1-0.4-0.2-1.2-0.3-2.5
			c0.1-5.4,0.3-9.8,0.3-9.8c-0.1-0.8,2.2-1.2,2.2-1.2c0.5-0.1,4.1-0.2,9.3-0.2c16.6-0.2,49.5-0.1,49.5-0.1s1.7,0.3,2.1,0.8
			c0,1.5,0,2.9,0,4.2c0,2.4,0,5.8,0,9.3C63.5,340.7,61.7,341,61.7,341z"/>
	</g>
	<g>
		<path class="st0" d="M2.7,326c4.8,0.1,34.1-0.1,49.4-0.3c5.6-0.1,9.3-0.1,9.3-0.1s1.9-0.4,2.2-1.2c0.1-0.4,0.2-1.2,0.3-2.5
			c-0.1-5.4-0.3-9.8-0.3-9.8c0.1-0.8-2.2-1.2-2.2-1.2c-0.5-0.1-4.1-0.2-9.3-0.2c-16.6-0.2-49.5-0.1-49.5-0.1s-1.6,0.4-2.1,1
			c0,1.5,0,2.9,0,4.2c0,2.4,0,5.8,0,9.3C0.9,325.7,2.7,326,2.7,326z"/>
		<path class="st0" d="M12,326c4.8,0.1,34.1-0.1,49.4-0.3c5.6-0.1,9.3-0.1,9.3-0.1s1.9-0.4,2.2-1.2c0.1-0.4,0.2-1.2,0.3-2.5
			c-0.1-5.4-0.3-9.8-0.3-9.8c0.1-0.8-2.2-1.2-2.2-1.2c-0.5-0.1-4.1-0.2-9.3-0.2c-16.6-0.2-49.5-0.1-49.5-0.1s-1.7,0.3-2.1,0.8
			c0,1.5,0,2.9,0,4.2c0,2.4,0,5.8,0,9.3C10.2,325.7,12,326,12,326z"/>
	</g>
	<g>
		<path class="st0" d="M71,311.1c-4.8,0.1-34.1-0.1-49.4-0.3c-5.6-0.1-9.3-0.1-9.3-0.1s-1.9-0.4-2.2-1.2c-0.1-0.4-0.2-1.2-0.3-2.5
			c0.1-5.4,0.3-9.8,0.3-9.8c-0.1-0.8,2.2-1.2,2.2-1.2c0.5-0.1,4.1-0.2,9.3-0.2c16.6-0.2,49.5-0.1,49.5-0.1s1.7,0.3,2.1,0.8
			c0,1.5,0,2.9,0,4.2c0,2.4,0,5.8,0,9.3C72.8,310.8,71,311.1,71,311.1z"/>
		<path class="st0" d="M61.7,311.1c-4.8,0.1-34.1-0.1-49.4-0.3c-5.6-0.1-9.3-0.1-9.3-0.1s-1.9-0.4-2.2-1.2c-0.1-0.4-0.2-1.2-0.3-2.5
			c0.1-5.4,0.3-9.8,0.3-9.8C0.7,296.4,3,296,3,296c0.5-0.1,4.1-0.2,9.3-0.2c16.6-0.2,49.5-0.1,49.5-0.1s1.7,0.3,2.1,0.8
			c0,1.5,0,2.9,0,4.2c0,2.4,0,5.8,0,9.3C63.5,310.8,61.7,311.1,61.7,311.1z"/>
	</g>
	<g>
		<path class="st0" d="M2.7,296.1c4.8,0.1,34.1-0.1,49.4-0.3c5.6-0.1,9.3-0.1,9.3-0.1s1.9-0.4,2.2-1.2c0.1-0.4,0.2-1.2,0.3-2.5
			c-0.1-5.4-0.3-9.8-0.3-9.8c0.1-0.8-2.2-1.2-2.2-1.2c-0.5-0.1-4.1-0.2-9.3-0.2c-16.6-0.2-49.5-0.1-49.5-0.1s-1.7,0.3-2.1,0.8
			c0,1.5,0,2.9,0,4.2c0,2.4,0,5.8,0,9.3C0.9,295.8,2.7,296.1,2.7,296.1z"/>
		<path class="st0" d="M12,296.1c4.8,0.1,34.1-0.1,49.4-0.3c5.6-0.1,9.3-0.1,9.3-0.1s1.9-0.4,2.2-1.2c0.1-0.4,0.2-1.2,0.3-2.5
			c-0.1-5.4-0.3-9.8-0.3-9.8c0.1-0.8-2.2-1.2-2.2-1.2c-0.5-0.1-4.1-0.2-9.3-0.2c-16.6-0.2-49.5-0.1-49.5-0.1s-1.7,0.3-2.1,0.8
			c0,1.5,0,2.9,0,4.2c0,2.4,0,5.8,0,9.3C10.2,295.8,12,296.1,12,296.1z"/>
	</g>
	<g>
		<path class="st0" d="M71,281.1c-4.8,0.1-34.1-0.1-49.4-0.3c-5.6-0.1-9.3-0.1-9.3-0.1s-1.9-0.4-2.2-1.2c-0.1-0.4-0.2-1.2-0.3-2.5
			c0.1-5.4,0.3-9.8,0.3-9.8c-0.1-0.8,2.2-1.2,2.2-1.2c0.5-0.1,4.1-0.2,9.3-0.2c16.6-0.2,49.5-0.1,49.5-0.1s1.7,0.3,2.1,0.8
			c0,1.5,0,2.9,0,4.2c0,2.4,0,5.8,0,9.3C72.8,280.8,71,281.1,71,281.1z"/>
		<path class="st0" d="M61.7,281.1c-4.8,0.1-34.1-0.1-49.4-0.3c-5.6-0.1-9.3-0.1-9.3-0.1s-1.9-0.4-2.2-1.2c-0.1-0.4-0.2-1.2-0.3-2.5
			c0.1-5.4,0.3-9.8,0.3-9.8C0.7,266.4,3,266,3,266c0.5-0.1,4.1-0.2,9.3-0.2c16.6-0.2,49.5-0.1,49.5-0.1s1.7,0.3,2.1,0.8
			c0,1.5,0,2.9,0,4.2c0,2.4,0,5.8,0,9.3C63.5,280.8,61.7,281.1,61.7,281.1z"/>
	</g>
	<g>
		<path class="st0" d="M2.7,266.2c4.8,0.1,34.1-0.1,49.4-0.3c5.6-0.1,9.3-0.1,9.3-0.1s1.9-0.4,2.2-1.2c0.1-0.4,0.2-1.2,0.3-2.5
			c-0.1-5.4-0.3-9.8-0.3-9.8c0.1-0.8-2.2-1.2-2.2-1.2c-0.5-0.1-4.1-0.2-9.3-0.2c-16.6-0.2-49.5-0.1-49.5-0.1s-1.7,0.3-2.1,0.8
			c0,1.5,0,2.9,0,4.2c0,2.4,0,5.8,0,9.3C0.9,265.9,2.7,266.2,2.7,266.2z"/>
		<path class="st0" d="M12,266.2c4.8,0.1,34.1-0.1,49.4-0.3c5.6-0.1,9.3-0.1,9.3-0.1s1.9-0.4,2.2-1.2c0.1-0.4,0.2-1.2,0.3-2.5
			c-0.1-5.4-0.3-9.8-0.3-9.8c0.1-0.8-2.2-1.2-2.2-1.2c-0.5-0.1-4.1-0.2-9.3-0.2c-16.6-0.2-49.5-0.1-49.5-0.1s-1.7,0.3-2.1,0.8
			c0,1.5,0,2.9,0,4.2c0,2.4,0,5.8,0,9.3C10.2,265.9,12,266.2,12,266.2z"/>
	</g>
	<g>
		<path class="st0" d="M71,251.2c-4.8,0.1-34.1-0.1-49.4-0.3c-5.6-0.1-9.3-0.1-9.3-0.1s-1.9-0.4-2.2-1.2c-0.1-0.4-0.2-1.2-0.3-2.5
			c0.1-5.4,0.3-9.8,0.3-9.8c-0.1-0.8,2.2-1.2,2.2-1.2c0.5-0.1,4.1-0.2,9.3-0.2c16.6-0.2,49.5-0.1,49.5-0.1s1.7,0.3,2.1,0.8
			c0,1.5,0,2.9,0,4.2c0,2.4,0,5.8,0,9.3C72.8,250.9,71,251.2,71,251.2z"/>
		<path class="st0" d="M61.7,251.2c-4.8,0.1-34.1-0.1-49.4-0.3c-5.6-0.1-9.3-0.1-9.3-0.1s-1.9-0.4-2.2-1.2c-0.1-0.4-0.2-1.2-0.3-2.5
			c0.1-5.4,0.3-9.8,0.3-9.8c-0.1-0.8,2.2-1.2,2.2-1.2c0.5-0.1,4.1-0.2,9.3-0.2c16.6-0.2,49.5-0.1,49.5-0.1s1.7,0.3,2.1,0.8
			c0,1.5,0,2.9,0,4.2c0,2.4,0,5.8,0,9.3C63.5,250.9,61.7,251.2,61.7,251.2z"/>
	</g>
</g>
</svg>
