<?xml version="1.0" encoding="utf-8"?>
<!-- Generator: Adobe Illustrator 22.1.0, SVG Export Plug-In . SVG Version: 6.00 Build 0)  -->
<svg version="1.1" id="Layer_1" xmlns="http://www.w3.org/2000/svg" xmlns:xlink="http://www.w3.org/1999/xlink" x="0px" y="0px"
	 viewBox="0 0 1281.1 720.5" style="enable-background:new 0 0 1281.1 720.5;" xml:space="preserve">
<style type="text/css">
	.st0{fill:none;stroke:#5B5B4B;stroke-linecap:round;stroke-miterlimit:10;}
	.st1{fill:none;stroke:#35423E;stroke-linecap:round;stroke-miterlimit:10;}
</style>
<g>
	<g id="XMLID_60_">
		<g id="XMLID_70_">
			
				<rect id="XMLID_78_" x="606.8" y="46" transform="matrix(3.787406e-10 -1 1 3.787406e-10 -45.4839 1326.4844)" class="st0" width="67.4" height="1280"/>
			
				<rect id="XMLID_77_" x="606.8" y="-21.4" transform="matrix(3.790639e-10 -1 1 3.790639e-10 21.9225 1259.078)" class="st0" width="67.4" height="1280"/>
			
				<rect id="XMLID_76_" x="606.8" y="-88.8" transform="matrix(3.787406e-10 -1 1 3.787406e-10 89.3289 1191.6715)" class="st0" width="67.4" height="1280"/>
			
				<rect id="XMLID_75_" x="606.8" y="-156.2" transform="matrix(3.790373e-10 -1 1 3.790373e-10 156.7354 1124.2651)" class="st0" width="67.4" height="1280"/>
			
				<rect id="XMLID_74_" x="606.8" y="-223.6" transform="matrix(3.787673e-10 -1 1 3.787673e-10 224.1418 1056.8586)" class="st0" width="67.4" height="1280"/>
			
				<rect id="XMLID_73_" x="606.8" y="-291" transform="matrix(3.790373e-10 -1 1 3.790373e-10 291.5482 989.4523)" class="st0" width="67.4" height="1280"/>
			
				<rect id="XMLID_72_" x="606.8" y="-358.5" transform="matrix(3.789023e-10 -1 1 3.789023e-10 358.9546 922.0458)" class="st0" width="67.4" height="1280"/>
			
				<rect id="XMLID_71_" x="606.8" y="-425.9" transform="matrix(3.789023e-10 -1 1 3.789023e-10 426.361 854.6395)" class="st0" width="67.4" height="1280"/>
		</g>
		<g id="XMLID_61_">
			<rect id="XMLID_69_" x="0.5" y="180.4" class="st0" width="160" height="539.3"/>
			<rect id="XMLID_68_" x="160.5" y="180.4" class="st0" width="160" height="539.3"/>
			<rect id="XMLID_67_" x="320.5" y="180.4" class="st0" width="160" height="539.3"/>
			<rect id="XMLID_66_" x="480.5" y="180.4" class="st0" width="160" height="539.3"/>
			<rect id="XMLID_65_" x="640.5" y="180.4" class="st0" width="160" height="539.3"/>
			<rect id="XMLID_64_" x="800.5" y="180.4" class="st0" width="160" height="539.3"/>
			<rect id="XMLID_63_" x="960.5" y="180.4" class="st0" width="160" height="539.3"/>
			<rect id="XMLID_62_" x="1120.5" y="180.4" class="st0" width="160" height="539.3"/>
		</g>
	</g>
	<g>
		<g>
			<line class="st1" x1="641.4" y1="181.5" x2="641.1" y2="720"/>
			<line class="st1" x1="0.6" y1="180.4" x2="1280.6" y2="180.4"/>
		</g>
		<path class="st0" d="M0.4,719.6l640.3-539.1L0.4,719.6z"/>
		<path class="st0" d="M0.6,585.1L640.4,180L0.6,585.1z"/>
		<g>
			<path class="st0" d="M0.6,450.2L640.4,180L0.6,450.2z"/>
		</g>
		<path class="st0" d="M0.6,315.3L640.4,180L0.6,315.3z"/>
		<line class="st0" x1="0.6" y1="180.4" x2="640.4" y2="180"/>
		<path class="st0" d="M1280.6,719.6L640.4,180.4L1280.6,719.6z"/>
		<path class="st0" d="M1280.4,585.1L640.6,180L1280.4,585.1z"/>
		<path class="st0" d="M1280.4,450.2L640.6,180L1280.4,450.2z"/>
		<path class="st0" d="M1280.4,315.3L640.6,180L1280.4,315.3z"/>
		<line class="st0" x1="1280.4" y1="180.4" x2="640.6" y2="180"/>
		<line id="XMLID_59_" class="st1" x1="640.6" y1="180.4" x2="800.6" y2="720"/>
		<line id="XMLID_58_" class="st1" x1="960.6" y1="720" x2="640.6" y2="180.4"/>
		<line id="XMLID_57_" class="st1" x1="1120.6" y1="720" x2="640.6" y2="180.4"/>
		<line id="XMLID_54_" class="st1" x1="640.6" y1="180.4" x2="480.6" y2="720"/>
		<line id="XMLID_2_" class="st1" x1="320.6" y1="720" x2="640.6" y2="180.4"/>
		<line class="st1" x1="640.6" y1="180.4" x2="160.6" y2="720"/>
		<line class="st1" x1="640.6" y1="180.4" x2="0.6" y2="247.3"/>
		<line class="st1" x1="1280.6" y1="247.3" x2="640.6" y2="180.4"/>
	</g>
</g>
</svg>
