<?xml version="1.0" encoding="utf-8"?>
<!-- Generator: Adobe Illustrator 22.1.0, SVG Export Plug-In . SVG Version: 6.00 Build 0)  -->
<svg version="1.1" id="Layer_1" xmlns="http://www.w3.org/2000/svg" xmlns:xlink="http://www.w3.org/1999/xlink" x="0px" y="0px"
	 viewBox="0 0 129 456.6" style="enable-background:new 0 0 129 456.6;" xml:space="preserve">
<style type="text/css">
	.st0{fill:#FDF5EA;stroke:#5B5B4B;stroke-linecap:round;stroke-miterlimit:10;}
	.st1{fill:#FDF5EA;}
	.st2{fill:#FDF5EA;stroke:#5B5B4B;stroke-linecap:round;stroke-linejoin:round;stroke-miterlimit:10;}
</style>
<g>
	<g>
		<g id="XMLID_25307_">
			<path id="XMLID_25308_" class="st0" d="M33.5,208.9c-4.2-3.4-7.7,4.9-1.5,5.6"/>
		</g>
		<path id="XMLID_25306_" class="st0" d="M29.5,179.6c0.6,14.8,1.1,28.8,1.6,37.8c1.4,27.5-0.8,67.9-0.8,67.9l11.6-1
			c0,0-2.4-71.3,0-86.3c0.5-3.2,0.6-9,0.4-16.2"/>
		<path id="XMLID_25305_" class="st0" d="M35.6,209c0,0-1.6,0.1-1.6,1.4"/>
		<path id="XMLID_25304_" class="st0" d="M36.1,213.4c0,0,1.8-0.6,2-1"/>
		<g id="XMLID_25291_">
			<path id="XMLID_25303_" class="st1" d="M44.4,303.9c-2,0.5-3.4,0.6-4.3,0.5c0.6,7.4-3,5.2-4.8,3.7l-0.7,0.3
				c-2.4,4.3-5.2,0.1-6-1.3l-0.1,1.1c-3.8,1.9-3.6-2.2-3.3-4.4c-0.4,0.7-1.4,1.3-4,1.3c-5-0.1,9.6-24,9.6-24l11.1,2.6
				C41.8,283.7,54.5,301.4,44.4,303.9z"/>
			<path id="XMLID_25302_" class="st0" d="M41.8,283.7c0,0,12.7,17.7,2.6,20.3c-2,0.5-3.4,0.6-4.3,0.5c0.6,7.4-3,5.2-4.8,3.7
				l-0.7,0.3c-2.4,4.3-5.2,0.1-6-1.3l-0.1,1.1c-3.8,1.9-3.6-2.2-3.3-4.4c-0.4,0.7-1.4,1.3-4,1.3c-5-0.1,9.6-24,9.6-24"/>
			<g id="XMLID_25295_">
				<g id="XMLID_25297_">
					<path id="XMLID_25301_" class="st2" d="M30.7,281.1c0,0-14.6,23.9-9.6,24s4.1-2.4,4.3-2.6c0,0-2.1,8.4,3,5.7"/>
					<path id="XMLID_25300_" class="st2" d="M28.3,306.8c0,0,3.6,7.2,6.4,1.5"/>
					<path id="XMLID_25299_" class="st2" d="M41.8,283.7c0,0,12.7,17.7,2.6,20.3c-10.1,2.6-5.1-4.5-2.2-4.3"/>
					<path id="XMLID_25298_" class="st2" d="M34.4,307.4c0,0,6.7,7.1,5.6-3.7l-0.4-5.4"/>
				</g>
				<path id="XMLID_25296_" class="st2" d="M32.5,280.5c0,0-6.8-6.9,0-7.4"/>
			</g>
			<path id="XMLID_25294_" class="st0" d="M35,297.8c0,0,0.3,3.3-0.3,5.1"/>
			<path id="XMLID_25293_" class="st0" d="M29.6,301.8c0,0-0.1,2.4-0.6,2.4"/>
			<path id="XMLID_25292_" class="st2" d="M29,292.2c-0.5,1.5-2.5,4.8-2.5,4.8"/>
		</g>
	</g>
	<g>
		<path class="st0" d="M42.7,259.6c0,0,2.5,39.5,2.3,70c-0.1,3.6-0.2,6.9-0.2,9.9c0,0,0,0,0,0.1c-0.2,7.5,0.1,10.8,0.7,11.5
			c2,17.6-0.2,84.9-0.2,84.9l11.6,1c0,0-2.2-40.4-0.8-67.9c1.4-27.5,3.4-101.1,5.8-104.9"/>
		<path class="st0" d="M45.4,435l5.8-0.5L57,435c0,0.3,0.1,0.5,0.1,0.7c0,1.5,0.1,2.7,0.1,3.3c0,0.2,0,0.3,0,0.4c0,0.2,0,0.3,0,0.3
			c0,0,0,0-0.1,0c1.2,4.7,3.1,7.8,3.8,10.1c0.1,0.3,0.1,0.5,0.2,0.7c0,0.2,0.1,0.5,0.1,0.7c0,0.4,0,0.8-0.2,1.2
			c-0.1,0.4-0.4,0.8-0.7,1.1c-0.2,0.2-0.4,0.4-0.6,0.5c-1.5,1.1-4.5,1.7-8.4,2c-3.9-0.3-6.9-0.9-8.4-2c-0.2-0.2-0.4-0.3-0.6-0.5
			c-0.4-0.4-0.6-0.7-0.7-1.1c-0.1-0.4-0.2-0.8-0.2-1.2c0-0.2,0-0.4,0.1-0.7c0-0.2,0.1-0.5,0.2-0.7c0.7-2.3,2.6-5.3,3.8-10.1
			c-0.1,0-0.1,0-0.1,0c0,0,0-0.1,0-0.3c0-0.1,0-0.2,0-0.4c0-0.7,0-1.8,0.1-3.3C45.3,435.5,45.4,435.3,45.4,435z"/>
		<g>
			<g id="XMLID_25289_">
				<path id="XMLID_25290_" class="st0" d="M51.1,449.8c0,0,6.1-0.6,3.9,4.3S45.9,453.2,51.1,449.8z"/>
			</g>
			<g id="XMLID_25287_">
				<path id="XMLID_25288_" class="st0" d="M40.5,451.4c0,0,4.6-0.4,2.9,3.2C41.7,458.3,36.6,453.9,40.5,451.4z"/>
			</g>
			<path id="XMLID_25286_" class="st0" d="M60.2,456c0,0-7.2,0.5-3.9-4.2s9.3,0.1,9.8,2.1C66.6,455.9,60.2,456,60.2,456z"/>
			<g id="XMLID_25284_">
				<path id="XMLID_25285_" class="st0" d="M45.4,450.6c0,0,5.3-0.5,3.4,3.8C46.9,458.7,40.9,453.6,45.4,450.6z"/>
			</g>
			<g id="XMLID_25282_">
				<path id="XMLID_25283_" class="st0" d="M36.1,451.8c0,0,4.1-0.4,2.6,2.9C37.2,458.1,32.6,454.2,36.1,451.8z"/>
			</g>
		</g>
		<path id="XMLID_25281_" class="st0" d="M53.7,345.1c0,0-0.9-1.3-2-0.7"/>
		<path id="XMLID_25280_" class="st0" d="M49.1,355.4c0,0,1.8-0.6,2-1"/>
		<g id="XMLID_25278_">
			<path id="XMLID_25279_" class="st0" d="M47.3,433.7c-4.2-3.4-7.7,4.9-1.5,5.6"/>
		</g>
		<g id="XMLID_25276_">
			<path id="XMLID_25277_" class="st0" d="M48.5,347.9c-4.2-3.4-7.7,4.9-1.5,5.6"/>
		</g>
	</g>
	<path class="st0" d="M27.9,233l75.9-2.8c0,0-0.4,20.1-0.9,27.8c0,0.7-0.1,1.4-0.2,2.2c0,0.3-0.1,0.5-0.1,0.6c0,0,0,0,0,0
		c-2.1,11.7-15.4,21.9-36.3,22.2c-34.2,0.5-35.2-9.9-35.2-9.9c-1.7-3.1-2.6-6.1-3-8.9c-0.1,0-0.2,0-0.2,0S26.6,239.1,27.9,233z"/>
	<path id="XMLID_25275_" class="st0" d="M45.4,147c1.5,2.9-2.8,41.5-2.6,44.8c0.2,3.3-1.1,3.7-10.4,3.4c-9.3-0.4-4.8-61.7-1-67.3
		c1.3-2,6.6-3.9,12.8-5.5"/>
	<g>
		<path class="st0" d="M40.7,123.6c6-2.1,14.8-3.3,25.7-2.8c31.9,1.4,32.5,6.7,32.5,6.7c2.3,2.5,3,4.9,2.5,6.9s3.8,77.9,4.9,86.8
			c1,8.4,3.3,29.8-5.4,29.2c-0.6,0-1.3-0.1-2.1-0.4c-0.8,0-3.7,0-8,0.1L38,252.8c-3.4,0.5-6.2,1.1-8.1,1.7c-1.2,0.4-2.2,0.6-3.1,0.6
			c-8.8,0-6.2-19.5-5.3-29.2c0.8-8,7.8-54.6,11.2-76.8C33.8,141.9,35.4,125.4,40.7,123.6z"/>
	</g>
	<path id="XMLID_25274_" class="st0" d="M49.8,155.6c0,0,1.1,64.2-2.1,73.4"/>
	<path id="XMLID_25273_" class="st0" d="M92.8,226.7c0,0-13.5-62.7-12.2-72.4"/>
	<g>
		<path class="st0" d="M92.1,259.6c0,0-2.5,39.5-2.3,70c0.1,3.6,0.2,6.9,0.2,9.9c0,0,0,0,0,0.1c0.2,7.5-0.1,10.8-0.7,11.5
			c-2,17.6,0.2,84.9,0.2,84.9l-11.6,1c0,0,2.2-40.4,0.8-67.9c-1.4-27.5-3.4-101.1-5.8-104.9"/>
		<path class="st0" d="M77.9,435l5.8-0.5l5.8,0.5c0,0.3,0.1,0.5,0.1,0.7c0,1.5,0.1,2.7,0.1,3.3c0,0.2,0,0.3,0,0.4c0,0.2,0,0.3,0,0.3
			c0,0,0,0-0.1,0c1.2,4.7,3.1,7.8,3.8,10.1c0.1,0.3,0.1,0.5,0.2,0.7c0,0.2,0.1,0.5,0.1,0.7c0,0.4,0,0.8-0.2,1.2
			c-0.1,0.4-0.4,0.8-0.7,1.1c-0.2,0.2-0.4,0.4-0.6,0.5c-1.5,1.1-4.5,1.7-8.4,2c-3.9-0.3-6.9-0.9-8.4-2c-0.2-0.2-0.4-0.3-0.6-0.5
			c-0.4-0.4-0.6-0.7-0.7-1.1c-0.1-0.4-0.2-0.8-0.2-1.2c0-0.2,0-0.4,0.1-0.7c0-0.2,0.1-0.5,0.2-0.7c0.7-2.3,2.6-5.3,3.8-10.1
			c-0.1,0-0.1,0-0.1,0c0,0,0-0.1,0-0.3c0-0.1,0-0.2,0-0.4c0-0.7,0-1.8,0.1-3.3C77.9,435.5,77.9,435.3,77.9,435z"/>
		<g>
			<g id="XMLID_25271_">
				<path id="XMLID_25272_" class="st0" d="M83.9,449.8c0,0-6.1-0.6-3.9,4.3S89,453.2,83.9,449.8z"/>
			</g>
			<g id="XMLID_25269_">
				<path id="XMLID_25270_" class="st0" d="M94.5,451.4c0,0-4.6-0.4-2.9,3.2C93.2,458.3,98.3,453.9,94.5,451.4z"/>
			</g>
			<path id="XMLID_25268_" class="st0" d="M74.7,456c0,0,7.2,0.5,3.9-4.2c-3.3-4.7-9.3,0.1-9.8,2.1C68.3,455.9,74.7,456,74.7,456z"
				/>
			<g id="XMLID_25266_">
				<path id="XMLID_25267_" class="st0" d="M89.6,450.6c0,0-5.3-0.5-3.4,3.8C88.1,458.7,94,453.6,89.6,450.6z"/>
			</g>
			<g id="XMLID_25264_">
				<path id="XMLID_25265_" class="st0" d="M98.8,451.8c0,0-4.1-0.4-2.6,2.9C97.7,458.1,102.3,454.2,98.8,451.8z"/>
			</g>
		</g>
		<path id="XMLID_25263_" class="st0" d="M82.5,345c0,0-1.6,0.1-1.6,1.4"/>
		<path id="XMLID_25262_" class="st0" d="M85,356.4c0,0,1.8-0.6,2-1"/>
		<g id="XMLID_25260_">
			<path id="XMLID_25261_" class="st0" d="M87.5,438.4c4.2,3.4,7.7-4.9,1.5-5.6"/>
		</g>
		<g id="XMLID_25258_">
			<path id="XMLID_25259_" class="st0" d="M86.9,353.3c5.2,1.4,5.1-7.5-0.8-5.8"/>
		</g>
	</g>
	<g>
		<g id="XMLID_25256_">
			<path id="XMLID_25257_" class="st0" d="M104.9,214.3c5.2,1.4,5.1-7.5-0.8-5.8"/>
		</g>
		<path id="XMLID_25255_" class="st0" d="M107.3,179.6c-0.6,14.8-1.1,28.8-1.6,37.8c-1.4,27.5,0.8,67.9,0.8,67.9l-11.6-1
			c0,0,2.4-71.3,0-86.3c-0.6-4.1-0.6-12.4-0.3-22.5"/>
		<g id="XMLID_25253_">
			<path id="XMLID_25254_" class="st0" d="M94.9,282.9c-4.8,4.9-6.2,6.6-8.7,13c-2.5,6.5,6.8-9.2,6.2-6.9
				c-0.6,2.3-9.3,46.9-2.1,19.5c7.2-27.4,4.4-9.9,4.4-9.9c0,37.6,3,7.5,3.9,2.8s7.1,25.1,6,10.3s0-16,2.5-3.7s1.2-16.6,1.2-16.6
				s-0.6-9-2.8-8.3"/>
		</g>
		<path id="XMLID_25252_" class="st0" d="M101.4,208.8c0,0-1.9,0.4-2,0.8"/>
		<path id="XMLID_25251_" class="st0" d="M101.7,213.4c0,0,1.5,0.3,1.9-0.9"/>
		<path id="XMLID_25250_" class="st2" d="M104,274.9c0,0,9.3,6.3,0,6.7"/>
	</g>
	<path id="XMLID_25249_" class="st0" d="M79.3,121.5c0,0-9.2,17.2-22,2.8"/>
	<g>
		<g>
			<path id="XMLID_25248_" class="st0" d="M37.7,137.2c0,0-1.2,1-0.5,2"/>
			<path id="XMLID_25247_" class="st0" d="M46.2,136.7c0,0,1.7,0.8,2.2,1.6"/>
			<path id="XMLID_25246_" class="st0" d="M37.5,144.7c0,0-0.5-1.8-0.2-2.7"/>
			<path id="XMLID_25245_" class="st0" d="M46.7,150.5c0,0-1.7,0.7-2.7,0.5"/>
			<path id="XMLID_25244_" class="st0" d="M38.5,149.1c0,0,0.6,1.4,1.8,1"/>
			<path id="XMLID_25243_" class="st0" d="M48.1,141.7c0,0,0.3,1.3,0.7,1.7"/>
			<line id="XMLID_25242_" class="st0" x1="41.4" y1="136.3" x2="43.3" y2="136.3"/>
			<path id="XMLID_25241_" class="st0" d="M48.7,146.6c0,0,0.4,1.8,0.1,2.7"/>
		</g>
		<g>
			<path id="XMLID_25240_" class="st0" d="M52.4,270.1c0,0-1.1-2-0.3-3.1"/>
			<path id="XMLID_25239_" class="st0" d="M55,261.6c0,0-1.3,1.3-1.5,2.3"/>
			<path id="XMLID_25238_" class="st0" d="M54.2,273.3c0,0,0.5,1.8,1.3,2.4"/>
		</g>
	</g>
	<g id="XMLID_25178_">
		<path id="XMLID_25237_" class="st0" d="M80.2,116.6c0.1-2.4-0.7-9.1-0.8-11.3c-0.1-2-0.4-3.7-0.9-5.2
			c7.8-13.3-13.7-28.5-21.4-11.5c-2.4,5.3-2.1,15.7-2,17.4c0.1,2.3,0.1,10,0.1,12c0,11.1,16.6,20,23.1,5.5"/>
		<g id="XMLID_25179_">
			<g id="XMLID_25233_">
				<path id="XMLID_25236_" class="st0" d="M41.2,61.2c0,0-12-15.8-12.3-3.5s3.1,25.7,7.5,24s4.5-5.3,4.5-5.3"/>
				<path id="XMLID_25235_" class="st0" d="M37.2,62.1c0,0-4.7-7.2-5.8-3.8"/>
				<path id="XMLID_25234_" class="st0" d="M39,67.1c0,0-6.9-1.8-5.9,2.2s3.4,6.6,4.7,2.2"/>
			</g>
			<path id="XMLID_25232_" class="st0" d="M77,5.6c0,0-4.5,3.9,1.1,5.7C83.7,13.2,81.9,3.6,77,5.6z"/>
			<path id="XMLID_25231_" class="st0" d="M67.6,15.3c0,0,35.8,2.6,30.8,44.9c-5,42.3-3.6,50.1-23.9,54.4S43.2,104,41,92.7
				S22.6,20.8,67.6,15.3z"/>
			<path id="XMLID_25230_" class="st0" d="M96.4,25.3c-0.1-1.4-0.7-3.2-2-5.4c0,0,0,0,0,0l0,0c-0.3-0.5-0.6-1-0.9-1.5
				c-4-6.3-10.6-9.9-16.5-11.7c-25.7-11.5-28.3,12.8-28.4,22c0,0.9,11.6-0.1,22.1-2.7c13.4,5.4,26,11.4,26,11.4S97.6,29.5,96.4,25.3
				z"/>
			<path id="XMLID_25229_" class="st0" d="M68.9,63.8c0,0,6.4,4.8,14.6,1.8"/>
			<path id="XMLID_25228_" class="st0" d="M53.2,64c0,0-10.3,2.2-12.5,1.3"/>
			<path id="XMLID_25227_" class="st0" d="M55.1,110.8c0,0-4.2,3.9,4.6,5.7c8.8,1.7,14.6-0.6,12.9-3.9"/>
			<path id="XMLID_25226_" class="st0" d="M42.2,32.1c0,0,13.7-5.6,29.8-2s24.5,7.3,24.5,7.3c-5.1-17.8-36.4-17.9-52.1-16.9
				s-11.5,7-11.5,7S35.2,30.4,42.2,32.1z"/>
			<path id="XMLID_25225_" class="st0" d="M42.2,32.1c0,0-27.2-7.5,10.4-9.2s43.8,14.5,43.8,14.5S61.7,22.3,42.2,32.1z"/>
			<g>
				<path id="XMLID_25224_" class="st0" d="M66.6,66.9c0,0-6.5-8-6.2-12.5"/>
				<g id="XMLID_25221_">
					<path id="XMLID_25223_" class="st0" d="M55.3,67.8c0.2,2.1,0.9,3.6,2.3,3.9c0.8,0.1,1.4,0.1,1.9,0c0.4-0.1,0.8-0.3,1.1-0.4"/>
					<path id="XMLID_25222_" class="st0" d="M62.3,42.3c0,0-4.9,13.2-6.3,22.4"/>
				</g>
				<g id="XMLID_25215_">
					<path id="XMLID_25220_" class="st0" d="M53,68.9c0,0-4.8,5.5,2.9,7.1"/>
					<path id="XMLID_25219_" class="st0" d="M66.1,68.9c0,0,5.1,4.2-2.1,7.1"/>
					<path id="XMLID_25218_" class="st0" d="M62.4,72.4c0.7,0.2,1.8-1.3,2.6,0c0.8,1.3-0.1,0.9-1.2,1.2
						C62.7,73.8,61.7,72.2,62.4,72.4z"/>
					<path id="XMLID_25217_" class="st0" d="M55.1,74.3c-1.4-0.1-1.8-1.2-1-1.8c0.3-0.2,1.1,0.2,1.9,0.6
						C56.6,73.4,55.1,74.3,55.1,74.3z"/>
					<path id="XMLID_25216_" class="st0" d="M60.3,66c0,0,1.5,0,1.9,0.5"/>
				</g>
				<path id="XMLID_25214_" class="st0" d="M50.2,72.3c0,0-4.2,2.1-5.4,2.5"/>
				<path id="XMLID_25213_" class="st0" d="M69.1,71.2c0,0,4.9,2.3,5.3,2.3"/>
			</g>
			<path id="XMLID_25212_" class="st0" d="M89.8,50.4c0,0,0.7,1.4-0.4,2"/>
			<path id="XMLID_25211_" class="st0" d="M86,64.8c0,0-0.3,1.3-0.7,1.7"/>
			<path id="XMLID_25210_" class="st0" d="M86.4,39.8c0,0,0.5-2.4,0-2.4"/>
			<path id="XMLID_25209_" class="st0" d="M46.5,31.7c0,0,2.3,0.3,2,0.7"/>
			<path id="XMLID_25208_" class="st0" d="M60.3,36c0,0,2.6-0.4,2.8-0.9"/>
			<path id="XMLID_25207_" class="st0" d="M52.5,100.4c0,0,1.9,0.4,2,0.8"/>
			<path id="XMLID_25206_" class="st0" d="M68.4,101.2c0,0-1.7,0.8-2.2,1.7"/>
			<path id="XMLID_25205_" class="st0" d="M50.7,59.1"/>
			<path id="XMLID_25204_" class="st0" d="M63.2,60.6"/>
			<line id="XMLID_25203_" class="st0" x1="81.1" y1="74.5" x2="82.9" y2="74"/>
			<path id="XMLID_25202_" class="st0" d="M93.4,65.7c0,0,13.3-14.8,12.5-2.4s-5.2,25.3-9.5,23.3s-4-5.7-4-5.7"/>
			<path id="XMLID_25201_" class="st0" d="M97.2,66.9c0,0,5.3-6.8,6.1-3.3"/>
			<path id="XMLID_25200_" class="st0" d="M95,71.8c0,0,7-1.2,5.7,2.7c-1.3,3.9-4,6.3-4.8,1.8"/>
			<g>
				<path id="XMLID_25199_" class="st0" d="M42.2,37.4c0,0,24.4-2.4,15.6,17.3S21.6,51.1,42.2,37.4z"/>
				<path id="XMLID_25198_" class="st0" d="M39.9,51c0,0,3.7-1.5,3.3,2.3C42.7,57.1,37.3,54.2,39.9,51z"/>
				<path id="XMLID_25197_" class="st0" d="M69.3,40.1c0,0-17.9,15.8,4.4,23S88.8,32.1,69.3,40.1z"/>
				<path id="XMLID_25196_" class="st0" d="M81.8,53.2c0,0,3.7-1.5,3.3,2.3C84.6,59.3,79.2,56.4,81.8,53.2z"/>
				<path id="XMLID_25195_" class="st0" d="M70.8,37c0,0-8.2,1-2.3,6.7s17.2,0.2,16.6-1.9C84.4,39.8,83.4,36.4,70.8,37z"/>
				<path id="XMLID_25194_" class="st0" d="M46.8,33.5c0,0-12.7-0.7-6.8,6.3s16.3-0.2,17.2-3.2C58,33.6,46.8,33.5,46.8,33.5z"/>
				<g id="XMLID_25189_">
					<path id="XMLID_25193_" class="st0" d="M40.8,58.4c0,0-3.5,0.5-2,2.2s2.3-0.4,4.9,0.9"/>
					<path id="XMLID_25192_" class="st0" d="M84.6,60c0,0,3.5,0.5,2,2.2c-1.6,1.7-2.3-0.4-4.9,0.9"/>
					<path id="XMLID_25191_" class="st0" d="M80.7,59.7c0,0-8.2-0.6-13.1,0.7"/>
					<path id="XMLID_25190_" class="st0" d="M44.8,57.7c0,0,4.8-0.9,10.2,0.8"/>
				</g>
			</g>
			<g id="XMLID_25184_">
				<path id="XMLID_25188_" class="st0" d="M50.5,85.7c0,0-13.1,1.7-5.8,6.5S50.5,85.7,50.5,85.7z"/>
				<path id="XMLID_25187_" class="st0" d="M48.5,81.8c0,0-10.8-0.6-5.8,5c5,5.6,13.9-0.1,14.6-2.5S48.5,81.8,48.5,81.8z"/>
				<path id="XMLID_25186_" class="st0" d="M70.2,84.6c0,0-5.3-1.8-4.4,4.9s10,5.5,10.6,3.6C77,91.2,77.9,88,70.2,84.6z"/>
				<path id="XMLID_25185_" class="st0" d="M65.7,82.9c0,0-15.4-1.9-0.2,5.5C80.6,95.7,83.2,85.1,65.7,82.9z"/>
			</g>
			<g id="XMLID_25180_">
				<path id="XMLID_25183_" class="st0" d="M52,92.1c0,0,8,7.9,12.5,0"/>
				<path id="XMLID_25182_" class="st0" d="M53.8,90.9c0,0,2.2-2.3,3.9,0"/>
				<path id="XMLID_25181_" class="st0" d="M61.5,90.9c0,0-2.2-2.3-3.9,0"/>
			</g>
		</g>
	</g>
	<path id="XMLID_25177_" class="st0" d="M87.3,123.1c7,1.4,13.1,3.1,14.6,5.1c4.1,5.4,11.9,66.4,2.6,67.2s-10.6,0.5-10.6-2.8
		c0-3.3-6.3-41.6-5-44.6"/>
	<path id="XMLID_25176_" class="st0" d="M28.1,227.5c0,0,7.5,19.6,5.3,22.5"/>
</g>
</svg>
