<?xml version="1.0" encoding="utf-8"?>
<!-- Generator: Adobe Illustrator 19.0.0, SVG Export Plug-In . SVG Version: 6.00 Build 0)  -->
<svg version="1.1" id="Layer_1" xmlns="http://www.w3.org/2000/svg" xmlns:xlink="http://www.w3.org/1999/xlink" x="0px" y="0px"
	 viewBox="378.2 198.8 357.1 479.7" style="enable-background:new 378.2 198.8 357.1 479.7;" xml:space="preserve">
<style type="text/css">
	.st0{fill:#FDF5EB;}
	.st1{fill:#231F20;}
</style>
<g id="XMLID_14657_">
	<path class="st0" d="M722.9,673.9c-0.6-1.8-1.2-3.4-1-5.1c0.3-3.6-2.5-4.2-3.5-4.4c-2.9-0.6-4.3-2-4.8-4.9
		c-0.6-3.7-3.3-6.3-7.4-7.1c-4.4-0.8-8.7-3.9-9.3-6.7c-0.8-3.6-2.8-5.8-4.6-7.7c-1-1.1-2-2.1-2.6-3.3c-0.2-0.6-0.3-1.2-0.5-1.9
		c-0.4-2.1-1-4.7-3.7-6.3l-4-4l-0.3-1.2c0-1.9-0.1-4.3-1.4-6.5l-0.4-2.4c0.4-3.4-0.7-5.6-3.3-6.8l-2-1.7c-1.3-3-2.3-5.6-2.8-8.4
		c-1.1-5.5-2.4-11.7-5.8-17.2c-0.2-0.5-0.3-1.2-0.3-2.1c-0.1-1.3-0.1-3-1.2-4.5c-0.1-2.6-1.5-4.6-2.6-6.2c-0.2-0.2-0.3-0.5-0.5-0.7
		c-0.4-0.6-1-0.9-1.6-0.9c-0.3,0-0.6,0.1-0.8,0.2l-2.5,1.1c-0.3-0.1-0.6-0.4-1-0.8c-0.3-0.2-0.6-0.5-1-0.8c-0.3-0.6-0.6-1.1-1-1.5
		c-0.9-1.2-0.9-1.4-0.7-2c0.4-0.9,0.1-2.1-0.8-2.6l-0.9-0.5c-0.3-0.2-0.7-0.3-1-0.3c-0.2,0-0.5,0-0.7,0.1l-1.3,0.5
		c-0.4,0.2-0.6,0.2-0.8,0.3c0-0.2-0.1-0.6-0.1-1.1c0-0.3,0-0.6,0.1-1c0.3,0.2,0.6,0.3,1,0.3c0.1,0,0.2,0,0.2,0
		c1.1-0.1,1.9-1.1,1.8-2.2c-0.1-0.5-0.2-0.9-0.5-1.3c0,0-0.1-0.1-0.1-0.1c-0.1-0.7-0.1-1.4-0.1-2.1c0-1.6-0.1-3.3-0.7-5.1l0.1-1
		c0.1-0.4,0.1-0.9,0-1.3l0-0.5c0-0.4,0-0.8,0-1.1c0-1,0-2.2-0.5-3.3c-0.5-1.4-1.1-2.8-1.6-4.2c-2.9-7.2-5.8-14.7-6.9-22.5
		c-0.2-1.6-0.6-4.1-2.8-5.4c-1.5-0.9-2.1-2.4-2.9-4.2c-0.3-0.6-0.5-1.3-0.8-1.9c-0.3-0.6-0.8-1-1.5-1.1c0-0.1,0-0.2,0-0.3
		c0-0.3-0.1-0.7-0.1-1c-0.2-0.9-0.9-1.5-1.8-1.6c-0.3,0-0.5,0-0.8-0.1l-0.5-1c0-0.1-0.1-0.1-0.1-0.2c-1.2-1.8-2.8-2.7-4.9-2.7
		c-0.6,0-1.2,0.1-1.7,0.2c0.3-1.1,0.5-2.3,0.6-3.6c0-1.1-0.8-2-1.9-2.1c0,0,0,0-0.1,0c-1.1,0-2,0.8-2,1.9c-0.1,1.9-0.6,3.5-1.6,4.8
		c-0.1,0.1-0.1,0.2-0.2,0.2c-0.9,1.6-1,3-0.4,4.1c0.4,0.7,1.3,1.6,3.3,1.6c0.4,0,0.7,0,1.2-0.1c0.2,0,0.5,0,0.7,0
		c0.9,0,1.6,0.3,2.2,0.9l0.2,0.5c0.2,1.1,0.4,2.1,0.6,3.1c0.8,3.9,1.5,7.5-0.3,10.8c-1.8,3.2-1.3,5.5,1.4,7.5
		c3.8,2.9,5.3,6.7,4.5,11.6c-0.1,0.6-0.3,1.2-0.6,1.9c-0.7,1.9-2,5,1,7.3c3.6,2.8,3.5,6.4,3.3,10.9l0,0.5c0,0.2-0.1,0.5-0.1,0.8
		c-0.2,1.1-0.6,4.1,2.4,5.2c4,1.4,3.8,3.3,2.3,8.2c0,0.1,0,0.2-0.1,0.3l-0.3,2c-0.1,0.4,0,0.8,0.2,1.2l0.4,0.9
		c0.1,0.1,0.2,0.3,0.3,0.4c-0.2,0.3-0.2,0.6-0.2,0.9l0,1.7c0,0.6,0.2,1.1,0.7,1.5c0.4,0.3,0.4,0.4,0,1.8c-0.3,1-0.7,2.1-0.4,3.4
		l-0.1,5.4c0,0.6,0.3,1.2,0.8,1.6c0.2,0.2,0.4,0.3,0.2,1.1c0,0,0,0.1,0,0.1c-1.3,6.2-0.1,11.9,3.4,16.9c0.2,2.5,1.5,4.4,2.7,6.1
		c0.6,0.9,1.2,1.7,1.6,2.6l-0.4,3.4c-0.6,0.3-1.1,0.4-1.5,0.4c-0.8,0-1.7-0.4-2.6-1.3c-1.4-1.4-3-2.4-4.6-3.4
		c-0.5-0.3-1.1-0.7-1.6-1c-0.6-1.2-0.4-2.4-0.1-4.3c0.1-0.8,0.3-1.7,0.3-2.6c1.9-3.3,2-7.1,0.1-11.4c-0.1-0.2-0.2-0.4-0.4-0.6
		l-1.2-1.2c-0.5-0.6-0.9-1.1-1.4-1.7c-1.4-1.8-2.9-3.7-5-5.1l-1.2-7c-0.1-0.6-0.4-1-0.9-1.4c-1.2-0.7-1.2-0.9-1.2-1.2
		c0-0.6-0.2-1.2-0.6-1.6c-0.6-0.6-0.8-1.5-1.1-2.6c-0.4-1.4-0.8-2.9-2-4.2c-0.1-0.1-0.3-0.3-0.4-0.3c-0.2-0.5-0.7-1-1.3-1.1
		c0-0.1,0-0.2-0.1-0.4c-0.1-0.8-0.6-1.5-1.4-1.8c-0.7-0.2-1.2-0.8-1.9-1.7c-0.6-0.7-1.2-1.5-2.1-2.1c-0.4-2.1-1.5-3.7-2.4-5
		c-0.4-0.5-1-0.8-1.6-0.8c-0.1,0-0.1,0-0.2,0c-0.1,0-0.2,0-0.3,0c-0.5,0-0.6,0-1.1-1.5c-0.4-1.2-0.8-2.6-2.1-3.5
		c-0.3-0.2-0.7-0.4-1.2-0.4c-0.1,0-0.2,0-0.3,0l-0.2,0c-0.1-0.2-0.3-0.4-0.5-0.6c-0.2-0.2-0.5-0.3-0.7-0.4c-1.7-0.5-2.5-1.3-2-4.1
		c0-0.2,0-0.3,0-0.5c-0.1-0.9-0.5-1.7-1.2-2.1c-0.3-0.2-0.6-0.3-0.9-0.3c0,0,0,0,0,0c0-0.2,0-0.5,0-0.7c0-0.2,0-0.3,0-0.5
		c0,0-0.2-1.9-0.2-1.9c0-0.2-0.1-0.5-0.2-0.7l-6-12.2c-0.2-0.3-0.4-0.6-0.7-0.8l-0.1-1.4c0-0.3-0.1-0.7-0.3-1l-0.8-1.2l-3.1-5
		c-0.4-0.6-1-0.9-1.7-0.9c0,0-0.1,0-0.1,0c-0.7,0-1.4,0.5-1.7,1.1c-3.1,6.1-5.3,12.5-7.5,18.7c-1.1,3.2-2.3,6.6-3.6,9.8
		c-1.2,3.3-2.8,3.7-4.1,3.7c-1.6,0-3.4-0.6-5.4-1.3l-0.9-0.3c-1.2-0.4-2.4-0.8-3.6-1.1l-1.6-0.5c-0.2-0.1-0.4-0.1-0.6-0.1
		c-0.3,0-0.6,0.1-0.9,0.2c-1.3,0.6-1.7,1.7-1.8,2.5c-0.8-1.4-2.1-2.3-3.1-3.1c-0.3-0.2-0.6-0.4-0.8-0.6c-0.2-0.1-0.3-0.2-0.5-0.3
		l-8.1-3.2c-0.2-0.1-0.5-0.1-0.7-0.1c-0.1,0-0.2,0-0.4,0c-0.1,0-0.2,0-0.3,0c-0.8,0.1-2.7,0.3-3.3,2.5c-0.1,0.5-0.1,1,0.1,1.4
		c0.6,1.4,1.7,2.4,2.6,3.2c1.2,1.1,1.8,1.8,1.9,2.8c0,0.8,0.6,1.5,1.3,1.8c0.3,0.1,0.6,0.3,0.9,0.6c-0.9,0.3-2.2,0.7-3,1.9
		c-0.2-0.4-0.6-0.8-1-1c-0.4-0.2-0.8-0.4-1-1.5c-0.1-0.4-0.3-0.8-0.5-1.1l-0.9-0.9l0.5-0.9c0.6-1,0.2-2.2-0.7-2.7
		c-0.3-0.2-0.7-0.3-1-0.3c-0.5,0-0.9,0.2-1.3,0.5c-0.2-0.4-0.6-0.8-1.1-1c-1.3-0.5-1.7-1.1-1.9-1.7c-0.2-1.7-1.4-2.6-2.1-3.1
		c-0.2-0.2-0.6-0.4-0.6-0.6c0-1-0.8-1.8-1.8-1.9c-0.1,0-0.2,0-0.2,0c-0.1,0-0.1,0-0.2,0c-1-0.1-1.3-0.6-1.8-2.5
		c-0.2-0.8-0.5-1.7-0.9-2.5c1.5-0.6,3-1.4,3.2-3c0.2-1.2-0.5-2.1-1.3-2.7c1.3-1.2,2.5-2.7,2.9-4.5c0.3-1.1-0.4-2.2-1.5-2.4
		c-0.2,0-0.3-0.1-0.5-0.1c-0.9,0-1.7,0.6-1.9,1.5c-0.3,1.2-1.5,2.4-2.7,3.4c-0.4-0.1-0.8-0.1-1.2-0.1c0.2-0.9,0.3-1.9-0.3-2.8
		c-0.3-0.5-1-1.3-2.4-1.4c-2.2-0.2-3.7-1.7-5.4-3.3c-0.7-0.6-1.4-1.3-2.1-1.9c-0.6-0.5-1.1-1.3-1.6-2.1c-0.8-1.2-1.7-2.8-3.3-3.7
		c-0.1-0.4-0.3-0.7-0.7-1c-0.4-0.3-0.8-0.4-1.2-0.4c-0.5,0-1,0.2-1.4,0.5c-0.1,0-0.2,0-0.4,0.1c-0.1,0-0.3,0-0.4,0.1l-3.1,1
		c-0.5,0.2-0.9,0.5-1.2,1c-0.2,0.5-0.3,1-0.1,1.6c0.7,2,0.8,3.8,0.1,5.4c-1.7,4.1-0.7,7.2,3.2,9.5c2.8,1.6,4.7,4.3,5.4,7.3
		c0.7,3,2.7,5.2,6,6.5c3.1,1.2,3.8,2.7,2.8,5.9c-0.1,0.2-0.1,0.4-0.1,0.6c-0.2,0-0.4,0.1-0.6,0.1c-0.2,0-0.4,0-0.5,0.1
		c-0.9,0.1-1.6,0.8-1.7,1.7l-0.2,1.2c-0.2,0.3-0.4,0.8-0.4,1.4c0.3,3.5-0.7,6.9-1.8,10.4c-0.9,3-1.8,6-2,9.3
		c-2.2,2.7-1.9,5.2-1.3,6.8c0.7,1.8,0.3,3.5-0.5,5.6c-4.6,3.6-6.6,8.2-6.1,14.1c0.1,1-0.3,2.1-0.7,3.3c-0.8,2.4-1.7,5.4,0.5,8.6
		c3.7,5.3,5,11.8,6.2,18c0.2,1,0.4,2,0.6,3c0.4,1.8,0.6,3.7,0.8,5.7c0.3,3,0.7,6.2,1.6,8.9c0.1,0.4,0.3,0.8,0.4,1.3
		c-2.5-4.8-3.8-10-5.1-15.5c-0.9-3.9-1.9-8-3.4-11.9c-0.3-0.8-0.6-1.5-0.8-2.3c-1.2-3.3-2.4-6.8-5-9.8c-2.5-2.9-3.1-5.8-2-9.2
		c0.5-1.6,0.8-3.2,1.1-4.8c0.5-2.8,1-5.5,2.8-7.6c0.3-0.3,0.5-0.8,0.5-1.2c0-1.1-0.2-2.2-0.4-3.2c-0.5-2.5-0.5-3.4,0.8-4.5
		c0.5-0.3,0.8-0.9,0.9-1.5l0.3-3.7c0-0.2,0-0.5-0.1-0.7c-0.5-1.8,0-3.6,1-5.8c1.6-3.8,1.8-6.7,0.6-9c-1.1-2.2-3.5-3.7-7.2-4.5
		c-1.1-2.9-3.3-4.8-5.2-6.6c-2.2-2-4.2-3.7-4.6-6.5c-0.8-5-1.8-10.4-4.4-15.2c-0.2-0.3-0.4-0.6-0.8-0.8c-1.5-0.8-1.8-2.2-2.3-4.4
		c-0.3-1.4-0.6-3-1.5-4.5l-0.1-0.5c0.1-0.4,0.1-0.9-0.1-1.3c-0.2-2.4-1.4-5.7-4.1-5.7c-0.5,0-1.1,0.1-1.6,0.4
		c-0.9,0.5-1.7,0.8-2.4,0.8c-2.1,0-2.8-3.1-2.8-3.9c0-4.5-2-8-3.8-11.1c-1.3-2.2-2.5-4.3-2.9-6.6c-0.3-1.7-2.2-2.7-3.3-3
		c-0.3-0.1-0.5-0.1-0.7-0.1c-0.8,0-1.6,0.3-2.1,1c-0.9,1-0.9,2.4-0.8,2.9c0.4,3.5-0.3,7.1-2.1,10.9c-0.9,1.9-0.2,4.2,1.8,5.2
		c1,0.5,1.7,1.6,2.4,2.8c0.4,0.6,0.8,1.3,1.3,1.9l0.7,5.1c-0.1,0.5-0.1,0.9-0.2,1.4c-0.2,1.2-0.3,2.3-0.6,3.4
		c-0.6,2.5-0.3,4.4,0.7,5.9c0.7,1,1.8,1.8,3.2,2.2l0,0.4c-1.1,1.4-2.5,3.5-1,6.1l-0.4,4.6c-2.6,1.7-3.7,4.2-4.7,6.7
		c-2.1,4.9-2.4,9.9-0.8,15.8c-2.6,2.9-2.3,6.4-1.8,9.2l-0.2,0.4c-0.2,0.4-0.3,0.9-0.2,1.3c0,0-0.1,0-0.1,0c-0.9,0.2-1.5,1-1.5,1.9
		c-0.6,0.3-1,0.9-1.1,1.5c-0.1,0.4-0.3,0.6-1.3,1.2c-0.3,0.2-0.6,0.4-0.9,0.6c-0.3,0.2-0.5,0.5-0.6,0.8c-0.1,0.3-0.3,0.6-0.4,0.9
		c-1,2.3-1.5,3.1-3,3.3c-0.7,0.1-1.4,0.6-1.6,1.3c-0.1,0-0.2,0.1-0.5,0.1c-0.8,0.1-1.4,0.7-1.7,1.4l-1.5,4.8
		c-1.6,3.4,0.4,5.7,1.7,7.1c0.3,0.4,0.7,0.7,0.9,1.1l1.1,1.8c0.1,0.2,0.1,0.5,0.2,0.9c0.2,1.4,0.6,3.7,2.9,4.2
		c0.5,0.1,0.7,0.2,0.8,0.3c0,0.2-0.1,0.7-0.2,1.1c0,0,0,0,0,0c-3.5-0.5-6.2-2.8-9.1-6.1c-0.4-0.4-0.9-0.7-1.5-0.7
		c-0.4,0-0.9,0.1-1.2,0.4c-0.8,0.7-2.1,1.7-2.8,2c-0.4-0.6-1.1-2.3-1.6-3.2c-1-2.4-2.7-3.4-4.4-4l0-1.3l4.6-4.4l4.1-0.3
		c0.1,0,0.2,0,0.2,0c1.3,0,2.3-0.4,2.9-1.2c0.9-1.1,0.7-2.5,0.6-3.3c0-0.2-0.1-0.5-0.1-0.6c0-0.1,0-0.1,0-0.2c0.1-4,1.3-6.3,3.8-7.8
		c2.7-1.6,2.2-4.3,1.8-6c1.9-4.1,2-7.9,0.2-12.2c-2.6-6.3-3.8-11.5-1.1-16.5c1.7-3.2,1.8-6.1,0.2-9.3c-0.3-0.6-0.9-1-1.6-1.1
		c-2.3-0.2-2.8-1.3-3.7-4c-0.4-1.2-0.8-2.4-1.6-3.5c-0.1-0.1-0.2-0.2-0.3-0.3c0-0.2,0-0.4-0.1-0.5c0-0.1,0-0.2-0.1-0.2
		c0,0-0.4-1.1-0.4-1.1c-0.1-0.3-0.3-0.6-0.6-0.8c-0.2-0.2-0.4-0.4-0.2-1.3c0.1-0.3,0-0.7,0-1c0,0-1.2-3.9-1.2-3.9
		c0-0.1,0.1-0.3,0.1-0.4l0.5-4c0.9-4.7-0.6-8.9-2-12.9c-1-2.9-1.9-5.6-2-8.4c0-0.8-0.1-1.7-0.1-2.5c0.7,0.1,1.3,0.2,1.9,0.2
		c0.4,0,0.7,0,1.1-0.1c0.5-0.1,0.9-0.3,1.2-0.5l0.1,0.3l-0.1-0.3c0.4-0.4,0.7-1,0.6-1.7c-0.1-0.9-0.7-1.5-1.5-1.7l0-0.2l0,0l0,0.2
		c-0.1,0-0.3,0-0.4,0c-0.1,0-0.2,0-0.2,0c-0.2,0-0.4,0-0.6,0c-0.7,0-1.5-0.1-2.5-0.4c-0.1,0-0.2,0-0.4-0.1l-0.5-1.4
		c-0.3-0.7-0.9-1.2-1.7-1.3c-0.2,0-0.3-0.1-0.3-0.1c-0.1-0.1-0.2-0.6-0.2-0.9c-0.1-0.7-0.3-1.7-0.9-2.5c-0.1-0.2-0.3-0.3-0.5-0.5
		c-0.2-0.1-0.4-0.3-0.3-1.1c0.1-0.7-0.2-1.5-0.8-1.9l-0.2-0.1c-0.3-0.2-0.8-0.6-0.8-0.7c0,0,0,0,0-0.1c0-0.2,0.1-0.4,0-0.5l-0.2-3
		l-0.3-3c0-0.1,0-0.1,0-0.2c0,0-0.2-1.1-0.3-1.1c-0.7-2.5-0.4-5.3,0.9-7.5c2.5-4.4,0.6-7.3-1.5-9.5c-0.4-0.4-0.9-0.6-1.5-0.6
		c-0.2,0-0.5,0-0.7,0.1c-5,1.8-7.4,4.2-7.3,7.2c0.1,1.1,0.3,2.2,0.4,3.2c0.5,2.8,0.7,4.4-1,6c-0.7,0.6-0.9,1.6-0.4,2.5
		c1.1,2,1.2,3.8,0.6,5.7c0-0.2-0.1-0.3-0.2-0.5c-0.4-0.6-1-1-1.7-1c-0.3,0-0.7,0.1-1,0.3c-0.8,0.5-1.3,1-1.7,1.6
		c0.5-2.7-0.3-5.7-4-8.7c-1.7-1.4-3-4.8-3.2-8.3c-0.1-2.2-1.2-3.5-3.1-3.7c1.2-2.1,1.5-4.8,0.8-8.2c0-0.2,0.3-0.7,0.4-1
		c0.2-0.4,0.4-0.8,0.5-1.2c0.1-0.3,0.1-0.5,0.1-0.8l-0.1-1.8c0-0.4-0.2-0.7-0.4-1c-0.9-1.3-2-2.2-3.3-2.6c1-0.6,1.9-1.6,1.9-3.6
		c0-0.2,0-0.3-0.1-0.5l-3.2-11c-0.2-0.9-1-1.4-1.9-1.4c0,0-0.1,0-0.1,0c-0.3,0-0.4,0-0.6,0c-0.1,0-0.1,0-0.2,0c0,0,0,0,0,0
		c-1.6-4.9,1.6-13.5,6.1-16.2c2.6-1.5,2.7-4.2,2.8-6.1c0-0.4,0-0.9,0.1-1.3c0.1-0.6-0.1-1.1-0.5-1.6c-0.4-0.4-0.9-0.7-1.5-0.7
		l-0.6,0c0-1.4,0.3-2.7,0.7-4.1c0,0.2,0.1,0.4,0.1,0.5c0,0,0,0.1,0,0.1c0.3,0.8,1.1,1.3,1.9,1.3c0.2,0,0.5,0,0.7-0.1
		c1-0.4,1.5-1.6,1.1-2.6c-0.2-0.5-0.5-0.8-0.9-1c0.3-0.4,0.4-0.9,0.3-1.4c-0.2-1.3-0.2-2.6-0.2-4c0-0.2,0-0.4,0-0.6l1.5-1.7
		c0.1-0.1,0.2-0.2,0.2-0.3c0.2-0.3,0.3-0.5,0.5-0.8c0.3-0.5,0.8-1.4,1-1.6c0.1,0,0.4,0.2,1,0.6c0.4,0.3,0.8,0.4,1.3,0.4
		c0.2,0,0.3,0,0.5-0.1c0.6-0.2,1.1-0.6,1.4-1.2l1.5-3.6c0.2-0.5,0.2-1.1,0-1.6c-0.8-1.7-2.6-1.9-3.6-2c-0.1,0-0.2,0-0.3,0
		c0,0,0-0.1,0-0.1c0.7-1.4,1.1-3,1-4.9l0.3-1.5l4.5-11.3l0.9,0.1l0.3-1.8c0.2,0.1,0.5,0.1,0.7,0.1c0.3,0,0.5-0.1,0.8-0.2
		c3.1-1.4,5.3-3.3,6.6-5.8c0,0,0.1,0,0.2,0c0,0,0.1,0,0.1,0c1,0,1.9-0.8,2-1.9c0-0.4,0-0.8-0.1-1l0-0.1l0-1l3.1-0.9
		c1.1-0.3,1.7-1.4,1.3-2.5c-0.3-0.9-1.1-1.4-1.9-1.4c-0.2,0-0.4,0-0.6,0.1l-1.2,0.4c0-0.2,0-0.3,0-0.5c-0.1-0.7-0.1-0.9,1-1
		c0.5-0.1,1-0.3,1.3-0.8c0.9-1.2,1.8-2.4,2.6-3.6c2-2.9,3.9-5.6,6.5-7.7c3.1-2.5,3-5.4,2.3-7.4c-0.1-0.2-0.1-0.3-0.2-0.5l-0.8-1.2
		c-0.4-1.3-0.9-2.5-1.4-3.8c-0.8-2.3-1.7-4.7-2.4-7.1c-0.2-0.9-1-1.5-1.9-1.5c-0.1,0-0.2,0-0.2,0c-0.2-0.9-0.5-1.8-0.8-2.7
		c-0.3-0.8-0.5-1.6-0.7-2.4c2.2-1.8,1.9-4.4,1.7-6c-0.1-0.5-0.1-1-0.1-1.4c0.2-4.5,1.9-8.6,5.8-13.5c0.3-0.4,0.5-0.9,0.4-1.4
		l-0.1-1.9c0-0.1,0-0.3-0.1-0.4c-0.4-1.4,0.2-2.5,1.2-4.3c0.7-1.3,1.6-2.8,1.8-4.5c0-0.2,0.2-0.6,0.3-0.9c0.4-0.9,0.8-2.1,0.6-3.5
		c-1.1-5.8,2.1-10.1,5.4-14.6c0.4-0.5,0.7-1,1.1-1.5c0.9-1.2,1.7-2.7,1.5-4.5c-0.3-2.8,0.4-4.5,2.3-6.1c2-1.7,2-4,1.9-5.9
		c0.1,0,0.2,0,0.2,0c2,0,3.5-1.4,4.4-2.4c3.8-4.4,9.6-5.5,15.7-6.4c0.5-0.1,1-0.1,1.7-0.1c0.4,0,0.8,0,1.2,0c0.4,0,0.8,0,1.3,0
		c0,0,0.1,0,0.1,0l16.1,7.6c0.3,0.1,0.6,0.2,0.9,0.2c0.1,0,0.2,0,0.4,0c0.3-0.1,0.6-0.1,0.9-0.1c1.3,0,2.6,0.5,3.9,1.1
		c0.1,0,0.2,0.1,0.2,0.1c-0.2,0.2-0.4,0.5-0.5,0.8l-0.6,1.9c-0.1,0.4-0.1,0.8,0,1.2c0.5,1.7,1.4,2.5,2.7,2.5c0.1,0,0.2,0,0.3,0
		c0.1,0.3,0.3,0.6,0.4,0.9c0.2,0.5,0.4,0.9,0.5,1.3c0.1,0.3,0.2,0.6,0.4,0.8c2.4,2.8,3,9.2,1.5,14.5c-0.3,1.1,0.3,2.2,1.4,2.5
		c0.2,0.1,0.4,0.1,0.5,0.1c0.9,0,1.7-0.6,1.9-1.5c1.8-6.4,0.9-13.8-2-17.7c0-0.1-0.1-0.2-0.1-0.3c0.7,0,1.4-0.5,1.7-1.2
		c0.3-0.7,0.2-1.5-0.3-2.1c1.3-1.5,3.1-2.5,5.2-3.5c0.5-0.2,1.4-0.4,2.3-0.6c3-0.5,8.5-1.5,7.5-8.5c0,0,0-0.6,0-0.7
		c0.2,0.1,0.5,0.3,0.7,0.4c0.6,0.3,1.2,0.4,1.7,0.4c1.7,0,2.6-1.1,3.2-1.8c0.1-0.2,0.3-0.3,0.4-0.5c1.5-1.4,2.7-2.5,4.3-2.8
		c0.8-0.2,1.5-0.8,1.6-1.7l0-0.2c0.2,0,0.3,0,0.5,0c0.1,0,0.2,0,0.2,0c0.7,0,1.4-0.4,1.7-1c0.3-0.6,0.4-1.2,0.1-1.8
		c1.6-0.8,6.3-2,11.2-2c1.6,0,3,0.1,4,0.4c4.6,1.3,6.3,3.3,6.2,3.9c-0.1,0.7,0.1,1.3,0.6,1.8c0.4,0.4,0.9,0.5,1.4,0.5
		c0.2,0,0.3,0,0.5-0.1c2.4-0.6,4.4-0.9,6.1-0.9c0.2,0,0.5,0,0.7,0c8.9,0,14.5,2.6,15.3,5c0.2,0.6,0.6,1.1,1.2,1.3
		c0.2,0.1,0.5,0.1,0.7,0.1c0.3,0,0.5,0,0.7-0.1c0.2,0,0.5,0.1,0.7,0.1c0.4,0.1,0.8,0.2,1.3,0.2c0.7,2.6,2.9,3.9,4.5,4.8
		c1,0.6,1.9,1.1,2.3,1.7c0,1,0.9,1.9,1.9,1.9l3.8,0.1c6.3,0.3,10.9,2.1,14.3,5.7c0.2,0.2,0.5,0.4,0.6,0.5c0,0,0.1,0.1,0.1,0.1
		c0.7,0.8,1.8,1.1,2.6,1.3c0,0,0.1,0,0.1,0c0,0.5,0.1,0.9,0.4,1.3c0.4,0.5,1,0.8,1.6,0.8c0.3,0,0.7-0.1,1-0.2c1-0.5,1.9-0.8,2.7-0.8
		c0,0,0,0,0.1,0c0.1,0,0.2,0,0.2,0c0.1,0,0.1,0,0.2,0c0.4,0,0.9,0.1,1.6,0.8c0.4,0.4,0.9,0.6,1.4,0.6c0,0,0.3,0,0.4,0
		c0.4,0,0.8-0.2,1.1-0.4c1-0.8,1.4-0.8,1.5-0.8c0,0,0.2,0.2,0.5,0.9c0.3,0.7,1,1.1,1.7,1.2l2,0.1l0,1c0,0.2,0,0.4,0.1,0.5l0.2,0.6
		c0,0.1,0,0.2,0.1,0.3l0,0.1c0.2,0.8,0.7,1.4,1.5,1.6c0.2,0,0.3,0.1,0.5,0.1c0.6,0,1.2-0.3,1.6-0.8c0.9-1.1,1.7-2.3,2.7-3.7
		c0.4-0.5,0.9-1,1.4-1.6l0.4-0.4c0.1-0.1,0.2-0.2,0.2-0.2l-0.1,0.1c-1.2,1.5-2.2,3.2-3.3,5.1c-0.3,0.6-0.3,1.4,0,2s1,1,1.7,1h2.7
		c0.7,0,1.4-0.4,1.7-1c0.1-0.1,0.1-0.2,0.1-0.2c0.1,0,0.4,0,1,0.4c1.2,0.8,2.1,1.9,2.2,2.6c0,0.1,0,0.4-0.4,0.9
		c-1.5,1.4-3.4,3.5-3,5.9c0.4,2.5,2.9,3.8,5.3,5l0.2,0.1c0.6,0.3,0.9,0.6,1,0.8c0,0.2-0.1,0.5-0.5,1.1c-0.2,0.3-0.6,0.6-1,1
		c-1.1,1-3.5,3-2,5.9c1.5,2.9,5.2,4.7,7.7,4.7c0.3,0,0.7,0,1-0.1c0.4-0.1,0.7-0.1,1-0.1c1.6,0,2.7,0.9,4.3,2.3c1,0.9,2,1.8,3.3,2.4
		c0.1,0.1,0.2,0.1,0.2,0.1c-0.1,0.2-0.3,0.6-0.8,1.1c-1.9,1.8-2.8,3.7-2.7,5.7c0.1,2,1.2,3.8,3.2,5.4c1,0.8,1.4,1.9,1.9,3.3
		c0.4,1.3,0.9,2.7,2,3.9c-0.1,0.1-0.2,0.2-0.4,0.4c-0.1,0-0.1,0.1-0.2,0.1c-0.1,0-0.1,0.1-0.2,0.1c-0.2,0.1-0.3,0.3-0.4,0.4
		c-0.2,0.1-0.2,0.2-0.2,0.2c-0.1,0-0.1,0-0.2,0c-0.4,0-0.7,0.1-1,0.3c-3.5,2.3-3.8,5.8-3.8,9c0,0.7-0.3,1.7-0.7,2.6
		c-0.5,1.5-1.2,3.2-0.7,5c0.5,1.9,1.8,3.1,3.6,3.1c0.8,0,1.5-0.2,2.2-0.4c0.5-0.1,1-0.3,1.3-0.3c0.1,0,0.1,0,0.1,0
		c0.1,0.2,0.3,0.3,0.5,0.4c0.2,0.1,0.5,0.3,0.8,0.4c0,0,0,0,0,0c0.3,2.4-1.8,8.4-4.2,10.3c0,0-0.1,0.1-0.1,0.1
		c-1.3,1.2-3.3,2.9-2.6,5.9c0.1,0.4,0.3,0.7,0.5,1c0.8,0.8,0.7,1.5,0.2,3.4c-0.1,0.3-0.2,0.7-0.3,1c-0.1,0.5-0.3,1-0.5,1.6
		c-0.6,1.6-1.5,3.9-0.3,6.4c0.3,0.6,0.9,1,1.6,1.1c0.1,0,0.1,0,0.2,0c0.6,0,1.2-0.3,1.6-0.7c4.2-5.2,6-11.3,7.8-17.1
		c0.6-2.1,1.3-4.3,2.1-6.4c0.1-0.3,0.1-0.5,0.1-0.8c-0.1-1.5-0.1-3.9,0.9-4.1c0.1,0,0.3,0,0.4,0c1.4,0,2.5,1.3,2.7,3.3
		c0,0.4,0.2,0.9,0.5,1.2l0,0c0.3,0.4,0.8,0.7,1.4,0.8l0.3,1.3c0.2,0.9,1,1.5,1.9,1.6c0,0,4.7,0.1,4.8,0.1c0.9,0,1.7-0.6,1.9-1.5
		c0-0.1,0-0.2,0.1-0.3c0.2,0.1,0.4,0.2,0.6,0.2c0.2,0.1,0.3,0.1,0.5,0.2c0.1,0.1,0.1,0.3,0.2,0.5c0.4,0.9,1.1,2.9,3.7,3
		c0.1,0,0.1,0,0.2,0c0,0.2,0,0.4,0,0.6c0,0.4-0.1,0.8,0,1.3c-0.5,15.9-4.4,31.3-11.8,47.1c-0.1,0.2-0.2,0.5-0.2,0.7
		c0,0.5,0,0.9,0,1.3c0,0.2,0,0.5,0,0.7c-0.1,0-0.1,0-0.2,0c-0.5,0-1,0.3-1.3,0.7c-0.1,0.1-0.1,0.1-0.2,0.2l0,0
		c-2.4,3.1-2.5,6.5-0.5,9.6l-0.1,0.3c0,0,0,0,0,0c-0.5-0.3-1-0.5-1.5-0.6c-0.2,0-0.4-0.1-0.6-0.1c-0.8,0-1.9,0.2-2.9,1.4
		c-0.5,0.4-0.8,1-0.8,1.7c0.1,1-0.1,1.5-0.2,1.7c-0.1,0.1-0.4,0.3-1.6,0.3c-0.4,0-0.7,0-1.1,0l0-0.5c0-1.1-0.9-2-2-2
		c0,0-3.9,0.1-3.9,0.1c-0.5-0.8-1.2-1.9-2.6-2.3c-0.2-0.1-0.4-0.1-0.6-0.1c-0.9,0-1.6,0.5-1.9,1.4c-0.3,1,0.2,2.1,1.2,2.5
		c0.1,0.1,0.3,0.4,0.4,0.7c0.1,0.1,0.1,0.2,0.2,0.3c-0.5,0.6-1,1.5-0.9,2.7l-0.7,1c-2.1,0.8-3.4,2.4-3.5,4.5
		c-0.1,0.2-0.2,0.5-0.2,0.7c-0.9,1.9-1.7,3.8-2.5,5.6c-2,5-3.9,9.7-8.4,12.7l-3,2.1c-0.6,0.4-0.9,1.1-0.9,1.8l0.1,1.6
		c-0.1,0.2-0.1,0.4-0.2,0.5c-0.9,2.5-2.2,6.4,1.8,9.3l1.1,1c0.6,0.5,1.1,1.2,1.6,1.9c0.8,1.2,1.9,2.7,3.6,3.6l0.2,2.8l-0.1,2.3
		c-0.7,1-0.9,2-0.7,2.9c0.4,1.7,2.2,2.4,2.9,2.7l0,0l-0.2,0.7c-0.1,0.4-0.1,0.9,0.1,1.3c-0.1,0.2-0.1,0.4-0.2,0.5
		c-0.4,0.9-0.9,2.2-0.2,3.6c0.7,1.3,2.1,1.8,2.7,1.9l1.6,0.6l0,0c0.4,0.4,0.9,0.6,1.4,0.6c5.5,2.6,8.2,6.9,8.2,13.2
		c0,1.3,0.7,3,3.7,4.2c4.4,1.7,5.7,3.8,4.9,7.4c-0.2,0.9-0.2,2.5,2.4,3.4c4.7,4.6,5,10.2,4.1,17.9l0,0.1c-0.7,5.6-1.4,11.5,3.4,16.4
		l0.6,3.8c-0.5,1.6-0.1,2.8,0.5,3.6c0,0.2,0.1,0.4,0.2,0.6c0.5,0.9,1,1.8,1.5,2.6c1.7,2.9,3.3,5.7,3.9,8.9l0.4,2
		c0.1,0.3,0.2,0.6,0.4,0.9c2.5,3.1,2.8,6.9,3.2,10.9c0.1,0.6,0.1,1.3,0.2,1.9c0.2,1.7,0.6,5.2,4.7,6c5.4,1.1,8.6,5.2,11.9,9.6
		c0.8,1,1.5,2,2.3,2.9c2.7,3.3,4.7,7.5,6.5,11.5c0.8,1.8,1.7,3.7,2.6,5.5c0.5,0.9,0.9,1.9,1.4,2.9c1.9,4.3,4.2,9.6,10.3,11.6
		c0.1,0,0.2,0.1,0.2,0.1c-1.7,0-3.4-0.6-5.2-1.2c-1.2-0.4-2.5-0.8-3.8-1.1l-1.1-1.7c-0.5-3.2-2.2-5.8-3.7-8.4
		c-1.1-1.8-2.1-3.4-2.8-5.2c-0.4-1.3-1.6-2-3.2-2c-0.6,0-1.2,0.1-1.7,0.4c-0.6,0.3-1.2,0.4-1.7,0.4c-1.6,0-3-1.3-4.8-3.1
		c-2.4-2.4-5.2-4.4-9-6.4l-0.2-0.1c-1-0.5-2.2-1.2-3.6-1.2c-1.1,0-3.1,0.5-4,3.6c-1.7,3-0.6,5.1,0.6,6.3c0.3,0.3,0.6,0.4,1,0.5
		c-0.1,0.4,0,0.8,0.1,1.2c0.6,1.5,0.8,3.2,1.1,5c0.3,2.8,0.7,5.7,2.6,8.2c3.1,4,4.6,8.6,4.9,14.5l0,0.6c0.1,2.3,0.2,5.7,3.6,7.3
		c2.4,1.1,2.6,2.8,2.9,6.1c0,0.3,0,0.6,0,1c-0.1,1.3-0.3,4.4,2.9,5.2c2.3,0.6,3.1,2.2,4.4,4.9l0.3,0.7c0.7,1.4,2,4.3,5.3,4.3
		c2,0,2.5,0.4,2.5,3.7c0,1.9,0.4,3.6,0.7,5.2c0.2,0.8,0.3,1.6,0.5,2.3c0.3,2.1,1.4,3.7,2.3,5.2c1.1,1.8,1.8,3,1.7,4.5
		c0,0.1,0,0.2,0,0.3c0.1,2.7-0.2,4.4-1.4,5.5C723,674.2,723,674,722.9,673.9z M506.5,668c0.4-0.3,0.7-0.7,1.1-1.1
		c0.2-0.1,0.5-0.2,0.8-0.3c1.1-0.3,3.6-0.9,3.5-3.8c0-0.9,0.1-1.9,0.2-3c0.5,1.6,1.1,3.2,1.9,4.7c0.9,1.7,0.6,2.3,0.6,2.3
		c0,0-0.3,0.5-2.4,0.7c-0.6,0.1-1.2,0.1-1.8,0.1C509.1,667.7,507.8,667.7,506.5,668z M402.9,514.4c-0.2,0-0.5,0-0.7-0.1l-0.3-1.9
		l-0.1-3.1c1-0.4,1.8-1.2,2.4-2.2c0.5-1,0.2-2.2-0.8-2.7c-0.1-0.1-0.3-0.1-0.5-0.2c0.2-1-0.1-2-0.3-2.7c0.6-2.3,0.4-4.4,0.1-6.6
		c0.5-1.3,0.4-2.4,0-3.4c-0.4-0.8-1-1.4-1.9-1.7l-0.1-0.3c-0.1-1.1-0.1-2.3-0.1-3.5c0-3,0-6.4-1.9-9.6c0.7-1.1,1.4-2.3,1.9-3.5
		c-0.1,1.1,0.2,2.3,0.4,3.1c0.2,0.8,0.4,1.7,0.3,2.2c-0.2,1,0.4,1.9,1.3,2.3c0.4,1.8,2,2.7,2.8,3.1c0.3,0.2,0.8,0.4,0.9,0.6
		c0.2,0.5,0.5,0.9,0.7,1.4c0.7,1.2,1.1,2,1,2.9c-0.1,0.6,0.1,1.2,0.5,1.6c0.1,0.1,0.1,0.1,0.2,0.2c-0.1,0.4-0.1,0.7,0.1,1.1
		c0.5,1.4,0.3,3,0.1,4.7c-0.2,1.5-0.3,3-0.1,4.5c-0.1,0.2-0.4,0.5-0.7,0.8c-0.9,0.9-2.3,2.4-1.8,4.8c0.1,0.3,0.2,0.5,0.3,0.7
		c0.3,0.4,0.3,1,0.1,2.1c-0.1,0.3-0.1,0.6-0.2,1c-0.9,0.3-1.9,1.1-2.4,3.1C403.8,514.4,403.4,514.4,402.9,514.4z M404.7,473.6
		c-0.1-0.9,0.1-1,0.5-1.2c0,0,0.1-0.1,0.1-0.1C405.1,472.7,404.9,473.1,404.7,473.6z"/>
	<path class="st1" d="M542.8,203.8c2,0,3,0.2,3.5,0.3c2.9,0.8,4.3,1.9,4.7,2.3c0,1.1,0.5,2.1,1.3,2.9c0.8,0.7,1.7,1.1,2.7,1.1
		c0.3,0,0.6,0,0.9-0.1c2.2-0.5,4.2-0.8,5.7-0.8c0.2,0,0.5,0,0.7,0c8.7,0,13,2.5,13.3,3.6c0.4,1.2,1.2,2.1,2.4,2.6
		c0.5,0.2,1,0.3,1.5,0.3c0.3,0,0.6,0,0.8-0.1c0.1,0,0.1,0,0.2,0c0.1,0,0.1,0,0.2,0.1c1.2,2.6,3.5,3.9,5,4.7c0.4,0.3,1.1,0.6,1.5,0.9
		c0.4,1.7,1.9,2.9,3.8,3l3.8,0.1c5.9,0.3,9.9,1.9,13,5.1c0.3,0.3,0.7,0.6,0.9,0.7c0.7,0.8,1.6,1.2,2.4,1.4c0.2,0.4,0.4,0.7,0.6,1
		c0.8,0.9,1.9,1.4,3.1,1.4c0.7,0,1.3-0.2,1.9-0.5c0.9-0.5,1.5-0.6,1.8-0.6c0,0,0,0,0,0c0,0,0.1,0,0.1,0c0.1,0,0.2,0,0.3,0
		c0,0,0.1,0.1,0.2,0.2c0.7,0.7,1.8,1.2,2.9,1.2c0,0,0,0,0.1,0c0.1,0,0.2,0,0.4,0c0.7,0,1.3-0.2,1.9-0.6c0.7,0.8,1.7,1.3,2.7,1.3
		l0.2,0c0,0.1,0,0.1,0,0.2l0.1,0.3l0.1,0.3c0,0.1,0,0.1,0,0.2l0,0.1c0.3,1.5,1.5,2.7,3,3.1c0.3,0.1,0.6,0.1,0.9,0.1
		c0.5,0,0.9-0.1,1.4-0.2c0.7,1.1,2,1.7,3.3,1.7h2.7c0.8,0,1.6-0.3,2.3-0.7c0.2,0.2,0.4,0.3,0.5,0.5c-1.7,1.7-3.6,4.1-3.1,7.1
		c0.5,3.2,3.2,4.9,5.7,6.2c0,0,0,0,0,0c-1.2,1-4.7,4-2.5,8.4c1.8,3.6,6.3,5.8,9.5,5.8c0.5,0,0.9,0,1.4-0.1c0.2,0,0.4-0.1,0.6-0.1
		c0.9,0,1.5,0.5,3,1.8c0.6,0.5,1.2,1,1.8,1.5c-2.2,2.5-2.6,4.8-2.6,6.4c0.1,1.8,0.8,4.4,4,6.9c0.5,0.4,0.8,1.1,1.2,2.4
		c0.3,0.8,0.6,1.7,1.1,2.6c-0.3,0.1-0.7,0.3-1,0.5c-4.7,3.1-4.7,8.2-4.7,10.7c0,0.4-0.3,1.3-0.6,1.9c-0.6,1.7-1.4,3.8-0.8,6.1
		c0.7,2.8,2.8,4.6,5.6,4.6c1,0,1.9-0.2,2.7-0.4c0.1,0,0.1,0,0.2,0c-0.3,2.2-1.8,6.1-3.4,7.5c0,0-0.1,0.1-0.1,0.1
		c-1.3,1.2-4.1,3.7-3.2,7.9c0.2,0.7,0.5,1.4,1.1,1.9c0,0,0,0,0,0c0,0.3-0.2,1-0.3,1.5c-0.1,0.4-0.2,0.7-0.3,1.1
		c-0.1,0.3-0.3,0.8-0.5,1.3c-0.7,1.8-1.9,4.7-0.2,8.1c0.6,1.2,1.8,2.1,3.2,2.2c0.1,0,0.3,0,0.4,0c1.2,0,2.4-0.5,3.1-1.5
		c4.4-5.5,6.3-11.7,8.1-17.8c0.7-2.2,1.3-4.3,2-6.3c0.2-0.5,0.3-1.1,0.2-1.6c0.1,0.6,0.5,1.2,0.9,1.8l0.1,0.1l0,0
		c0.3,0.4,0.7,0.7,1.1,0.9l0,0.2c0.4,1.8,2,3.1,3.8,3.1l4.7,0.1c0,0,0.1,0,0.1,0c0.8,0,1.5-0.2,2.2-0.6c0.6,0.9,1.5,2,2.9,2.5
		c0,0.1,0,0.1,0,0.2c-0.5,15.6-4.3,30.8-11.6,46.2c-0.2,0.5-0.3,1-0.4,1.5c0,0.3,0,0.5,0,0.7c-0.3,0.2-0.7,0.5-0.9,0.8
		c-0.1,0.1-0.2,0.2-0.3,0.3l0,0c-2.1,2.7-2.7,5.7-2.1,8.5c-1,0.2-2.2,0.6-3.3,1.8c-0.6,0.5-1.1,1.2-1.3,2c-0.7-0.9-1.8-1.4-3.1-1.4
		c0,0,0,0-0.1,0c-0.9,0-1.9,0-2.8,0c-0.7-0.9-1.8-2-3.6-2.4c-0.3-0.1-0.5-0.1-0.8-0.1c-1.9,0-3.5,1.3-3.9,3.2
		c-0.3,1.6,0.3,3.1,1.6,4c-0.3,0.6-0.4,1.2-0.4,1.8l0,0c-2.4,1.1-3.9,3.1-4.2,5.6c-0.1,0.2-0.1,0.4-0.2,0.5
		c-0.9,1.9-1.7,3.7-2.4,5.6c-2,4.9-3.7,9.1-7.7,11.8l-3,2c-1.2,0.8-1.8,2.2-1.7,3.6l0.1,1.2c0,0,0,0.1-0.1,0.1
		c-0.9,2.5-2.7,7.7,2.5,11.5l1,1c0,0,0.1,0.1,0.1,0.1c0.4,0.3,0.8,0.9,1.2,1.5c0.8,1.1,1.8,2.5,3.3,3.6l0,0.3l0.1,1.3l-0.1,1l0,0.7
		c-0.9,1.6-0.9,3-0.7,4c0.3,1.4,1.2,2.5,2.6,3.4c0,0.2,0,0.5,0,0.7c-0.4,1-1.2,3-0.1,5.1c0.7,1.4,2,2.4,3.9,2.9l1.2,0.5
		c0.6,0.4,1.2,0.7,1.9,0.8c4.6,2.3,6.7,5.8,6.8,11.3c0,1.5,0.7,4.4,5,6c4.1,1.6,4.1,3.1,3.6,5.1c-0.2,0.7-0.7,4,3.2,5.6
		c3.8,4,4.1,9.1,3.2,15.9l0,0.1c-0.7,5.4-1.5,12,3.5,17.6l0.4,2.8c-0.5,2,0.1,3.5,0.6,4.5c0.1,0.3,0.2,0.6,0.3,0.8
		c0.5,0.9,1,1.8,1.5,2.7c1.6,2.8,3.2,5.4,3.6,8.2c0,0,0,0,0,0.1l0.4,1.9c0.1,0.7,0.4,1.3,0.8,1.8c2.1,2.6,2.4,6,2.8,9.8
		c0.1,0.6,0.1,1.3,0.2,1.9c0.2,1.8,0.7,6.6,6.3,7.8c4.7,1,7.5,4.6,10.7,8.8c0.8,1,1.5,2,2.3,3c2.2,2.6,3.8,5.9,5.4,9.3
		c-0.8-0.4-1.7-0.6-2.6-0.6c-0.9,0-1.7,0.2-2.5,0.5c-0.3,0.1-0.6,0.2-0.9,0.2c-0.9,0-2.2-1.3-3.4-2.5c-2.5-2.5-5.5-4.7-9.5-6.8
		l-0.2-0.1c-1.1-0.6-2.7-1.4-4.5-1.4c-1.1,0-4.5,0.4-5.8,4.8c-2.3,4.4-0.1,7.4,1.1,8.5c0.1,0.1,0.3,0.3,0.4,0.4
		c0.1,0.2,0.1,0.5,0.2,0.7c0.5,1.2,0.7,2.8,0.9,4.5c0.3,2.9,0.7,6.2,3,9.2c2.8,3.7,4.2,7.9,4.5,13.4c0,0.2,0,0.4,0,0.6
		c0.1,2.4,0.3,7,4.8,9c1.2,0.6,1.5,1.1,1.7,4.5l0,0c0,0.1,0,0.4,0,0.6c-0.4,5,2.2,6.7,4.4,7.3c1.3,0.3,1.8,1.1,3.1,3.8l0.3,0.7
		c0.7,1.5,2.6,5.5,7.1,5.5l0-4l0.1,4c0.1,0,0.2,0,0.3,0c0.1,0.3,0.1,0.8,0.1,1.7c0,2.1,0.4,4,0.8,5.6c0.2,0.8,0.3,1.5,0.4,2.2
		c0.2,1.4,0.7,2.6,1.2,3.7c-0.3-0.1-0.6-0.2-0.9-0.2c-2.1-0.4-2.9-1.2-3.2-3.3c-0.7-4.5-4.1-7.8-9-8.7c-4.2-0.8-7.3-3.6-7.7-5.2
		c-0.9-4.2-3.2-6.7-5.1-8.7c-0.9-1-1.7-1.8-2.2-2.7c-0.1-0.4-0.3-1-0.4-1.5c-0.5-2.2-1.1-5.4-4.4-7.4l-3.5-3.5l-0.1-0.4
		c0-2-0.2-4.5-1.5-6.8l-0.2-1.1l-0.1-0.7c0.5-5.1-2.2-7.4-4.3-8.4l-1.4-1.2c-1.1-2.7-2-5-2.5-7.6c-1.1-5.6-2.4-11.9-6-17.7
		c-0.1-0.3-0.1-0.8-0.1-1.3c-0.1-1.3-0.1-3.2-1.3-5.1c-0.3-2.9-1.8-5-3-6.7c-0.2-0.2-0.3-0.5-0.5-0.7c-0.8-1.1-2-1.7-3.3-1.7
		c-0.6,0-1.1,0.1-1.7,0.4c-0.5,0.2-1,0.4-1.4,0.7c-0.2-0.2-0.4-0.4-0.7-0.6c-0.3-0.5-0.6-1-0.9-1.4c-0.1-0.1-0.2-0.3-0.3-0.4
		c0.6-1.8-0.1-3.7-1.8-4.7l-0.9-0.5c-0.6-0.4-1.3-0.6-2-0.6c-0.2,0-0.5,0-0.7,0.1c0-0.2,0.1-0.4,0.1-0.6c0-0.2,0.1-0.4,0.1-0.6
		l2.7-0.3c-0.1-0.7-0.3-1.3-0.6-1.9c0-0.5-0.1-1-0.1-1.5c0-1.6-0.1-3.4-0.7-5.3l0-0.1l0-0.3c0.2-0.7,0.2-1.4-0.1-2.1l0-0.3
		c0-0.3,0-0.6,0-1c0-1.1,0-2.6-0.6-4c-0.5-1.4-1.1-2.8-1.7-4.2c-3-7.4-5.7-14.5-6.8-22.1c-0.2-1.8-0.7-5-3.8-6.8
		c-0.9-0.5-1.3-1.5-2-3.2c-0.3-0.6-0.5-1.3-0.9-2c-0.3-0.7-0.8-1.2-1.4-1.6c0-0.1,0-0.3-0.1-0.4c-0.3-1.6-1.7-2.9-3.3-3.1
		c-0.1-0.1-0.1-0.2-0.2-0.3c-1.4-2.2-3.4-3.4-5.8-3.6c0-0.4,0.1-0.9,0.1-1.3c0.1-2.2-1.6-4.1-3.9-4.1c0,0-0.1,0-0.1,0
		c-2.1,0-3.9,1.7-4,3.9c-0.1,1.5-0.4,2.6-1.2,3.6c-0.1,0.2-0.2,0.3-0.3,0.5c-1.6,2.8-1.1,4.9-0.4,6.1c0.6,1,2,2.6,5,2.6
		c0.4,0,0.9,0,1.4-0.1c0.2,0,0.3,0,0.4,0c0.2,0,0.4,0,0.5,0.1c0.2,1,0.3,1.9,0.5,2.8c0.7,3.6,1.4,6.8-0.1,9.4
		c-2.3,4.1-1.6,7.4,1.9,10.1c3.3,2.4,4.4,5.4,3.7,9.7c0,0.1,0,0.1,0,0.2c0,0.2-0.3,0.9-0.5,1.3c-0.8,1.9-2.6,6.3,1.7,9.7
		c2.7,2.1,2.7,4.6,2.5,9.3l0,0.5c0,0.1,0,0.3-0.1,0.5c-0.7,4.8,1.6,6.6,3.7,7.4c2.1,0.7,2.5,0.9,1,5.7c-0.1,0.2-0.1,0.4-0.1,0.5
		l-0.1,0.6l-0.2,1.4c-0.1,0.8,0,1.6,0.3,2.3l0.3,0.6l-0.1,0.3l-0.3,0.7c0,0,0,0.1-0.1,0.2c-0.1,0.2-0.1,0.4-0.2,0.5
		c-0.1,0.4-0.2,0.7-0.3,1.2c-0.3,1.4,0.2,2.8,1.2,3.7c-0.2,0.8-0.3,1.8-0.1,2.8l0,0.6l-0.1,4.6c0,1,0.3,1.9,1,2.7
		c-0.2,1-0.3,2-0.4,2.9l-0.4-0.4c-0.4-0.5-0.8-1-1.3-1.6c-1.3-1.7-2.8-3.5-4.7-5l-1-6.1c-0.2-1.1-0.8-2.1-1.8-2.7
		c-0.1-0.1-0.2-0.1-0.3-0.2c-0.1-0.9-0.5-1.7-1.2-2.3c-0.2-0.2-0.4-1-0.6-1.6c-0.4-1.4-0.9-3.4-2.5-5.1c-0.1-0.1-0.2-0.2-0.3-0.3
		c-0.3-0.4-0.6-0.8-1.1-1.1c-0.3-1.3-1.3-2.4-2.7-2.8c-0.2-0.1-0.7-0.7-1-1.1c-0.5-0.6-1.1-1.3-1.8-2c-0.6-2.1-1.8-3.8-2.6-5
		c-0.7-1-1.7-1.6-2.9-1.7c0,0,0-0.1,0-0.1c-0.4-1.3-1-3.2-2.9-4.6c-0.6-0.4-1.3-0.7-2-0.7c0,0,0,0-0.1,0c-0.4-0.4-0.9-0.6-1.5-0.8
		c-0.4-0.1-0.6-0.2-0.7-0.3c0-0.1-0.1-0.5,0.1-1.5c0.1-0.3,0.1-0.7,0.1-1c-0.1-1.5-0.9-2.9-2.1-3.7c0,0-0.1,0-0.1-0.1
		c0,0,0-0.1,0-0.1l-0.2-1.7c0-0.5-0.2-1-0.4-1.4l-1.7-3.5l-4.3-8.7c-0.2-0.3-0.3-0.6-0.6-0.9l0-0.6c0-0.7-0.2-1.3-0.6-1.9l-0.5-0.8
		l-0.2-0.4l-3.1-5c-0.7-1.2-2-1.9-3.4-1.9c-0.1,0-0.1,0-0.2,0c-1.4,0.1-2.7,0.9-3.4,2.2c-3.2,6.2-5.4,12.7-7.6,18.9
		c-1.1,3.2-2.3,6.6-3.5,9.8c-0.9,2.4-1.7,2.4-2.2,2.4c-1.2,0-3-0.6-4.7-1.2c-0.3-0.1-0.6-0.2-0.9-0.3c-1.2-0.4-2.4-0.8-3.6-1.2
		c-0.5-0.2-1.1-0.3-1.6-0.5c-0.4-0.1-0.8-0.2-1.2-0.2c-0.6,0-1.2,0.1-1.8,0.4c-0.4,0.2-0.9,0.5-1.3,0.8c-0.6-0.5-1.1-0.9-1.6-1.3
		c-0.3-0.2-0.5-0.4-0.8-0.6c-0.3-0.2-0.6-0.4-1-0.6l-4.7-1.9l-3.4-1.3c-0.5-0.2-1-0.3-1.5-0.3c-0.2,0-0.5,0-0.7,0.1
		c-0.1,0-0.1,0-0.2,0c-2.6,0.3-4.3,1.6-5,3.9c-0.2,0.6-0.2,1.3-0.1,1.9c-0.2-0.1-0.4-0.2-0.6-0.3c-0.5-0.2-0.6-0.3-0.7-0.4
		c-0.4-2.3-2-3.5-2.8-4.1c-0.5-1.6-1.9-2.8-3.6-2.9c-0.1-0.3-0.3-0.8-0.4-1.1c-0.1-0.3-0.2-0.6-0.3-1c1.2-0.7,2.4-1.9,2.6-3.7
		c0.1-1.2-0.1-2.1-0.6-2.9c1-1.2,1.8-2.5,2.1-4.1c0.5-2.2-0.8-4.3-3-4.8c-0.3-0.1-0.6-0.1-0.9-0.1c-1.8,0-3.5,1.2-3.9,3.1
		c0,0.1-0.1,0.3-0.2,0.5c-0.1-0.2-0.2-0.4-0.3-0.6c-0.5-0.8-1.6-2.1-3.9-2.4c-1.5-0.2-2.5-1.1-4.2-2.7c-0.7-0.7-1.4-1.4-2.3-2
		c-0.3-0.3-0.8-1-1.2-1.6c-0.7-1.2-1.8-2.9-3.5-4.1c-0.3-0.4-0.6-0.8-1-1.2c-0.7-0.6-1.6-0.8-2.4-0.8c-0.8,0-1.5,0.2-2.2,0.7
		c-0.2,0-0.4,0.1-0.6,0.1l-3.1,1c-1,0.3-1.9,1.1-2.3,2c-0.5,1-0.5,2.1-0.2,3.1c0.5,1.5,0.6,2.8,0.1,3.9c-2.1,5-0.7,9.2,4,12
		c2.3,1.4,3.9,3.5,4.5,6.1c0.9,3.7,3.3,6.4,7.3,7.9c1.9,0.7,2.3,1.2,1.8,2.8c-1.7,0.3-2.9,1.7-3.2,3.4l-0.1,0.9
		c-0.4,0.9-0.5,1.7-0.5,2.3c0.3,3.1-0.7,6.3-1.7,9.7c-0.9,2.9-1.8,5.9-2,9.1c-1.8,2.5-2.3,5.4-1.2,8.3c0.4,1,0.2,2.1-0.3,3.7
		c-4.8,4-6.9,9.1-6.4,15.4c0.1,0.6-0.3,1.6-0.6,2.5c-0.4,1.4-1,3.1-1,5c-1.9-2.3-2.4-4.5-1.5-7.1c0.6-1.7,0.9-3.4,1.2-5
		c0.5-2.7,0.9-5,2.3-6.7c0.6-0.7,0.9-1.6,0.9-2.5c0-1.3-0.2-2.6-0.4-3.6c-0.4-2-0.3-2.2,0-2.5c1-0.7,1.6-1.7,1.7-2.9l0.2-2.1
		l0.1-1.6c0-0.5,0-0.9-0.1-1.4c-0.3-1.1-0.1-2.3,0.9-4.5c1.9-4.3,2-7.8,0.6-10.7c-1.3-2.5-3.8-4.3-7.5-5.3c-1.3-2.8-3.5-4.8-5.4-6.4
		c-2.3-2-3.7-3.3-4-5.3c-0.8-5.2-1.8-10.7-4.6-15.8c-0.4-0.6-0.9-1.2-1.5-1.5c-0.7-0.4-0.9-1-1.3-3.1c-0.3-1.4-0.6-3-1.5-4.6
		c0.1-0.6,0-1.2-0.1-1.7c-0.3-3.7-2.5-7.3-6.1-7.3c-0.9,0-1.8,0.2-2.5,0.7c-0.9,0.5-1.3,0.5-1.4,0.5c-0.3-0.2-0.8-1.3-0.8-1.9
		c0-5-2.1-8.8-4-12.1c-1.2-2.1-2.3-4-2.7-6c-0.5-2.6-3.2-4.1-4.9-4.5c-0.4-0.1-0.8-0.1-1.2-0.1c-1.4,0-2.7,0.6-3.6,1.6
		c-1,1.2-1.5,2.8-1.3,4.5c0.4,3.2-0.2,6.3-1.9,9.8c-1.4,2.9-0.3,6.3,2.7,7.8c0.5,0.3,1,1,1.7,2c0.3,0.5,0.7,1.1,1.1,1.7l0.4,2.9
		l0.2,1.4c-0.1,0.4-0.1,0.8-0.2,1.1c-0.2,1.1-0.3,2.2-0.5,3.2c-0.7,3-0.4,5.5,1,7.5c0.6,0.8,1.2,1.5,2.1,2c-0.9,1.6-1.4,3.7-0.2,6
		l-0.3,3.1c-2.5,2-3.6,4.6-4.7,7l0,0.1c-2.2,5-2.5,10.1-1.1,16c-2.3,3.1-2.1,6.6-1.7,9.3c-0.1,0.3-0.2,0.5-0.3,0.8
		c-0.7,0.5-1.2,1.2-1.5,2c-0.5,0.5-0.9,1.2-1.1,1.9c-0.1,0.1-0.3,0.2-0.5,0.3c-0.3,0.2-0.6,0.4-1,0.7c-0.6,0.4-1,1-1.3,1.6
		c-0.1,0.3-0.3,0.6-0.4,0.9c-0.9,2.1-1.1,2.1-1.4,2.2c-1.1,0.1-2,0.7-2.6,1.5c-0.4,0.1-0.8,0.3-1.2,0.5c0.3-2.7,1.3-3.8,2.7-4.7
		c3.5-2.1,3.3-5.4,2.9-7.5c1.9-4.3,1.8-8.6-0.1-13.2c-2.4-5.8-3.6-10.5-1.2-14.8c2.1-3.8,2.1-7.4,0.2-11.2c-0.6-1.2-1.9-2.1-3.3-2.2
		c-0.9-0.1-1-0.1-1.9-2.6c-0.4-1.2-0.9-2.6-1.8-4c0,0,0,0,0,0c0-0.2-0.1-0.4-0.2-0.6c0,0,0-0.1-0.1-0.1l-0.4-1.1
		c-0.2-0.4-0.4-0.8-0.7-1.1c0.1-0.6,0-1.2-0.1-1.8l-0.4-1.2l-0.6-2.2c0,0,0-0.1,0-0.1l0.3-2l0.2-1.9c0.9-5.2-0.7-9.8-2.1-13.8
		c-0.9-2.7-1.8-5.3-1.9-7.8c0-0.1,0-0.2,0-0.3c0.9,0,1.8-0.1,2.7-0.4c2.1-0.6,3.3-2.8,2.7-4.9c-0.5-1.8-2.1-2.9-3.9-2.9
		c-0.4,0-0.7,0-1.1,0.1c-0.2,0.1-0.4,0.1-0.7,0.1c0,0-0.1,0-0.1,0c-0.4,0-0.8-0.1-1.3-0.2l-0.1-0.4c-0.4-1-1.2-1.9-2.1-2.3
		c-0.2-0.8-0.4-1.9-1.2-3c-0.1-0.2-0.2-0.3-0.4-0.4c0.1-1.3-0.5-2.6-1.6-3.4l-0.2-0.1l0-0.2l-0.2-2.8c0-0.1,0-0.1,0-0.2l-0.1-0.8
		l-0.2-2c0-0.2,0-0.3-0.1-0.4l-0.2-1c0-0.1,0-0.2-0.1-0.2c-0.6-2-0.3-4.2,0.7-6c3.5-6.3-0.4-10.4-1.8-11.9c-0.8-0.8-1.8-1.2-2.9-1.2
		c-0.5,0-0.9,0.1-1.3,0.2c-5.9,2.1-8.8,5.2-8.6,9.2c0.1,1.2,0.3,2.4,0.5,3.4c0.5,2.8,0.5,3.3-0.4,4.1c-1.4,1.2-1.7,3.3-0.8,4.9
		c0.2,0.4,0.4,0.9,0.5,1.3c0,0-0.1,0-0.1,0c-0.3,0-0.6,0-0.9,0.1c-0.5-2.1-1.9-4.3-4.6-6.5c-1.1-0.9-2.3-3.7-2.5-6.9
		c-0.1-2.1-1-3.7-2.4-4.7c0.6-1.8,0.7-4.1,0.2-6.9c0.1-0.1,0.1-0.2,0.2-0.3c0.2-0.4,0.4-0.9,0.6-1.5c0.2-0.5,0.3-1.1,0.2-1.6
		l-0.1-1.8c-0.1-0.7-0.3-1.4-0.7-2c-0.6-0.8-1.2-1.4-1.8-1.9c0.6-1.1,0.7-2.3,0.7-3.1c0-0.3-0.1-0.7-0.2-1l-3.2-11
		c-0.4-1.5-1.6-2.5-3.1-2.8c-0.5-4.2,2.2-10.6,5.6-12.6c3.5-2.1,3.7-5.8,3.7-7.8c0-0.4,0-0.8,0.1-1.1c0.1-1-0.2-2-0.8-2.9
		c0.1,0,0.2-0.1,0.4-0.1c2.1-0.8,3.1-3.1,2.3-5.2c-0.1-0.3-0.2-0.7-0.3-1.1c-0.1-0.4-0.2-0.8-0.2-1.3c0,0,0,0,0,0
		c-0.1-1-0.1-2-0.1-3.1l1-1.2c0.2-0.2,0.3-0.4,0.4-0.6c0.1-0.2,0.3-0.5,0.4-0.7c0.5,0.2,1.1,0.4,1.7,0.4c0.3,0,0.6,0,1-0.1
		c1.2-0.3,2.2-1.2,2.7-2.3l0.8-1.8l0.8-1.8c0.5-1.1,0.4-2.3-0.1-3.3c-0.7-1.5-1.9-2.3-3-2.7c0.3-1,0.4-2.1,0.3-3.4l0.2-1.1l1.8-4.7
		c0.6,0.3,1.2,0.5,1.9,0.5c0,0,0,0,0,0c2.2,0,4-1.8,4-4l0-4.4c2.3-1.3,4-2.9,5.3-4.9c1.6-0.4,2.9-1.8,3.1-3.5c0-0.3,0-0.6,0-0.9
		l1.1-0.3l0.5-0.2c2.1-0.6,3.3-2.9,2.7-5c-0.2-0.8-0.7-1.4-1.3-1.9c0.8-1.1,1.6-2.2,2.3-3.2c1.9-2.8,3.8-5.4,6.1-7.3
		c3.1-2.5,4.2-5.9,2.9-9.6c-0.1-0.3-0.3-0.7-0.5-1l-0.7-1c-0.4-1.2-0.9-2.4-1.3-3.6c-0.9-2.6-1.8-5-2.5-7.5
		c-0.2-0.8-0.4-1.5-0.5-2.2c-0.3-1.4-1.2-2.5-2.5-3c1.7-2.3,1.4-5.2,1.2-6.6c0-0.4-0.1-0.8-0.1-1.1c0.2-4.1,1.8-7.7,5.3-12.3
		c0.6-0.8,0.9-1.7,0.9-2.7l-0.1-1.2l0-0.7c0-0.3-0.1-0.6-0.1-0.9c-0.2-0.6,0.1-1.1,1-2.8c0.8-1.4,1.8-3.1,2.1-5.2
		c0-0.1,0.1-0.3,0.2-0.5c0.4-1,1.1-2.6,0.7-4.6c-0.9-4.7,1.3-8,5-13.1c0.4-0.5,0.7-1,1.1-1.5c0.7-1,2.2-3,1.9-5.9
		c-0.2-2.2,0.2-3.2,1.6-4.4c2.1-1.7,2.6-3.8,2.6-5.7c2.1-0.6,3.5-2.2,4.1-2.9c3.4-3.9,8.8-4.9,14.5-5.7c0.4-0.1,0.8-0.1,1.4-0.1
		c0.4,0,0.7,0,1.1,0c0.3,0,0.7,0,1,0L487,223c0.5,0.3,1.1,0.4,1.7,0.4c0.2,0,0.5,0,0.7-0.1c0.2,0,0.3,0,0.5,0c0.5,0,0.9,0.1,1.5,0.3
		c-0.1,0.3-0.2,0.6-0.3,0.9l0,0.1c-0.3,0.8-0.2,1.6,0,2.4c0.8,2.6,2.3,3.5,3.5,3.8c0.1,0.3,0.3,0.6,0.3,0.7c0.1,0.6,0.4,1.1,0.8,1.6
		c1.7,2.1,2.6,7.7,1.1,12.8c-0.6,2.1,0.6,4.3,2.7,5c0.4,0.1,0.8,0.2,1.1,0.2c1.7,0,3.3-1.1,3.8-2.9c1.5-5.3,1.7-12.8-1.2-18.1
		c0.3-0.3,0.6-0.7,0.8-1.1c0.4-0.8,0.4-1.6,0.3-2.4c0.9-0.8,2.1-1.4,3.7-2.1c0.3-0.1,1.2-0.3,1.9-0.4c1.9-0.3,4.2-0.7,6.1-2.2
		c1.4-1.1,3-3,3.2-6.2c0.1,0,0.2,0,0.4,0c2.6,0,4.1-1.8,4.7-2.5c0.1-0.1,0.2-0.3,0.3-0.3c1.2-1.2,2.2-2.1,3.3-2.3
		c1.1-0.2,2.1-0.9,2.6-1.8c1.1-0.2,2.2-0.9,2.8-1.9c0.3-0.5,0.5-1,0.5-1.5C535.6,204.5,539.2,203.8,542.8,203.8 M402.7,484.1
		c0.7,0.6,1.4,1,1.8,1.2c0.1,0,0.2,0.1,0.3,0.2c0.2,0.4,0.4,0.7,0.5,1c0.4,0.7,0.8,1.4,0.7,1.7c-0.1,0.9,0.1,1.9,0.6,2.6
		c0,0.4,0.1,0.7,0.2,1.1c0.3,1,0.2,2.3,0,3.8c-0.1,1.3-0.3,2.6-0.2,4.1c0,0,0,0-0.1,0.1c-0.5,0.5-1.2,1.3-1.8,2.3
		c0-0.2-0.1-0.5-0.2-0.7c0.5-2.3,0.4-4.4,0.1-6.5c0.5-1.6,0.4-3.1-0.3-4.4c-0.3-0.7-0.9-1.4-1.8-2.1c0-0.8,0-1.7,0-2.6
		C402.7,485.3,402.7,484.7,402.7,484.1 M431.3,590.6c-0.9,3.7,1.5,6.4,2.6,7.6c0.3,0.3,0.5,0.6,0.7,0.8l0.7,1.1l0.2,0.3
		c0,0.1,0.1,0.3,0.1,0.4c0,0.1,0,0.1,0,0.2c-0.7-0.7-1.4-1.4-2.2-2.3c-0.8-0.9-1.9-1.3-3-1.3c-0.9,0-1.7,0.3-2.5,0.9
		c-0.2,0.2-0.5,0.4-0.8,0.7c-0.2-0.4-0.3-0.8-0.5-1c-0.9-2.1-2.3-3.4-3.6-4.2l2.8-2.7l3.3-0.2c0.1,0,0.1,0,0.2,0
		C430.1,590.9,430.8,590.8,431.3,590.6 M638.9,605.7c0.4,0.8,0.9,1.5,1.4,2.3c0.4,2.8,1.9,4.9,3,6.5c0.5,0.6,0.9,1.2,1.2,1.8
		l-0.1,1.4c-0.3-0.1-0.6-0.4-0.9-0.7c-1.6-1.5-3.4-2.6-5-3.6c-0.3-0.2-0.7-0.4-1-0.6c-0.1-0.5,0-1.2,0.2-2.6
		c0.1-0.7,0.3-1.5,0.3-2.4C638.3,607.1,638.6,606.4,638.9,605.7 M542.8,199.8c-6,0-13.6,1.8-13.5,3.8c0,0.4,0.2,0.7,0.4,1
		c-0.6-0.1-1.2-0.1-1.8-0.1c-0.2,0-0.4,0-0.7,0c-0.1,0.6-0.2,1.3-0.3,1.9c-2.2,0.4-3.8,1.9-5.3,3.3c-0.7,0.7-1.2,1.7-2.2,1.7
		c-0.3,0-0.6-0.1-0.9-0.2c-2.1-1-1.2-2.1-0.4-3.5c0.3-0.5-0.4-1.5-0.6-2.3c-1.2,0.7-2.4,1.3-3.5,2c1.2,1.9,1,4,1,6.1
		c1.1,6.9-5.7,5.7-8.7,7.1c-3.3,1.5-5.6,3-7.3,5.9c0.4,0.2,0.9,0.4,1.3,0.6c-0.4-0.2-0.9-0.4-1.3-0.6c-0.2,0.1-0.3,0.1-0.4,0.1
		c-0.6,0-0.8-0.6-1.1-1c-0.4,1.8,0.9,3.2,1.3,4.8c2.9,3.5,3.6,10.7,1.9,16.5c1.7-5.8,1-13-1.9-16.5c-0.4-1.6-1.7-3-1.3-4.8
		c-0.1-0.1-0.2-0.1-0.3-0.1c-0.5,0-1,1.3-1.6,1.3c-0.2,0-0.5-0.3-0.8-1.1c0.2-0.6,0.4-1.2,0.6-1.9c1.3-0.3,2.6-0.5,2.5-2.3
		c-2.8-0.4-5.2-2.3-8.1-2.3c-0.4,0-0.8,0-1.2,0.1l-16.5-7.8c-0.2,0-0.4,0-0.6,0c-0.8,0-1.6,0-2.4,0c-0.7,0-1.3,0-2,0.1
		c-6.3,0.9-12.7,2.1-17,7c-1.1,1.3-2,1.7-2.9,1.7c-0.7,0-1.5-0.3-2.4-0.8c-0.2,2.4,1.1,5.5-1,7.2c-2.7,2.2-3.3,4.7-3,7.8
		c0.1,1.2-0.4,2.1-1.2,3.1c-3.8,5.3-8.2,10.3-6.8,17.6c0.2,1.3-0.7,2.6-0.9,3.7c-0.5,3.4-4.1,5.8-3,9.6c0,0,0,0,0,0
		c0,0.6,0.1,1.3,0.1,1.9c-3.4,4.3-6,8.9-6.2,14.6c-0.1,2.2,1.4,5.1-1.8,6.5c0.7,3.9,2.9,7.6,2.1,11.8c2.3,2.1,2.6,5.1,3.7,7.7
		c0.7,0,1.3-0.1,2-0.1c-1.3-4-3-7.9-4-11.9c-0.2-0.8-0.4-1.6-0.5-2.4c0.2,0.8,0.3,1.6,0.5,2.4c1,4,2.7,7.9,4,11.9
		c0.3,0.5,0.7,1,1,1.5c0.7,2.1,0.1,3.8-1.7,5.2c-4,3.2-6.4,7.7-9.5,11.7c-1.9,0.2-3,1.2-2.8,3.2c-0.1,0.6-0.2,1.2-0.3,1.8
		c-0.2,0.4-0.4,0.9-0.5,1.3l0,0c0,0,0,0,0,0c0,0,0,0,0,0c0,0,0,0,0,0c0,0,0.1,0,0.1,0c0.3,0,0.5-0.1,0.7-0.2
		c1.2-0.4,2.4-0.7,3.7-1.1c-1.2,0.4-2.4,0.7-3.7,1.1c-0.2,0.2-0.5,0.2-0.7,0.2c0,0-0.1,0-0.1,0c0,0,0,0,0,0c0,0,0,0,0,0c0,0,0,0,0,0
		l0,0l0,0c0,0-0.3-0.3-0.3-0.3l0.3,0.3c0,0.1,0,0.1,0,0.2c0,0.8,0,1.7,0.1,2.5c0,0.3,0.1,0.6,0.1,0.8c0-0.3,0-0.5-0.1-0.8
		c0-0.8,0-1.7-0.1-2.5c0-0.1,0-0.1,0-0.2c-3.5,0.2-2.1,2.5-1.8,4.3c-1.2,2.5-3.3,4.1-5.8,5.2c-0.6-0.3-1-0.5-1.4-0.5
		c-0.7,0-1.2,0.6-1.2,1.9c0,0,0.1,0,0.1,0c0.6,0.1,1.2,0.2,1.8,0.3c0,1.8,0,3.7,0,5.5c0-1.8,0-3.7,0-5.5c-0.6-0.1-1.2-0.2-1.8-0.3
		c0,0-0.1,0-0.1,0c-0.3,0.3-0.7,0.6-1,0.9c-1.6,4-3.1,8-4.7,11.9c-0.1,0.7-0.3,1.3-0.4,2c0.1,1.5-0.1,2.9-0.8,4.2
		c-1.5,4.2,3.1,2.1,3.9,3.8c-0.5,1.2-1,2.4-1.5,3.6c-1-0.8-1.7-1.1-2.3-1.1c-1.5,0-2.3,1.9-3.2,3.4c-0.7,0.8-1.3,1.5-2,2.3
		c0,1.7,0,3.3,0.2,5c0,0,0,0,0,0c0,0,0,0,0,0c0.1,1.2,0.3,2.3,0.8,3.4c-0.4-1.1-0.7-2.2-0.8-3.4c0,0,0,0,0,0c0,0,0,0,0,0
		c-0.2-1.6-0.1-3.3-0.2-5c-0.1,0-0.2,0-0.3,0c-0.2,0-0.4,0.1-0.6,0.2c-0.8,4.9-3.4,9.4-2.7,14.5c0.8,0,1.6,0,2.5,0
		c-0.2,2.1,0.2,4.7-1.9,5.9c-5.3,3.1-9,12.7-7,18.5c0.4,1.2,1.2,1.4,2.1,1.4c0.2,0,0.4,0,0.7,0c1.1,3.7,2.1,7.4,3.2,11
		c0,2-1.4,2.1-2.8,2.3c-1.1,2.3-4,2.3-5.4,4.3c0.2,0,0.5,0.1,0.7,0.1c1.9,0,4-1.3,5.9-1.3c1.2,0,2.3,0.5,3.4,2
		c0,0.6,0.1,1.2,0.1,1.8c-0.4,1.1-1.3,2.3-1.1,3.2c1,4.7,0.2,8.3-4.9,9.9c1.7,0,3.3,0,5-0.1c0.1,0,0.2,0,0.3,0
		c1.2,0,1.8,0.4,1.9,1.9c0.2,3.7,1.6,7.8,3.9,9.8c5.9,4.8,3,8.7,0.3,13.1c3.3,4,2,8.8,2.4,13.2c0.1,0.6,0.2,1.2,0.3,1.8l0.2-0.2
		c2,0.5,2.1,1.7,1.4,3.3c0.4,2.3,0.7,4.6-0.2,6.9c0.5,1.5,0.8,2.9-0.6,4.1c0.2,0.7,0.3,1.4,0.5,2.1c1-0.2,1.6-0.8,2-1.5
		c-0.4,0.7-1,1.3-2,1.5c-0.2-0.1-0.4-0.1-0.7-0.2c0.1,1.7,0.1,3.4,0.2,5.1c0.2,1.1,0.3,2.3,0.5,3.4c0.9,0.3,1.7,0.4,2.5,0.4
		c1.5,0,2.7-0.7,3.2-3c0.2-0.8,0.6-1.8,1.6-1.8c0.3,0,0.6,0.1,0.9,0.2c-0.6-2.1,1.1-4.2-0.3-6.2c-0.5-2.4,2.3-3.1,2.6-5
		c-0.6-3.3,1-6.7-0.2-10c0.3-0.8-0.1-1.4-0.7-2c0.2-2.1-1.1-3.6-1.8-5.3c-0.8-1.8-4.2-1.6-3.6-4.4c0,0-0.1,0-0.1,0
		c-0.4-0.1-0.8-0.2-1.1-0.3c0.5-2.6-2.3-6.1,0.8-7.9c-3.1,1.8-0.3,5.3-0.8,7.9c0.4,0.1,0.8,0.2,1.1,0.3c0,0,0.1,0,0.1,0
		c1.7-5,5.8-9.6,2.6-15.4c3.6-3.3,1.5-7,1.3-10.7c-0.1-2.6,3.2-4.3,5.9-5.3c2,2.1,3,4,1.2,7.2c-1.4,2.6-2,5.9-1.1,9.1
		c0.1,0.3,0.1,0.7,0.2,1c0.1,1,0.2,1.9,0.3,2.9c0.1,1,0.1,2,0.2,3c-0.3,1.6,0.8,2.3,1.8,3c-0.2,1.2,0.1,2.2,1.1,3
		c1,1.4,0.1,4,2.8,4.3c0.4,1.2,0.9,2.5,1.3,3.7c0.3-0.3,0.7-0.6,1-0.9c1,0.2,2,0.4,3,0.4c0,0,0,0,0,0c0.6,0,1.2-0.1,1.8-0.2
		c-0.6,0.2-1.2,0.2-1.8,0.2c0,0,0,0,0,0c-1,0-2-0.2-3-0.4c-0.3,0.3-0.7,0.6-1,0.9c0.1,1.3,0.2,2.6,0.2,3.9c0.1,7.2,5.4,13.5,4,21
		c-0.2,1.3-0.3,2.7-0.5,4c-0.7,0.4-0.6,0.8,0,1.3c0.4,1.3,0.8,2.6,1.2,3.9c-0.2,1.2-0.1,2.4,0.9,3.2c0.1,0.4,0.3,0.7,0.4,1.1
		c0,0,0,0,0,0c-0.4,0.7-0.1,1.2,0.6,1.5c2,3,1.5,8,6.8,8.4c1.3,2.5,1.4,4.7-0.1,7.4c-3.4,6.1-1.4,12.5,1,18.2
		c1.8,4.2,1.5,7.6-0.5,11.3c0.5,1.6,1.2,3.4-0.6,4.4c-3.7,2.2-4.7,5.6-4.8,9.5c-0.2,1.3,1.2,3.3-1.4,3.3c-0.1,0-0.2,0-0.3,0
		c-1.6,0.1-3.3,0.2-4.9,0.3c-1.9,1.8-3.8,3.7-5.7,5.5c0,1.2,0,2.4,0,3.7c2,0.4,3.7,1.1,4.6,3.2c1.3,3.1,2,4.5,3.2,4.5
		c0.9,0,2.1-0.9,4.2-2.6c3.3,3.7,6.9,6.9,12.2,6.9c0.1,0,0.1,0,0.2,0l0,0c-0.2-2,1.9-4.6-2-5.5c-1.3-0.3-1.2-2.6-1.6-4
		c-0.4-0.7-0.9-1.4-1.3-2.1c-1.3-1.9-3.9-3.3-2.3-6.3c0,0,0,0,0,0l0,0c0.5-1.7,1-3.3,1.5-5c1-0.1,1.9-0.3,2.2-1.4
		c3.1-0.4,3.9-3,4.9-5.4c1.2-0.9,2.7-1.4,3-3.1c0.8-0.3,1.2-0.9,1.1-1.7c1.2-0.3,1.8-1,1.5-2.3c0.2-0.3,0.4-0.7,0.6-1
		c-0.5-3.3-1-6.5,2-8.9c-1.6-5.2-2-10.2,0.3-15.5c1.2-2.7,2.2-5,4.8-6.4c0.2-2.1,0.4-4.2,0.6-6.3c-1.6-2-0.3-3.4,0.9-4.8
		c0-0.9-0.1-1.8-0.1-2.7c-3.7-0.5-4.6-2.6-3.8-6c0.4-1.7,0.6-3.5,0.8-5.2c-0.3-2-0.5-4-0.8-6c-1.6-1.8-2.3-4.4-4.7-5.6
		c-0.9-0.4-1.5-1.4-0.9-2.5c1.8-3.8,2.8-7.7,2.3-12c-0.1-0.7,0.1-1.6,1-1.6c0.1,0,0.2,0,0.3,0c0.7,0.2,1.7,0.8,1.8,1.4
		c1.3,6.1,6.7,10.4,6.7,17.3c0,1.7,1.3,5.9,4.8,5.9c1,0,2.1-0.3,3.4-1c0.2-0.1,0.4-0.2,0.6-0.2c1.3,0,2.1,2.4,2.1,4.2l0.1,0.2
		l-0.1,0.2c0.1,0.5,0.1,1.1,0.2,1.6c2.2,3,0.9,7.8,4.8,10c2.5,4.5,3.4,9.6,4.2,14.5c1.1,6.8,8.8,8.3,10.2,14.5
		c0,0.1,0.6,0.2,0.9,0.2c6.4,1.4,8.1,4.5,5.4,10.8c-1,2.3-1.7,4.6-1,7.2c-0.1,1.2-0.2,2.5-0.3,3.7c0,0-0.1,0-0.1,0c0,0,0,0,0,0
		c-3.4,2.7-1.1,6.1-1.2,9.2c-3.2,3.8-2.8,8.7-4.2,13c-1.5,4.4-0.3,8,2.4,11.1c2.9,3.4,4,7.5,5.5,11.5c3.8,10,4.1,21.1,10.2,30.4
		c2,3.1,0.5,6.8,0.6,10.3c0.1,2.1-2.8,1.5-3.8,2.7c-1.3,1.5-3.6,2.6-2.8,5.7c2.9-1.8,5.9-1.5,9-1.8c3.4-0.3,5.6-1.6,3.4-5.9
		c-2.6-5.1-2.9-11.1-4.8-16.6c-1.4-4.1-1.4-9.7-2.3-14.3c-1.5-7.4-2.5-15.2-7.1-21.7c-2.7-3.9,0.8-7.4,0.5-11
		c-0.5-5.5,1.5-9.5,5.8-12.6c0.9-2.5,1.7-4.9,0.7-7.6c-0.8-2-0.1-3.8,1.4-5.4c0.1-7.1,4.4-13.4,3.7-20.6c0-0.1,0.2-0.3,0.3-0.4
		c0.1-0.6,0.2-1.2,0.3-1.8c1.3-0.2,2.9-0.1,2.9-2.1c1.3-4.1,0.2-6.7-4-8.4c-2.2-0.8-4.2-2.3-4.8-5.1c-0.8-3.7-3.1-6.7-6.3-8.6
		c-3-1.8-3.6-3.9-2.3-7c0.9-2.2,0.7-4.6-0.1-6.8c1-0.3,2.1-0.7,3.1-1c0.8-0.1,1.3-0.3,1.5-0.6c-0.2,0.3-0.7,0.5-1.5,0.6
		c0.1,0,0.2,0,0.3,0c4,0,4.4,4.3,6.9,6.2c2.7,2.2,4.7,5.2,8.6,5.6c1,0.1,1.3,0.7,0.6,2.5c-1,2.5,2.5,1.3,3.8,2.1
		c2-1.5,3.8-3.1,4.3-5.1c-0.5,2-2.3,3.6-4.3,5.1l0.2,0c0,0,0,0,0,0c1.2,1.2,4.8,2.2,0.2,3.8c-0.5,0.2-2.7,0.6-1.5,1.6
		c2.4,2.1,1,7,5.5,7.2c0,0,0,0,0,0c0,2,2.7,2.1,2.8,4c0.5,1.7,1.7,2.6,3.2,3.2c0,1.3,0.3,2.5,1.8,2.8c0.4-0.7,0.8-1.5,1.3-2.2
		c-0.4,0.7-0.8,1.5-1.3,2.2c0.7,0.7,1.3,1.3,2,2c0.2,1.4,0.9,2.5,2.3,3c-0.1,1.9,1.8,2.1,2.8,3c0.4,0.3,0.8,0.7,1.2,1
		c0,0,0.1,0,0.1,0c1.2,0,1,2.6,1.9,2.6c0.2,0,0.6-0.2,1-0.6c1-0.9,3.4-0.5,3-2.4c-0.2-0.9-0.7-1.1-1.4-1.1c-0.5,0-1,0.1-1.5,0.1
		c-0.3,0-0.6,0-0.9-0.2c-1-0.5-2.1-0.8-3.2-1.2c0.3-2.7,3.2-1.8,4.7-3.2c-0.9-1.4-1.6-2.8-3.2-3.4c-0.2-3.2-3.5-4.2-4.6-6.7
		c0.3-1.1,1.3-1,2.1-1.1c2.7,1.1,5.4,2.1,8.1,3.2c0,0,0,0,0,0c1.6,1.3,3.6,2.2,4,4.7c0.4,2.3,1.1,4.5,2.9,6.1
		c0.9-0.8,0.9-1.5,0.7-2.3c0.2,0.8,0.2,1.5-0.7,2.3c0.2,1.9-0.3,4.7,2.4,4.7c0.1,0,0.2,0,0.2,0c2.5-0.1,0.9-2.4,0.8-3.7
		c-1.3-2.3-1.1-5.3-3.4-7.1c0.7-1-0.6-2.5,0.9-3.3c1.7,0.5,3.4,1.1,5.1,1.6c2.4,0.8,4.8,1.7,6.9,1.7c2.4,0,4.5-1.2,6-5
		c3.7-9.3,6.3-19.1,10.9-28.3c1.3,2.1,2.2,3.5,3.1,5c0.3,0.4,0.5,0.8,0.8,1.2v0c0,0.7,0.1,1.3,0.1,2c-0.8,1.3,0.4,0.9,0.9,1.1
		c2,4.1,4,8.1,6,12.2c0,0,0,0,0,0c0.1,0.6,0.1,1.2,0.2,1.7c0,1.4-0.2,2.9,1.9,3.1c0.2,0.1,0.3,0.4,0.4,0.6c-0.6,3.1,0,5.5,3.4,6.4
		c0.3,0.2,0.4,0.5,0.4,0.8c0.1,0,0.1,0,0.2,0c0.3,0,0.5,0.1,0.7,0.3c0.4-0.1,0.7-0.1,1.1-0.2c1.9,1.4,0.9,5.4,4.4,5.4
		c0.1,0,0.3,0,0.4,0c1.1,1.5,2.1,3.1,2.2,5.1c2.2,1,2.9,3.7,5.3,4.5c0.1,1.1,0.4,2,1.6,2.2c-0.1,0.6,0.2,0.9,0.8,0.9
		c1.8,1.9,1.2,5,3.2,6.9c-0.1,1.6,1,2.3,2.1,3c0.4,2.6,0.9,5.2,1.3,7.9c2.9,1.6,4.6,4.4,6.7,6.9c0.4,0.4,0.8,0.8,1.2,1.2
		c1.5,3.4,1.9,6.7-0.2,10c0,3-1.7,6,0.3,8.9c2.1,1.4,4.5,2.6,6.3,4.4c1.3,1.3,2.7,1.9,4,1.9c1.1,0,2.2-0.4,3.4-1.2
		c0.2-1.6,0.3-3.3,0.5-4.9c-1.1-3.2-4.4-5.3-4.4-9.1c-3.5-4.8-4.6-10.1-3.4-15.8c0.3-1.3,0.2-2.4-0.9-3.2c0-1.9,0.1-3.7,0.1-5.6
		c-0.6-2.1,2.1-4.4-0.2-6.5c0-0.6,0-1.1,0-1.7c0,0.1,0,0.1-0.1,0.2c-0.2,0.5-0.4,1-0.6,1.5c0,0.1-0.1,0.2-0.1,0.3
		c-0.1,0.3-0.1,0.5-0.2,0.8c0.1-0.3,0.1-0.5,0.2-0.8c0-0.1,0.1-0.2,0.1-0.3c0.2-0.5,0.4-1,0.6-1.5c0-0.1,0-0.1,0.1-0.2
		c0.5-0.8,0.5-1.5-0.2-2.2c-0.1-0.3-0.3-0.6-0.4-0.9c0.1-0.7,0.2-1.3,0.3-2c1.3-4.4,2.4-8.6-3.5-10.7c-1.9-0.6-1-2.6-0.9-4
		c0.2-4.8,0.5-9.5-4-13.1c-2.7-2.1,0-4.9,0.3-7.3c0.9-5.5-0.7-10.1-5.3-13.5c-1.9-1.4-2.1-2.6-0.8-4.9c2.8-5,0.7-10.3-0.1-15.5
		c-0.2-0.3-0.3-0.7-0.5-1c-1.1-1.2-2.3-1.8-3.8-1.8c-0.3,0-0.6,0-0.9,0.1c-0.3,0-0.6,0.1-0.9,0.1c-1.4,0-2.3-0.6-1.1-2.7
		c1.4-1.8,1.9-3.8,2-5.9c-0.1,2.1-0.6,4.1-2,5.9c0.3,0.1,0.6,0.1,0.9,0.1c1.4,0,2.9-0.6,4.2-0.6c1.2,0,2.3,0.4,3.2,1.8
		c0.4,0.7,0.7,1.3,1.1,2c0.2,0.4,0.3,0.8,0.5,1.3c0.2-0.4,0.3-0.8,0.5-1.3c0.3,0,0.6,0,0.8,0.1c0.3,1.2-0.1,2.7,1.8,2.9
		c1.2,2.5,1.8,5.4,4.5,6.9c1.4,0.8,1.7,2.5,1.9,3.9c1.3,9.6,5.2,18.3,8.7,27.1c0.5,1.2,0.3,2.6,0.4,3.9c0,0,0,0,0,0c0,0,0,0,0,0
		c0,0.4,0.1,0.8,0.1,1.2c0,0,0-0.1,0.1-0.1c0,0,0,0,0,0c0,0,0,0,0,0c0,0-0.1,0.1-0.1,0.1c0,0.6-0.1,1.2-0.1,1.8
		c1.1,2.5,0.5,5.3,1,7.9c0.1,0.1,0.2,0.1,0.3,0.2c0,0,0,0,0,0.1c0.1,0.1,0.1,0.2,0.1,0.4c0,0,0,0,0,0c0-0.2-0.1-0.3-0.1-0.4
		c0,0,0,0,0-0.1c-0.1-0.1-0.2-0.2-0.3-0.2c-0.7-0.3-1.4-0.6-2.1-0.9c-0.2,1.4-0.5,2.8-0.5,4.2c0,1.8,0.4,3.2,1.9,3.2
		c0.5,0,1-0.1,1.7-0.4c0.4-0.2,0.9-0.3,1.3-0.5c0,0,0,0,0,0c0,0,0,0,0,0c0.3,0.2,0.6,0.4,0.9,0.5c-1.2,2.5,1.2,3.8,1.9,5.7
		c1.3,0.7,2.2,2.1,3.8,2.3c1-0.5,2.1-0.9,3.1-1.4c1.4,2,3,3.8,2.8,6.5c2,1.9,0.7,4.7,1.8,6.9c3.3,5.1,4.5,10.9,5.6,16.6
		c0.7,3.3,1.8,6.3,3.2,9.2c0.9,0.7,1.7,1.4,2.6,2.2c2.4,0.9,2.7,2.8,2.4,5c0.2,1,0.3,2.1,0.5,3.1c1.2,1.8,1.4,3.9,1.3,6
		c0.2,0.7,0.4,1.3,0.6,2c1.5,1.5,3.1,3.1,4.6,4.6c0,0,0,0,0,0s0,0,0,0c0,0-0.2,0.4-0.2,0.4l0.2-0.4c2.9,1.6,2.6,4.8,3.5,7.4
		c1.9,3.7,6,5.5,7.1,10.6c0.8,3.8,5.8,7.3,10.8,8.3c3.1,0.6,5.3,2.5,5.8,5.4c0.6,3.9,2.8,5.8,6.4,6.6c1.4,0.3,2,0.7,1.9,2.2
		c-0.3,3,1.3,5.7,2,8.5c4.1-1.4,4.7-4.8,4.5-8.5c0.5-4.1-3.4-6.4-4-10.3c-0.4-2.4-1.1-4.7-1.2-7.2c0-2.9-0.4-5.7-4.4-5.7
		c0,0,0,0,0,0c0,0,0,0,0,0c-1.8,0-2.7-1.6-3.5-3.2c-1.3-2.8-2.4-5.8-6-6.7c-2.2-0.5-1.3-2.8-1.4-4.3c-0.3-3.2-0.5-6.2-4.1-7.8
		c-2.5-1.1-2.4-3.9-2.5-6.1c-0.3-5.7-1.7-10.9-5.3-15.6c-2.8-3.6-1.6-8.7-3.4-12.8c0.4-1.4,0-2.2-1.5-2.3c-1.4-1.3-1-2.7-0.1-4.1
		c0.4-1.8,1.2-2.3,2.1-2.3c0.9,0,2,0.6,2.9,1.1c3.1,1.6,6,3.5,8.5,6c1.8,1.8,3.7,3.7,6.2,3.7c0.8,0,1.6-0.2,2.4-0.5
		c0.3-0.1,0.6-0.2,1-0.2c0.6,0,1.1,0.2,1.3,0.7c1.6,4.8,5.8,8.4,6.5,13.7c0.6,0.9,1.2,1.9,1.8,2.8c3.5,0.5,6.8,2.4,10.3,2.4
		c0.7,0,1.3-0.1,2-0.2c1-2-0.5-3.4-1.7-3.8c-6.6-2.1-8.1-8.8-10.5-13.5c-3-5.8-5.2-12.4-9.4-17.3c-4.2-5.1-7.9-11.6-15.4-13.1
		c-2.4-0.5-2.9-2-3.1-4.3c-0.5-4.8-0.6-9.8-3.9-13.9c-0.1-0.6-0.2-1.3-0.4-1.9c-0.8-4.6-3.4-8.3-5.6-12.2c0-0.3-0.1-0.6-0.3-0.8
		c-0.5-0.7-0.4-1.5-0.1-2.3c-0.2-1.6-0.5-3.2-0.7-4.9l-0.2-0.3c-4.4-4.4-3.7-9.7-3.1-15.2c0.9-7.2,0.9-14.4-5-19.9c0,0,0,0,0,0
		c0,0-0.1,0-0.1,0c-0.6-0.2-1.6-0.4-1.4-1.2c1.3-5.4-1.6-8-6.1-9.8c-1.1-0.4-2.4-1.2-2.4-2.3c-0.1-7.2-3.2-12.3-9.8-15.2l-0.4,0
		l-0.3-0.3c-0.7-0.3-1.4-0.5-2.1-0.8c-3.7-0.9-0.1-3.4-1-4.9c0.1-0.4,0.2-0.8,0.3-1.2c-0.1-0.6-0.3-1.2-0.4-1.9l-0.4,0l-0.4-0.1
		c-1.6-0.6-2.5-1.4-1-3.1c0.1-1,0.1-2.1,0.2-3.1c-0.1-1-0.2-1.9-0.2-2.9c0-0.6-0.1-1.2-0.1-1.7c-0.1,0.2-0.2,0.3-0.3,0.3
		c0,0-0.1,0-0.1,0c-2.6-1-3.3-3.8-5.3-5.4c-0.4-0.4-0.8-0.7-1.2-1.1c-3.3-2.3-1.8-5.2-0.9-8c0-0.7-0.1-1.4-0.1-2c0,0,0,0,0,0
		c1-0.7,2-1.4,3-2c6.9-4.6,8.2-12.7,11.7-19.4c0-0.3,0.1-0.5,0.3-0.6c-0.1-2,1-3,2.8-3.4c0.5-0.8,1-1.6,1.5-2.3
		c-0.4-1,0.1-1.7,0.8-2.3c0-0.4,0.1-0.8,0.1-1.2c-0.7-0.8-1.1-2.2-2.2-2.5c1.2,0.2,1.5,1.6,2.2,2.5c1.7,0,3.3,0,5-0.1c0,0,0,0,0,0
		c0,0.5,0,1,0,1.4c0.4,0.3,0.7,0.7,1.1,1c0.7,0,1.3,0.1,2,0.1c2.2,0,4.1-0.5,3.8-4.1l0.1,0c0.5-0.6,1-0.9,1.5-0.9c0.1,0,0.2,0,0.3,0
		c0,0,0,0,0,0c0.3,0,0.5,0.1,0.8,0.3c-0.3-0.2-0.5-0.3-0.8-0.3c0,0,0,0,0,0c-0.1,0-0.2,0-0.3,0c-0.5,0-1.1,0.3-1.5,0.9
		c1-0.1,2-0.2,3-0.3c0.7,0.1,1.3,0.1,2,0.2c0.4-0.9,0.7-1.8,1.1-2.7c-2.2-2.7-2.2-5.4-0.1-8.1c0,0,0.1-0.1,0.1-0.1
		c2.8-0.2,1.9-2.3,2-3.9c7.2-15.2,11.5-31.1,12-48c0,0,0,0,0,0c-0.1-1.6,0.9-3.7-2-3.8c-2.1-0.1-1.6-2.4-2.8-3.2
		c-0.9-0.3-1.8-0.8-2.6-0.8c-0.7,0-1.3,0.4-1.7,1.9c-1.6,0-3.1-0.1-4.7-0.1c-0.1-0.6-0.3-1.1-0.4-1.7c-0.2-0.9-0.9-1.1-1.7-1.2l0,0
		l0,0c0,0-0.1-0.1-0.1-0.1c-0.2-3.1-2.2-5.1-4.7-5.1c-0.2,0-0.5,0-0.7,0.1c-2.6,0.4-2.7,3.7-2.5,6.2c-2.9,7.8-4.2,16.2-9.6,23
		c-1.2-2.4,0.5-4.5,1-6.7c0.5-2.2,1.5-4.3-0.5-6.3c-0.4-1.9,0.8-2.9,2-4c0,0,0,0,0,0c3-2.5,5.8-9.9,4.7-13c-0.2-0.5-1-0.7-1.5-1
		c-0.4-0.6-1-0.7-1.6-0.7c-1.1,0-2.4,0.6-3.5,0.6c-0.8,0-1.4-0.3-1.7-1.5c-0.5-2.1,1.5-4.7,1.5-7.1c0-3.3,0.4-5.6,2.8-7.3
		c0.1,0,0.1,0,0.2,0c0.5,0,1-0.2,1.5-0.7c0.1-0.1,0.3-0.2,0.4-0.3c0.1-0.1,0.3-0.1,0.4-0.2l-0.1-0.1c1-0.8,1.9-1.8,0.9-3
		c-2-2.3-1.7-5.7-4.3-7.7c-3-2.3-3.4-5.1-0.4-8c1.5-1.4,2.4-3.4,0.1-4.5c-2.9-1.4-4.6-4.9-8.5-4.9c-0.4,0-0.9,0-1.4,0.1
		c-0.2,0-0.4,0.1-0.6,0.1c-2,0-4.9-1.5-6-3.6c-1.1-2.1,1.7-3.3,2.9-4.8c1.6-2.1,0.9-3.9-1.1-4.9c-3.7-1.9-6.8-3.3-2-7.8
		c2.4-2.2,0.3-5.1-2.1-6.6c-0.8-0.5-1.5-0.7-2.1-0.7c-0.8,0-1.4,0.4-1.9,1.2h-2.7c0.9-1.7,2-3.3,3.1-4.8c0.7-0.9,2.1-2.3,0.4-3.4
		c-0.4-0.2-0.7-0.3-1.1-0.3c-0.9,0-1.8,0.5-2.5,1.3c-0.7,0.7-1.4,1.4-2,2.2c-0.9,1.2-1.7,2.4-2.6,3.6c0-0.2-0.1-0.4-0.1-0.6
		c-0.1-0.2-0.1-0.4-0.2-0.6c0-0.6,0-1.3,0-1.9c0.9-0.6,2.5-1.2,1.4-2.3c-0.3-0.3-0.5-0.4-0.7-0.4c-0.7,0-1.2,1.1-1.6,1.8
		c-1-0.1-2-0.1-2.9-0.2c-0.7-1.5-1.5-2.1-2.3-2.1c-0.8,0-1.8,0.5-2.7,1.3c-0.1,0-0.1,0-0.2,0c0,0-0.1,0-0.1,0c0,0,0,0,0,0
		c-0.8-0.8-1.8-1.4-3-1.4c-0.1,0-0.3,0-0.4,0c0,0-0.1,0-0.1,0c-1.2,0-2.5,0.4-3.7,1.1l0,0c0.9-2.3-2.3-1.6-3.3-2.8
		c-0.2-0.2-0.5-0.4-0.8-0.6c-4.3-4.5-9.8-6-15.7-6.3c-1.3,0-2.5-0.1-3.8-0.1c0-0.2,0-0.4,0-0.5c-1.6-3.3-7.4-3.1-7.1-8.1
		c-0.3,0.2-0.7,0.3-1.1,0.3c-1,0-2-0.4-2.8-0.4c-0.2,0-0.5,0-0.6,0.1c-1.1-3.8-8-6.4-17.2-6.4c-0.2,0-0.5,0-0.7,0
		c-1.9,0-4.1,0.4-6.5,0.9c0.4-2.2-2.8-4.8-7.7-6.2C546.1,199.9,544.5,199.8,542.8,199.8L542.8,199.8z M415.4,335.9L415.4,335.9
		L415.4,335.9z M415.4,335.9L415.4,335.9L415.4,335.9L415.4,335.9z"/>
</g>
</svg>
