<?xml version="1.0" encoding="utf-8"?>
<!-- Generator: Adobe Illustrator 22.1.0, SVG Export Plug-In . SVG Version: 6.00 Build 0)  -->
<svg version="1.1" id="Layer_1" xmlns="http://www.w3.org/2000/svg" xmlns:xlink="http://www.w3.org/1999/xlink" x="0px" y="0px"
	 viewBox="0 0 1281.5 720.5" style="enable-background:new 0 0 1281.5 720.5;" xml:space="preserve">
<style type="text/css">
	.st0{fill:none;stroke:#5B5B4B;stroke-linecap:round;stroke-miterlimit:10;}
	.st1{fill:none;stroke:#35423E;stroke-linecap:round;stroke-miterlimit:10;}
</style>
<g>
	<g id="XMLID_60_">
		<g id="XMLID_70_">
			
				<rect id="XMLID_78_" x="623.6" y="63" transform="matrix(7.574804e-10 -1 1 7.574804e-10 -62.4918 1343.4923)" class="st0" width="33.7" height="1280"/>
			
				<rect id="XMLID_77_" x="623.6" y="29.3" transform="matrix(7.581278e-10 -1 1 7.581278e-10 -28.7886 1309.7891)" class="st0" width="33.7" height="1280"/>
			
				<rect id="XMLID_76_" x="623.6" y="-4.4" transform="matrix(7.574804e-10 -1 1 7.574804e-10 4.9146 1276.0859)" class="st0" width="33.7" height="1280"/>
			
				<rect id="XMLID_75_" x="623.6" y="-38.1" transform="matrix(7.580745e-10 -1 1 7.580745e-10 38.6178 1242.3827)" class="st0" width="33.7" height="1280"/>
			
				<rect id="XMLID_74_" x="623.6" y="-71.8" transform="matrix(7.575345e-10 -1 1 7.575345e-10 72.321 1208.6794)" class="st0" width="33.7" height="1280"/>
			
				<rect id="XMLID_73_" x="623.6" y="-105.5" transform="matrix(7.580745e-10 -1 1 7.580745e-10 106.0242 1174.9762)" class="st0" width="33.7" height="1280"/>
			
				<rect id="XMLID_72_" x="623.6" y="-139.2" transform="matrix(7.578045e-10 -1 1 7.578045e-10 139.7274 1141.2731)" class="st0" width="33.7" height="1280"/>
			
				<rect id="XMLID_71_" x="623.6" y="-172.9" transform="matrix(7.578045e-10 -1 1 7.578045e-10 173.4306 1107.5698)" class="st0" width="33.7" height="1280"/>
		</g>
		<g id="XMLID_61_">
			<rect id="XMLID_69_" x="0.5" y="450.2" class="st0" width="160" height="269.6"/>
			<rect id="XMLID_68_" x="160.5" y="450.2" class="st0" width="160" height="269.6"/>
			<rect id="XMLID_67_" x="320.5" y="450.2" class="st0" width="160" height="269.6"/>
			<rect id="XMLID_66_" x="480.5" y="450.2" class="st0" width="160" height="269.6"/>
			<rect id="XMLID_65_" x="640.5" y="450.2" class="st0" width="160" height="269.6"/>
			<rect id="XMLID_64_" x="800.5" y="450.2" class="st0" width="160" height="269.6"/>
			<rect id="XMLID_63_" x="960.5" y="450.2" class="st0" width="160" height="269.6"/>
			<rect id="XMLID_62_" x="1120.5" y="450.2" class="st0" width="160" height="269.6"/>
		</g>
	</g>
	<g>
		<g>
			<line class="st1" x1="641.4" y1="450.7" x2="641.1" y2="720"/>
			<line class="st1" x1="0.6" y1="450.2" x2="1280.6" y2="450.2"/>
		</g>
		<path class="st0" d="M0.4,719.8l640.3-269.6L0.4,719.8z"/>
		<path class="st0" d="M0.6,652.6L640.4,450L0.6,652.6z"/>
		<g>
			<path class="st0" d="M0.6,585.1L640.4,450L0.6,585.1z"/>
		</g>
		<path class="st0" d="M0.6,517.7L640.4,450L0.6,517.7z"/>
		<line class="st0" x1="0.6" y1="450.2" x2="640.4" y2="450"/>
		<path class="st0" d="M1280.6,719.8L640.4,450.2L1280.6,719.8z"/>
		<path class="st0" d="M1280.4,652.6L640.6,450L1280.4,652.6z"/>
		<path class="st0" d="M1280.4,585.1L640.6,450L1280.4,585.1z"/>
		<path class="st0" d="M1280.4,517.7L640.6,450L1280.4,517.7z"/>
		<line class="st0" x1="1280.4" y1="450.2" x2="640.6" y2="450"/>
		<line id="XMLID_59_" class="st1" x1="640.6" y1="450.2" x2="800.6" y2="720"/>
		<line id="XMLID_58_" class="st1" x1="960.6" y1="720" x2="640.6" y2="450.2"/>
		<line id="XMLID_57_" class="st1" x1="1120.6" y1="720" x2="640.6" y2="450.2"/>
		<line id="XMLID_54_" class="st1" x1="640.6" y1="450.2" x2="480.6" y2="720"/>
		<line id="XMLID_2_" class="st1" x1="320.6" y1="720" x2="640.6" y2="450.2"/>
		<line class="st1" x1="640.6" y1="450.2" x2="160.6" y2="720"/>
		<line class="st1" x1="640.6" y1="450.2" x2="0.6" y2="483.7"/>
		<line class="st1" x1="1280.6" y1="483.7" x2="640.6" y2="450.2"/>
	</g>
</g>
</svg>
