<?xml version="1.0" encoding="utf-8"?>
<!-- Generator: Adobe Illustrator 22.1.0, SVG Export Plug-In . SVG Version: 6.00 Build 0)  -->
<svg version="1.1" id="Layer_1" xmlns="http://www.w3.org/2000/svg" xmlns:xlink="http://www.w3.org/1999/xlink" x="0px" y="0px"
	 viewBox="0 0 1281.5 720.5" style="enable-background:new 0 0 1281.5 720.5;" xml:space="preserve">
<style type="text/css">
	.st0{fill:none;stroke:#5B5B4B;stroke-linecap:round;stroke-miterlimit:10;}
	.st1{fill:none;stroke:#35423E;stroke-linecap:round;stroke-miterlimit:10;}
</style>
<g>
	<g id="XMLID_60_">
		<g id="XMLID_70_">
			
				<rect id="XMLID_78_" x="629.3" y="68.7" transform="matrix(1.136220e-09 -1 1 1.136220e-09 -68.1611 1349.1616)" class="st0" width="22.5" height="1280"/>
			
				<rect id="XMLID_77_" x="629.3" y="46.2" transform="matrix(1.137192e-09 -1 1 1.137192e-09 -45.6923 1326.6927)" class="st0" width="22.5" height="1280"/>
			
				<rect id="XMLID_76_" x="629.3" y="23.7" transform="matrix(1.136220e-09 -1 1 1.136220e-09 -23.2235 1304.224)" class="st0" width="22.5" height="1280"/>
			
				<rect id="XMLID_75_" x="629.3" y="1.3" transform="matrix(1.137111e-09 -1 1 1.137111e-09 -0.7547 1281.7552)" class="st0" width="22.5" height="1280"/>
			
				<rect id="XMLID_74_" x="629.3" y="-21.2" transform="matrix(1.136302e-09 -1 1 1.136302e-09 21.7141 1259.2864)" class="st0" width="22.5" height="1280"/>
			
				<rect id="XMLID_73_" x="629.3" y="-43.7" transform="matrix(1.137111e-09 -1 1 1.137111e-09 44.1829 1236.8176)" class="st0" width="22.5" height="1280"/>
			
				<rect id="XMLID_72_" x="629.3" y="-66.2" transform="matrix(1.136707e-09 -1 1 1.136707e-09 66.6517 1214.3488)" class="st0" width="22.5" height="1280"/>
			
				<rect id="XMLID_71_" x="629.3" y="-88.6" transform="matrix(1.136707e-09 -1 1 1.136707e-09 89.1205 1191.88)" class="st0" width="22.5" height="1280"/>
		</g>
		<g id="XMLID_61_">
			<rect id="XMLID_69_" x="0.5" y="540.1" class="st0" width="160" height="179.8"/>
			<rect id="XMLID_68_" x="160.5" y="540.1" class="st0" width="160" height="179.8"/>
			<rect id="XMLID_67_" x="320.5" y="540.1" class="st0" width="160" height="179.8"/>
			<rect id="XMLID_66_" x="480.5" y="540.1" class="st0" width="160" height="179.8"/>
			<rect id="XMLID_65_" x="640.5" y="540.1" class="st0" width="160" height="179.8"/>
			<rect id="XMLID_64_" x="800.5" y="540.1" class="st0" width="160" height="179.8"/>
			<rect id="XMLID_63_" x="960.5" y="540.1" class="st0" width="160" height="179.8"/>
			<rect id="XMLID_62_" x="1120.5" y="540.1" class="st0" width="160" height="179.8"/>
		</g>
	</g>
	<g>
		<g>
			<line class="st1" x1="641.4" y1="540.5" x2="641.1" y2="720"/>
			<line class="st1" x1="0.6" y1="540.1" x2="1280.6" y2="540.1"/>
		</g>
		<path class="st0" d="M0.4,719.9l640.3-179.7L0.4,719.9z"/>
		<path class="st0" d="M0.6,675l639.7-135L0.6,675z"/>
		<g>
			<path class="st0" d="M0.6,630.1L640.4,540L0.6,630.1z"/>
		</g>
		<path class="st0" d="M0.6,585.1L640.4,540L0.6,585.1z"/>
		<line class="st0" x1="0.6" y1="540.1" x2="640.4" y2="540"/>
		<path class="st0" d="M1280.6,719.9L640.4,540.1L1280.6,719.9z"/>
		<path class="st0" d="M1280.4,675L640.6,540L1280.4,675z"/>
		<path class="st0" d="M1280.4,630.1L640.6,540L1280.4,630.1z"/>
		<path class="st0" d="M1280.4,585.1L640.6,540L1280.4,585.1z"/>
		<line class="st0" x1="1280.4" y1="540.1" x2="640.6" y2="540"/>
		<line id="XMLID_59_" class="st1" x1="640.6" y1="540.1" x2="800.6" y2="720"/>
		<line id="XMLID_58_" class="st1" x1="960.6" y1="720" x2="640.6" y2="540.1"/>
		<line id="XMLID_57_" class="st1" x1="1120.6" y1="720" x2="640.6" y2="540.1"/>
		<line id="XMLID_54_" class="st1" x1="640.6" y1="540.1" x2="480.6" y2="720"/>
		<line id="XMLID_2_" class="st1" x1="320.6" y1="720" x2="640.6" y2="540.1"/>
		<line class="st1" x1="640.6" y1="540.1" x2="160.6" y2="720"/>
		<line class="st1" x1="640.6" y1="540.1" x2="0.6" y2="562.4"/>
		<line class="st1" x1="1280.6" y1="562.4" x2="640.6" y2="540.1"/>
	</g>
</g>
</svg>
