<?xml version="1.0" encoding="utf-8"?>
<!-- Generator: Adobe Illustrator 22.1.0, SVG Export Plug-In . SVG Version: 6.00 Build 0)  -->
<svg version="1.1" id="Layer_1" xmlns="http://www.w3.org/2000/svg" xmlns:xlink="http://www.w3.org/1999/xlink" x="0px" y="0px"
	 viewBox="0 0 361.3 222.5" style="enable-background:new 0 0 361.3 222.5;" xml:space="preserve">
<style type="text/css">
	.st0{opacity:0.1;}
	.st1{fill:#5B5B4B;stroke:#5B5B4B;stroke-linecap:round;stroke-miterlimit:10;}
	.st2{fill:none;stroke:#5B5B4B;stroke-linecap:round;stroke-miterlimit:10;}
	.st3{fill:#FDF5EA;stroke:#5B5B4B;stroke-linecap:round;stroke-miterlimit:10;}
</style>
<g class="st0">
	<g>
		<g id="XMLID_24873_">
			<path id="XMLID_24885_" class="st1" d="M233.9,48.5c0,0-1.6-26.7-19.7-18.7s-7.5,83.5,38.3,72.4s27.1-70.4,27.1-70.4
				s-19.2-16.9-22.4,12.5c0,0-0.9,19.7-9.9,21.3C238.4,67.1,233,53.4,233.9,48.5z"/>
			<g id="XMLID_24883_">
				<path id="XMLID_24884_" class="st1" d="M210.9,65c0,0-31.5,31.3-25.3-27c0,0-7.6-18.1-22.2-10.4c-14.7,7.7-16.6,100.1,54,73.9
					c0,0,19-7.4,24.1-11.1"/>
			</g>
			<line id="XMLID_24882_" class="st2" x1="178.7" y1="98.7" x2="181.7" y2="100"/>
			<path id="XMLID_24881_" class="st1" d="M247.6,78.6c0,0,1.1,2.4-0.7,3.5"/>
			<path id="XMLID_24880_" class="st1" d="M278.9,73.5c0,0-0.5,2.2-1.1,2.9"/>
			<path id="XMLID_24879_" class="st1" d="M261.1,43.1c0,0,0.9-4.1,0-4.1"/>
			<path id="XMLID_24878_" class="st1" d="M170.6,29.8c0,0,3.9,0.5,3.5,1.2"/>
			<path id="XMLID_24877_" class="st1" d="M195.8,79c0,0,4.5-0.6,4.8-1.5"/>
			<path id="XMLID_24876_" class="st1" d="M218.4,33.4c0,0-3,1.4-3.8,2.8"/>
			<line id="XMLID_24875_" class="st2" x1="247.3" y1="68.1" x2="250.4" y2="67.2"/>
			<line id="XMLID_24874_" class="st2" x1="254.1" y1="97.4" x2="257.2" y2="96.5"/>
		</g>
		<g id="XMLID_24859_">
			<path id="XMLID_24872_" class="st1" d="M133.5,37.9"/>
			<path id="XMLID_24869_" class="st1" d="M156.3,32.5C119.8,6,91.6,39.6,91.6,39.6S68.5,93.1,113,107
				C157.3,121,192.8,59,156.3,32.5z M136.6,69.4c-8.3,21.9-34.5-12.3-16-14.9C120.7,54.5,144.9,47.5,136.6,69.4z"/>
			<path id="XMLID_24868_" class="st1" d="M142,29.2"/>
			<line id="XMLID_24867_" class="st2" x1="100.8" y1="96.3" x2="103.7" y2="97.6"/>
			<path id="XMLID_24866_" class="st1" d="M145.4,98.9c0,0-0.5,2.6-2.6,2.4"/>
			<path id="XMLID_24865_" class="st1" d="M139.9,69.9c0,0-0.5,2.2-1.1,2.9"/>
			<path id="XMLID_24864_" class="st1" d="M166.5,68c0,0,0.9-4.1,0-4.1"/>
			<path id="XMLID_24863_" class="st1" d="M139.8,28.6c0,0,3.9,0.5,3.5,1.2"/>
			<path id="XMLID_24862_" class="st1" d="M115.1,76.5c0,0,3.8,2.6,4.5,2.1"/>
			<path id="XMLID_24861_" class="st1" d="M98.2,40.4c0,0-3,1.4-3.8,2.8"/>
			<line id="XMLID_24860_" class="st2" x1="115.7" y1="51.8" x2="118.9" y2="51"/>
		</g>
		<g id="XMLID_24848_">
			<path id="XMLID_24858_" class="st1" d="M48,30.3c0,0-3.9-18.4-21.9-11.8s-8.9,76.2-0.5,81.6C34.1,105.4,57.5,138.5,48,30.3z"/>
			<path id="XMLID_24857_" class="st1" d="M44,63.8c0,0,31.5-31.3,25.3,27c0,0,7.6,18.1,22.2,10.4C106.2,93.6,108,1,37.4,27.3"/>
			<line id="XMLID_24856_" class="st2" x1="34" y1="99.3" x2="37.1" y2="100.6"/>
			<path id="XMLID_24855_" class="st1" d="M88,91.2c0,0,1.1,2.4-0.7,3.5"/>
			<path id="XMLID_24854_" class="st1" d="M94.9,61.3c0,0-0.5,2.2-1.1,2.9"/>
			<path id="XMLID_24853_" class="st1" d="M44.8,80.1c0,0,0.9-4.1,0-4.1"/>
			<path id="XMLID_24852_" class="st1" d="M66.8,51.6c0,0,3.9,0.5,3.5,1.2"/>
			<path id="XMLID_24851_" class="st1" d="M29.3,71.3c0,0,4.5-0.6,4.8-1.5"/>
			<path id="XMLID_24850_" class="st1" d="M51.9,28.2c0,0-3,1.4-3.8,2.8"/>
			<line id="XMLID_24849_" class="st2" x1="25" y1="33.2" x2="28.1" y2="32.3"/>
		</g>
		<g id="XMLID_24837_">
			<path id="XMLID_24847_" class="st1" d="M67.8,92.7c0,0-3.9-18.4-21.9-11.8c-18.1,6.5-8.9,76.2-0.4,81.6
				C53.8,167.8,77.4,200.9,67.8,92.7z"/>
			<path id="XMLID_24846_" class="st1" d="M63.9,126.1c0,0,31.5-31.3,25.3,27c0,0,7.6,18.1,22.2,10.4c14.7-7.6,16.5-100.2-54.1-73.9
				"/>
			<line id="XMLID_24845_" class="st2" x1="54.9" y1="164.1" x2="57.9" y2="165.4"/>
			<path id="XMLID_24844_" class="st1" d="M108.9,156.1c0,0,1.1,2.4-0.7,3.5"/>
			<path id="XMLID_24843_" class="st1" d="M115.8,126.2c0,0-0.5,2.2-1.1,2.9"/>
			<path id="XMLID_24842_" class="st1" d="M65.6,145c0,0,0.9-4.1,0-4.1"/>
			<path id="XMLID_24841_" class="st1" d="M87.7,116.5c0,0,3.9,0.5,3.5,1.2"/>
			<path id="XMLID_24840_" class="st1" d="M50.2,136.1c0,0,4.5-0.6,4.8-1.5"/>
			<path id="XMLID_24839_" class="st1" d="M72.8,93.1c0,0-3,1.4-3.8,2.8"/>
			<line id="XMLID_24838_" class="st2" x1="45.8" y1="98" x2="48.9" y2="97.2"/>
		</g>
		<g>
			<g id="XMLID_24835_">
				<path id="XMLID_24836_" class="st1" d="M132.1,123.7c0,0,5-26.8-17.6-19.1s-8.7,66.3,3.3,63.8
					C129.7,165.7,135.2,156.3,132.1,123.7z"/>
			</g>
			<line id="XMLID_24834_" class="st2" x1="113.1" y1="161" x2="116.1" y2="162.3"/>
			<path id="XMLID_24833_" class="st1" d="M128,151.5c0,0,1.1,2.4-0.7,3.5"/>
			<path id="XMLID_24832_" class="st1" d="M109.6,117c0,0-0.5,2.2-1.1,2.9"/>
			<path id="XMLID_24831_" class="st1" d="M128.5,118.3c0,0,0.9-4.1,0-4.1"/>
			<path id="XMLID_24830_" class="st1" d="M118.2,106.6c0,0,3.9,0.5,3.5,1.2"/>
		</g>
		<g>
			<path id="XMLID_24829_" class="st1" d="M119.5,68.1c0,0,25.6,14.5,0.5,25.4S102.5,54.8,119.5,68.1z"/>
			<path id="XMLID_24828_" class="st1" d="M115.1,91.9c0,0,4.5-0.6,4.8-1.5"/>
			<path id="XMLID_24827_" class="st1" d="M112.6,69.9c0,0-3,1.4-3.8,2.8"/>
		</g>
		<g id="XMLID_24812_">
			<path id="XMLID_24826_" class="st1" d="M161.9,110.4"/>
			<path id="XMLID_24823_" class="st1" d="M182.1,105.7c-32.2-23.5-57.2,6.2-57.2,6.2s-20.4,47.2,18.9,59.5S214.3,129.2,182.1,105.7
				z M165.5,138.6c-8.1,21.2-33.4-12-15.5-14.4C150.2,124.1,173.6,117.3,165.5,138.6z"/>
			<path id="XMLID_24822_" class="st1" d="M169.5,102.7"/>
			<path id="XMLID_24821_" class="st1" d="M169.5,102.7c0,0,24.9-26.8,25.7,23.4s9.4,96-38.7,95.9c0,0-26.2-12.1-0.1-25.1
				c12.8-6.4,15.2-19.5,14.9-35.9"/>
			<line id="XMLID_24820_" class="st2" x1="154.1" y1="215.5" x2="157.1" y2="216.8"/>
			<path id="XMLID_24819_" class="st1" d="M179.9,210.4c0,0,1.1,2.4-0.7,3.5"/>
			<path id="XMLID_24818_" class="st1" d="M192.7,185.1c0,0-0.5,2.2-1.1,2.9"/>
			<path id="XMLID_24817_" class="st1" d="M190.2,153.1c0,0,0.9-4.1,0-4.1"/>
			<path id="XMLID_24816_" class="st1" d="M135.1,163.9c0,0,3.9,0.5,3.5,1.2"/>
			<path id="XMLID_24815_" class="st1" d="M181.9,122.3c0,0,4.5-0.6,4.8-1.5"/>
			<path id="XMLID_24814_" class="st1" d="M135.2,110.2c0,0-3,1.4-3.8,2.8"/>
			<line id="XMLID_24813_" class="st2" x1="167.7" y1="144.9" x2="165" y2="146.5"/>
		</g>
		<path id="XMLID_24811_" class="st1" d="M225.8,108.3c0,0-6.7-4.7-9.5-1c-2.9,3.7-7.8,9.9-1.9,22c5.9,12.1,27.9,2,30-3.7"/>
		<g>
			<path id="XMLID_24810_" class="st1" d="M251.7,117.9L251.7,117.9c-4.2-11.2-13.5-19.9-27.6-21.4c-28.1-2.7-39.6,15.6-44,26.7
				c0,0-1,1.7-1.7,4.9c-0.6,1.9-0.7,3.6-0.6,4.3c-0.4,6.1,0.7,15.1,6.4,27c4.6,9.7,16.5,13.1,24.3,14.3c2.2,0.5,4.6,0.7,7.1,0.7
				c0.1,0,0.2,0,0.2,0l0,0c2.7,0,5.6-0.4,8.7-1.1c12.3-2.9,20.8-10.8,25.5-20.5c-0.8-11.2-10.5-12.6-16.3-13.3
				c-3.1-0.5-6.4,1.4-8.8,3.5c-0.3,0.2-0.5,0.4-0.8,0.6c-8.3,6.1-30.1-5.8-18.7-14.8c0,0,3.9-4.1,8.5-6l0,0c0,0,3.8-1.9,6.9-0.8
				c1.2,0.4,2.3,1.3,3,3c0,0.1,0.1,0.2,0.1,0.3c0.3,0.8,0.8,1.6,1.3,2.5c3.8,6.1,12.3,14.1,20,8.5c9-6.5,8-9,8.2-11.5l0,0
				C254,122.1,251.7,117.9,251.7,117.9z"/>
			<line id="XMLID_24809_" class="st2" x1="188.9" y1="158.7" x2="190.8" y2="161.3"/>
			<path id="XMLID_24808_" class="st1" d="M242.4,155.6c0,0,1.1,2.4-0.7,3.5"/>
			<path id="XMLID_24807_" class="st1" d="M251.4,124.5c0,0-0.5,2.2-1.1,2.9"/>
			<path id="XMLID_24806_" class="st1" d="M200.3,128.3c0,0,0.9-4.1,0-4.1"/>
			<path id="XMLID_24805_" class="st1" d="M221.2,115.9c0,0,3.9,0.5,3.5,1.2"/>
			<path id="XMLID_24804_" class="st1" d="M217.3,170.3c0,0,4.5-0.6,4.8-1.5"/>
			<path id="XMLID_24803_" class="st1" d="M193.7,110.2c0,0-3,1.4-3.8,2.8"/>
			<line id="XMLID_24802_" class="st2" x1="238.4" y1="134.8" x2="241.5" y2="134"/>
		</g>
		<g>
			<path id="XMLID_24801_" class="st1" d="M268.6,86.2c0,0-3.9-21.4-21.9-13.8s-8.8,89-0.4,95.3C254.7,174,278.1,212.6,268.6,86.2z"
				/>
			<path id="XMLID_24800_" class="st1" d="M261.5,165.5c0,0,1.1,2.4-0.7,3.5"/>
			<path id="XMLID_24799_" class="st1" d="M267.2,126.8c0,0,0.3,2.2,0,3.2"/>
			<path id="XMLID_24798_" class="st1" d="M244,142.1c0,0,0.9-4.1,0-4.1"/>
			<path id="XMLID_24797_" class="st1" d="M248.9,76.9c0,0-3,1.4-3.8,2.8"/>
		</g>
		<g id="XMLID_24726_">
			<path id="XMLID_24796_" class="st1" d="M322.7,184.6c0.2-3.5-1.1-13.6-1.3-16.9c-0.2-3-0.6-5.6-1.3-7.7
				c11.5-20-20.7-42.6-32.1-17c-3.6,8-3,23.4-3,26c0.1,3.4,0.3,14.9,0.3,17.9c0.2,16.6,24.8,29.7,34.5,8"/>
			<g id="XMLID_24727_">
				<g id="XMLID_24792_">
					<path id="XMLID_24795_" class="st1" d="M264.1,102c0,0-18-23.6-18.3-5.1c-0.4,18.5,4.8,38.4,11.4,35.9s6.7-8,6.7-8"/>
					<path id="XMLID_24794_" class="st1" d="M258.2,103.4c0,0-7-10.8-8.7-5.7"/>
					<path id="XMLID_24793_" class="st1" d="M260.9,110.9c0,0-10.3-2.7-8.8,3.3s5.1,9.9,7,3.3"/>
				</g>
				<path id="XMLID_24791_" class="st1" d="M317.3,18.7c0,0-6.7,5.9,1.6,8.6C327.3,30,324.6,15.7,317.3,18.7z"/>
				<path id="XMLID_24790_" class="st1" d="M303.2,33.2c0,0,53.6,3.7,46.4,66.9s-5.2,74.8-35.3,81.4c-30.2,6.5-46.9-15.5-50.2-32.3
					C260.7,132.4,236.1,41.8,303.2,33.2z"/>
				<path id="XMLID_24789_" class="st1" d="M346.3,48.1c-0.2-2.1-1.1-4.8-3-8.1v-0.1l0,0c-0.4-0.7-0.8-1.4-1.3-2.2
					c-6-9.4-15.9-14.7-24.8-17.4C278.7,3.2,275,39.7,274.9,53.5c0,1.3,17.3-0.2,33.1-4.2c20,8,39,16.9,39,16.9
					S348.3,54.3,346.3,48.1z"/>
				<path id="XMLID_24788_" class="st1" d="M272.8,66.4c0,0,36.5-3.7,23.4,25.8C283.1,121.8,242.3,87,272.8,66.4z"/>
				<path id="XMLID_24787_" class="st1" d="M269.5,86.7c0,0,5.5-2.2,4.9,3.4S265.7,91.6,269.5,86.7z"/>
				<path id="XMLID_24786_" class="st1" d="M312.9,105.6c0,0,9.5,7.1,21.9,2.7"/>
				<path id="XMLID_24785_" class="st1" d="M309.5,110.4c0,0-9.8-12-9.4-18.7"/>
				<path id="XMLID_24784_" class="st1" d="M289.5,106.1c0,0-15.4,3.4-18.7,2"/>
				<g id="XMLID_24781_">
					<path id="XMLID_24783_" class="st1" d="M292.7,111.8c0.4,3.2,1.4,5.4,3.4,5.8c1.1,0.2,2.1,0.2,2.9,0c0.7-0.2,1.2-0.4,1.6-0.6"
						/>
					<path id="XMLID_24782_" class="st1" d="M302.9,73.6c0,0-7.3,19.7-9.3,33.6"/>
				</g>
				<path id="XMLID_24780_" class="st1" d="M313.4,70.3c0,0-26.7,23.7,6.7,34.3S342.6,58.2,313.4,70.3z"/>
				<path id="XMLID_24779_" class="st1" d="M332.1,89.7c0,0,5.5-2.2,4.9,3.4S328.4,94.7,332.1,89.7z"/>
				<path id="XMLID_24778_" class="st1" d="M286.7,176.1c0,0-6.4,5.9,6.8,8.5c13.2,2.5,21.8-1,19.2-5.9"/>
				<path id="XMLID_24777_" class="st1" d="M315.6,65.6c0,0-12.3,1.5-3.5,10.1c8.8,8.7,25.7,0.2,24.8-2.9
					C336,69.7,334.4,64.6,315.6,65.6z"/>
				<path id="XMLID_24776_" class="st1" d="M265.5,58.5c0,0,20.5-8.4,44.6-3.2S346.7,66,346.7,66c-7.8-26.5-54.4-26.5-78-24.9
					c-23.5,1.7-17.3,10.7-17.3,10.7S255,56,265.5,58.5z"/>
				<path id="XMLID_24775_" class="st1" d="M265.5,58.5c0,0-40.7-11.1,15.5-13.9c56.3-2.7,65.6,21.3,65.6,21.3
					S294.5,43.7,265.5,58.5z"/>
				<g id="XMLID_24769_">
					<path id="XMLID_24774_" class="st1" d="M289.2,113.4c0,0-7.1,8.3,4.3,10.6"/>
					<path id="XMLID_24773_" class="st1" d="M308.9,113.3c0,0,7.6,6.3-3.1,10.6"/>
					<path id="XMLID_24772_" class="st1" d="M305.4,120.4c-1.6,0.4-3.2-2.1-2.1-1.8c1.1,0.3,2.7-1.9,3.9,0"/>
					<path id="XMLID_24771_" class="st1" d="M293.7,119.6c0.9,0.5-1.3,1.8-1.3,1.8c-2.2-0.1-2.7-1.8-1.5-2.7"/>
					<path id="XMLID_24770_" class="st1" d="M300.1,109.1c0,0,2.2-0.1,2.8,0.7"/>
				</g>
				<path id="XMLID_24768_" class="st1" d="M285,118.5c0,0-6.2,3.1-8,3.8"/>
				<line id="XMLID_24767_" class="st2" x1="266.7" y1="121.2" x2="269.3" y2="122.4"/>
				<path id="XMLID_24766_" class="st1" d="M313.3,116.7c0,0,7.3,3.5,8,3.4"/>
				<path id="XMLID_24765_" class="st1" d="M344.1,85.6c0,0,1,2.1-0.6,3"/>
				<path id="XMLID_24764_" class="st1" d="M338.6,107.1c0,0-0.5,1.9-1,2.6"/>
				<path id="XMLID_24763_" class="st1" d="M339,69.8c0,0,0.8-3.6,0-3.6"/>
				<path id="XMLID_24762_" class="st1" d="M286.8,57.9c0,0,3.4,0.5,3,1"/>
				<path id="XMLID_24761_" class="st1" d="M307.5,64.1c0,0,3.9-0.6,4.2-1.3"/>
				<path id="XMLID_24760_" class="st1" d="M278.3,160.6c0,0,2.8,0.6,3,1.2"/>
				<path id="XMLID_24759_" class="st1" d="M324.5,161.6c0,0-2.6,1.2-3.4,2.5"/>
				<path id="XMLID_24758_" class="st1" d="M279.8,60.6c0,0-19-1-10.2,9.5c8.8,10.6,24.4-0.3,25.6-4.9S279.8,60.6,279.8,60.6z"/>
				<path id="XMLID_24757_" class="st1" d="M270.8,98.8"/>
				<path id="XMLID_24756_" class="st1" d="M289.5,101"/>
				<line id="XMLID_24755_" class="st2" x1="331.3" y1="121.6" x2="334" y2="120.9"/>
				<path id="XMLID_24754_" class="st1" d="M342.1,108.5c0,0,19.7-22.2,18.7-3.7s-7.6,37.9-14,34.9c-6.4-3.1-6-8.5-6-8.5"/>
				<path id="XMLID_24753_" class="st1" d="M347.9,110.2c0,0,7.9-10.2,9.2-5"/>
				<path id="XMLID_24752_" class="st1" d="M344.6,117.5c0,0,10.4-1.8,8.5,4s-6,9.4-7.2,2.7"/>
				<g id="XMLID_24747_">
					<path id="XMLID_24751_" class="st1" d="M270.9,97.8c0,0-5.3,0.7-3,3.2s3.5-0.6,7.4,1.4"/>
					<path id="XMLID_24750_" class="st1" d="M336.5,99.9c0,0,5.3,0.7,3,3.2s-3.5-0.6-7.4,1.4"/>
					<path id="XMLID_24749_" class="st1" d="M330.6,99.4c0,0-12.3-0.7-19.5,1.2"/>
					<path id="XMLID_24748_" class="st1" d="M276.9,96.7c0,0,7.2-1.4,15.2,1"/>
				</g>
				<g id="XMLID_24735_">
					<path id="XMLID_24746_" class="st1" d="M292.5,135c0,0,36.5-3.7,23.4,25.8C302.8,190.4,261.9,155.6,292.5,135z"/>
					<path id="XMLID_24745_" class="st1" d="M293.9,164.5c-3.6-1.6-7.7,9.5-11.5-0.7c-3.8-10.3,19.4-0.9,19.4-0.9s7.3,2.4,10,3.7"/>
					<path id="XMLID_24744_" class="st1" d="M312.3,166.7c1.3-1.6,2.6-3.5,3.6-5.8c13.1-29.5-23.4-25.8-23.4-25.8
						c-11.4,7.6-12.8,17.2-9.6,24.7c3.9-2.9,18.8,3.1,18.8,3.1s7.3,2.4,10,3.7"/>
					<g id="XMLID_24737_">
						<path id="XMLID_24743_" class="st1" d="M284,142.2c0,0,5.5-2.2,4.9,3.4C288.4,151.2,280.4,147.1,284,142.2z"/>
						<path id="XMLID_24742_" class="st1" d="M289.9,142.1c0,0,5.5-2.2,4.9,3.4C294.3,151.1,286.3,147,289.9,142.1z"/>
						<path id="XMLID_24741_" class="st1" d="M295.9,142.1c0,0,5.5-2.2,4.9,3.4S292.2,147,295.9,142.1z"/>
						<path id="XMLID_24740_" class="st1" d="M301.8,142.1c0,0,5.5-2.2,4.9,3.4C306.1,151.2,298.1,147,301.8,142.1z"/>
						<path id="XMLID_24739_" class="st1" d="M307.7,142c0,0,5.5-2.2,4.9,3.4C312.1,151,304,147,307.7,142z"/>
						<path id="XMLID_24738_" class="st1" d="M313.6,142c0,0,5.5-2.2,4.9,3.4C317.9,151.1,309.9,146.9,313.6,142z"/>
					</g>
					<path id="XMLID_24736_" class="st1" d="M290.1,142.3c0,0,5.1-2,4.9,2.9l0,0c-0.1-0.9,0.2-1.8,1-2.9c0,0,5.1-2,4.9,2.9l0,0
						c-0.1-0.9,0.2-1.8,1-2.9c0,0,5.1-2,4.9,2.9l0,0c-0.1-0.9,0.2-1.8,1-2.9c0,0,5.1-2,4.9,2.9l0,0c-0.1-0.9,0.2-1.8,1-2.9
						c0,0,1.3-0.5,2.5-0.4c-6.6-8.3-23.6-6.6-23.6-6.6c-3.2,2.1-5.6,4.4-7.3,6.7c1.5-0.3,3.9-0.2,3.7,3.2l0,0
						C289,144.3,289.3,143.3,290.1,142.3z"/>
				</g>
				<g id="XMLID_24730_">
					<path id="XMLID_24734_" class="st1" d="M287.1,138.5c0,0-19.6,2.7-8.7,9.7C289.5,155.3,287.1,138.5,287.1,138.5z"/>
					<path id="XMLID_24733_" class="st1" d="M284.2,132.7c0,0-16.2-0.8-8.7,7.5c7.5,8.4,20.8-0.3,21.9-3.9
						C298.4,132.9,284.2,132.7,284.2,132.7z"/>
					<path id="XMLID_24732_" class="st1" d="M316.6,136.8c0,0-7.9-2.6-6.5,7.4c1.3,10,15,8.2,15.8,5.3S328,141.9,316.6,136.8z"/>
					<path id="XMLID_24731_" class="st1" d="M309.8,134.2c0,0-23-2.8-0.3,8.2C332.2,153.3,336,137.5,309.8,134.2z"/>
				</g>
				<path id="XMLID_24729_" class="st1" d="M328.5,25.4c0,0,1.8,1.4,0.8,3"/>
				<line id="XMLID_24728_" class="st2" x1="280.6" y1="40.6" x2="281.7" y2="38"/>
			</g>
		</g>
		<path id="XMLID_24723_" class="st1" d="M235.5,188.3c-0.9-6.8-2.5-9.4-4.5-10.6c0,0-10.7-4-13.7,6.3c-3,10.2,6.2,12.2,7.4,12.1
			C225.9,196,236.5,195.1,235.5,188.3z M228.6,187.7c-0.3,0.6-0.9,1.1-2.7,1.4c-1.8,0.3-2.3-2.4-2.3-2.7s0.3-2.8,3.1-2.2
			C229.4,184.7,228.6,187.7,228.6,187.7z"/>
		<g>
			<g id="XMLID_24719_">
				<path id="XMLID_24722_" class="st1" d="M249,191.4"/>
				<path id="XMLID_24721_" class="st1" d="M255.3,191c0-2.7-0.2-6.4,0.8-7.2c1.4-1.1,5.8-0.6,5.2,2.2c-0.4,1.6-0.4,3.5-0.4,4.7
					c0,0.9,0,1.6,0,1.9c0,0.7,0.3,2.2,2.8,2.5c3.2,0.4,3.7-0.7,3.7-3s2.5-13.3-6.8-15.2c-6.6-1.4-10,2.4-11.5,5.5"/>
				<path id="XMLID_24720_" class="st1" d="M255.6,183.4"/>
			</g>
			<g id="XMLID_24715_">
				<path id="XMLID_24718_" class="st1" d="M237,191.5c0.4,1.9,6.3,0.5,6.3-0.4c0-2.7-0.2-6.4,0.8-7.2c1.1-0.9,4.3-0.8,5.1,0.8
					c0.2,0.4,0.2,0.8,0.1,1.3c-0.4,1.6-0.4,3.5-0.4,4.7c0,0.9,0,1.6,0,1.9c0,0.7,0.3,2.2,2.8,2.5c3.2,0.4,3.7-0.7,3.7-3
					s2.5-13.3-6.8-15.2c-9.4-1.9-12.4,6.6-12.4,8.6C236.3,186.6,236.6,189.2,237,191.5"/>
				<path id="XMLID_24717_" class="st1" d="M243.6,183.4"/>
				<path id="XMLID_24716_" class="st1" d="M243.6,183.4c0.2,3.8,0,8.1-0.5,9.8c0,0-1.8,3.2-4.5,1.7s-3-16.8-1.4-17.5
					c1.7-0.7,5-2.2,5.8,1.3"/>
			</g>
		</g>
		<path id="XMLID_24714_" class="st1" d="M213.1,187.6c-0.5,0.2-0.9,0.7-1.3,1.3c-0.1,0.2-0.2,0.3-0.3,0.5c-0.1,0.1-0.4,0.4-0.5,0.5
			c-1.4,0.6-4.1,1.4-5.2-1.4c-0.1-0.2-0.2-1-0.2-1.2c0-0.4,0-0.8,0.1-1.1c0.3-3,1.3-4.3,2.2-4.4c1.1-0.1,3.3,0.6,3.9,2.1
			c0,0,0.6,2.7,2.1,2.3s4.3-1.9,2.1-4.8c-2.2-2.9-4.4-5.9-10.6-3.8c-6.2,2.1-5,10-4.8,10.5s3.5,11.5,11.8,6.5
			C220.7,189.6,214,187.3,213.1,187.6z"/>
		<path id="XMLID_24713_" class="st1" d="M229.3,185.3"/>
		<path id="XMLID_24712_" class="st1" d="M195.4,193.8c-0.3,0.6-0.9,1.1-2.7,1.4c-1.8,0.3-2.3-2.4-2.3-2.7s0.3-2.8,3.1-2.2
			C196.1,190.9,195.4,193.8,195.4,193.8z"/>
	</g>
</g>
<g>
	<g>
		<g id="XMLID_162_">
			<path id="XMLID_174_" class="st1" d="M226.4,40.9c0,0-1.6-26.7-19.7-18.7s-7.5,83.5,38.3,72.4s27.1-70.4,27.1-70.4
				s-19.2-16.9-22.4,12.5c0,0-0.9,19.7-9.9,21.3C230.9,59.6,225.5,45.8,226.4,40.9z"/>
			<g id="XMLID_172_">
				<path id="XMLID_173_" class="st1" d="M203.4,57.4c0,0-31.5,31.3-25.3-27c0,0-7.6-18.1-22.2-10.4c-14.7,7.7-16.5,100.2,54.1,73.9
					c0,0,19-7.4,24.1-11.1"/>
			</g>
			<line id="XMLID_171_" class="st2" x1="171.2" y1="91" x2="174.2" y2="92.3"/>
			<path id="XMLID_170_" class="st1" d="M240,71c0,0,1.1,2.4-0.7,3.5"/>
			<path id="XMLID_169_" class="st1" d="M271.4,65.9c0,0-0.5,2.2-1.1,2.9"/>
			<path id="XMLID_168_" class="st1" d="M253.6,35.6c0,0,0.9-4.1,0-4.1"/>
			<path id="XMLID_167_" class="st1" d="M163.1,22.3c0,0,3.9,0.5,3.5,1.2"/>
			<path id="XMLID_166_" class="st1" d="M188.2,71.5c0,0,4.5-0.6,4.8-1.5"/>
			<path id="XMLID_165_" class="st1" d="M210.8,25.9c0,0-3,1.4-3.8,2.8"/>
			<line id="XMLID_164_" class="st2" x1="239.8" y1="60.4" x2="242.9" y2="59.6"/>
			<line id="XMLID_163_" class="st2" x1="246.6" y1="89.8" x2="249.7" y2="88.9"/>
		</g>
		<g id="XMLID_148_">
			<path id="XMLID_161_" class="st1" d="M125.9,30.3"/>
			<path id="XMLID_158_" class="st1" d="M148.7,24.9C112.3-1.6,84,32,84,32s-23,53.5,21.4,67.4C149.8,113.4,185.2,51.5,148.7,24.9z
				 M129.1,61.8c-8.3,21.9-34.5-12.3-16-14.9C113.1,46.9,137.4,39.8,129.1,61.8z"/>
			<path id="XMLID_157_" class="st1" d="M134.5,21.6"/>
			<line id="XMLID_156_" class="st2" x1="93.3" y1="88.7" x2="96.2" y2="90"/>
			<path id="XMLID_155_" class="st1" d="M137.9,91.2c0,0-0.5,2.6-2.6,2.4"/>
			<path id="XMLID_154_" class="st1" d="M132.4,62.2c0,0-0.5,2.2-1.1,2.9"/>
			<path id="XMLID_153_" class="st1" d="M159.1,60.4c0,0,0.9-4.1,0-4.1"/>
			<path id="XMLID_152_" class="st1" d="M132.3,21c0,0,3.9,0.5,3.5,1.2"/>
			<path id="XMLID_151_" class="st1" d="M107.6,68.9c0,0,3.8,2.6,4.5,2.1"/>
			<path id="XMLID_150_" class="st1" d="M90.7,32.8c0,0-3,1.4-3.8,2.8"/>
			<line id="XMLID_149_" class="st2" x1="108.2" y1="44.2" x2="111.4" y2="43.4"/>
		</g>
		<g id="XMLID_137_">
			<path id="XMLID_147_" class="st1" d="M40.5,22.7c0,0-3.9-18.4-21.9-11.8s-8.9,76.2-0.4,81.6C26.5,97.9,50,130.9,40.5,22.7z"/>
			<path id="XMLID_146_" class="st1" d="M36.5,56.2c0,0,31.5-31.3,25.3,27c0,0,7.6,18.1,22.2,10.4C98.7,86,100.5-6.6,29.9,19.7"/>
			<line id="XMLID_145_" class="st2" x1="26.5" y1="91.7" x2="29.5" y2="93"/>
			<path id="XMLID_144_" class="st1" d="M80.5,83.6c0,0,1.1,2.4-0.7,3.5"/>
			<path id="XMLID_143_" class="st1" d="M87.3,53.7c0,0-0.5,2.2-1.1,2.9"/>
			<path id="XMLID_142_" class="st1" d="M37.2,72.5c0,0,0.9-4.1,0-4.1"/>
			<path id="XMLID_141_" class="st1" d="M59.3,44c0,0,3.9,0.5,3.5,1.2"/>
			<path id="XMLID_140_" class="st1" d="M21.8,63.7c0,0,4.5-0.6,4.8-1.5"/>
			<path id="XMLID_139_" class="st1" d="M44.4,20.6c0,0-3,1.4-3.8,2.8"/>
			<line id="XMLID_138_" class="st2" x1="17.4" y1="25.6" x2="20.5" y2="24.7"/>
		</g>
		<g id="XMLID_126_">
			<path id="XMLID_136_" class="st1" d="M60.3,85.1c0,0-3.9-18.4-21.9-11.8c-18.1,6.5-8.9,76.2-0.4,81.6S69.9,193.3,60.3,85.1z"/>
			<path id="XMLID_135_" class="st1" d="M56.3,118.5c0,0,31.5-31.3,25.3,27c0,0,7.6,18.1,22.2,10.4s16.6-100-54-73.8"/>
			<line id="XMLID_134_" class="st2" x1="47.4" y1="156.6" x2="50.4" y2="157.9"/>
			<path id="XMLID_133_" class="st1" d="M101.4,148.5c0,0,1.1,2.4-0.7,3.5"/>
			<path id="XMLID_132_" class="st1" d="M108.2,118.6c0,0-0.5,2.2-1.1,2.9"/>
			<path id="XMLID_131_" class="st1" d="M58.1,137.3c0,0,0.9-4.1,0-4.1"/>
			<path id="XMLID_130_" class="st1" d="M80.2,108.9c0,0,3.9,0.5,3.5,1.2"/>
			<path id="XMLID_129_" class="st1" d="M42.7,128.5c0,0,4.5-0.6,4.8-1.5"/>
			<path id="XMLID_128_" class="st1" d="M65.3,85.5c0,0-3,1.4-3.8,2.8"/>
			<line id="XMLID_127_" class="st2" x1="38.3" y1="90.4" x2="41.4" y2="89.6"/>
		</g>
		<g>
			<g id="XMLID_124_">
				<path id="XMLID_125_" class="st1" d="M124.5,116c0,0,5-26.8-17.6-19.1s-8.7,66.3,3.3,63.8S127.7,148.7,124.5,116z"/>
			</g>
			<line id="XMLID_123_" class="st2" x1="105.6" y1="153.4" x2="108.6" y2="154.7"/>
			<path id="XMLID_122_" class="st1" d="M120.4,144c0,0,1.1,2.4-0.7,3.5"/>
			<path id="XMLID_121_" class="st1" d="M102.1,109.3c0,0-0.5,2.2-1.1,2.9"/>
			<path id="XMLID_120_" class="st1" d="M121,110.8c0,0,0.9-4.1,0-4.1"/>
			<path id="XMLID_119_" class="st1" d="M110.6,99c0,0,3.9,0.5,3.5,1.2"/>
		</g>
		<g>
			<path id="XMLID_118_" class="st1" d="M112,60.5c0,0,25.6,14.5,0.5,25.4S94.9,47.3,112,60.5z"/>
			<path id="XMLID_117_" class="st1" d="M107.6,84.3c0,0,4.5-0.6,4.8-1.5"/>
			<path id="XMLID_116_" class="st1" d="M105.1,62.3c0,0-3,1.4-3.8,2.8"/>
		</g>
		<g id="XMLID_101_">
			<path id="XMLID_115_" class="st1" d="M154.4,102.8"/>
			<path id="XMLID_112_" class="st1" d="M174.5,98.1c-32.2-23.5-57.2,6.2-57.2,6.2s-20.4,47.2,18.9,59.5
				C175.5,176.2,206.7,121.6,174.5,98.1z M158,131c-8.1,21.2-33.4-12-15.5-14.4C142.6,116.6,166.1,109.8,158,131z"/>
			<path id="XMLID_111_" class="st1" d="M161.9,95.2"/>
			<path id="XMLID_110_" class="st1" d="M161.9,95.2c0,0,24.9-26.8,25.7,23.4s9.4,96-38.7,95.9c0,0-26.2-12.1-0.1-25.1
				c12.8-6.4,15.2-19.5,14.9-35.9"/>
			<line id="XMLID_109_" class="st2" x1="146.6" y1="208" x2="149.5" y2="209.1"/>
			<path id="XMLID_108_" class="st1" d="M172.4,202.7c0,0,1.1,2.4-0.7,3.5"/>
			<path id="XMLID_107_" class="st1" d="M185.2,177.6c0,0-0.5,2.2-1.1,2.9"/>
			<path id="XMLID_106_" class="st1" d="M182.6,145.5c0,0,0.9-4.1,0-4.1"/>
			<path id="XMLID_105_" class="st1" d="M127.6,156.3c0,0,3.9,0.5,3.5,1.2"/>
			<path id="XMLID_104_" class="st1" d="M174.4,114.7c0,0,4.5-0.6,4.8-1.5"/>
			<path id="XMLID_103_" class="st1" d="M127.7,102.6c0,0-3,1.4-3.8,2.8"/>
			<line id="XMLID_102_" class="st2" x1="160.2" y1="137.2" x2="157.4" y2="138.9"/>
		</g>
		<path id="XMLID_100_" class="st1" d="M218.3,100.6c0,0-6.7-4.7-9.5-1c-2.9,3.7-7.8,9.9-1.9,22c5.9,12.1,27.9,2,30-3.7"/>
		<g>
			<path id="XMLID_99_" class="st1" d="M244.2,110.3L244.2,110.3c-4.2-11.2-13.5-19.9-27.6-21.4c-28.1-2.7-39.6,15.6-44,26.7
				c0,0-1,1.7-1.7,4.9c-0.6,1.9-0.7,3.6-0.6,4.3c-0.4,6.1,0.7,15.1,6.4,27c4.6,9.7,16.5,13.1,24.3,14.3c2.2,0.5,4.6,0.7,7.1,0.7
				c0.1,0,0.2,0,0.2,0l0,0c2.7,0,5.6-0.4,8.7-1.1c12.3-2.9,20.8-10.8,25.5-20.5c-0.8-11.2-10.5-12.6-16.3-13.3
				c-3.1-0.5-6.4,1.4-8.8,3.5c-0.3,0.2-0.5,0.4-0.8,0.6c-8.3,6.1-30.1-5.8-18.7-14.8c0,0,3.9-4.1,8.5-6l0,0c0,0,3.8-1.9,6.9-0.8
				c1.2,0.4,2.3,1.3,3,3c0,0.1,0.1,0.2,0.1,0.3c0.3,0.8,0.8,1.6,1.3,2.5c3.8,6.1,12.3,14.1,20,8.5c9-6.5,8-9,8.2-11.5l0,0
				C246.5,114.4,244.2,110.3,244.2,110.3z"/>
			<line id="XMLID_98_" class="st2" x1="181.4" y1="151.1" x2="183.3" y2="153.7"/>
			<path id="XMLID_97_" class="st1" d="M234.9,148.1c0,0,1.1,2.4-0.7,3.5"/>
			<path id="XMLID_96_" class="st1" d="M243.8,116.9c0,0-0.5,2.2-1.1,2.9"/>
			<path id="XMLID_95_" class="st1" d="M192.7,120.7c0,0,0.9-4.1,0-4.1"/>
			<path id="XMLID_94_" class="st1" d="M213.7,108.4c0,0,3.9,0.5,3.5,1.2"/>
			<path id="XMLID_93_" class="st1" d="M209.7,162.8c0,0,4.5-0.6,4.8-1.5"/>
			<path id="XMLID_92_" class="st1" d="M186.2,102.7c0,0-3,1.4-3.8,2.8"/>
			<line id="XMLID_91_" class="st2" x1="230.9" y1="127.3" x2="234" y2="126.5"/>
		</g>
		<g>
			<path id="XMLID_90_" class="st1" d="M261.1,78.6c0,0-3.9-21.4-21.9-13.8c-18.1,7.6-8.8,89-0.4,95.3
				C247.1,166.4,270.6,205,261.1,78.6z"/>
			<path id="XMLID_89_" class="st1" d="M254,157.9c0,0,1.1,2.4-0.7,3.5"/>
			<path id="XMLID_88_" class="st1" d="M259.6,119.3c0,0,0.3,2.2,0,3.2"/>
			<path id="XMLID_87_" class="st1" d="M236.5,134.6c0,0,0.9-4.1,0-4.1"/>
			<path id="XMLID_86_" class="st1" d="M241.4,69.3c0,0-3,1.4-3.8,2.8"/>
		</g>
		<g id="XMLID_15_">
			<path id="XMLID_85_" class="st1" d="M315.2,177c0.2-3.5-1.1-13.6-1.3-16.9c-0.2-3-0.6-5.6-1.3-7.7c11.5-20-20.7-42.6-32.1-17
				c-3.6,8-3,23.4-3,26c0.1,3.4,0.3,14.9,0.3,17.9c0.2,16.6,24.8,29.7,34.5,8"/>
			<g id="XMLID_16_">
				<g id="XMLID_81_">
					<path id="XMLID_84_" class="st1" d="M256.5,94.5c0,0-18-23.6-18.3-5.1c-0.4,18.5,4.8,38.4,11.4,35.9c6.6-2.5,6.7-8,6.7-8"/>
					<path id="XMLID_83_" class="st1" d="M250.6,95.8c0,0-7-10.8-8.7-5.7"/>
					<path id="XMLID_82_" class="st1" d="M253.4,103.3c0,0-10.3-2.7-8.8,3.3s5.1,9.9,7,3.3"/>
				</g>
				<path id="XMLID_80_" class="st1" d="M309.8,11.1c0,0-6.7,5.9,1.6,8.6C319.8,22.4,317.1,8.1,309.8,11.1z"/>
				<path id="XMLID_79_" class="st1" d="M295.6,25.6c0,0,53.6,3.7,46.4,66.9s-5.2,74.8-35.3,81.4c-30.2,6.5-46.9-15.5-50.2-32.3
					C253.1,124.8,228.6,34.2,295.6,25.6z"/>
				<path id="XMLID_78_" class="st1" d="M338.8,40.5c-0.2-2.1-1.1-4.8-3-8.1v-0.1l0,0c-0.4-0.7-0.8-1.4-1.3-2.2
					c-6-9.4-15.9-14.7-24.8-17.4c-38.5-17.1-42.2,19.4-42.3,33.2c0,1.3,17.3-0.2,33.1-4.2c20,8,39,16.9,39,16.9
					S340.7,46.7,338.8,40.5z"/>
				<path id="XMLID_77_" class="st1" d="M265.3,58.8c0,0,36.5-3.7,23.4,25.8C275.6,114.2,234.8,79.5,265.3,58.8z"/>
				<path id="XMLID_76_" class="st1" d="M262,79.1c0,0,5.5-2.2,4.9,3.4S258.3,84.1,262,79.1z"/>
				<path id="XMLID_75_" class="st1" d="M305.3,98.1c0,0,9.5,7.1,21.9,2.7"/>
				<path id="XMLID_74_" class="st1" d="M302,102.9c0,0-9.8-12-9.4-18.7"/>
				<path id="XMLID_73_" class="st1" d="M281.9,98.6c0,0-15.4,3.4-18.7,2"/>
				<g id="XMLID_70_">
					<path id="XMLID_72_" class="st1" d="M285.2,104.2c0.4,3.2,1.4,5.4,3.4,5.8c1.1,0.2,2.1,0.2,2.9,0c0.7-0.2,1.2-0.4,1.6-0.6"/>
					<path id="XMLID_71_" class="st1" d="M295.4,66c0,0-7.3,19.7-9.3,33.6"/>
				</g>
				<path id="XMLID_69_" class="st1" d="M305.9,62.8c0,0-26.7,23.7,6.7,34.3S335,50.6,305.9,62.8z"/>
				<path id="XMLID_68_" class="st1" d="M324.6,82.2c0,0,5.5-2.2,4.9,3.4C328.9,91.3,320.9,87.1,324.6,82.2z"/>
				<path id="XMLID_67_" class="st1" d="M279.1,168.5c0,0-6.4,5.9,6.8,8.5c13.2,2.5,21.8-1,19.2-5.9"/>
				<path id="XMLID_66_" class="st1" d="M308.1,58c0,0-12.3,1.5-3.5,10.1s25.7,0.2,24.8-2.9C328.5,62.2,326.9,57.1,308.1,58z"/>
				<path id="XMLID_65_" class="st1" d="M257.9,50.9c0,0,20.5-8.4,44.6-3.2s36.6,10.7,36.6,10.7c-7.8-26.5-54.4-26.5-78-24.9
					c-23.5,1.6-17.3,10.6-17.3,10.6S247.4,48.4,257.9,50.9z"/>
				<path id="XMLID_64_" class="st1" d="M257.9,50.9c0,0-40.7-11.1,15.5-13.9S339,58.3,339,58.3S287,36.1,257.9,50.9z"/>
				<g id="XMLID_58_">
					<path id="XMLID_63_" class="st1" d="M281.8,105.9c0,0-7.1,8.3,4.3,10.6"/>
					<path id="XMLID_62_" class="st1" d="M301.4,105.8c0,0,7.6,6.3-3.1,10.6"/>
					<path id="XMLID_61_" class="st1" d="M297.9,112.8c-1.6,0.4-3.2-2.1-2.1-1.8c1.1,0.3,2.7-1.9,3.9,0"/>
					<path id="XMLID_60_" class="st1" d="M286.2,112c0.9,0.5-1.3,1.8-1.3,1.8c-2.2-0.1-2.7-1.8-1.5-2.7"/>
					<path id="XMLID_59_" class="st1" d="M292.6,101.5c0,0,2.2-0.1,2.8,0.7"/>
				</g>
				<path id="XMLID_57_" class="st1" d="M277.6,111c0,0-6.2,3.1-8,3.8"/>
				<line id="XMLID_56_" class="st2" x1="259.3" y1="113.7" x2="261.8" y2="114.7"/>
				<path id="XMLID_55_" class="st1" d="M305.8,109.2c0,0,7.3,3.5,8,3.4"/>
				<path id="XMLID_54_" class="st1" d="M336.7,78c0,0,1,2.1-0.6,3"/>
				<path id="XMLID_53_" class="st1" d="M331,99.5c0,0-0.5,1.9-1,2.6"/>
				<path id="XMLID_52_" class="st1" d="M331.5,62.2c0,0,0.8-3.6,0-3.6"/>
				<path id="XMLID_51_" class="st1" d="M279.2,50.4c0,0,3.4,0.5,3,1"/>
				<path id="XMLID_50_" class="st1" d="M300,56.6c0,0,3.9-0.6,4.2-1.3"/>
				<path id="XMLID_49_" class="st1" d="M270.8,153c0,0,2.8,0.6,3,1.2"/>
				<path id="XMLID_48_" class="st1" d="M317,154c0,0-2.6,1.2-3.4,2.5"/>
				<path id="XMLID_47_" class="st1" d="M272.2,52.9c0,0-19-1-10.2,9.5s24.4-0.3,25.6-4.9C288.9,53.1,272.2,52.9,272.2,52.9z"/>
				<path id="XMLID_46_" class="st1" d="M263.3,91.2"/>
				<path id="XMLID_45_" class="st1" d="M281.9,93.4"/>
				<line id="XMLID_44_" class="st2" x1="323.8" y1="114.1" x2="326.5" y2="113.3"/>
				<path id="XMLID_43_" class="st1" d="M334.6,100.9c0,0,19.7-22.2,18.7-3.7s-7.6,37.9-14,34.9c-6.4-3.1-6-8.5-6-8.5"/>
				<path id="XMLID_42_" class="st1" d="M340.4,102.6c0,0,7.9-10.2,9.2-5"/>
				<path id="XMLID_41_" class="st1" d="M337.1,109.9c0,0,10.4-1.8,8.5,4s-6,9.4-7.2,2.7"/>
				<g id="XMLID_36_">
					<path id="XMLID_40_" class="st1" d="M263.4,90.2c0,0-5.3,0.7-3,3.2s3.5-0.6,7.4,1.4"/>
					<path id="XMLID_39_" class="st1" d="M328.9,92.3c0,0,5.3,0.7,3,3.2s-3.5-0.6-7.4,1.4"/>
					<path id="XMLID_38_" class="st1" d="M323.1,91.9c0,0-12.3-0.7-19.5,1.2"/>
					<path id="XMLID_37_" class="st1" d="M269.4,89.1c0,0,7.2-1.4,15.2,1"/>
				</g>
				<g id="XMLID_24_">
					<path id="XMLID_35_" class="st1" d="M285,127.4c0,0,36.5-3.7,23.4,25.8S254.4,148.1,285,127.4z"/>
					<path id="XMLID_34_" class="st1" d="M286.4,156.9c-3.6-1.6-7.7,9.5-11.5-0.7c-3.8-10.3,19.4-0.9,19.4-0.9s7.3,2.4,10,3.7"/>
					<path id="XMLID_33_" class="st1" d="M304.8,159.2c1.3-1.6,2.6-3.5,3.6-5.8c13.1-29.5-23.4-25.8-23.4-25.8
						c-11.4,7.6-12.8,17.2-9.6,24.7c3.9-2.9,18.8,3.1,18.8,3.1s7.3,2.4,10,3.7"/>
					<g id="XMLID_26_">
						<path id="XMLID_32_" class="st1" d="M276.5,134.6c0,0,5.5-2.2,4.9,3.4S272.8,139.4,276.5,134.6z"/>
						<path id="XMLID_31_" class="st1" d="M282.4,134.6c0,0,5.5-2.2,4.9,3.4S278.7,139.4,282.4,134.6z"/>
						<path id="XMLID_30_" class="st1" d="M288.4,134.5c0,0,5.5-2.2,4.9,3.4C292.6,143.6,284.6,139.3,288.4,134.5z"/>
						<path id="XMLID_29_" class="st1" d="M294.3,134.5c0,0,5.5-2.2,4.9,3.4C298.6,143.5,290.5,139.3,294.3,134.5z"/>
						<path id="XMLID_28_" class="st1" d="M300.2,134.5c0,0,5.5-2.2,4.9,3.4C304.4,143.6,296.4,139.3,300.2,134.5z"/>
						<path id="XMLID_27_" class="st1" d="M306.1,134.5c0,0,5.5-2.2,4.9,3.4S302.3,139.3,306.1,134.5z"/>
					</g>
					<path id="XMLID_25_" class="st1" d="M282.6,134.8c0,0,5.1-2,4.9,2.9l0,0c-0.1-0.9,0.2-1.8,1-2.9c0,0,5.1-2,4.9,2.9l0,0
						c-0.1-0.9,0.2-1.8,1-2.9c0,0,5.1-2,4.9,2.9l0,0c-0.1-0.9,0.2-1.8,1-2.9c0,0,5.1-2,4.9,2.9l0,0c-0.1-0.9,0.2-1.8,1-2.9
						c0,0,1.3-0.5,2.5-0.4c-6.6-8.3-23.6-6.6-23.6-6.6c-3.2,2.1-5.6,4.4-7.3,6.7c1.5-0.3,3.9-0.2,3.7,3.2l0,0
						C281.5,136.7,281.8,135.8,282.6,134.8z"/>
				</g>
				<g id="XMLID_19_">
					<path id="XMLID_23_" class="st1" d="M279.7,131c0,0-19.6,2.7-8.7,9.7C282,147.8,279.7,131,279.7,131z"/>
					<path id="XMLID_22_" class="st1" d="M276.7,125.2c0,0-16.2-0.8-8.7,7.5c7.5,8.4,20.8-0.3,21.9-3.9
						C290.9,125.3,276.7,125.2,276.7,125.2z"/>
					<path id="XMLID_21_" class="st1" d="M309.1,129.2c0,0-7.9-2.6-6.5,7.4c1.3,10,15,8.2,15.8,5.3
						C319.2,139.1,320.5,134.3,309.1,129.2z"/>
					<path id="XMLID_20_" class="st1" d="M302.3,126.6c0,0-23-2.8-0.3,8.2C324.7,145.8,328.6,130,302.3,126.6z"/>
				</g>
				<path id="XMLID_18_" class="st1" d="M321,17.8c0,0,1.8,1.4,0.8,3"/>
				<line id="XMLID_17_" class="st2" x1="273.1" y1="33" x2="274.1" y2="30.4"/>
			</g>
		</g>
		<path id="XMLID_12_" class="st1" d="M231.8,184.5c-0.9-6.8-2.5-9.4-4.5-10.6c0,0-10.7-4-13.7,6.3c-3,10.2,6.2,12.2,7.4,12.1
			C222.3,192.2,232.7,191.3,231.8,184.5z M224.9,183.9c-0.3,0.6-0.9,1.1-2.7,1.4c-1.8,0.4-2.3-2.4-2.3-2.7s0.3-2.8,3.1-2.2
			C225.7,180.9,224.9,183.9,224.9,183.9z"/>
		<g>
			<g id="XMLID_8_">
				<path id="XMLID_11_" class="st1" d="M245.3,187.6"/>
				<path id="XMLID_10_" class="st1" d="M251.6,187.2c0-2.7-0.2-6.4,0.8-7.2c1.4-1.1,5.8-0.6,5.2,2.2c-0.4,1.6-0.4,3.5-0.4,4.7
					c0,0.9,0,1.6,0,1.9c0,0.7,0.3,2.2,2.8,2.5c3.2,0.4,3.7-0.7,3.7-3s2.5-13.3-6.8-15.2c-6.6-1.4-10,2.4-11.5,5.5"/>
				<path id="XMLID_9_" class="st1" d="M252,179.6"/>
			</g>
			<g id="XMLID_4_">
				<path id="XMLID_7_" class="st1" d="M233.3,187.7c0.4,1.9,6.3,0.5,6.3-0.4c0-2.7-0.2-6.4,0.8-7.2c1.1-0.9,4.3-0.8,5.1,0.8
					c0.2,0.4,0.2,0.8,0.1,1.3c-0.4,1.6-0.4,3.5-0.4,4.7c0,0.9,0,1.6,0,1.9c0,0.7,0.3,2.2,2.8,2.5c3.2,0.4,3.7-0.7,3.7-3
					s2.5-13.3-6.8-15.2c-9.4-1.9-12.4,6.6-12.4,8.6C232.6,182.8,232.9,185.4,233.3,187.7"/>
				<path id="XMLID_6_" class="st1" d="M240,179.6"/>
				<path id="XMLID_5_" class="st1" d="M240,179.6c0.2,3.8,0,8.1-0.5,9.8c0,0-1.8,3.2-4.5,1.7s-3-16.8-1.4-17.5
					c1.7-0.7,5-2.2,5.8,1.3"/>
			</g>
		</g>
		<path id="XMLID_3_" class="st1" d="M209.4,183.8c-0.5,0.2-0.9,0.7-1.3,1.3c-0.1,0.2-0.2,0.3-0.3,0.5c-0.1,0.1-0.4,0.4-0.5,0.5
			c-1.4,0.6-4.1,1.4-5.2-1.4c-0.1-0.2-0.2-1-0.2-1.2c0-0.4,0-0.8,0.1-1.1c0.3-3,1.3-4.3,2.2-4.4c1.1-0.1,3.3,0.6,3.9,2.1
			c0,0,0.6,2.7,2.1,2.3s4.3-1.9,2.1-4.8c-2.2-2.9-4.4-5.9-10.6-3.8c-6.2,2.1-5,10-4.8,10.5s3.5,11.5,11.8,6.5
			C217,185.8,210.3,183.5,209.4,183.8z"/>
		<path id="XMLID_2_" class="st1" d="M225.6,181.5"/>
		<path id="XMLID_1_" class="st1" d="M191.6,190.1c-0.3,0.6-0.9,1.1-2.7,1.4c-1.8,0.3-2.3-2.4-2.3-2.7s0.3-2.8,3.1-2.2
			C192.4,187.2,191.6,190.1,191.6,190.1z"/>
	</g>
</g>
<g>
	<g>
		<g id="XMLID_336_">
			<path id="XMLID_348_" class="st3" d="M218.8,33.3c0,0-1.6-26.7-19.7-18.7s-7.5,83.5,38.3,72.4s27.1-70.4,27.1-70.4
				s-19.2-16.9-22.4,12.5c0,0-0.9,19.7-9.9,21.3C223.2,52,217.9,38.2,218.8,33.3z"/>
			<g id="XMLID_346_">
				<path id="XMLID_347_" class="st3" d="M195.6,49.7c0,0-31.5,31.3-25.3-27c0,0-7.6-18.1-22.2-10.4c-14.7,7.7-16.5,100.2,54.1,73.9
					c0,0,19-7.4,24.1-11.1"/>
			</g>
			<line id="XMLID_345_" class="st2" x1="163.6" y1="83.5" x2="166.6" y2="84.8"/>
			<path id="XMLID_344_" class="st3" d="M232.4,63.5c0,0,1.1,2.4-0.7,3.5"/>
			<path id="XMLID_343_" class="st3" d="M263.8,58.3c0,0-0.5,2.2-1.1,2.9"/>
			<path id="XMLID_342_" class="st3" d="M245.9,27.9c0,0,0.9-4.1,0-4.1"/>
			<path id="XMLID_341_" class="st3" d="M155.5,14.7c0,0,3.9,0.5,3.5,1.2"/>
			<path id="XMLID_340_" class="st3" d="M180.5,63.8c0,0,4.5-0.6,4.8-1.5"/>
			<path id="XMLID_339_" class="st3" d="M203.2,18.3c0,0-3,1.4-3.8,2.8"/>
			<line id="XMLID_338_" class="st2" x1="232.1" y1="52.9" x2="235.2" y2="52.1"/>
			<line id="XMLID_337_" class="st2" x1="239" y1="82.1" x2="242.1" y2="81.3"/>
		</g>
		<g id="XMLID_322_">
			<path id="XMLID_335_" class="st3" d="M118.3,22.8"/>
			<path id="XMLID_332_" class="st3" d="M141.1,17.4c-36.4-26.6-64.7,7.1-64.7,7.1S53.4,78,97.7,91.9
				C142.2,105.8,177.5,43.9,141.1,17.4z M121.4,54.3c-8.3,21.9-34.5-12.3-16-14.9C105.5,39.3,129.8,32.2,121.4,54.3z"/>
			<path id="XMLID_331_" class="st3" d="M126.8,14"/>
			<line id="XMLID_330_" class="st2" x1="85.7" y1="81.1" x2="88.6" y2="82.4"/>
			<path id="XMLID_329_" class="st3" d="M130.3,83.6c0,0-0.5,2.6-2.6,2.4"/>
			<path id="XMLID_328_" class="st3" d="M124.8,54.6c0,0-0.5,2.2-1.1,2.9"/>
			<path id="XMLID_327_" class="st3" d="M151.3,52.8c0,0,0.9-4.1,0-4.1"/>
			<path id="XMLID_326_" class="st3" d="M124.7,13.4c0,0,3.9,0.5,3.5,1.2"/>
			<path id="XMLID_325_" class="st3" d="M100,61.3c0,0,3.8,2.6,4.5,2.1"/>
			<path id="XMLID_324_" class="st3" d="M83,25.2c0,0-3,1.4-3.8,2.8"/>
			<line id="XMLID_323_" class="st2" x1="100.6" y1="36.6" x2="103.7" y2="35.7"/>
		</g>
		<g id="XMLID_311_">
			<path id="XMLID_321_" class="st3" d="M32.8,15.1c0,0-3.9-18.4-21.9-11.8s-8.8,76.3-0.4,81.6C18.9,90.2,42.4,123.3,32.8,15.1z"/>
			<path id="XMLID_320_" class="st3" d="M28.8,48.6c0,0,31.5-31.3,25.3,27c0,0,7.6,18.1,22.2,10.4C91,78.4,92.8-14.1,22.2,12.1"/>
			<line id="XMLID_319_" class="st2" x1="18.9" y1="84.1" x2="21.8" y2="85.4"/>
			<path id="XMLID_318_" class="st3" d="M72.8,76.1c0,0,1.1,2.4-0.7,3.5"/>
			<path id="XMLID_317_" class="st3" d="M79.7,46c0,0-0.5,2.2-1.1,2.9"/>
			<path id="XMLID_316_" class="st3" d="M29.5,64.9c0,0,0.9-4.1,0-4.1"/>
			<path id="XMLID_315_" class="st3" d="M51.7,36.5c0,0,3.9,0.5,3.5,1.2"/>
			<path id="XMLID_314_" class="st3" d="M14.2,56c0,0,4.5-0.6,4.8-1.5"/>
			<path id="XMLID_313_" class="st3" d="M36.8,13c0,0-3,1.4-3.8,2.8"/>
			<line id="XMLID_312_" class="st2" x1="9.8" y1="17.9" x2="12.9" y2="17.1"/>
		</g>
		<g id="XMLID_300_">
			<path id="XMLID_310_" class="st3" d="M52.7,77.5c0,0-3.9-18.4-21.9-11.8c-18.1,6.5-8.9,76.2-0.4,81.6S62.1,185.7,52.7,77.5z"/>
			<path id="XMLID_309_" class="st3" d="M48.7,111c0,0,31.5-31.3,25.3,27c0,0,7.6,18.1,22.2,10.4s16.5-100.2-54.1-73.9"/>
			<line id="XMLID_308_" class="st2" x1="39.8" y1="149" x2="42.8" y2="150.3"/>
			<path id="XMLID_307_" class="st3" d="M93.7,141c0,0,1.1,2.4-0.7,3.5"/>
			<path id="XMLID_306_" class="st3" d="M100.6,111c0,0-0.5,2.2-1.1,2.9"/>
			<path id="XMLID_305_" class="st3" d="M50.4,129.8c0,0,0.9-4.1,0-4.1"/>
			<path id="XMLID_304_" class="st3" d="M72.6,101.3c0,0,3.9,0.5,3.5,1.2"/>
			<path id="XMLID_303_" class="st3" d="M35,120.9c0,0,4.5-0.6,4.8-1.5"/>
			<path id="XMLID_302_" class="st3" d="M57.7,77.8c0,0-3,1.4-3.8,2.8"/>
			<line id="XMLID_301_" class="st2" x1="30.7" y1="82.9" x2="33.8" y2="82"/>
		</g>
		<g>
			<g id="XMLID_298_">
				<path id="XMLID_299_" class="st3" d="M116.9,108.5c0,0,5-26.8-17.6-19.1s-8.7,66.3,3.3,63.8S120,141.2,116.9,108.5z"/>
			</g>
			<line id="XMLID_297_" class="st2" x1="97.9" y1="145.8" x2="101" y2="147"/>
			<path id="XMLID_296_" class="st3" d="M112.8,136.4c0,0,1.1,2.4-0.7,3.5"/>
			<path id="XMLID_295_" class="st3" d="M94.4,101.8c0,0-0.5,2.2-1.1,2.9"/>
			<path id="XMLID_294_" class="st3" d="M113.4,103.2c0,0,0.9-4.1,0-4.1"/>
			<path id="XMLID_293_" class="st3" d="M103,91.4c0,0,3.9,0.5,3.5,1.2"/>
		</g>
		<g>
			<path id="XMLID_292_" class="st3" d="M104.3,52.9c0,0,25.6,14.5,0.5,25.4S87.2,39.6,104.3,52.9z"/>
			<path id="XMLID_291_" class="st3" d="M99.9,76.8c0,0,4.5-0.6,4.8-1.5"/>
			<path id="XMLID_290_" class="st3" d="M97.5,54.7c0,0-3,1.4-3.8,2.8"/>
		</g>
		<g id="XMLID_275_">
			<path id="XMLID_289_" class="st3" d="M146.7,95.2"/>
			<path id="XMLID_286_" class="st3" d="M166.9,90.6c-32.2-23.5-57.2,6.2-57.2,6.2s-20.4,47.2,18.9,59.5
				C167.8,168.7,199.1,113.9,166.9,90.6z M150.4,123.4c-8.1,21.2-33.4-12-15.5-14.4C134.9,109,158.5,102.2,150.4,123.4z"/>
			<path id="XMLID_285_" class="st3" d="M154.3,87.5"/>
			<path id="XMLID_284_" class="st3" d="M154.3,87.5c0,0,24.9-26.8,25.7,23.4s9.4,96-38.7,95.9c0,0-26.2-12.1-0.1-25.1
				c12.8-6.4,15.2-19.5,14.9-35.9"/>
			<line id="XMLID_283_" class="st2" x1="138.9" y1="200.3" x2="141.9" y2="201.6"/>
			<path id="XMLID_282_" class="st3" d="M164.7,195.2c0,0,1.1,2.4-0.7,3.5"/>
			<path id="XMLID_281_" class="st3" d="M177.5,169.9c0,0-0.5,2.2-1.1,2.9"/>
			<path id="XMLID_280_" class="st3" d="M175,137.8c0,0,0.9-4.1,0-4.1"/>
			<path id="XMLID_279_" class="st3" d="M120,148.7c0,0,3.9,0.5,3.5,1.2"/>
			<path id="XMLID_278_" class="st3" d="M166.8,107.2c0,0,4.5-0.6,4.8-1.5"/>
			<path id="XMLID_277_" class="st3" d="M120,95.1c0,0-3,1.4-3.8,2.8"/>
			<line id="XMLID_276_" class="st2" x1="152.6" y1="129.6" x2="149.8" y2="131.3"/>
		</g>
		<path id="XMLID_274_" class="st3" d="M210.6,93.1c0,0-6.7-4.7-9.5-1c-2.9,3.7-7.8,9.9-1.9,22c5.9,12.1,27.9,2,30-3.7"/>
		<g>
			<path id="XMLID_273_" class="st3" d="M236.6,102.8L236.6,102.8c-4.2-11.2-13.5-19.9-27.6-21.4c-28.1-2.7-39.6,15.6-44,26.7
				c0,0-1,1.7-1.7,4.9c-0.6,1.9-0.7,3.6-0.6,4.3c-0.4,6.1,0.7,15.1,6.4,27c4.6,9.7,16.5,13.1,24.3,14.3c2.2,0.5,4.6,0.7,7.1,0.7
				c0.1,0,0.2,0,0.2,0l0,0c2.7,0,5.6-0.4,8.7-1.1c12.3-2.9,20.8-10.8,25.5-20.5c-0.8-11.2-10.5-12.6-16.3-13.3
				c-3.1-0.5-6.4,1.4-8.8,3.5c-0.3,0.2-0.5,0.4-0.8,0.6c-8.3,6.1-30.1-5.8-18.7-14.8c0,0,3.9-4.1,8.5-6l0,0c0,0,3.8-1.9,6.9-0.8
				c1.2,0.4,2.3,1.3,3,3c0,0.1,0.1,0.2,0.1,0.3c0.3,0.8,0.8,1.6,1.3,2.5c3.8,6.1,12.3,14.1,20,8.5c9-6.5,8-9,8.2-11.5l0,0
				C238.9,106.8,236.6,102.8,236.6,102.8z"/>
			<line id="XMLID_272_" class="st2" x1="173.7" y1="143.5" x2="175.7" y2="146.1"/>
			<path id="XMLID_271_" class="st3" d="M227.2,140.4c0,0,1.1,2.4-0.7,3.5"/>
			<path id="XMLID_270_" class="st3" d="M236.2,109.4c0,0-0.5,2.2-1.1,2.9"/>
			<path id="XMLID_269_" class="st3" d="M185.1,113.1c0,0,0.9-4.1,0-4.1"/>
			<path id="XMLID_268_" class="st3" d="M206.1,100.8c0,0,3.9,0.5,3.5,1.2"/>
			<path id="XMLID_267_" class="st3" d="M202.1,155.1c0,0,4.5-0.6,4.8-1.5"/>
			<path id="XMLID_266_" class="st3" d="M178.5,95.1c0,0-3,1.4-3.8,2.8"/>
			<line id="XMLID_265_" class="st2" x1="223.2" y1="119.7" x2="226.3" y2="118.9"/>
		</g>
		<g>
			<path id="XMLID_264_" class="st3" d="M253.4,71.1c0,0-3.9-21.4-21.9-13.8s-8.8,89-0.4,95.3C239.5,158.8,263,197.4,253.4,71.1z"/>
			<path id="XMLID_263_" class="st3" d="M246.4,150.3c0,0,1.1,2.4-0.7,3.5"/>
			<path id="XMLID_262_" class="st3" d="M252,111.7c0,0,0.3,2.2,0,3.2"/>
			<path id="XMLID_261_" class="st3" d="M228.9,127c0,0,0.9-4.1,0-4.1"/>
			<path id="XMLID_260_" class="st3" d="M233.7,61.8c0,0-3,1.4-3.8,2.8"/>
		</g>
		<g id="XMLID_189_">
			<path id="XMLID_259_" class="st3" d="M307.6,169.4c0.2-3.5-1.1-13.6-1.3-16.9c-0.2-3-0.6-5.6-1.3-7.7c11.5-20-20.7-42.6-32.1-17
				c-3.6,8-3,23.4-3,26c0.1,3.4,0.3,14.9,0.3,17.9c0.2,16.6,24.8,29.7,34.5,8"/>
			<g id="XMLID_190_">
				<g id="XMLID_255_">
					<path id="XMLID_258_" class="st3" d="M248.9,86.9c0,0-18-23.6-18.3-5.1c-0.4,18.5,4.8,38.4,11.4,35.9c6.6-2.5,6.7-8,6.7-8"/>
					<path id="XMLID_257_" class="st3" d="M243,88.2c0,0-7-10.8-8.7-5.7"/>
					<path id="XMLID_256_" class="st3" d="M245.7,95.7c0,0-10.3-2.7-8.8,3.3s5.1,9.9,7,3.3"/>
				</g>
				<path id="XMLID_254_" class="st3" d="M302.1,3.6c0,0-6.7,5.9,1.6,8.6C312.2,14.8,309.4,0.5,302.1,3.6z"/>
				<path id="XMLID_253_" class="st3" d="M288,18c0,0,53.6,3.7,46.4,66.9s-5.2,74.8-35.3,81.4c-30.2,6.5-46.9-15.5-50.2-32.3
					S220.8,26.6,288,18z"/>
				<path id="XMLID_252_" class="st3" d="M331.2,32.9c-0.2-2.1-1.1-4.8-3-8.1v-0.1l0,0c-0.4-0.7-0.8-1.4-1.3-2.2
					C320.9,13.1,311,7.8,302,5c-38.5-17.1-42.2,19.4-42.3,33.2c0,1.3,17.3-0.2,33.1-4.2c20,8,39,16.9,39,16.9S333.1,39.1,331.2,32.9
					z"/>
				<path id="XMLID_251_" class="st3" d="M257.6,51.3c0,0,36.5-3.7,23.4,25.8S227,71.9,257.6,51.3z"/>
				<path id="XMLID_250_" class="st3" d="M254.3,71.6c0,0,5.5-2.2,4.9,3.4S250.5,76.4,254.3,71.6z"/>
				<path id="XMLID_249_" class="st3" d="M297.7,90.5c0,0,9.5,7.1,21.9,2.7"/>
				<path id="XMLID_248_" class="st3" d="M294.3,95.2c0,0-9.8-12-9.4-18.7"/>
				<path id="XMLID_247_" class="st3" d="M274.3,90.9c0,0-15.4,3.4-18.7,2"/>
				<g id="XMLID_244_">
					<path id="XMLID_246_" class="st3" d="M277.5,96.6c0.4,3.2,1.4,5.4,3.4,5.8c1.1,0.2,2.1,0.2,2.9,0c0.7-0.2,1.2-0.4,1.6-0.6"/>
					<path id="XMLID_245_" class="st3" d="M287.8,58.4c0,0-7.3,19.7-9.3,33.6"/>
				</g>
				<path id="XMLID_243_" class="st3" d="M298.3,55.2c0,0-26.7,23.7,6.7,34.3S327.4,43.1,298.3,55.2z"/>
				<path id="XMLID_242_" class="st3" d="M316.9,74.6c0,0,5.5-2.2,4.9,3.4C321.3,83.6,313.2,79.4,316.9,74.6z"/>
				<path id="XMLID_241_" class="st3" d="M271.4,160.9c0,0-6.4,5.9,6.8,8.5s21.8-1,19.2-5.9"/>
				<path id="XMLID_240_" class="st3" d="M300.4,50.4c0,0-12.3,1.5-3.5,10.1s25.7,0.2,24.8-2.9C320.9,54.6,319.2,49.4,300.4,50.4z"
					/>
				<path id="XMLID_239_" class="st3" d="M250.3,43.3c0,0,20.5-8.4,44.6-3.2s36.6,10.7,36.6,10.7c-7.8-26.5-54.4-26.5-78-24.9
					c-23.6,1.7-17.2,10.7-17.2,10.7S239.8,40.8,250.3,43.3z"/>
				<path id="XMLID_238_" class="st3" d="M250.3,43.3c0,0-40.7-11.1,15.5-13.9s65.6,21.3,65.6,21.3S279.3,28.6,250.3,43.3z"/>
				<g id="XMLID_232_">
					<path id="XMLID_237_" class="st3" d="M274,98.3c0,0-7.1,8.3,4.3,10.6"/>
					<path id="XMLID_236_" class="st3" d="M293.6,98.2c0,0,7.6,6.3-3.1,10.6"/>
					<path id="XMLID_235_" class="st3" d="M290.3,105.1c-1.6,0.4-3.2-2.1-2.1-1.8c1.1,0.3,2.7-1.9,3.9,0"/>
					<path id="XMLID_234_" class="st3" d="M278.6,104.5c0.9,0.5-1.3,1.8-1.3,1.8c-2.2-0.1-2.7-1.8-1.5-2.7"/>
					<path id="XMLID_233_" class="st3" d="M284.9,93.9c0,0,2.2-0.1,2.8,0.7"/>
				</g>
				<path id="XMLID_231_" class="st3" d="M269.9,103.4c0,0-6.2,3.1-8,3.8"/>
				<line id="XMLID_230_" class="st2" x1="251.6" y1="106.1" x2="254.2" y2="107.2"/>
				<path id="XMLID_229_" class="st3" d="M298.2,101.6c0,0,7.3,3.5,8,3.4"/>
				<path id="XMLID_228_" class="st3" d="M328.9,70.4c0,0,1,2.1-0.6,3"/>
				<path id="XMLID_227_" class="st3" d="M323.4,91.9c0,0-0.5,1.9-1,2.6"/>
				<path id="XMLID_226_" class="st3" d="M323.9,54.6c0,0,0.8-3.6,0-3.6"/>
				<path id="XMLID_225_" class="st3" d="M271.6,42.7c0,0,3.4,0.5,3,1"/>
				<path id="XMLID_224_" class="st3" d="M292.3,49c0,0,3.9-0.6,4.2-1.3"/>
				<path id="XMLID_223_" class="st3" d="M263,145.4c0,0,2.8,0.6,3,1.2"/>
				<path id="XMLID_222_" class="st3" d="M309.3,146.4c0,0-2.6,1.2-3.4,2.5"/>
				<path id="XMLID_221_" class="st3" d="M264.6,45.3c0,0-19-1-10.2,9.5c8.8,10.6,24.4-0.3,25.6-4.9S264.6,45.3,264.6,45.3z"/>
				<path id="XMLID_220_" class="st3" d="M255.6,83.7"/>
				<path id="XMLID_219_" class="st3" d="M274.3,85.8"/>
				<line id="XMLID_218_" class="st2" x1="316.1" y1="106.5" x2="318.9" y2="105.7"/>
				<path id="XMLID_217_" class="st3" d="M326.9,93.3c0,0,19.7-22.2,18.7-3.7s-7.6,37.9-14,34.9c-6.4-3.1-6-8.5-6-8.5"/>
				<path id="XMLID_216_" class="st3" d="M332.6,95c0,0,7.9-10.2,9.2-5"/>
				<path id="XMLID_215_" class="st3" d="M329.4,102.4c0,0,10.4-1.8,8.5,4s-6,9.4-7.2,2.7"/>
				<g id="XMLID_210_">
					<path id="XMLID_214_" class="st3" d="M255.8,82.7c0,0-5.3,0.7-3,3.2s3.5-0.6,7.4,1.4"/>
					<path id="XMLID_213_" class="st3" d="M321.3,84.7c0,0,5.3,0.7,3,3.2s-3.5-0.6-7.4,1.4"/>
					<path id="XMLID_212_" class="st3" d="M315.5,84.3c0,0-12.3-0.7-19.5,1.2"/>
					<path id="XMLID_211_" class="st3" d="M261.8,81.5c0,0,7.2-1.4,15.2,1"/>
				</g>
				<g id="XMLID_198_">
					<path id="XMLID_209_" class="st3" d="M277.3,119.9c0,0,36.5-3.7,23.4,25.8C287.7,175.1,246.7,140.5,277.3,119.9z"/>
					<path id="XMLID_208_" class="st3" d="M278.8,149.4c-3.6-1.6-7.7,9.5-11.5-0.7c-3.8-10.3,19.4-0.9,19.4-0.9s7.3,2.4,10,3.7"/>
					<path id="XMLID_207_" class="st3" d="M297.2,151.5c1.3-1.6,2.6-3.5,3.6-5.8c13.1-29.5-23.4-25.8-23.4-25.8
						c-11.4,7.6-12.8,17.2-9.6,24.7c3.9-2.9,18.8,3.1,18.8,3.1s7.3,2.4,10,3.7"/>
					<g id="XMLID_200_">
						<path id="XMLID_206_" class="st3" d="M268.9,127c0,0,5.5-2.2,4.9,3.4C273.1,136.1,265.1,131.8,268.9,127z"/>
						<path id="XMLID_205_" class="st3" d="M274.8,127c0,0,5.5-2.2,4.9,3.4S271.1,131.8,274.8,127z"/>
						<path id="XMLID_204_" class="st3" d="M280.7,127c0,0,5.5-2.2,4.9,3.4C285,135.9,277,131.8,280.7,127z"/>
						<path id="XMLID_203_" class="st3" d="M286.6,126.9c0,0,5.5-2.2,4.9,3.4C290.9,136,282.9,131.8,286.6,126.9z"/>
						<path id="XMLID_202_" class="st3" d="M292.6,126.9c0,0,5.5-2.2,4.9,3.4C296.9,135.9,288.8,131.7,292.6,126.9z"/>
						<path id="XMLID_201_" class="st3" d="M298.5,126.9c0,0,5.5-2.2,4.9,3.4C302.7,136,294.7,131.7,298.5,126.9z"/>
					</g>
					<path id="XMLID_199_" class="st3" d="M274.9,127.1c0,0,5.1-2,4.9,2.9l0,0c-0.1-0.9,0.2-1.8,1-2.9c0,0,5.1-2,4.9,2.9l0,0
						c-0.1-0.9,0.2-1.8,1-2.9c0,0,5.1-2,4.9,2.9l0,0c-0.1-0.9,0.2-1.8,1-2.9c0,0,5.1-2,4.9,2.9l0,0c-0.1-0.9,0.2-1.8,1-2.9
						c0,0,1.3-0.5,2.5-0.4c-6.6-8.3-23.6-6.6-23.6-6.6c-3.2,2.1-5.6,4.4-7.3,6.7c1.5-0.3,3.9-0.2,3.7,3.2l0,0
						C273.9,129.1,274.2,128.1,274.9,127.1z"/>
				</g>
				<g id="XMLID_193_">
					<path id="XMLID_197_" class="st3" d="M272,123.4c0,0-19.6,2.7-8.7,9.7C274.3,140.1,272,123.4,272,123.4z"/>
					<path id="XMLID_196_" class="st3" d="M269,117.6c0,0-16.2-0.8-8.7,7.5c7.5,8.4,20.8-0.3,21.9-3.9
						C283.2,117.8,269,117.6,269,117.6z"/>
					<path id="XMLID_195_" class="st3" d="M301.3,121.7c0,0-7.9-2.6-6.5,7.4s15,8.2,15.8,5.3C311.6,131.4,312.9,126.7,301.3,121.7z"
						/>
					<path id="XMLID_194_" class="st3" d="M294.6,119c0,0-23-2.8-0.3,8.2S320.8,122.3,294.6,119z"/>
				</g>
				<path id="XMLID_192_" class="st3" d="M313.3,10.2c0,0,1.8,1.4,0.8,3"/>
				<line id="XMLID_191_" class="st2" x1="265.4" y1="25.3" x2="266.5" y2="22.7"/>
			</g>
		</g>
		<path id="XMLID_186_" class="st3" d="M228,180.7c-0.9-6.8-2.5-9.4-4.5-10.6c0,0-10.7-4-13.7,6.3c-3,10.2,6.2,12.2,7.4,12.1
			C218.3,188.3,228.9,187.5,228,180.7z M221.1,180.1c-0.3,0.6-0.9,1.1-2.7,1.4c-1.8,0.4-2.3-2.4-2.3-2.7s0.3-2.8,3.1-2.2
			C221.9,177.1,221.1,180.1,221.1,180.1z"/>
		<g>
			<g id="XMLID_182_">
				<path id="XMLID_185_" class="st3" d="M241.5,183.8"/>
				<path id="XMLID_184_" class="st3" d="M247.8,183.4c0-2.7-0.2-6.4,0.8-7.2c1.4-1.1,5.8-0.6,5.2,2.2c-0.4,1.6-0.4,3.5-0.4,4.7
					c0,0.9,0,1.6,0,1.9c0,0.7,0.3,2.2,2.8,2.5c3.2,0.4,3.7-0.7,3.7-3s2.5-13.3-6.8-15.2c-6.6-1.4-10,2.4-11.5,5.5"/>
				<path id="XMLID_183_" class="st3" d="M248.1,175.8"/>
			</g>
			<g id="XMLID_178_">
				<path id="XMLID_181_" class="st3" d="M229.5,183.9c0.4,1.9,6.3,0.5,6.3-0.4c0-2.7-0.2-6.4,0.8-7.2c1.1-0.9,4.3-0.8,5.1,0.8
					c0.2,0.4,0.2,0.8,0.1,1.3c-0.4,1.6-0.4,3.5-0.4,4.7c0,0.9,0,1.6,0,1.9c0,0.7,0.3,2.2,2.8,2.5c3.2,0.4,3.7-0.7,3.7-3
					s2.5-13.3-6.8-15.2c-9.4-1.9-12.4,6.6-12.4,8.6C228.8,178.9,229.1,181.6,229.5,183.9"/>
				<path id="XMLID_180_" class="st3" d="M236.2,175.9"/>
				<path id="XMLID_179_" class="st3" d="M236.2,175.9c0.2,3.8,0,8.1-0.5,9.8c0,0-1.8,3.2-4.5,1.7s-3-16.8-1.4-17.5
					c1.7-0.7,5-2.2,5.8,1.3"/>
			</g>
		</g>
		<path id="XMLID_177_" class="st3" d="M205.6,180c-0.5,0.2-0.9,0.7-1.3,1.3c-0.1,0.2-0.2,0.3-0.3,0.5c-0.1,0.1-0.4,0.4-0.5,0.5
			c-1.4,0.6-4.1,1.4-5.2-1.4c-0.1-0.2-0.2-1-0.2-1.2c0-0.4,0-0.8,0.1-1.1c0.3-3,1.3-4.3,2.2-4.4c1.1-0.1,3.3,0.6,3.9,2.1
			c0,0,0.6,2.7,2.1,2.3s4.3-1.9,2.1-4.8c-2.2-2.9-4.4-5.9-10.6-3.8c-6.2,2.1-5,10-4.8,10.5s3.5,11.5,11.8,6.5
			C213.2,182.1,206.5,179.7,205.6,180z"/>
		<path id="XMLID_176_" class="st3" d="M221.8,177.6"/>
		<path id="XMLID_175_" class="st3" d="M187.8,186.3c-0.3,0.6-0.9,1.1-2.7,1.4c-1.8,0.3-2.3-2.4-2.3-2.7s0.3-2.8,3.1-2.2
			C188.6,183.4,187.8,186.3,187.8,186.3z"/>
	</g>
</g>
</svg>
