<?xml version="1.0" encoding="utf-8"?>
<!-- Generator: Adobe Illustrator 22.1.0, SVG Export Plug-In . SVG Version: 6.00 Build 0)  -->
<svg version="1.1" xmlns="http://www.w3.org/2000/svg" xmlns:xlink="http://www.w3.org/1999/xlink" x="0px" y="0px"
	 viewBox="0 0 361 221.8" style="enable-background:new 0 0 361 221.8;" xml:space="preserve">
<style type="text/css">
	.st0{opacity:0.1;}
	.st1{fill:#5B5B4B;stroke:#5B5B4B;stroke-linecap:round;stroke-miterlimit:10;}
	.st2{fill:none;stroke:#5B5B4B;stroke-linecap:round;stroke-miterlimit:10;}
	.st3{opacity:0.1;fill:#5B5B4B;stroke:#5B5B4B;stroke-linecap:round;stroke-miterlimit:10;}
	.st4{fill:#FDF5EA;stroke:#5B5B4B;stroke-linecap:round;stroke-miterlimit:10;}
</style>
<g id="Layer_48">
	<g id="XMLID_24873_" class="st0">
		<path id="XMLID_24885_" class="st1" d="M233.8,48.1c0,0-1.5-26.7-19.6-18.8s-7.9,83.5,38,72.6s27.4-70.3,27.4-70.3
			s-19.1-17-22.5,12.4c0,0-1,19.7-10,21.3C238.2,66.8,232.9,53,233.8,48.1z"/>
		<g id="XMLID_24883_">
			<path id="XMLID_24884_" class="st1" d="M210.7,64.5c0,0-31.6,31.2-25.2-27.1c0,0-7.5-18.1-22.2-10.5s-17,100,53.7,74.1
				c0,0,19-7.3,24.1-11"/>
		</g>
		<line id="XMLID_24882_" class="st2" x1="178.4" y1="98.1" x2="181.4" y2="99.4"/>
		<path id="XMLID_24881_" class="st1" d="M247.3,78.3c0,0,1.1,2.4-0.7,3.5"/>
		<path id="XMLID_24880_" class="st1" d="M278.7,73.3c0,0-0.5,2.2-1.1,2.9"/>
		<path id="XMLID_24879_" class="st1" d="M261,42.9c0,0,0.9-4.1,0-4.1"/>
		<path id="XMLID_24878_" class="st1" d="M170.6,29.2c0,0,3.9,0.5,3.5,1.2"/>
		<path id="XMLID_24877_" class="st1" d="M195.5,78.5c0,0,4.5-0.6,4.8-1.5"/>
		<path id="XMLID_24876_" class="st1" d="M218.3,33c0,0-3,1.4-3.8,2.8"/>
		<line id="XMLID_24875_" class="st2" x1="247.1" y1="67.8" x2="250.2" y2="66.9"/>
		<line id="XMLID_24874_" class="st2" x1="253.8" y1="97.1" x2="256.9" y2="96.2"/>
	</g>
</g>
<g id="Layer_47">
	<g id="XMLID_24859_" class="st0">
		<path id="XMLID_24872_" class="st1" d="M133.4,37.1"/>
		<path id="XMLID_24869_" class="st1" d="M156.2,31.8c-36.3-26.7-64.7,6.8-64.7,6.8S68.2,92,112.6,106.1
			C156.9,120.3,192.6,58.5,156.2,31.8z M136.4,68.6c-8.4,21.9-34.4-12.5-15.9-15C120.5,53.6,144.8,46.7,136.4,68.6z"/>
		<path id="XMLID_24868_" class="st1" d="M142,28.4"/>
		<line id="XMLID_24867_" class="st2" x1="100.5" y1="95.4" x2="103.4" y2="96.7"/>
		<path id="XMLID_24866_" class="st1" d="M145.1,98.1c0,0-0.5,2.6-2.6,2.4"/>
		<path id="XMLID_24865_" class="st1" d="M139.7,69.1c0,0-0.5,2.2-1.1,2.9"/>
		<path id="XMLID_24864_" class="st1" d="M166.3,67.3c0,0,0.9-4.1,0-4.1"/>
		<path id="XMLID_24863_" class="st1" d="M139.8,27.8c0,0,3.9,0.5,3.5,1.2"/>
		<path id="XMLID_24862_" class="st1" d="M114.9,75.6c0,0,3.8,2.6,4.5,2.1"/>
		<path id="XMLID_24861_" class="st1" d="M98.1,39.4c0,0-3,1.4-3.8,2.8"/>
		<line id="XMLID_24860_" class="st2" x1="115.6" y1="50.9" x2="118.8" y2="50.1"/>
	</g>
</g>
<g id="Layer_46">
	<g id="XMLID_24848_" class="st0">
		<path id="XMLID_24858_" class="st1" d="M48,29.1c0,0-3.8-18.4-21.8-11.9S17,93.4,25.3,98.8C33.7,104.2,57,137.4,48,29.1z"/>
		<path id="XMLID_24857_" class="st1" d="M43.8,62.6c0,0,31.6-31.2,25.2,27.1c0,0,7.5,18.1,22.2,10.5c14.7-7.5,16.9-100.1-53.8-74.1
			"/>
		<line id="XMLID_24856_" class="st2" x1="33.7" y1="98.1" x2="36.7" y2="99.4"/>
		<path id="XMLID_24855_" class="st1" d="M87.7,90.2c0,0,1.1,2.4-0.7,3.5"/>
		<path id="XMLID_24854_" class="st1" d="M94.7,60.3c0,0-0.5,2.2-1.1,2.9"/>
		<path id="XMLID_24853_" class="st1" d="M44.5,78.9c0,0,0.9-4.1,0-4.1"/>
		<path id="XMLID_24852_" class="st1" d="M66.7,50.5c0,0,3.9,0.5,3.5,1.2"/>
		<path id="XMLID_24851_" class="st1" d="M29.1,70c0,0,4.5-0.6,4.8-1.5"/>
		<path id="XMLID_24850_" class="st1" d="M51.9,27c0,0-3,1.4-3.8,2.8"/>
		<line id="XMLID_24849_" class="st2" x1="24.9" y1="31.9" x2="28" y2="31"/>
	</g>
</g>
<g id="Layer_45">
	<g id="XMLID_24837_" class="st0">
		<path id="XMLID_24847_" class="st1" d="M67.5,91.6c0,0-3.8-18.4-21.8-11.9c-18.1,6.4-9.2,76.2-0.8,81.6
			C53.2,166.6,76.6,199.8,67.5,91.6z"/>
		<path id="XMLID_24846_" class="st1" d="M63.4,125c0,0,31.6-31.2,25.2,27.1c0,0,7.5,18.1,22.2,10.5c14.7-7.5,16.9-100.1-53.8-74.1"
			/>
		<line id="XMLID_24845_" class="st2" x1="54.3" y1="163" x2="57.3" y2="164.3"/>
		<path id="XMLID_24844_" class="st1" d="M108.3,155.2c0,0,1.1,2.4-0.7,3.5"/>
		<path id="XMLID_24843_" class="st1" d="M115.3,125.3c0,0-0.5,2.2-1.1,2.9"/>
		<path id="XMLID_24842_" class="st1" d="M65.1,143.9c0,0,0.9-4.1,0-4.1"/>
		<path id="XMLID_24841_" class="st1" d="M87.3,115.5c0,0,3.9,0.5,3.5,1.2"/>
		<path id="XMLID_24840_" class="st1" d="M49.7,134.9c0,0,4.5-0.6,4.8-1.5"/>
		<path id="XMLID_24839_" class="st1" d="M72.5,92c0,0-3,1.4-3.8,2.8"/>
		<line id="XMLID_24838_" class="st2" x1="45.5" y1="96.8" x2="48.6" y2="96"/>
	</g>
</g>
<g id="Layer_44">
	<g class="st0">
		<g id="XMLID_24835_">
			<path id="XMLID_24836_" class="st1" d="M131.6,122.9c0,0,5.1-26.8-17.5-19.2c-22.6,7.6-9,66.3,3,63.8
				C129.1,164.9,134.6,155.5,131.6,122.9z"/>
		</g>
		<line id="XMLID_24834_" class="st2" x1="112.5" y1="160.1" x2="115.5" y2="161.4"/>
		<path id="XMLID_24833_" class="st1" d="M127.4,150.7c0,0,1.1,2.4-0.7,3.5"/>
		<path id="XMLID_24832_" class="st1" d="M109.2,116.1c0,0-0.5,2.2-1.1,2.9"/>
		<path id="XMLID_24831_" class="st1" d="M128.1,117.5c0,0,0.9-4.1,0-4.1"/>
		<path id="XMLID_24830_" class="st1" d="M117.8,105.7c0,0,3.9,0.5,3.5,1.2"/>
	</g>
</g>
<g id="Layer_43">
	<g class="st0">
		<path id="XMLID_24829_" class="st1" d="M119.3,67.2c0,0,25.5,14.6,0.4,25.4S102.3,53.9,119.3,67.2z"/>
		<path id="XMLID_24828_" class="st1" d="M114.8,91c0,0,4.5-0.6,4.8-1.5"/>
		<path id="XMLID_24827_" class="st1" d="M112.4,69c0,0-3,1.4-3.8,2.8"/>
	</g>
</g>
<g id="Layer_42">
	<g id="XMLID_24812_" class="st0">
		<path id="XMLID_24826_" class="st1" d="M161.5,109.7"/>
		<path id="XMLID_24823_" class="st1" d="M181.7,105.1c-32.1-23.6-57.2,6-57.2,6s-20.6,47.1,18.6,59.6S213.8,128.7,181.7,105.1z
			 M165,137.9c-8.2,21.2-33.3-12.1-15.4-14.5C149.7,123.4,173.2,116.7,165,137.9z"/>
		<path id="XMLID_24822_" class="st1" d="M169.1,102.1"/>
		<path id="XMLID_24821_" class="st1" d="M169.1,102.1c0,0,25-26.7,25.6,23.5s9,96-39.1,95.7c0,0-26.1-12.2,0-25.1
			c12.8-6.3,15.3-19.4,15.1-35.8"/>
		<line id="XMLID_24820_" class="st2" x1="153.2" y1="214.8" x2="156.2" y2="216.1"/>
		<path id="XMLID_24819_" class="st1" d="M179.1,209.8c0,0,1.1,2.4-0.7,3.5"/>
		<path id="XMLID_24818_" class="st1" d="M192,184.6c0,0-0.5,2.2-1.1,2.9"/>
		<path id="XMLID_24817_" class="st1" d="M189.6,152.5c0,0,0.9-4.1,0-4.1"/>
		<path id="XMLID_24816_" class="st1" d="M134.5,163.1c0,0,3.9,0.5,3.5,1.2"/>
		<path id="XMLID_24815_" class="st1" d="M181.5,121.7c0,0,4.5-0.6,4.8-1.5"/>
		<path id="XMLID_24814_" class="st1" d="M134.8,109.4c0,0-3,1.4-3.8,2.8"/>
		<line id="XMLID_24813_" class="st2" x1="167.2" y1="144.2" x2="164.4" y2="145.8"/>
	</g>
</g>
<g id="Layer_41">
	<path id="XMLID_24811_" class="st3" d="M225.4,107.9c0,0-6.7-4.7-9.5-1c-2.9,3.7-7.8,9.9-2,22s27.9,2.1,30-3.6"/>
</g>
<g id="Layer_40">
	<g class="st0">
		<path id="XMLID_24810_" class="st1" d="M251.3,117.6L251.3,117.6c-4.2-11.2-13.4-20-27.5-21.5c-28.1-2.8-39.7,15.4-44.1,26.5
			c0,0-1,1.7-1.7,4.9c-0.6,1.9-0.7,3.6-0.6,4.3c-0.4,6.1,0.6,15.1,6.3,27c4.6,9.7,16.4,13.2,24.2,14.4c2.2,0.5,4.6,0.7,7.1,0.7
			c0.1,0,0.2,0,0.2,0l0,0c2.7,0,5.6-0.4,8.7-1.1c12.3-2.8,20.8-10.7,25.6-20.4c-0.8-11.2-10.4-12.6-16.2-13.4
			c-3.1-0.5-6.4,1.4-8.8,3.5c-0.3,0.2-0.5,0.4-0.8,0.6c-8.3,6.1-30.1-5.9-18.6-14.9c0,0,3.9-4.1,8.5-6l0,0c0,0,3.8-1.9,6.9-0.8
			c1.2,0.4,2.3,1.3,3,3c0,0.1,0.1,0.2,0.1,0.3c0.3,0.8,0.8,1.6,1.3,2.5c3.8,6.1,12.2,14.2,20,8.6c9-6.5,8-9,8.3-11.5l0,0
			C253.6,121.8,251.3,117.6,251.3,117.6z"/>
		<line id="XMLID_24809_" class="st2" x1="188.3" y1="158.1" x2="190.2" y2="160.7"/>
		<path id="XMLID_24808_" class="st1" d="M241.8,155.3c0,0,1.1,2.4-0.7,3.5"/>
		<path id="XMLID_24807_" class="st1" d="M250.9,124.2c0,0-0.5,2.2-1.1,2.9"/>
		<path id="XMLID_24806_" class="st1" d="M199.8,127.8c0,0,0.9-4.1,0-4.1"/>
		<path id="XMLID_24805_" class="st1" d="M220.8,115.5c0,0,3.9,0.5,3.5,1.2"/>
		<path id="XMLID_24804_" class="st1" d="M216.6,169.9c0,0,4.5-0.6,4.8-1.5"/>
		<path id="XMLID_24803_" class="st1" d="M193.3,109.7c0,0-3,1.4-3.8,2.8"/>
		<line id="XMLID_24802_" class="st2" x1="237.9" y1="134.5" x2="241" y2="133.7"/>
	</g>
</g>
<g id="Layer_39">
	<g class="st0">
		<path id="XMLID_24801_" class="st1" d="M268.3,86c0,0-3.8-21.4-21.8-13.9s-9.2,89-0.8,95.3C254,173.7,277.3,212.4,268.3,86z"/>
		<path id="XMLID_24800_" class="st1" d="M260.9,165.3c0,0,1.1,2.4-0.7,3.5"/>
		<path id="XMLID_24799_" class="st1" d="M266.7,126.6c0,0,0.3,2.2,0,3.2"/>
		<path id="XMLID_24798_" class="st1" d="M243.5,141.8c0,0,0.9-4.1,0-4.1"/>
		<path id="XMLID_24797_" class="st1" d="M248.7,76.6c0,0-3,1.4-3.8,2.8"/>
	</g>
</g>
<g id="Layer_38">
	<g id="XMLID_24726_" class="st0">
		<path id="XMLID_24796_" class="st1" d="M322,184.6c0.2-3.5-1-13.6-1.2-16.9c-0.2-3-0.6-5.6-1.3-7.7c11.6-19.9-20.5-42.7-32-17.1
			c-3.6,8-3.1,23.4-3.1,26c0.1,3.4,0.2,14.9,0.2,17.9c0.1,16.6,24.7,29.8,34.5,8.2"/>
		<g id="XMLID_24727_">
			<g id="XMLID_24792_">
				<path id="XMLID_24795_" class="st1" d="M263.7,101.8c0,0-17.9-23.7-18.3-5.2c-0.5,18.5,4.6,38.4,11.2,35.9c6.6-2.5,6.7-8,6.7-8"
					/>
				<path id="XMLID_24794_" class="st1" d="M257.8,103.1c0,0-7-10.8-8.7-5.7"/>
				<path id="XMLID_24793_" class="st1" d="M260.5,110.6c0,0-10.3-2.7-8.8,3.3s5.1,9.9,7,3.3"/>
			</g>
			<path id="XMLID_24791_" class="st1" d="M317.3,18.7c0,0-6.7,5.9,1.6,8.6C327.3,30,324.6,15.7,317.3,18.7z"/>
			<path id="XMLID_24790_" class="st1" d="M303.1,33.1c0,0,53.6,3.9,46.1,67.1s-5.5,74.8-35.7,81.2s-46.8-15.7-50.1-32.5
				C260.2,132.1,236,41.4,303.1,33.1z"/>
			<path id="XMLID_24789_" class="st1" d="M346.2,48.2c-0.2-2.1-1.1-4.8-3-8.1V40l0,0c-0.4-0.7-0.8-1.4-1.3-2.2
				c-6-9.4-15.8-14.8-24.7-17.5c-38.4-17.3-42.3,19.2-42.4,33c0,1.3,17.3-0.1,33.1-4.1c20,8.1,38.9,17.1,38.9,17.1
				S348.1,54.4,346.2,48.2z"/>
			<path id="XMLID_24788_" class="st1" d="M272.6,66.2c0,0,36.5-3.5,23.3,25.9C282.7,121.6,242,86.7,272.6,66.2z"/>
			<path id="XMLID_24787_" class="st1" d="M269.2,86.5c0,0,5.5-2.2,4.9,3.4S265.4,91.4,269.2,86.5z"/>
			<path id="XMLID_24786_" class="st1" d="M312.5,105.6c0,0,9.5,7.1,21.9,2.8"/>
			<path id="XMLID_24785_" class="st1" d="M309.1,110.4c0,0-9.7-12-9.3-18.7"/>
			<path id="XMLID_24784_" class="st1" d="M289.1,106c0,0-15.4,3.3-18.7,1.9"/>
			<g id="XMLID_24781_">
				<path id="XMLID_24783_" class="st1" d="M292.3,111.7c0.4,3.2,1.4,5.4,3.4,5.8c1.1,0.2,2.1,0.2,2.9,0c0.7-0.2,1.2-0.4,1.6-0.6"/>
				<path id="XMLID_24782_" class="st1" d="M302.7,73.5c0,0-7.4,19.7-9.4,33.6"/>
			</g>
			<path id="XMLID_24780_" class="st1" d="M313.2,70.3c0,0-26.8,23.6,6.6,34.3S342.4,58.3,313.2,70.3z"/>
			<path id="XMLID_24779_" class="st1" d="M331.8,89.8c0,0,5.5-2.2,4.9,3.4S328.1,94.7,331.8,89.8z"/>
			<path id="XMLID_24778_" class="st1" d="M286,176c0,0-6.4,5.9,6.8,8.5c13.2,2.6,21.8-0.9,19.2-5.8"/>
			<path id="XMLID_24777_" class="st1" d="M315.4,65.6c0,0-12.3,1.4-3.5,10.1s25.7,0.3,24.8-2.8C335.8,69.8,334.2,64.7,315.4,65.6z"
				/>
			<path id="XMLID_24776_" class="st1" d="M265.3,58.3c0,0,20.5-8.3,44.6-3s36.6,10.9,36.6,10.9c-7.7-26.5-54.3-26.7-77.9-25.2
				c-23.5,1.5-17.3,10.5-17.3,10.5S254.8,55.7,265.3,58.3z"/>
			<path id="XMLID_24775_" class="st1" d="M265.3,58.3c0,0-40.7-11.3,15.6-13.8s65.5,21.6,65.5,21.6S294.4,43.6,265.3,58.3z"/>
			<g id="XMLID_24769_">
				<path id="XMLID_24774_" class="st1" d="M288.8,113.3c0,0-7.1,8.3,4.3,10.6"/>
				<path id="XMLID_24773_" class="st1" d="M308.5,113.3c0,0,7.6,6.3-3.1,10.6"/>
				<path id="XMLID_24772_" class="st1" d="M305,120.3c-1.6,0.4-3.2-2.1-2.1-1.8s2.7-1.9,3.9,0"/>
				<path id="XMLID_24771_" class="st1" d="M293.3,119.5c0.9,0.5-1.3,1.8-1.3,1.8c-2.2-0.1-2.7-1.8-1.5-2.7"/>
				<path id="XMLID_24770_" class="st1" d="M299.7,109c0,0,2.2-0.1,2.8,0.7"/>
			</g>
			<path id="XMLID_24768_" class="st1" d="M284.6,118.4c0,0-6.2,3.1-8,3.8"/>
			<line id="XMLID_24767_" class="st2" x1="266.3" y1="121" x2="268.9" y2="122.2"/>
			<path id="XMLID_24766_" class="st1" d="M312.9,116.7c0,0,7.3,3.5,8,3.4"/>
			<path id="XMLID_24765_" class="st1" d="M343.8,85.7c0,0,1,2.1-0.6,3"/>
			<path id="XMLID_24764_" class="st1" d="M338.2,107.2c0,0-0.5,1.9-1,2.6"/>
			<path id="XMLID_24763_" class="st1" d="M338.8,69.9c0,0,0.8-3.6,0-3.6"/>
			<path id="XMLID_24762_" class="st1" d="M286.6,57.8c0,0,3.4,0.5,3,1"/>
			<path id="XMLID_24761_" class="st1" d="M307.3,64.1c0,0,3.9-0.6,4.2-1.3"/>
			<path id="XMLID_24760_" class="st1" d="M277.7,160.4c0,0,2.8,0.6,3,1.2"/>
			<path id="XMLID_24759_" class="st1" d="M323.9,161.6c0,0-2.6,1.2-3.4,2.5"/>
			<path id="XMLID_24758_" class="st1" d="M279.6,60.4c0,0-19-1.1-10.2,9.5s24.4-0.2,25.6-4.8S279.6,60.4,279.6,60.4z"/>
			<path id="XMLID_24757_" class="st1" d="M270.5,98.6"/>
			<path id="XMLID_24756_" class="st1" d="M289.1,100.9"/>
			<line id="XMLID_24755_" class="st2" x1="330.9" y1="121.7" x2="333.6" y2="121"/>
			<path id="XMLID_24754_" class="st1" d="M341.7,108.6c0,0,19.8-22.1,18.7-3.6s-7.8,37.9-14.2,34.8c-6.4-3.1-6-8.5-6-8.5"/>
			<path id="XMLID_24753_" class="st1" d="M347.5,110.3c0,0,7.9-10.2,9.2-5"/>
			<path id="XMLID_24752_" class="st1" d="M344.2,117.6c0,0,10.4-1.8,8.5,4s-6,9.4-7.2,2.7"/>
			<g id="XMLID_24747_">
				<path id="XMLID_24751_" class="st1" d="M270.6,97.6c0,0-5.3,0.7-3,3.2s3.5-0.6,7.4,1.4"/>
				<path id="XMLID_24750_" class="st1" d="M336.1,100c0,0,5.3,0.7,3,3.2s-3.5-0.6-7.4,1.4"/>
				<path id="XMLID_24749_" class="st1" d="M330.3,99.5c0,0-12.3-0.8-19.5,1.1"/>
				<path id="XMLID_24748_" class="st1" d="M276.6,96.5c0,0,7.2-1.4,15.2,1.1"/>
			</g>
			<g id="XMLID_24735_">
				<path id="XMLID_24746_" class="st1" d="M292,134.9c0,0,36.5-3.5,23.3,25.9C302.1,190.3,261.3,155.4,292,134.9z"/>
				<path id="XMLID_24745_" class="st1" d="M293.3,164.4c-3.6-1.6-7.7,9.5-11.5-0.8s19.4-0.8,19.4-0.8s7.3,2.4,10,3.7"/>
				<path id="XMLID_24744_" class="st1" d="M311.7,166.7c1.3-1.6,2.6-3.5,3.6-5.8C328.5,131.5,292,135,292,135
					c-11.4,7.6-12.9,17.1-9.7,24.7c3.9-2.9,18.8,3.2,18.8,3.2s7.3,2.4,10,3.7"/>
				<g id="XMLID_24737_">
					<path id="XMLID_24743_" class="st1" d="M283.5,142c0,0,5.5-2.2,4.9,3.4C287.8,151.1,279.8,146.9,283.5,142z"/>
					<path id="XMLID_24742_" class="st1" d="M289.4,142c0,0,5.5-2.2,4.9,3.4S285.7,146.9,289.4,142z"/>
					<path id="XMLID_24741_" class="st1" d="M295.4,142c0,0,5.5-2.2,4.9,3.4S291.6,146.9,295.4,142z"/>
					<path id="XMLID_24740_" class="st1" d="M301.3,142c0,0,5.5-2.2,4.9,3.4C305.5,151.1,297.5,146.9,301.3,142z"/>
					<path id="XMLID_24739_" class="st1" d="M307.2,142c0,0,5.5-2.2,4.9,3.4S303.4,146.9,307.2,142z"/>
					<path id="XMLID_24738_" class="st1" d="M313.1,142c0,0,5.5-2.2,4.9,3.4C317.3,151.1,309.3,146.9,313.1,142z"/>
				</g>
				<path id="XMLID_24736_" class="st1" d="M289.6,142.2c0,0,5.1-2,4.9,2.9l0,0c-0.1-0.9,0.2-1.8,1-2.9c0,0,5.1-2,4.9,2.9l0,0
					c-0.1-0.9,0.2-1.8,1-2.9c0,0,5.1-2,4.9,2.9l0,0c-0.1-0.9,0.2-1.8,1-2.9c0,0,5.1-2,4.9,2.9l0,0c-0.1-0.9,0.2-1.8,1-2.9
					c0,0,1.3-0.5,2.5-0.4c-6.6-8.3-23.6-6.7-23.6-6.7c-3.2,2.1-5.6,4.4-7.3,6.7c1.5-0.3,3.9-0.2,3.7,3.2l0,0
					C288.5,144.2,288.8,143.2,289.6,142.2z"/>
			</g>
			<g id="XMLID_24730_">
				<path id="XMLID_24734_" class="st1" d="M286.6,138.4c0,0-19.6,2.6-8.7,9.7C288.9,155.2,286.6,138.4,286.6,138.4z"/>
				<path id="XMLID_24733_" class="st1" d="M283.7,132.6c0,0-16.2-0.9-8.7,7.5s20.8-0.2,21.9-3.8
					C297.9,132.8,283.7,132.6,283.7,132.6z"/>
				<path id="XMLID_24732_" class="st1" d="M316.1,136.8c0,0-7.9-2.6-6.5,7.4c1.3,10,15,8.3,15.8,5.4S327.5,141.9,316.1,136.8z"/>
				<path id="XMLID_24731_" class="st1" d="M309.3,134.2c0,0-23-2.9-0.3,8.2C331.6,153.4,335.5,137.6,309.3,134.2z"/>
			</g>
			<path id="XMLID_24729_" class="st1" d="M328.5,25.4c0,0,1.8,1.4,0.8,3"/>
			<line id="XMLID_24728_" class="st2" x1="280.5" y1="40.4" x2="281.6" y2="37.8"/>
		</g>
	</g>
</g>
<g id="Layer_37">
	<path id="XMLID_24723_" class="st3" d="M234.8,187.9c-0.9-6.8-2.5-9.4-4.5-10.6c0,0-10.7-4-13.7,6.2s6.1,12.2,7.3,12.1
		C225.1,195.6,235.7,194.7,234.8,187.9z M227.9,187.3c-0.3,0.6-0.9,1.1-2.7,1.4s-2.3-2.4-2.3-2.7s0.3-2.8,3.1-2.2
		C228.7,184.3,227.9,187.3,227.9,187.3z"/>
</g>
<g id="Layer_36">
	<g class="st0">
		<g id="XMLID_24719_">
			<path id="XMLID_24722_" class="st1" d="M248.3,191.1"/>
			<path id="XMLID_24721_" class="st1" d="M254.6,190.7c0-2.7-0.2-6.4,0.8-7.2c1.4-1.1,5.8-0.6,5.2,2.2c-0.4,1.6-0.4,3.5-0.4,4.7
				c0,0.9,0,1.6,0,1.9c0,0.7,0.3,2.2,2.8,2.5c3.2,0.4,3.7-0.7,3.7-3s2.6-13.3-6.7-15.2c-6.6-1.4-10,2.4-11.5,5.4"/>
			<path id="XMLID_24720_" class="st1" d="M254.9,183.1"/>
		</g>
		<g id="XMLID_24715_">
			<path id="XMLID_24718_" class="st1" d="M236.3,191.1c0.4,1.9,6.3,0.5,6.3-0.4c0-2.7-0.2-6.4,0.8-7.2c1.1-0.9,4.3-0.8,5.1,0.8
				c0.2,0.4,0.2,0.8,0.1,1.3c-0.4,1.6-0.4,3.5-0.4,4.7c0,0.9,0,1.6,0,1.9c0,0.7,0.3,2.2,2.8,2.5c3.2,0.4,3.7-0.7,3.7-3
				s2.6-13.3-6.7-15.2c-9.4-1.9-12.4,6.5-12.4,8.5C235.6,186.2,235.9,188.8,236.3,191.1"/>
			<path id="XMLID_24717_" class="st1" d="M242.9,183.1"/>
			<path id="XMLID_24716_" class="st1" d="M242.9,183.1c0.2,3.8,0,8.1-0.5,9.8c0,0-1.8,3.2-4.5,1.7s-2.9-16.8-1.3-17.5
				c1.7-0.7,5-2.2,5.8,1.3"/>
		</g>
	</g>
</g>
<g id="Layer_35">
	<path id="XMLID_24714_" class="st3" d="M212.4,187.1c-0.5,0.2-0.9,0.7-1.3,1.3c-0.1,0.2-0.2,0.3-0.3,0.5c-0.1,0.1-0.4,0.4-0.5,0.5
		c-1.4,0.6-4.1,1.4-5.2-1.4c-0.1-0.2-0.2-1-0.2-1.2c0-0.4,0-0.8,0.1-1.1c0.3-3,1.3-4.3,2.2-4.4c1.1-0.1,3.3,0.6,3.9,2.1
		c0,0,0.6,2.7,2.1,2.3s4.3-1.9,2.1-4.8c-2.2-2.9-4.4-5.9-10.6-3.8c-6.2,2.1-5,10-4.8,10.5s3.4,11.5,11.8,6.6
		C220,189.2,213.3,186.8,212.4,187.1z"/>
</g>
<g id="Layer_34">
	<path id="XMLID_24713_" class="st3" d="M228.6,184.9"/>
</g>
<g id="Layer_33">
	<path id="XMLID_24712_" class="st3" d="M194.6,193.3c-0.3,0.6-0.9,1.1-2.7,1.4s-2.3-2.4-2.3-2.7s0.3-2.8,3.1-2.2
		C195.4,190.4,194.6,193.3,194.6,193.3z"/>
</g>
<g id="Layer_32">
	<g id="XMLID_162_">
		<path id="XMLID_174_" class="st1" d="M226.3,40.5c0,0-1.5-26.7-19.6-18.8s-7.9,83.5,38,72.6S272.1,24,272.1,24S253,7,249.6,36.4
			c0,0-1,19.7-10,21.3C230.7,59.2,225.4,45.4,226.3,40.5z"/>
		<g id="XMLID_172_">
			<path id="XMLID_173_" class="st1" d="M203.2,56.9c0,0-31.6,31.2-25.2-27.1c0,0-7.5-18.1-22.2-10.5s-16.9,100.1,53.8,74.1
				c0,0,19-7.3,24.1-11"/>
		</g>
		<line id="XMLID_171_" class="st2" x1="170.9" y1="90.4" x2="173.9" y2="91.7"/>
		<path id="XMLID_170_" class="st1" d="M239.8,70.7c0,0,1.1,2.4-0.7,3.5"/>
		<path id="XMLID_169_" class="st1" d="M271.2,65.7c0,0-0.5,2.2-1.1,2.9"/>
		<path id="XMLID_168_" class="st1" d="M253.5,35.3c0,0,0.9-4.1,0-4.1"/>
		<path id="XMLID_167_" class="st1" d="M163.1,21.6c0,0,3.9,0.5,3.5,1.2"/>
		<path id="XMLID_166_" class="st1" d="M188,70.9c0,0,4.5-0.6,4.8-1.5"/>
		<path id="XMLID_165_" class="st1" d="M210.8,25.4c0,0-3,1.4-3.8,2.8"/>
		<line id="XMLID_164_" class="st2" x1="239.6" y1="60.1" x2="242.7" y2="59.3"/>
		<line id="XMLID_163_" class="st2" x1="246.3" y1="89.5" x2="249.4" y2="88.6"/>
	</g>
</g>
<g id="Layer_31">
	<g id="XMLID_148_">
		<path id="XMLID_161_" class="st1" d="M125.9,29.5"/>
		<path id="XMLID_158_" class="st1" d="M148.7,24.2C112.4-2.5,84,31,84,31s-23.3,53.4,21.1,67.5C149.4,112.7,185.1,50.9,148.7,24.2z
			 M128.9,61c-8.4,21.9-34.4-12.5-15.9-15C113,46,137.3,39,128.9,61z"/>
		<path id="XMLID_157_" class="st1" d="M134.5,20.8"/>
		<line id="XMLID_156_" class="st2" x1="93" y1="87.7" x2="95.9" y2="89"/>
		<path id="XMLID_155_" class="st1" d="M137.6,90.4c0,0-0.5,2.6-2.6,2.4"/>
		<path id="XMLID_154_" class="st1" d="M132.2,61.4c0,0-0.5,2.2-1.1,2.9"/>
		<path id="XMLID_153_" class="st1" d="M158.9,59.7c0,0,0.9-4.1,0-4.1"/>
		<path id="XMLID_152_" class="st1" d="M132.3,20.2c0,0,3.9,0.5,3.5,1.2"/>
		<path id="XMLID_151_" class="st1" d="M107.4,68c0,0,3.8,2.6,4.5,2.1"/>
		<path id="XMLID_150_" class="st1" d="M90.6,31.8c0,0-3,1.4-3.8,2.8"/>
		<line id="XMLID_149_" class="st2" x1="108.1" y1="43.3" x2="111.3" y2="42.5"/>
	</g>
</g>
<g id="Layer_30">
	<g id="XMLID_137_">
		<path id="XMLID_147_" class="st1" d="M40.5,21.5c0,0-3.8-18.4-21.8-11.9s-9.2,76.2-0.8,81.6C26.2,96.6,49.5,129.7,40.5,21.5z"/>
		<path id="XMLID_146_" class="st1" d="M36.3,55c0,0,31.6-31.2,25.2,27.1c0,0,7.5,18.1,22.2,10.5c14.7-7.5,16.9-100.1-53.8-74.1"/>
		<line id="XMLID_145_" class="st2" x1="26.2" y1="90.4" x2="29.2" y2="91.7"/>
		<path id="XMLID_144_" class="st1" d="M80.2,82.6c0,0,1.1,2.4-0.7,3.5"/>
		<path id="XMLID_143_" class="st1" d="M87.2,52.7c0,0-0.5,2.2-1.1,2.9"/>
		<path id="XMLID_142_" class="st1" d="M37,71.3c0,0,0.9-4.1,0-4.1"/>
		<path id="XMLID_141_" class="st1" d="M59.2,42.9c0,0,3.9,0.5,3.5,1.2"/>
		<path id="XMLID_140_" class="st1" d="M21.6,62.4c0,0,4.5-0.6,4.8-1.5"/>
		<path id="XMLID_139_" class="st1" d="M44.4,19.4c0,0-3,1.4-3.8,2.8"/>
		<line id="XMLID_138_" class="st2" x1="17.4" y1="24.3" x2="20.5" y2="23.4"/>
	</g>
</g>
<g id="Layer_29">
	<g id="XMLID_126_">
		<path id="XMLID_136_" class="st1" d="M60,84c0,0-3.8-18.4-21.8-11.9c-18.1,6.4-9.2,76.2-0.8,81.6S69.1,192.2,60,84z"/>
		<path id="XMLID_135_" class="st1" d="M55.9,117.4c0,0,31.6-31.2,25.2,27.1c0,0,7.5,18.1,22.2,10.5s16.9-100-53.8-74.1"/>
		<line id="XMLID_134_" class="st2" x1="46.8" y1="155.4" x2="49.8" y2="156.7"/>
		<path id="XMLID_133_" class="st1" d="M100.8,147.6c0,0,1.1,2.4-0.7,3.5"/>
		<path id="XMLID_132_" class="st1" d="M107.8,117.7c0,0-0.5,2.2-1.1,2.9"/>
		<path id="XMLID_131_" class="st1" d="M57.6,136.2c0,0,0.9-4.1,0-4.1"/>
		<path id="XMLID_130_" class="st1" d="M79.8,107.9c0,0,3.9,0.5,3.5,1.2"/>
		<path id="XMLID_129_" class="st1" d="M42.2,127.3c0,0,4.5-0.6,4.8-1.5"/>
		<path id="XMLID_128_" class="st1" d="M65,84.4c0,0-3,1.4-3.8,2.8"/>
		<line id="XMLID_127_" class="st2" x1="38" y1="89.2" x2="41.1" y2="88.4"/>
	</g>
</g>
<g id="Layer_28">
	<g>
		<g id="XMLID_124_">
			<path id="XMLID_125_" class="st1" d="M124.1,115.2c0,0,5.1-26.8-17.5-19.2c-22.6,7.6-9,66.3,3,63.8S127.1,147.9,124.1,115.2z"/>
		</g>
		<line id="XMLID_123_" class="st2" x1="105" y1="152.5" x2="108" y2="153.8"/>
		<path id="XMLID_122_" class="st1" d="M119.9,143.1c0,0,1.1,2.4-0.7,3.5"/>
		<path id="XMLID_121_" class="st1" d="M101.7,108.4c0,0-0.5,2.2-1.1,2.9"/>
		<path id="XMLID_120_" class="st1" d="M120.6,109.9c0,0,0.9-4.1,0-4.1"/>
		<path id="XMLID_119_" class="st1" d="M110.3,98.1c0,0,3.9,0.5,3.5,1.2"/>
	</g>
</g>
<g id="Layer_27">
	<g>
		<path id="XMLID_118_" class="st1" d="M111.8,59.6c0,0,25.5,14.6,0.4,25.4S94.8,46.3,111.8,59.6z"/>
		<path id="XMLID_117_" class="st1" d="M107.3,83.4c0,0,4.5-0.6,4.8-1.5"/>
		<path id="XMLID_116_" class="st1" d="M104.9,61.4c0,0-3,1.4-3.8,2.8"/>
	</g>
</g>
<g id="Layer_26">
	<g id="XMLID_101_">
		<path id="XMLID_115_" class="st1" d="M154,102.1"/>
		<path id="XMLID_112_" class="st1" d="M174.2,97.5c-32.1-23.6-57.2,6-57.2,6s-20.6,47.1,18.6,59.6S206.3,121.1,174.2,97.5z
			 M157.5,130.3c-8.2,21.2-33.3-12.1-15.4-14.5C142.2,115.8,165.7,109.1,157.5,130.3z"/>
		<path id="XMLID_111_" class="st1" d="M161.6,94.5"/>
		<path id="XMLID_110_" class="st1" d="M161.6,94.5c0,0,25-26.7,25.6,23.5s9,96-39.1,95.7c0,0-26.1-12.2,0-25.1
			c12.8-6.3,15.3-19.4,15.1-35.8"/>
		<line id="XMLID_109_" class="st2" x1="145.8" y1="207.2" x2="148.7" y2="208.4"/>
		<path id="XMLID_108_" class="st1" d="M171.6,202.1c0,0,1.1,2.4-0.7,3.5"/>
		<path id="XMLID_107_" class="st1" d="M184.5,177c0,0-0.5,2.2-1.1,2.9"/>
		<path id="XMLID_106_" class="st1" d="M182.1,144.9c0,0,0.9-4.1,0-4.1"/>
		<path id="XMLID_105_" class="st1" d="M127,155.5c0,0,3.9,0.5,3.5,1.2"/>
		<path id="XMLID_104_" class="st1" d="M174,114.1c0,0,4.5-0.6,4.8-1.5"/>
		<path id="XMLID_103_" class="st1" d="M127.3,101.8c0,0-3,1.4-3.8,2.8"/>
		<line id="XMLID_102_" class="st2" x1="159.7" y1="136.5" x2="156.9" y2="138.2"/>
	</g>
</g>
<g id="Layer_25">
	<g>
		<path id="XMLID_100_" class="st1" d="M217.9,100.2c0,0-6.7-4.7-9.5-1c-2.9,3.7-7.8,9.9-2,22s27.9,2.1,30-3.6"/>
		<g>
			<path id="XMLID_99_" class="st1" d="M243.8,110L243.8,110c-4.2-11.2-13.4-20-27.5-21.5c-28.1-2.8-39.7,15.4-44.1,26.5
				c0,0-1,1.7-1.7,4.9c-0.6,1.9-0.7,3.6-0.6,4.3c-0.4,6.1,0.6,15.1,6.3,27c4.6,9.7,16.4,13.2,24.2,14.4c2.2,0.5,4.6,0.7,7.1,0.7
				c0.1,0,0.2,0,0.2,0l0,0c2.7,0,5.6-0.4,8.7-1.1c12.3-2.8,20.8-10.7,25.6-20.4c-0.8-11.2-10.4-12.6-16.2-13.4
				c-3.1-0.5-6.4,1.4-8.8,3.5c-0.3,0.2-0.5,0.4-0.8,0.6c-8.3,6.1-30.1-5.9-18.6-14.9c0,0,3.9-4.1,8.5-6l0,0c0,0,3.8-1.9,6.9-0.8
				c1.2,0.4,2.3,1.3,3,3c0,0.1,0.1,0.2,0.1,0.3c0.3,0.8,0.8,1.6,1.3,2.5c3.8,6.1,12.2,14.2,20,8.6c9-6.5,8-9,8.3-11.5l0,0
				C246.1,114.1,243.8,110,243.8,110z"/>
			<line id="XMLID_98_" class="st2" x1="180.8" y1="150.5" x2="182.7" y2="153.1"/>
			<path id="XMLID_97_" class="st1" d="M234.3,147.7c0,0,1.1,2.4-0.7,3.5"/>
			<path id="XMLID_96_" class="st1" d="M243.4,116.6c0,0-0.5,2.2-1.1,2.9"/>
			<path id="XMLID_95_" class="st1" d="M192.3,120.2c0,0,0.9-4.1,0-4.1"/>
			<path id="XMLID_94_" class="st1" d="M213.3,107.9c0,0,3.9,0.5,3.5,1.2"/>
			<path id="XMLID_93_" class="st1" d="M209.1,162.3c0,0,4.5-0.6,4.8-1.5"/>
			<path id="XMLID_92_" class="st1" d="M185.8,102.1c0,0-3,1.4-3.8,2.8"/>
			<line id="XMLID_91_" class="st2" x1="230.4" y1="126.9" x2="233.5" y2="126.1"/>
		</g>
	</g>
</g>
<g id="Layer_24">
	<g>
		<path id="XMLID_90_" class="st1" d="M260.8,78.4c0,0-3.8-21.4-21.8-13.9c-18.1,7.5-9.2,89-0.8,95.3
			C246.5,166.1,269.8,204.8,260.8,78.4z"/>
		<path id="XMLID_89_" class="st1" d="M253.4,157.6c0,0,1.1,2.4-0.7,3.5"/>
		<path id="XMLID_88_" class="st1" d="M259.2,119c0,0,0.3,2.2,0,3.2"/>
		<path id="XMLID_87_" class="st1" d="M236,134.2c0,0,0.9-4.1,0-4.1"/>
		<path id="XMLID_86_" class="st1" d="M241.2,69c0,0-3,1.4-3.8,2.8"/>
	</g>
</g>
<g id="Layer_23">
	<g id="XMLID_15_">
		<path id="XMLID_85_" class="st1" d="M314.5,177c0.2-3.5-1-13.6-1.2-16.9c-0.2-3-0.6-5.6-1.3-7.7c11.6-19.9-20.5-42.7-32-17.1
			c-3.6,8-3.1,23.4-3.1,26c0.1,3.4,0.2,14.9,0.2,17.9c0.1,16.6,24.7,29.8,34.5,8.2"/>
		<g id="XMLID_16_">
			<g id="XMLID_81_">
				<path id="XMLID_84_" class="st1" d="M256.2,94.2c0,0-17.9-23.7-18.3-5.2c-0.5,18.5,4.6,38.4,11.2,35.9c6.6-2.5,6.7-8,6.7-8"/>
				<path id="XMLID_83_" class="st1" d="M250.3,95.5c0,0-7-10.8-8.7-5.7"/>
				<path id="XMLID_82_" class="st1" d="M253,103c0,0-10.3-2.7-8.8,3.3s5.1,9.9,7,3.3"/>
			</g>
			<path id="XMLID_80_" class="st1" d="M309.8,11.1c0,0-6.7,5.9,1.6,8.6C319.8,22.4,317.1,8.1,309.8,11.1z"/>
			<path id="XMLID_79_" class="st1" d="M295.6,25.5c0,0,53.6,3.9,46.1,67.1s-5.5,74.8-35.7,81.2s-46.8-15.7-50.1-32.5
				S228.5,33.8,295.6,25.5z"/>
			<path id="XMLID_78_" class="st1" d="M338.7,40.6c-0.2-2.1-1.1-4.8-3-8.1v-0.1l0,0c-0.4-0.7-0.8-1.4-1.3-2.2
				c-6-9.4-15.8-14.8-24.7-17.5c-38.4-17.3-42.3,19.2-42.4,33c0,1.3,17.3-0.1,33.1-4.1c20,8.1,38.9,17.1,38.9,17.1
				S340.6,46.8,338.7,40.6z"/>
			<path id="XMLID_77_" class="st1" d="M265.1,58.6c0,0,36.5-3.5,23.3,25.9C275.2,114,234.5,79.1,265.1,58.6z"/>
			<path id="XMLID_76_" class="st1" d="M261.7,78.9c0,0,5.5-2.2,4.9,3.4S258,83.8,261.7,78.9z"/>
			<path id="XMLID_75_" class="st1" d="M305,98c0,0,9.5,7.1,21.9,2.8"/>
			<path id="XMLID_74_" class="st1" d="M301.6,102.8c0,0-9.7-12-9.3-18.7"/>
			<path id="XMLID_73_" class="st1" d="M281.6,98.4c0,0-15.4,3.3-18.7,1.9"/>
			<g id="XMLID_70_">
				<path id="XMLID_72_" class="st1" d="M284.8,104.1c0.4,3.2,1.4,5.4,3.4,5.8c1.1,0.2,2.1,0.2,2.9,0c0.7-0.2,1.2-0.4,1.6-0.6"/>
				<path id="XMLID_71_" class="st1" d="M295.2,65.9c0,0-7.4,19.7-9.4,33.6"/>
			</g>
			<path id="XMLID_69_" class="st1" d="M305.7,62.7c0,0-26.8,23.6,6.6,34.3S334.9,50.7,305.7,62.7z"/>
			<path id="XMLID_68_" class="st1" d="M324.3,82.2c0,0,5.5-2.2,4.9,3.4C328.6,91.3,320.6,87.1,324.3,82.2z"/>
			<path id="XMLID_67_" class="st1" d="M278.5,168.3c0,0-6.4,5.9,6.8,8.5c13.2,2.6,21.8-0.9,19.2-5.8"/>
			<path id="XMLID_66_" class="st1" d="M307.9,58c0,0-12.3,1.4-3.5,10.1s25.7,0.3,24.8-2.8C328.3,62.2,326.7,57.1,307.9,58z"/>
			<path id="XMLID_65_" class="st1" d="M257.8,50.6c0,0,20.5-8.3,44.6-3S339,58.5,339,58.5c-7.7-26.5-54.3-26.7-77.9-25.2
				c-23.5,1.5-17.3,10.5-17.3,10.5S247.3,48.1,257.8,50.6z"/>
			<path id="XMLID_64_" class="st1" d="M257.8,50.6c0,0-40.7-11.3,15.6-13.8s65.5,21.6,65.5,21.6S286.9,36,257.8,50.6z"/>
			<g id="XMLID_58_">
				<path id="XMLID_63_" class="st1" d="M281.4,105.7c0,0-7.1,8.3,4.3,10.6"/>
				<path id="XMLID_62_" class="st1" d="M301,105.7c0,0,7.6,6.3-3.1,10.6"/>
				<path id="XMLID_61_" class="st1" d="M297.5,112.7c-1.6,0.4-3.2-2.1-2.1-1.8s2.7-1.9,3.9,0"/>
				<path id="XMLID_60_" class="st1" d="M285.8,111.9c0.9,0.5-1.3,1.8-1.3,1.8c-2.2-0.1-2.7-1.8-1.5-2.7"/>
				<path id="XMLID_59_" class="st1" d="M292.2,101.4c0,0,2.2-0.1,2.8,0.7"/>
			</g>
			<path id="XMLID_57_" class="st1" d="M277.2,110.8c0,0-6.2,3.1-8,3.8"/>
			<line id="XMLID_56_" class="st2" x1="258.9" y1="113.4" x2="261.4" y2="114.5"/>
			<path id="XMLID_55_" class="st1" d="M305.4,109.1c0,0,7.3,3.5,8,3.4"/>
			<path id="XMLID_54_" class="st1" d="M336.4,78.1c0,0,1,2.1-0.6,3"/>
			<path id="XMLID_53_" class="st1" d="M330.7,99.6c0,0-0.5,1.9-1,2.6"/>
			<path id="XMLID_52_" class="st1" d="M331.3,62.3c0,0,0.8-3.6,0-3.6"/>
			<path id="XMLID_51_" class="st1" d="M279.1,50.2c0,0,3.4,0.5,3,1"/>
			<path id="XMLID_50_" class="st1" d="M299.8,56.5c0,0,3.9-0.6,4.2-1.3"/>
			<path id="XMLID_49_" class="st1" d="M270.2,152.8c0,0,2.8,0.6,3,1.2"/>
			<path id="XMLID_48_" class="st1" d="M316.4,154c0,0-2.6,1.2-3.4,2.5"/>
			<path id="XMLID_47_" class="st1" d="M272.1,52.7c0,0-19-1.1-10.2,9.5s24.4-0.2,25.6-4.8C288.8,53,272.1,52.7,272.1,52.7z"/>
			<path id="XMLID_46_" class="st1" d="M263,91"/>
			<path id="XMLID_45_" class="st1" d="M281.6,93.2"/>
			<line id="XMLID_44_" class="st2" x1="323.4" y1="114.1" x2="326.1" y2="113.3"/>
			<path id="XMLID_43_" class="st1" d="M334.2,101c0,0,19.8-22.1,18.7-3.6s-7.8,37.9-14.2,34.8c-6.4-3.1-6-8.5-6-8.5"/>
			<path id="XMLID_42_" class="st1" d="M340,102.7c0,0,7.9-10.2,9.2-5"/>
			<path id="XMLID_41_" class="st1" d="M336.7,110c0,0,10.4-1.8,8.5,4s-6,9.4-7.2,2.7"/>
			<g id="XMLID_36_">
				<path id="XMLID_40_" class="st1" d="M263.1,90c0,0-5.3,0.7-3,3.2s3.5-0.6,7.4,1.4"/>
				<path id="XMLID_39_" class="st1" d="M328.6,92.3c0,0,5.3,0.7,3,3.2s-3.5-0.6-7.4,1.4"/>
				<path id="XMLID_38_" class="st1" d="M322.8,91.9c0,0-12.3-0.8-19.5,1.1"/>
				<path id="XMLID_37_" class="st1" d="M269.1,88.9c0,0,7.2-1.4,15.2,1.1"/>
			</g>
			<g id="XMLID_24_">
				<path id="XMLID_35_" class="st1" d="M284.5,127.3c0,0,36.5-3.5,23.3,25.9S253.8,147.8,284.5,127.3z"/>
				<path id="XMLID_34_" class="st1" d="M285.8,156.8c-3.6-1.6-7.7,9.5-11.5-0.8s19.4-0.8,19.4-0.8s7.3,2.4,10,3.7"/>
				<path id="XMLID_33_" class="st1" d="M304.2,159.1c1.3-1.6,2.6-3.5,3.6-5.8c13.2-29.4-23.3-25.9-23.3-25.9
					c-11.4,7.6-12.9,17.1-9.7,24.7c3.9-2.9,18.8,3.2,18.8,3.2s7.3,2.4,10,3.7"/>
				<g id="XMLID_26_">
					<path id="XMLID_32_" class="st1" d="M276,134.4c0,0,5.5-2.2,4.9,3.4S272.3,139.2,276,134.4z"/>
					<path id="XMLID_31_" class="st1" d="M281.9,134.4c0,0,5.5-2.2,4.9,3.4S278.2,139.2,281.9,134.4z"/>
					<path id="XMLID_30_" class="st1" d="M287.9,134.4c0,0,5.5-2.2,4.9,3.4C292.1,143.5,284.1,139.2,287.9,134.4z"/>
					<path id="XMLID_29_" class="st1" d="M293.8,134.4c0,0,5.5-2.2,4.9,3.4S290,139.2,293.8,134.4z"/>
					<path id="XMLID_28_" class="st1" d="M299.7,134.4c0,0,5.5-2.2,4.9,3.4C303.9,143.5,295.9,139.2,299.7,134.4z"/>
					<path id="XMLID_27_" class="st1" d="M305.6,134.4c0,0,5.5-2.2,4.9,3.4S301.8,139.2,305.6,134.4z"/>
				</g>
				<path id="XMLID_25_" class="st1" d="M282.1,134.6c0,0,5.1-2,4.9,2.9l0,0c-0.1-0.9,0.2-1.8,1-2.9c0,0,5.1-2,4.9,2.9l0,0
					c-0.1-0.9,0.2-1.8,1-2.9c0,0,5.1-2,4.9,2.9l0,0c-0.1-0.9,0.2-1.8,1-2.9c0,0,5.1-2,4.9,2.9l0,0c-0.1-0.9,0.2-1.8,1-2.9
					c0,0,1.3-0.5,2.5-0.4c-6.6-8.3-23.6-6.7-23.6-6.7c-3.2,2.1-5.6,4.4-7.3,6.7c1.5-0.3,3.9-0.2,3.7,3.2l0,0
					C281,136.5,281.3,135.6,282.1,134.6z"/>
			</g>
			<g id="XMLID_19_">
				<path id="XMLID_23_" class="st1" d="M279.2,130.8c0,0-19.6,2.6-8.7,9.7C281.4,147.6,279.2,130.8,279.2,130.8z"/>
				<path id="XMLID_22_" class="st1" d="M276.2,125c0,0-16.2-0.9-8.7,7.5s20.8-0.2,21.9-3.8C290.4,125.2,276.2,125,276.2,125z"/>
				<path id="XMLID_21_" class="st1" d="M308.6,129.2c0,0-7.9-2.6-6.5,7.4c1.3,10,15,8.3,15.8,5.4
					C318.7,139.1,320,134.3,308.6,129.2z"/>
				<path id="XMLID_20_" class="st1" d="M301.8,126.5c0,0-23-2.9-0.3,8.2C324.1,145.8,328.1,130,301.8,126.5z"/>
			</g>
			<path id="XMLID_18_" class="st1" d="M321,17.8c0,0,1.8,1.4,0.8,3"/>
			<line id="XMLID_17_" class="st2" x1="273" y1="32.8" x2="274.1" y2="30.2"/>
		</g>
	</g>
</g>
<g id="Layer_22">
	<path id="XMLID_12_" class="st1" d="M231.1,184.1c-0.9-6.8-2.5-9.4-4.5-10.6c0,0-10.7-4-13.7,6.2s6.1,12.2,7.3,12.1
		C221.5,191.8,232,190.9,231.1,184.1z M224.2,183.5c-0.3,0.6-0.9,1.1-2.7,1.4c-1.8,0.4-2.3-2.4-2.3-2.7s0.3-2.8,3.1-2.2
		C225,180.5,224.2,183.5,224.2,183.5z"/>
</g>
<g id="Layer_21">
	<g>
		<g id="XMLID_8_">
			<path id="XMLID_11_" class="st1" d="M244.6,187.3"/>
			<path id="XMLID_10_" class="st1" d="M250.9,186.9c0-2.7-0.2-6.4,0.8-7.2c1.4-1.1,5.8-0.6,5.2,2.2c-0.4,1.6-0.4,3.5-0.4,4.7
				c0,0.9,0,1.6,0,1.9c0,0.7,0.3,2.2,2.8,2.5c3.2,0.4,3.7-0.7,3.7-3s2.6-13.3-6.7-15.2c-6.6-1.4-10,2.4-11.5,5.4"/>
			<path id="XMLID_9_" class="st1" d="M251.3,179.3"/>
		</g>
		<g id="XMLID_4_">
			<path id="XMLID_7_" class="st1" d="M232.6,187.3c0.4,1.9,6.3,0.5,6.3-0.4c0-2.7-0.2-6.4,0.8-7.2c1.1-0.9,4.3-0.8,5.1,0.8
				c0.2,0.4,0.2,0.8,0.1,1.3c-0.4,1.6-0.4,3.5-0.4,4.7c0,0.9,0,1.6,0,1.9c0,0.7,0.3,2.2,2.8,2.5c3.2,0.4,3.7-0.7,3.7-3
				s2.6-13.3-6.7-15.2c-9.4-1.9-12.4,6.5-12.4,8.5C231.9,182.4,232.2,185,232.6,187.3"/>
			<path id="XMLID_6_" class="st1" d="M239.3,179.3"/>
			<path id="XMLID_5_" class="st1" d="M239.3,179.3c0.2,3.8,0,8.1-0.5,9.8c0,0-1.8,3.2-4.5,1.7s-2.9-16.8-1.3-17.5
				c1.7-0.7,5-2.2,5.8,1.3"/>
		</g>
	</g>
</g>
<g id="Layer_20">
	<path id="XMLID_3_" class="st1" d="M208.7,183.3c-0.5,0.2-0.9,0.7-1.3,1.3c-0.1,0.2-0.2,0.3-0.3,0.5c-0.1,0.1-0.4,0.4-0.5,0.5
		c-1.4,0.6-4.1,1.4-5.2-1.4c-0.1-0.2-0.2-1-0.2-1.2c0-0.4,0-0.8,0.1-1.1c0.3-3,1.3-4.3,2.2-4.4c1.1-0.1,3.3,0.6,3.9,2.1
		c0,0,0.6,2.7,2.1,2.3s4.3-1.9,2.1-4.8c-2.2-2.9-4.4-5.9-10.6-3.8c-6.2,2.1-5,10-4.8,10.5s3.4,11.5,11.8,6.6
		C216.3,185.4,209.6,183,208.7,183.3z"/>
</g>
<g id="Layer_19">
	<path id="XMLID_2_" class="st1" d="M224.9,181.1"/>
</g>
<g id="Layer_18">
	<path id="XMLID_1_" class="st1" d="M190.9,189.5c-0.3,0.6-0.9,1.1-2.7,1.4s-2.3-2.4-2.3-2.7s0.3-2.8,3.1-2.2
		C191.7,186.6,190.9,189.5,190.9,189.5z"/>
</g>
<g id="Layer_17">
	<g id="XMLID_336_">
		<path id="XMLID_348_" class="st4" d="M218.7,32.9c0,0-1.5-26.7-19.6-18.8s-7.9,83.5,38,72.6s27.4-70.3,27.4-70.3
			s-19.1-17-22.5,12.4c0,0-1,19.7-10,21.3C223.1,51.6,217.8,37.8,218.7,32.9z"/>
		<g id="XMLID_346_">
			<path id="XMLID_347_" class="st4" d="M195.5,49.2c0,0-31.6,31.2-25.2-27.1c0,0-7.5-18.1-22.2-10.5s-16.9,100.1,53.8,74.1
				c0,0,19-7.3,24.1-11"/>
		</g>
		<line id="XMLID_345_" class="st2" x1="163.3" y1="82.8" x2="166.3" y2="84.1"/>
		<path id="XMLID_344_" class="st4" d="M232.2,63.1c0,0,1.1,2.4-0.7,3.5"/>
		<path id="XMLID_343_" class="st4" d="M263.6,58.1c0,0-0.5,2.2-1.1,2.9"/>
		<path id="XMLID_342_" class="st4" d="M245.9,27.6c0,0,0.9-4.1,0-4.1"/>
		<path id="XMLID_341_" class="st4" d="M155.5,14c0,0,3.9,0.5,3.5,1.2"/>
		<path id="XMLID_340_" class="st4" d="M180.3,63.2c0,0,4.5-0.6,4.8-1.5"/>
		<path id="XMLID_339_" class="st4" d="M203.2,17.8c0,0-3,1.4-3.8,2.8"/>
		<line id="XMLID_338_" class="st2" x1="232" y1="52.5" x2="235.1" y2="51.7"/>
		<line id="XMLID_337_" class="st2" x1="238.7" y1="81.8" x2="241.8" y2="81"/>
	</g>
</g>
<g id="Layer_16">
	<g id="XMLID_322_">
		<path id="XMLID_335_" class="st4" d="M118.3,21.9"/>
		<path id="XMLID_332_" class="st4" d="M141.1,16.6c-36.3-26.7-64.7,6.8-64.7,6.8s-23.3,53.4,21,67.5
			C141.8,105,177.4,43.3,141.1,16.6z M121.3,53.4c-8.4,21.9-34.4-12.5-15.9-15C105.4,38.4,129.7,31.4,121.3,53.4z"/>
		<path id="XMLID_331_" class="st4" d="M126.8,13.2"/>
		<line id="XMLID_330_" class="st2" x1="85.4" y1="80.1" x2="88.3" y2="81.4"/>
		<path id="XMLID_329_" class="st4" d="M130,82.8c0,0-0.5,2.6-2.6,2.4"/>
		<path id="XMLID_328_" class="st4" d="M124.6,53.8c0,0-0.5,2.2-1.1,2.9"/>
		<path id="XMLID_327_" class="st4" d="M151.2,52.1c0,0,0.9-4.1,0-4.1"/>
		<path id="XMLID_326_" class="st4" d="M124.7,12.6c0,0,3.9,0.5,3.5,1.2"/>
		<path id="XMLID_325_" class="st4" d="M99.8,60.3c0,0,3.8,2.6,4.5,2.1"/>
		<path id="XMLID_324_" class="st4" d="M83,24.2c0,0-3,1.4-3.8,2.8"/>
		<line id="XMLID_323_" class="st2" x1="100.5" y1="35.7" x2="103.6" y2="34.8"/>
	</g>
</g>
<g id="Layer_15">
	<g id="XMLID_311_">
		<path id="XMLID_321_" class="st4" d="M32.8,13.9C32.8,13.9,29-4.5,11,2s-9.2,76.2-0.8,81.6C18.6,88.9,41.9,122.1,32.8,13.9z"/>
		<path id="XMLID_320_" class="st4" d="M28.7,47.3c0,0,31.6-31.2,25.2,27.1c0,0,7.5,18.1,22.2,10.5c14.7-7.5,16.9-100-53.8-74.1"/>
		<line id="XMLID_319_" class="st2" x1="18.6" y1="82.8" x2="21.5" y2="84.1"/>
		<path id="XMLID_318_" class="st4" d="M72.6,75c0,0,1.1,2.4-0.7,3.5"/>
		<path id="XMLID_317_" class="st4" d="M79.6,45c0,0-0.5,2.2-1.1,2.9"/>
		<path id="XMLID_316_" class="st4" d="M29.3,63.6c0,0,0.9-4.1,0-4.1"/>
		<path id="XMLID_315_" class="st4" d="M51.6,35.3c0,0,3.9,0.5,3.5,1.2"/>
		<path id="XMLID_314_" class="st4" d="M14,54.7c0,0,4.5-0.6,4.8-1.5"/>
		<path id="XMLID_313_" class="st4" d="M36.8,11.8c0,0-3,1.4-3.8,2.8"/>
		<line id="XMLID_312_" class="st2" x1="9.8" y1="16.6" x2="12.9" y2="15.8"/>
	</g>
</g>
<g id="Layer_14">
	<g id="XMLID_300_">
		<path id="XMLID_310_" class="st4" d="M52.4,76.3c0,0-3.8-18.4-21.8-11.9c-18.1,6.4-9.2,76.2-0.8,81.6S61.4,184.6,52.4,76.3z"/>
		<path id="XMLID_309_" class="st4" d="M48.3,109.8c0,0,31.6-31.2,25.2,27.1c0,0,7.5,18.1,22.2,10.5s16.9-100.1-53.8-74.1"/>
		<line id="XMLID_308_" class="st2" x1="39.2" y1="147.8" x2="42.2" y2="149.1"/>
		<path id="XMLID_307_" class="st4" d="M93.2,140c0,0,1.1,2.4-0.7,3.5"/>
		<path id="XMLID_306_" class="st4" d="M100.2,110c0,0-0.5,2.2-1.1,2.9"/>
		<path id="XMLID_305_" class="st4" d="M49.9,128.6c0,0,0.9-4.1,0-4.1"/>
		<path id="XMLID_304_" class="st4" d="M72.2,100.2c0,0,3.9,0.5,3.5,1.2"/>
		<path id="XMLID_303_" class="st4" d="M34.6,119.7c0,0,4.5-0.6,4.8-1.5"/>
		<path id="XMLID_302_" class="st4" d="M57.4,76.7c0,0-3,1.4-3.8,2.8"/>
		<line id="XMLID_301_" class="st2" x1="30.4" y1="81.6" x2="33.5" y2="80.8"/>
	</g>
</g>
<g id="Layer_13">
	<g>
		<g id="XMLID_298_">
			<path id="XMLID_299_" class="st4" d="M116.5,107.6c0,0,5.1-26.8-17.5-19.2c-22.6,7.6-9,66.3,3,63.8S119.5,140.3,116.5,107.6z"/>
		</g>
		<line id="XMLID_297_" class="st2" x1="97.4" y1="144.8" x2="100.4" y2="146.1"/>
		<path id="XMLID_296_" class="st4" d="M112.3,135.5c0,0,1.1,2.4-0.7,3.5"/>
		<path id="XMLID_295_" class="st4" d="M94,100.8c0,0-0.5,2.2-1.1,2.9"/>
		<path id="XMLID_294_" class="st4" d="M113,102.3c0,0,0.9-4.1,0-4.1"/>
		<path id="XMLID_293_" class="st4" d="M102.7,90.5c0,0,3.9,0.5,3.5,1.2"/>
	</g>
</g>
<g id="Layer_12">
	<g>
		<path id="XMLID_292_" class="st4" d="M104.2,52c0,0,25.5,14.6,0.4,25.4S87.1,38.6,104.2,52z"/>
		<path id="XMLID_291_" class="st4" d="M99.7,75.8c0,0,4.5-0.6,4.8-1.5"/>
		<path id="XMLID_290_" class="st4" d="M97.3,53.7c0,0-3,1.4-3.8,2.8"/>
	</g>
</g>
<g id="Layer_11">
	<g id="XMLID_275_">
		<path id="XMLID_289_" class="st4" d="M146.4,94.5"/>
		<path id="XMLID_286_" class="st4" d="M166.6,89.9c-32.1-23.6-57.2,6-57.2,6S88.8,143,128,155.5S198.7,113.4,166.6,89.9z
			 M149.9,122.7c-8.2,21.2-33.3-12.1-15.4-14.5C134.5,108.2,158.1,101.5,149.9,122.7z"/>
		<path id="XMLID_285_" class="st4" d="M154,86.8"/>
		<path id="XMLID_284_" class="st4" d="M154,86.8c0,0,25-26.7,25.6,23.5s9,96-39.1,95.7c0,0-26.1-12.2,0-25.1
			c12.8-6.3,15.3-19.4,15.1-35.8"/>
		<line id="XMLID_283_" class="st2" x1="138.1" y1="199.5" x2="141.1" y2="200.8"/>
		<path id="XMLID_282_" class="st4" d="M163.9,194.5c0,0,1.1,2.4-0.7,3.5"/>
		<path id="XMLID_281_" class="st4" d="M176.8,169.3c0,0-0.5,2.2-1.1,2.9"/>
		<path id="XMLID_280_" class="st4" d="M174.5,137.2c0,0,0.9-4.1,0-4.1"/>
		<path id="XMLID_279_" class="st4" d="M119.4,147.8c0,0,3.9,0.5,3.5,1.2"/>
		<path id="XMLID_278_" class="st4" d="M166.4,106.5c0,0,4.5-0.6,4.8-1.5"/>
		<path id="XMLID_277_" class="st4" d="M119.7,94.2c0,0-3,1.4-3.8,2.8"/>
		<line id="XMLID_276_" class="st2" x1="152.1" y1="128.9" x2="149.3" y2="130.6"/>
	</g>
</g>
<g id="Layer_10">
	<g>
		<path id="XMLID_274_" class="st4" d="M210.3,92.6c0,0-6.7-4.7-9.5-1c-2.9,3.7-7.8,9.9-2,22s27.9,2.1,30-3.6"/>
		<g>
			<path id="XMLID_273_" class="st4" d="M236.2,102.4L236.2,102.4c-4.2-11.2-13.4-20-27.5-21.5c-28.1-2.8-39.7,15.4-44.1,26.5
				c0,0-1,1.7-1.7,4.9c-0.6,1.9-0.7,3.6-0.6,4.3c-0.4,6.1,0.6,15.1,6.3,27c4.6,9.7,16.4,13.2,24.2,14.4c2.2,0.5,4.6,0.7,7.1,0.7
				c0.1,0,0.2,0,0.2,0l0,0c2.7,0,5.6-0.4,8.7-1.1c12.3-2.8,20.8-10.7,25.6-20.4c-0.8-11.2-10.4-12.6-16.2-13.4
				c-3.1-0.5-6.4,1.4-8.8,3.5c-0.3,0.2-0.5,0.4-0.8,0.6c-8.3,6.1-30.1-5.9-18.6-14.9c0,0,3.9-4.1,8.5-6l0,0c0,0,3.8-1.9,6.9-0.8
				c1.2,0.4,2.3,1.3,3,3c0,0.1,0.1,0.2,0.1,0.3c0.3,0.8,0.8,1.6,1.3,2.5c3.8,6.1,12.2,14.2,20,8.6c9-6.5,8-9,8.3-11.5l0,0
				C238.5,106.5,236.2,102.4,236.2,102.4z"/>
			<line id="XMLID_272_" class="st2" x1="173.2" y1="142.9" x2="175.1" y2="145.5"/>
			<path id="XMLID_271_" class="st4" d="M226.7,140c0,0,1.1,2.4-0.7,3.5"/>
			<path id="XMLID_270_" class="st4" d="M235.8,109c0,0-0.5,2.2-1.1,2.9"/>
			<path id="XMLID_269_" class="st4" d="M184.7,112.5c0,0,0.9-4.1,0-4.1"/>
			<path id="XMLID_268_" class="st4" d="M205.7,100.3c0,0,3.9,0.5,3.5,1.2"/>
			<path id="XMLID_267_" class="st4" d="M201.5,154.6c0,0,4.5-0.6,4.8-1.5"/>
			<path id="XMLID_266_" class="st4" d="M178.2,94.5c0,0-3,1.4-3.8,2.8"/>
			<line id="XMLID_265_" class="st2" x1="222.8" y1="119.3" x2="225.9" y2="118.5"/>
		</g>
	</g>
</g>
<g id="Layer_9">
	<g>
		<path id="XMLID_264_" class="st4" d="M253.2,70.8c0,0-3.8-21.4-21.8-13.9s-9.2,89-0.8,95.3C238.9,158.5,262.2,197.2,253.2,70.8z"
			/>
		<path id="XMLID_263_" class="st4" d="M245.8,150c0,0,1.1,2.4-0.7,3.5"/>
		<path id="XMLID_262_" class="st4" d="M251.6,111.4c0,0,0.3,2.2,0,3.2"/>
		<path id="XMLID_261_" class="st4" d="M228.4,126.6c0,0,0.9-4.1,0-4.1"/>
		<path id="XMLID_260_" class="st4" d="M233.5,61.4c0,0-3,1.4-3.8,2.8"/>
	</g>
</g>
<g id="Layer_8">
	<g id="XMLID_189_">
		<path id="XMLID_259_" class="st4" d="M306.9,169.4c0.2-3.5-1-13.6-1.2-16.9c-0.2-3-0.6-5.6-1.3-7.7c11.6-19.9-20.5-42.7-32-17.1
			c-3.6,8-3.1,23.4-3.1,26c0.1,3.4,0.2,14.9,0.2,17.9c0.1,16.6,24.7,29.8,34.5,8.2"/>
		<g id="XMLID_255_">
			<path id="XMLID_258_" class="st4" d="M248.6,86.6c0,0-17.9-23.7-18.3-5.2c-0.5,18.5,4.6,38.4,11.2,35.9c6.6-2.5,6.7-8,6.7-8"/>
			<path id="XMLID_257_" class="st4" d="M242.7,87.9c0,0-7-10.8-8.7-5.7"/>
			<path id="XMLID_256_" class="st4" d="M245.4,95.4c0,0-10.3-2.7-8.8,3.3s5.1,9.9,7,3.3"/>
		</g>
		<path id="XMLID_254_" class="st4" d="M302.2,3.5c0,0-6.7,5.9,1.6,8.6C312.2,14.8,309.5,0.5,302.2,3.5z"/>
		<path id="XMLID_253_" class="st4" d="M288,17.9c0,0,53.6,3.9,46.1,67.1s-5.5,74.8-35.7,81.2s-46.8-15.7-50.1-32.5
			S220.8,26.2,288,17.9z"/>
		<path id="XMLID_252_" class="st4" d="M331.1,33c-0.2-2.1-1.1-4.8-3-8.1v-0.1l0,0c-0.4-0.7-0.8-1.4-1.3-2.2
			C320.8,13.2,311,7.8,302,5c-38.4-17.3-42.3,19.2-42.4,33c0,1.3,17.3-0.1,33.1-4.1c20,8.1,38.9,17.1,38.9,17.1S333,39.2,331.1,33z"
			/>
		<path id="XMLID_251_" class="st4" d="M257.5,51c0,0,36.5-3.5,23.3,25.9C267.6,106.3,226.8,71.5,257.5,51z"/>
		<path id="XMLID_249_" class="st4" d="M297.4,90.4c0,0,9.5,7.1,21.9,2.8"/>
		<path id="XMLID_248_" class="st4" d="M294,95.1c0,0-9.7-12-9.3-18.7"/>
		<path id="XMLID_247_" class="st4" d="M274,90.7c0,0-15.4,3.3-18.7,1.9"/>
		<g id="XMLID_244_">
			<path id="XMLID_246_" class="st4" d="M277.2,96.4c0.4,3.2,1.4,5.4,3.4,5.8c1.1,0.2,2.1,0.2,2.9,0c0.7-0.2,1.2-0.4,1.6-0.6"/>
			<path id="XMLID_245_" class="st4" d="M287.6,58.3c0,0-7.4,19.7-9.4,33.6"/>
		</g>
		<path id="XMLID_243_" class="st4" d="M298.1,55.1c0,0-26.8,23.6,6.6,34.3S327.3,43.1,298.1,55.1z"/>
		<path id="XMLID_241_" class="st4" d="M270.8,160.7c0,0-6.4,5.9,6.8,8.5c13.2,2.6,21.8-0.9,19.2-5.8"/>
		<path id="XMLID_240_" class="st4" d="M300.3,50.3c0,0-12.3,1.4-3.5,10.1s25.7,0.3,24.8-2.8C320.7,54.6,319.1,49.4,300.3,50.3z"/>
		<path id="XMLID_239_" class="st4" d="M250.2,43c0,0,20.5-8.3,44.6-3s36.6,10.9,36.6,10.9c-7.7-26.5-54.3-26.7-77.9-25.2
			s-17.3,10.5-17.3,10.5S239.7,40.5,250.2,43z"/>
		<path id="XMLID_238_" class="st4" d="M250.2,43c0,0-40.7-11.3,15.6-13.8s65.5,21.6,65.5,21.6S279.3,28.4,250.2,43z"/>
		<g id="XMLID_232_">
			<path id="XMLID_237_" class="st4" d="M273.7,98.1c0,0-7.1,8.3,4.3,10.6"/>
			<path id="XMLID_236_" class="st4" d="M293.3,98.1c0,0,7.6,6.3-3.1,10.6"/>
			<path id="XMLID_235_" class="st4" d="M289.9,105c-1.6,0.4-3.2-2.1-2.1-1.8s2.7-1.9,3.9,0"/>
			<path id="XMLID_234_" class="st4" d="M278.2,104.3c0.9,0.5-1.3,1.8-1.3,1.8c-2.2-0.1-2.7-1.8-1.5-2.7"/>
			<path id="XMLID_233_" class="st4" d="M284.6,93.8c0,0,2.2-0.1,2.8,0.7"/>
		</g>
		<path id="XMLID_231_" class="st4" d="M269.5,103.2c0,0-6.2,3.1-8,3.8"/>
		<line id="XMLID_230_" class="st2" x1="251.2" y1="105.8" x2="253.8" y2="106.9"/>
		<path id="XMLID_229_" class="st4" d="M297.8,101.5c0,0,7.3,3.5,8,3.4"/>
		<path id="XMLID_228_" class="st4" d="M328.7,70.4c0,0,1,2.1-0.6,3"/>
		<path id="XMLID_227_" class="st4" d="M323.1,91.9c0,0-0.5,1.9-1,2.6"/>
		<path id="XMLID_226_" class="st4" d="M323.7,54.6c0,0,0.8-3.6,0-3.6"/>
		<path id="XMLID_225_" class="st4" d="M271.5,42.5c0,0,3.4,0.5,3,1"/>
		<path id="XMLID_224_" class="st4" d="M292.2,48.9c0,0,3.9-0.6,4.2-1.3"/>
		<path id="XMLID_223_" class="st4" d="M262.5,145.2c0,0,2.8,0.6,3,1.2"/>
		<path id="XMLID_222_" class="st4" d="M308.7,146.4c0,0-2.6,1.2-3.4,2.5"/>
		<path id="XMLID_221_" class="st4" d="M264.5,45.1c0,0-19-1.1-10.2,9.5s24.4-0.2,25.6-4.8S264.5,45.1,264.5,45.1z"/>
		<path id="XMLID_220_" class="st4" d="M255.3,83.4"/>
		<path id="XMLID_219_" class="st4" d="M274,85.6"/>
		<line id="XMLID_218_" class="st2" x1="315.7" y1="106.5" x2="318.5" y2="105.7"/>
		<path id="XMLID_217_" class="st4" d="M326.6,93.3c0,0,19.8-22.1,18.7-3.6s-7.8,37.9-14.2,34.8c-6.4-3.1-6-8.5-6-8.5"/>
		<path id="XMLID_216_" class="st4" d="M332.3,95.1c0,0,7.9-10.2,9.2-5"/>
		<path id="XMLID_215_" class="st4" d="M329,102.4c0,0,10.4-1.8,8.5,4s-6,9.4-7.2,2.7"/>
		<g id="XMLID_210_">
			<path id="XMLID_214_" class="st4" d="M255.5,82.4c0,0-5.3,0.7-3,3.2s3.5-0.6,7.4,1.4"/>
			<path id="XMLID_213_" class="st4" d="M321,84.7c0,0,5.3,0.7,3,3.2s-3.5-0.6-7.4,1.4"/>
			<path id="XMLID_212_" class="st4" d="M315.2,84.3c0,0-12.3-0.8-19.5,1.1"/>
			<path id="XMLID_211_" class="st4" d="M261.5,81.3c0,0,7.2-1.4,15.2,1.1"/>
		</g>
		<g id="XMLID_198_">
			<path id="XMLID_209_" class="st4" d="M276.9,119.7c0,0,36.5-3.5,23.3,25.9C287,175,246.2,140.2,276.9,119.7z"/>
			<path id="XMLID_208_" class="st4" d="M278.2,149.2c-3.6-1.6-7.7,9.5-11.5-0.8s19.4-0.8,19.4-0.8s7.3,2.4,10,3.7"/>
			<path id="XMLID_207_" class="st4" d="M296.6,151.4c1.3-1.6,2.6-3.5,3.6-5.8c13.2-29.4-23.3-25.9-23.3-25.9
				c-11.4,7.6-12.9,17.1-9.7,24.7c3.9-2.9,18.8,3.2,18.8,3.2s7.3,2.4,10,3.7"/>
			<g id="XMLID_200_">
				<path id="XMLID_206_" class="st4" d="M268.4,126.8c0,0,5.5-2.2,4.9,3.4C272.6,135.9,264.6,131.6,268.4,126.8z"/>
				<path id="XMLID_205_" class="st4" d="M274.3,126.8c0,0,5.5-2.2,4.9,3.4S270.6,131.6,274.3,126.8z"/>
				<path id="XMLID_204_" class="st4" d="M280.2,126.8c0,0,5.5-2.2,4.9,3.4S276.5,131.6,280.2,126.8z"/>
				<path id="XMLID_203_" class="st4" d="M286.1,126.8c0,0,5.5-2.2,4.9,3.4C290.4,135.9,282.4,131.6,286.1,126.8z"/>
				<path id="XMLID_202_" class="st4" d="M292.1,126.8c0,0,5.5-2.2,4.9,3.4S288.3,131.6,292.1,126.8z"/>
				<path id="XMLID_201_" class="st4" d="M298,126.8c0,0,5.5-2.2,4.9,3.4C302.2,135.9,294.2,131.6,298,126.8z"/>
			</g>
			<path id="XMLID_199_" class="st4" d="M274.4,126.9c0,0,5.1-2,4.9,2.9l0,0c-0.1-0.9,0.2-1.8,1-2.9c0,0,5.1-2,4.9,2.9l0,0
				c-0.1-0.9,0.2-1.8,1-2.9c0,0,5.1-2,4.9,2.9l0,0c-0.1-0.9,0.2-1.8,1-2.9c0,0,5.1-2,4.9,2.9l0,0c-0.1-0.9,0.2-1.8,1-2.9
				c0,0,1.3-0.5,2.5-0.4c-6.6-8.3-23.6-6.7-23.6-6.7c-3.2,2.1-5.6,4.4-7.3,6.7c1.5-0.3,3.9-0.2,3.7,3.2l0,0
				C273.4,128.9,273.7,127.9,274.4,126.9z"/>
		</g>
		<g id="XMLID_193_">
			<path id="XMLID_197_" class="st4" d="M271.5,123.2c0,0-19.6,2.6-8.7,9.7C273.8,139.9,271.5,123.2,271.5,123.2z"/>
			<path id="XMLID_196_" class="st4" d="M268.6,117.4c0,0-16.2-0.9-8.7,7.5c7.5,8.4,20.8-0.2,21.9-3.8
				C282.8,117.6,268.6,117.4,268.6,117.4z"/>
			<path id="XMLID_195_" class="st4" d="M300.9,121.6c0,0-7.9-2.6-6.5,7.4s15,8.3,15.8,5.4C311.1,131.4,312.4,126.7,300.9,121.6z"/>
			<path id="XMLID_194_" class="st4" d="M294.2,118.9c0,0-23-2.9-0.3,8.2S320.4,122.3,294.2,118.9z"/>
		</g>
		<path id="XMLID_192_" class="st4" d="M313.3,10.2c0,0,1.8,1.4,0.8,3"/>
		<line id="XMLID_191_" class="st2" x1="265.4" y1="25.1" x2="266.5" y2="22.5"/>
	</g>
</g>
<g id="Layer_7">
	<path id="XMLID_186_" class="st4" d="M227.3,180.3c-0.9-6.8-2.5-9.4-4.5-10.6c0,0-10.7-4-13.7,6.2s6.1,12.2,7.3,12.1
		C217.6,187.9,228.2,187.1,227.3,180.3z M220.4,179.7c-0.3,0.6-0.9,1.1-2.7,1.4c-1.8,0.4-2.3-2.4-2.3-2.7s0.3-2.8,3.1-2.2
		C221.2,176.7,220.4,179.7,220.4,179.7z"/>
</g>
<g id="Layer_6">
	<g>
		<g id="XMLID_182_">
			<path id="XMLID_185_" class="st4" d="M240.8,183.5"/>
			<path id="XMLID_184_" class="st4" d="M247.1,183.1c0-2.7-0.2-6.4,0.8-7.2c1.4-1.1,5.8-0.6,5.2,2.2c-0.4,1.6-0.4,3.5-0.4,4.7
				c0,0.9,0,1.6,0,1.9c0,0.7,0.3,2.2,2.8,2.5c3.2,0.4,3.7-0.7,3.7-3s2.6-13.3-6.7-15.2c-6.6-1.4-10,2.4-11.5,5.4"/>
			<path id="XMLID_183_" class="st4" d="M247.4,175.5"/>
		</g>
		<g id="XMLID_178_">
			<path id="XMLID_181_" class="st4" d="M228.8,183.5c0.4,1.9,6.3,0.5,6.3-0.4c0-2.7-0.2-6.4,0.8-7.2c1.1-0.9,4.3-0.8,5.1,0.8
				c0.2,0.4,0.2,0.8,0.1,1.3c-0.4,1.6-0.4,3.5-0.4,4.7c0,0.9,0,1.6,0,1.9c0,0.7,0.3,2.2,2.8,2.5c3.2,0.4,3.7-0.7,3.7-3
				s2.6-13.3-6.7-15.2c-9.4-1.9-12.4,6.5-12.4,8.5C228.1,178.5,228.4,181.2,228.8,183.5"/>
			<path id="XMLID_180_" class="st4" d="M235.5,175.5"/>
			<path id="XMLID_179_" class="st4" d="M235.5,175.5c0.2,3.8,0,8.1-0.5,9.8c0,0-1.8,3.2-4.5,1.7s-2.9-16.8-1.3-17.5
				c1.7-0.7,5-2.2,5.8,1.3"/>
		</g>
	</g>
</g>
<g id="Layer_5">
	<path id="XMLID_177_" class="st4" d="M204.9,179.5c-0.5,0.2-0.9,0.7-1.3,1.3c-0.1,0.2-0.2,0.3-0.3,0.5c-0.1,0.1-0.4,0.4-0.5,0.5
		c-1.4,0.6-4.1,1.4-5.2-1.4c-0.1-0.2-0.2-1-0.2-1.2c0-0.4,0-0.8,0.1-1.1c0.3-3,1.3-4.3,2.2-4.4c1.1-0.1,3.3,0.6,3.9,2.1
		c0,0,0.6,2.7,2.1,2.3s4.3-1.9,2.1-4.8c-2.2-2.9-4.4-5.9-10.6-3.8c-6.2,2.1-5,10-4.8,10.5s3.4,11.5,11.8,6.6
		C212.5,181.6,205.8,179.2,204.9,179.5z"/>
</g>
<g id="Layer_4">
	<path id="XMLID_176_" class="st4" d="M221.1,177.2"/>
</g>
<g id="Layer_3">
	<path id="XMLID_175_" class="st4" d="M187.1,185.7c-0.3,0.6-0.9,1.1-2.7,1.4s-2.3-2.4-2.3-2.7s0.3-2.8,3.1-2.2
		C187.9,182.8,187.1,185.7,187.1,185.7z"/>
</g>
<g id="Layer_2">
	<g>
		<path id="XMLID_250_" class="st4" d="M253.3,69.1c0,0,5.5-2.2,4.9,3.4S249.5,73.9,253.3,69.1z"/>
		<path id="XMLID_242_" class="st4" d="M315.9,72.4c0,0,5.5-2.2,4.9,3.4S312.1,77.2,315.9,72.4z"/>
	</g>
</g>
</svg>
