<?xml version="1.0" encoding="utf-8"?>
<!-- Generator: Adobe Illustrator 19.0.0, SVG Export Plug-In . SVG Version: 6.00 Build 0)  -->
<svg version="1.1" id="Layer_1" xmlns="http://www.w3.org/2000/svg" xmlns:xlink="http://www.w3.org/1999/xlink" x="0px" y="0px"
	 viewBox="0 0 649.3 209.8" style="enable-background:new 0 0 649.3 209.8;" xml:space="preserve">
<style type="text/css">
	.st0{fill:#FDF5EB;stroke:#231F20;stroke-miterlimit:10;}
	.st1{fill:#092D31;stroke:#092D31;stroke-linecap:round;stroke-miterlimit:10;}
	.st2{fill:#FFFFFF;stroke:#231F20;stroke-miterlimit:10;}
</style>
<path id="XMLID_49273_" class="st0" d="M2.1,128.6c0,0,4.5,30,28.7,19.9S45.1,24.5,34.2,15.5S-6.8-48.2,2.1,128.6z"/>
<path id="XMLID_49270_" class="st0" d="M64.2,53.8c-51.4,15.4-25.7,77.4-25.7,77.4s32.1,39.2,74.5,9.2
	C155.5,110.3,115.6,38.4,64.2,53.8z M70.2,118.3C42.3,114,82.5,62.5,94.7,96C106.9,129.5,70.2,118.3,70.2,118.3z"/>
<g id="XMLID_49262_">
	<g id="XMLID_49264_">
		<path id="XMLID_49269_" class="st1" d="M176.8,69.8"/>
		<path id="XMLID_49266_" class="st0" d="M203.7,64.1c-42.1-32.1-76.1,6.7-76.1,6.7s-28.4,62.2,23.4,79.7
			C202.7,167.9,245.8,96.2,203.7,64.1z M183.8,95.3c14.2,33.4-51.5,22.9-33.7,0.4C150.1,95.7,169.6,62,183.8,95.3z"/>
		<path id="XMLID_49265_" class="st0" d="M187,59.8"/>
	</g>
	<path id="XMLID_49263_" class="st0" d="M183.7,137.6c0,0,3.3,25.5,26.3,12.5c23-13-0.6-35.5-0.6-35.5"/>
</g>
<g id="XMLID_49259_">
	<path id="XMLID_49261_" class="st0" d="M226.3,61.8c-37.4,34.7-6.2,73.4-6.2,73.4c4.9,7.8,50.8,24.5,61.4,9.7l0,0
		c10.6-14.8-0.1-23.7-6.3-28.9c-4.8-4.1-13.8-2-17.5-0.9c-1.1,0.3-1.7,0.6-1.7,0.6c-7.6,2.2-15.2,0.4-14.7-9.1c0,0-0.6-7.2,1.4-13.1
		l0,0c0,0,1.4-5.3,5-7.3c1.4-0.8,3.2-1.1,5.3-0.4c0.1,0,0.2,0.1,0.4,0.1c1,0.3,2.2,0.6,3.5,0.8c9,1.5,23.8,0.3,25-11.8
		c1.4-14-1.9-15.1-3.9-17.6c0,0,0,0,0,0c-2.1-2.5-7.9-3.8-7.9-3.8l0,0C255.7,48.2,239.5,49.5,226.3,61.8z"/>
	<path id="XMLID_49260_" class="st0" d="M267.5,143.6c3.5,7.8,10.9,16.7,25.8,10.5c24.2-10.1,14.3-124.1,3.4-133.1
		c-10.7-8.8-39.5-61-32.6,100.5"/>
</g>
<g id="XMLID_49255_">
	<g id="XMLID_49257_">
		<path id="XMLID_49258_" class="st0" d="M337,97.8c0,0,7.5-35.5-22.8-25.9s-13.5,87.9,2.5,84.8C332.7,153.6,340.3,141.3,337,97.8z"
			/>
	</g>
	<path id="XMLID_49256_" class="st2" d="M322,23.5c0,0,33.5,20-0.1,33.7S299.6,5.4,322,23.5z"/>
</g>
<g id="XMLID_49252_">
	<path id="XMLID_49254_" class="st0" d="M364.6,72.1c0,0-3.7-20-23.5-13.4s-11.4,82.7-2.4,88.7C347.6,153.4,372.4,189.9,364.6,72.1z
		"/>
	<path id="XMLID_49253_" class="st0" d="M359.5,108.4c0,0,35-33.4,26.9,29.9c0,0,7.8,19.8,23.9,11.9c16.1-7.9,20.3-108.5-57.1-81.6"
		/>
</g>
<g id="XMLID_49244_">
	<path id="XMLID_49251_" class="st1" d="M466.8,80.1"/>
	<path id="XMLID_49247_" class="st0" d="M493.1,75c-41.4-31.5-74.8,6.6-74.8,6.6s-27.9,61.1,23,78.3C492.1,177,534.5,106.5,493.1,75
		z M473.2,118.7c-13.3,33-51.7-19.8-23.7-23.1C449.5,95.5,486.5,85.7,473.2,118.7z"/>
	<path id="XMLID_49246_" class="st0" d="M477,70.1"/>
	<path id="XMLID_49245_" class="st0" d="M477.1,68c0,0,33.8-31.1,33.5,28.5s9.9,114.2-54,112.7c0,0-34.5-15.1,0.5-29.8
		c17.1-7.2,20.8-22.7,20.8-42.2"/>
</g>
<path id="XMLID_42_" class="st2" d="M542,126.5c0,0,33.5,20-0.1,33.7S519.6,108.4,542,126.5z"/>
<path id="XMLID_41_" class="st2" d="M588,126.5c0,0,33.5,20-0.1,33.7S565.6,108.4,588,126.5z"/>
<path id="XMLID_40_" class="st2" d="M634,126.5c0,0,33.5,20-0.1,33.7S611.6,108.4,634,126.5z"/>
</svg>
