<?xml version="1.0" encoding="utf-8"?>
<!-- Generator: Adobe Illustrator 22.1.0, SVG Export Plug-In . SVG Version: 6.00 Build 0)  -->
<svg version="1.1" id="Layer_1" xmlns="http://www.w3.org/2000/svg" xmlns:xlink="http://www.w3.org/1999/xlink" x="0px" y="0px"
	 viewBox="0 0 129 456.6" style="enable-background:new 0 0 129 456.6;" xml:space="preserve">
<style type="text/css">
	.st0{fill:#FDF5EA;stroke:#5B5B4B;stroke-linecap:round;stroke-miterlimit:10;}
	.st1{fill:#FDF5EA;stroke:#5B5B4B;stroke-linecap:round;stroke-linejoin:round;stroke-miterlimit:10;}
	.st2{fill:#FDF5EA;}
	.st3{fill:none;stroke:#5B5B4B;stroke-linecap:round;stroke-miterlimit:10;}
</style>
<g>
	<g>
		<path class="st0" d="M91.8,28c-3-0.8-6.5-1.6-10.5-2.5c-3.8-0.7-7.8-1.2-11.9-1.4c-12.3-0.2-21.4,3.2-21.4,3.2
			c-2.7-0.6-4.8-1.4-6.3-2.1c-1.7-0.7-3.3-1.6-3.7-2.5c0,0-4.5-6,12.4-7c10.9-0.6,28.7-0.8,41.5,3.9"/>
		<path id="XMLID_24700_" class="st0" d="M84.3,122.5c7,1.4,13.1,3.1,14.6,5.1c4.1,5.4,11.9,66.4,2.6,67.2s-10.6,0.5-10.6-2.8
			c0-3.3-6.3-41.6-5-44.6"/>
		<g>
			<g id="XMLID_24698_">
				<path id="XMLID_24699_" class="st0" d="M97.2,208.1c5.2,1.4,5.1-7.5-0.8-5.8"/>
			</g>
			<path id="XMLID_24697_" class="st0" d="M100.9,143c-1.1,23.8-2.1,53-2.9,68.2c-1.4,27.5,0.8,67.9,0.8,67.9l-11.6-1
				c0,0,2.4-71.3,0-86.3c-1.7-10.7,1.3-50.5,2.2-73.7"/>
			<g id="XMLID_24695_">
				<path id="XMLID_24696_" class="st0" d="M87.2,276.7c-4.8,4.9-6.2,6.6-8.7,13c-2.5,6.5,6.8-9.2,6.2-6.9
					c-0.6,2.3-9.3,46.9-2.1,19.5c7.2-27.4,4.4-9.9,4.4-9.9c0,37.6,3,7.5,3.9,2.8c0.9-4.7,7.1,25.1,6,10.3c-1.1-14.7,0-16,2.5-3.7
					s1.2-16.6,1.2-16.6s-0.6-9-2.8-8.3"/>
			</g>
			<path id="XMLID_24694_" class="st0" d="M93.7,202.6c0,0-1.9,0.4-2,0.8"/>
			<path id="XMLID_24693_" class="st0" d="M94,207.2c0,0,1.5,0.3,1.9-0.9"/>
			<path id="XMLID_24692_" class="st1" d="M96.3,268.8c0,0,9.3,6.3,0,6.7"/>
		</g>
		<path class="st0" d="M33.2,226.8l75.9-2.8c0,0-0.4,20.1-0.9,27.8c0,0.7-0.1,1.4-0.2,2.2c0,0.3-0.1,0.5-0.1,0.6c0,0,0,0,0,0
			c-2.1,11.7-15.4,21.9-36.3,22.2c-34.2,0.5-35.2-9.9-35.2-9.9c-1.7-3.1-2.6-6.1-3-8.9c-0.1,0-0.2,0-0.2,0S31.9,232.9,33.2,226.8z"
			/>
		<path class="st0" d="M26.8,237.7c0-0.7,0.1-1.3,0.2-2c0.4-3.6,1.4-6.8,2.2-8.5c0.9-1.7,2.7-8.5,4.9-17.6
			c3.9-16.3,7.4-59.8,13.2-81.7c2-7.5,17.3-13.8,20.7-13.6c6.3,0.3,11.1,0.8,14.9,1.4c12.2,2,14.9,9.3,14.7,11.2
			c-0.3,3.1,4.4,79.3,8.7,89.4c0.3,0.6,0.5,1.2,0.7,1.8c3.9,9.6,6.6,20.9,3.3,25.2c-0.2,0.2-0.3,0.4-0.5,0.6
			c-1.5,1.4-3.9,1.7-7.5,0.4l0-0.2l-5.1,0l-52.7,2.8c-0.7,0.1-1.4,0.2-2.1,0.3l0,0.1C28.8,255.2,26.2,246.3,26.8,237.7z"/>
		<g>
			<g id="XMLID_24690_">
				<path id="XMLID_24691_" class="st0" d="M85.7,347.2c-4.2-3.4-7.7,4.9-1.5,5.6"/>
			</g>
			<path class="st0" d="M97.1,257.6c0,0-2.5,39.5-2.3,70c0.1,3.6,0.2,6.9,0.2,9.9c0,0,0,0,0,0.1c0.2,7.5-0.1,10.8-0.7,11.5
				c-2,17.6,0.2,84.9,0.2,84.9l-11.6,1c0,0,2.2-40.4,0.8-67.9c-1.4-27.5-3.4-101.1-5.8-104.9"/>
			<path id="XMLID_24689_" class="st0" d="M90.9,344.4c0,0-0.9-1.3-2-0.7"/>
			<path id="XMLID_24688_" class="st0" d="M86.3,354.8c0,0,1.8-0.6,2-1"/>
			<g id="XMLID_24686_">
				<path id="XMLID_24687_" class="st0" d="M92.5,431.7c4.2-3.4,7.7,4.9,1.5,5.6"/>
			</g>
			<g>
				<g>
					<g id="XMLID_24684_">
						<path id="XMLID_24685_" class="st0" d="M79.8,451.8c0,0-4.1-0.4-2.6,2.9C78.7,458.1,83.3,454.2,79.8,451.8z"/>
					</g>
					<g id="XMLID_24682_">
						<path id="XMLID_24683_" class="st0" d="M77.5,451.4c0,0-4.6-0.4-2.9,3.2C76.2,458.3,81.3,453.9,77.5,451.4z"/>
					</g>
					<g id="XMLID_24680_">
						<path id="XMLID_24681_" class="st0" d="M74.6,450.6c0,0-5.3-0.5-3.4,3.8C73.1,458.7,79,453.6,74.6,450.6z"/>
					</g>
					<g id="XMLID_24678_">
						<path id="XMLID_24679_" class="st0" d="M70.9,449.8c0,0-6.1-0.6-3.9,4.3C69.2,459.1,76,453.2,70.9,449.8z"/>
					</g>
					<path id="XMLID_24677_" class="st0" d="M63.7,456c0,0,7.2,0.5,3.9-4.2c-3.3-4.7-9.3,0.1-9.8,2.1S63.7,456,63.7,456z"/>
				</g>
				<path class="st0" d="M98.1,448.7c-0.4-1.2-1-2.6-1.8-4.3c-0.7-1.6-1.4-3.5-2-5.8c0.1,0,0.1,0,0.1,0s0,0,0-0.1
					c0-0.4,0-2.1-0.1-4.7L84,432.9l-0.6,0l-0.6,0c-0.1,0.7-0.1,1.3-0.2,1.6c0,0,0,0.1,0,0.1c-0.1,0.1-0.1,0.2-0.2,0.2
					c-0.2,0.3-0.4,0.5-0.4,0.5s-0.4,0.4-1.2,1.1c-1.3,7.3-6.4,11.7-12.4,14.2c0.1,0.6,0.3,1.2,0.9,1.7c0.2,0.2,0.4,0.4,0.6,0.5
					c0.8,0.6,2.1,1,3.7,1.3c1.2,0.2,2.6,0.4,4.2,0.6c1,0.1,2,0.2,3.1,0.2c0.8,0,1.7,0.1,2.5,0.1c0.9,0,1.7,0,2.5-0.1
					c1.1,0,2.1-0.1,3.1-0.2c1.6-0.1,3-0.3,4.2-0.6c1.6-0.3,2.9-0.8,3.7-1.3c0.2-0.2,0.4-0.3,0.6-0.5c0.7-0.7,1-1.5,0.9-2.3
					C98.4,449.6,98.3,449.2,98.1,448.7z"/>
			</g>
		</g>
		<path id="XMLID_24676_" class="st0" d="M49.6,170.2c0,0-10.4,63.3-15.2,71.8"/>
		<path id="XMLID_24675_" class="st0" d="M102.5,238.6c0,0-12.5-62.9-11.1-72.5"/>
		<g id="XMLID_24492_">
			<path id="XMLID_24674_" class="st0" d="M59.8,109.2c0,0-4.2,3.9,4.6,5.7s14.6-0.6,12.9-3.9"/>
			<g id="XMLID_24669_">
				<path id="XMLID_24673_" class="st0" d="M50.3,84.1c0,0-13.1,1.7-5.8,6.5S50.3,84.1,50.3,84.1z"/>
				<path id="XMLID_24672_" class="st0" d="M48.3,80.2c0,0-10.8-0.6-5.8,5c5,5.6,13.9-0.1,14.6-2.5C57.8,80.3,48.3,80.2,48.3,80.2z"
					/>
				<path id="XMLID_24671_" class="st0" d="M69.9,83c0,0-5.3-1.8-4.4,4.9s10,5.5,10.6,3.6C76.7,89.6,77.6,86.4,69.9,83z"/>
				<path id="XMLID_24670_" class="st0" d="M65.4,81.2c0,0-15.4-1.9-0.2,5.5S83,83.5,65.4,81.2z"/>
			</g>
			<g id="XMLID_24665_">
				<path id="XMLID_24668_" class="st0" d="M51.7,90.5c0,0,8,7.9,12.5,0"/>
				<path id="XMLID_24667_" class="st0" d="M53.6,89.2c0,0,2.2-2.3,3.9,0"/>
				<path id="XMLID_24666_" class="st0" d="M61.3,89.2c0,0-2.2-2.3-3.9,0"/>
			</g>
			<g>
				<path id="XMLID_24664_" class="st0" d="M69.1,38.5c0,0-17.9,15.8,4.4,23C95.8,68.6,88.6,30.4,69.1,38.5z"/>
				<path id="XMLID_24663_" class="st0" d="M81.5,51.5c0,0,3.7-1.5,3.3,2.3C84.3,57.6,79,54.8,81.5,51.5z"/>
				<path id="XMLID_24662_" class="st0" d="M70.5,35.3c0,0-8.2,1-2.3,6.7s17.2,0.2,16.6-1.9S83.1,34.7,70.5,35.3z"/>
				<path id="XMLID_24661_" class="st0" d="M84.3,58.3c0,0,3.5,0.5,2,2.2c-1.6,1.7-2.3-0.4-4.9,0.9"/>
				<path id="XMLID_24660_" class="st0" d="M80.5,58c0,0-8.2-0.6-13.1,0.7"/>
			</g>
			<path id="XMLID_24659_" class="st0" d="M78.8,2c0,0-4.5,3.9,1.1,5.7C85.5,9.5,83.7,0,78.8,2z"/>
			<path id="XMLID_24658_" class="st0" d="M89.5,48.8c0,0,0.7,1.4-0.4,2"/>
			<path id="XMLID_24657_" class="st0" d="M85.7,63.1c0,0-0.3,1.3-0.7,1.7"/>
			<path id="XMLID_24656_" class="st0" d="M86.2,38.2c0,0,0.5-2.4,0-2.4"/>
			<path id="XMLID_24655_" class="st0" d="M51.2,30.1c0,0,2.3,0.3,2,0.7"/>
			<path id="XMLID_24654_" class="st0" d="M65.1,34.3c0,0,2.6-0.4,2.8-0.9"/>
			<path id="XMLID_24653_" class="st0" d="M52.2,98.7c0,0,1.9,0.4,2,0.8"/>
			<path id="XMLID_24652_" class="st0" d="M68.2,99.6c0,0-1.7,0.8-2.2,1.7"/>
			<path id="XMLID_24651_" class="st0" d="M50.4,57.4"/>
			<path id="XMLID_24650_" class="st0" d="M62.9,58.9"/>
			<line id="XMLID_24507_" class="st0" x1="80.8" y1="72.9" x2="82.7" y2="72.4"/>
			<g>
				<path id="XMLID_24506_" class="st0" d="M98.1,64.1c0,0,13.3-14.8,12.5-2.4S105.4,87,101.1,85c-4.2-2-4-5.7-4-5.7"/>
			</g>
			<path id="XMLID_24505_" class="st0" d="M61.9,111.5c-9.4-4-14.7-13-16.2-20.5c-2.2-11.3-18.4-71.9,26.5-77.5
				c0,0,35.8,2.6,30.8,44.9s-3.6,50.1-23.9,54.4c-2.4,0.5-4.7,0.8-6.9,0.8"/>
			<g>
				<path id="XMLID_24504_" class="st0" d="M68.1,64.1c0,0,13.3-14.8,12.5-2.4S75.4,87,71.1,85c-4.2-2-4-5.7-4-5.7"/>
				<path id="XMLID_24503_" class="st0" d="M71.9,65.2c0,0,5.3-6.8,6.1-3.3"/>
				<path id="XMLID_24502_" class="st0" d="M69.7,70.1c0,0,7-1.2,5.7,2.7c-1.3,3.9-4,6.3-4.8,1.8"/>
			</g>
			<path id="XMLID_24501_" class="st0" d="M101,23.7c-0.2-1.4-0.8-3.2-2.2-5.4c0,0,0,0,0,0l0,0c-0.3-0.5-0.6-1-1-1.5
				C93.4,10.5,86.2,6.9,79.6,5c-28.3-11.5-31.2,12.8-31.3,22c0,0.9,53.1,8.7,53.1,8.7S102.4,27.9,101,23.7z"/>
			<g>
				<path id="XMLID_24500_" class="st0" d="M41.9,35.7c0,0,24.4-2.4,15.6,17.3S21.4,49.5,41.9,35.7z"/>
				<path id="XMLID_24499_" class="st0" d="M39.6,49.3c0,0,3.7-1.5,3.3,2.3C42.4,55.4,37.1,52.6,39.6,49.3z"/>
				<path id="XMLID_24498_" class="st0" d="M46.5,31.8c0,0-12.7-0.7-6.8,6.3S56,38,56.9,35C57.7,32,46.5,31.8,46.5,31.8z"/>
				<path id="XMLID_24497_" class="st0" d="M40.6,56.8c0,0-3.5,0.5-2,2.2c1.6,1.7,2.3-0.4,4.9,0.9"/>
				<path id="XMLID_24496_" class="st0" d="M44.5,56c0,0,4.8-0.9,10.2,0.8"/>
			</g>
			<g>
				<path class="st2" d="M60.3,130c2-4.7-2.7-37.4-2.7-37.4h31.9c0,0-7,33-5.9,36.6L60.3,130z"/>
				<path class="st3" d="M89.4,92.6c0,0-7,33-5.9,36.6"/>
				<path class="st3" d="M57.6,92.6c0,0,4.7,32.7,2.7,37.4"/>
			</g>
			<path id="XMLID_24495_" class="st0" d="M60.1,129.3c-0.6-0.2-1.1-0.7-1.7-1.5"/>
			<path id="XMLID_24494_" class="st3" d="M72,129.2c4.4,2.5,9.6,1.2,13.3-2.1"/>
			<path id="XMLID_24493_" class="st0" d="M85.6,131c-0.2,0.1-0.4,0.2-0.6,0.3"/>
		</g>
		<g>
			<g id="XMLID_24485_">
				<path id="XMLID_24490_" class="st0" d="M63.4,438.6c0.1,0,0.1,0,0.1,0s0-1.8-0.1-4.8l-11.6-1c-0.1,0.9-0.2,1.5-0.3,1.9
					c-0.4,0.4-0.6,0.7-0.6,0.7s-7.8,8.6-15.2,10.4c-6.7,1.7-28,5.4-13.4,4.8c-2.7,0.9-3.4,1.8,2.8,2.3c0.1,0.4,0.6,0.9,1.6,1.6
					c-0.4,0.5,0.6,0.8,4.6,0.7c11.1-0.2,30.2,1,34.5-2.2C69.7,450.1,65.5,447,63.4,438.6z"/>
				<path id="XMLID_24489_" class="st0" d="M28.1,450.2c-25,1.8,0.2-2.5,7.6-4.4c7.4-1.8,15.2-10.4,15.2-10.4s0.2-0.3,0.6-0.7
					c0.1-0.4,0.2-1,0.3-1.9l11.6,1c0.1,3,0.1,4.8,0.1,4.8s0,0-0.1,0c2.2,8.4,6.3,11.6,2.5,14.4c-4.4,3.2-23.5,2-34.5,2.2"/>
				<path id="XMLID_24488_" class="st0" d="M31.4,448.5c0,0-21.4,3.5-4.4,4.4"/>
				<path id="XMLID_24487_" class="st0" d="M27,454.6c-5.7-3.6,3-3.3,3-3.3"/>
				<path id="XMLID_24486_" class="st0" d="M32.5,452.2c0,0-12.2,3.1-1.2,2.9"/>
			</g>
			<path class="st0" d="M65.9,258.3c0,0-2.5,39.5-2.3,70c0.1,3.6,0.2,6.9,0.2,9.9c0,0,0,0,0,0.1c0.2,7.5-0.1,10.8-0.7,11.5
				c-2,17.6,0.2,84.9,0.2,84.9l-11.6,1c0,0,2.2-40.4,0.8-67.9C51,340.2,49,266.6,46.6,262.8"/>
			<path id="XMLID_24484_" class="st0" d="M59.4,343.8c0,0-0.9-1.3-2-0.7"/>
			<path id="XMLID_24483_" class="st0" d="M54.8,354.2c0,0,1.8-0.6,2-1"/>
			<g id="XMLID_24481_">
				<path id="XMLID_24482_" class="st0" d="M61.3,432.4c4.2-3.4,7.7,4.9,1.5,5.6"/>
			</g>
			<g id="XMLID_24479_">
				<path id="XMLID_24480_" class="st0" d="M54.3,346.6c-4.2-3.4-7.7,4.9-1.5,5.6"/>
			</g>
		</g>
		<g>
			<g id="XMLID_24477_">
				<path id="XMLID_24478_" class="st0" d="M42.8,202.7c-4.2-3.4-7.7,4.9-1.5,5.6"/>
			</g>
			<path id="XMLID_24476_" class="st0" d="M38.8,174.8c0.6,14.3,1.1,27.7,1.5,36.4c1.4,27.5-0.8,67.9-0.8,67.9l11.6-1
				c0,0-2.4-71.3,0-86.3c0.5-3,0.6-8.2,0.5-14.6"/>
			<path id="XMLID_24475_" class="st0" d="M44.9,202.9c0,0-1.6,0.1-1.6,1.4"/>
			<path id="XMLID_24474_" class="st0" d="M45.4,207.2c0,0,1.8-0.6,2-1"/>
			<g id="XMLID_24461_">
				<path id="XMLID_24473_" class="st2" d="M53.7,297.8c-2,0.5-3.4,0.6-4.3,0.5c0.6,7.4-3,5.2-4.8,3.7l-0.7,0.3
					c-2.4,4.3-5.2,0.1-6-1.3l-0.1,1.1c-3.8,1.9-3.6-2.2-3.3-4.4c-0.4,0.7-1.4,1.3-4,1.3c-5-0.1,9.6-24,9.6-24l11.1,2.6
					C51.1,277.5,63.8,295.2,53.7,297.8z"/>
				<path id="XMLID_24472_" class="st0" d="M51.1,277.5c0,0,12.7,17.7,2.6,20.3c-2,0.5-3.4,0.6-4.3,0.5c0.6,7.4-3,5.2-4.8,3.7
					l-0.7,0.3c-2.4,4.3-5.2,0.1-6-1.3l-0.1,1.1c-3.8,1.9-3.6-2.2-3.3-4.4c-0.4,0.7-1.4,1.3-4,1.3c-5-0.1,9.6-24,9.6-24"/>
				<g id="XMLID_24465_">
					<g id="XMLID_24467_">
						<path id="XMLID_24471_" class="st1" d="M40,274.9c0,0-14.6,23.9-9.6,24s4.1-2.4,4.3-2.6c0,0-2.1,8.4,3,5.7"/>
						<path id="XMLID_24470_" class="st1" d="M37.6,300.6c0,0,3.6,7.2,6.4,1.5"/>
						<path id="XMLID_24469_" class="st1" d="M51.1,277.5c0,0,12.7,17.7,2.6,20.3s-5.1-4.5-2.2-4.3"/>
						<path id="XMLID_24468_" class="st1" d="M43.8,301.2c0,0,6.7,7.1,5.6-3.7l-0.4-5.4"/>
					</g>
					<path id="XMLID_24466_" class="st1" d="M41.8,274.3c0,0-6.8-6.9,0-7.4"/>
				</g>
				<path id="XMLID_24464_" class="st0" d="M44.3,291.6c0,0,0.3,3.3-0.3,5.1"/>
				<path id="XMLID_24463_" class="st0" d="M38.9,295.6c0,0-0.1,2.4-0.6,2.4"/>
				<path id="XMLID_24462_" class="st1" d="M38.3,286c-0.5,1.5-2.5,4.8-2.5,4.8"/>
			</g>
		</g>
		<path id="XMLID_24460_" class="st0" d="M58.4,121.5c-7,1.4-13.1,3.1-14.6,5.1c-4.1,5.4-11.9,66.4-2.6,67.2s10.6,0.5,10.6-2.8
			c0-3.3,6.3-41.6,5-44.6"/>
	</g>
	<path class="st1" d="M101.7,36.6c0,0-2,18.7-53.1-8.7C48.6,28,91.9,24.7,101.7,36.6z"/>
</g>
</svg>
