<?xml version="1.0" encoding="utf-8"?>
<!-- Generator: Adobe Illustrator 22.1.0, SVG Export Plug-In . SVG Version: 6.00 Build 0)  -->
<svg version="1.1" id="Layer_1" xmlns="http://www.w3.org/2000/svg" xmlns:xlink="http://www.w3.org/1999/xlink" x="0px" y="0px"
	 viewBox="0 0 129 456.6" style="enable-background:new 0 0 129 456.6;" xml:space="preserve">
<style type="text/css">
	.st0{fill:#FDF5EA;stroke:#5B5B4B;stroke-linecap:round;stroke-miterlimit:10;}
	.st1{fill:#FDF5EA;}
	.st2{fill:#FDF5EA;stroke:#5B5B4B;stroke-linecap:round;stroke-linejoin:round;stroke-miterlimit:10;}
	.st3{fill:none;stroke:#5B5B4B;stroke-linecap:round;stroke-miterlimit:10;}
</style>
<g>
	<g>
		<g id="XMLID_24917_">
			<path id="XMLID_24918_" class="st0" d="M59.3,208.5c-4.2-3.4-7.7,4.9-1.5,5.6"/>
		</g>
		<path id="XMLID_24916_" class="st0" d="M53.1,132.6c1.5,24.8,2.7,65.5,3.7,84.4c1.4,27.5-0.8,67.9-0.8,67.9l11.6-1
			c0,0-2.4-71.3,0-86.3c1.8-11.2-1.6-54.3-2.3-76.8"/>
		<path id="XMLID_24915_" class="st0" d="M61.4,208.6c0,0-1.6,0.1-1.6,1.4"/>
		<path id="XMLID_24914_" class="st0" d="M61.9,213c0,0,1.8-0.6,2-1"/>
		<g id="XMLID_24901_">
			<path id="XMLID_24913_" class="st1" d="M70.2,303.5c-2,0.5-3.4,0.6-4.3,0.5c0.6,7.4-3,5.2-4.8,3.7l-0.7,0.3
				c-2.4,4.3-5.2,0.1-6-1.3l-0.1,1.1c-3.8,1.9-3.6-2.2-3.3-4.4c-0.4,0.7-1.4,1.3-4,1.3c-5-0.1,9.6-24,9.6-24l11.1,2.6
				C67.6,283.3,80.3,301,70.2,303.5z"/>
			<path id="XMLID_24912_" class="st0" d="M67.6,283.3c0,0,12.7,17.7,2.6,20.3c-2,0.5-3.4,0.6-4.3,0.5c0.6,7.4-3,5.2-4.8,3.7
				l-0.7,0.3c-2.4,4.3-5.2,0.1-6-1.3l-0.1,1.1c-3.8,1.9-3.6-2.2-3.3-4.4c-0.4,0.7-1.4,1.3-4,1.3c-5-0.1,9.6-24,9.6-24"/>
			<g id="XMLID_24905_">
				<g id="XMLID_24907_">
					<path id="XMLID_24911_" class="st2" d="M56.5,280.7c0,0-14.6,23.9-9.6,24s4.1-2.4,4.3-2.6c0,0-2.1,8.4,3,5.7"/>
					<path id="XMLID_24910_" class="st2" d="M54.1,306.4c0,0,3.6,7.2,6.4,1.5"/>
					<path id="XMLID_24909_" class="st2" d="M67.6,283.3c0,0,12.7,17.7,2.6,20.3c-10.1,2.6-5.1-4.5-2.2-4.3"/>
					<path id="XMLID_24908_" class="st2" d="M60.2,307c0,0,6.7,7.1,5.6-3.7l-0.4-5.4"/>
				</g>
				<path id="XMLID_24906_" class="st2" d="M58.3,280.1c0,0-6.8-6.9,0-7.4"/>
			</g>
			<path id="XMLID_24904_" class="st0" d="M60.8,297.4c0,0,0.3,3.3-0.3,5.1"/>
			<path id="XMLID_24903_" class="st0" d="M55.4,301.4c0,0-0.1,2.4-0.6,2.4"/>
			<path id="XMLID_24902_" class="st2" d="M54.8,291.8c-0.5,1.5-2.5,4.8-2.5,4.8"/>
		</g>
	</g>
	<g>
		<path class="st0" d="M56.3,259.2c0,0,2.5,39.5,2.3,70c-0.1,3.6-0.2,6.9-0.2,9.9c0,0,0,0,0,0.1c-0.2,7.5,0.1,10.8,0.7,11.5
			c2,17.6-0.2,84.9-0.2,84.9l11.6,1c0,0-2.2-40.4-0.8-67.9c1.4-27.5,3.4-101.1,5.8-104.9"/>
		<path class="st0" d="M70.5,434.6l-5.8-0.5l-5.8,0.5c0,0.3-0.1,0.5-0.1,0.7c0,1.5-0.1,2.7-0.1,3.3c0,0.2,0,0.3,0,0.4
			c0,0.2,0,0.3,0,0.3c0,0,0,0,0.1,0c-1.2,4.7-3.1,7.8-3.8,10.1c-0.1,0.3-0.1,0.5-0.2,0.7c0,0.2-0.1,0.5-0.1,0.7c0,0.4,0,0.8,0.2,1.2
			c0.1,0.4,0.4,0.8,0.7,1.1c0.2,0.2,0.4,0.4,0.6,0.5c1.5,1.1,4.5,1.7,8.4,2c3.9-0.3,6.9-0.9,8.4-2c0.2-0.2,0.4-0.3,0.6-0.5
			c0.4-0.4,0.6-0.7,0.7-1.1c0.1-0.4,0.2-0.8,0.2-1.2c0-0.2,0-0.4-0.1-0.7c0-0.2-0.1-0.5-0.2-0.7c-0.7-2.3-2.6-5.3-3.8-10.1
			c0.1,0,0.1,0,0.1,0c0,0,0-0.1,0-0.3c0-0.1,0-0.2,0-0.4c0-0.7,0-1.8-0.1-3.3C70.6,435.1,70.6,434.9,70.5,434.6z"/>
		<path id="XMLID_24900_" class="st0" d="M65.9,344.6c0,0,1.6,0.1,1.6,1.4"/>
		<path id="XMLID_24899_" class="st0" d="M63.5,356c0,0-1.8-0.6-2-1"/>
		<g id="XMLID_24897_">
			<path id="XMLID_24898_" class="st0" d="M60.9,438c-4.2,3.4-7.7-4.9-1.5-5.6"/>
		</g>
		<g id="XMLID_24895_">
			<path id="XMLID_24896_" class="st0" d="M61.6,352.9c-5.2,1.4-5.1-7.5,0.8-5.8"/>
		</g>
		<g id="XMLID_24888_">
			<path id="XMLID_24893_" class="st0" d="M71,439.4c0.1,0,0.1,0,0.1,0s0-1.8-0.1-4.8l-11.6-1c-0.1,0.9-0.2,1.5-0.3,1.9
				c-0.4,0.4-0.6,0.7-0.6,0.7s-7.8,8.6-15.2,10.4c-6.7,1.7-28,5.4-13.4,4.8c-2.7,0.9-3.4,1.8,2.8,2.3c0.1,0.4,0.6,0.9,1.6,1.6
				c-0.4,0.5,0.6,0.8,4.6,0.7c11.1-0.2,30.2,1,34.5-2.2C77.3,451,73.2,447.9,71,439.4z"/>
			<path id="XMLID_24892_" class="st0" d="M35.7,451c-25,1.8,0.2-2.5,7.6-4.4c7.4-1.8,15.2-10.4,15.2-10.4s0.2-0.3,0.6-0.7
				c0.1-0.4,0.2-1,0.3-1.9l11.6,1c0.1,3,0.1,4.8,0.1,4.8s0,0-0.1,0c2.2,8.4,6.3,11.6,2.5,14.4c-4.4,3.2-23.5,2-34.5,2.2"/>
			<path id="XMLID_24891_" class="st0" d="M39,449.4c0,0-21.4,3.5-4.4,4.4"/>
			<path id="XMLID_24890_" class="st0" d="M34.7,455.4c-5.7-3.6,3-3.3,3-3.3"/>
			<path id="XMLID_24889_" class="st0" d="M40.1,453.1c0,0-12.2,3.1-1.2,2.9"/>
		</g>
	</g>
	<path class="st0" d="M105.6,232.6l-75.9-2.8c0,0,0.4,20.1,0.9,27.8c0,0.7,0.1,1.4,0.2,2.2c0,0.3,0.1,0.5,0.1,0.6c0,0,0,0,0,0
		c2.1,11.7,15.4,21.9,36.3,22.2c34.2,0.5,35.2-9.9,35.2-9.9c1.7-3.1,2.6-6.1,3-8.9c0.1,0,0.2,0,0.2,0S106.8,238.7,105.6,232.6z"/>
	<g>
		<path class="st1" d="M109.8,239.7c0-0.7-0.1-1.3-0.2-2c-0.4-3.6-1.4-6.8-2.2-8.5c-0.9-1.7-2.7-8.5-4.9-17.6
			c-5.3-22.4-13-59.5-15.1-74.4c-0.2-1.3-0.4-2.4-0.6-3.5c-0.3-1.4-0.7-2.7-1-3.8c0.5-4.4-2.4-8.6-7.8-11c-2.3-1.4-4.3-1.6-5.1-1.6
			c-2.2-0.4-4.7-0.6-7.5-0.5c-10.3,0.4-14.9,2.2-17,3.7l0-0.1c0,0,0,0.1,0,0.2c-1.7,1.2-1.7,2.2-1.7,2.2c-2,3.9-0.4,11.7-0.5,12.6
			c-3.8,24.8-11.4,72.7-15.8,83c-0.3,0.6-0.5,1.2-0.7,1.8c-3.9,9.6-6.6,20.9-3.3,25.2c0.2,0.2,0.3,0.4,0.5,0.6
			c1.5,1.4,3.9,1.7,7.5,0.4l0-0.2c1.3,0,3.1,0,5.1,0l52.7,2.8c0.7,0.1,1.4,0.2,2.1,0.3l0,0.1C107.7,257.2,110.4,248.3,109.8,239.7z"
			/>
		<path class="st0" d="M39.6,246.1l52.7,2.8c0.7,0.1,1.4,0.2,2.1,0.3l0,0.1c13.4,8,16-0.9,15.4-9.5c0-0.7-0.1-1.3-0.2-2
			c-0.4-3.6-1.4-6.8-2.2-8.5c-0.9-1.7-2.7-8.5-4.9-17.6c-5.3-22.4-13-59.5-15.1-74.4c-0.2-1.3-0.4-2.4-0.6-3.5
			c-0.3-1.4-0.7-2.7-1-3.8c0.5-4.4-2.4-8.6-7.8-11c-2.3-1.4-4.3-1.6-5.1-1.6c-2.2-0.4-4.7-0.6-7.5-0.5c-10.3,0.4-14.9,2.2-17,3.7
			l0-0.1c0,0,0,0.1,0,0.2c-1.7,1.2-1.7,2.2-1.7,2.2c-2,3.9-0.4,11.7-0.5,12.6c-3.8,24.8-11.4,72.7-15.8,83c-0.3,0.6-0.5,1.2-0.7,1.8
			c-3.9,9.6-6.6,20.9-3.3,25.2c0.2,0.2,0.3,0.4,0.5,0.6c1.5,1.4,3.9,1.7,7.5,0.4l0-0.2"/>
	</g>
	<g>
		<g id="XMLID_24881_">
			<path id="XMLID_24886_" class="st0" d="M82.6,439.4c0.1,0,0.1,0,0.1,0s0-1.8-0.1-4.8l-11.6-1c-0.1,0.9-0.2,1.5-0.3,1.9
				c-0.4,0.4-0.6,0.7-0.6,0.7s-7.8,8.6-15.2,10.4c-6.7,1.7-28,5.4-13.4,4.8c-2.7,0.9-3.4,1.8,2.8,2.3c0.1,0.4,0.6,0.9,1.6,1.6
				c-0.4,0.5,0.6,0.8,4.6,0.7c11.1-0.2,30.2,1,34.5-2.2C88.9,451,84.7,447.9,82.6,439.4z"/>
			<path id="XMLID_24885_" class="st0" d="M47.3,451c-25,1.8,0.2-2.5,7.6-4.4c7.4-1.8,15.2-10.4,15.2-10.4s0.2-0.3,0.6-0.7
				c0.1-0.4,0.2-1,0.3-1.9l11.6,1c0.1,3,0.1,4.8,0.1,4.8s0,0-0.1,0c2.2,8.4,6.3,11.6,2.5,14.4c-4.4,3.2-23.5,2-34.5,2.2"/>
			<path id="XMLID_24884_" class="st0" d="M50.5,449.4c0,0-21.4,3.5-4.4,4.4"/>
			<path id="XMLID_24883_" class="st0" d="M46.2,455.4c-5.7-3.6,3-3.3,3-3.3"/>
			<path id="XMLID_24882_" class="st0" d="M51.7,453.1c0,0-12.2,3.1-1.2,2.9"/>
		</g>
		<path class="st0" d="M85.1,259.2c0,0-2.5,39.5-2.3,70c0.1,3.6,0.2,6.9,0.2,9.9c0,0,0,0,0,0.1c0.2,7.5-0.1,10.8-0.7,11.5
			c-2,17.6,0.2,84.9,0.2,84.9l-11.6,1c0,0,2.2-40.4,0.8-67.9c-1.4-27.5-3.4-101.1-5.8-104.9"/>
		<path id="XMLID_24880_" class="st0" d="M78.6,344.7c0,0-0.9-1.3-2-0.7"/>
		<path id="XMLID_24879_" class="st0" d="M74,355c0,0,1.8-0.6,2-1"/>
		<g id="XMLID_24877_">
			<path id="XMLID_24878_" class="st0" d="M80.5,433.3c4.2-3.4,7.7,4.9,1.5,5.6"/>
		</g>
		<g id="XMLID_24875_">
			<path id="XMLID_24876_" class="st0" d="M73.5,347.5c-4.2-3.4-7.7,4.9-1.5,5.6"/>
		</g>
	</g>
	<g>
		<path class="st1" d="M53.4,121.9c2-4.7-2.7-37.4-2.7-37.4h31.9c0,0-7,33-5.9,36.6L53.4,121.9z"/>
		<path class="st3" d="M82.5,84.5c0,0-7,33-5.9,36.6"/>
		<path class="st3" d="M50.6,84.5c0,0,4.7,32.7,2.7,37.4"/>
	</g>
	<g id="XMLID_24830_">
		<g id="XMLID_24831_">
			<path id="XMLID_24874_" class="st0" d="M62.3,14.6c0,0,35.8,2.6,30.8,44.9s-3.6,50.1-23.9,54.4C49,118.1,38,103.3,35.8,92
				S17.4,20.1,62.3,14.6z"/>
			<path id="XMLID_24873_" class="st0" d="M71.8,4.9c0,0-4.5,3.9,1.1,5.7C78.5,12.5,76.7,2.9,71.8,4.9z"/>
			<path id="XMLID_24872_" class="st0" d="M91.1,24.6c-0.1-1.4-0.7-3.2-2-5.4c0,0,0,0,0,0l0,0c-0.3-0.5-0.6-1-0.9-1.5
				c-4-6.3-10.6-9.9-16.5-11.7C46-5.6,43.4,18.8,43.3,28c0,0.9,11.6-0.1,22.1-2.7c13.4,5.4,26,11.4,26,11.4S92.4,28.8,91.1,24.6z"/>
			<path id="XMLID_24871_" class="st0" d="M43.6,63.1c0,0,6.4,4.8,14.6,1.8"/>
			<path id="XMLID_24870_" class="st0" d="M40.3,66.2c0,0-6.5-8-6.2-12.5"/>
			<path id="XMLID_24869_" class="st0" d="M44.1,39.4c0,0-17.9,15.8,4.4,23C70.8,69.6,63.6,31.4,44.1,39.4z"/>
			<path id="XMLID_24868_" class="st0" d="M56.5,52.5c0,0,3.7-1.5,3.3,2.3C59.3,58.6,54,55.7,56.5,52.5z"/>
			<path id="XMLID_24867_" class="st0" d="M50.8,110.1c0,0-4.2,3.9,4.6,5.7s14.6-0.6,12.9-3.9"/>
			<path id="XMLID_24866_" class="st0" d="M45.5,36.3c0,0-8.2,1-2.3,6.7s17.2,0.2,16.6-1.9C59.2,39.1,58.1,35.7,45.5,36.3z"/>
			<path id="XMLID_24865_" class="st0" d="M37,31.4c0,0,13.7-5.6,29.8-2s24.5,7.3,24.5,7.3c-5.1-17.8-36.4-17.9-52.1-16.9
				s-11.5,7-11.5,7S30,29.7,37,31.4z"/>
			<path id="XMLID_24864_" class="st0" d="M37,31.4c0,0-27.2-7.5,10.4-9.2c37.6-1.7,43.8,14.5,43.8,14.5S56.5,21.6,37,31.4z"/>
			<g id="XMLID_24856_">
				<g id="XMLID_24861_">
					<path id="XMLID_24863_" class="st0" d="M25.1,70.1c0.2,2.1,0.9,3.6,2.3,3.9c0.8,0.1,1.4,0.1,1.9,0c0.4-0.1,0.8-0.3,1.1-0.4"/>
					<path id="XMLID_24862_" class="st0" d="M36,41.6c0,0-4.9,13.2-6.3,22.4"/>
				</g>
				<g id="XMLID_24857_">
					<path id="XMLID_24860_" class="st0" d="M39.9,68.2c0,0,5.1,4.2-2.1,7.1"/>
					<path id="XMLID_24859_" class="st0" d="M36.1,71.7c0.7,0.2,1.8-1.3,2.6,0c0.8,1.3-0.1,0.9-1.2,1.2
						C36.5,73.1,35.4,71.5,36.1,71.7z"/>
					<path id="XMLID_24858_" class="st0" d="M34,65.3c0,0,1.5,0,1.9,0.5"/>
				</g>
			</g>
			<path id="XMLID_24855_" class="st0" d="M42.9,70.5c0,0,4.9,2.3,5.3,2.3"/>
			<path id="XMLID_24854_" class="st0" d="M69.5,49.7c0,0,0.7,1.4-0.4,2"/>
			<path id="XMLID_24853_" class="st0" d="M65.8,64.1c0,0-0.3,1.3-0.7,1.7"/>
			<path id="XMLID_24852_" class="st0" d="M66.2,39.1c0,0,0.5-2.4,0-2.4"/>
			<path id="XMLID_24851_" class="st0" d="M45.1,35.3c0,0,2.6-0.4,2.8-0.9"/>
			<path id="XMLID_24850_" class="st0" d="M76.2,100.5c0,0-1.7,0.8-2.2,1.7"/>
			<path id="XMLID_24849_" class="st0" d="M40.4,58.4"/>
			<path id="XMLID_24848_" class="st0" d="M52.9,59.9"/>
			<line id="XMLID_24847_" class="st0" x1="54.9" y1="73.8" x2="56.7" y2="73.3"/>
			<path id="XMLID_24846_" class="st0" d="M68.1,65c0,0,13.3-14.8,12.5-2.4S75.4,88,71.2,85.9c-4.2-2-4-5.7-4-5.7"/>
			<path id="XMLID_24845_" class="st0" d="M72,66.2c0,0,5.3-6.8,6.1-3.3"/>
			<path id="XMLID_24844_" class="st0" d="M69.8,71.1c0,0,7-1.2,5.7,2.7c-1.3,3.9-4,6.3-4.8,1.8"/>
			<g id="XMLID_24841_">
				<path id="XMLID_24843_" class="st0" d="M59.4,59.3c0,0,3.5,0.5,2,2.2c-1.6,1.7-2.3-0.4-4.9,0.9"/>
				<path id="XMLID_24842_" class="st0" d="M55.5,59c0,0-8.2-0.6-13.1,0.7"/>
			</g>
			<g id="XMLID_24836_">
				<path id="XMLID_24840_" class="st0" d="M28.3,85c0,0-13.1,1.7-5.8,6.5S28.3,85,28.3,85z"/>
				<path id="XMLID_24839_" class="st0" d="M26.3,81.1c0,0-10.8-0.6-5.8,5c5,5.6,13.9-0.1,14.6-2.5S26.3,81.1,26.3,81.1z"/>
				<path id="XMLID_24838_" class="st0" d="M48,83.9c0,0-5.3-1.8-4.4,4.9s10,5.5,10.6,3.6C54.7,90.5,55.6,87.3,48,83.9z"/>
				<path id="XMLID_24837_" class="st0" d="M43.5,82.2c0,0-15.4-1.9-0.2,5.5S61,84.5,43.5,82.2z"/>
			</g>
			<g id="XMLID_24832_">
				<path id="XMLID_24835_" class="st0" d="M29.7,91.4c0,0,8,7.9,12.5,0"/>
				<path id="XMLID_24834_" class="st0" d="M31.6,90.2c0,0,2.2-2.3,3.9,0"/>
				<path id="XMLID_24833_" class="st0" d="M39.3,90.2c0,0-2.2-2.3-3.9,0"/>
			</g>
		</g>
	</g>
	<g>
		<g id="XMLID_24828_">
			<path id="XMLID_24829_" class="st0" d="M87.7,218.4c5.2,1.4,5.1-7.5-0.8-5.8"/>
		</g>
		<path id="XMLID_24827_" class="st0" d="M91.3,153.3c-1.1,23.8-2.1,53-2.9,68.2c-1.4,27.5,0.8,67.9,0.8,67.9l-11.6-1
			c0,0,2.4-71.3,0-86.3c-1.7-10.7,1.3-50.5,2.2-73.7"/>
		<g id="XMLID_24825_">
			<path id="XMLID_24826_" class="st0" d="M77.7,287c-4.8,4.9-6.2,6.6-8.7,13c-2.5,6.5,6.8-9.2,6.2-6.9c-0.6,2.3-9.3,46.9-2.1,19.5
				c7.2-27.4,4.4-9.9,4.4-9.9c0,37.6,3,7.5,3.9,2.8c0.9-4.7,7.1,25.1,6,10.3s0-16,2.5-3.7s1.2-16.6,1.2-16.6s-0.6-9-2.8-8.3"/>
		</g>
		<path id="XMLID_24824_" class="st0" d="M84.2,212.9c0,0-1.9,0.4-2,0.8"/>
		<path id="XMLID_24823_" class="st0" d="M84.5,217.5c0,0,1.5,0.3,1.9-0.9"/>
		<path id="XMLID_24822_" class="st2" d="M86.8,279c0,0,9.3,6.3,0,6.7"/>
	</g>
	<path id="XMLID_24821_" class="st0" d="M75.1,149.9c-1.5,2.9,2.8,41.5,2.6,44.8c-0.2,3.3,1.1,3.7,10.4,3.4c9.3-0.4,4.8-61.7,1-67.3
		c-1.3-2-6.6-3.9-12.8-5.5"/>
	<path id="XMLID_24820_" class="st0" d="M54,128.5c-0.6-0.2-1.1-0.7-1.7-1.5"/>
	<path id="XMLID_24819_" class="st0" d="M75.6,123.7c0,0-0.2,0.8-0.7,1.5"/>
	<path id="XMLID_24818_" class="st3" d="M57.2,128.3c4.4,2.5,9.6,1.2,13.3-2.1"/>
	<path id="XMLID_24817_" class="st0" d="M70.8,130.2c-0.2,0.1-0.4,0.2-0.6,0.3"/>
	<path id="XMLID_24816_" class="st0" d="M71.5,242.5c0,0-1.9-64.1,1.2-73.4"/>
	<g>
		<path id="XMLID_24815_" class="st0" d="M57.5,140.4c0,0-1.2,1-0.5,2"/>
		<path id="XMLID_24814_" class="st0" d="M66,139.9c0,0,1.7,0.8,2.2,1.6"/>
		<path id="XMLID_24813_" class="st0" d="M57.2,147.9c0,0-0.5-1.8-0.2-2.7"/>
		<path id="XMLID_24812_" class="st0" d="M66.5,153.7c0,0-1.7,0.7-2.7,0.5"/>
		<path id="XMLID_24811_" class="st0" d="M58.3,152.3c0,0,0.6,1.4,1.8,1"/>
		<path id="XMLID_24810_" class="st0" d="M67.9,144.9c0,0,0.3,1.3,0.7,1.7"/>
		<line id="XMLID_24809_" class="st0" x1="61.1" y1="139.5" x2="63" y2="139.5"/>
		<path id="XMLID_24808_" class="st0" d="M68.5,149.8c0,0,0.4,1.8,0.1,2.7"/>
	</g>
	<g>
		<path id="XMLID_24807_" class="st0" d="M42.1,261.3c0,0-1.1-2-0.3-3.1"/>
		<path id="XMLID_24806_" class="st0" d="M44.8,252.7c0,0-1.4,1.4-1.6,2.3"/>
		<path id="XMLID_24805_" class="st0" d="M43.9,264.7c0,0,0.6,1.9,1.3,2.5"/>
	</g>
	<path id="XMLID_24804_" class="st0" d="M40.4,218c0,0-5.6,20.3-9,21.2"/>
</g>
</svg>
