<?xml version="1.0" encoding="utf-8"?>
<!-- Generator: Adobe Illustrator 22.1.0, SVG Export Plug-In . SVG Version: 6.00 Build 0)  -->
<svg version="1.1" id="Layer_1" xmlns="http://www.w3.org/2000/svg" xmlns:xlink="http://www.w3.org/1999/xlink" x="0px" y="0px"
	 viewBox="0 0 129 456.6" style="enable-background:new 0 0 129 456.6;" xml:space="preserve">
<style type="text/css">
	.st0{fill:#FDF5EA;stroke:#5B5B4B;stroke-linecap:round;stroke-miterlimit:10;}
	.st1{fill:#FDF5EA;}
	.st2{fill:#FDF5EA;stroke:#5B5B4B;stroke-linecap:round;stroke-linejoin:round;stroke-miterlimit:10;}
	.st3{fill:none;stroke:#5B5B4B;stroke-linecap:round;stroke-miterlimit:10;}
</style>
<g>
	<g>
		<g id="XMLID_26066_">
			<path id="XMLID_26067_" class="st0" d="M40.2,353.3c-5.2,1.4-5.1-7.5,0.8-5.8"/>
		</g>
		<g id="XMLID_26064_">
			<path id="XMLID_26065_" class="st0" d="M96,347.9c4.2-3.4,7.7,4.9,1.5,5.6"/>
		</g>
		<g>
			<g id="XMLID_26062_">
				<path id="XMLID_26063_" class="st0" d="M44.5,449.8c0,0,6.1-0.6,3.9,4.3C46.2,459.1,39.3,453.2,44.5,449.8z"/>
			</g>
			<g id="XMLID_26060_">
				<path id="XMLID_26061_" class="st0" d="M33.9,451.4c0,0,4.6-0.4,2.9,3.2C35.1,458.3,30,453.9,33.9,451.4z"/>
			</g>
			<path id="XMLID_26059_" class="st0" d="M53.6,456c0,0-7.2,0.5-3.9-4.2s9.3,0.1,9.8,2.1S53.6,456,53.6,456z"/>
			<g id="XMLID_26057_">
				<path id="XMLID_26058_" class="st0" d="M38.8,450.6c0,0,5.3-0.5,3.4,3.8C40.3,458.7,34.3,453.6,38.8,450.6z"/>
			</g>
			<g id="XMLID_26055_">
				<path id="XMLID_26056_" class="st0" d="M29.5,451.8c0,0,4.1-0.4,2.6,2.9C30.6,458.1,26,454.2,29.5,451.8z"/>
			</g>
		</g>
		<g>
			<g id="XMLID_26053_">
				<path id="XMLID_26054_" class="st0" d="M92.2,449.8c0,0-6.1-0.6-3.9,4.3S97.4,453.2,92.2,449.8z"/>
			</g>
			<g id="XMLID_26051_">
				<path id="XMLID_26052_" class="st0" d="M102.9,451.4c0,0-4.6-0.4-2.9,3.2C101.6,458.3,106.7,453.9,102.9,451.4z"/>
			</g>
			<path id="XMLID_26050_" class="st0" d="M83.1,456c0,0,7.2,0.5,3.9-4.2c-3.3-4.7-9.3,0.1-9.8,2.1C76.7,455.9,83.1,456,83.1,456z"
				/>
			<g id="XMLID_26048_">
				<path id="XMLID_26049_" class="st0" d="M98,450.6c0,0-5.3-0.5-3.4,3.8C96.5,458.7,102.4,453.6,98,450.6z"/>
			</g>
			<g id="XMLID_26046_">
				<path id="XMLID_26047_" class="st0" d="M107.2,451.8c0,0-4.1-0.4-2.6,2.9C106.1,458.1,110.7,454.2,107.2,451.8z"/>
			</g>
		</g>
		<g>
			<path id="XMLID_26045_" class="st0" d="M9.2,162.2c0.9,20.7,1.6,42.7,2.3,55.2c1.4,27.5-0.8,67.9-0.8,67.9l11.6-1
				c0,0-2.4-71.3,0-86.3c1.8-11.2-1.6-54.3-2.3-76.8"/>
			<g id="XMLID_26032_">
				<path id="XMLID_26044_" class="st1" d="M24.8,303.9c-2,0.5-3.4,0.6-4.3,0.5c0.6,7.4-3,5.2-4.8,3.7l-0.7,0.3
					c-2.4,4.3-5.2,0.1-6-1.3l-0.1,1.1c-3.8,1.9-3.6-2.2-3.3-4.4c-0.4,0.7-1.4,1.3-4,1.3c-5-0.1,9.6-24,9.6-24l11.1,2.6
					C22.2,283.7,35,301.4,24.8,303.9z"/>
				<path id="XMLID_26043_" class="st0" d="M22.2,283.7c0,0,12.7,17.7,2.6,20.3c-2,0.5-3.4,0.6-4.3,0.5c0.6,7.4-3,5.2-4.8,3.7
					l-0.7,0.3c-2.4,4.3-5.2,0.1-6-1.3l-0.1,1.1c-3.8,1.9-3.6-2.2-3.3-4.4c-0.4,0.7-1.4,1.3-4,1.3c-5-0.1,9.6-24,9.6-24"/>
				<g id="XMLID_26036_">
					<g id="XMLID_26038_">
						<path id="XMLID_26042_" class="st2" d="M11.1,281.1c0,0-14.6,23.9-9.6,24s4.1-2.4,4.3-2.6c0,0-2.1,8.4,3,5.7"/>
						<path id="XMLID_26041_" class="st2" d="M8.7,306.8c0,0,3.6,7.2,6.4,1.5"/>
						<path id="XMLID_26040_" class="st2" d="M22.2,283.7c0,0,12.7,17.7,2.6,20.3c-10.1,2.6-5.1-4.5-2.2-4.3"/>
						<path id="XMLID_26039_" class="st2" d="M14.9,307.4c0,0,6.7,7.1,5.6-3.7l-0.4-5.4"/>
					</g>
					<path id="XMLID_26037_" class="st2" d="M12.9,280.5c0,0-6.8-6.9,0-7.4"/>
				</g>
				<path id="XMLID_26035_" class="st0" d="M15.4,297.8c0,0,0.3,3.3-0.3,5.1"/>
				<path id="XMLID_26034_" class="st0" d="M10,301.8c0,0-0.1,2.4-0.6,2.4"/>
				<path id="XMLID_26033_" class="st2" d="M9.5,292.2C9,293.7,7,297,7,297"/>
			</g>
			<g id="XMLID_26030_">
				<path id="XMLID_26031_" class="st0" d="M13.9,208.9c-4.2-3.4-7.7,4.9-1.5,5.6"/>
			</g>
			<path id="XMLID_26029_" class="st0" d="M16,209c0,0-1.6,0.1-1.6,1.4"/>
			<path id="XMLID_26028_" class="st0" d="M16.5,213.4c0,0,1.8-0.6,2-1"/>
		</g>
		<g>
			<path id="XMLID_26027_" class="st0" d="M127,149.2c-1.1,23.8-2.1,53-2.9,68.2c-1.4,27.5,0.8,67.9,0.8,67.9l-11.6-1
				c0,0,2.4-71.3,0-86.3c-1.7-10.7,1.3-50.5,2.2-73.7"/>
			<g id="XMLID_26025_">
				<path id="XMLID_26026_" class="st0" d="M113.3,282.9c-4.8,4.9-6.2,6.6-8.7,13c-2.5,6.5,6.8-9.2,6.2-6.9
					c-0.6,2.3-9.3,46.9-2.1,19.5c7.2-27.4,4.4-9.9,4.4-9.9c0,37.6,3,7.5,3.9,2.8c0.9-4.7,7.1,25.1,6,10.3c-1.1-14.7,0-16,2.5-3.7
					s1.2-16.6,1.2-16.6s-0.6-9-2.8-8.3"/>
			</g>
			<path id="XMLID_26024_" class="st2" d="M122.4,274.9c0,0,9.3,6.3,0,6.7"/>
			<g id="XMLID_26022_">
				<path id="XMLID_26023_" class="st0" d="M123.3,214.3c5.2,1.4,5.1-7.5-0.8-5.8"/>
			</g>
			<path id="XMLID_26021_" class="st0" d="M119.8,208.8c0,0-1.9,0.4-2,0.8"/>
			<path id="XMLID_26020_" class="st0" d="M120.1,213.4c0,0,1.5,0.3,1.9-0.9"/>
		</g>
		<path class="st0" d="M100.7,259.6c0,0-2.5,39.5-2.3,70c0.1,3.6,0.2,6.9,0.2,9.9c0,0,0,0,0,0.1c0.2,7.5-0.1,10.8-0.7,11.5
			c-2,17.6,0.2,84.9,0.2,84.9l-11.6,1c0,0,2.2-40.4,0.8-67.9c-1.4-27.5-3.4-101.1-5.8-104.9"/>
		<path class="st0" d="M36.2,259.6c0,0,2.5,39.5,2.3,70c-0.1,3.6-0.2,6.9-0.2,9.9c0,0,0,0,0,0.1c-0.2,7.5,0.1,10.8,0.7,11.5
			c2,17.6-0.2,84.9-0.2,84.9l11.6,1c0,0-2.2-40.4-0.8-67.9c1.4-27.5,3.4-101.1,5.8-104.9"/>
		<path class="st0" d="M105.4,233l-75.9-2.8c0,0,0.4,20.1,0.9,27.8c0,0.7,0.1,1.4,0.2,2.2c0,0.3,0.1,0.5,0.1,0.6c0,0,0,0,0,0
			c2.1,11.7,15.4,21.9,36.3,22.2c34.2,0.5,35.2-9.9,35.2-9.9c1.7-3.1,2.6-6.1,3-8.9c0.1,0,0.2,0,0.2,0S106.7,239.1,105.4,233z"/>
		<path class="st0" d="M18.5,128.1c0,0,1.1-5.3,50.1-7.6s69.4,10.1,38.5,20C76.1,150.3-5.2,145.2,18.5,128.1z"/>
		<path id="XMLID_26019_" class="st0" d="M27,142.1c1.4,3-5,41.2-5,44.6c0,3.3-1.3,3.7-10.6,2.8s-1.5-61.9,2.6-67.2
			c1.5-2,7.6-3.8,14.6-5.1c0,0,36.5-5.7,82.6-1.4c6.4,0.6,11.4,3.5,12.8,5.5c3.8,5.6,8.4,66.9-1,67.3c-9.3,0.4-10.6-0.1-10.4-3.4
			c0.2-3.3-4.1-41.9-2.6-44.8"/>
		<path class="st0" d="M97.9,435l-5.8-0.5l-5.8,0.5c0,0.3-0.1,0.5-0.1,0.7c0,1.5-0.1,2.7-0.1,3.3c0,0.2,0,0.3,0,0.4
			c0,0.2,0,0.3,0,0.3c0,0,0,0,0.1,0c-1.2,4.7-3.1,7.8-3.8,10.1c-0.1,0.3-0.1,0.5-0.2,0.7c0,0.2-0.1,0.5-0.1,0.7c0,0.4,0,0.8,0.2,1.2
			c0.1,0.4,0.4,0.8,0.7,1.1c0.2,0.2,0.4,0.4,0.6,0.5c1.5,1.1,4.5,1.7,8.4,2c3.9-0.3,6.9-0.9,8.4-2c0.2-0.2,0.4-0.3,0.6-0.5
			c0.4-0.4,0.6-0.7,0.7-1.1c0.1-0.4,0.2-0.8,0.2-1.2c0-0.2,0-0.4-0.1-0.7c0-0.2-0.1-0.5-0.2-0.7c-0.7-2.3-2.6-5.3-3.8-10.1
			c0.1,0,0.1,0,0.1,0c0,0,0-0.1,0-0.3c0-0.1,0-0.2,0-0.4c0-0.7,0-1.8-0.1-3.3C98,435.5,97.9,435.3,97.9,435z"/>
		<path class="st0" d="M50.4,435l-5.8-0.5l-5.8,0.5c0,0.3-0.1,0.5-0.1,0.7c0,1.5-0.1,2.7-0.1,3.3c0,0.2,0,0.3,0,0.4
			c0,0.2,0,0.3,0,0.3c0,0,0,0,0.1,0c-1.2,4.7-3.1,7.8-3.8,10.1c-0.1,0.3-0.1,0.5-0.2,0.7c0,0.2-0.1,0.5-0.1,0.7c0,0.4,0,0.8,0.2,1.2
			c0.1,0.4,0.4,0.8,0.7,1.1c0.2,0.2,0.4,0.4,0.6,0.5c1.5,1.1,4.5,1.7,8.4,2c3.9-0.3,6.9-0.9,8.4-2c0.2-0.2,0.4-0.3,0.6-0.5
			c0.4-0.4,0.6-0.7,0.7-1.1c0.1-0.4,0.2-0.8,0.2-1.2c0-0.2,0-0.4-0.1-0.7c0-0.2-0.1-0.5-0.2-0.7c-0.7-2.3-2.6-5.3-3.8-10.1
			c0.1,0,0.1,0,0.1,0c0,0,0-0.1,0-0.3c0-0.1,0-0.2,0-0.4c0-0.7,0-1.8-0.1-3.3C50.5,435.5,50.4,435.3,50.4,435z"/>
		<g>
			<path class="st1" d="M113,136.7c0,0-4.3,78.7-3.3,89.3s4,33.1-8.2,28.6c-12.2-4.6-69-4.6-69-4.6c-10.9,3.8-8.4-19.9-7.3-28.8
				s-0.8-81-0.8-81"/>
			<path class="st0" d="M32.7,250c-10.9,3.8-8.4-19.9-7.3-28.8s-0.8-81-0.8-81"/>
			<path class="st0" d="M93.8,252.8c-14.3-2.1-40.2-2.6-53.2-2.8"/>
			<path class="st0" d="M113.2,136.7c0,0-4.3,78.7-3.3,89.3s4,33.1-8.2,28.6c-0.7-0.3-1.6-0.5-2.6-0.8"/>
		</g>
		<path id="XMLID_26018_" class="st0" d="M89.6,345.1c0,0,0.9-1.3,2-0.7"/>
		<path id="XMLID_26017_" class="st0" d="M94.3,355.4c0,0-1.8-0.6-2-1"/>
		<path id="XMLID_26016_" class="st0" d="M45.8,345c0,0,1.6,0.1,1.6,1.4"/>
		<path id="XMLID_26015_" class="st0" d="M43.4,356.4c0,0-1.8-0.6-2-1"/>
		<path id="XMLID_26014_" class="st0" d="M105.1,170.2c0,0-5.9,63.9-3.5,73.3"/>
		<path id="XMLID_26013_" class="st0" d="M32.2,204.2c0,0,1.9-64.1-1.2-73.4"/>
		<g id="XMLID_26011_">
			<path id="XMLID_26012_" class="st0" d="M40.8,438.4c-4.2,3.4-7.7-4.9-1.5-5.6"/>
		</g>
		<g id="XMLID_26009_">
			<path id="XMLID_26010_" class="st0" d="M96.1,433.7c4.2-3.4,7.7,4.9,1.5,5.6"/>
		</g>
		<g>
			<g>
				<g id="XMLID_26000_">
					<g id="XMLID_26001_">
						<path id="XMLID_26008_" class="st0" d="M64.3,10.9c0,0,35.8,2.6,30.8,44.9c-5,42.3-3.6,50.1-23.9,54.4
							C51.1,114.4,40,99.6,37.8,88.4C35.6,77.1,19.4,16.4,64.3,10.9z"/>
						<g>
							<path id="XMLID_26007_" class="st0" d="M94,59.7c0,0,5.3-6.8,6.1-3.3"/>
							<path id="XMLID_26006_" class="st0" d="M91.8,64.6c0,0,7-1.2,5.7,2.7c-1.3,3.9-4,6.3-4.8,1.8"/>
							<path id="XMLID_26005_" class="st0" d="M90.2,58.5c0,0,13.3-14.8,12.5-2.4s-5.2,25.3-9.5,23.3c-4.2-2-4-5.7-4-5.7"/>
						</g>
						<g>
							<path id="XMLID_26004_" class="st0" d="M36.1,59.7c0,0-5.3-6.8-6.1-3.3"/>
							<path id="XMLID_26003_" class="st0" d="M38.3,64.6c0,0-7-1.2-5.7,2.7c1.3,3.9,4,6.3,4.8,1.8"/>
							<path id="XMLID_26002_" class="st0" d="M39.9,58.5c0,0-13.3-14.8-12.5-2.4s5.2,25.3,9.5,23.3c4.2-2,4-5.7,4-5.7"/>
						</g>
					</g>
					<g>
						<path class="st1" d="M77,126.4c-2-4.7,2.7-37.4,2.7-37.4H47.8c0,0,7,33,5.9,36.6L77,126.4z"/>
						<path class="st3" d="M47.8,88.9c0,0,7,33,5.9,36.6"/>
						<path class="st3" d="M79.7,88.9c0,0-4.7,32.7-2.7,37.4"/>
					</g>
				</g>
				<g>
					<path id="XMLID_25999_" class="st0" d="M64.7,0.8c0,0-4.5,3.9,1.1,5.7S69.6-1.2,64.7,0.8z"/>
					<g>
						<path class="st0" d="M67.2,4.8c-6.4-1.9-37.3-9.4-31,26.3l56.3,1.9C98.3,1,77.7,2.3,67.2,4.8z"/>
						<path class="st0" d="M68.4,5.1c0,0-39.2-13.9-32.2,25.9"/>
						<path class="st0" d="M92.5,32.9c7.6-42.3-31-26.4-31-26.4"/>
					</g>
				</g>
				<path id="XMLID_25998_" class="st0" d="M45.5,20.4c0,0-31.1,17.5,21,19.6C118.6,42,83.9,9.4,45.5,20.4z"/>
			</g>
		</g>
	</g>
	<path id="XMLID_25997_" class="st3" d="M50.7,119.2c6.1,5.7,17.9,12.8,30.4-0.6"/>
</g>
</svg>
