<?xml version="1.0" encoding="utf-8"?>
<!-- Generator: Adobe Illustrator 22.1.0, SVG Export Plug-In . SVG Version: 6.00 Build 0)  -->
<svg version="1.1" id="Layer_1" xmlns="http://www.w3.org/2000/svg" xmlns:xlink="http://www.w3.org/1999/xlink" x="0px" y="0px"
	 viewBox="0 0 91 91" style="enable-background:new 0 0 91 91;" xml:space="preserve">
<style type="text/css">
	.st0{fill:#FDF5EA;stroke:#5B5B4B;stroke-linecap:round;stroke-miterlimit:10;}
</style>
<g>
	<path id="XMLID_655_" class="st0" d="M18,1.1c0,0-0.6-0.3-0.6,0.7c-0.7,33.7,0,87.3,0,87.3c0.1,1,0.6,0.7,0.6,0.7
		c19.1,1.4,54.6,0,54.6,0s0.6,0.3,0.6-0.7c1.4-52.3,0-87.9,0-87.9c-0.1-1-0.6-0.7-0.6-0.7S42.7,0.5,18,1.1z"/>
	<path id="XMLID_654_" class="st0" d="M62.4,11.1c0,0,1.5-0.2,1.6,1c0,0,1.8,22.1,0,49.4c-0.1,1.3-1.6,1-1.6,1s-20,0.2-34-0.5
		c0,0-1.5,0.2-1.6-1c0,0-1.2-21.1,0-48.5c0.1-1.3,1.6-1,1.6-1L62.4,11.1z"/>
	<path id="XMLID_656_" class="st0" d="M49.3,70.5c0,0-8.9-3.3-11.3,5.1c-2.5,8.4,5,10.1,6,10c1-0.1,9.7-0.8,9-6.3
		C52.3,73.7,50.9,71.4,49.3,70.5z"/>
</g>
</svg>
