<?xml version="1.0" encoding="utf-8"?>
<!-- Generator: Adobe Illustrator 22.1.0, SVG Export Plug-In . SVG Version: 6.00 Build 0)  -->
<svg version="1.1" id="Layer_1" xmlns="http://www.w3.org/2000/svg" xmlns:xlink="http://www.w3.org/1999/xlink" x="0px" y="0px"
	 viewBox="0 0 45.7 46" style="enable-background:new 0 0 45.7 46;" xml:space="preserve">
<style type="text/css">
	.st0{fill:#FDF5EA;stroke:#5B5B4B;stroke-linecap:round;stroke-miterlimit:10;}
</style>
<g id="XMLID_26664_">
	<path id="XMLID_2_" class="st0" d="M34.1,21.4c0-2.4-0.1-5.1-0.3-8c0,0-0.9-13.1-11.7-12.9S11.6,22.3,11.6,22.3S11,39,18.6,43.4
		c5.6,3.2,12.3,4.2,14.6-9.1"/>
	<path id="XMLID_3_" class="st0" d="M16,34.3c-1.6-0.1-2.6-0.2-2.6-0.2s-16-2.9-12.3-11s6.8-11.4,14.1-10.4"/>
	<path id="XMLID_1_" class="st0" d="M25,13.3c2.7,0,4.5-0.2,4.5-0.2S49.3,13,44.4,24.8c-1.7,4.1-6,6.5-10.9,7.9"/>
	<path id="XMLID_26666_" class="st0" d="M33.2,34.4c0.6-3.3,0.9-7.6,0.8-13"/>
</g>
</svg>
