<?xml version="1.0" encoding="utf-8"?>
<!-- Generator: Adobe Illustrator 22.1.0, SVG Export Plug-In . SVG Version: 6.00 Build 0)  -->
<svg version="1.1" id="Layer_1" xmlns="http://www.w3.org/2000/svg" xmlns:xlink="http://www.w3.org/1999/xlink" x="0px" y="0px"
	 viewBox="0 0 129 456.6" style="enable-background:new 0 0 129 456.6;" xml:space="preserve">
<style type="text/css">
	.st0{fill:#FDF5EA;stroke:#5B5B4B;stroke-linecap:round;stroke-miterlimit:10;}
	.st1{fill:#FDF5EA;}
	.st2{fill:#FDF5EA;stroke:#5B5B4B;stroke-linecap:round;stroke-linejoin:round;stroke-miterlimit:10;}
</style>
<g>
	<g>
		<g id="XMLID_49034_">
			<path id="XMLID_49035_" class="st0" d="M95.5,208.9c4.2-3.4,7.7,4.9,1.5,5.6"/>
		</g>
		<path id="XMLID_49033_" class="st0" d="M99.5,179.6c-0.6,14.8-1.1,28.8-1.6,37.8c-1.4,27.5,0.8,67.9,0.8,67.9l-11.6-1
			c0,0,2.4-71.3,0-86.3c-0.5-3.2-0.6-9-0.4-16.2"/>
		<path id="XMLID_49032_" class="st0" d="M93.4,209c0,0,1.6,0.1,1.6,1.4"/>
		<path id="XMLID_49031_" class="st0" d="M93,213.4c0,0-1.8-0.6-2-1"/>
		<g id="XMLID_49018_">
			<path id="XMLID_49030_" class="st1" d="M84.6,303.9c2,0.5,3.4,0.6,4.3,0.5c-0.6,7.4,3,5.2,4.8,3.7l0.7,0.3c2.4,4.3,5.2,0.1,6-1.3
				l0.1,1.1c3.8,1.9,3.6-2.2,3.3-4.4c0.4,0.7,1.4,1.3,4,1.3c5-0.1-9.6-24-9.6-24l-11.1,2.6C87.2,283.7,74.5,301.4,84.6,303.9z"/>
			<path id="XMLID_49029_" class="st0" d="M87.2,283.7c0,0-12.7,17.7-2.6,20.3c2,0.5,3.4,0.6,4.3,0.5c-0.6,7.4,3,5.2,4.8,3.7
				l0.7,0.3c2.4,4.3,5.2,0.1,6-1.3l0.1,1.1c3.8,1.9,3.6-2.2,3.3-4.4c0.4,0.7,1.4,1.3,4,1.3c5-0.1-9.6-24-9.6-24"/>
			<g id="XMLID_49022_">
				<g id="XMLID_49024_">
					<path id="XMLID_49028_" class="st2" d="M98.3,281.1c0,0,14.6,23.9,9.6,24s-4.1-2.4-4.3-2.6c0,0,2.1,8.4-3,5.7"/>
					<path id="XMLID_49027_" class="st2" d="M100.7,306.8c0,0-3.6,7.2-6.4,1.5"/>
					<path id="XMLID_49026_" class="st2" d="M87.2,283.7c0,0-12.7,17.7-2.6,20.3c10.1,2.6,5.1-4.5,2.2-4.3"/>
					<path id="XMLID_49025_" class="st2" d="M94.6,307.4c0,0-6.7,7.1-5.6-3.7l0.4-5.4"/>
				</g>
				<path id="XMLID_49023_" class="st2" d="M96.5,280.5c0,0,6.8-6.9,0-7.4"/>
			</g>
			<path id="XMLID_49021_" class="st0" d="M94,297.8c0,0-0.3,3.3,0.3,5.1"/>
			<path id="XMLID_49020_" class="st0" d="M99.4,301.8c0,0,0.1,2.4,0.6,2.4"/>
			<path id="XMLID_49019_" class="st2" d="M100,292.2c0.5,1.5,2.5,4.8,2.5,4.8"/>
		</g>
	</g>
	<g>
		<path class="st0" d="M86.4,259.6c0,0-2.5,39.5-2.3,70c0.1,3.6,0.2,6.9,0.2,9.9c0,0,0,0,0,0.1c0.2,7.5-0.1,10.8-0.7,11.5
			c-2,17.6,0.2,84.9,0.2,84.9l-11.6,1c0,0,2.2-40.4,0.8-67.9c-1.4-27.5-3.4-101.1-5.8-104.9"/>
		<path class="st0" d="M83.6,435l-5.8-0.5L72,435c0,0.3-0.1,0.5-0.1,0.7c0,1.5-0.1,2.7-0.1,3.3c0,0.2,0,0.3,0,0.4c0,0.2,0,0.3,0,0.3
			c0,0,0,0,0.1,0c-1.2,4.7-3.1,7.8-3.8,10.1c-0.1,0.3-0.1,0.5-0.2,0.7c0,0.2-0.1,0.5-0.1,0.7c0,0.4,0,0.8,0.2,1.2
			c0.1,0.4,0.4,0.8,0.7,1.1c0.2,0.2,0.4,0.4,0.6,0.5c1.5,1.1,4.5,1.7,8.4,2c3.9-0.3,6.9-0.9,8.4-2c0.2-0.2,0.4-0.3,0.6-0.5
			c0.4-0.4,0.6-0.7,0.7-1.1c0.1-0.4,0.2-0.8,0.2-1.2c0-0.2,0-0.4-0.1-0.7c0-0.2-0.1-0.5-0.2-0.7c-0.7-2.3-2.6-5.3-3.8-10.1
			c0.1,0,0.1,0,0.1,0c0,0,0-0.1,0-0.3c0-0.1,0-0.2,0-0.4c0-0.7,0-1.8-0.1-3.3C83.7,435.5,83.6,435.3,83.6,435z"/>
		<g>
			<g id="XMLID_49016_">
				<path id="XMLID_49017_" class="st0" d="M77.9,449.8c0,0-6.1-0.6-3.9,4.3S83.1,453.2,77.9,449.8z"/>
			</g>
			<g id="XMLID_49014_">
				<path id="XMLID_49015_" class="st0" d="M88.6,451.4c0,0-4.6-0.4-2.9,3.2C87.3,458.3,92.4,453.9,88.6,451.4z"/>
			</g>
			<path id="XMLID_49013_" class="st0" d="M68.8,456c0,0,7.2,0.5,3.9-4.2c-3.3-4.7-9.3,0.1-9.8,2.1C62.4,455.9,68.8,456,68.8,456z"
				/>
			<g id="XMLID_49011_">
				<path id="XMLID_49012_" class="st0" d="M83.7,450.6c0,0-5.3-0.5-3.4,3.8C82.2,458.7,88.1,453.6,83.7,450.6z"/>
			</g>
			<g id="XMLID_49009_">
				<path id="XMLID_49010_" class="st0" d="M92.9,451.8c0,0-4.1-0.4-2.6,2.9C91.8,458.1,96.4,454.2,92.9,451.8z"/>
			</g>
		</g>
		<path id="XMLID_49008_" class="st0" d="M75.3,345.1c0,0,0.9-1.3,2-0.7"/>
		<path id="XMLID_49007_" class="st0" d="M80,355.4c0,0-1.8-0.6-2-1"/>
		<g id="XMLID_49005_">
			<path id="XMLID_49006_" class="st0" d="M81.8,433.7c4.2-3.4,7.7,4.9,1.5,5.6"/>
		</g>
		<g id="XMLID_49003_">
			<path id="XMLID_49004_" class="st0" d="M80.5,347.9c4.2-3.4,7.7,4.9,1.5,5.6"/>
		</g>
	</g>
	<path class="st0" d="M101.1,233l-75.9-2.8c0,0,0.4,20.1,0.9,27.8c0,0.7,0.1,1.4,0.2,2.2c0,0.3,0.1,0.5,0.1,0.6c0,0,0,0,0,0
		c2.1,11.7,15.4,21.9,36.3,22.2c34.2,0.5,35.2-9.9,35.2-9.9c1.7-3.1,2.6-6.1,3-8.9c0.1,0,0.2,0,0.2,0S102.4,239.1,101.1,233z"/>
	<path id="XMLID_49002_" class="st0" d="M83.6,147c-1.5,2.9,2.8,41.5,2.6,44.8c-0.2,3.3,1.1,3.7,10.4,3.4c9.3-0.4,4.8-61.7,1-67.3
		c-1.3-2-6.6-3.9-12.8-5.5"/>
	<g>
		<path class="st0" d="M88.4,123.6c-6-2.1-14.8-3.3-25.7-2.8c-31.9,1.4-32.5,6.7-32.5,6.7c-2.3,2.5-3,4.9-2.5,6.9
			s-3.8,77.9-4.9,86.8c-1,8.4-3.3,29.8,5.4,29.2c0.6,0,1.3-0.1,2.1-0.4c0.8,0,3.7,0,8,0.1l52.7,2.8c3.4,0.5,6.2,1.1,8.1,1.7
			c1.2,0.4,2.2,0.6,3.1,0.6c8.8,0,6.2-19.5,5.3-29.2c-0.8-8-7.8-54.6-11.2-76.8C95.3,141.9,93.6,125.4,88.4,123.6z"/>
	</g>
	<path id="XMLID_49001_" class="st0" d="M79.3,155.6c0,0-1.1,64.2,2.1,73.4"/>
	<path id="XMLID_49000_" class="st0" d="M36.3,226.7c0,0,13.5-62.7,12.2-72.4"/>
	<g>
		<path class="st0" d="M36.9,259.6c0,0,2.5,39.5,2.3,70c-0.1,3.6-0.2,6.9-0.2,9.9c0,0,0,0,0,0.1c-0.2,7.5,0.1,10.8,0.7,11.5
			c2,17.6-0.2,84.9-0.2,84.9l11.6,1c0,0-2.2-40.4-0.8-67.9c1.4-27.5,3.4-101.1,5.8-104.9"/>
		<path class="st0" d="M51.1,435l-5.8-0.5l-5.8,0.5c0,0.3-0.1,0.5-0.1,0.7c0,1.5-0.1,2.7-0.1,3.3c0,0.2,0,0.3,0,0.4
			c0,0.2,0,0.3,0,0.3c0,0,0,0,0.1,0c-1.2,4.7-3.1,7.8-3.8,10.1c-0.1,0.3-0.1,0.5-0.2,0.7c0,0.2-0.1,0.5-0.1,0.7c0,0.4,0,0.8,0.2,1.2
			c0.1,0.4,0.4,0.8,0.7,1.1c0.2,0.2,0.4,0.4,0.6,0.5c1.5,1.1,4.5,1.7,8.4,2c3.9-0.3,6.9-0.9,8.4-2c0.2-0.2,0.4-0.3,0.6-0.5
			c0.4-0.4,0.6-0.7,0.7-1.1c0.1-0.4,0.2-0.8,0.2-1.2c0-0.2,0-0.4-0.1-0.7c0-0.2-0.1-0.5-0.2-0.7c-0.7-2.3-2.6-5.3-3.8-10.1
			c0.1,0,0.1,0,0.1,0c0,0,0-0.1,0-0.3c0-0.1,0-0.2,0-0.4c0-0.7,0-1.8-0.1-3.3C51.2,435.5,51.1,435.3,51.1,435z"/>
		<g>
			<g id="XMLID_48998_">
				<path id="XMLID_48999_" class="st0" d="M45.2,449.8c0,0,6.1-0.6,3.9,4.3S40,453.2,45.2,449.8z"/>
			</g>
			<g id="XMLID_48996_">
				<path id="XMLID_48997_" class="st0" d="M34.6,451.4c0,0,4.6-0.4,2.9,3.2C35.8,458.3,30.7,453.9,34.6,451.4z"/>
			</g>
			<path id="XMLID_48995_" class="st0" d="M54.3,456c0,0-7.2,0.5-3.9-4.2c3.3-4.7,9.3,0.1,9.8,2.1S54.3,456,54.3,456z"/>
			<g id="XMLID_48993_">
				<path id="XMLID_48994_" class="st0" d="M39.5,450.6c0,0,5.3-0.5,3.4,3.8C40.9,458.7,35,453.6,39.5,450.6z"/>
			</g>
			<g id="XMLID_48991_">
				<path id="XMLID_48992_" class="st0" d="M30.2,451.8c0,0,4.1-0.4,2.6,2.9C31.3,458.1,26.7,454.2,30.2,451.8z"/>
			</g>
		</g>
		<path id="XMLID_48990_" class="st0" d="M46.5,345c0,0,1.6,0.1,1.6,1.4"/>
		<path id="XMLID_48989_" class="st0" d="M44.1,356.4c0,0-1.8-0.6-2-1"/>
		<g id="XMLID_48987_">
			<path id="XMLID_48988_" class="st0" d="M41.5,438.4c-4.2,3.4-7.7-4.9-1.5-5.6"/>
		</g>
		<g id="XMLID_48985_">
			<path id="XMLID_48986_" class="st0" d="M42.2,353.3c-5.2,1.4-5.1-7.5,0.8-5.8"/>
		</g>
	</g>
	<g>
		<g id="XMLID_48983_">
			<path id="XMLID_48984_" class="st0" d="M24.2,214.3c-5.2,1.4-5.1-7.5,0.8-5.8"/>
		</g>
		<path id="XMLID_48982_" class="st0" d="M21.8,179.6c0.6,14.8,1.1,28.8,1.6,37.8c1.4,27.5-0.8,67.9-0.8,67.9l11.6-1
			c0,0-2.4-71.3,0-86.3c0.6-4.1,0.6-12.4,0.3-22.5"/>
		<g id="XMLID_48980_">
			<path id="XMLID_48981_" class="st0" d="M34.1,282.9c4.8,4.9,6.2,6.6,8.7,13c2.5,6.5-6.8-9.2-6.2-6.9c0.6,2.3,9.3,46.9,2.1,19.5
				c-7.2-27.4-4.4-9.9-4.4-9.9c0,37.6-3,7.5-3.9,2.8c-0.9-4.7-7.1,25.1-6,10.3s0-16-2.5-3.7s-1.2-16.6-1.2-16.6s0.6-9,2.8-8.3"/>
		</g>
		<path id="XMLID_48979_" class="st0" d="M27.6,208.8c0,0,1.9,0.4,2,0.8"/>
		<path id="XMLID_48978_" class="st0" d="M27.3,213.4c0,0-1.5,0.3-1.9-0.9"/>
		<path id="XMLID_48977_" class="st2" d="M25,274.9c0,0-9.3,6.3,0,6.7"/>
	</g>
	<path id="XMLID_48976_" class="st0" d="M49.7,121.5c0,0,9.2,17.2,22,2.8"/>
	<g>
		<g>
			<path id="XMLID_48975_" class="st0" d="M91.3,137.2c0,0,1.2,1,0.5,2"/>
			<path id="XMLID_48974_" class="st0" d="M82.8,136.7c0,0-1.7,0.8-2.2,1.6"/>
			<path id="XMLID_48973_" class="st0" d="M91.6,144.7c0,0,0.5-1.8,0.2-2.7"/>
			<path id="XMLID_48972_" class="st0" d="M82.3,150.5c0,0,1.7,0.7,2.7,0.5"/>
			<path id="XMLID_48971_" class="st0" d="M90.5,149.1c0,0-0.6,1.4-1.8,1"/>
			<path id="XMLID_48970_" class="st0" d="M80.9,141.7c0,0-0.3,1.3-0.7,1.7"/>
			<line id="XMLID_48969_" class="st0" x1="87.6" y1="136.3" x2="85.8" y2="136.3"/>
			<path id="XMLID_48968_" class="st0" d="M80.3,146.6c0,0-0.4,1.8-0.1,2.7"/>
		</g>
		<g>
			<path id="XMLID_48967_" class="st0" d="M76.7,270.1c0,0,1.1-2,0.3-3.1"/>
			<path id="XMLID_48966_" class="st0" d="M74,261.6c0,0,1.3,1.3,1.5,2.3"/>
			<path id="XMLID_48965_" class="st0" d="M74.8,273.3c0,0-0.5,1.8-1.3,2.4"/>
		</g>
	</g>
	<g id="XMLID_38879_">
		<path id="XMLID_48964_" class="st0" d="M48.9,116.6c-0.1-2.4,0.7-9.1,0.8-11.3c0.1-2,0.4-3.7,0.9-5.2
			c-7.8-13.3,13.7-28.5,21.4-11.5c2.4,5.3,2.1,15.7,2,17.4c-0.1,2.3-0.1,10-0.1,12c0,11.1-16.6,20-23.1,5.5"/>
		<g id="XMLID_38880_">
			<g id="XMLID_48960_">
				<path id="XMLID_48963_" class="st0" d="M87.9,61.2c0,0,12-15.8,12.3-3.5s-3.1,25.7-7.5,24s-4.5-5.3-4.5-5.3"/>
				<path id="XMLID_48962_" class="st0" d="M91.8,62.1c0,0,4.7-7.2,5.8-3.8"/>
				<path id="XMLID_48961_" class="st0" d="M90,67.1c0,0,6.9-1.8,5.9,2.2s-3.4,6.6-4.7,2.2"/>
			</g>
			<path id="XMLID_48959_" class="st0" d="M52,5.6c0,0,4.5,3.9-1.1,5.7S47.1,3.6,52,5.6z"/>
			<path id="XMLID_48958_" class="st0" d="M61.5,15.3c0,0-35.8,2.6-30.8,44.9s3.6,50.1,23.9,54.4S85.8,104,88,92.7
				S106.4,20.8,61.5,15.3z"/>
			<path id="XMLID_48957_" class="st0" d="M32.7,25.3c0.1-1.4,0.7-3.2,2-5.4c0,0,0,0,0,0l0,0c0.3-0.5,0.6-1,0.9-1.5
				c4-6.3,10.6-9.9,16.5-11.7c25.7-11.5,28.3,12.8,28.4,22c0,0.9-11.6-0.1-22.1-2.7c-13.4,5.4-26,11.4-26,11.4S31.4,29.5,32.7,25.3z
				"/>
			<path id="XMLID_48956_" class="st0" d="M60.2,63.8c0,0-6.4,4.8-14.6,1.8"/>
			<path id="XMLID_48955_" class="st0" d="M75.8,64c0,0,10.3,2.2,12.5,1.3"/>
			<path id="XMLID_48954_" class="st0" d="M74,110.8c0,0,4.2,3.9-4.6,5.7c-8.8,1.7-14.6-0.6-12.9-3.9"/>
			<path id="XMLID_48953_" class="st0" d="M86.8,32.1c0,0-13.7-5.6-29.8-2s-24.5,7.3-24.5,7.3c5.1-17.8,36.4-17.9,52.1-16.9
				s11.5,7,11.5,7S93.8,30.4,86.8,32.1z"/>
			<path id="XMLID_48952_" class="st0" d="M86.8,32.1c0,0,27.2-7.5-10.4-9.2S32.5,37.3,32.5,37.3S67.3,22.3,86.8,32.1z"/>
			<g>
				<path id="XMLID_48951_" class="st0" d="M62.5,66.9c0,0,6.5-8,6.2-12.5"/>
				<g id="XMLID_48948_">
					<path id="XMLID_48950_" class="st0" d="M73.7,67.8c-0.2,2.1-0.9,3.6-2.3,3.9c-0.8,0.1-1.4,0.1-1.9,0c-0.4-0.1-0.8-0.3-1.1-0.4"
						/>
					<path id="XMLID_48949_" class="st0" d="M66.7,42.3c0,0,4.9,13.2,6.3,22.4"/>
				</g>
				<g id="XMLID_48942_">
					<path id="XMLID_48947_" class="st0" d="M76,68.9c0,0,4.8,5.5-2.9,7.1"/>
					<path id="XMLID_48946_" class="st0" d="M62.9,68.9c0,0-5.1,4.2,2.1,7.1"/>
					<path id="XMLID_48945_" class="st0" d="M66.7,72.4c-0.7,0.2-1.8-1.3-2.6,0c-0.8,1.3,0.1,0.9,1.2,1.2
						C66.3,73.8,67.4,72.2,66.7,72.4z"/>
					<path id="XMLID_48944_" class="st0" d="M73.9,74.3c1.4-0.1,1.8-1.2,1-1.8c-0.3-0.2-1.1,0.2-1.9,0.6
						C72.4,73.4,73.9,74.3,73.9,74.3z"/>
					<path id="XMLID_48943_" class="st0" d="M68.7,66c0,0-1.5,0-1.9,0.5"/>
				</g>
				<path id="XMLID_48941_" class="st0" d="M78.8,72.3c0,0,4.2,2.1,5.4,2.5"/>
				<path id="XMLID_48940_" class="st0" d="M59.9,71.2c0,0-4.9,2.3-5.3,2.3"/>
			</g>
			<path id="XMLID_48939_" class="st0" d="M39.2,50.4c0,0-0.7,1.4,0.4,2"/>
			<path id="XMLID_48938_" class="st0" d="M43,64.8c0,0,0.3,1.3,0.7,1.7"/>
			<path id="XMLID_48937_" class="st0" d="M42.6,39.8c0,0-0.5-2.4,0-2.4"/>
			<path id="XMLID_48936_" class="st0" d="M82.5,31.7c0,0-2.3,0.3-2,0.7"/>
			<path id="XMLID_48935_" class="st0" d="M68.7,36c0,0-2.6-0.4-2.8-0.9"/>
			<path id="XMLID_48934_" class="st0" d="M76.5,100.4c0,0-1.9,0.4-2,0.8"/>
			<path id="XMLID_48933_" class="st0" d="M60.6,101.2c0,0,1.7,0.8,2.2,1.7"/>
			<path id="XMLID_48932_" class="st0" d="M78.3,59.1"/>
			<path id="XMLID_48931_" class="st0" d="M65.8,60.6"/>
			<line id="XMLID_48930_" class="st0" x1="47.9" y1="74.5" x2="46.1" y2="74"/>
			<path id="XMLID_48928_" class="st0" d="M35.6,65.7c0,0-13.3-14.8-12.5-2.4s5.2,25.3,9.5,23.3s4-5.7,4-5.7"/>
			<path id="XMLID_48883_" class="st0" d="M31.8,66.9c0,0-5.3-6.8-6.1-3.3"/>
			<path id="XMLID_39380_" class="st0" d="M34,71.8c0,0-7-1.2-5.7,2.7c1.3,3.9,4,6.3,4.8,1.8"/>
			<g>
				<path id="XMLID_39379_" class="st0" d="M86.9,37.4c0,0-24.4-2.4-15.6,17.3S107.4,51.1,86.9,37.4z"/>
				<path id="XMLID_39378_" class="st0" d="M89.2,51c0,0-3.7-1.5-3.3,2.3C86.3,57.1,91.7,54.2,89.2,51z"/>
				<path id="XMLID_39377_" class="st0" d="M59.7,40.1c0,0,17.9,15.8-4.4,23S40.2,32.1,59.7,40.1z"/>
				<path id="XMLID_39376_" class="st0" d="M47.3,53.2c0,0-3.7-1.5-3.3,2.3C44.4,59.3,49.8,56.4,47.3,53.2z"/>
				<path id="XMLID_39375_" class="st0" d="M58.2,37c0,0,8.2,1,2.3,6.7S43.4,43.9,44,41.9C44.6,39.8,45.7,36.4,58.2,37z"/>
				<path id="XMLID_39374_" class="st0" d="M82.2,33.5c0,0,12.7-0.7,6.8,6.3c-5.9,7.1-16.3-0.2-17.2-3.2
					C71.1,33.6,82.2,33.5,82.2,33.5z"/>
				<g id="XMLID_38890_">
					<path id="XMLID_39373_" class="st0" d="M88.2,58.4c0,0,3.5,0.5,2,2.2s-2.3-0.4-4.9,0.9"/>
					<path id="XMLID_39372_" class="st0" d="M44.4,60c0,0-3.5,0.5-2,2.2c1.6,1.7,2.3-0.4,4.9,0.9"/>
					<path id="XMLID_38892_" class="st0" d="M48.3,59.7c0,0,8.2-0.6,13.1,0.7"/>
					<path id="XMLID_38891_" class="st0" d="M84.2,57.7c0,0-4.8-0.9-10.2,0.8"/>
				</g>
			</g>
			<g id="XMLID_38885_">
				<path id="XMLID_38889_" class="st0" d="M78.5,85.7c0,0,13.1,1.7,5.8,6.5C77,96.9,78.5,85.7,78.5,85.7z"/>
				<path id="XMLID_38888_" class="st0" d="M80.5,81.8c0,0,10.8-0.6,5.8,5c-5,5.6-13.9-0.1-14.6-2.5S80.5,81.8,80.5,81.8z"/>
				<path id="XMLID_38887_" class="st0" d="M58.8,84.6c0,0,5.3-1.8,4.4,4.9c-0.9,6.7-10,5.5-10.6,3.6S51.2,88,58.8,84.6z"/>
				<path id="XMLID_38886_" class="st0" d="M63.3,82.9c0,0,15.4-1.9,0.2,5.5C48.4,95.7,45.8,85.1,63.3,82.9z"/>
			</g>
			<g id="XMLID_38881_">
				<path id="XMLID_38884_" class="st0" d="M77,92.1c0,0-8,7.9-12.5,0"/>
				<path id="XMLID_38883_" class="st0" d="M75.2,90.9c0,0-2.2-2.3-3.9,0"/>
				<path id="XMLID_38882_" class="st0" d="M67.5,90.9c0,0,2.2-2.3,3.9,0"/>
			</g>
		</g>
	</g>
	<path id="XMLID_38878_" class="st0" d="M41.7,123.1c-7,1.4-13.1,3.1-14.6,5.1c-4.1,5.4-11.9,66.4-2.6,67.2s10.6,0.5,10.6-2.8
		c0-3.3,6.3-41.6,5-44.6"/>
	<path id="XMLID_38877_" class="st0" d="M100.9,227.5c0,0-7.5,19.6-5.3,22.5"/>
</g>
</svg>
