<?xml version="1.0" encoding="utf-8"?>
<!-- Generator: Adobe Illustrator 22.1.0, SVG Export Plug-In . SVG Version: 6.00 Build 0)  -->
<svg version="1.1" xmlns="http://www.w3.org/2000/svg" xmlns:xlink="http://www.w3.org/1999/xlink" x="0px" y="0px"
	 viewBox="0 0 1450.8 1440" style="enable-background:new 0 0 1450.8 1440;" xml:space="preserve">
<style type="text/css">
	.st0{opacity:5.000000e-02;fill:#FFFFFF;}
</style>
<g id="Layer_5">
</g>
<g id="Layer_3">
</g>
<g id="Layer_2">
	<g id="XMLID_36591_">
		<path id="XMLID_36599_" class="st0" d="M1337.5,307.4c0,0-1070.6-910.9-1318,403.6S1964.5,1359.6,1337.5,307.4z"/>
		<path id="XMLID_36598_" class="st0" d="M1352.3,612.1c0,0-560.5-1094.9-1200.6-115S1506.7,1672.7,1352.3,612.1z"/>
		<path id="XMLID_36597_" class="st0" d="M1010.7,246.7c0,0-1003.3-323.9-797.4,658S1747.1,795.8,1010.7,246.7z"/>
		<path id="XMLID_36596_" class="st0" d="M777.5,250.1c0,0-875.7,70.6-404.1,760.9S1519.5,438.1,777.5,250.1z"/>
		<path id="XMLID_36595_" class="st0" d="M994.9,959.4c0,0,215.9-668.9-438.6-531.6S628.8,1450.3,994.9,959.4z"/>
		<path id="XMLID_36594_" class="st0" d="M830.4,982.8c0,0,341.6-401.5-151.4-494.2S435.8,1217.9,830.4,982.8z"/>
		<path id="XMLID_36593_" class="st0" d="M705.3,927.5c0,0,312.8-160.1,32.9-343S402.3,971.6,705.3,927.5z"/>
		<path id="XMLID_36592_" class="st0" d="M649.5,829.3c0,0,175.1-14.1,80.8-152.2S501.1,791.7,649.5,829.3z"/>
	</g>
</g>
</svg>
