<?xml version="1.0" encoding="utf-8"?>
<!-- Generator: Adobe Illustrator 22.1.0, SVG Export Plug-In . SVG Version: 6.00 Build 0)  -->
<svg version="1.1" id="Layer_1" xmlns="http://www.w3.org/2000/svg" xmlns:xlink="http://www.w3.org/1999/xlink" x="0px" y="0px"
	 viewBox="0 0 1281.1 720.7" style="enable-background:new 0 0 1281.1 720.7;" xml:space="preserve">
<style type="text/css">
	.st0{fill:none;stroke:#5B5B4B;stroke-linecap:round;stroke-miterlimit:10;}
	.st1{fill:none;stroke:#35423E;stroke-linecap:round;stroke-miterlimit:10;}
</style>
<g>
	<g id="XMLID_60_">
		<g id="XMLID_70_">
			
				<rect id="XMLID_78_" x="618" y="57.5" transform="matrix(5.681101e-10 -1 1 5.681101e-10 -57.0292 1338.0297)" class="st0" width="44.9" height="1280"/>
			
				<rect id="XMLID_77_" x="618" y="12.6" transform="matrix(5.685959e-10 -1 1 5.685959e-10 -12.0915 1293.092)" class="st0" width="44.9" height="1280"/>
			
				<rect id="XMLID_76_" x="618" y="-32.3" transform="matrix(5.681101e-10 -1 1 5.681101e-10 32.8461 1248.1544)" class="st0" width="44.9" height="1280"/>
			
				<rect id="XMLID_75_" x="618" y="-77.3" transform="matrix(5.685550e-10 -1 1 5.685550e-10 77.7837 1203.2168)" class="st0" width="44.9" height="1280"/>
			
				<rect id="XMLID_74_" x="618" y="-122.2" transform="matrix(5.681509e-10 -1 1 5.681509e-10 122.7213 1158.2792)" class="st0" width="44.9" height="1280"/>
			
				<rect id="XMLID_73_" x="618" y="-167.2" transform="matrix(5.685550e-10 -1 1 5.685550e-10 167.6589 1113.3416)" class="st0" width="44.9" height="1280"/>
			
				<rect id="XMLID_72_" x="618" y="-212.1" transform="matrix(5.683534e-10 -1 1 5.683534e-10 212.5965 1068.4039)" class="st0" width="44.9" height="1280"/>
			
				<rect id="XMLID_71_" x="618" y="-257" transform="matrix(5.683534e-10 -1 1 5.683534e-10 257.5341 1023.4663)" class="st0" width="44.9" height="1280"/>
		</g>
		<g id="XMLID_61_">
			<rect id="XMLID_69_" x="0.5" y="360.5" class="st0" width="160" height="359.5"/>
			<rect id="XMLID_68_" x="160.5" y="360.5" class="st0" width="160" height="359.5"/>
			<rect id="XMLID_67_" x="320.5" y="360.5" class="st0" width="160" height="359.5"/>
			<rect id="XMLID_66_" x="480.5" y="360.5" class="st0" width="160" height="359.5"/>
			<rect id="XMLID_65_" x="640.5" y="360.5" class="st0" width="160" height="359.5"/>
			<rect id="XMLID_64_" x="800.5" y="360.5" class="st0" width="160" height="359.5"/>
			<rect id="XMLID_63_" x="960.5" y="360.5" class="st0" width="160" height="359.5"/>
			<rect id="XMLID_62_" x="1120.5" y="360.5" class="st0" width="160" height="359.5"/>
		</g>
	</g>
	<g>
		<g>
			<line class="st1" x1="641.4" y1="361.2" x2="641.1" y2="720.2"/>
			<line class="st1" x1="0.6" y1="360.5" x2="1280.6" y2="360.5"/>
		</g>
		<path class="st0" d="M0.4,719.9l640.3-359.4L0.4,719.9z"/>
		<path class="st0" d="M0.6,630.3l639.7-270.1L0.6,630.3z"/>
		<g>
			<path class="st0" d="M0.6,540.4l639.7-180.1L0.6,540.4z"/>
		</g>
		<path class="st0" d="M0.6,450.4l639.7-90.2L0.6,450.4z"/>
		<line class="st0" x1="0.6" y1="360.5" x2="640.4" y2="360.2"/>
		<path class="st0" d="M1280.6,719.9L640.4,360.5L1280.6,719.9z"/>
		<path class="st0" d="M1280.4,630.3L640.6,360.2L1280.4,630.3z"/>
		<path class="st0" d="M1280.4,540.4L640.6,360.2L1280.4,540.4z"/>
		<path class="st0" d="M1280.4,450.4l-639.7-90.2L1280.4,450.4z"/>
		<line class="st0" x1="1280.4" y1="360.5" x2="640.6" y2="360.2"/>
		<line id="XMLID_59_" class="st1" x1="640.6" y1="360.5" x2="800.6" y2="720.2"/>
		<line id="XMLID_58_" class="st1" x1="960.6" y1="720.2" x2="640.6" y2="360.5"/>
		<line id="XMLID_57_" class="st1" x1="1120.6" y1="720.2" x2="640.6" y2="360.5"/>
		<line id="XMLID_54_" class="st1" x1="640.6" y1="360.5" x2="480.6" y2="720.2"/>
		<line id="XMLID_2_" class="st1" x1="320.6" y1="720.2" x2="640.6" y2="360.5"/>
		<line class="st1" x1="640.6" y1="360.5" x2="160.6" y2="720.2"/>
		<line class="st1" x1="640.6" y1="360.5" x2="0.6" y2="405.1"/>
		<line class="st1" x1="1280.6" y1="405.1" x2="640.6" y2="360.5"/>
	</g>
</g>
</svg>
