<?xml version="1.0" encoding="utf-8"?>
<!-- Generator: Adobe Illustrator 22.1.0, SVG Export Plug-In . SVG Version: 6.00 Build 0)  -->
<svg version="1.1" id="Layer_1" xmlns="http://www.w3.org/2000/svg" xmlns:xlink="http://www.w3.org/1999/xlink" x="0px" y="0px"
	 viewBox="0 0 129 456.6" style="enable-background:new 0 0 129 456.6;" xml:space="preserve">
<style type="text/css">
	.st0{fill:#FDF5EA;stroke:#5B5B4B;stroke-linecap:round;stroke-miterlimit:10;}
	.st1{fill:#FDF5EA;}
	.st2{fill:#FDF5EA;stroke:#5B5B4B;stroke-linecap:round;stroke-linejoin:round;stroke-miterlimit:10;}
</style>
<g>
	<g>
		<g id="XMLID_25174_">
			<path id="XMLID_25175_" class="st0" d="M37.5,207.7c-4.2-3.4-7.7,4.9-1.5,5.6"/>
		</g>
		<path id="XMLID_25173_" class="st0" d="M33.1,169.1c0.7,18.1,1.4,36.3,1.9,47.1c1.4,27.5-0.8,67.9-0.8,67.9l11.6-1
			c0,0-2.4-71.3,0-86.3c0.7-4.6,0.6-14.4,0.1-25.9"/>
		<path id="XMLID_25172_" class="st0" d="M39.6,207.9c0,0-1.6,0.1-1.6,1.4"/>
		<path id="XMLID_25171_" class="st0" d="M40.1,212.2c0,0,1.8-0.6,2-1"/>
		<g id="XMLID_25158_">
			<path id="XMLID_25170_" class="st1" d="M48.4,302.8c-2,0.5-3.4,0.6-4.3,0.5c0.6,7.4-3,5.2-4.8,3.7l-0.7,0.3
				c-2.4,4.3-5.2,0.1-6-1.3l-0.1,1.1c-3.8,1.9-3.6-2.2-3.3-4.4c-0.4,0.7-1.4,1.3-4,1.3c-5-0.1,9.6-24,9.6-24l11.1,2.6
				C45.8,282.5,58.6,300.2,48.4,302.8z"/>
			<path id="XMLID_25169_" class="st0" d="M45.8,282.5c0,0,12.7,17.7,2.6,20.3c-2,0.5-3.4,0.6-4.3,0.5c0.6,7.4-3,5.2-4.8,3.7
				l-0.7,0.3c-2.4,4.3-5.2,0.1-6-1.3l-0.1,1.1c-3.8,1.9-3.6-2.2-3.3-4.4c-0.4,0.7-1.4,1.3-4,1.3c-5-0.1,9.6-24,9.6-24"/>
			<g id="XMLID_25162_">
				<g id="XMLID_25164_">
					<path id="XMLID_25168_" class="st2" d="M34.7,279.9c0,0-14.6,23.9-9.6,24s4.1-2.4,4.3-2.6c0,0-2.1,8.4,3,5.7"/>
					<path id="XMLID_25167_" class="st2" d="M32.3,305.6c0,0,3.6,7.2,6.4,1.5"/>
					<path id="XMLID_25166_" class="st2" d="M45.8,282.5c0,0,12.7,17.7,2.6,20.3s-5.1-4.5-2.2-4.3"/>
					<path id="XMLID_25165_" class="st2" d="M38.5,306.2c0,0,6.7,7.1,5.6-3.7l-0.4-5.4"/>
				</g>
				<path id="XMLID_25163_" class="st2" d="M36.5,279.3c0,0-6.8-6.9,0-7.4"/>
			</g>
			<path id="XMLID_25161_" class="st0" d="M39,296.6c0,0,0.3,3.3-0.3,5.1"/>
			<path id="XMLID_25160_" class="st0" d="M33.6,300.6c0,0-0.1,2.4-0.6,2.4"/>
			<path id="XMLID_25159_" class="st2" d="M33.1,291c-0.5,1.5-2.5,4.8-2.5,4.8"/>
		</g>
	</g>
	<path id="XMLID_25157_" class="st0" d="M52.7,118.3c-7,1.4-13.1,3.1-14.6,5.1c-4.1,5.4-11.9,66.4-2.6,67.2
		c9.3,0.9,10.6,0.5,10.6-2.8s6.3-41.6,5-44.6"/>
	<g>
		<path class="st0" d="M59.3,448.7c-0.4-1.2-1-2.6-1.8-4.3c-0.7-1.6-1.4-3.5-2-5.8c0.1,0,0.1,0,0.1,0s0,0,0-0.1c0-0.4,0-2.1-0.1-4.7
			l-10.4-0.9l-0.6,0l-0.6,0c-0.1,0.7-0.1,1.3-0.2,1.6c0,0,0,0.1,0,0.1c-0.1,0.1-0.1,0.2-0.2,0.2c-0.2,0.3-0.4,0.5-0.4,0.5
			s-0.4,0.4-1.2,1.1c-1.3,7.3-6.4,11.7-12.4,14.2c0.1,0.6,0.3,1.2,0.9,1.7c0.2,0.2,0.4,0.4,0.6,0.5c0.8,0.6,2.1,1,3.7,1.3
			c1.2,0.2,2.6,0.4,4.2,0.6c1,0.1,2,0.2,3.1,0.2c0.8,0,1.7,0.1,2.5,0.1c0.9,0,1.7,0,2.5-0.1c1.1,0,2.1-0.1,3.1-0.2
			c1.6-0.1,3-0.3,4.2-0.6c1.6-0.3,2.9-0.8,3.7-1.3c0.2-0.2,0.4-0.3,0.6-0.5c0.7-0.7,1-1.5,0.9-2.3C59.5,449.6,59.4,449.2,59.3,448.7
			z"/>
		<path class="st0" d="M40.9,259.6c0,0,2.5,39.5,2.3,70c-0.1,3.6-0.2,6.9-0.2,9.9c0,0,0,0,0,0.1c-0.2,7.5,0.1,10.8,0.7,11.5
			c2,17.6-0.2,84.9-0.2,84.9l11.6,1c0,0-2.2-40.4-0.8-67.9c1.4-27.5,3.4-101.1,5.8-104.9"/>
		<g>
			<g id="XMLID_25155_">
				<path id="XMLID_25156_" class="st0" d="M20.2,451.8c0,0,4.1-0.4,2.6,2.9C21.3,458.1,16.7,454.2,20.2,451.8z"/>
			</g>
			<g id="XMLID_25153_">
				<path id="XMLID_25154_" class="st0" d="M22.5,451.4c0,0,4.6-0.4,2.9,3.2C23.8,458.3,18.7,453.9,22.5,451.4z"/>
			</g>
			<g id="XMLID_25151_">
				<path id="XMLID_25152_" class="st0" d="M25.4,450.6c0,0,5.3-0.5,3.4,3.8C26.9,458.7,20.9,453.6,25.4,450.6z"/>
			</g>
			<g id="XMLID_25149_">
				<path id="XMLID_25150_" class="st0" d="M29.1,449.8c0,0,6.1-0.6,3.9,4.3C30.8,459.1,24,453.2,29.1,449.8z"/>
			</g>
			<path id="XMLID_25148_" class="st0" d="M36.3,456c0,0-7.2,0.5-3.9-4.2s9.3,0.1,9.8,2.1S36.3,456,36.3,456z"/>
		</g>
		<path id="XMLID_25147_" class="st0" d="M50.5,345c0,0,1.6,0.1,1.6,1.4"/>
		<path id="XMLID_25146_" class="st0" d="M48,356.4c0,0-1.8-0.6-2-1"/>
		<g id="XMLID_25144_">
			<path id="XMLID_25145_" class="st0" d="M45.4,438.4c-4.2,3.4-7.7-4.9-1.5-5.6"/>
		</g>
		<g id="XMLID_25142_">
			<path id="XMLID_25143_" class="st0" d="M46.1,353.3c-5.2,1.4-5.1-7.5,0.8-5.8"/>
		</g>
	</g>
	<path class="st0" d="M30.9,231.8l75.9-2.8c0,0-0.4,20.1-0.9,27.8c0,0.7-0.1,1.4-0.2,2.2c0,0.3-0.1,0.5-0.1,0.6c0,0,0,0,0,0
		c-2.1,11.7-15.4,21.9-36.3,22.2c-34.2,0.5-35.2-9.9-35.2-9.9c-1.7-3.1-2.6-6.1-3-8.9c-0.1,0-0.2,0-0.2,0S29.6,237.9,30.9,231.8z"/>
	<path class="st0" d="M29.9,226.6c0.2-0.6,0.5-1.2,0.7-1.8c4.4-10.3,10.2-94.2,10.1-96.9c-0.3-6.8,8.8-12.8,23.7-12.2
		c21.5,0.9,21.9,6.1,21.9,6.1c0.6,1,1,2,1.3,2.9c3.6,1.6,3.7,3.1,3.7,3.1c1.5,2.4,1.9,4.6,1.6,6.6c-0.5,2.9,4.5,61.4,9.9,83.8
		c2.2,9.2,4,15.9,4.9,17.6c0.8,1.7,1.8,5,2.2,8.5c0.1,0.6,0.1,1.3,0.2,2c0.6,8.6-2,17.5-15.4,9.5l0-0.1c-0.7-0.1-1.4-0.2-2.1-0.3
		l-52.7-2.8l-5.1,0l0,0.2c-3.6,1.3-6,1-7.5-0.4c-0.2-0.2-0.4-0.4-0.5-0.6C23.4,247.5,26,236.2,29.9,226.6z"/>
	<g>
		<path id="XMLID_25141_" class="st0" d="M30.3,37.1c0,0,24.4-2.4,15.6,17.3S9.8,50.8,30.3,37.1z"/>
		<path id="XMLID_25140_" class="st0" d="M28,50.7c0,0,3.7-1.5,3.3,2.3C30.9,56.8,25.5,54,28,50.7z"/>
		<path id="XMLID_25139_" class="st0" d="M35,33.2c0,0-12.7-0.7-6.8,6.3s16.3-0.2,17.2-3.2C46.1,33.3,35,33.2,35,33.2z"/>
		<path id="XMLID_25138_" class="st0" d="M29,58.2c0,0-3.5,0.5-2,2.2s2.3-0.4,4.9,0.9"/>
		<path id="XMLID_25137_" class="st0" d="M33,57.4c0,0,4.8-0.9,10.2,0.8"/>
	</g>
	<g>
		<path class="st0" d="M87.3,258.4c0,0-2.5,39.5-2.3,70c0.1,3.6,0.2,6.9,0.2,9.9c0,0,0,0,0,0.1c0.2,7.5-0.1,10.8-0.7,11.5
			c-2,17.6,0.2,84.9,0.2,84.9l-11.6,1c0,0,2.2-40.4,0.8-67.9c-1.4-27.5-3.4-101.1-5.8-104.9"/>
		<path class="st0" d="M84.6,433.8l-5.8-0.5l-5.8,0.5c0,0.3-0.1,0.5-0.1,0.7c0,1.5-0.1,2.7-0.1,3.3c0,0.2,0,0.3,0,0.4
			c0,0.2,0,0.3,0,0.3c0,0,0,0,0.1,0c-1.2,4.7-3.1,7.8-3.8,10.1c-0.1,0.3-0.1,0.5-0.2,0.7c0,0.2-0.1,0.5-0.1,0.7c0,0.4,0,0.8,0.2,1.2
			c0.1,0.4,0.4,0.8,0.7,1.1c0.2,0.2,0.4,0.4,0.6,0.5c1.5,1.1,4.5,1.7,8.4,2c3.9-0.3,6.9-0.9,8.4-2c0.2-0.2,0.4-0.3,0.6-0.5
			c0.4-0.4,0.6-0.7,0.7-1.1c0.1-0.4,0.2-0.8,0.2-1.2c0-0.2,0-0.4-0.1-0.7c0-0.2-0.1-0.5-0.2-0.7c-0.7-2.3-2.6-5.3-3.8-10.1
			c0.1,0,0.1,0,0.1,0c0,0,0-0.1,0-0.3c0-0.1,0-0.2,0-0.4c0-0.7,0-1.8-0.1-3.3C84.7,434.3,84.6,434.1,84.6,433.8z"/>
		<g>
			<g id="XMLID_25135_">
				<path id="XMLID_25136_" class="st0" d="M78.9,448.6c0,0-6.1-0.6-3.9,4.3C77.2,457.9,84,452.1,78.9,448.6z"/>
			</g>
			<g id="XMLID_25133_">
				<path id="XMLID_25134_" class="st0" d="M89.5,450.2c0,0-4.6-0.4-2.9,3.2C88.3,457.1,93.4,452.8,89.5,450.2z"/>
			</g>
			<path id="XMLID_25132_" class="st0" d="M69.8,454.9c0,0,7.2,0.5,3.9-4.2c-3.3-4.7-9.3,0.1-9.8,2.1
				C63.4,454.8,69.8,454.9,69.8,454.9z"/>
			<g id="XMLID_25130_">
				<path id="XMLID_25131_" class="st0" d="M84.6,449.4c0,0-5.3-0.5-3.4,3.8S89.1,452.4,84.6,449.4z"/>
			</g>
			<g id="XMLID_25128_">
				<path id="XMLID_25129_" class="st0" d="M93.9,450.7c0,0-4.1-0.4-2.6,2.9C92.8,456.9,97.4,453,93.9,450.7z"/>
			</g>
		</g>
		<path id="XMLID_25127_" class="st0" d="M76.3,343.9c0,0,0.9-1.3,2-0.7"/>
		<path id="XMLID_25126_" class="st0" d="M80.9,354.2c0,0-1.8-0.6-2-1"/>
		<g id="XMLID_25124_">
			<path id="XMLID_25125_" class="st0" d="M82.7,432.5c4.2-3.4,7.7,4.9,1.5,5.6"/>
		</g>
		<g id="XMLID_25122_">
			<path id="XMLID_25123_" class="st0" d="M81.5,346.7c4.2-3.4,7.7,4.9,1.5,5.6"/>
		</g>
	</g>
	<g>
		<g id="XMLID_25076_">
			<path id="XMLID_25121_" class="st0" d="M73.7,115.1c0.1-2.4-0.7-9.1-0.8-11.3c-0.1-2-0.4-3.7-0.9-5.2
				c7.8-13.3-13.7-28.5-21.4-11.5c-2.4,5.3-2.1,15.7-2,17.4c0.1,2.3,0.1,10,0.1,12c0,11.1,16.6,20,23.1,5.5"/>
			<g id="XMLID_25077_">
				<path id="XMLID_25120_" class="st0" d="M61.1,13.8c0,0,35.8,2.6,30.8,44.9c-5,42.3-3.6,50.1-23.9,54.4
					c-20.2,4.3-31.3-10.5-33.5-21.8S16.2,19.3,61.1,13.8z"/>
				<path id="XMLID_25119_" class="st0" d="M70.6,4.2c0,0-4.5,3.9,1.1,5.7S75.5,2.1,70.6,4.2z"/>
				<path id="XMLID_25118_" class="st0" d="M89.9,23.9c-0.1-1.4-0.7-3.2-2-5.4c0,0,0,0,0,0l0,0c-0.3-0.5-0.6-1-0.9-1.5
					C83,10.7,76.5,7,70.5,5.2C44.8-6.3,42.2,18,42.1,27.2c0,0.9,11.6-0.1,22.1-2.7c13.4,5.4,26,11.4,26,11.4S91.2,28,89.9,23.9z"/>
				<path id="XMLID_25117_" class="st0" d="M45.4,62.3c0,0,6.4,4.8,14.6,1.8"/>
				<path id="XMLID_25116_" class="st0" d="M42.1,65.5c0,0-6.5-8-6.2-12.5"/>
				<path id="XMLID_25115_" class="st0" d="M45.9,38.7c0,0-17.9,15.8,4.4,23S65.4,30.6,45.9,38.7z"/>
				<path id="XMLID_25114_" class="st0" d="M58.3,51.7c0,0,3.7-1.5,3.3,2.3C61.1,57.8,55.8,55,58.3,51.7z"/>
				<path id="XMLID_25113_" class="st0" d="M49.6,109.3c0,0-4.2,3.9,4.6,5.7c8.8,1.7,14.6-0.6,12.9-3.9"/>
				<path id="XMLID_25112_" class="st0" d="M47.3,35.5c0,0-8.2,1-2.3,6.7s17.2,0.2,16.6-1.9S59.9,34.9,47.3,35.5z"/>
				<path id="XMLID_25111_" class="st0" d="M35.8,30.6c0,0,13.7-5.6,29.8-2s24.5,7.3,24.5,7.3C84.9,18.1,53.7,18,38,19
					s-11.5,7-11.5,7S28.8,28.9,35.8,30.6z"/>
				<path id="XMLID_25110_" class="st0" d="M35.8,30.6c0,0-27.2-7.5,10.4-9.2c37.6-1.7,43.8,14.5,43.8,14.5S55.3,20.8,35.8,30.6z"/>
				<g id="XMLID_25102_">
					<g id="XMLID_25107_">
						<path id="XMLID_25109_" class="st0" d="M26.9,69.3c0.2,2.1,0.9,3.6,2.3,3.9c0.8,0.1,1.4,0.1,1.9,0c0.4-0.1,0.8-0.3,1.1-0.4"/>
						<path id="XMLID_25108_" class="st0" d="M37.9,40.8c0,0-4.9,13.2-6.3,22.4"/>
					</g>
					<g id="XMLID_25103_">
						<path id="XMLID_25106_" class="st0" d="M41.7,67.4c0,0,5.1,4.2-2.1,7.1"/>
						<path id="XMLID_25105_" class="st0" d="M37.9,70.9c0.7,0.2,1.8-1.3,2.6,0c0.8,1.3-0.1,0.9-1.2,1.2S37.2,70.7,37.9,70.9z"/>
						<path id="XMLID_25104_" class="st0" d="M35.8,64.5c0,0,1.5,0,1.9,0.5"/>
					</g>
				</g>
				<path id="XMLID_25101_" class="st0" d="M44.7,69.7c0,0,4.9,2.3,5.3,2.3"/>
				<path id="XMLID_25100_" class="st0" d="M71.4,48.9c0,0,0.7,1.4-0.4,2"/>
				<path id="XMLID_25099_" class="st0" d="M67.6,63.3c0,0-0.3,1.3-0.7,1.7"/>
				<path id="XMLID_25098_" class="st0" d="M68,38.4c0,0,0.5-2.4,0-2.4"/>
				<path id="XMLID_25097_" class="st0" d="M40.9,34.5c0,0,2.6-0.4,2.8-0.9"/>
				<path id="XMLID_25096_" class="st0" d="M78,99.8c0,0-1.7,0.8-2.2,1.7"/>
				<path id="XMLID_25095_" class="st0" d="M42.3,57.6"/>
				<path id="XMLID_25094_" class="st0" d="M54.8,59.1"/>
				<line id="XMLID_25093_" class="st0" x1="56.7" y1="73" x2="58.5" y2="72.5"/>
				<path id="XMLID_25092_" class="st0" d="M69.9,64.3c0,0,13.3-14.8,12.5-2.4S77.2,87.2,73,85.1s-4-5.7-4-5.7"/>
				<path id="XMLID_25091_" class="st0" d="M73.8,65.4c0,0,5.3-6.8,6.1-3.3"/>
				<path id="XMLID_25090_" class="st0" d="M71.6,70.3c0,0,7-1.2,5.7,2.7c-1.3,3.9-4,6.3-4.8,1.8"/>
				<g id="XMLID_25087_">
					<path id="XMLID_25089_" class="st0" d="M61.2,58.5c0,0,3.5,0.5,2,2.2c-1.6,1.7-2.3-0.4-4.9,0.9"/>
					<path id="XMLID_25088_" class="st0" d="M57.3,58.2c0,0-8.2-0.6-13.1,0.7"/>
				</g>
				<g id="XMLID_25082_">
					<path id="XMLID_25086_" class="st0" d="M30.1,84.2c0,0-13.1,1.7-5.8,6.5S30.1,84.2,30.1,84.2z"/>
					<path id="XMLID_25085_" class="st0" d="M28.1,80.4c0,0-10.8-0.6-5.8,5c5,5.6,13.9-0.1,14.6-2.5S28.1,80.4,28.1,80.4z"/>
					<path id="XMLID_25084_" class="st0" d="M49.8,83.2c0,0-5.3-1.8-4.4,4.9s10,5.5,10.6,3.6C56.5,89.8,57.4,86.6,49.8,83.2z"/>
					<path id="XMLID_25083_" class="st0" d="M45.3,81.4c0,0-15.4-1.9-0.2,5.5C60.2,94.2,62.8,83.7,45.3,81.4z"/>
				</g>
				<g id="XMLID_25078_">
					<path id="XMLID_25081_" class="st0" d="M31.5,90.7c0,0,8,7.9,12.5,0"/>
					<path id="XMLID_25080_" class="st0" d="M33.4,89.4c0,0,2.2-2.3,3.9,0"/>
					<path id="XMLID_25079_" class="st0" d="M41.1,89.4c0,0-2.2-2.3-3.9,0"/>
				</g>
			</g>
		</g>
	</g>
	<path id="XMLID_25075_" class="st0" d="M76,177.5c0,0,5.9,63.9,3.5,73.3"/>
	<path id="XMLID_25074_" class="st0" d="M32.8,248.4c0,0,9.2-63.5,13.7-72.1"/>
	<g>
		<g id="XMLID_25072_">
			<path id="XMLID_25073_" class="st0" d="M94.9,213.1c5.2,1.4,5.1-7.5-0.8-5.8"/>
		</g>
		<path id="XMLID_25071_" class="st0" d="M98.6,148c-1.1,23.8-2.1,53-2.9,68.2c-1.4,27.5,0.8,67.9,0.8,67.9l-11.6-1
			c0,0,2.4-71.3,0-86.3c-1.7-10.7,1.3-50.5,2.2-73.7"/>
		<g id="XMLID_25069_">
			<path id="XMLID_25070_" class="st0" d="M84.9,281.7c-4.8,4.9-6.2,6.6-8.7,13c-2.5,6.5,6.8-9.2,6.2-6.9
				c-0.6,2.3-9.3,46.9-2.1,19.5c7.2-27.4,4.4-9.9,4.4-9.9c0,37.6,3,7.5,3.9,2.8c0.9-4.7,7.1,25.1,6,10.3s0-16,2.5-3.7
				s1.2-16.6,1.2-16.6s-0.6-9-2.8-8.3"/>
		</g>
		<path id="XMLID_25068_" class="st0" d="M91.4,207.6c0,0-1.9,0.4-2,0.8"/>
		<path id="XMLID_25067_" class="st0" d="M91.7,212.2c0,0,1.5,0.3,1.9-0.9"/>
		<path id="XMLID_25066_" class="st2" d="M94,273.8c0,0,9.3,6.3,0,6.7"/>
	</g>
	<path id="XMLID_25065_" class="st0" d="M78.2,120.3c7,1.4,13.1,3.1,14.6,5.1c4.1,5.4,11.9,66.4,2.6,67.2
		c-9.3,0.9-10.6,0.5-10.6-2.8s-6.3-41.6-5-44.6"/>
	<g>
		<path id="XMLID_25064_" class="st0" d="M43.7,137c0,0-1.2,1-0.5,2"/>
		<path id="XMLID_25063_" class="st0" d="M52.2,136.5c0,0,1.7,0.8,2.2,1.6"/>
		<path id="XMLID_25062_" class="st0" d="M43.5,144.5c0,0-0.5-1.8-0.2-2.7"/>
		<path id="XMLID_25061_" class="st0" d="M52.7,150.3c0,0-1.7,0.7-2.7,0.5"/>
		<path id="XMLID_25060_" class="st0" d="M44.6,148.9c0,0,0.6,1.4,1.8,1"/>
		<path id="XMLID_25059_" class="st0" d="M54.1,141.5c0,0,0.3,1.3,0.7,1.7"/>
		<line id="XMLID_25058_" class="st0" x1="47.4" y1="136.2" x2="49.3" y2="136.1"/>
		<path id="XMLID_25057_" class="st0" d="M54.7,146.4c0,0,0.4,1.8,0.1,2.7"/>
	</g>
	<g>
		<path id="XMLID_25056_" class="st0" d="M51.4,268.9c0,0-1.1-2-0.3-3.1"/>
		<path id="XMLID_25055_" class="st0" d="M54,260.3c0,0-1.4,1.4-1.6,2.3"/>
		<path id="XMLID_25054_" class="st0" d="M53.2,272.3c0,0,0.6,1.9,1.3,2.5"/>
	</g>
</g>
</svg>
