<?xml version="1.0" encoding="utf-8"?>
<!-- Generator: Adobe Illustrator 22.1.0, SVG Export Plug-In . SVG Version: 6.00 Build 0)  -->
<svg version="1.1" id="Layer_1" xmlns="http://www.w3.org/2000/svg" xmlns:xlink="http://www.w3.org/1999/xlink" x="0px" y="0px"
	 viewBox="0 0 1285.5 725.2" style="enable-background:new 0 0 1285.5 725.2;" xml:space="preserve">
<style type="text/css">
	.st0{fill:none;stroke:#5B5B4B;stroke-linecap:round;stroke-miterlimit:10;}
</style>
<g>
	<g>
		<path class="st0" d="M1124.5,633c0-1.1-0.1-2.3-0.2-3.5c-2.7-31.1-3.5-514.3-1-527.2c0.6-3,0.7-5.9,0.4-8.5"/>
		<path class="st0" d="M165.9,633.1c1.7,0.4,3.7,0.4,5.9,0.3c28.2-2.3,404-5,557.8,0c153.7,5,392.9,0,392.9,0s0.8,0,2,0"/>
		<path class="st0" d="M166.6,93c0.1,1.2,0.3,2.6,0.6,4c5.1,27.6-3.4,366.9-0.8,438.6c1.6,44.4-3.2,78.5-0.5,97.4"/>
		<path class="st0" d="M1123.9,93.9c-19.8,0.2-721.6-3.7-957,0"/>
	</g>
</g>
<g>
	<path class="st0" d="M0.5,0.5c0,0,105.3,58.3,112.8,62c7.5,3.6,48.9,27.6,51.7,30.1"/>
	<path class="st0" d="M1283.4,722.2c0,0-102.4-57-109.7-60.6c-7.3-3.5-47.5-27-50.3-29.4"/>
	<path class="st0" d="M1283.4,0.5c0,0-101.5,58.4-108.7,62.1c-7.2,3.6-47.1,27.7-49.8,30.1"/>
	<path class="st0" d="M3.4,722.2c0,0,104.4-56.8,111.8-60.3c7.4-3.5,48.4-26.9,51.3-29.3"/>
</g>
<path class="st0" d="M686,488.2"/>
</svg>
