<?xml version="1.0" encoding="utf-8"?>
<!-- Generator: Adobe Illustrator 22.1.0, SVG Export Plug-In . SVG Version: 6.00 Build 0)  -->
<svg version="1.1" id="Layer_1" xmlns="http://www.w3.org/2000/svg" xmlns:xlink="http://www.w3.org/1999/xlink" x="0px" y="0px"
	 viewBox="0 0 129 456.6" style="enable-background:new 0 0 129 456.6;" xml:space="preserve">
<style type="text/css">
	.st0{fill:#FDF5EA;stroke:#5B5B4B;stroke-linecap:round;stroke-miterlimit:10;}
	.st1{fill:#FDF5EA;}
	.st2{fill:#FDF5EA;stroke:#5B5B4B;stroke-linecap:round;stroke-linejoin:round;stroke-miterlimit:10;}
	.st3{fill:none;stroke:#5B5B4B;stroke-linecap:round;stroke-miterlimit:10;}
</style>
<g>
	<path class="st0" d="M28.4,21.8c0,0-3.7-6,10.2-7c13.9-1,41.4-0.9,45.9,16.9c0,0-0.8-0.4-2.2-1c-3-1.3-9.2-3.7-18.4-6
		c-3.1-0.7-6.4-1.2-9.7-1.4c-10.1-0.2-17.6,3.2-17.6,3.2c-2.2-0.6-3.9-1.4-5.2-2.1C30.1,23.5,28.8,22.6,28.4,21.8z"/>
	<g>
		<path id="XMLID_24803_" class="st0" d="M106.9,159.6c-0.9,21.1-1.7,43.8-2.3,56.5c-1.4,27.5,0.8,67.9,0.8,67.9l-11.6-1
			c0,0,2.4-71.3,0-86.3c-1.4-8.8,0.4-37.4,1.6-60.1"/>
		<g id="XMLID_24790_">
			<path id="XMLID_24802_" class="st1" d="M91.2,302.7c2,0.5,3.4,0.6,4.3,0.5c-0.6,7.4,3,5.2,4.8,3.7l0.7,0.3c2.4,4.3,5.2,0.1,6-1.3
				l0.1,1.1c3.8,1.9,3.6-2.2,3.3-4.4c0.4,0.7,1.4,1.3,4,1.3c5-0.1-9.6-24-9.6-24l-11.1,2.6C93.8,282.4,81.1,300.1,91.2,302.7z"/>
			<path id="XMLID_24801_" class="st0" d="M93.8,282.4c0,0-12.7,17.7-2.6,20.3c2,0.5,3.4,0.6,4.3,0.5c-0.6,7.4,3,5.2,4.8,3.7
				l0.7,0.3c2.4,4.3,5.2,0.1,6-1.3l0.1,1.1c3.8,1.9,3.6-2.2,3.3-4.4c0.4,0.7,1.4,1.3,4,1.3c5-0.1-9.6-24-9.6-24"/>
			<g id="XMLID_24794_">
				<g id="XMLID_24796_">
					<path id="XMLID_24800_" class="st2" d="M104.9,279.9c0,0,14.6,23.9,9.6,24s-4.1-2.4-4.3-2.6c0,0,2.1,8.4-3,5.7"/>
					<path id="XMLID_24799_" class="st2" d="M107.3,305.5c0,0-3.6,7.2-6.4,1.5"/>
					<path id="XMLID_24798_" class="st2" d="M93.8,282.4c0,0-12.7,17.7-2.6,20.3c10.1,2.6,5.1-4.5,2.2-4.3"/>
					<path id="XMLID_24797_" class="st2" d="M101.2,306.1c0,0-6.7,7.1-5.6-3.7L96,297"/>
				</g>
				<path id="XMLID_24795_" class="st2" d="M103.1,279.2c0,0,6.8-6.9,0-7.4"/>
			</g>
			<path id="XMLID_24793_" class="st0" d="M100.6,296.5c0,0-0.3,3.3,0.3,5.1"/>
			<path id="XMLID_24792_" class="st0" d="M106,300.5c0,0,0.1,2.4,0.6,2.4"/>
			<path id="XMLID_24791_" class="st2" d="M106.6,290.9c0.5,1.5,2.5,4.8,2.5,4.8"/>
		</g>
		<g id="XMLID_24788_">
			<path id="XMLID_24789_" class="st0" d="M102.5,208c4.2-3.4,7.7,4.9,1.5,5.6"/>
		</g>
		<path id="XMLID_24787_" class="st0" d="M99.2,207.8c0,0,1.6,0.1,1.6,1.4"/>
		<path id="XMLID_24786_" class="st0" d="M98.7,212.2c0,0-1.8-0.6-2-1"/>
	</g>
	<g>
		<g id="XMLID_24784_">
			<path id="XMLID_24785_" class="st0" d="M73.8,347.2c-4.2-3.4-7.7,4.9-1.5,5.6"/>
		</g>
		<path class="st0" d="M85.2,257.6c0,0-2.5,39.5-2.3,70c0.1,3.6,0.2,6.9,0.2,9.9c0,0,0,0,0,0.1c0.2,7.5-0.1,10.8-0.7,11.5
			c-2,17.6,0.2,84.9,0.2,84.9l-11.6,1c0,0,2.2-40.4,0.8-67.9c-1.4-27.5-3.4-101.1-5.8-104.9"/>
		<path id="XMLID_24783_" class="st0" d="M79,344.4c0,0-0.9-1.3-2-0.7"/>
		<path id="XMLID_24782_" class="st0" d="M74.3,354.8c0,0,1.8-0.6,2-1"/>
		<g id="XMLID_24780_">
			<path id="XMLID_24781_" class="st0" d="M80.6,431.7c4.2-3.4,7.7,4.9,1.5,5.6"/>
		</g>
		<g>
			<g>
				<g id="XMLID_24778_">
					<path id="XMLID_24779_" class="st0" d="M67.9,451.8c0,0-4.1-0.4-2.6,2.9C66.8,458.1,71.4,454.2,67.9,451.8z"/>
				</g>
				<g id="XMLID_24776_">
					<path id="XMLID_24777_" class="st0" d="M65.5,451.4c0,0-4.6-0.4-2.9,3.2C64.3,458.3,69.4,453.9,65.5,451.4z"/>
				</g>
				<g id="XMLID_24774_">
					<path id="XMLID_24775_" class="st0" d="M62.6,450.6c0,0-5.3-0.5-3.4,3.8C61.2,458.7,67.1,453.6,62.6,450.6z"/>
				</g>
				<g id="XMLID_24772_">
					<path id="XMLID_24773_" class="st0" d="M58.9,449.8c0,0-6.1-0.6-3.9,4.3S64.1,453.2,58.9,449.8z"/>
				</g>
				<path id="XMLID_24771_" class="st0" d="M51.8,456c0,0,7.2,0.5,3.9-4.2s-9.3,0.1-9.8,2.1S51.8,456,51.8,456z"/>
			</g>
			<path class="st0" d="M86.2,448.7c-0.4-1.2-1-2.6-1.8-4.3c-0.7-1.6-1.4-3.5-2-5.8c0.1,0,0.1,0,0.1,0s0,0,0-0.1
				c0-0.4,0-2.1-0.1-4.7L72,432.9l-0.6,0l-0.6,0c-0.1,0.7-0.1,1.3-0.2,1.6c0,0,0,0.1,0,0.1c-0.1,0.1-0.1,0.2-0.2,0.2
				c-0.2,0.3-0.4,0.5-0.4,0.5s-0.4,0.4-1.2,1.1c-1.3,7.3-6.4,11.7-12.4,14.2c0.1,0.6,0.3,1.2,0.9,1.7c0.2,0.2,0.4,0.4,0.6,0.5
				c0.8,0.6,2.1,1,3.7,1.3c1.2,0.2,2.6,0.4,4.2,0.6c1,0.1,2,0.2,3.1,0.2c0.8,0,1.7,0.1,2.5,0.1c0.9,0,1.7,0,2.5-0.1
				c1.1,0,2.1-0.1,3.1-0.2c1.6-0.1,3-0.3,4.2-0.6c1.6-0.3,2.9-0.8,3.7-1.3c0.2-0.2,0.4-0.3,0.6-0.5c0.7-0.7,1-1.5,0.9-2.3
				C86.5,449.6,86.4,449.2,86.2,448.7z"/>
		</g>
	</g>
	<path id="XMLID_24770_" class="st0" d="M90.7,148.4c-1.5,2.9,2.8,41.5,2.6,44.8c-0.2,3.3,1.1,3.7,10.4,3.4c9.3-0.4,4.8-61.7,1-67.3
		c-1.3-2-6.6-3.9-12.8-5.5"/>
	<path class="st0" d="M100.2,231.7l-75.9-2.8c0,0,0.4,20.1,0.9,27.8c0,0.7,0.1,1.4,0.2,2.2c0,0.3,0.1,0.5,0.1,0.6c0,0,0,0,0,0
		c2.1,11.7,15.4,21.9,36.3,22.2c34.2,0.5,35.2-9.9,35.2-9.9c1.7-3.1,2.6-6.1,3-8.9c0.1,0,0.2,0,0.2,0S101.4,237.8,100.2,231.7z"/>
	<g>
		<path class="st1" d="M23.4,211.6c0.1-0.5,0.1-1,0.2-1.5c0.6-4.1,1.1-7.1,1.3-8.1c1-5,3-60,4-69c0-0.3,0.1-0.6,0.1-0.9
			c0.6-2.5,2.3-4.6,4.4-6.2c2.9-2.2,6.5-3.5,8.9-4.3c4.6-3.8,14-6.4,26.8-5.8c12.1,0.5,30.9,0.7,31.8,19c0.1,2.1,0.1,4.4,0,7.1
			c-1,24.8-1,64.9,1.6,75.6c0.1,0.5,0.3,1,0.4,1.4c2.2,5.8,4.9,20.4,2,25.9c0,0.1-0.1,0.1-0.1,0.2c-1.1,1.9-3,2.5-5.9,0.9
			c0,0-3.7-0.9-6.4-0.9l-52.7,2.8c-2.2,0.3-4.2,0.7-5.8,1.1C18.8,260.2,21.1,228.6,23.4,211.6z"/>
		<path class="st0" d="M92.5,245.1l-52.7,2.8c-2.2,0.3-4.2,0.7-5.8,1.1c-15.2,11.3-12.9-20.3-10.6-37.3c0.1-0.5,0.1-1,0.2-1.5
			c0.6-4.1,1.1-7.1,1.3-8.1c1-5,3-60,4-69c0-0.3,0.1-0.6,0.1-0.9c0.6-2.5,2.3-4.6,4.4-6.2c2.9-2.2,6.5-3.5,8.9-4.3
			c4.6-3.8,14-6.4,26.8-5.8c12.1,0.5,30.9,0.7,31.8,19c0.1,2.1,0.1,4.4,0,7.1c-1,24.8-1,64.9,1.6,75.6c0.1,0.5,0.3,1,0.4,1.4
			c2.2,5.8,4.9,20.4,2,25.9c0,0.1-0.1,0.1-0.1,0.2c-1.1,1.9-3,2.5-5.9,0.9"/>
	</g>
	<path id="XMLID_24769_" class="st0" d="M24,203.9c0,0,1.9-64.1-1.2-73.4"/>
	<g>
		<path id="XMLID_24768_" class="st0" d="M36.3,148c-1.1,23.8-2.1,53-2.9,68.2C32,243.6,34.2,284,34.2,284l-11.6-1
			c0,0,2.4-71.3,0-86.3c-1.4-8.8,0.4-37.4,1.6-60.1"/>
		<g id="XMLID_24766_">
			<path id="XMLID_24767_" class="st0" d="M22.7,281.6c-4.8,4.9-6.2,6.6-8.7,13c-2.5,6.5,6.8-9.2,6.2-6.9s-9.3,46.9-2.1,19.5
				c7.2-27.4,4.4-9.9,4.4-9.9c0,37.6,3,7.5,3.9,2.8c0.9-4.7,7.1,25.1,6,10.3c-1.1-14.7,0-16,2.5-3.7s1.2-16.6,1.2-16.6
				s-0.6-9-2.8-8.3"/>
		</g>
		<path id="XMLID_24765_" class="st0" d="M29.2,207.5c0,0-1.9,0.4-2,0.8"/>
		<path id="XMLID_24764_" class="st0" d="M29.4,212.1c0,0,1.5,0.3,1.9-0.9"/>
		<path id="XMLID_24763_" class="st2" d="M31.8,273.7c0,0,9.3,6.3,0,6.7"/>
		<g id="XMLID_24761_">
			<path id="XMLID_24762_" class="st0" d="M32.6,213c5.2,1.4,5.1-7.5-0.8-5.8"/>
		</g>
	</g>
	<path id="XMLID_24760_" class="st0" d="M38.3,148.4c1.5,2.9-2.8,41.5-2.6,44.8c0.2,3.3-1.1,3.7-10.4,3.4c-9.3-0.4-4.8-61.7-1-67.3
		c1.3-2,6.6-3.9,12.8-5.5"/>
	<g>
		<g id="XMLID_24758_">
			<path id="XMLID_24759_" class="st0" d="M45.7,351.3c-5.2,1.4-5.1-7.5,0.8-5.8"/>
		</g>
		<g>
			<g id="XMLID_24756_">
				<path id="XMLID_24757_" class="st0" d="M41.8,449.9c0,0-4.1-0.4-2.6,2.9C40.6,456.1,45.2,452.2,41.8,449.9z"/>
			</g>
			<g id="XMLID_24754_">
				<path id="XMLID_24755_" class="st0" d="M39.4,449.4c0,0-4.6-0.4-2.9,3.2C38.2,456.4,43.3,452,39.4,449.4z"/>
			</g>
			<g id="XMLID_24752_">
				<path id="XMLID_24753_" class="st0" d="M36.5,448.6c0,0-5.3-0.5-3.4,3.8S41,451.6,36.5,448.6z"/>
			</g>
			<g id="XMLID_24750_">
				<path id="XMLID_24751_" class="st0" d="M32.8,447.9c0,0-6.1-0.6-3.9,4.3C31.1,457.1,37.9,451.3,32.8,447.9z"/>
			</g>
			<path id="XMLID_24749_" class="st0" d="M25.6,454.1c0,0,7.2,0.5,3.9-4.2s-9.3,0.1-9.8,2.1C19.3,454,25.6,454.1,25.6,454.1z"/>
		</g>
		<path class="st0" d="M60.1,446.7c-0.4-1.2-1-2.6-1.8-4.3c-0.7-1.6-1.4-3.5-2-5.8c0.1,0,0.1,0,0.1,0s0,0,0-0.1c0-0.4,0-2.1-0.1-4.7
			l-10.4-0.9l-0.6,0l-0.6,0c-0.1,0.7-0.1,1.3-0.2,1.6c0,0,0,0.1,0,0.1c-0.1,0.1-0.1,0.2-0.2,0.2c-0.2,0.3-0.4,0.5-0.4,0.5
			s-0.4,0.4-1.2,1.1c-1.3,7.3-6.4,11.7-12.4,14.2c0.1,0.6,0.3,1.2,0.9,1.7c0.2,0.2,0.4,0.4,0.6,0.5c0.8,0.6,2.1,1,3.7,1.3
			c1.2,0.2,2.6,0.4,4.2,0.6c1,0.1,2,0.2,3.1,0.2c0.8,0,1.7,0.1,2.5,0.1c0.9,0,1.7,0,2.5-0.1c1.1,0,2.1-0.1,3.1-0.2
			c1.6-0.1,3-0.3,4.2-0.6c1.6-0.3,2.9-0.8,3.7-1.3c0.2-0.2,0.4-0.3,0.6-0.5c0.7-0.7,1-1.5,0.9-2.3C60.3,447.7,60.2,447.2,60.1,446.7
			z"/>
		<path class="st0" d="M41.7,257.6c0,0,2.5,39.5,2.3,70c-0.1,3.6-0.2,6.9-0.2,9.9c0,0,0,0,0,0.1c-0.2,7.5,0.1,10.8,0.7,11.5
			c2,17.6-0.2,84.9-0.2,84.9l11.6,1c0,0-2.2-40.4-0.8-67.9c1.4-27.5,3.4-101.1,5.8-104.9"/>
		<path id="XMLID_24748_" class="st0" d="M51.3,343.1c0,0,1.6,0.1,1.6,1.4"/>
		<path id="XMLID_24747_" class="st0" d="M48.9,354.4c0,0-1.8-0.6-2-1"/>
		<g id="XMLID_24745_">
			<path id="XMLID_24746_" class="st0" d="M46.3,436.5c-4.2,3.4-7.7-4.9-1.5-5.6"/>
		</g>
	</g>
	<g id="XMLID_24705_">
		<g id="XMLID_24706_">
			<path id="XMLID_24744_" class="st0" d="M48.1,109.1c0,0-4.2,3.9,4.6,5.7c8.8,1.7,14.6-0.6,12.9-3.9"/>
			<g id="XMLID_24739_">
				<path id="XMLID_24743_" class="st0" d="M38.6,84c0,0-13.1,1.7-5.8,6.5S38.6,84,38.6,84z"/>
				<path id="XMLID_24742_" class="st0" d="M36.6,80.1c0,0-10.8-0.6-5.8,5c5,5.6,13.9-0.1,14.6-2.5S36.6,80.1,36.6,80.1z"/>
				<path id="XMLID_24741_" class="st0" d="M58.2,82.9c0,0-5.3-1.8-4.4,4.9c0.9,6.7,10,5.5,10.6,3.6C65,89.5,65.9,86.3,58.2,82.9z"
					/>
				<path id="XMLID_24740_" class="st0" d="M53.7,81.1c0,0-15.4-1.9-0.2,5.5C68.7,94,71.3,83.4,53.7,81.1z"/>
			</g>
			<g id="XMLID_24735_">
				<path id="XMLID_24738_" class="st0" d="M40,90.4c0,0,8,7.9,12.5,0"/>
				<path id="XMLID_24737_" class="st0" d="M41.9,89.1c0,0,2.2-2.3,3.9,0"/>
				<path id="XMLID_24736_" class="st0" d="M49.6,89.1c0,0-2.2-2.3-3.9,0"/>
			</g>
			<g>
				<path id="XMLID_24734_" class="st0" d="M30.2,35.7c0,0,24.4-2.4,15.6,17.3S9.7,49.4,30.2,35.7z"/>
				<path id="XMLID_24733_" class="st0" d="M27.9,49.2c0,0,3.7-1.5,3.3,2.3C30.7,55.3,25.4,52.5,27.9,49.2z"/>
				<path id="XMLID_24732_" class="st0" d="M57.4,38.4c0,0-17.9,15.8,4.4,23S76.9,30.4,57.4,38.4z"/>
				<path id="XMLID_24731_" class="st0" d="M69.8,51.4c0,0,3.7-1.5,3.3,2.3C72.6,57.5,67.3,54.7,69.8,51.4z"/>
				<path id="XMLID_24730_" class="st0" d="M58.8,35.2c0,0-8.2,1-2.3,6.7s17.2,0.2,16.6-1.9C72.4,38,71.4,34.6,58.8,35.2z"/>
				<path id="XMLID_24729_" class="st0" d="M34.8,31.7c0,0-12.7-0.7-6.8,6.3s16.3-0.2,17.2-3.2S34.8,31.7,34.8,31.7z"/>
				<g id="XMLID_24724_">
					<path id="XMLID_24728_" class="st0" d="M28.8,56.7c0,0-3.5,0.5-2,2.2c1.6,1.7,2.3-0.4,4.9,0.9"/>
					<path id="XMLID_24727_" class="st0" d="M72.6,58.2c0,0,3.5,0.5,2,2.2c-1.6,1.7-2.3-0.4-4.9,0.9"/>
					<path id="XMLID_24726_" class="st0" d="M68.8,57.9c0,0-8.2-0.6-13.1,0.7"/>
					<path id="XMLID_24725_" class="st0" d="M32.8,55.9c0,0,4.8-0.9,10.2,0.8"/>
				</g>
			</g>
			<path id="XMLID_24723_" class="st0" d="M67.1,1.9c0,0-4.5,3.9,1.1,5.7C73.8,9.4,72-0.1,67.1,1.9z"/>
			<path id="XMLID_24722_" class="st0" d="M77.8,48.7c0,0,0.7,1.4-0.4,2"/>
			<path id="XMLID_24721_" class="st0" d="M74,63.1c0,0-0.3,1.3-0.7,1.7"/>
			<path id="XMLID_24720_" class="st0" d="M74.5,38.1c0,0,0.5-2.4,0-2.4"/>
			<path id="XMLID_24719_" class="st0" d="M39.5,30c0,0,2.3,0.3,2,0.7"/>
			<path id="XMLID_24718_" class="st0" d="M53.4,34.2c0,0,2.6-0.4,2.8-0.9"/>
			<path id="XMLID_24717_" class="st0" d="M40.5,98.6c0,0,1.9,0.4,2,0.8"/>
			<path id="XMLID_24716_" class="st0" d="M56.5,99.5c0,0-1.7,0.8-2.2,1.7"/>
			<path id="XMLID_24715_" class="st0" d="M38.7,57.3"/>
			<path id="XMLID_24714_" class="st0" d="M51.2,58.8"/>
			<line id="XMLID_24713_" class="st0" x1="69.1" y1="72.8" x2="71" y2="72.3"/>
			<g>
				<path id="XMLID_24712_" class="st0" d="M86.4,64c0,0,13.3-14.8,12.5-2.4s-5.2,25.3-9.5,23.3s-4-5.7-4-5.7"/>
			</g>
			<path id="XMLID_24711_" class="st0" d="M50.2,111.5c-9.4-4-14.7-13-16.2-20.5c-2.2-11.3-18.4-71.9,26.5-77.5
				c0,0,35.8,2.6,30.8,44.9s-3.6,50.1-23.9,54.4c-2.4,0.5-4.7,0.8-6.9,0.8"/>
			<g>
				<path id="XMLID_24710_" class="st0" d="M46.4,64c0,0,13.3-14.8,12.5-2.4s-5.2,25.3-9.5,23.3s-4-5.7-4-5.7"/>
				<path id="XMLID_24709_" class="st0" d="M50.2,65.2c0,0,5.3-6.8,6.1-3.3"/>
				<path id="XMLID_24708_" class="st0" d="M48,70c0,0,7-1.2,5.7,2.7c-1.3,3.9-4,6.3-4.8,1.8"/>
			</g>
			<path id="XMLID_24707_" class="st2" d="M89.3,23.6c-0.2-1.4-0.8-3.2-2.2-5.4c0,0,0,0,0,0l0,0c-0.3-0.5-0.6-1-1-1.5
				c-4.4-6.3-11.6-9.9-18.2-11.7C39.6-6.6,36.7,17.7,36.6,27c0,0.9,53.1,8.7,53.1,8.7S90.7,27.8,89.3,23.6z"/>
			<path class="st2" d="M89.7,35.6c0,0-2,18.7-53.1-8.7C36.6,27,79.9,23.7,89.7,35.6z"/>
		</g>
	</g>
	<g>
		<path class="st1" d="M53.4,125c2-4.7-2.7-37.4-2.7-37.4h31.9c0,0-7,33-5.9,36.6L53.4,125z"/>
		<path class="st3" d="M82.5,87.6c0,0-7,33-5.9,36.6"/>
		<path class="st3" d="M50.6,87.6c0,0,4.7,32.7,2.7,37.4"/>
	</g>
	<path id="XMLID_24704_" class="st0" d="M53.2,124.3c-0.6-0.2-1.1-0.7-1.7-1.5"/>
	<path id="XMLID_24703_" class="st3" d="M65.1,124.2c4.4,2.5,9.6,1.2,13.3-2.1"/>
	<path id="XMLID_24702_" class="st0" d="M78.7,126.1c-0.2,0.1-0.4,0.2-0.6,0.3"/>
	<path id="XMLID_24701_" class="st0" d="M92.1,234.6c0,0-1.9-64.1,1.2-73.4"/>
</g>
</svg>
