<?xml version="1.0" encoding="utf-8"?>
<!-- Generator: Adobe Illustrator 22.1.0, SVG Export Plug-In . SVG Version: 6.00 Build 0)  -->
<svg version="1.1" id="Layer_1" xmlns="http://www.w3.org/2000/svg" xmlns:xlink="http://www.w3.org/1999/xlink" x="0px" y="0px"
	 viewBox="0 0 1281.1 720.5" style="enable-background:new 0 0 1281.1 720.5;" xml:space="preserve">
<style type="text/css">
	.st0{fill:none;stroke:#5B5B4B;stroke-linecap:round;stroke-miterlimit:10;}
	.st1{fill:none;stroke:#35423E;stroke-linecap:round;stroke-miterlimit:10;}
</style>
<g>
	<g id="XMLID_60_">
		<g id="XMLID_70_">
			
				<rect id="XMLID_78_" x="612.4" y="51.7" transform="matrix(4.544881e-10 -1 1 4.544881e-10 -51.1532 1332.1537)" class="st0" width="56.2" height="1280"/>
			
				<rect id="XMLID_77_" x="612.4" y="-4.5" transform="matrix(4.548771e-10 -1 1 4.548771e-10 5.0188 1275.9817)" class="st0" width="56.2" height="1280"/>
			
				<rect id="XMLID_76_" x="612.4" y="-60.7" transform="matrix(4.544881e-10 -1 1 4.544881e-10 61.1908 1219.8097)" class="st0" width="56.2" height="1280"/>
			
				<rect id="XMLID_75_" x="612.4" y="-116.9" transform="matrix(4.548442e-10 -1 1 4.548442e-10 117.3628 1163.6376)" class="st0" width="56.2" height="1280"/>
			
				<rect id="XMLID_74_" x="612.4" y="-173" transform="matrix(4.545209e-10 -1 1 4.545209e-10 173.5349 1107.4656)" class="st0" width="56.2" height="1280"/>
			
				<rect id="XMLID_73_" x="612.4" y="-229.2" transform="matrix(4.548442e-10 -1 1 4.548442e-10 229.7069 1051.2936)" class="st0" width="56.2" height="1280"/>
			
				<rect id="XMLID_72_" x="612.4" y="-285.4" transform="matrix(4.546826e-10 -1 1 4.546826e-10 285.8789 995.1216)" class="st0" width="56.2" height="1280"/>
			
				<rect id="XMLID_71_" x="612.4" y="-341.6" transform="matrix(4.546826e-10 -1 1 4.546826e-10 342.0509 938.9496)" class="st0" width="56.2" height="1280"/>
		</g>
		<g id="XMLID_61_">
			<rect id="XMLID_69_" x="0.5" y="270.4" class="st0" width="160" height="449.4"/>
			<rect id="XMLID_68_" x="160.5" y="270.4" class="st0" width="160" height="449.4"/>
			<rect id="XMLID_67_" x="320.5" y="270.4" class="st0" width="160" height="449.4"/>
			<rect id="XMLID_66_" x="480.5" y="270.4" class="st0" width="160" height="449.4"/>
			<rect id="XMLID_65_" x="640.5" y="270.4" class="st0" width="160" height="449.4"/>
			<rect id="XMLID_64_" x="800.5" y="270.4" class="st0" width="160" height="449.4"/>
			<rect id="XMLID_63_" x="960.5" y="270.4" class="st0" width="160" height="449.4"/>
			<rect id="XMLID_62_" x="1120.5" y="270.4" class="st0" width="160" height="449.4"/>
		</g>
	</g>
	<g>
		<g>
			<line class="st1" x1="641.4" y1="271.2" x2="641.1" y2="720"/>
			<line class="st1" x1="0.6" y1="270.4" x2="1280.6" y2="270.4"/>
		</g>
		<path class="st0" d="M0.4,719.6l640.3-449.3L0.4,719.6z"/>
		<path class="st0" d="M0.6,607.6L640.4,270L0.6,607.6z"/>
		<g>
			<path class="st0" d="M0.6,495.2L640.4,270L0.6,495.2z"/>
		</g>
		<path class="st0" d="M0.6,382.8L640.4,270L0.6,382.8z"/>
		<line class="st0" x1="0.6" y1="270.4" x2="640.4" y2="270"/>
		<path class="st0" d="M1280.6,719.6L640.4,270.4L1280.6,719.6z"/>
		<path class="st0" d="M1280.4,607.6L640.6,270L1280.4,607.6z"/>
		<path class="st0" d="M1280.4,495.2L640.6,270L1280.4,495.2z"/>
		<path class="st0" d="M1280.4,382.8L640.6,270L1280.4,382.8z"/>
		<line class="st0" x1="1280.4" y1="270.4" x2="640.6" y2="270"/>
		<line id="XMLID_59_" class="st1" x1="640.6" y1="270.4" x2="800.6" y2="720"/>
		<line id="XMLID_58_" class="st1" x1="960.6" y1="720" x2="640.6" y2="270.4"/>
		<line id="XMLID_57_" class="st1" x1="1120.6" y1="720" x2="640.6" y2="270.4"/>
		<line id="XMLID_54_" class="st1" x1="640.6" y1="270.4" x2="480.6" y2="720"/>
		<line id="XMLID_2_" class="st1" x1="320.6" y1="720" x2="640.6" y2="270.4"/>
		<line class="st1" x1="640.6" y1="270.4" x2="160.6" y2="720"/>
		<line class="st1" x1="640.6" y1="270.4" x2="0.6" y2="326.1"/>
		<line class="st1" x1="1280.6" y1="326.1" x2="640.6" y2="270.4"/>
	</g>
</g>
</svg>
