<?xml version="1.0" encoding="utf-8"?>
<!-- Generator: Adobe Illustrator 22.1.0, SVG Export Plug-In . SVG Version: 6.00 Build 0)  -->
<svg version="1.1" id="Layer_1" xmlns="http://www.w3.org/2000/svg" xmlns:xlink="http://www.w3.org/1999/xlink" x="0px" y="0px"
	 viewBox="0 0 288 51.4" style="enable-background:new 0 0 288 51.4;" xml:space="preserve">
<style type="text/css">
	.st0{fill:#FDF5EA;stroke:#5B5B4B;stroke-linecap:round;stroke-miterlimit:10;}
	.st1{fill:#D4AF6B;}
	.st2{fill:#F7C872;}
	.st3{fill:none;stroke:#5B5B4B;stroke-linecap:round;stroke-miterlimit:10;}
</style>
<g>
	<path class="st0" d="M287.5,22.9c0-3.5,0-7.2-0.1-8.6C287.1,8,283.2,1,277.1,0.5c-1.4-0.1-50.3,0.1-64,1C151.8,1.6,38.9,2,25.9,2.8
		c-0.4,0-1,0.1-1.7,0.2C16,3.2,9.6,3.5,8,3.8C7.4,4,5.5,5.2,4.4,6.5C3,8.4,1.2,11.3,0.6,14.4c-0.1,0.2-0.1,5.3-0.1,9.1
		c0,0.5,0,0.9,0,1.3c0,1.2,0,2.1,0,2.6c0,0,0,0.1,0,0.1c0,0.1,0,0.2,0,0.3c-0.2,3.9,1.9,8,9.5,10.7c5.6,2,67.2,0.1,68.6,0
		c0.4,0,0.7-0.1,1-0.1c67.2,0.3,181.1-0.8,184.6-0.9c3.7-0.1,6.9-0.3,9.7-0.8c3.9-0.1,6.4-0.2,6.7-0.2c4.2-0.2,6.3-3.5,6.7-7.6
		c0.1-0.9,0.1-2.8,0.2-5C287.5,23.6,287.5,23.3,287.5,22.9z"/>
	<g>
		<path class="st1" d="M210.9,6.2c-18.6,0-42.2,0.1-66,0.1C93,6.5,39.5,6.8,30.9,7.2c-0.4,0-1,0.1-1.7,0.1c-7.9,0.1-14,0.3-15.5,0.6
			c-0.6,0.1-2.5,1-3.5,1.9c-1.4,1.3-3.1,3.4-3.6,5.7c-0.1,0.2-0.1,3.8-0.1,6.6c0,0.3,0,0.7,0,1c0,0.8,0,1.5,0,1.9c0,0,0,0,0,0.1
			c0,0.1,0,0.2,0,0.2c-0.2,2.8,1.8,5.7,9.1,7.7c5.4,1.5,64.6,0.1,65.9,0c0.3,0,0.7-0.1,1-0.1c37.4,0.1,89.9-0.1,128.1-0.3"/>
		<path class="st2" d="M210.6,32.4c27.7-0.1,47.9-0.3,49.3-0.3c3.6,0,6.7-0.2,9.3-0.6c3.7-0.1,6.1-0.1,6.4-0.2
			c4-0.2,6.1-2.5,6.5-5.5c0.1-0.7,0.1-2,0.2-3.6c0-0.3,0-0.6,0-0.8c0-2.5,0-5.2-0.1-6.2c-0.3-4.5-4-9.5-9.8-9.9
			c-1.4-0.1-48.3,0.1-61.4,0.7"/>
	</g>
	<path class="st0" d="M38.7,35.4c0,0,1.5,15.1,8,15.5s9.1-5,9.1-5s-1.8-8.1,0.9-9.5"/>
	<path class="st3" d="M282.1,15.4c-0.3-4.5-4-9.5-9.8-9.9c-1.4-0.1-48.3,0.1-61.4,0.7c-18.6,0-42.2,0.1-66,0.1
		C93,6.5,39.5,6.8,30.9,7.2c-0.4,0-1,0.1-1.7,0.1c-7.9,0.1-14,0.3-15.5,0.6c-0.6,0.1-2.5,1-3.5,1.9c-1.4,1.3-3.1,3.4-3.6,5.7
		c-0.1,0.2-0.1,3.8-0.1,6.6c0,0.4,0,0.7,0,1c0,0.8,0,1.5,0,1.9c0,0,0,0,0,0.1c0,0.1,0,0.2,0,0.2c-0.2,2.8,1.8,5.7,9.1,7.7
		c5.4,1.5,64.6,0.1,65.9,0c0.3,0,0.7-0.1,1-0.1c37.4,0.1,89.9-0.1,128.1-0.3c27.7-0.1,47.9-0.3,49.3-0.3c3.6,0,6.7-0.2,9.3-0.6
		c3.7-0.1,6.1-0.1,6.4-0.2c4-0.2,6.1-2.5,6.5-5.5c0.1-0.7,0.1-2,0.2-3.6c0-0.3,0-0.6,0-0.8C282.3,19.1,282.2,16.4,282.1,15.4z"/>
</g>
</svg>
