<?xml version="1.0" encoding="utf-8"?>
<!-- Generator: Adobe Illustrator 22.1.0, SVG Export Plug-In . SVG Version: 6.00 Build 0)  -->
<svg version="1.1" id="Layer_1" xmlns="http://www.w3.org/2000/svg" xmlns:xlink="http://www.w3.org/1999/xlink" x="0px" y="0px"
	 viewBox="0 0 1281.1 720.5" style="enable-background:new 0 0 1281.1 720.5;" xml:space="preserve">
<style type="text/css">
	.st0{fill:none;stroke:#5B5B4B;stroke-linecap:round;stroke-miterlimit:10;}
	.st1{fill:none;stroke:#35423E;stroke-linecap:round;stroke-miterlimit:10;}
</style>
<g>
	<g id="XMLID_60_">
		<g id="XMLID_70_">
			
				<rect id="XMLID_78_" x="601.2" y="40.3" transform="matrix(3.246346e-10 -1 1 3.246346e-10 -39.8146 1320.8151)" class="st0" width="78.6" height="1280"/>
			
				<rect id="XMLID_77_" x="601.2" y="-38.3" transform="matrix(3.249117e-10 -1 1 3.249117e-10 38.8262 1242.1742)" class="st0" width="78.6" height="1280"/>
			
				<rect id="XMLID_76_" x="601.2" y="-117" transform="matrix(3.246346e-10 -1 1 3.246346e-10 117.467 1163.5334)" class="st0" width="78.6" height="1280"/>
			
				<rect id="XMLID_75_" x="601.2" y="-195.6" transform="matrix(3.248886e-10 -1 1 3.248886e-10 196.1079 1084.8926)" class="st0" width="78.6" height="1280"/>
			
				<rect id="XMLID_74_" x="601.2" y="-274.2" transform="matrix(3.246577e-10 -1 1 3.246577e-10 274.7487 1006.2518)" class="st0" width="78.6" height="1280"/>
			
				<rect id="XMLID_73_" x="601.2" y="-352.9" transform="matrix(3.248886e-10 -1 1 3.248886e-10 353.3895 927.611)" class="st0" width="78.6" height="1280"/>
			
				<rect id="XMLID_72_" x="601.2" y="-431.5" transform="matrix(3.247732e-10 -1 1 3.247732e-10 432.0303 848.9702)" class="st0" width="78.6" height="1280"/>
			
				<rect id="XMLID_71_" x="601.2" y="-510.2" transform="matrix(3.247732e-10 -1 1 3.247732e-10 510.6711 770.3293)" class="st0" width="78.6" height="1280"/>
		</g>
		<g id="XMLID_61_">
			<rect id="XMLID_69_" x="0.5" y="90.5" class="st0" width="160" height="629.1"/>
			<rect id="XMLID_68_" x="160.5" y="90.5" class="st0" width="160" height="629.1"/>
			<rect id="XMLID_67_" x="320.5" y="90.5" class="st0" width="160" height="629.1"/>
			<rect id="XMLID_66_" x="480.5" y="90.5" class="st0" width="160" height="629.1"/>
			<rect id="XMLID_65_" x="640.5" y="90.5" class="st0" width="160" height="629.1"/>
			<rect id="XMLID_64_" x="800.5" y="90.5" class="st0" width="160" height="629.1"/>
			<rect id="XMLID_63_" x="960.5" y="90.5" class="st0" width="160" height="629.1"/>
			<rect id="XMLID_62_" x="1120.5" y="90.5" class="st0" width="160" height="629.1"/>
		</g>
	</g>
	<g>
		<g>
			<line class="st1" x1="641.4" y1="91.7" x2="641.1" y2="720"/>
			<line class="st1" x1="0.6" y1="90.5" x2="1280.6" y2="90.5"/>
		</g>
		<path class="st0" d="M0.4,719.5l640.3-629L0.4,719.5z"/>
		<path class="st0" d="M0.6,562.6L640.4,90L0.6,562.6z"/>
		<g>
			<path class="st0" d="M0.6,405.3L640.4,90L0.6,405.3z"/>
		</g>
		<path class="st0" d="M0.6,247.9L640.4,90L0.6,247.9z"/>
		<line class="st0" x1="0.6" y1="90.5" x2="640.4" y2="90"/>
		<path class="st0" d="M1280.6,719.5l-640.3-629L1280.6,719.5z"/>
		<path class="st0" d="M1280.4,562.6L640.6,90L1280.4,562.6z"/>
		<path class="st0" d="M1280.4,405.3L640.6,90L1280.4,405.3z"/>
		<path class="st0" d="M1280.4,247.9L640.6,90L1280.4,247.9z"/>
		<line class="st0" x1="1280.4" y1="90.5" x2="640.6" y2="90"/>
		<line id="XMLID_59_" class="st1" x1="640.6" y1="90.5" x2="800.6" y2="720"/>
		<line id="XMLID_58_" class="st1" x1="960.6" y1="720" x2="640.6" y2="90.5"/>
		<line id="XMLID_57_" class="st1" x1="1120.6" y1="720" x2="640.6" y2="90.5"/>
		<line id="XMLID_54_" class="st1" x1="640.6" y1="90.5" x2="480.6" y2="720"/>
		<line id="XMLID_2_" class="st1" x1="320.6" y1="720" x2="640.6" y2="90.5"/>
		<line class="st1" x1="640.6" y1="90.5" x2="160.6" y2="720"/>
		<line class="st1" x1="640.6" y1="90.5" x2="0.6" y2="168.6"/>
		<line class="st1" x1="1280.6" y1="168.6" x2="640.6" y2="90.5"/>
	</g>
</g>
</svg>
