<?xml version="1.0" encoding="utf-8"?>
<!-- Generator: Adobe Illustrator 22.1.0, SVG Export Plug-In . SVG Version: 6.00 Build 0)  -->
<svg version="1.1" id="Layer_1" xmlns="http://www.w3.org/2000/svg" xmlns:xlink="http://www.w3.org/1999/xlink" x="0px" y="0px"
	 viewBox="0 0 91 91" style="enable-background:new 0 0 91 91;" xml:space="preserve">
<style type="text/css">
	.st0{fill:#FDF5EA;stroke:#5B5B4B;stroke-linecap:round;stroke-miterlimit:10;}
</style>
<g>
	<g>
		<path class="st0" d="M90.4,21.5c0,0-1-1.9-3.1-1.8c0,0-81.4,0.1-83.8,0c-2-0.2-3.1,1.8-3.1,1.8s-0.1,46,0.9,47.9
			c0,0,1,1.9,3.1,1.8c0,0,12.3,0.1,27.4,0.2c0-0.1,0-0.3,0.2-0.4c0.4-0.3,13.1-13.1,13.1-13.1c0.3-0.3,1,0,1,0
			C47.7,59.2,59,71,59,71s0.1,0.2,0.1,0.4c13.5,0,24.9-0.1,27.3-0.4c2-0.2,3.1-1.8,3.1-1.8S90.9,26.8,90.4,21.5z"/>
		<path class="st0" d="M46.1,57.8c0,0-0.7-0.4-1,0c0,0-12.7,12.8-13.1,13.1c-0.1,0.1-0.2,0.2-0.2,0.4c8.7,0.1,18.4,0.1,27.2,0.1
			c0-0.2-0.1-0.4-0.1-0.4S47.7,59.2,46.1,57.8z"/>
	</g>
	<g>
		<path class="st0" d="M36.8,45.5c0-0.2,0-0.4,0-0.6c0-0.8-0.1-1.6-0.3-2.4c-0.2-0.9-0.5-1.8-0.8-2.7c0,0-0.1-0.1-0.2-0.2
			c-0.5-1.5-1.2-2.7-2.3-3.6c-0.9-1.1-2.1-1.9-3.5-2.4c-0.7-0.4-1.4-0.8-2.2-1.2c0,0-0.5,0-1.4,0c-0.9-0.3-1.8-0.4-2.7-0.4
			c-0.2,0-0.4,0-0.6,0c-0.8,0-1.6,0.1-2.4,0.3c-0.9,0.2-1.8,0.5-2.7,0.8c0,0-0.1,0.1-0.2,0.2c-1.5,0.5-2.7,1.2-3.6,2.3
			c-1.1,0.9-1.9,2.1-2.4,3.5c-0.4,0.7-0.8,1.4-1.2,2.2c0,0,0,0.5,0,1.4c-0.3,0.9-0.4,1.8-0.4,2.7c0,0.2,0,0.4,0,0.6
			c0,0.8,0.1,1.6,0.3,2.4c0.2,0.9,0.5,1.8,0.8,2.7c0,0,0.1,0.1,0.2,0.2c0.5,1.5,1.2,2.7,2.3,3.6c0.9,1.1,2.1,1.9,3.5,2.4
			c0.7,0.4,1.4,0.8,2.2,1.2c0,0,0.5,0,1.4,0c0.9,0.3,1.8,0.4,2.7,0.4c0.2,0,0.4,0,0.6,0c0.8,0,1.6-0.1,2.4-0.3
			c0.9-0.2,1.8-0.5,2.7-0.8c0,0,0.1-0.1,0.2-0.2c1.5-0.5,2.7-1.2,3.6-2.3c1.1-0.9,1.9-2.1,2.4-3.5c0.4-0.7,0.8-1.4,1.2-2.2
			c0,0,0-0.5,0-1.4C36.7,47.3,36.9,46.4,36.8,45.5z"/>
		<path class="st0" d="M81.8,45.5c0-0.2,0-0.4,0-0.6c0-0.8-0.1-1.6-0.3-2.4c-0.2-0.9-0.5-1.8-0.8-2.7c0,0-0.1-0.1-0.2-0.2
			c-0.5-1.5-1.2-2.7-2.3-3.6c-0.9-1.1-2.1-1.9-3.5-2.4c-0.7-0.4-1.4-0.8-2.2-1.2c0,0-0.5,0-1.4,0c-0.9-0.3-1.8-0.4-2.7-0.4
			c-0.2,0-0.4,0-0.6,0c-0.8,0-1.6,0.1-2.4,0.3c-0.9,0.2-1.8,0.5-2.7,0.8c0,0-0.1,0.1-0.2,0.2c-1.5,0.5-2.7,1.2-3.6,2.3
			c-1.1,0.9-1.9,2.1-2.4,3.5c-0.4,0.7-0.8,1.4-1.2,2.2c0,0,0,0.5,0,1.4c-0.3,0.9-0.4,1.8-0.4,2.7c0,0.2,0,0.4,0,0.6
			c0,0.8,0.1,1.6,0.3,2.4c0.2,0.9,0.5,1.8,0.8,2.7c0,0,0.1,0.1,0.2,0.2c0.5,1.5,1.2,2.7,2.3,3.6c0.9,1.1,2.1,1.9,3.5,2.4
			c0.7,0.4,1.4,0.8,2.2,1.2c0,0,0.5,0,1.4,0c0.9,0.3,1.8,0.4,2.7,0.4c0.2,0,0.4,0,0.6,0c0.8,0,1.6-0.1,2.4-0.3
			c0.9-0.2,1.8-0.5,2.7-0.8c0,0,0.1-0.1,0.2-0.2c1.5-0.5,2.7-1.2,3.6-2.3c1.1-0.9,1.9-2.1,2.4-3.5c0.4-0.7,0.8-1.4,1.2-2.2
			c0,0,0-0.5,0-1.4C81.7,47.3,81.9,46.4,81.8,45.5z"/>
	</g>
</g>
</svg>
