<?xml version="1.0" encoding="utf-8"?>
<!-- Generator: Adobe Illustrator 22.1.0, SVG Export Plug-In . SVG Version: 6.00 Build 0)  -->
<svg version="1.1" id="Layer_1" xmlns="http://www.w3.org/2000/svg" xmlns:xlink="http://www.w3.org/1999/xlink" x="0px" y="0px"
	 viewBox="0 0 1280 720" style="enable-background:new 0 0 1280 720;" xml:space="preserve">
<style type="text/css">
	.st0{fill:#FDF5EA;stroke:#5B5B4B;stroke-width:2;stroke-linecap:round;stroke-miterlimit:10;}
	.st1{fill:#FDF5EA;stroke:#5B5B4B;stroke-width:2;stroke-linecap:round;stroke-linejoin:round;stroke-miterlimit:10;}
</style>
<g>
	<path id="XMLID_14_" class="st0" d="M-198.2,1154.1C-122.7,993.4-32.6,794.8,16,692.5C104.1,507,204.4,222.4,204.4,222.4l76.8,39.8
		c0,0-219.9,484.9-246.4,594.8c-19,78.8-153,344.4-225.6,501.4"/>
	<path class="st0" d="M206.3,254.3c-10.3-11.2-19.1-30.4-19.1-63.1c0-15.1-2.4-38.4-1.5-41.4c1.4-5.1,0.1-33.1,2.8-43.5
		c-3.2-1.3-5.4-3.6-4.7-6.1c1.7-6.2-0.7-46.2,5.2-47.4c5.8-1.2,11.7-2.5,12.3,0.3c0,0,5.2,38.6,1.4,48.6c0.3,0.2,0.5,0.5,0.6,0.9
		c0,0,3,22.3,2.8,37.5c5.3-3.2,11.5-4.8,18.3-5.4c0.2-7.3-10.6-43.1-8.6-54.4c-2.1-0.9-3.5-2.4-3.4-4.4c0.5-7.9-14-54.1-6.9-57.7
		c7.1-3.6,14.2-7.2,15.8-4.2c0,0,18.1,44.4,15.6,57.2c-0.4,1.9-1.2,3.5-2.4,4.8c4,10.1,16.5,43.4,14.4,54.1c-0.4,2,10.1,4,10.5,2.8
		c2.3-7.2,0.7-48.9,6-60.4c-2-1.6-3-3.6-2.3-5.7c2.7-8.2,0.2-61.4,8.6-63.2c8.5-1.8,16.9-3.6,17.7,0.1c0,0,6.7,52.3,0.6,65.1
		c-0.9,1.9-2.3,3.4-3.8,4.5c1.4,12,5.3,50.8,0.2,61.5c-0.7,1.4,1.9,3.7,4.1,3.7c2.9,0,8.1-0.4,8.4-1c3.4-6.5,9.7-46.9,16.5-56.9
		c-1.4-1.9-2-4-1-5.9c3.9-7.4,11.6-59.1,19.4-59.1c7.7,0,15.5,0,15.5,3.7c0,0-3.9,51.7-11.6,62.8c-1.2,1.7-2.6,2.8-4.2,3.5
		c-1,11.8-4.8,49.9-11.3,59.3c-1.8,2.6,0.5,22.6,0.5,33.2c9.6-12.8,22.5-30.3,27.4-28.3c7.1,2.9,14.3,5.9,13.1,8.9
		c0,0-20.3,39.5-31.2,46.2c0.1,0.4,0.2,0.8,0,1.3c0,0-20.7,40.4-31.6,46.4c-0.7,0.4-1.4,0.7-2.2,0.9c-7.4,9.4-15.4,14.9-22.9,17.8"
		/>
	<path class="st0" d="M210.2,258.2c-1.3-1.2-2.6-2.4-3.9-3.8"/>
	<path id="XMLID_13_" class="st1" d="M200.4,280.2c0,0-46.2-69.7,19.2-46.4"/>
	<path class="st0" d="M288.2,20.2c0,0,2.9-8.6-2.9-8.6c-5.8,0-11.5-2.9-11.5,5.8s5.8,8.6,5.8,8.6S285.3,28.9,288.2,20.2z"/>
	<path class="st0" d="M344.8,34.1c0,0,2.9-8.6-2.9-8.6c-5.8,0-11.5-2.9-11.5,5.8s5.8,8.6,5.8,8.6S341.9,42.7,344.8,34.1z"/>
	<path class="st0" d="M196.9,71.1c0,0,2.9-8.6-2.9-8.6s-11.5-2.9-11.5,5.8s5.8,8.6,5.8,8.6S194,79.7,196.9,71.1z"/>
	<path class="st0" d="M224.9,31.3c0,0,3.5-10.4-3.5-10.4c-6.9,0-13.9-3.5-13.9,6.9s6.9,10.4,6.9,10.4S221.4,41.8,224.9,31.3z"/>
	<path class="st0" d="M363.2,163.5c0,0,2.9-8.6-2.9-8.6s-11.4-2.9-11.4,5.7c0,8.6,5.7,8.6,5.7,8.6S360.3,172.1,363.2,163.5z"/>
	<path id="XMLID_12_" class="st1" d="M213.6,154.3c0,0-10.7,17.9-12.5,0.7"/>
	<path id="XMLID_11_" class="st1" d="M242.6,155.4c0,0-10.7,17.9-12.5,0.7"/>
	<path id="XMLID_10_" class="st1" d="M273.6,154.3c0,0-10.7,17.9-12.5,0.7"/>
	<path id="XMLID_9_" class="st1" d="M302.7,155.4c0,0-10.7,17.9-12.5,0.7"/>
	<path id="XMLID_8_" class="st1" d="M331.5,191.3c0,0,17.1,32.4-10.4,19.4"/>
	<path id="XMLID_7_" class="st1" d="M321.2,97.7c-2.1,0.5-4-1.1-4.6-7.4"/>
	<path id="XMLID_6_" class="st1" d="M278,85c-2.1-0.9-4.6-2-7.7-3.6"/>
	<path id="XMLID_5_" class="st1" d="M219.5,85.7"/>
	<path id="XMLID_4_" class="st1" d="M224.1,93.1c-1.6,0.4-3-0.4-3.9-3.5"/>
	<path id="XMLID_3_" class="st1" d="M193.1,108.1"/>
	<path id="XMLID_1_" class="st1" d="M196.4,113c-1.6,0.4-3.5,0.7-4.3-0.2"/>
</g>
<g>
	<path id="XMLID_28_" class="st0" d="M943.9,1154.1c-75.6-160.7-165.6-359.3-214.3-461.6C641.5,507,541.3,222.4,541.3,222.4
		l-76.8,39.8c0,0,219.9,484.9,246.4,594.8c19,78.8,153,344.4,225.6,501.4"/>
	<path class="st0" d="M539.3,254.3c10.3-11.2,19.1-30.4,19.1-63.1c0-15.1,2.4-38.4,1.5-41.4c-1.4-5.1-0.1-33.1-2.8-43.5
		c3.2-1.3,5.4-3.6,4.7-6.1c-1.7-6.2,0.7-46.2-5.2-47.4c-5.8-1.2-11.7-2.5-12.3,0.3c0,0-5.2,38.6-1.4,48.6c-0.3,0.2-0.5,0.5-0.6,0.9
		c0,0-3,22.3-2.8,37.5c-5.3-3.2-11.5-4.8-18.3-5.4c-0.2-7.3,10.6-43.1,8.6-54.4c2.1-0.9,3.5-2.4,3.4-4.4c-0.5-7.9,14-54.1,6.9-57.7
		c-7.1-3.6-14.2-7.2-15.8-4.2c0,0-18.1,44.4-15.6,57.2c0.4,1.9,1.2,3.5,2.4,4.8c-4,10.1-16.5,43.4-14.4,54.1c0.4,2-10.1,4-10.5,2.8
		c-2.3-7.2-0.7-48.9-6-60.4c2-1.6,3-3.6,2.3-5.7c-2.7-8.2-0.2-61.4-8.6-63.2c-8.5-1.8-16.9-3.6-17.7,0.1c0,0-6.7,52.3-0.6,65.1
		c0.9,1.9,2.3,3.4,3.8,4.5c-1.4,12-5.3,50.8-0.2,61.5c0.7,1.4-1.9,3.7-4.1,3.7c-2.9,0-8.1-0.4-8.4-1c-3.4-6.5-9.7-46.9-16.5-56.9
		c1.4-1.9,2-4,1-5.9c-3.9-7.4-11.6-59.1-19.4-59.1c-7.7,0-15.5,0-15.5,3.7c0,0,3.9,51.7,11.6,62.8c1.2,1.7,2.6,2.8,4.2,3.5
		c1,11.8,4.8,49.9,11.3,59.3c1.8,2.6-0.5,22.6-0.5,33.2c-9.6-12.8-22.5-30.3-27.4-28.3c-7.1,2.9-14.3,5.9-13.1,8.9
		c0,0,20.3,39.5,31.2,46.2c-0.1,0.4-0.2,0.8,0,1.3c0,0,20.7,40.4,31.6,46.4c0.7,0.4,1.4,0.7,2.2,0.9c7.4,9.4,15.4,14.9,22.9,17.8"/>
	<path class="st0" d="M535.4,258.2c1.3-1.2,2.6-2.4,3.9-3.8"/>
	<path id="XMLID_27_" class="st1" d="M545.2,280.2c0,0,46.2-69.7-19.2-46.4"/>
	<path class="st0" d="M457.5,20.2c0,0-2.9-8.6,2.9-8.6c5.8,0,11.5-2.9,11.5,5.8s-5.8,8.6-5.8,8.6S460.4,28.9,457.5,20.2z"/>
	<path class="st0" d="M400.9,34.1c0,0-2.9-8.6,2.9-8.6c5.8,0,11.5-2.9,11.5,5.8s-5.8,8.6-5.8,8.6S403.8,42.7,400.9,34.1z"/>
	<path class="st0" d="M548.7,71.1c0,0-2.9-8.6,2.9-8.6s11.5-2.9,11.5,5.8s-5.8,8.6-5.8,8.6S551.6,79.7,548.7,71.1z"/>
	<path class="st0" d="M520.8,31.3c0,0-3.5-10.4,3.5-10.4c6.9,0,13.9-3.5,13.9,6.9s-6.9,10.4-6.9,10.4S524.2,41.8,520.8,31.3z"/>
	<path class="st0" d="M382.5,163.5c0,0-2.9-8.6,2.9-8.6s11.4-2.9,11.4,5.7c0,8.6-5.7,8.6-5.7,8.6S385.3,172.1,382.5,163.5z"/>
	<path id="XMLID_26_" class="st1" d="M532.1,154.3c0,0,10.7,17.9,12.5,0.7"/>
	<path id="XMLID_25_" class="st1" d="M503,155.4c0,0,10.7,17.9,12.5,0.7"/>
	<path id="XMLID_24_" class="st1" d="M472,154.3c0,0,10.7,17.9,12.5,0.7"/>
	<path id="XMLID_23_" class="st1" d="M443,155.4c0,0,10.7,17.9,12.5,0.7"/>
	<path id="XMLID_22_" class="st1" d="M414.1,191.3c0,0-17.1,32.4,10.4,19.4"/>
	<path id="XMLID_21_" class="st1" d="M424.5,97.7c2.1,0.5,4-1.1,4.6-7.4"/>
	<path id="XMLID_20_" class="st1" d="M467.6,85c2.1-0.9,4.6-2,7.7-3.6"/>
	<path id="XMLID_19_" class="st1" d="M526.1,85.7"/>
	<path id="XMLID_18_" class="st1" d="M521.5,93.1c1.6,0.4,3-0.4,3.9-3.5"/>
	<path id="XMLID_17_" class="st1" d="M552.6,108.1"/>
	<path id="XMLID_16_" class="st1" d="M549.2,113c1.6,0.4,3.5,0.7,4.3-0.2"/>
</g>
</svg>
