<?xml version="1.0" encoding="utf-8"?>
<!-- Generator: Adobe Illustrator 22.1.0, SVG Export Plug-In . SVG Version: 6.00 Build 0)  -->
<svg version="1.1" id="Layer_1" xmlns="http://www.w3.org/2000/svg" xmlns:xlink="http://www.w3.org/1999/xlink" x="0px" y="0px"
	 viewBox="0 0 233.4 222.8" style="enable-background:new 0 0 233.4 222.8;" xml:space="preserve">
<style type="text/css">
	.st0{opacity:0.25;fill:#FFFFFF;}
	.st1{fill:#FDF5EA;stroke:#5B5B4B;stroke-linecap:round;stroke-miterlimit:10;}
</style>
<g>
	<path class="st0" d="M220.4,106.9c-5.9,122.1-242,130.2-211.7,0c-1.7,0-3.4,0-5,0c-0.3,0-0.5,0-0.7,0c-0.2,3.1-0.4,6.2-0.5,9.4
		c-6.8,176.2,212.3,105.7,230.3-9.5c-0.3,0-0.7,0.1-1.2,0.1C231.5,106.9,227.5,106.9,220.4,106.9z"/>
	<path class="st0" d="M38.3,142.9c-4.9-13.3-8.1-25.2-9.9-35.9C21.7,107,15,107,8.7,107c-30.3,130.2,205.9,122.1,211.7,0
		c-6.2,0-14.7,0-24.9,0.1C180.4,182,77.7,249.5,38.3,142.9z"/>
	<path class="st0" d="M38.3,142.9c-4.9-13.3-8.1-25.2-9.9-35.9C21.7,107,15,107,8.7,107c-30.3,130.2,205.9,122.1,211.7,0
		c-6.2,0-14.7,0-24.9,0.1C180.4,182,77.7,249.5,38.3,142.9z"/>
	<path class="st0" d="M66.7,156.3c-17.3-18.7-26.5-35-30-49.2c-2.8,0-5.5,0-8.3,0c1.8,10.7,5,22.6,9.9,35.9
		C77.7,249.5,180.4,182,195.5,107c-5.6,0-11.6,0-18.1,0C171.5,162.7,121.5,215.5,66.7,156.3z"/>
	<path class="st0" d="M66.7,156.3c-17.3-18.7-26.5-35-30-49.2c-2.8,0-5.5,0-8.3,0c1.8,10.7,5,22.6,9.9,35.9
		C77.7,249.5,180.4,182,195.5,107c-5.6,0-11.6,0-18.1,0C171.5,162.7,121.5,215.5,66.7,156.3z"/>
	<path class="st0" d="M66.7,156.3c-17.3-18.7-26.5-35-30-49.2c-2.8,0-5.5,0-8.3,0c1.8,10.7,5,22.6,9.9,35.9
		C77.7,249.5,180.4,182,195.5,107c-5.6,0-11.6,0-18.1,0C171.5,162.7,121.5,215.5,66.7,156.3z"/>
	<path class="st0" d="M165.8,133c-33.2,61.7-111.3,18.5-119.7-25.9c-3.2,0-6.3,0-9.5,0c3.5,14.2,12.7,30.5,30,49.2
		c54.8,59.2,104.7,6.4,110.6-49.2c-3.3,0-6.8,0-10.3,0C167.8,121.5,165.8,133,165.8,133z"/>
	<path class="st0" d="M165.8,133c-33.2,61.7-111.3,18.5-119.7-25.9c-3.2,0-6.3,0-9.5,0c3.5,14.2,12.7,30.5,30,49.2
		c54.8,59.2,104.7,6.4,110.6-49.2c-3.3,0-6.8,0-10.3,0C167.8,121.5,165.8,133,165.8,133z"/>
	<path class="st0" d="M165.8,133c-33.2,61.7-111.3,18.5-119.7-25.9c-3.2,0-6.3,0-9.5,0c3.5,14.2,12.7,30.5,30,49.2
		c54.8,59.2,104.7,6.4,110.6-49.2c-3.3,0-6.8,0-10.3,0C167.8,121.5,165.8,133,165.8,133z"/>
	<path class="st0" d="M165.8,133c-33.2,61.7-111.3,18.5-119.7-25.9c-3.2,0-6.3,0-9.5,0c3.5,14.2,12.7,30.5,30,49.2
		c54.8,59.2,104.7,6.4,110.6-49.2c-3.3,0-6.8,0-10.3,0C167.8,121.5,165.8,133,165.8,133z"/>
	<path class="st0" d="M139.8,140.8c-33.6,27.4-67.8-3.4-74.9-33.6c-6.3,0-12.6,0-18.8,0c8.4,44.4,86.5,87.7,119.7,25.9
		c0,0,1.9-11.5,1.2-26c-4.8,0-9.8,0-15,0C149.9,124.6,139.8,140.8,139.8,140.8z"/>
	<path class="st0" d="M139.8,140.8c-33.6,27.4-67.8-3.4-74.9-33.6c-6.3,0-12.6,0-18.8,0c8.4,44.4,86.5,87.7,119.7,25.9
		c0,0,1.9-11.5,1.2-26c-4.8,0-9.8,0-15,0C149.9,124.6,139.8,140.8,139.8,140.8z"/>
	<path class="st0" d="M139.8,140.8c-33.6,27.4-67.8-3.4-74.9-33.6c-6.3,0-12.6,0-18.8,0c8.4,44.4,86.5,87.7,119.7,25.9
		c0,0,1.9-11.5,1.2-26c-4.8,0-9.8,0-15,0C149.9,124.6,139.8,140.8,139.8,140.8z"/>
	<path class="st0" d="M139.8,140.8c-33.6,27.4-67.8-3.4-74.9-33.6c-6.3,0-12.6,0-18.8,0c8.4,44.4,86.5,87.7,119.7,25.9
		c0,0,1.9-11.5,1.2-26c-4.8,0-9.8,0-15,0C149.9,124.6,139.8,140.8,139.8,140.8z"/>
	<path class="st0" d="M139.8,140.8c-33.6,27.4-67.8-3.4-74.9-33.6c-6.3,0-12.6,0-18.8,0c8.4,44.4,86.5,87.7,119.7,25.9
		c0,0,1.9-11.5,1.2-26c-4.8,0-9.8,0-15,0C149.9,124.6,139.8,140.8,139.8,140.8z"/>
	<path class="st0" d="M118.3,134.8c-22.4,6.7-35.3-10.2-37.7-27.7c-5.2,0-10.5,0-15.7,0c7.1,30.2,41.3,61,74.9,33.6
		c0,0,10.1-16.2,12.2-33.7c-4.6,0-9.3,0-14,0C136,122.2,118.3,134.8,118.3,134.8z"/>
	<path class="st0" d="M118.3,134.8c-22.4,6.7-35.3-10.2-37.7-27.7c-5.2,0-10.5,0-15.7,0c7.1,30.2,41.3,61,74.9,33.6
		c0,0,10.1-16.2,12.2-33.7c-4.6,0-9.3,0-14,0C136,122.2,118.3,134.8,118.3,134.8z"/>
	<path class="st0" d="M118.3,134.8c-22.4,6.7-35.3-10.2-37.7-27.7c-5.2,0-10.5,0-15.7,0c7.1,30.2,41.3,61,74.9,33.6
		c0,0,10.1-16.2,12.2-33.7c-4.6,0-9.3,0-14,0C136,122.2,118.3,134.8,118.3,134.8z"/>
	<path class="st0" d="M118.3,134.8c-22.4,6.7-35.3-10.2-37.7-27.7c-5.2,0-10.5,0-15.7,0c7.1,30.2,41.3,61,74.9,33.6
		c0,0,10.1-16.2,12.2-33.7c-4.6,0-9.3,0-14,0C136,122.2,118.3,134.8,118.3,134.8z"/>
	<path class="st0" d="M118.3,134.8c-22.4,6.7-35.3-10.2-37.7-27.7c-5.2,0-10.5,0-15.7,0c7.1,30.2,41.3,61,74.9,33.6
		c0,0,10.1-16.2,12.2-33.7c-4.6,0-9.3,0-14,0C136,122.2,118.3,134.8,118.3,134.8z"/>
	<path class="st0" d="M118.3,134.8c-22.4,6.7-35.3-10.2-37.7-27.7c-5.2,0-10.5,0-15.7,0c7.1,30.2,41.3,61,74.9,33.6
		c0,0,10.1-16.2,12.2-33.7c-4.6,0-9.3,0-14,0C136,122.2,118.3,134.8,118.3,134.8z"/>
	<path class="st0" d="M118.3,134.8c0,0,17.7-12.6,19.7-27.7c-5,0-10.2,0-15.4,0c-0.2,2.9-1.7,5.3-3.8,7.1c-1.8,2.4-4.1,4-7,4.4
		c-2.7,1.2-4.9,1.7-4.9,1.7c-7.9-0.8-11.7-5.8-12.6-11.7c-0.4-0.5-0.8-1-1.1-1.5c-4.2,0-8.4,0-12.6,0
		C83,124.7,95.9,141.6,118.3,134.8z"/>
	<path class="st0" d="M118.3,134.8c0,0,17.7-12.6,19.7-27.7c-5,0-10.2,0-15.4,0c-0.2,2.9-1.7,5.3-3.8,7.1c-1.8,2.4-4.1,4-7,4.4
		c-2.7,1.2-4.9,1.7-4.9,1.7c-7.9-0.8-11.7-5.8-12.6-11.7c-0.4-0.5-0.8-1-1.1-1.5c-4.2,0-8.4,0-12.6,0
		C83,124.7,95.9,141.6,118.3,134.8z"/>
	<path class="st0" d="M118.3,134.8c0,0,17.7-12.6,19.7-27.7c-5,0-10.2,0-15.4,0c-0.2,2.9-1.7,5.3-3.8,7.1c-1.8,2.4-4.1,4-7,4.4
		c-2.7,1.2-4.9,1.7-4.9,1.7c-7.9-0.8-11.7-5.8-12.6-11.7c-0.4-0.5-0.8-1-1.1-1.5c-4.2,0-8.4,0-12.6,0
		C83,124.7,95.9,141.6,118.3,134.8z"/>
	<path class="st0" d="M118.3,134.8c0,0,17.7-12.6,19.7-27.7c-5,0-10.2,0-15.4,0c-0.2,2.9-1.7,5.3-3.8,7.1c-1.8,2.4-4.1,4-7,4.4
		c-2.7,1.2-4.9,1.7-4.9,1.7c-7.9-0.8-11.7-5.8-12.6-11.7c-0.4-0.5-0.8-1-1.1-1.5c-4.2,0-8.4,0-12.6,0
		C83,124.7,95.9,141.6,118.3,134.8z"/>
	<path class="st0" d="M118.3,134.8c0,0,17.7-12.6,19.7-27.7c-5,0-10.2,0-15.4,0c-0.2,2.9-1.7,5.3-3.8,7.1c-1.8,2.4-4.1,4-7,4.4
		c-2.7,1.2-4.9,1.7-4.9,1.7c-7.9-0.8-11.7-5.8-12.6-11.7c-0.4-0.5-0.8-1-1.1-1.5c-4.2,0-8.4,0-12.6,0
		C83,124.7,95.9,141.6,118.3,134.8z"/>
	<path class="st0" d="M118.3,134.8c0,0,17.7-12.6,19.7-27.7c-5,0-10.2,0-15.4,0c-0.2,2.9-1.7,5.3-3.8,7.1c-1.8,2.4-4.1,4-7,4.4
		c-2.7,1.2-4.9,1.7-4.9,1.7c-7.9-0.8-11.7-5.8-12.6-11.7c-0.4-0.5-0.8-1-1.1-1.5c-4.2,0-8.4,0-12.6,0
		C83,124.7,95.9,141.6,118.3,134.8z"/>
	<path class="st0" d="M118.3,134.8c0,0,17.7-12.6,19.7-27.7c-5,0-10.2,0-15.4,0c-0.2,2.9-1.7,5.3-3.8,7.1c-1.8,2.4-4.1,4-7,4.4
		c-2.7,1.2-4.9,1.7-4.9,1.7c-7.9-0.8-11.7-5.8-12.6-11.7c-0.4-0.5-0.8-1-1.1-1.5c-4.2,0-8.4,0-12.6,0
		C83,124.7,95.9,141.6,118.3,134.8z"/>
</g>
<g>
	<g id="XMLID_482_">
		<path id="XMLID_485_" class="st1" d="M104.2,84.5c0,0-28.9,11.4-4.8,30S131.7,83.3,104.2,84.5z"/>
	</g>
</g>
<g>
	<path id="XMLID_411_" class="st1" d="M0.7,106.5c0,0-0.8,0.4,1.9,0.5c87.9,0.5,227.9,0,227.9,0c2.7-0.1,1.9-0.5,1.9-0.5
		c3.6-14.1-14.2-40.9-20.2-41C123,64.9,54.7,65.2,22.1,65.4C8.4,65.5-1.1,88.2,0.7,106.5z"/>
	<path id="XMLID_412_" class="st1" d="M25.1,0.7c0,0,4.3-6.5,2.7,47.9S21.5,38.7,25.1,0.7z"/>
	<path id="XMLID_413_" class="st1" d="M207.1,0.7c0,0,4.3-6.5,2.7,47.9C208.2,103.2,203.5,38.7,207.1,0.7z"/>
</g>
</svg>
