<?xml version="1.0" encoding="utf-8"?>
<!-- Generator: Adobe Illustrator 22.1.0, SVG Export Plug-In . SVG Version: 6.00 Build 0)  -->
<svg version="1.1" id="Layer_1" xmlns="http://www.w3.org/2000/svg" xmlns:xlink="http://www.w3.org/1999/xlink" x="0px" y="0px"
	 viewBox="0 0 57.5 90.5" style="enable-background:new 0 0 57.5 90.5;" xml:space="preserve">
<style type="text/css">
	.st0{opacity:0.1;}
	.st1{fill:#092D30;}
	.st2{fill:none;}
	.st3{fill:#FDF5EA;stroke:#5B5B4B;stroke-linecap:round;stroke-miterlimit:10;}
	.st4{fill:#F7C872;stroke:#5B5B4B;stroke-miterlimit:10;}
	.st5{fill:#5B5B4B;stroke:#5B5B4B;stroke-linecap:round;stroke-miterlimit:10;}
	.st6{fill:#484E44;stroke:#484E44;stroke-linecap:round;stroke-linejoin:round;stroke-miterlimit:10;}
	.st7{fill:none;stroke:#5B5B4B;stroke-linecap:round;stroke-miterlimit:10;}
</style>
<g id="Layer_5">
</g>
<g id="Layer_3">
</g>
<g id="XMLID_2039_">
	<g id="XMLID_2316_" class="st0">
		<path id="XMLID_2397_" class="st1" d="M17.3,14.5c-0.1,1.6,0.4,6.1,0.6,7.6c0.1,1.4,0.3,2.5,0.6,3.5c-5.2,8.9,9.2,19.2,14.4,7.7
			c1.6-3.6,1.4-10.5,1.4-11.7c0-1.5-0.1-6.7-0.1-8C34.1,6,23,0.1,18.6,9.9"/>
		<g id="XMLID_2317_">
			<g id="XMLID_2393_">
				<path id="XMLID_2396_" class="st1" d="M43.6,51.7c0,0,8,10.6,8.3,2.3s-2.1-17.3-5-16.2s-3,3.6-3,3.6"/>
				<path id="XMLID_2395_" class="st1" d="M46.2,51.2c0,0,3.2,4.9,3.9,2.6"/>
				<path id="XMLID_2394_" class="st1" d="M45,47.8c0,0,4.6,1.2,4-1.4c-0.6-2.6-2.3-4.5-3.1-1.5"/>
			</g>
			<path id="XMLID_2392_" class="st1" d="M19.4,89.1c0,0,3-2.6-0.7-3.9S16.1,90.5,19.4,89.1z"/>
			<path id="XMLID_2391_" class="st1" d="M25.8,82.7c0,0-24.1-1.7-20.7-30.2c3.4-28.4,2.5-33.7,16-36.6C34.8,13,42.2,23,43.7,30.6
				S56,78.9,25.8,82.7z"/>
			<path id="XMLID_2390_" class="st1" d="M6.4,75.9c0.1,0.9,0.5,2.1,1.3,3.7l0,0l0,0c0.2,0.3,0.4,0.6,0.6,1
				c2.7,4.2,7.2,6.6,11.2,7.9c17.3,7.7,19-8.6,19.1-14.8c0-0.6-7.8,0-14.9,1.8c-9.1-3.6-17.6-7.7-17.6-7.7S5.5,73.1,6.4,75.9z"/>
			<path id="XMLID_2389_" class="st1" d="M39.5,67.8c0,0-16.4,1.6-10.5-11.7S53.4,58.5,39.5,67.8z"/>
			<path id="XMLID_2388_" class="st1" d="M41.1,58.6c0,0-2.5,1-2.2-1.5C39.2,54.5,42.8,56.4,41.1,58.6z"/>
			<path id="XMLID_2387_" class="st1" d="M21.6,50c0,0-4.3-3.2-9.9-1.2"/>
			<path id="XMLID_2386_" class="st1" d="M23.1,47.9c0,0,4.3,5.4,4.2,8.4"/>
			<path id="XMLID_2385_" class="st1" d="M32.1,49.9c0,0,6.9-1.5,8.4-0.9"/>
			<g id="XMLID_2382_">
				<path id="XMLID_2384_" class="st1" d="M30.7,47.3c-0.2-1.4-0.6-2.4-1.5-2.6c-0.5-0.1-0.9-0.1-1.3,0c-0.3,0.1-0.6,0.2-0.7,0.3"/>
				<path id="XMLID_2383_" class="st1" d="M26,64.5c0,0,3.3-8.9,4.3-15.1"/>
			</g>
			<path id="XMLID_2381_" class="st1" d="M21.3,65.9c0,0,12.1-10.6-2.9-15.5S8.1,71.3,21.3,65.9z"/>
			<path id="XMLID_2380_" class="st1" d="M12.9,57.2c0,0-2.5,1-2.2-1.5C11,53.1,14.6,55,12.9,57.2z"/>
			<path id="XMLID_2379_" class="st1" d="M33.5,18.4c0,0,2.9-2.6-3.1-3.8c-5.9-1.1-9.8,0.4-8.6,2.6"/>
			<path id="XMLID_2378_" class="st1" d="M20.3,68.1c0,0,5.5-0.6,1.6-4.6s-11.6-0.1-11.2,1.2C11.1,66.2,11.8,68.5,20.3,68.1z"/>
			<path id="XMLID_2377_" class="st1" d="M42.8,71.3c0,0-9.2,3.7-20.1,1.4c-10.9-2.4-16.5-4.9-16.5-4.9c3.4,12,24.5,12,35.1,11.4
				s7.8-4.7,7.8-4.7S47.6,72.5,42.8,71.3z"/>
			<path id="XMLID_2376_" class="st1" d="M42.8,71.3c0,0,18.3,5.1-7,6.2S6.3,67.8,6.3,67.8S29.7,77.9,42.8,71.3z"/>
			<g id="XMLID_2370_">
				<path id="XMLID_2375_" class="st1" d="M32.2,46.6c0,0,3.2-3.7-2-4.8"/>
				<path id="XMLID_2374_" class="st1" d="M23.4,46.6c0,0-3.4-2.8,1.4-4.8"/>
				<path id="XMLID_2373_" class="st1" d="M25,43.5c0.7-0.2,1.4,0.9,1,0.8c-0.5-0.1-1.2,0.9-1.7,0"/>
				<path id="XMLID_2372_" class="st1" d="M30.2,43.8c-0.4-0.3,0.6-0.8,0.6-0.8c1,0,1.2,0.8,0.7,1.2"/>
				<path id="XMLID_2371_" class="st1" d="M27.3,48.5c0,0-1,0-1.2-0.3"/>
			</g>
			<path id="XMLID_2369_" class="st1" d="M34.1,44.3c0,0,2.8-1.4,3.6-1.7"/>
			<line id="XMLID_2368_" class="st2" x1="42.4" y1="43.1" x2="41.2" y2="42.6"/>
			<path id="XMLID_2367_" class="st1" d="M21.4,45c0,0-3.3-1.6-3.6-1.5"/>
			<path id="XMLID_2366_" class="st1" d="M7.5,59c0,0-0.5-0.9,0.3-1.4"/>
			<path id="XMLID_2365_" class="st1" d="M10,49.3c0,0,0.2-0.9,0.5-1.1"/>
			<path id="XMLID_2364_" class="st1" d="M9.7,66.1c0,0-0.4,1.6,0,1.6"/>
			<path id="XMLID_2363_" class="st1" d="M33.2,71.6c0,0-1.5-0.2-1.4-0.5"/>
			<path id="XMLID_2362_" class="st1" d="M23.9,68.8c0,0-1.8,0.3-1.9,0.6"/>
			<path id="XMLID_2361_" class="st1" d="M37.3,25.4c0,0-1.3-0.3-1.4-0.6"/>
			<path id="XMLID_2360_" class="st1" d="M16.4,24.8c0,0,1.1-0.6,1.5-1.1"/>
			<path id="XMLID_2359_" class="st1" d="M36.4,70.4c0,0,8.6,0.5,4.6-4.3s-11,0.1-11.5,2.1C28.9,70.3,36.4,70.4,36.4,70.4z"/>
			<path id="XMLID_2358_" class="st1" d="M40.5,53.2"/>
			<path id="XMLID_2357_" class="st1" d="M32.1,52.2"/>
			<line id="XMLID_2356_" class="st2" x1="13.3" y1="42.8" x2="12.1" y2="43.1"/>
			<path id="XMLID_2355_" class="st1" d="M8.4,48.7c0,0-8.9,9.9-8.4,1.6s3.5-17.1,6.4-15.7c2.9,1.4,2.7,3.8,2.7,3.8"/>
			<path id="XMLID_2354_" class="st1" d="M5.8,47.9c0,0-3.5,4.6-4.1,2.2"/>
			<path id="XMLID_2353_" class="st1" d="M7.3,44.7c0,0-4.7,0.8-3.8-1.8s2.7-4.3,3.2-1.2"/>
			<g id="XMLID_2348_">
				<path id="XMLID_2352_" class="st1" d="M40.4,53.6c0,0,2.4-0.3,1.3-1.4c-1.1-1.1-1.6,0.3-3.3-0.6"/>
				<path id="XMLID_2351_" class="st1" d="M11,52.6c0,0-2.4-0.3-1.3-1.4s1.6,0.3,3.3-0.6"/>
				<path id="XMLID_2350_" class="st1" d="M13.6,52.8c0,0,5.5,0.4,8.8-0.5"/>
				<path id="XMLID_2349_" class="st1" d="M37.7,54.1c0,0-3.2,0.6-6.9-0.5"/>
			</g>
			<g id="XMLID_2336_">
				<path id="XMLID_2347_" class="st1" d="M30.8,36.8c0,0-16.4,1.6-10.5-11.7S44.6,27.6,30.8,36.8z"/>
				<path id="XMLID_2346_" class="st1" d="M30.2,23.6c1.6,0.7,3.5-4.3,5.2,0.3s-8.7,0.3-8.7,0.3s-3.3-1.1-4.5-1.7"/>
				<path id="XMLID_2345_" class="st1" d="M21.9,22.6c-0.6,0.7-1.1,1.6-1.6,2.6c-6,13.2,10.5,11.7,10.5,11.7
					c5.1-3.4,5.8-7.7,4.4-11.1c-1.8,1.3-8.5-1.4-8.5-1.4s-3.3-1.1-4.5-1.7"/>
				<g id="XMLID_2338_">
					<path id="XMLID_2344_" class="st1" d="M34.6,33.7c0,0-2.5,1-2.2-1.5C32.7,29.6,36.3,31.5,34.6,33.7z"/>
					<path id="XMLID_2343_" class="st1" d="M31.9,33.7c0,0-2.5,1-2.2-1.5C30.1,29.6,33.6,31.5,31.9,33.7z"/>
					<path id="XMLID_2342_" class="st1" d="M29.3,33.7c0,0-2.5,1-2.2-1.5C27.4,29.6,31,31.5,29.3,33.7z"/>
					<path id="XMLID_2341_" class="st1" d="M26.6,33.7c0,0-2.5,1-2.2-1.5C24.7,29.6,28.3,31.5,26.6,33.7z"/>
					<path id="XMLID_2340_" class="st1" d="M24,33.7c0,0-2.5,1-2.2-1.5S25.7,31.5,24,33.7z"/>
					<path id="XMLID_2339_" class="st1" d="M21.3,33.7c0,0-2.5,1-2.2-1.5S23,31.5,21.3,33.7z"/>
				</g>
				<path id="XMLID_2337_" class="st1" d="M31.9,33.6c0,0-2.3,0.9-2.2-1.3l0,0c0,0.4-0.1,0.9-0.4,1.3c0,0-2.3,0.9-2.2-1.3l0,0
					c0,0.4-0.1,0.9-0.4,1.3c0,0-2.3,0.9-2.2-1.3l0,0c0,0.4-0.1,0.9-0.4,1.3c0,0-2.3,0.9-2.2-1.3l0,0c0,0.4-0.1,0.9-0.4,1.3
					c0,0-0.6,0.2-1.1,0.2c3,3.7,10.6,3,10.6,3c1.4-0.9,2.5-2,3.3-3c-0.7,0.1-1.7,0.1-1.7-1.4l0,0C32.4,32.7,32.3,33.1,31.9,33.6z"/>
			</g>
			<g id="XMLID_2323_">
				<path id="XMLID_2335_" class="st1" d="M33.2,35.3c0,0,8.9-1.1,3.9-4.3S33.2,35.3,33.2,35.3z"/>
				<path id="XMLID_2334_" class="st1" d="M20,36c0,0,3.5,1.2,2.9-3.3s-6.8-3.7-7.1-2.4C15.4,31.5,14.8,33.7,20,36z"/>
				<g id="XMLID_2332_">
					<path id="XMLID_2333_" class="st1" d="M33.3,35.3c0,0,2.6-0.3,4.2-1.1c0-0.8,0-1.9,0.3-2.7c-0.2-0.1-0.4-0.3-0.6-0.5
						C32.2,27.8,33.3,35.3,33.3,35.3z"/>
				</g>
				<g id="XMLID_2330_">
					<path id="XMLID_2331_" class="st1" d="M20,36c0,0,1.9,0.6,2.7-0.8c-3.4-2-2.9-3.8-2.6-4.9c0-0.2,0.3-0.4,0.6-0.6
						c-2-0.9-4.6-0.3-4.9,0.6C15.5,31.5,14.8,33.7,20,36z"/>
				</g>
				<path id="XMLID_2329_" class="st1" d="M34.5,37.9c0,0,7.3,0.4,3.9-3.4s-9.4,0.1-9.8,1.7C28.2,37.8,34.5,37.9,34.5,37.9z"/>
				<g id="XMLID_2327_">
					<path id="XMLID_2328_" class="st1" d="M34.6,37.9c0,0,1.1,0,2.3-0.1c-1.8-0.2-4.3-0.6-4-1.6c0.3-0.8,1.9-2.2,4-2.9
						c-3.4-1.4-7.8,1.5-8.2,2.9C28.2,37.8,34.6,37.9,34.6,37.9z"/>
				</g>
				<path id="XMLID_2326_" class="st1" d="M23,37.2c0,0,10.3,1.3,0.1-3.7C13,28.6,11.2,35.6,23,37.2z"/>
				<g id="XMLID_2324_">
					<path id="XMLID_2325_" class="st1" d="M23,37.2c0,0,2.9,0.3,4.1,0c-7.1-1-9.2-4-7.4-5C12.8,30.3,12.7,35.8,23,37.2z"/>
				</g>
			</g>
			<path id="XMLID_2322_" class="st1" d="M14.4,86.2c0,0-0.9-0.6-0.4-1.4"/>
			<line id="XMLID_2321_" class="st2" x1="36" y1="79.4" x2="35.5" y2="80.6"/>
			<g id="XMLID_2318_">
				<path id="XMLID_2320_" class="st1" d="M10.7,64.8c0.4,1.4,1.1,3.7,9.6,3.3c0,0,0.1,0,0.2,0c-4.7-0.4-5.2-2.1-5.6-3.2
					c-0.2-0.7,1.8-2.1,4.3-2.7C15.3,61,10.3,63.7,10.7,64.8z"/>
				<path id="XMLID_2319_" class="st1" d="M36.4,70.4c0,0,1.2,0.1,2.5-0.1c-2.2-0.2-5.5-0.6-5.2-2c0.3-1.1,2.5-3,5-3.8
					c-3.9-1.5-8.8,2.1-9.3,3.8C28.9,70.3,36.4,70.4,36.4,70.4z"/>
			</g>
		</g>
	</g>
	<path id="XMLID_2315_" class="st3" d="M22.5,10.2c-0.1,1.6,0.4,6.1,0.6,7.6c0.1,1.4,0.3,2.5,0.6,3.5c-5.2,8.9,9.2,19.2,14.4,7.7
		c1.6-3.6,1.4-10.5,1.4-11.7c0-1.5-0.1-6.7-0.1-8c0-7.5-11.2-13.5-15.5-3.7"/>
	<g id="XMLID_2042_">
		<g id="XMLID_2311_">
			<path id="XMLID_2314_" class="st3" d="M48.7,47.5c0,0,8,10.6,8.3,2.3s-2.1-17.3-5-16.2s-3,3.6-3,3.6"/>
			<path id="XMLID_2313_" class="st3" d="M51.4,46.9c0,0,3.2,4.9,3.9,2.6"/>
			<path id="XMLID_2312_" class="st3" d="M50.2,43.5c0,0,4.6,1.2,4-1.4s-2.3-4.5-3.1-1.5"/>
		</g>
		<path id="XMLID_2310_" class="st4" d="M24.6,84.9c0,0,3-2.6-0.7-3.9C20.1,79.8,21.3,86.2,24.6,84.9z"/>
		<path id="XMLID_2309_" class="st3" d="M31,78.4c0,0-24.1-1.7-20.7-30.2c3.4-28.4,2.5-33.7,16-36.6c13.6-2.9,21.1,7.1,22.6,14.6
			S61.2,74.7,31,78.4z"/>
		<path id="XMLID_2308_" class="st4" d="M11.6,71.6c0.1,0.9,0.5,2.1,1.3,3.7l0,0l0,0c0.2,0.3,0.4,0.6,0.6,1
			c2.7,4.2,7.1,6.6,11.2,7.9c17.3,7.7,19-8.6,19.1-14.8c0-0.6-7.8,0-14.9,1.8c-9-3.6-17.5-7.7-17.5-7.7S10.7,68.8,11.6,71.6z"/>
		<path id="XMLID_2307_" class="st3" d="M44.7,63.5c0,0-16.4,1.6-10.5-11.7S58.5,54.3,44.7,63.5z"/>
		<path id="XMLID_2306_" class="st3" d="M46.3,54.4c0,0-2.5,1-2.2-1.5C44.3,50.3,48,52.2,46.3,54.4z"/>
		<path id="XMLID_2305_" class="st3" d="M26.7,45.8c0,0-4.3-3.2-9.9-1.2"/>
		<path id="XMLID_2304_" class="st3" d="M28.3,43.6c0,0,4.3,5.4,4.2,8.4"/>
		<path id="XMLID_2303_" class="st3" d="M37.3,45.6c0,0,6.9-1.5,8.4-0.9"/>
		<g id="XMLID_2300_">
			<path id="XMLID_2302_" class="st3" d="M35.8,43.1c-0.2-1.4-0.6-2.4-1.5-2.6c-0.5-0.1-0.9-0.1-1.3,0c-0.3,0.1-0.6,0.2-0.7,0.3"/>
			<path id="XMLID_2301_" class="st3" d="M31.2,60.2c0,0,3.3-8.9,4.3-15.1"/>
		</g>
		<path id="XMLID_2299_" class="st3" d="M26.4,61.7c0,0,12.1-10.6-2.9-15.5S13.3,67.1,26.4,61.7z"/>
		<path id="XMLID_2298_" class="st3" d="M18.1,52.9c0,0-2.5,1-2.2-1.5C16.2,48.9,19.7,50.7,18.1,52.9z"/>
		<path id="XMLID_2297_" class="st3" d="M38.7,14.1c0,0,2.9-2.6-3.1-3.8c-5.9-1.1-9.8,0.4-8.6,2.6"/>
		<path id="XMLID_2296_" class="st5" d="M25.4,63.8c0,0,5.5-0.6,1.6-4.6s-11.6-0.1-11.2,1.2C16.3,61.9,17,64.2,25.4,63.8z"/>
		<path id="XMLID_2295_" class="st5" d="M48,67.1c0,0-9.2,3.7-20.1,1.4c-10.9-2.4-16.5-4.9-16.5-4.9c3.4,12,24.5,12,35.1,11.4
			c10.6-0.7,7.8-4.7,7.8-4.7S52.7,68.2,48,67.1z"/>
		<path id="XMLID_2294_" class="st6" d="M48,67.1c0,0,18.3,5.1-7,6.2s-29.5-9.7-29.5-9.7S34.9,73.7,48,67.1z"/>
		<g id="XMLID_2288_">
			<path id="XMLID_2293_" class="st3" d="M37.4,42.3c0,0,3.2-3.7-2-4.8"/>
			<path id="XMLID_2292_" class="st3" d="M28.6,42.3c0,0-3.4-2.8,1.4-4.8"/>
			<path id="XMLID_2291_" class="st3" d="M30.1,39.2c0.7-0.2,1.4,0.9,1,0.8c-0.5-0.1-1.2,0.9-1.7,0"/>
			<path id="XMLID_2290_" class="st3" d="M35.4,39.5C35,39.2,36,38.7,36,38.7c1,0,1.2,0.8,0.7,1.2"/>
			<path id="XMLID_2289_" class="st3" d="M32.5,44.3c0,0-1,0-1.2-0.3"/>
		</g>
		<path id="XMLID_2287_" class="st3" d="M39.3,40c0,0,2.8-1.4,3.6-1.7"/>
		<line id="XMLID_2286_" class="st7" x1="47.5" y1="38.9" x2="46.4" y2="38.4"/>
		<path id="XMLID_2285_" class="st3" d="M26.6,40.8c0,0-3.3-1.6-3.6-1.5"/>
		<path id="XMLID_2284_" class="st3" d="M12.6,54.7c0,0-0.5-0.9,0.3-1.4"/>
		<path id="XMLID_2283_" class="st3" d="M15.2,45.1c0,0,0.2-0.9,0.5-1.1"/>
		<path id="XMLID_2282_" class="st3" d="M14.9,61.9c0,0-0.4,1.6,0,1.6"/>
		<path id="XMLID_2281_" class="st3" d="M38.4,67.3c0,0-1.5-0.2-1.4-0.5"/>
		<path id="XMLID_2280_" class="st3" d="M29.1,64.5c0,0-1.8,0.3-1.9,0.6"/>
		<path id="XMLID_2279_" class="st3" d="M42.4,21.1c0,0-1.3-0.3-1.4-0.6"/>
		<path id="XMLID_2278_" class="st3" d="M21.7,20.6c0,0,1.1-0.6,1.5-1.1"/>
		<path id="XMLID_2277_" class="st5" d="M41.6,66.2c0,0,8.6,0.5,4.6-4.3S35.2,62,34.6,64C34.1,66.1,41.6,66.2,41.6,66.2z"/>
		<path id="XMLID_2276_" class="st3" d="M45.7,48.9"/>
		<path id="XMLID_2275_" class="st3" d="M37.3,47.9"/>
		<line id="XMLID_2274_" class="st7" x1="18.5" y1="38.6" x2="17.3" y2="38.9"/>
		<path id="XMLID_2273_" class="st3" d="M13.6,44.4c0,0-8.9,9.9-8.4,1.6s3.5-17.1,6.4-15.7s2.7,3.8,2.7,3.8"/>
		<path id="XMLID_2088_" class="st3" d="M11,43.7c0,0-3.5,4.6-4.1,2.2"/>
		<path id="XMLID_2087_" class="st3" d="M12.5,40.4c0,0-4.7,0.8-3.8-1.8s2.7-4.3,3.2-1.2"/>
		<g id="XMLID_2082_">
			<path id="XMLID_2086_" class="st3" d="M45.6,49.4c0,0,2.4-0.3,1.3-1.4c-1.1-1.1-1.6,0.3-3.3-0.6"/>
			<path id="XMLID_2085_" class="st3" d="M16.2,48.3c0,0-2.4-0.3-1.3-1.4s1.6,0.3,3.3-0.6"/>
			<path id="XMLID_2084_" class="st3" d="M18.8,48.5c0,0,5.5,0.4,8.8-0.5"/>
			<path id="XMLID_2083_" class="st3" d="M42.9,49.9c0,0-3.2,0.6-6.9-0.5"/>
		</g>
		<g id="XMLID_2070_">
			<path id="XMLID_2081_" class="st3" d="M36,32.6c0,0-16.4,1.6-10.5-11.7S49.8,23.4,36,32.6z"/>
			<path id="XMLID_2080_" class="st3" d="M35.4,19.3c1.6,0.7,3.5-4.3,5.2,0.3S31.9,20,31.9,20s-3.3-1.1-4.5-1.7"/>
			<path id="XMLID_2079_" class="st3" d="M27.2,18.3c-0.6,0.7-1.1,1.6-1.6,2.6c-6,13.2,10.5,11.7,10.5,11.7
				c5.1-3.4,5.8-7.7,4.4-11.1c-1.8,1.3-8.5-1.4-8.5-1.4s-3.3-1.1-4.5-1.7"/>
			<g id="XMLID_2072_">
				<path id="XMLID_2078_" class="st3" d="M39.8,29.4c0,0-2.5,1-2.2-1.5C37.9,25.3,41.5,27.2,39.8,29.4z"/>
				<path id="XMLID_2077_" class="st3" d="M37.2,29.4c0,0-2.5,1-2.2-1.5C35.2,25.3,38.9,27.2,37.2,29.4z"/>
				<path id="XMLID_2076_" class="st3" d="M34.5,29.4c0,0-2.5,1-2.2-1.5C32.6,25.3,36.2,27.2,34.5,29.4z"/>
				<path id="XMLID_2075_" class="st3" d="M31.8,29.4c0,0-2.5,1-2.2-1.5C30,25.4,33.5,27.2,31.8,29.4z"/>
				<path id="XMLID_2074_" class="st3" d="M29.2,29.4c0,0-2.5,1-2.2-1.5C27.3,25.4,30.9,27.2,29.2,29.4z"/>
				<path id="XMLID_2073_" class="st3" d="M26.5,29.4c0,0-2.5,1-2.2-1.5S28.2,27.2,26.5,29.4z"/>
			</g>
			<path id="XMLID_2071_" class="st3" d="M37.1,29.3c0,0-2.3,0.9-2.2-1.3l0,0c0,0.4-0.1,0.9-0.4,1.3c0,0-2.3,0.9-2.2-1.3l0,0
				c0,0.4-0.1,0.9-0.4,1.3c0,0-2.3,0.9-2.2-1.3l0,0c0,0.4-0.1,0.9-0.4,1.3c0,0-2.3,0.9-2.2-1.3l0,0c0,0.4-0.1,0.9-0.4,1.3
				c0,0-0.6,0.2-1.1,0.2c3,3.7,10.6,3,10.6,3c1.4-0.9,2.5-2,3.3-3c-0.7,0.1-1.7,0.1-1.7-1.4l0,0C37.6,28.4,37.5,28.9,37.1,29.3z"/>
		</g>
		<g id="XMLID_2048_">
			<path id="XMLID_2069_" class="st5" d="M38.4,31c0,0,8.9-1.1,3.9-4.3C37.4,23.5,38.4,31,38.4,31z"/>
			<path id="XMLID_2068_" class="st5" d="M25.2,31.8c0,0,3.5,1.2,2.9-3.3s-6.8-3.7-7.1-2.4C20.6,27.3,20,29.5,25.2,31.8z"/>
			<g id="XMLID_2066_">
				<path id="XMLID_2067_" class="st6" d="M38.4,31c0,0,2.6-0.3,4.2-1.1c0-0.8,0-1.9,0.3-2.7c-0.2-0.1-0.4-0.3-0.6-0.5
					C37.4,23.5,38.4,31,38.4,31z"/>
			</g>
			<g id="XMLID_2064_">
				<path id="XMLID_2065_" class="st6" d="M25.2,31.8c0,0,1.9,0.6,2.7-0.8c-3.4-2-2.9-3.8-2.6-4.9c0-0.2,0.3-0.4,0.6-0.6
					c-2-0.9-4.6-0.3-4.9,0.6C20.6,27.3,20,29.5,25.2,31.8z"/>
			</g>
			<path id="XMLID_2063_" class="st5" d="M39.8,33.6c0,0,7.3,0.4,3.9-3.4s-9.4,0.1-9.8,1.7C33.3,33.5,39.8,33.6,39.8,33.6z"/>
			<g id="XMLID_2061_">
				<path id="XMLID_2062_" class="st6" d="M39.8,33.6c0,0,1.1,0,2.3-0.1c-1.8-0.2-4.3-0.6-4-1.6c0.3-0.8,1.9-2.2,4-2.9
					c-3.4-1.4-7.8,1.5-8.2,2.9C33.4,33.5,39.8,33.6,39.8,33.6z"/>
			</g>
			<path id="XMLID_2060_" class="st5" d="M28.2,32.9c0,0,10.3,1.3,0.1-3.7C18.2,24.3,16.4,31.4,28.2,32.9z"/>
			<g id="XMLID_2058_">
				<path id="XMLID_2059_" class="st6" d="M28.2,32.9c0,0,2.9,0.3,4.1,0c-7.1-1-9.2-4-7.4-5C18,26,18,31.6,28.2,32.9z"/>
			</g>
		</g>
		<path id="XMLID_2047_" class="st3" d="M19.6,81.9c0,0-0.9-0.6-0.4-1.4"/>
		<line id="XMLID_2046_" class="st7" x1="41.2" y1="75.1" x2="40.7" y2="76.3"/>
		<g id="XMLID_2043_">
			<path id="XMLID_2045_" class="st6" d="M15.9,60.5c0.4,1.4,1.1,3.7,9.6,3.3c0,0,0.1,0,0.2,0c-4.7-0.4-5.2-2.1-5.6-3.2
				c-0.2-0.7,1.8-2.1,4.3-2.7C20.5,56.7,15.5,59.4,15.9,60.5z"/>
			<path id="XMLID_2044_" class="st6" d="M41.6,66.2c0,0,1.2,0.1,2.5-0.1c-2.2-0.2-5.5-0.6-5.2-2c0.3-1.1,2.5-3,5-3.8
				c-3.9-1.5-8.8,2.1-9.3,3.8C34.1,66.1,41.6,66.2,41.6,66.2z"/>
		</g>
	</g>
</g>
</svg>
