<?xml version="1.0" encoding="utf-8"?>
<!-- Generator: Adobe Illustrator 22.1.0, SVG Export Plug-In . SVG Version: 6.00 Build 0)  -->
<svg version="1.1" id="Layer_1" xmlns="http://www.w3.org/2000/svg" xmlns:xlink="http://www.w3.org/1999/xlink" x="0px" y="0px"
	 viewBox="0 0 1281.2 721" style="enable-background:new 0 0 1281.2 721;" xml:space="preserve">
<style type="text/css">
	.st0{fill:none;stroke:#5B5B4B;stroke-linecap:round;stroke-miterlimit:10;}
	.st1{fill:none;stroke:#35423E;stroke-linecap:round;stroke-miterlimit:10;}
</style>
<g>
	<g id="XMLID_60_">
		<g id="XMLID_70_">
			
				<rect id="XMLID_78_" x="595.6" y="35.1" transform="matrix(2.840555e-10 -1 1 2.840555e-10 -34.629 1315.662)" class="st0" width="89.9" height="1280"/>
			
				<rect id="XMLID_77_" x="595.6" y="-54.7" transform="matrix(2.842980e-10 -1 1 2.842980e-10 55.2462 1225.7867)" class="st0" width="89.9" height="1280"/>
			
				<rect id="XMLID_76_" x="595.6" y="-144.6" transform="matrix(2.840555e-10 -1 1 2.840555e-10 145.1214 1135.9116)" class="st0" width="89.9" height="1280"/>
			
				<rect id="XMLID_75_" x="595.6" y="-234.5" transform="matrix(2.842775e-10 -1 1 2.842775e-10 234.9967 1046.0364)" class="st0" width="89.9" height="1280"/>
			
				<rect id="XMLID_74_" x="595.6" y="-324.4" transform="matrix(2.840750e-10 -1 1 2.840750e-10 324.8719 956.1611)" class="st0" width="89.9" height="1280"/>
			
				<rect id="XMLID_73_" x="595.6" y="-414.2" transform="matrix(2.842775e-10 -1 1 2.842775e-10 414.7471 866.2859)" class="st0" width="89.9" height="1280"/>
			
				<rect id="XMLID_72_" x="595.6" y="-504.1" transform="matrix(2.841763e-10 -1 1 2.841763e-10 504.6223 776.4107)" class="st0" width="89.9" height="1280"/>
			
				<rect id="XMLID_71_" x="595.6" y="-594" transform="matrix(2.841763e-10 -1 1 2.841763e-10 594.4976 686.5355)" class="st0" width="89.9" height="1280"/>
		</g>
		<g id="XMLID_61_">
			<rect id="XMLID_69_" x="0.5" y="1.1" class="st0" width="160" height="719"/>
			<rect id="XMLID_68_" x="160.5" y="1.1" class="st0" width="160" height="719"/>
			<rect id="XMLID_67_" x="320.5" y="1.1" class="st0" width="160" height="719"/>
			<rect id="XMLID_66_" x="480.5" y="1.1" class="st0" width="160" height="719"/>
			<rect id="XMLID_65_" x="640.5" y="1.1" class="st0" width="160" height="719"/>
			<rect id="XMLID_64_" x="800.5" y="1.1" class="st0" width="160" height="719"/>
			<rect id="XMLID_63_" x="960.5" y="1.1" class="st0" width="160" height="719"/>
			<rect id="XMLID_62_" x="1120.5" y="1.1" class="st0" width="160" height="719"/>
		</g>
	</g>
	<g>
		<g>
			<line class="st1" x1="641.4" y1="2.5" x2="641.2" y2="720.5"/>
			<line class="st1" x1="0.7" y1="1.1" x2="1280.7" y2="1.1"/>
		</g>
		<path class="st0" d="M0.4,719.9L640.7,1.1L0.4,719.9z"/>
		<path class="st0" d="M0.7,540.6L640.4,0.5L0.7,540.6z"/>
		<g>
			<path class="st0" d="M0.7,360.8L640.4,0.5L0.7,360.8z"/>
		</g>
		<path class="st0" d="M0.7,180.9L640.4,0.5L0.7,180.9z"/>
		<line class="st0" x1="0.7" y1="1.1" x2="640.4" y2="0.5"/>
		<path class="st0" d="M1280.7,719.9L640.4,1.1L1280.7,719.9z"/>
		<path class="st0" d="M1280.4,540.6L640.7,0.5L1280.4,540.6z"/>
		<path class="st0" d="M1280.4,360.8L640.7,0.5L1280.4,360.8z"/>
		<path class="st0" d="M1280.4,180.9L640.7,0.5L1280.4,180.9z"/>
		<line class="st0" x1="1280.4" y1="1.1" x2="640.7" y2="0.5"/>
		<line id="XMLID_59_" class="st1" x1="640.7" y1="1.1" x2="800.7" y2="720.5"/>
		<line id="XMLID_58_" class="st1" x1="960.7" y1="720.5" x2="640.7" y2="1.1"/>
		<line id="XMLID_57_" class="st1" x1="1120.7" y1="720.5" x2="640.7" y2="1.1"/>
		<line id="XMLID_54_" class="st1" x1="640.7" y1="1.1" x2="480.7" y2="720.5"/>
		<line id="XMLID_2_" class="st1" x1="320.7" y1="720.5" x2="640.7" y2="1.1"/>
		<line class="st1" x1="640.7" y1="1.1" x2="160.7" y2="720.5"/>
		<line class="st1" x1="640.7" y1="1.1" x2="0.7" y2="90.3"/>
		<line class="st1" x1="1280.7" y1="90.3" x2="640.7" y2="1.1"/>
	</g>
</g>
</svg>
