<?xml version="1.0" encoding="utf-8"?>
<!-- Generator: Adobe Illustrator 22.1.0, SVG Export Plug-In . SVG Version: 6.00 Build 0)  -->
<svg version="1.1" id="Layer_1" xmlns="http://www.w3.org/2000/svg" xmlns:xlink="http://www.w3.org/1999/xlink" x="0px" y="0px"
	 viewBox="0 0 483.3 361" style="enable-background:new 0 0 483.3 361;" xml:space="preserve">
<style type="text/css">
	.st0{fill:#FDF5EA;stroke:#5B5B4B;stroke-linecap:round;stroke-miterlimit:10;}
	.st1{fill:#5B5B4B;stroke:#5B5B4B;stroke-linecap:round;stroke-miterlimit:10;}
	.st2{fill:#FDF5EA;}
	.st3{fill:#FDF5EA;stroke:#5B5B4B;stroke-linecap:round;stroke-linejoin:round;stroke-miterlimit:10;}
	.st4{fill:none;stroke:#5B5B4B;stroke-linecap:round;stroke-miterlimit:10;}
</style>
<g>
	<path class="st0" d="M150.2,147.4V171c0,0,0,4.7,1.4,5.7c1.4,0.9,36.3,0,37.3,0s2.4,0,2.4-3.8c0-2.8-1-18.4-1.5-25.9"/>
	<path id="XMLID_326_" class="st0" d="M87,157.9c0,0-0.6,1.7,1.4,1.8c63,2,163.2-0.1,163.2-0.1c2-0.2,1.4-1.8,1.4-1.8
		c2.6-53.4,0-152.6,0-152.6s0.6-1.7-1.4-1.8c-97.9-4-164.3-0.1-164.3-0.1c-2,0.2-1.4,1.8-1.4,1.8S85.7,88.8,87,157.9z"/>
	<path id="XMLID_325_" class="st0" d="M92.2,17.5c0,0-0.7-4.8,3.1-5c0,0,66.9-5.6,149.2,0.1c3.8,0.3,3.1,5,3.1,5s0.7,62.5-1.4,106.2
		c0,0,0.7,4.8-3.1,5c0,0-63.7,3.9-146.4,0.1c-3.8-0.2-3.1-5-3.1-5L92.2,17.5z"/>
	<path id="XMLID_324_" class="st0" d="M104.1,19.5c-3.2-0.3-4.8,3.6-4.8,3.6s-0.1,91.3,1.4,95.1c0,0,1.6,3.7,4.8,3.6
		c0,0,117.7,1.5,128.2-0.1c3.2-0.5,4.8-3.6,4.8-3.6s2.3-84.3,1.4-94.9c0,0-1.6-3.7-4.8-3.6C235.2,19.6,107.8,19.9,104.1,19.5z"/>
	<path id="XMLID_323_" class="st0" d="M109.6,33.9c0.8,2.3,1.3,4.1,1.6,5.5c0.6,2.7,2.7,3.1,4,1.9c2-1.9,1.8-4.2,1.2-6.2
		c-0.3-1.3,0.7-2.4,2-3.1c1-0.5,3.6-1.4,0.8-2.1c-1.5-0.4-3.4-0.7-5.1-0.8C111,29.1,108.3,30.1,109.6,33.9z"/>
	<path id="XMLID_322_" class="st0" d="M87,160.2c0,0-0.6,0.2,1.4,0.3c63,0.3,163.2,0,163.2,0c2,0,1.4-0.3,1.4-0.3
		c2.6-7.6,0-21.7,0-21.7s0.6-0.2-1.4-0.3c-97.9-0.6-164.3,0-164.3,0c-2,0-1.4,0.3-1.4,0.3S85.7,150.4,87,160.2z"/>
</g>
<g>
	<g>
		<g>
			<path class="st1" d="M115.9,179.4c0,0-2.5,39.6-2.3,70.1c0.1,3.6,0.2,7,0.2,9.9c0,0,0,0,0,0.1c0.2,7.5-0.1,10.8-0.7,11.6
				c-2,17.7,0.2,85,0.2,85l-11.4,1c0,0,2.2-40.5,0.8-68c-1.4-27.6-3.4-101.3-5.7-105.1"/>
			<path class="st1" d="M426.5,179.4c0,0-2.5,39.6-2.3,70.1c0.1,3.6,0.2,7,0.2,9.9c0,0,0,0,0,0.1c0.2,7.5-0.1,10.8-0.7,11.6
				c-2,17.7,0.2,85,0.2,85l-11.4,1c0,0,2.2-40.5,0.8-68c-1.4-27.6-3.4-101.3-5.7-105.1"/>
			<path class="st0" d="M448.1,188c3.8-3.7,0-10.5,0-10.5s0.9-0.1-2.1-0.1c-81.4-0.2-148.2-0.1-191.3-0.1
				c-108.6-0.1-178.3,0.1-178.3,0.1c-2.9,0-2.1,0.1-2.1,0.1s-0.2,5.8,1.7,10.6c0,0-0.9,0.1,2.1,0.1c50.8,0.1,117.8,0.1,168.5,0
				c90.2,0.1,199.4-0.1,199.4-0.1C449,188.1,448.1,188,448.1,188z"/>
		</g>
	</g>
	<g>
		<g>
			<path class="st0" d="M144,179.4c0,0-2.5,39.6-2.3,70.1c0.1,3.6,0.2,7,0.2,9.9c0,0,0,0,0,0.1c0.2,7.5-0.1,10.8-0.7,11.6
				c-2,17.7,0.2,85,0.2,85l-11.4,1c0,0,2.2-40.5,0.8-68c-1.4-27.6-3.4-101.3-5.7-105.1"/>
			<path class="st0" d="M454.5,179.4c0,0-2.5,39.6-2.3,70.1c0.1,3.6,0.2,7,0.2,9.9c0,0,0,0,0,0.1c0.2,7.5-0.1,10.8-0.7,11.6
				c-2,17.7,0.2,85,0.2,85l-11.4,1c0,0,2.2-40.5,0.8-68c-1.4-27.6-3.4-101.3-5.7-105.1"/>
			<path class="st0" d="M476.2,188c3.8-3.7,0-10.5,0-10.5s0.9-0.1-2.1-0.1c-81.4-0.2-148.2-0.1-191.3-0.1
				c-108.6-0.1-178.3,0.1-178.3,0.1c-2.9,0-2.1,0.1-2.1,0.1s-0.2,5.8,1.7,10.6c0,0-0.9,0.1,2.1,0.1c50.8,0.1,117.8,0.1,168.5,0
				c90.2,0.1,199.4-0.1,199.4-0.1C477,188.1,476.2,188,476.2,188z"/>
		</g>
	</g>
</g>
<g>
	<path class="st0" d="M357.7,147.4V171c0,0,0,4.7,1.1,5.7c1.1,0.9,28,0,28.8,0c0.7,0,1.8,0,1.8-3.8c0-2.8-0.8-18.4-1.2-25.9"/>
	<path id="XMLID_330_" class="st0" d="M264.7,157.2c0,0-0.8,1.7,1.8,1.8c82.2,2,213.1-0.1,213.1-0.1c2.5-0.2,1.8-1.8,1.8-1.8
		c3.3-53.5,0-153,0-153s0.8-1.7-1.8-1.8C351.8-1.7,265,2.2,265,2.2c-2.5,0.2-1.8,1.8-1.8,1.8S263,87.9,264.7,157.2z"/>
	<path id="XMLID_329_" class="st0" d="M271.5,17.7c0,0-1-5.7,4.1-5.9c0,0,87.3-6.7,194.7,0.1c5,0.3,4.1,5.9,4.1,5.9
		s0.9,73.9-1.8,125.5c0,0,1,5.7-4.1,5.9c0,0-83.2,4.6-191.2,0.1c-5-0.2-4.1-5.9-4.1-5.9L271.5,17.7z"/>
	<path id="XMLID_328_" class="st0" d="M287,20.2c-4.2-0.4-6.2,4.2-6.2,4.2s-0.1,108,1.9,112.4c0,0,2,4.4,6.2,4.2
		c0,0,153.7,1.8,167.4-0.1c4.2-0.6,6.2-4.2,6.2-4.2s3-99.6,1.9-112.2c0,0-2-4.4-6.2-4.2C458.2,20.3,291.8,20.6,287,20.2z"/>
	<path id="XMLID_327_" class="st0" d="M288.2,32.9c0.8,2.3,1.3,4.1,1.6,5.5c0.6,2.7,2.7,3.1,4,1.9c2-1.9,1.8-4.2,1.2-6.2
		c-0.3-1.3,0.7-2.4,2-3.1c1-0.5,3.6-1.4,0.8-2.1c-1.5-0.4-3.4-0.7-5.1-0.8C289.6,28.1,286.9,29.1,288.2,32.9z"/>
</g>
<g>
	<g>
		<g id="XMLID_26066_">
			<path id="XMLID_26067_" class="st0" d="M181.6,264c-4.9,1.4-4.7-7,0.8-5.4"/>
		</g>
		<g id="XMLID_26064_">
			<path id="XMLID_26065_" class="st0" d="M233.9,258.9c3.9-3.2,7.2,4.5,1.4,5.3"/>
		</g>
		<g>
			<g id="XMLID_26062_">
				<path id="XMLID_26063_" class="st0" d="M185.6,354.2c0,0,5.7-0.6,3.6,4.1C187.2,362.9,180.8,357.4,185.6,354.2z"/>
			</g>
			<g id="XMLID_26060_">
				<path id="XMLID_26061_" class="st0" d="M175.7,355.7c0,0,4.3-0.4,2.7,3C176.9,362.2,172.1,358.1,175.7,355.7z"/>
			</g>
			<path id="XMLID_26059_" class="st0" d="M194.2,360c0,0-6.8,0.5-3.6-4c3.1-4.4,8.7,0.1,9.1,2C200.2,359.9,194.2,360,194.2,360z"/>
			<g id="XMLID_26057_">
				<path id="XMLID_26058_" class="st0" d="M180.3,354.9c0,0,5-0.5,3.2,3.5C181.7,362.5,176.1,357.7,180.3,354.9z"/>
			</g>
			<g id="XMLID_26055_">
				<path id="XMLID_26056_" class="st0" d="M171.6,356.1c0,0,3.9-0.4,2.5,2.7C172.7,361.9,168.4,358.3,171.6,356.1z"/>
			</g>
		</g>
		<g>
			<g id="XMLID_26053_">
				<path id="XMLID_26054_" class="st0" d="M230.3,354.2c0,0-5.7-0.6-3.6,4.1C228.7,362.9,235.1,357.4,230.3,354.2z"/>
			</g>
			<g id="XMLID_26051_">
				<path id="XMLID_26052_" class="st0" d="M240.2,355.7c0,0-4.3-0.4-2.7,3C239.1,362.2,243.8,358.1,240.2,355.7z"/>
			</g>
			<path id="XMLID_26050_" class="st0" d="M221.7,360c0,0,6.8,0.5,3.6-4c-3.1-4.4-8.7,0.1-9.1,2C215.8,359.9,221.7,360,221.7,360z"
				/>
			<g id="XMLID_26048_">
				<path id="XMLID_26049_" class="st0" d="M235.6,354.9c0,0-5-0.5-3.2,3.5C234.3,362.5,239.8,357.7,235.6,354.9z"/>
			</g>
			<g id="XMLID_26046_">
				<path id="XMLID_26047_" class="st0" d="M244.3,356.1c0,0-3.9-0.4-2.5,2.7C243.3,361.9,247.6,358.3,244.3,356.1z"/>
			</g>
		</g>
		<g>
			<path id="XMLID_26045_" class="st0" d="M152.6,169.4c0.8,19.3,1.5,40,2.1,51.7c1.3,25.7-0.7,63.5-0.7,63.5l10.8-0.9
				c0,0-2.2-66.7,0-80.7c1.7-10.5-1.5-50.7-2.2-71.8"/>
			<g id="XMLID_26032_">
				<path id="XMLID_26044_" class="st2" d="M167.3,302c-1.9,0.5-3.2,0.6-4.1,0.5c0.5,6.9-2.8,4.8-4.4,3.5l-0.7,0.3
					c-2.2,4.1-4.9,0.1-5.6-1.2l-0.1,1c-3.6,1.8-3.4-2.1-3.1-4.2c-0.4,0.6-1.3,1.3-3.8,1.2c-4.7-0.1,9-22.4,9-22.4l10.4,2.4
					C164.8,283,176.7,299.6,167.3,302z"/>
				<path id="XMLID_26043_" class="st0" d="M164.8,283c0,0,11.9,16.5,2.4,18.9c-1.9,0.5-3.2,0.6-4.1,0.5c0.5,6.9-2.8,4.8-4.4,3.5
					l-0.7,0.3c-2.2,4.1-4.9,0.1-5.6-1.2l-0.1,1c-3.6,1.8-3.4-2.1-3.1-4.2c-0.4,0.6-1.3,1.3-3.8,1.2c-4.7-0.1,9-22.4,9-22.4"/>
				<g id="XMLID_26036_">
					<g id="XMLID_26038_">
						<path id="XMLID_26042_" class="st3" d="M154.5,280.6c0,0-13.7,22.3-9,22.4s3.9-2.2,4-2.4c0,0-2,7.8,2.8,5.4"/>
						<path id="XMLID_26041_" class="st3" d="M152.2,304.6c0,0,3.4,6.7,6,1.4"/>
						<path id="XMLID_26040_" class="st3" d="M164.8,283c0,0,11.9,16.5,2.4,18.9s-4.8-4.2-2-4"/>
						<path id="XMLID_26039_" class="st3" d="M157.9,305.2c0,0,6.3,6.6,5.2-3.5l-0.3-5.1"/>
					</g>
					<path id="XMLID_26037_" class="st3" d="M156.1,280c0,0-6.4-6.5,0-7"/>
				</g>
				<path id="XMLID_26035_" class="st0" d="M158.5,296.2c0,0,0.3,3.1-0.3,4.8"/>
				<path id="XMLID_26034_" class="st0" d="M153.4,300c0,0-0.1,2.2-0.5,2.3"/>
				<path id="XMLID_26033_" class="st3" d="M152.9,291c-0.4,1.4-2.3,4.4-2.3,4.4"/>
			</g>
			<g id="XMLID_26030_">
				<path id="XMLID_26031_" class="st0" d="M157.1,213.1c-3.9-3.2-7.2,4.5-1.4,5.3"/>
			</g>
			<path id="XMLID_26029_" class="st0" d="M159,213.2c0,0-1.5,0.1-1.5,1.3"/>
			<path id="XMLID_26028_" class="st0" d="M159.5,217.3c0,0,1.7-0.6,1.8-1"/>
		</g>
		<g>
			<path id="XMLID_26027_" class="st0" d="M262.8,157.3c-1,22.2-1.9,49.6-2.7,63.7c-1.3,25.7,0.7,63.5,0.7,63.5l-10.8-0.9
				c0,0,2.2-66.7,0-80.7c-1.6-10,1.2-47.2,2.1-68.9"/>
			<g id="XMLID_26025_">
				<path id="XMLID_26026_" class="st0" d="M250,282.2c-4.4,4.6-5.8,6.1-8.1,12.2c-2.4,6,6.3-8.6,5.8-6.4
					c-0.5,2.1-8.7,43.8-1.9,18.2c6.7-25.6,4.1-9.3,4.1-9.3c0,35.2,2.8,7,3.7,2.6c0.8-4.4,6.6,23.4,5.6,9.7c-1.1-13.8,0-14.9,2.3-3.5
					c2.3,11.5,1.1-15.5,1.1-15.5s-0.5-8.4-2.6-7.7"/>
			</g>
			<path id="XMLID_26024_" class="st3" d="M258.5,274.8c0,0,8.7,5.9,0,6.3"/>
			<g id="XMLID_26022_">
				<path id="XMLID_26023_" class="st0" d="M259.3,218.1c4.9,1.4,4.7-7-0.8-5.4"/>
			</g>
			<path id="XMLID_26021_" class="st0" d="M256.1,213c0,0-1.8,0.4-1.9,0.8"/>
			<path id="XMLID_26020_" class="st0" d="M256.4,217.3c0,0,1.4,0.3,1.7-0.9"/>
		</g>
		<path class="st0" d="M236.2,254.1c0,4.8-0.2,7.1-0.7,7.7c-1.9,16.5,0.2,79.3,0.2,79.3l-10.8,0.9c0,0,2-37.8,0.7-63.5
			c-0.3-5.9-0.6-14-1-23.2"/>
		<path class="st0" d="M179.9,256.2c0,3.4,0.3,5.1,0.7,5.6c1.9,16.5-0.2,79.3-0.2,79.3l10.8,0.9c0,0-2-37.8-0.7-63.5
			c0.3-5.7,0.6-13.6,1-22.4"/>
		<path class="st0" d="M242.6,235.6l-70.9-2.6c0,0,0.4,18.8,0.8,26c0,0.7,0.1,1.3,0.2,2c0,0.2,0.1,0.4,0.1,0.6l0,0
			c2,10.9,14.4,20.5,34,20.8c32,0.5,32.9-9.2,32.9-9.2c1.6-2.9,2.5-5.7,2.8-8.3c0.1,0,0.2,0,0.2,0S243.8,241.3,242.6,235.6z"/>
		<path class="st0" d="M161.3,137.6c0,0,1-4.9,46.8-7.1s64.9,9.5,36,18.7S139.2,153.5,161.3,137.6z"/>
		<path id="XMLID_26019_" class="st0" d="M169.3,150.7c1.3,2.8-4.7,38.6-4.6,41.7c0,3.1-1.2,3.4-9.9,2.6c-8.7-0.8-1.4-57.8,2.4-62.8
			c1.4-1.9,7.2-3.5,13.7-4.8c0,0,34.2-5.3,77.2-1.3c6,0.6,10.7,3.3,11.9,5.1c3.5,5.2,7.8,62.6-0.9,62.9c-8.7,0.3-10,0-9.8-3.2
			s-3.8-39.1-2.4-41.9"/>
		<path class="st0" d="M235.6,340.3l-5.4-0.5l-5.4,0.5c0,0.3-0.1,0.5-0.1,0.7c0,1.4,0,2.5-0.1,3.1c0,0.1,0,0.3,0,0.4
			c0,0.2,0,0.3,0,0.3s0,0,0.1,0c-1.1,4.4-2.9,7.3-3.5,9.4c-0.1,0.2-0.1,0.5-0.2,0.7c0,0.2-0.1,0.4-0.1,0.6c0,0.4,0,0.8,0.2,1.1
			c0.1,0.4,0.4,0.7,0.7,1c0.2,0.2,0.4,0.3,0.6,0.5c1.4,1,4.2,1.5,7.9,1.8c3.6-0.3,6.5-0.8,7.9-1.8c0.2-0.2,0.4-0.3,0.6-0.5
			c0.3-0.3,0.6-0.7,0.7-1c0.1-0.4,0.2-0.7,0.2-1.1c0-0.2,0-0.4-0.1-0.6c0-0.2-0.1-0.4-0.2-0.7c-0.7-2.1-2.4-5-3.5-9.4
			c0.1,0,0.1,0,0.1,0s0-0.1,0-0.3c0-0.1,0-0.2,0-0.4c0-0.6,0-1.7-0.1-3.1C235.7,340.8,235.6,340.6,235.6,340.3z"/>
		<path class="st0" d="M191.2,340.3l-5.4-0.5l-5.4,0.5c0,0.3-0.1,0.5-0.1,0.7c0,1.4,0,2.5-0.1,3.1c0,0.1,0,0.3,0,0.4
			c0,0.2,0,0.3,0,0.3s0,0,0.1,0c-1.1,4.4-2.9,7.3-3.5,9.4c-0.1,0.2-0.1,0.5-0.2,0.7c0,0.2-0.1,0.4-0.1,0.6c0,0.4,0,0.8,0.2,1.1
			c0.1,0.4,0.4,0.7,0.7,1c0.2,0.2,0.4,0.3,0.6,0.5c1.4,1,4.2,1.5,7.9,1.8c3.6-0.3,6.5-0.8,7.9-1.8c0.2-0.2,0.4-0.3,0.6-0.5
			c0.3-0.3,0.6-0.7,0.7-1c0.1-0.4,0.2-0.7,0.2-1.1c0-0.2,0-0.4-0.1-0.6c0-0.2-0.1-0.4-0.2-0.7c-0.7-2.1-2.4-5-3.5-9.4
			c0.1,0,0.1,0,0.1,0s0-0.1,0-0.3c0-0.1,0-0.2,0-0.4c0-0.6,0-1.7-0.1-3.1C191.2,340.8,191.2,340.6,191.2,340.3z"/>
		<g>
			<path class="st2" d="M249.7,145.6c0,0-4.1,73.6-3.1,83.5s3.8,31-7.7,26.7c-11.4-4.3-64.5-4.3-64.5-4.3c-10.2,3.6-7.8-18.6-6.8-27
				s-0.7-75.8-0.7-75.8"/>
			<path class="st0" d="M174.6,251.5c-10.2,3.6-7.8-18.6-6.8-27s-0.7-75.8-0.7-75.8"/>
			<path class="st0" d="M231.7,254.1c-13.4-1.9-37.6-2.5-49.7-2.6"/>
			<path class="st0" d="M249.9,145.6c0,0-4.1,73.6-3.1,83.5s3.8,31-7.7,26.7c-0.7-0.3-1.5-0.5-2.5-0.7"/>
		</g>
		<path id="XMLID_26018_" class="st0" d="M227.9,256.3c0,0,0.8-1.2,1.8-0.7"/>
		<path id="XMLID_26017_" class="st0" d="M232.2,265.9c0,0-1.7-0.6-1.8-1"/>
		<path id="XMLID_26016_" class="st0" d="M186.9,256.2c0,0,1.5,0.1,1.5,1.3"/>
		<path id="XMLID_26015_" class="st0" d="M184.6,266.9c0,0-1.7-0.6-1.8-1"/>
		<path id="XMLID_26014_" class="st0" d="M242.3,176.9c0,0-5.6,59.7-3.3,68.5"/>
		<path id="XMLID_26013_" class="st0" d="M174.2,208.7c0,0,1.8-60-1.1-68.6"/>
		<g id="XMLID_26011_">
			<path id="XMLID_26012_" class="st0" d="M182.2,343.6c-3.9,3.2-7.2-4.5-1.4-5.3"/>
		</g>
		<g id="XMLID_26009_">
			<path id="XMLID_26010_" class="st0" d="M233.9,339.1c3.9-3.2,7.2,4.5,1.4,5.3"/>
		</g>
		<g>
			<g>
				<g id="XMLID_26000_">
					<g id="XMLID_26001_">
						<path id="XMLID_26008_" class="st0" d="M204.2,27.9c0,0,33.5,2.4,28.8,42s-3.4,46.8-22.3,50.8s-29.3-9.8-31.3-20.3
							S162.2,33.2,204.2,27.9z"/>
						<g>
							<path id="XMLID_26007_" class="st0" d="M231.9,73.6c0,0,4.9-6.4,5.7-3.1"/>
							<path id="XMLID_26006_" class="st0" d="M229.9,78.1c0,0,6.5-1.1,5.3,2.5s-3.7,5.9-4.5,1.7"/>
							<path id="XMLID_26005_" class="st0" d="M228.4,72.5c0,0,12.4-13.8,11.7-2.3s-4.9,23.7-8.9,21.8c-4-1.9-3.7-5.3-3.7-5.3"/>
						</g>
						<g>
							<path id="XMLID_26004_" class="st0" d="M177.8,73.6c0,0-4.9-6.4-5.7-3.1"/>
							<path id="XMLID_26003_" class="st0" d="M179.9,78.1c0,0-6.5-1.1-5.3,2.5s3.7,5.9,4.5,1.7"/>
							<path id="XMLID_26002_" class="st0" d="M181.4,72.5c0,0-12.4-13.8-11.7-2.3s4.9,23.7,8.9,21.8c4-1.9,3.7-5.3,3.7-5.3"/>
						</g>
					</g>
					<g>
						<path class="st2" d="M216,135.9c-1.9-4.4,2.6-35,2.6-35h-29.8c0,0,6.5,30.9,5.5,34.2L216,135.9z"/>
						<path class="st4" d="M188.8,100.9c0,0,6.5,30.9,5.5,34.2"/>
						<path class="st4" d="M218.6,100.9c0,0-4.4,30.6-2.6,35"/>
					</g>
				</g>
				<g>
					<path id="XMLID_25999_" class="st0" d="M204.5,18.5c0,0-4.2,3.7,1,5.4C210.8,25.6,209.1,16.6,204.5,18.5z"/>
					<g>
						<path class="st0" d="M206.9,22.2c-6-1.8-34.9-8.8-29,24.6l52.7,1.8C235.9,18.7,216.7,19.9,206.9,22.2z"/>
						<path class="st0" d="M208,22.6c0,0-36.7-13-30.1,24.2"/>
						<path class="st0" d="M230.5,48.6c7.1-39.5-29-24.7-29-24.7"/>
					</g>
				</g>
				<path id="XMLID_25998_" class="st0" d="M186.6,36.8c0,0-29.1,16.4,19.6,18.3S222.5,26.6,186.6,36.8z"/>
			</g>
		</g>
	</g>
	<path id="XMLID_25997_" class="st4" d="M191.4,129.2c5.7,5.3,16.7,12,28.4-0.6"/>
</g>
<g>
	<g>
		<path class="st0" d="M236.2,283.3c0,0-1.2,17-1.1,30.1c0,1.5,0.1,3,0.1,4.3l0,0c0.1,3.2,0,4.6-0.3,5c-0.9,7.6,0.1,36.5,0.1,36.5
			l-5.4,0.4c0,0,1-17.4,0.4-29.2c-0.7-11.8-1.6-43.5-2.7-45.1"/>
		<path class="st0" d="M252.1,282.4c0,0-1.2,17-1.1,30.1c0,1.5,0.1,3,0.1,4.3l0,0c0.1,3.2,0,4.6-0.3,5c-0.9,7.6,0.1,36.5,0.1,36.5
			l-5.4,0.4c0,0,1-17.4,0.4-29.2c-0.7-11.8-1.6-43.5-2.7-45.1"/>
		<path class="st0" d="M184.2,282.4c0,0,1.2,17,1.1,30.1c0,1.5-0.1,3-0.1,4.3l0,0c-0.1,3.2,0,4.6,0.3,5c0.9,7.6-0.1,36.5-0.1,36.5
			l5.4,0.4c0,0-1-17.4-0.4-29.2c0.7-11.8,1.6-43.5,2.7-45.1"/>
		<path class="st0" d="M168.3,281.4c0,0,1.2,17,1.1,30.1c0,1.5-0.1,3-0.1,4.3l0,0c-0.1,3.2,0,4.6,0.3,5c0.9,7.6-0.1,36.5-0.1,36.5
			l5.4,0.4c0,0-1-17.4-0.4-29.2c0.7-11.8,1.6-43.5,2.7-45.1"/>
		<path class="st0" d="M251.9,292.8c1.3-3.7,0-10.5,0-10.5s0.3-0.1-0.7-0.1c-0.1,0-0.1,0-0.2,0c-0.1,0-0.1,0-0.2,0
			c0,0-15.5-0.1-40.9-0.1s-40.9,0.1-40.9,0.1c-0.1,0-0.1,0-0.2,0c-0.1,0-0.1,0-0.2,0c-1,0-0.7,0.1-0.7,0.1s-1.3,6.9,0,10.5
			c0,0-0.3,0.1,0.7,0.1c0,0,0.3,0,0.7,0c0.1,0,0.1,0,0.2,0c12,0.1,26.7,0.1,40.3,0.1s28.3,0,40.3-0.1c0.1,0,0.2,0,0.2,0
			c0.5,0,0.7,0,0.7,0C252.2,292.9,251.9,292.8,251.9,292.8z"/>
		<path class="st0" d="M242,289.6c0,0,0.3-51.4,0-127c0-1.5-0.1-1.1-0.1-1.1s-61.4-1.3-63.8,0c0,0-0.1-0.4-0.1,1.1
			c0,0-0.1,77.4,0,126.1"/>
	</g>
</g>
<g>
	<path id="XMLID_331_" class="st0" d="M97.7,68.8c-0.8-0.2-1.2,2.2-1.2,2.2s0,56.5,0.3,58.8c0,0,0.4,2.3,1.2,2.2
		c0,0,28.4,0.9,30.9-0.1c0.8-0.3,1.2-2.2,1.2-2.2s0.5-52.1,0.3-58.7c0,0-0.4-2.3-1.2-2.2C129.3,68.8,98.6,69,97.7,68.8z"/>
	<g>
		<path class="st0" d="M120,120.2c0.4,0,0.7,0.1,0.9,0.2c0.1-15.3,0.4-44.6,0.3-49.4c0,0-0.4-2.3-1.2-2.2c0,0-30.7,0.2-31.6-0.1
			c-0.8-0.2-1.2,2.2-1.2,2.2s0,32.9,0.1,49.5c0.2-0.1,0.5-0.3,1-0.3C89.2,120.3,120,120.2,120,120.2z"/>
		<path class="st0" d="M120.8,129.7c0,0,0-3.7,0.1-9.3c-0.2-0.1-0.5-0.2-0.9-0.2c0,0-30.7,0-31.6,0c-0.5,0-0.8,0.2-1,0.3
			c0,5.1,0.1,8.7,0.2,9.3c0,0,0.4,2.3,1.2,2.2c0,0,12.2,0.4,21.4,0.4c4.8,0,8.7-0.1,9.6-0.4C120.4,131.6,120.8,129.7,120.8,129.7z"
			/>
	</g>
	<g>
		<g>
			<path id="XMLID_337_" class="st0" d="M105.5,121.9c0,0,6.9,4.9,0.2,8C99,133.1,97.1,120.9,105.5,121.9z"/>
			<g>
				<path id="XMLID_332_" class="st0" d="M105,123.6c0,0,4.1,2.9,0.1,4.7C101.1,130.2,100,123,105,123.6z"/>
			</g>
		</g>
	</g>
</g>
<g>
	<g>
		<path class="st0" d="M144.9,177.4c-4.8,0.1-34.1-0.1-49.4-0.3c-5.6-0.1-9.3-0.1-9.3-0.1s-1.9-0.4-2.2-1.2
			c-0.1-0.4-0.2-1.2-0.3-2.5c0.1-5.4,0.3-9.8,0.3-9.8c-0.1-0.8,2.2-1.2,2.2-1.2c0.5-0.1,4.1-0.2,9.3-0.2c16.6-0.2,49.5-0.1,49.5-0.1
			s1.7,0.3,2.1,0.8c0,1.5,0,2.9,0,4.2c0,2.4,0,5.8,0,9.3C146.7,177.1,144.9,177.4,144.9,177.4z"/>
		<path class="st0" d="M135.5,177.4c-4.8,0.1-34.1-0.1-49.4-0.3c-5.6-0.1-9.3-0.1-9.3-0.1s-1.9-0.4-2.2-1.2
			c-0.1-0.4-0.2-1.2-0.3-2.5c0.1-5.4,0.3-9.8,0.3-9.8c-0.1-0.8,2.2-1.2,2.2-1.2c0.5-0.1,4.1-0.2,9.3-0.2c16.6-0.2,49.5-0.1,49.5-0.1
			s1.7,0.3,2.1,0.8c0,1.5,0,2.9,0,4.2c0,2.4,0,5.8,0,9.3C137.3,177.1,135.5,177.4,135.5,177.4z"/>
	</g>
	<g>
		<path class="st0" d="M76.5,162.4c4.8,0.1,34.1-0.1,49.4-0.3c5.6-0.1,9.3-0.1,9.3-0.1s1.9-0.4,2.2-1.2c0.1-0.4,0.2-1.2,0.3-2.5
			c-0.1-5.4-0.3-9.8-0.3-9.8c0.1-0.8-2.2-1.2-2.2-1.2c-0.5-0.1-4.1-0.2-9.3-0.2c-16.6-0.2-49.5-0.1-49.5-0.1s-1.7,0.3-2.1,0.8
			c0,1.5,0,2.9,0,4.2c0,2.4,0,5.8,0,9.3C74.7,162.1,76.5,162.4,76.5,162.4z"/>
		<path class="st0" d="M85.9,162.4c4.8,0.1,34.1-0.1,49.4-0.3c5.6-0.1,9.3-0.1,9.3-0.1s1.9-0.4,2.2-1.2c0.1-0.4,0.2-1.2,0.3-2.5
			c-0.1-5.4-0.3-9.8-0.3-9.8c0.1-0.8-2.2-1.2-2.2-1.2c-0.5-0.1-4.1-0.2-9.3-0.2c-16.6-0.2-49.5-0.1-49.5-0.1s-1.7,0.3-2.1,0.8
			c0,1.5,0,2.9,0,4.2c0,2.4,0,5.8,0,9.3C84.1,162.1,85.9,162.4,85.9,162.4z"/>
	</g>
	<g>
		<path class="st0" d="M144.9,147.4c-4.8,0.1-34.1-0.1-49.4-0.3c-5.6-0.1-9.3-0.1-9.3-0.1s-1.9-0.4-2.2-1.2
			c-0.1-0.4-0.2-1.2-0.3-2.5c0.1-5.4,0.3-9.8,0.3-9.8c-0.1-0.8,2.2-1.2,2.2-1.2c0.5-0.1,4.1-0.2,9.3-0.2c16.6-0.2,49.5-0.1,49.5-0.1
			s1.7,0.3,2.1,0.8c0,1.5,0,2.9,0,4.2c0,2.4,0,5.8,0,9.3C146.7,147.1,144.9,147.4,144.9,147.4z"/>
		<path class="st0" d="M135.5,147.4c-4.8,0.1-34.1-0.1-49.4-0.3c-5.6-0.1-9.3-0.1-9.3-0.1s-1.9-0.4-2.2-1.2
			c-0.1-0.4-0.2-1.2-0.3-2.5c0.1-5.4,0.3-9.8,0.3-9.8c-0.1-0.8,2.2-1.2,2.2-1.2c0.5-0.1,4.1-0.2,9.3-0.2c16.6-0.2,49.5-0.1,49.5-0.1
			s1.7,0.3,2.1,0.8c0,1.5,0,2.9,0,4.2c0,2.4,0,5.8,0,9.3C137.3,147.1,135.5,147.4,135.5,147.4z"/>
	</g>
</g>
<g>
	<path id="XMLID_354_" class="st0" d="M23.8,172.6c-0.8-0.2-1.2,2.2-1.2,2.2s0,56.5,0.3,58.8c0,0,0.4,2.3,1.2,2.2
		c0,0,28.4,0.9,30.9-0.1c0.8-0.3,1.2-2.2,1.2-2.2s0.5-52.1,0.3-58.7c0,0-0.4-2.3-1.2-2.2C55.5,172.6,24.7,172.8,23.8,172.6z"/>
	<g>
		<path class="st0" d="M46.1,224c0.4,0,0.7,0.1,0.9,0.2c0.1-15.3,0.4-44.6,0.3-49.4c0,0-0.4-2.3-1.2-2.2c0,0-30.7,0.2-31.6-0.1
			c-0.8-0.2-1.2,2.2-1.2,2.2s0,32.9,0.1,49.5c0.2-0.1,0.5-0.3,1-0.3C15.4,224,46.1,224,46.1,224z"/>
		<path class="st0" d="M46.9,233.5c0,0,0-3.7,0.1-9.3c-0.2-0.1-0.5-0.2-0.9-0.2c0,0-30.7,0-31.6,0c-0.5,0-0.8,0.2-1,0.3
			c0,5.1,0.1,8.7,0.2,9.3c0,0,0.4,2.3,1.2,2.2c0,0,12.2,0.4,21.4,0.4c4.8,0,8.7-0.1,9.6-0.4C46.5,235.4,46.9,233.5,46.9,233.5z"/>
	</g>
	<g>
		<g>
			<path id="XMLID_347_" class="st0" d="M31.6,225.7c0,0,6.9,4.9,0.2,8S23.2,224.7,31.6,225.7z"/>
			<g>
				<path id="XMLID_339_" class="st0" d="M31.1,227.4c0,0,4.1,2.9,0.1,4.7C27.2,234,26.1,226.8,31.1,227.4z"/>
			</g>
		</g>
	</g>
</g>
<g>
	<g>
		<path class="st0" d="M2.7,355.9c4.8,0.1,34.1-0.1,49.4-0.3c5.6-0.1,9.3-0.1,9.3-0.1s1.9-0.4,2.2-1.2c0.1-0.4,0.2-1.2,0.3-2.5
			c-0.1-5.4-0.3-9.8-0.3-9.8c0.1-0.8-2.2-1.2-2.2-1.2c-0.5-0.1-4.1-0.2-9.3-0.2c-16.6-0.2-49.5-0.1-49.5-0.1s-1.6,0.5-2.1,1
			c0,1.5,0,2.9,0,4.2c0,2.4,0,5.8,0,9.3C0.9,355.6,2.7,355.9,2.7,355.9z"/>
		<path class="st0" d="M12,355.9c4.8,0.1,34.1-0.1,49.4-0.3c5.6-0.1,9.3-0.1,9.3-0.1s1.9-0.4,2.2-1.2c0.1-0.4,0.2-1.2,0.3-2.5
			c-0.1-5.4-0.3-9.8-0.3-9.8c0.1-0.8-2.2-1.2-2.2-1.2c-0.5-0.1-4.1-0.2-9.3-0.2c-16.6-0.2-49.5-0.1-49.5-0.1s-1.7,0.3-2.1,0.8
			c0,1.5,0,2.9,0,4.2c0,2.4,0,5.8,0,9.3C10.2,355.6,12,355.9,12,355.9z"/>
	</g>
	<g>
		<path class="st0" d="M71,341c-4.8,0.1-34.1-0.1-49.4-0.3c-5.6-0.1-9.3-0.1-9.3-0.1s-1.9-0.4-2.2-1.2c-0.1-0.4-0.2-1.2-0.3-2.5
			c0.1-5.4,0.3-9.8,0.3-9.8c-0.1-0.8,2.2-1.2,2.2-1.2c0.5-0.1,4.1-0.2,9.3-0.2c16.6-0.2,49.5-0.1,49.5-0.1s1.7,0.3,2.1,0.8
			c0,1.5,0,2.9,0,4.2c0,2.4,0,5.8,0,9.3C72.8,340.7,71,341,71,341z"/>
		<path class="st0" d="M61.7,341c-4.8,0.1-34.1-0.1-49.4-0.3c-5.6-0.1-9.3-0.1-9.3-0.1s-1.9-0.4-2.2-1.2c-0.1-0.4-0.2-1.2-0.3-2.5
			c0.1-5.4,0.3-9.8,0.3-9.8c-0.1-0.8,2.2-1.2,2.2-1.2c0.5-0.1,4.1-0.2,9.3-0.2c16.6-0.2,49.5-0.1,49.5-0.1s1.7,0.3,2.1,0.8
			c0,1.5,0,2.9,0,4.2c0,2.4,0,5.8,0,9.3C63.5,340.7,61.7,341,61.7,341z"/>
	</g>
	<g>
		<path class="st0" d="M2.7,326c4.8,0.1,34.1-0.1,49.4-0.3c5.6-0.1,9.3-0.1,9.3-0.1s1.9-0.4,2.2-1.2c0.1-0.4,0.2-1.2,0.3-2.5
			c-0.1-5.4-0.3-9.8-0.3-9.8c0.1-0.8-2.2-1.2-2.2-1.2c-0.5-0.1-4.1-0.2-9.3-0.2c-16.6-0.2-49.5-0.1-49.5-0.1s-1.6,0.4-2.1,1
			c0,1.5,0,2.9,0,4.2c0,2.4,0,5.8,0,9.3C0.9,325.7,2.7,326,2.7,326z"/>
		<path class="st0" d="M12,326c4.8,0.1,34.1-0.1,49.4-0.3c5.6-0.1,9.3-0.1,9.3-0.1s1.9-0.4,2.2-1.2c0.1-0.4,0.2-1.2,0.3-2.5
			c-0.1-5.4-0.3-9.8-0.3-9.8c0.1-0.8-2.2-1.2-2.2-1.2c-0.5-0.1-4.1-0.2-9.3-0.2c-16.6-0.2-49.5-0.1-49.5-0.1s-1.7,0.3-2.1,0.8
			c0,1.5,0,2.9,0,4.2c0,2.4,0,5.8,0,9.3C10.2,325.7,12,326,12,326z"/>
	</g>
	<g>
		<path class="st0" d="M71,311.1c-4.8,0.1-34.1-0.1-49.4-0.3c-5.6-0.1-9.3-0.1-9.3-0.1s-1.9-0.4-2.2-1.2c-0.1-0.4-0.2-1.2-0.3-2.5
			c0.1-5.4,0.3-9.8,0.3-9.8c-0.1-0.8,2.2-1.2,2.2-1.2c0.5-0.1,4.1-0.2,9.3-0.2c16.6-0.2,49.5-0.1,49.5-0.1s1.7,0.3,2.1,0.8
			c0,1.5,0,2.9,0,4.2c0,2.4,0,5.8,0,9.3C72.8,310.8,71,311.1,71,311.1z"/>
		<path class="st0" d="M61.7,311.1c-4.8,0.1-34.1-0.1-49.4-0.3c-5.6-0.1-9.3-0.1-9.3-0.1s-1.9-0.4-2.2-1.2c-0.1-0.4-0.2-1.2-0.3-2.5
			c0.1-5.4,0.3-9.8,0.3-9.8C0.7,296.4,3,296,3,296c0.5-0.1,4.1-0.2,9.3-0.2c16.6-0.2,49.5-0.1,49.5-0.1s1.7,0.3,2.1,0.8
			c0,1.5,0,2.9,0,4.2c0,2.4,0,5.8,0,9.3C63.5,310.8,61.7,311.1,61.7,311.1z"/>
	</g>
	<g>
		<path class="st0" d="M2.7,296.1c4.8,0.1,34.1-0.1,49.4-0.3c5.6-0.1,9.3-0.1,9.3-0.1s1.9-0.4,2.2-1.2c0.1-0.4,0.2-1.2,0.3-2.5
			c-0.1-5.4-0.3-9.8-0.3-9.8c0.1-0.8-2.2-1.2-2.2-1.2c-0.5-0.1-4.1-0.2-9.3-0.2c-16.6-0.2-49.5-0.1-49.5-0.1s-1.7,0.3-2.1,0.8
			c0,1.5,0,2.9,0,4.2c0,2.4,0,5.8,0,9.3C0.9,295.8,2.7,296.1,2.7,296.1z"/>
		<path class="st0" d="M12,296.1c4.8,0.1,34.1-0.1,49.4-0.3c5.6-0.1,9.3-0.1,9.3-0.1s1.9-0.4,2.2-1.2c0.1-0.4,0.2-1.2,0.3-2.5
			c-0.1-5.4-0.3-9.8-0.3-9.8c0.1-0.8-2.2-1.2-2.2-1.2c-0.5-0.1-4.1-0.2-9.3-0.2c-16.6-0.2-49.5-0.1-49.5-0.1s-1.7,0.3-2.1,0.8
			c0,1.5,0,2.9,0,4.2c0,2.4,0,5.8,0,9.3C10.2,295.8,12,296.1,12,296.1z"/>
	</g>
	<g>
		<path class="st0" d="M71,281.1c-4.8,0.1-34.1-0.1-49.4-0.3c-5.6-0.1-9.3-0.1-9.3-0.1s-1.9-0.4-2.2-1.2c-0.1-0.4-0.2-1.2-0.3-2.5
			c0.1-5.4,0.3-9.8,0.3-9.8c-0.1-0.8,2.2-1.2,2.2-1.2c0.5-0.1,4.1-0.2,9.3-0.2c16.6-0.2,49.5-0.1,49.5-0.1s1.7,0.3,2.1,0.8
			c0,1.5,0,2.9,0,4.2c0,2.4,0,5.8,0,9.3C72.8,280.8,71,281.1,71,281.1z"/>
		<path class="st0" d="M61.7,281.1c-4.8,0.1-34.1-0.1-49.4-0.3c-5.6-0.1-9.3-0.1-9.3-0.1s-1.9-0.4-2.2-1.2c-0.1-0.4-0.2-1.2-0.3-2.5
			c0.1-5.4,0.3-9.8,0.3-9.8C0.7,266.4,3,266,3,266c0.5-0.1,4.1-0.2,9.3-0.2c16.6-0.2,49.5-0.1,49.5-0.1s1.7,0.3,2.1,0.8
			c0,1.5,0,2.9,0,4.2c0,2.4,0,5.8,0,9.3C63.5,280.8,61.7,281.1,61.7,281.1z"/>
	</g>
	<g>
		<path class="st0" d="M2.7,266.2c4.8,0.1,34.1-0.1,49.4-0.3c5.6-0.1,9.3-0.1,9.3-0.1s1.9-0.4,2.2-1.2c0.1-0.4,0.2-1.2,0.3-2.5
			c-0.1-5.4-0.3-9.8-0.3-9.8c0.1-0.8-2.2-1.2-2.2-1.2c-0.5-0.1-4.1-0.2-9.3-0.2c-16.6-0.2-49.5-0.1-49.5-0.1s-1.7,0.3-2.1,0.8
			c0,1.5,0,2.9,0,4.2c0,2.4,0,5.8,0,9.3C0.9,265.9,2.7,266.2,2.7,266.2z"/>
		<path class="st0" d="M12,266.2c4.8,0.1,34.1-0.1,49.4-0.3c5.6-0.1,9.3-0.1,9.3-0.1s1.9-0.4,2.2-1.2c0.1-0.4,0.2-1.2,0.3-2.5
			c-0.1-5.4-0.3-9.8-0.3-9.8c0.1-0.8-2.2-1.2-2.2-1.2c-0.5-0.1-4.1-0.2-9.3-0.2c-16.6-0.2-49.5-0.1-49.5-0.1s-1.7,0.3-2.1,0.8
			c0,1.5,0,2.9,0,4.2c0,2.4,0,5.8,0,9.3C10.2,265.9,12,266.2,12,266.2z"/>
	</g>
	<g>
		<path class="st0" d="M71,251.2c-4.8,0.1-34.1-0.1-49.4-0.3c-5.6-0.1-9.3-0.1-9.3-0.1s-1.9-0.4-2.2-1.2c-0.1-0.4-0.2-1.2-0.3-2.5
			c0.1-5.4,0.3-9.8,0.3-9.8c-0.1-0.8,2.2-1.2,2.2-1.2c0.5-0.1,4.1-0.2,9.3-0.2c16.6-0.2,49.5-0.1,49.5-0.1s1.7,0.3,2.1,0.8
			c0,1.5,0,2.9,0,4.2c0,2.4,0,5.8,0,9.3C72.8,250.9,71,251.2,71,251.2z"/>
		<path class="st0" d="M61.7,251.2c-4.8,0.1-34.1-0.1-49.4-0.3c-5.6-0.1-9.3-0.1-9.3-0.1s-1.9-0.4-2.2-1.2c-0.1-0.4-0.2-1.2-0.3-2.5
			c0.1-5.4,0.3-9.8,0.3-9.8c-0.1-0.8,2.2-1.2,2.2-1.2c0.5-0.1,4.1-0.2,9.3-0.2c16.6-0.2,49.5-0.1,49.5-0.1s1.7,0.3,2.1,0.8
			c0,1.5,0,2.9,0,4.2c0,2.4,0,5.8,0,9.3C63.5,250.9,61.7,251.2,61.7,251.2z"/>
	</g>
</g>
<g>
	<path id="XMLID_362_" class="st0" d="M399.1,111c0.2-0.2,0.1,2.2,0.1,2.2s-3.5,56.4-3.7,58.7c0,0-0.2,2.3-0.4,2.2
		c0,0-5.8,0.6-6.2-0.4c-0.1-0.3-0.1-2.2-0.1-2.2s3.1-52,3.5-58.6c0,0,0.2-2.3,0.4-2.2C392.7,110.6,398.9,111.2,399.1,111z"/>
	<g>
		<path id="XMLID_363_" class="st0" d="M392.5,110.3c0.2,0.2-2.2,0.1-2.2,0.1s-56.4-3.5-58.7-3.7c0,0-2.3-0.2-2.2-0.4
			c0,0-0.6-5.8,0.4-6.2c0.3-0.1,2.2-0.1,2.2-0.1s52,3.1,58.6,3.5c0,0,2.3,0.2,2.2,0.4C392.8,103.9,392.2,110.1,392.5,110.3z"/>
		<g>
			<g>
				<path id="XMLID_365_" class="st0" d="M386.5,102.5c0,0-4.5,18.9,11.9,14.1S399.5,87.9,386.5,102.5z"/>
				<g>
					<path id="XMLID_364_" class="st0" d="M390,104.7c0,0-2.6,11.2,7,8.3C406.7,110.2,397.7,96.1,390,104.7z"/>
				</g>
			</g>
		</g>
	</g>
	<g>
		<path id="XMLID_368_" class="st0" d="M321.4,104.6c0,0.2-0.6-0.1-0.6-0.1s-13.3-8.7-13.8-9.2c0,0-0.5-0.4-0.4-0.5
			c0,0,2.9-4.9,3.4-5.2c0.2-0.1,0.6,0.1,0.6,0.1s12.3,8,13.9,9c0,0,0.5,0.4,0.4,0.5C324.9,99.2,321.5,104.4,321.4,104.6z"/>
		<g>
			<g>
				<path id="XMLID_367_" class="st0" d="M320.8,93.8c0,0-13.3,14.2,3.3,18.1C340.7,115.8,339.3,87.5,320.8,93.8z"/>
				<g>
					<path id="XMLID_366_" class="st0" d="M322.8,97.5c0,0-7.8,8.4,2,10.7S333.7,93.8,322.8,97.5z"/>
				</g>
			</g>
		</g>
		<g>
			<path id="XMLID_360_" class="st0" d="M282.1,75.3c0,0,6.3-7.8,18.2,1.7c11.9,9.6,14.5,10.8,12.6,16.3c-1.8,5.6-8,5.2-11.7,3.5
				C297.6,95.1,276.9,86.8,282.1,75.3z"/>
			<path id="XMLID_356_" class="st0" d="M265.5,63.7c0,0,10.8-14.6,22.1-4.1s14,11.5,9.6,20.9s-11.9,11.1-15.9,9.8
				C277.4,89,254.6,83.8,265.5,63.7z"/>
		</g>
	</g>
	<g>
		<g>
			<path id="XMLID_370_" class="st0" d="M382.2,172.5c0,0-4.5,18.9,11.9,14.1C410.4,181.7,395.2,157.9,382.2,172.5z"/>
			<g>
				<path id="XMLID_369_" class="st0" d="M385.8,174.7c0,0-2.6,11.2,7,8.3S393.4,166,385.8,174.7z"/>
			</g>
		</g>
	</g>
</g>
<g>
	<path id="XMLID_335_" class="st0" d="M456.6,98.7c0.8-0.2,1.2,2.2,1.2,2.2s0,56.5-0.3,58.8c0,0-0.4,2.3-1.2,2.2
		c0,0-28.4,0.9-30.9-0.1c-0.8-0.3-1.2-2.2-1.2-2.2s-0.5-52.1-0.3-58.7c0,0,0.4-2.3,1.2-2.2C425,98.8,455.7,98.9,456.6,98.7z"/>
	<g>
		<path class="st0" d="M434.3,150.1c-0.4,0-0.7,0.1-0.9,0.2c-0.1-15.3-0.4-44.6-0.3-49.4c0,0,0.4-2.3,1.2-2.2c0,0,30.7,0.2,31.6-0.1
			c0.8-0.2,1.2,2.2,1.2,2.2s0,32.9-0.1,49.5c-0.2-0.1-0.5-0.3-1-0.3C465.1,150.2,434.3,150.1,434.3,150.1z"/>
		<path class="st0" d="M433.5,159.6c0,0,0-3.7-0.1-9.3c0.2-0.1,0.5-0.2,0.9-0.2c0,0,30.7,0,31.6,0c0.5,0,0.8,0.2,1,0.3
			c0,5.1-0.1,8.7-0.2,9.3c0,0-0.4,2.3-1.2,2.2c0,0-12.2,0.4-21.4,0.4c-4.8,0-8.7-0.1-9.6-0.4C433.9,161.5,433.5,159.6,433.5,159.6z"
			/>
	</g>
	<g>
		<g>
			<path id="XMLID_334_" class="st0" d="M448.8,151.8c0,0-6.9,4.9-0.2,8C455.4,163,457.3,150.8,448.8,151.8z"/>
			<g>
				<path id="XMLID_333_" class="st0" d="M449.4,153.6c0,0-4.1,2.9-0.1,4.7C453.2,160.2,454.3,152.9,449.4,153.6z"/>
			</g>
		</g>
	</g>
</g>
<g>
	<path class="st0" d="M405.6,177.4c4.8,0.1,34.1-0.1,49.4-0.3c5.6-0.1,9.3-0.1,9.3-0.1s1.9-0.4,2.2-1.2c0.1-0.4,0.2-1.2,0.3-2.5
		c-0.1-5.4-0.3-9.8-0.3-9.8c0.1-0.8-2.2-1.2-2.2-1.2c-0.5-0.1-4.1-0.2-9.3-0.2c-16.6-0.2-49.5-0.1-49.5-0.1s-1.7,0.3-2.1,0.8
		c0,1.5,0,2.9,0,4.2c0,2.4,0,5.8,0,9.3C403.9,177.1,405.6,177.4,405.6,177.4z"/>
	<path class="st0" d="M415,177.4c4.8,0.1,34.1-0.1,49.4-0.3c5.6-0.1,9.3-0.1,9.3-0.1s1.9-0.4,2.2-1.2c0.1-0.4,0.2-1.2,0.3-2.5
		c-0.1-5.4-0.3-9.8-0.3-9.8c0.1-0.8-2.2-1.2-2.2-1.2c-0.5-0.1-4.1-0.2-9.3-0.2c-16.6-0.2-49.5-0.1-49.5-0.1s-1.7,0.3-2.1,0.8
		c0,1.5,0,2.9,0,4.2c0,2.4,0,5.8,0,9.3C413.2,177.1,415,177.4,415,177.4z"/>
	<g>
		<g>
			<path id="XMLID_338_" class="st0" d="M456.5,171c0,0,4.9,6.9,8,0.2C467.7,164.5,455.5,162.6,456.5,171z"/>
			<g>
				<path id="XMLID_336_" class="st0" d="M458.2,170.5c0,0,2.9,4.1,4.7,0.1S457.6,165.6,458.2,170.5z"/>
			</g>
		</g>
	</g>
	<g>
		<g>
			<path id="XMLID_341_" class="st0" d="M416.3,171c0,0,4.9,6.9,8,0.2C427.5,164.5,415.3,162.6,416.3,171z"/>
			<g>
				<path id="XMLID_340_" class="st1" d="M418,170.5c0,0,2.9,4.1,4.7,0.1C424.6,166.7,417.4,165.6,418,170.5z"/>
			</g>
		</g>
	</g>
	<g>
		<g>
			<path id="XMLID_343_" class="st0" d="M428.5,171c0,0,4.9,6.9,8,0.2S427.4,162.6,428.5,171z"/>
			<g>
				<path id="XMLID_342_" class="st1" d="M430.2,170.5c0,0,2.9,4.1,4.7,0.1C436.8,166.7,429.6,165.6,430.2,170.5z"/>
			</g>
		</g>
	</g>
	<g>
		<g>
			<path id="XMLID_345_" class="st0" d="M467.7,168.5c0,0,3.2,4.5,5.2,0.1C475,164.2,467,163,467.7,168.5z"/>
			<g>
				<path id="XMLID_344_" class="st0" d="M469.2,168.1c0,0,1.5,2.1,2.4,0.1C472.5,166.1,468.9,165.6,469.2,168.1z"/>
			</g>
		</g>
	</g>
	<g>
		<g>
			<g>
				<path id="XMLID_346_" class="st0" d="M469.2,174.6c0,0,1.5,2.1,2.4,0.1C472.5,172.7,468.9,172.1,469.2,174.6z"/>
			</g>
		</g>
	</g>
	<g>
		<path class="st0" d="M443.2,164.6c-1.1,0.1-2.2,0.9-2,2.8c0,0,1.1,1.5,2.3,1.6c0.6,0,6.8,0.1,7.7,0c0.5-0.1,1.1-0.5,1.5-1.5
			c0.8-1.7-0.4-2.8-1.7-2.9C450.2,164.5,444,164.5,443.2,164.6z"/>
		<g>
			<path id="XMLID_348_" class="st0" d="M442.1,167.1c0,0,1.5,2.1,2.4,0.1C445.4,165.2,441.8,164.6,442.1,167.1z"/>
		</g>
		<g>
			<path id="XMLID_352_" class="st0" d="M449.6,167.1c0,0,1.5,2.1,2.4,0.1C452.9,165.2,449.3,164.6,449.6,167.1z"/>
		</g>
	</g>
	<g>
		<path class="st0" d="M440.4,172.1c-0.6,0-1.2,0.5-1.1,1.5c0,0,0.6,0.8,1.2,0.8c0.3,0,3.6,0.1,4.1,0c0.3,0,0.6-0.3,0.8-0.8
			c0.4-0.9-0.2-1.5-0.9-1.6C444.1,172.1,440.8,172.1,440.4,172.1z"/>
		<g>
			<path id="XMLID_350_" class="st0" d="M439.8,173.5c0,0,0.8,1.1,1.3,0C441.6,172.5,439.6,172.2,439.8,173.5z"/>
		</g>
		<g>
			<path id="XMLID_349_" class="st0" d="M443.8,173.5c0,0,0.8,1.1,1.3,0C445.6,172.5,443.6,172.2,443.8,173.5z"/>
		</g>
	</g>
	<g>
		<path class="st0" d="M449.7,172.1c-0.6,0-1.2,0.5-1.1,1.5c0,0,0.6,0.8,1.2,0.8c0.3,0,3.6,0.1,4.1,0c0.3,0,0.6-0.3,0.8-0.8
			c0.4-0.9-0.2-1.5-0.9-1.6C453.5,172.1,450.2,172.1,449.7,172.1z"/>
		<g>
			<path id="XMLID_353_" class="st0" d="M449.1,173.5c0,0,0.8,1.1,1.3,0C450.9,172.5,449,172.2,449.1,173.5z"/>
		</g>
		<g>
			<path id="XMLID_351_" class="st0" d="M453.1,173.5c0,0,0.8,1.1,1.3,0C454.9,172.5,453,172.2,453.1,173.5z"/>
		</g>
	</g>
</g>
<g>
	<g>
		<path class="st0" d="M369.9,284.3c0,0-1.2,17-1.1,30.1c0,1.5,0.1,3,0.1,4.3l0,0c0.1,3.2,0,4.6-0.3,5c-0.9,7.6,0.1,36.5,0.1,36.5
			l-5.4,0.4c0,0,1-17.4,0.4-29.2c-0.7-11.8-1.6-43.5-2.7-45.1"/>
		<path class="st0" d="M385.8,283.3c0,0-1.2,17-1.1,30.1c0,1.5,0.1,3,0.1,4.3l0,0c0.1,3.2,0,4.6-0.3,5c-0.9,7.6,0.1,36.5,0.1,36.5
			l-5.4,0.4c0,0,1-17.4,0.4-29.2c-0.7-11.8-1.6-43.5-2.7-45.1"/>
		<path class="st0" d="M317.9,283.3c0,0,1.2,17,1.1,30.1c0,1.5-0.1,3-0.1,4.3l0,0c-0.1,3.2,0,4.6,0.3,5c0.9,7.6-0.1,36.5-0.1,36.5
			l5.4,0.4c0,0-1-17.4-0.4-29.2c0.7-11.8,1.6-43.5,2.7-45.1"/>
		<path class="st0" d="M302,282.4c0,0,1.2,17,1.1,30.1c0,1.5-0.1,3-0.1,4.3l0,0c-0.1,3.2,0,4.6,0.3,5c0.9,7.6-0.1,36.5-0.1,36.5
			l5.4,0.4c0,0-1-17.4-0.4-29.2c0.7-11.8,1.6-43.5,2.7-45.1"/>
		<path class="st0" d="M385.6,293.7c1.3-3.7,0-10.5,0-10.5s0.3-0.1-0.7-0.1c-0.1,0-0.1,0-0.2,0s-0.1,0-0.2,0c0,0-15.5-0.1-40.9-0.1
			s-40.9,0.1-40.9,0.1c-0.1,0-0.1,0-0.2,0s-0.1,0-0.2,0c-1,0-0.7,0.1-0.7,0.1s-1.3,6.9,0,10.5c0,0-0.3,0.1,0.7,0.1c0,0,0.3,0,0.7,0
			c0.1,0,0.1,0,0.2,0c12,0.1,26.7,0.1,40.3,0.1c13.6,0,28.3,0,40.3-0.1c0.1,0,0.2,0,0.2,0c0.5,0,0.7,0,0.7,0
			C385.9,293.8,385.6,293.7,385.6,293.7z"/>
		<path class="st0" d="M375.7,290.6c0,0,0.3-51.4,0-127c0-1.5-0.1-1.1-0.1-1.1s-61.4-1.3-63.8,0c0,0-0.1-0.4-0.1,1.1
			c0,0-0.1,77.4,0,126.1"/>
	</g>
</g>
</svg>
