<?xml version="1.0" encoding="utf-8"?>
<!-- Generator: Adobe Illustrator 22.1.0, SVG Export Plug-In . SVG Version: 6.00 Build 0)  -->
<svg version="1.1" id="Layer_1" xmlns="http://www.w3.org/2000/svg" xmlns:xlink="http://www.w3.org/1999/xlink" x="0px" y="0px"
	 viewBox="0 0 129 456.6" style="enable-background:new 0 0 129 456.6;" xml:space="preserve">
<style type="text/css">
	.st0{fill:#FDF5EA;stroke:#5B5B4B;stroke-linecap:round;stroke-miterlimit:10;}
	.st1{fill:#FDF5EA;}
	.st2{fill:#FDF5EA;stroke:#5B5B4B;stroke-linecap:round;stroke-linejoin:round;stroke-miterlimit:10;}
	.st3{fill:none;stroke:#5B5B4B;stroke-linecap:round;stroke-miterlimit:10;}
</style>
<g>
	<g>
		<path class="st0" d="M63.3,448.7c0.4-1.2,1-2.6,1.8-4.3c0.7-1.6,1.4-3.5,2-5.8c-0.1,0-0.1,0-0.1,0s0,0,0-0.1c0-0.4,0-2.1,0.1-4.7
			l10.4-0.9l0.6,0l0.6,0c0.1,0.7,0.1,1.3,0.2,1.6c0,0,0,0.1,0,0.1c0.1,0.1,0.1,0.2,0.2,0.2c0.2,0.3,0.4,0.5,0.4,0.5s0.4,0.4,1.2,1.1
			c1.3,7.3,6.4,11.7,12.4,14.2c-0.1,0.6-0.3,1.2-0.9,1.7c-0.2,0.2-0.4,0.4-0.6,0.5c-0.8,0.6-2.1,1-3.7,1.3c-1.2,0.2-2.6,0.4-4.2,0.6
			c-1,0.1-2,0.2-3.1,0.2c-0.8,0-1.7,0.1-2.5,0.1c-0.9,0-1.7,0-2.5-0.1c-1.1,0-2.1-0.1-3.1-0.2c-1.6-0.1-3-0.3-4.2-0.6
			c-1.6-0.3-2.9-0.8-3.7-1.3c-0.2-0.2-0.4-0.3-0.6-0.5c-0.7-0.7-1-1.5-0.9-2.3C63,449.6,63.1,449.2,63.3,448.7z"/>
		<path class="st0" d="M81.7,259.6c0,0-2.5,39.5-2.3,70c0.1,3.6,0.2,6.9,0.2,9.9c0,0,0,0,0,0.1c0.2,7.5-0.1,10.8-0.7,11.5
			c-2,17.6,0.2,84.9,0.2,84.9l-11.6,1c0,0,2.2-40.4,0.8-67.9c-1.4-27.5-3.4-101.1-5.8-104.9"/>
		<g>
			<g id="XMLID_25859_">
				<path id="XMLID_25860_" class="st0" d="M102.4,451.8c0,0-4.1-0.4-2.6,2.9C101.2,458.1,105.8,454.2,102.4,451.8z"/>
			</g>
			<g id="XMLID_25857_">
				<path id="XMLID_25858_" class="st0" d="M100,451.4c0,0-4.6-0.4-2.9,3.2C98.7,458.3,103.9,453.9,100,451.4z"/>
			</g>
			<g id="XMLID_25855_">
				<path id="XMLID_25856_" class="st0" d="M97.1,450.6c0,0-5.3-0.5-3.4,3.8C95.6,458.7,101.6,453.6,97.1,450.6z"/>
			</g>
			<g id="XMLID_25853_">
				<path id="XMLID_25854_" class="st0" d="M93.4,449.8c0,0-6.1-0.6-3.9,4.3S98.5,453.2,93.4,449.8z"/>
			</g>
			<path id="XMLID_25852_" class="st0" d="M86.2,456c0,0,7.2,0.5,3.9-4.2c-3.3-4.7-9.3,0.1-9.8,2.1C79.9,455.9,86.2,456,86.2,456z"
				/>
		</g>
		<path id="XMLID_25851_" class="st0" d="M72,345c0,0-1.6,0.1-1.6,1.4"/>
		<path id="XMLID_25850_" class="st0" d="M74.5,356.4c0,0,1.8-0.6,2-1"/>
		<g id="XMLID_25848_">
			<path id="XMLID_25849_" class="st0" d="M77.1,438.4c4.2,3.4,7.7-4.9,1.5-5.6"/>
		</g>
		<g id="XMLID_25846_">
			<path id="XMLID_25847_" class="st0" d="M76.4,353.3c5.2,1.4,5.1-7.5-0.8-5.8"/>
		</g>
	</g>
	<g>
		<g id="XMLID_25844_">
			<path id="XMLID_25845_" class="st0" d="M98.2,208.9c4.2-3.4,7.7,4.9,1.5,5.6"/>
		</g>
		<path id="XMLID_25843_" class="st0" d="M102.5,172.6c-0.7,17.4-1.3,34.4-1.9,44.8c-1.4,27.5,0.8,67.9,0.8,67.9l-11.6-1
			c0,0,2.4-71.3,0-86.3c-1.4-8.6,0.3-36,1.5-58.4"/>
		<path id="XMLID_25842_" class="st0" d="M96.1,209c0,0,1.6,0.1,1.6,1.4"/>
		<path id="XMLID_25841_" class="st0" d="M95.7,213.4c0,0-1.8-0.6-2-1"/>
		<g id="XMLID_25828_">
			<path id="XMLID_25840_" class="st1" d="M87.3,303.9c2,0.5,3.4,0.6,4.3,0.5c-0.6,7.4,3,5.2,4.8,3.7l0.7,0.3c2.4,4.3,5.2,0.1,6-1.3
				l0.1,1.1c3.8,1.9,3.6-2.2,3.3-4.4c0.4,0.7,1.4,1.3,4,1.3c5-0.1-9.6-24-9.6-24l-11.1,2.6C89.9,283.7,77.2,301.4,87.3,303.9z"/>
			<path id="XMLID_25839_" class="st0" d="M89.9,283.7c0,0-12.7,17.7-2.6,20.3c2,0.5,3.4,0.6,4.3,0.5c-0.6,7.4,3,5.2,4.8,3.7
				l0.7,0.3c2.4,4.3,5.2,0.1,6-1.3l0.1,1.1c3.8,1.9,3.6-2.2,3.3-4.4c0.4,0.7,1.4,1.3,4,1.3c5-0.1-9.6-24-9.6-24"/>
			<g id="XMLID_25832_">
				<g id="XMLID_25834_">
					<path id="XMLID_25838_" class="st2" d="M101,281.1c0,0,14.6,23.9,9.6,24s-4.1-2.4-4.3-2.6c0,0,2.1,8.4-3,5.7"/>
					<path id="XMLID_25837_" class="st2" d="M103.4,306.8c0,0-3.6,7.2-6.4,1.5"/>
					<path id="XMLID_25836_" class="st2" d="M89.9,283.7c0,0-12.7,17.7-2.6,20.3c10.1,2.6,5.1-4.5,2.2-4.3"/>
					<path id="XMLID_25835_" class="st2" d="M97.3,307.4c0,0-6.7,7.1-5.6-3.7l0.4-5.4"/>
				</g>
				<path id="XMLID_25833_" class="st2" d="M99.2,280.5c0,0,6.8-6.9,0-7.4"/>
			</g>
			<path id="XMLID_25831_" class="st0" d="M96.7,297.8c0,0-0.3,3.3,0.3,5.1"/>
			<path id="XMLID_25830_" class="st0" d="M102.1,301.8c0,0,0.1,2.4,0.6,2.4"/>
			<path id="XMLID_25829_" class="st2" d="M102.7,292.2c0.5,1.5,2.5,4.8,2.5,4.8"/>
		</g>
	</g>
	<path id="XMLID_25827_" class="st0" d="M84.7,148.5c-1.5,2.9,2.8,41.5,2.6,44.8c-0.2,3.3,1.1,3.7,10.4,3.4c9.3-0.4,4.8-61.7,1-67.3
		c-1.3-2-6.6-3.9-12.8-5.5"/>
	<path class="st0" d="M23.4,233l75.9-2.8c0,0-0.4,20.1-0.9,27.8c0,0.7-0.1,1.4-0.2,2.2c0,0.3-0.1,0.5-0.1,0.6c0,0,0,0,0,0
		C96,272.4,82.7,282.7,61.8,283c-34.2,0.5-35.2-9.9-35.2-9.9c-1.7-3.1-2.6-6.1-3-8.9c-0.1,0-0.2,0-0.2,0S22.2,239.1,23.4,233z"/>
	<g>
		<path class="st1" d="M19,214.1c0.1-0.5,0.1-1,0.2-1.5c0.6-4.1,1.1-7.1,1.3-8.1c1-5,3-60,4-69c0-0.3,0.1-0.6,0.1-0.9
			c0.6-2.5,2.3-4.6,4.4-6.2c2.9-2.2,22.8-10.7,35.7-10.1c12.1,0.5,30.9,0.7,31.8,19c0.1,2.1,0.1,4.4,0,7.1c-1,24.8-1,64.9,1.6,75.6
			c0.1,0.5,0.3,1,0.4,1.4c2.2,5.8,4.9,20.4,2,25.9c0,0.1-0.1,0.1-0.1,0.2c-1.1,1.9-3,2.5-5.9,0.9c0,0-3.7-0.9-6.4-0.9l-52.7,2.8
			c-2.2,0.3-4.2,0.7-5.8,1.1C14.4,262.6,16.8,231.1,19,214.1z"/>
		<path class="st0" d="M88.1,247.5l-52.7,2.8c-2.2,0.3-4.2,0.7-5.8,1.1c-15.2,11.3-12.9-20.3-10.6-37.3c0.1-0.5,0.1-1,0.2-1.5
			c0.6-4.1,1.1-7.1,1.3-8.1c1-5,3-60,4-69c0-0.3,0.1-0.6,0.1-0.9c0.6-2.5,2.3-4.6,4.4-6.2c2.9-2.2,22.8-10.7,35.7-10.1
			c12.1,0.5,30.9,0.7,31.8,19c0.1,2.1,0.1,4.4,0,7.1c-1,24.8-1,64.9,1.6,75.6c0.1,0.5,0.3,1,0.4,1.4c2.2,5.8,4.9,20.4,2,25.9
			c0,0.1-0.1,0.1-0.1,0.2c-1.1,1.9-3,2.5-5.9,0.9"/>
	</g>
	<path id="XMLID_25826_" class="st0" d="M22.5,174.7c0,0,5.9,63.9,3.5,73.3"/>
	<g>
		<g>
			<path id="XMLID_25825_" class="st0" d="M80.4,147.5c0,0-1.2,1-0.5,2"/>
			<path id="XMLID_25824_" class="st0" d="M88.9,147c0,0,1.7,0.8,2.2,1.6"/>
			<path id="XMLID_25823_" class="st0" d="M80.1,155c0,0-0.5-1.8-0.2-2.7"/>
			<path id="XMLID_25822_" class="st0" d="M89.4,160.8c0,0-1.7,0.7-2.7,0.5"/>
			<path id="XMLID_25821_" class="st0" d="M81.2,159.4c0,0,0.6,1.4,1.8,1"/>
			<path id="XMLID_25820_" class="st0" d="M90.8,152c0,0,0.3,1.3,0.7,1.7"/>
			<line id="XMLID_25819_" class="st0" x1="84.1" y1="146.6" x2="85.9" y2="146.6"/>
			<path id="XMLID_25818_" class="st0" d="M91.4,156.9c0,0,0.4,1.8,0.1,2.7"/>
		</g>
		<g>
			<path id="XMLID_25817_" class="st0" d="M74,269c0,0,1.1-2,0.3-3.1"/>
			<path id="XMLID_25816_" class="st0" d="M71.4,260.6c0,0,1.3,1.3,1.5,2.3"/>
			<path id="XMLID_25815_" class="st0" d="M72.2,272.2c0,0-0.5,1.8-1.3,2.4"/>
		</g>
	</g>
	<g>
		<path id="XMLID_25814_" class="st1" d="M75.6,118.1c0.1-2.4-0.7-9.1-0.8-11.3c-0.1-2-0.4-3.7-0.9-5.2
			c7.8-13.3-13.7-28.5-21.4-11.5c-2.4,5.3-2.1,15.7-2,17.4c0.1,2.3,0.1,10,0.1,12c0,11.1,16.6,20,23.1,5.5"/>
		<path id="XMLID_25813_" class="st3" d="M50.8,121.6c-0.1-0.7-0.2-1.4-0.2-2c0-2-0.1-9.7-0.1-12c0-1.8-0.4-12.1,2-17.4
			c7.7-17.1,29.2-1.8,21.4,11.5c0.4,1.4,0.7,3.2,0.9,5.2c0.1,2.2,0.9,9,0.8,11.3l-1.9,6.9c-5.1,11.4-16.5,8.4-21.1,1.1"/>
	</g>
	<g>
		<g id="XMLID_25811_">
			<path id="XMLID_25812_" class="st0" d="M24.5,214.3c-5.2,1.4-5.1-7.5,0.8-5.8"/>
		</g>
		<path id="XMLID_25810_" class="st0" d="M21.3,159.6c0.9,21.4,1.7,44.8,2.4,57.8c1.4,27.5-0.8,67.9-0.8,67.9l11.6-1
			c0,0-2.4-71.3,0-86.3c1.3-8.2-0.2-33.6-1.3-55.4"/>
		<g id="XMLID_25808_">
			<path id="XMLID_25809_" class="st0" d="M34.5,282.9c4.8,4.9,6.2,6.6,8.7,13c2.5,6.5-6.8-9.2-6.2-6.9c0.6,2.3,9.3,46.9,2.1,19.5
				c-7.2-27.4-4.4-9.9-4.4-9.9c0,37.6-3,7.5-3.9,2.8c-0.9-4.7-7.1,25.1-6,10.3c1.1-14.7,0-16-2.5-3.7s-1.2-16.6-1.2-16.6
				s0.6-9,2.8-8.3"/>
		</g>
		<path id="XMLID_25807_" class="st0" d="M28,208.8c0,0,1.9,0.4,2,0.8"/>
		<path id="XMLID_25806_" class="st0" d="M27.7,213.4c0,0-1.5,0.3-1.9-0.9"/>
		<path id="XMLID_25805_" class="st2" d="M25.4,274.9c0,0-9.3,6.3,0,6.7"/>
	</g>
	<path id="XMLID_25804_" class="st0" d="M38.3,150.5c1.5,2.9-2.8,41.5-2.6,44.8c0.2,3.3-1.1,3.7-10.4,3.4s-4.8-61.7-1-67.3
		c1.3-2,6.6-3.9,12.8-5.5"/>
	<g id="XMLID_25747_">
		<g id="XMLID_25800_">
			<path id="XMLID_25803_" class="st0" d="M85.2,61.2c0,0,12-15.8,12.3-3.5s-3.1,25.7-7.5,24s-4.5-5.3-4.5-5.3"/>
			<path id="XMLID_25802_" class="st0" d="M89.1,62.1c0,0,4.7-7.2,5.8-3.8"/>
			<path id="XMLID_25801_" class="st0" d="M87.3,67.1c0,0,6.9-1.8,5.9,2.2s-3.4,6.6-4.7,2.2"/>
		</g>
		<path id="XMLID_25799_" class="st0" d="M53.3,5.6c0,0,4.5,3.9-1.1,5.7S48.4,3.6,53.3,5.6z"/>
		<path id="XMLID_25798_" class="st0" d="M62.8,15.3c0,0-35.8,2.6-30.8,44.9s3.6,50.1,23.9,54.4S87.1,104,89.3,92.7
			S107.7,20.8,62.8,15.3z"/>
		<path id="XMLID_25797_" class="st0" d="M34,25.3c0.1-1.4,0.7-3.2,2-5.4c0,0,0,0,0,0l0,0c0.3-0.5,0.6-1,0.9-1.5
			c4-6.3,10.6-9.9,16.5-11.7c25.7-11.5,28.3,12.8,28.4,22c0,0.9-11.6-0.1-22.1-2.7c-13.4,5.4-26,11.4-26,11.4S32.7,29.5,34,25.3z"/>
		<path id="XMLID_25796_" class="st0" d="M66.5,63.8c0,0-6.4,4.8-14.6,1.8"/>
		<path id="XMLID_25795_" class="st0" d="M82.2,64c0,0,10.3,2.2,12.5,1.3"/>
		<path id="XMLID_25794_" class="st0" d="M75.3,110.8c0,0,4.2,3.9-4.6,5.7c-8.8,1.7-14.6-0.6-12.9-3.9"/>
		<path id="XMLID_25793_" class="st0" d="M88.1,32.1c0,0-13.7-5.6-29.8-2s-24.5,7.3-24.5,7.3C39,19.6,70.2,19.4,85.9,20.4
			s11.5,7,11.5,7S95.1,30.4,88.1,32.1z"/>
		<path id="XMLID_25792_" class="st0" d="M88.1,32.1c0,0,27.2-7.5-10.4-9.2S33.8,37.3,33.8,37.3S68.6,22.3,88.1,32.1z"/>
		<g>
			<path id="XMLID_25791_" class="st0" d="M68.8,66.9c0,0,6.5-8,6.2-12.5"/>
			<g id="XMLID_25788_">
				<path id="XMLID_25790_" class="st0" d="M80,67.8c-0.2,2.1-0.9,3.6-2.3,3.9c-0.8,0.1-1.4,0.1-1.9,0c-0.4-0.1-0.8-0.3-1.1-0.4"/>
				<path id="XMLID_25789_" class="st0" d="M73.1,42.3c0,0,4.9,13.2,6.3,22.4"/>
			</g>
			<g id="XMLID_25782_">
				<path id="XMLID_25787_" class="st0" d="M82.4,68.9c0,0,4.8,5.5-2.9,7.1"/>
				<path id="XMLID_25786_" class="st0" d="M69.2,68.9c0,0-5.1,4.2,2.1,7.1"/>
				<path id="XMLID_25785_" class="st0" d="M73,72.4c-0.7,0.2-1.8-1.3-2.6,0c-0.8,1.3,0.1,0.9,1.2,1.2C72.6,73.8,73.7,72.2,73,72.4z
					"/>
				<path id="XMLID_25784_" class="st0" d="M80.2,74.3c1.4-0.1,1.8-1.2,1-1.8c-0.3-0.2-1.1,0.2-1.9,0.6
					C78.8,73.4,80.2,74.3,80.2,74.3z"/>
				<path id="XMLID_25783_" class="st0" d="M75.1,66c0,0-1.5,0-1.9,0.5"/>
			</g>
			<path id="XMLID_25781_" class="st0" d="M85.2,72.3c0,0,4.2,2.1,5.4,2.5"/>
			<path id="XMLID_25780_" class="st0" d="M66.2,71.2c0,0-4.9,2.3-5.3,2.3"/>
		</g>
		<path id="XMLID_25779_" class="st0" d="M45.6,50.4c0,0-0.7,1.4,0.4,2"/>
		<path id="XMLID_25778_" class="st0" d="M49.4,64.8c0,0,0.3,1.3,0.7,1.7"/>
		<path id="XMLID_25777_" class="st0" d="M48.9,39.8c0,0-0.5-2.4,0-2.4"/>
		<path id="XMLID_25776_" class="st0" d="M83.8,31.7c0,0-2.3,0.3-2,0.7"/>
		<path id="XMLID_25775_" class="st0" d="M70,36c0,0-2.6-0.4-2.8-0.9"/>
		<path id="XMLID_25774_" class="st0" d="M82.8,100.4c0,0-1.9,0.4-2,0.8"/>
		<path id="XMLID_25773_" class="st0" d="M66.9,101.2c0,0,1.7,0.8,2.2,1.7"/>
		<path id="XMLID_25772_" class="st0" d="M84.7,59.1"/>
		<path id="XMLID_25771_" class="st0" d="M72.2,60.6"/>
		<line id="XMLID_25770_" class="st0" x1="54.2" y1="74.5" x2="52.4" y2="74"/>
		<path id="XMLID_25769_" class="st0" d="M42,65.7c0,0-13.3-14.8-12.5-2.4s5.2,25.3,9.5,23.3s4-5.7,4-5.7"/>
		<path id="XMLID_25768_" class="st0" d="M38.1,66.9c0,0-5.3-6.8-6.1-3.3"/>
		<path id="XMLID_25767_" class="st0" d="M40.3,71.8c0,0-7-1.2-5.7,2.7c1.3,3.9,4,6.3,4.8,1.8"/>
		<path id="XMLID_25766_" class="st0" d="M66,40.1c0,0,17.9,15.8-4.4,23S46.5,32.1,66,40.1z"/>
		<path id="XMLID_25765_" class="st0" d="M53.6,53.2c0,0-3.7-1.5-3.3,2.3C50.8,59.3,56.1,56.4,53.6,53.2z"/>
		<path id="XMLID_25764_" class="st0" d="M64.6,37c0,0,8.2,1,2.3,6.7s-17.2,0.2-16.6-1.9C50.9,39.8,52,36.4,64.6,37z"/>
		<path id="XMLID_25763_" class="st0" d="M50.7,60c0,0-3.5,0.5-2,2.2c1.6,1.7,2.3-0.4,4.9,0.9"/>
		<path id="XMLID_25762_" class="st0" d="M54.6,59.7c0,0,8.2-0.6,13.1,0.7"/>
		<g id="XMLID_25757_">
			<path id="XMLID_25761_" class="st0" d="M84.8,85.7c0,0,13.1,1.7,5.8,6.5C83.3,96.9,84.8,85.7,84.8,85.7z"/>
			<path id="XMLID_25760_" class="st0" d="M86.8,81.8c0,0,10.8-0.6,5.8,5c-5,5.6-13.9-0.1-14.6-2.5C77.3,81.9,86.8,81.8,86.8,81.8z"
				/>
			<path id="XMLID_25759_" class="st0" d="M65.1,84.6c0,0,5.3-1.8,4.4,4.9s-10,5.5-10.6,3.6S57.5,88,65.1,84.6z"/>
			<path id="XMLID_25758_" class="st0" d="M69.6,82.9c0,0,15.4-1.9,0.2,5.5C54.7,95.7,52.1,85.1,69.6,82.9z"/>
		</g>
		<g id="XMLID_25753_">
			<path id="XMLID_25756_" class="st0" d="M83.4,92.1c0,0-8,7.9-12.5,0"/>
			<path id="XMLID_25755_" class="st0" d="M81.5,90.9c0,0-2.2-2.3-3.9,0"/>
			<path id="XMLID_25754_" class="st0" d="M73.8,90.9c0,0,2.2-2.3,3.9,0"/>
		</g>
		<g>
			<path id="XMLID_25752_" class="st0" d="M93.2,37.4c0,0-24.4-2.4-15.6,17.3S113.7,51.1,93.2,37.4z"/>
			<path id="XMLID_25751_" class="st0" d="M95.5,51c0,0-3.7-1.5-3.3,2.3C92.7,57.1,98,54.2,95.5,51z"/>
			<path id="XMLID_25750_" class="st0" d="M88.5,33.5c0,0,12.7-0.7,6.8,6.3s-16.3-0.2-17.2-3.2C77.4,33.6,88.5,33.5,88.5,33.5z"/>
			<path id="XMLID_25749_" class="st0" d="M94.5,58.4c0,0,3.5,0.5,2,2.2s-2.3-0.4-4.9,0.9"/>
			<path id="XMLID_25748_" class="st0" d="M90.5,57.7c0,0-4.8-0.9-10.2,0.8"/>
		</g>
	</g>
	<path id="XMLID_25746_" class="st0" d="M73.1,130.4c0.6-0.2,1.1-0.7,1.7-1.5"/>
	<path id="XMLID_25745_" class="st0" d="M47.3,125.8c0,0,0.2,0.8,0.7,1.5"/>
	<path id="XMLID_25744_" class="st3" d="M71.6,133.3c-4.4,2.5-9.6,1.2-13.3-2.1"/>
	<path id="XMLID_25743_" class="st0" d="M52.2,132.3c0.2,0.1,0.4,0.2,0.6,0.3"/>
	<path id="XMLID_25742_" class="st0" d="M44.1,243.6c0,0,1.9-64.1-1.2-73.4"/>
	<g>
		<path class="st0" d="M39.2,258.9c0,0,2.5,39.5,2.3,70c-0.1,3.6-0.2,6.9-0.2,9.9c0,0,0,0,0,0.1c-0.2,7.5,0.1,10.8,0.7,11.5
			c2,17.6-0.2,84.9-0.2,84.9l11.6,1c0,0-2.2-40.4-0.8-67.9c1.4-27.5,3.4-101.1,5.8-104.9"/>
		<path class="st0" d="M42,434.3l5.8-0.5l5.8,0.5c0,0.3,0.1,0.5,0.1,0.7c0,1.5,0.1,2.7,0.1,3.3c0,0.2,0,0.3,0,0.4c0,0.2,0,0.3,0,0.3
			c0,0,0,0-0.1,0c1.2,4.7,3.1,7.8,3.8,10.1c0.1,0.3,0.1,0.5,0.2,0.7c0,0.2,0.1,0.5,0.1,0.7c0,0.4,0,0.8-0.2,1.2
			c-0.1,0.4-0.4,0.8-0.7,1.1c-0.2,0.2-0.4,0.4-0.6,0.5c-1.5,1.1-4.5,1.7-8.4,2c-3.9-0.3-6.9-0.9-8.4-2c-0.2-0.2-0.4-0.3-0.6-0.5
			c-0.4-0.4-0.6-0.7-0.7-1.1c-0.1-0.4-0.2-0.8-0.2-1.2c0-0.2,0-0.4,0.1-0.7c0-0.2,0.1-0.5,0.2-0.7c0.7-2.3,2.6-5.3,3.8-10.1
			c-0.1,0-0.1,0-0.1,0c0,0,0-0.1,0-0.3c0-0.1,0-0.2,0-0.4c0-0.7,0-1.8,0.1-3.3C41.9,434.8,41.9,434.6,42,434.3z"/>
		<g>
			<g id="XMLID_25740_">
				<path id="XMLID_25741_" class="st0" d="M47.6,449.1c0,0,6.1-0.6,3.9,4.3C49.3,458.4,42.5,452.6,47.6,449.1z"/>
			</g>
			<g id="XMLID_25738_">
				<path id="XMLID_25739_" class="st0" d="M37,450.7c0,0,4.6-0.4,2.9,3.2C38.3,457.6,33.1,453.3,37,450.7z"/>
			</g>
			<path id="XMLID_25737_" class="st0" d="M56.8,455.4c0,0-7.2,0.5-3.9-4.2c3.3-4.7,9.3,0.1,9.8,2.1
				C63.1,455.3,56.8,455.4,56.8,455.4z"/>
			<g id="XMLID_25735_">
				<path id="XMLID_25736_" class="st0" d="M41.9,449.9c0,0,5.3-0.5,3.4,3.8C43.4,458,37.4,452.9,41.9,449.9z"/>
			</g>
			<g id="XMLID_25733_">
				<path id="XMLID_25734_" class="st0" d="M32.6,451.2c0,0,4.1-0.4,2.6,2.9C33.8,457.4,29.2,453.5,32.6,451.2z"/>
			</g>
		</g>
		<path id="XMLID_25732_" class="st0" d="M50.2,344.4c0,0-0.9-1.3-2-0.7"/>
		<path id="XMLID_25731_" class="st0" d="M45.6,354.7c0,0,1.8-0.6,2-1"/>
		<g id="XMLID_25729_">
			<path id="XMLID_25730_" class="st0" d="M43.8,433c-4.2-3.4-7.7,4.9-1.5,5.6"/>
		</g>
		<g id="XMLID_25727_">
			<path id="XMLID_25728_" class="st0" d="M45.1,347.2c-4.2-3.4-7.7,4.9-1.5,5.6"/>
		</g>
	</g>
	<path id="XMLID_25726_" class="st0" d="M93.5,219.2c0,0-1,21,2,23"/>
</g>
</svg>
