<?xml version="1.0" encoding="utf-8"?>
<!-- Generator: Adobe Illustrator 19.0.0, SVG Export Plug-In . SVG Version: 6.00 Build 0)  -->
<svg version="1.1" id="Layer_1" xmlns="http://www.w3.org/2000/svg" xmlns:xlink="http://www.w3.org/1999/xlink" x="0px" y="0px"
	 viewBox="506.1 277.2 153.8 241.7" style="enable-background:new 506.1 277.2 153.8 241.7;" xml:space="preserve">
<style type="text/css">
	.st0{fill:#362E4D;}
	.st1{fill:#171634;}
	.st2{fill:#B3B39B;}
	.st3{fill:#C92A42;}
	.st4{fill:#CCCDAD;}
</style>
<path class="st0" d="M513.7,413.4c-1.6-2.8-1.3-6-0.2-8.6c1.6-4.1,0.6-7.4-1.4-10.7c-1.7-3-2.3-5.7,2.1-6.7c2.3-0.5,3.1-2.3,2.4-4.1
	c-1.2-3.1-2.5-6-0.4-9.1c-0.4-0.2-0.8-0.4-1.2-0.7l-0.3-0.3c-0.7-1.8-1.6-3.6-2.2-5.5c-1.2-4.1-2.7-2.5-4.2-0.5
	c-3.4-2.8-2.4-5.8-0.7-9.3c5.9-12.1,12-24.1,15.5-37.2c0.7-2.8,3.5-5,2.6-8.3c0,0,0.1-0.1,0.1-0.1c1.4,0,2-0.8,2-2.1c0,0,0,0,0,0
	c3,0.4,5.2-0.4,6.1-3.6c0.9-3.3,3.5-5.1,6.6-6.3c4.8-1.9,10.3-2.7,14.2-5.7c3.2-2.5,6.7-5.4,8.6-9.8c2.8-6.6,12-9.5,17.7-6.5
	c1,0.5,1.8,0.9,1.7,2.1c-0.2,2-1.4,0.4-2.2,0.5c-3.3,0.2-4.6,4.3-8,4.1c0,1.2-0.3,2.5,0,3.6c0.4,1.1,1.7,0.8,2.7,0.7
	c4.7-0.3,8.6-3.6,13.5-3.2c5.3,0.3,10.5,0.5,15.8,0.9c1.5,0.1,2.5-0.3,3.1-1.7c1.3-3.2,4.2-4,6.9-3.5c4,0.6,8.1,1.1,11.6,3.5
	c-1,0-2.1,0-3.1,0c-0.4-0.1-0.8-0.3-1.2-0.4c0.3,0.2,0.7,0.4,1,0.6c1.1,1.2,3.2,2.1,2.4,3.9c-0.8,1.9-2.6,0.6-3.9,0.2
	c-1.7-0.5-2.7,0.3-4,1.2c-1.3,0.9-2.1,2.7-4.7,1.8c-1.1-0.4-3.7,2.2-5,3.8c-0.6,0.7,1.1,2.2,2,2.4c5.1,1.1,7.8,5,10.8,8.5
	c1.5-0.9-0.8-2.9,1-3.8c0.9,0.9,2.1,0.9,3.3-0.2c1-0.9,1.5-0.1,2,0.6c0.8,1.3,1.9,1.2,3,0.5c2.2-1.5,3.3-0.1,4.4,1.5
	c1,1.5,2.9,2.3,3.8,3.3c3.4,3.9,9.1,3.8,12,8c-0.8,3.6,3.9,4,4.1,7c-2.9,1-3.6,2.5-1.6,5.2c1.5,2,2.6,4.5,2.5,6.9
	c-0.4,4.9,1.3,8.9,3.7,13c2.5,4.3,1.9,5.1-3.4,5.8c2.3,2.3,3.8,4.8,2.5,8c-1.7,0.8-2-3-4.2-1.2c-0.1,1.3,0.8,2.1,1.8,2.6
	c1.8,0.9,4.2,1.3,3.5,4c-0.8,2.9-3.3-0.5-5,1.4c3.9,0.8,1.8,2.8,1.5,5c-1.5,9.6-0.8,19.2-1,28.9c-0.3,12.8-0.7,25.5-2.2,38.2
	c-0.3,2.6-0.1,5,1.7,7.5c3.2,4.2,1.4,8.3-3.5,9c-1.5,0.2-2.1,0.4-2.2,1.9c-0.7,9.4-7.9,15.1-12.7,22.1c-5,7.4-13.1,11.3-19.6,17.2
	c-4,3.6-10.4,4.6-11.6,11.4c-0.3,1.5-2.9,2.5-4.9,3c-2.6,0.6-5.1,1.5-7.7,2c-1.6,0.3-2.4,0.9-2.3,2.6c-16.3,0.1-30.5-5.4-42.6-16.2
	c-0.7-0.7-4.4,1-1.9-2.3c0.7-0.9,0-1-0.5-1.3c-9.3-6.1-13.9-15.9-19.9-24.8c-3.7-5.5-2.5-11.4-4.2-17c-0.9-3.1-0.3-6.7-3.2-9
	c0.6-2.4,1.2-4.7,1.1-7.3c-0.1-2-0.9-2.7-2.7-2.3c-1.8-3,0.2-5.8,0.2-8.8c2.9,3.8,3.2,8.6,4.7,12.9c2.2,5.9,3,12.2,5.1,18.2
	c1.9,5.5,4.5,7.6,8.9,10.5c3.1,2,5.4,7.6,8.5,9.9c3,2.3,6.4,3.5,7.5,7.6c0.1,0.5,1,0.8,1.5,1.3c1.6,2.1,3.4,4.4,3.3,7
	c-0.2,3.9,1.7,5.7,4.7,7.2c2.9,1.5,4.2,5.5,7.8,5.9c7.7,0.8,15.4,1.5,23.1-0.7c6.1-1.8,9.9-5.7,11.6-11.7c0.8-2.7,1.7-5.2,4.2-6.5
	c2.1-1.2,2.9-3.1,4-4.9c1.8-3.3,2.9-7.2,8-6.5c1.1,0.1,1.5-1.1,1.8-2.1c0.5-1.4,1.2-2.5,2.6-3.5c6.2-4.2,12.3-8.5,14.4-16.3
	c0.3-1.1,1.1-1.6,2.1-1.8c4.6-0.7,5.8-4.1,5.7-8c-0.1-3.6,0.9-6.9,2.3-10.1c3.1-7.2,5.6-14.5,2.5-22.5c-0.3-0.7-0.3-1.8,0.1-2.4
	c1.7-2.5,2.3-5-0.5-7c-3-2.1-5,0.5-7.5,1.7c-6.1,2.9-10,9.4-17.7,9.9c-4.1,0.2-7.5-1.2-11.2-1.8c-2.3-0.2-3.8-1.7-5-3.6
	c2,0.6,4.2,0.9,6,1.8c7,3.5,11.8,1.3,15-6c1.3,0.3,2.6,0.8,3.9,0.9c1.2,0.1,3,0.7,3.6-0.8c0.7-1.7-1.3-2-2.2-2.7
	c-1.9-1.5-4-2.9-6-4.3c0.3-1,1.1-1.1,2-1.1c0.2,0.2,0.5,0.4,0.7,0.6c0.1-0.2,0.1-0.3,0.2-0.5c-0.3,0-0.6-0.1-0.9-0.1
	c-0.5-1.3-1-2.7-1.5-4.1c6.3,1.3,10-3.2,11.6-6.8c0.5-1.1,0.4-1.8-0.4-2.5c-7.5-6.7-15.7-11.7-26.4-10.5c-3.1,0.4-7.1-1-7.1-2.9
	c0-3.3,4.1-3.2,6.8-3.1c6.9,0.1,13.9,0.3,20.3,3.8c1.5,0.8,4.9,2,3.6-1.6c-1.6-4.6,0.3-8.9-0.2-13.3c-0.5-3.9-3.1-7.5-2-11.7
	c0.2-0.7-1.2-0.8-2-1.1c-4.9-1.8-10.7-2.7-9.6-10.2c0.1-0.5-0.5-1.2-0.8-1.8c-3.2-4.9-5.7-10.5-12.9-10.4c-0.6,0-1.5-0.8-1.9-1.4
	c-1.1-2.2-3.1-2.3-5.1-2.4c-1.8,0.2-3.6,1-5.3,0.7c-6.5-1.4-12.9-3-19.4,0.2c-1.2,0.6-2.1-0.5-2.6-1.7c0.6-0.1,1.4-0.1,1.5-1
	c0-0.1-0.4-0.5-0.6-0.5c-0.8,0.2-0.9,0.8-0.8,1.5c-2.1-0.1-4.3-0.5-6.2,0.9c-4.4-2.1-10.1-0.5-12.5,1.3c-4.5,3.4-9.9,5.2-14,8.7
	c-4,3.4-10.5,3.7-12.5,9.7c-1.5,4.6-1,9.5-1.9,14.1c-0.7,3.6,1.2,7.8-2.1,10.8c-2.5,2.3-3.1,5-2.7,8.1c-4.6,6-4.1,13.4-5.1,20.3
	C516.8,400.1,517.3,407.2,513.7,413.4z M563.9,295.4L563.9,295.4c-0.2-1.2,0.2-2.4-0.6-3.3c-4.7,1.1-6.2,7.9-12.3,6.7
	c-0.4-0.1-3.8,1.7-1.8,4.2c0.8,1,0.1,1.6-0.6,1.9c-1.5,0.9-1.8,1.9-0.6,3.2c1.8,1.8,2.1-0.5,2.8-1.2c3.6-3.3,3.5-3.3,7.7-1.7
	c0.4,0.2,1,0.1,1.5-0.1c2.1-0.9,4.5-1.5,5.7-3.7c1.8-3.2,3.3-4.7,4.7,0.3c0.7,2.5,2.1,3.2,4.4,1.4c1.2-0.9,2.7-1.3,4-1.9
	c1.2-0.5,2.1-1.2,1.7-2.6c-0.3-1.2-1.5-1.3-2.5-1.2c-3.6,0.3-6.4-1.3-9.3-2.8c1.3-1.9,3.6-0.4,4.7-2.3c-0.3-0.3-0.6-0.7-1-0.9
	C567.7,288.7,566.8,294.1,563.9,295.4z M612.3,305.4c-1.7-1.2-3-2.3-4.1-4c-1.4-2.1-3.4-4.2-6.4-4.1c-1.1,0-2.6-2.3-3.2,0.7
	c-0.6,3,1.5,2.3,3,2.4c1.9,0.1,4.4-0.6,5,2.1C607.4,305.8,609.7,305.6,612.3,305.4z M589.3,304.6c2.1-1.1,5.7-0.2,6.2-4
	c0.2-1.3-1.3-1.5-2.2-1.1c-2.6,1.1-6.5,0.2-7.6,3.4C585,305,587.7,304,589.3,304.6z M598.5,511.6c-0.1-0.3-0.1-0.7-0.3-0.7
	c-0.2-0.1-0.5,0.2-0.8,0.3c0.1,0.3,0.1,0.7,0.3,0.7C597.9,512,598.3,511.7,598.5,511.6z"/>
<path class="st1" d="M527.9,310.2c0,1.4-0.7,2.1-2,2.1C526.2,311.3,527,310.7,527.9,310.2z"/>
<path class="st2" d="M574.9,319.3c0.5,1.2,1.5,2.3,2.6,1.7c6.5-3.3,12.9-1.6,19.4-0.2c1.6,0.3,3.5-0.4,5.3-0.7
	c-0.5,2.5-3,2.8-4.7,4.1c0.4,1.7,2.8,2.2,2.4,4.1c-0.8,3.9,1,6.4,3.7,8.9c2.6,2.4,2.3,5.7,0.2,8c-2.5,2.7-1.9,5-0.4,7.6
	c0.5,1,2.4,2.4,0.4,3.2c-3.6,1.5-2.3,5-1.8,6.4c1.3,3.7-0.5,4.2-3.2,5c-3.2,0.9-7.1,0.4-9,4.9c3.6-0.6,4.3,0.9,3.7,4
	c-0.6,2.8,2.4,7-3.4,7.3c-0.2,0-0.5,0.7-0.6,1.2c-1.9,4.7-3,9.4-1.6,14.7c1,3.9,1,8.2,1,12.3c0.1,5.6,1.4,10.4,6.9,13
	c2,1,3.4,2.6,4.9,4.2c0.8,0.9,1.6,1.8,1,3.1c-0.7,1.5-1.9,0.7-3,0.7c-5,0-10.3-3.1-15.1,1.3c-0.8,0.7-3.3,0.5-4.3-0.2
	c-6.5-4.9-13.2-3.8-20.1-1.3c-0.7-3,0.1-5.6,1.9-7.9c0.9-1.1,0.4-2.2-0.3-3.2c-0.5-0.6-1-0.5-1.6,0c-2.3,2-6,1.2-7.8,4.3
	c-0.4,0.8-1.4,0.5-2.1-0.2c-4.1-4-6.8-3.5-9.2,1.8c2.6,0.2,6.6-0.3,6.3,3.1c-0.4,4.9-1.4,9.2,3.3,13c1,0.8,1.6,4.7,3.6,4.3
	c3-0.5,6-2.2,5.8-6.3c3.9,4.9,4.2,5,9.1,2c-0.8-1.7-4-0.3-3.9-2.9c0.1-1.6,1.7-1.1,2.7-1.2c2,0.7,3.7,2.2,6,2.2
	c1.1,3.1,4,1.1,5.8,2.1c0.3,0.1,0.5,0.2,0.8,0.3c0.5,0.4,1.2,1.2,1.6,1c5-1.6,5.9,1.7,5.7,5.2c-0.2,4.3,2.5,6.4,5.2,8.7
	c0.9,0.8,2.6,0.9,2.3,3.3c-9.5,0-19.1,0-28.7,0c-0.7,0-1.4,0-1.7-0.7c-0.4-1,0.2-1.5,0.9-2c1.3-0.9,3.2-1.5,3.1-4.1
	c-3,1.2-5.7,2.1-8.1,3.4c-8,4.2-9.8,3.9-13.8-3.8c-0.9-1.7-1.1-2.8-3-1.3c-0.5,0.4-1.1,0.5-1.7,0.8c-0.9-4.7-6.3-4.7-8.6-8.1
	c-2.4-3.5-3.4-7.8-6.6-10.9c-1.1-1.1-1.3-2.8-3.1-1c-0.3,0.4-0.7,1.5-1.2,0.3c-1-2.7-4-3.8-4.6-7.2c-0.6-3.6,0-7.2-1.1-11.8
	c-0.7,3.1,0.3,5.2-1.2,6.9c-2.4-2.7-0.3-6.2-1.5-9.2c3.6-6.2,3.1-13.3,4.1-20c1-7,0.5-14.3,5.1-20.3c0.6,0.6,1.1,1.2,1.7,1.8
	c2.2-2.8,4.6-0.2,6.9-0.2c-3.4,2.3-4.6,5.8-5.2,9.6c-2.1,1.4-1.9,3.7-2.3,5.7c-0.3,1.6,1.4,3.2-0.1,4.7c-3.5,3.5-1.8,7.9-3.2,12.8
	c4.7-2.5,9.1-3.1,10.8,0.9c2.3,5.3,5.7,7.2,11,7.1c2.1,0,4.3,0.2,6.5,0.3c0,1.5,0.7,2.9,2.3,2.4c3.9-1.1,8.7,0.1,11.2-4.6
	c0.8-1.5,2-3,4.1-3.2c4.2-1.3,9.2-2.9,10.8-6.4c2.2-4.7,3.6-10.2,3.4-15.7c0-0.9,0.6-2.5-0.5-2.5c-4.2-0.2-5.1-4-7.5-6.2
	c-4-3.7-7.2-8.8-13.5-9.1c-3-1.2-6.2-1.3-9.4-1.1c-0.5-0.7-1.1-0.8-1.9-0.4c-2-0.8-4-0.5-6-0.3c-0.5-1.6-3.8-1.1-3.2-3.2
	c0.6-1.8,2.9-1,4.5-1c2.1-0.1,4.3,0.1,6.4,0.6c4.9,1.3,9.8,2.5,15,3.7c-0.8-3.3-3.2-3.1-5.2-3.8c-4-1.3-4.1-3.2-1.7-6.4
	c2.3-3,5.7-5.9,4.4-10.6c-0.2-0.7,0.1-1.9,0.6-2.2c2.9-1.6,2.2-4.4,2.7-6.9c0.3-1.8-0.4-4.7,3.1-4.7c1,0,2.8,0.5,2.6-1.3
	c-0.1-1.4-1.4-2.4-2.9-2.3c-4,0.2-2.8-2.9-1.6-3.7c2.7-1.9,2.2-4.2,2.1-6.6C570.7,318.9,572.8,319.3,574.9,319.3L574.9,319.3z
	 M585.9,426c-0.9-1.8-0.4-5.4-3.3-5.3c-2.6,0.1-5.7,2.2-5.8,5.2c-0.1,2.6,3.2,3.9,5.1,4.4C584,430.9,585.7,428.7,585.9,426z
	 M573.4,418.1c-5.7,0.9-8.7,3.4-9.5,8.2C567.9,424.4,572.5,423.5,573.4,418.1z"/>
<path class="st3" d="M515.2,422.5c1.5-1.7,0.5-3.8,1.2-6.9c1,4.6,0.5,8.3,1.1,11.8c0.6,3.4,3.6,4.5,4.6,7.2c0.4,1.2,0.8,0.1,1.2-0.3
	c1.8-1.8,2-0.1,3.1,1c3.1,3.1,4.1,7.4,6.6,10.9c2.4,3.4,7.7,3.4,8.6,8.1c0.6-0.3,1.2-0.4,1.7-0.8c1.9-1.5,2.1-0.4,3,1.3
	c4,7.7,5.8,8,13.8,3.8c2.5-1.3,5.1-2.2,8.1-3.4c0.1,2.6-1.8,3.1-3.1,4.1c-0.7,0.5-1.3,1.1-0.9,2c0.3,0.7,1,0.7,1.7,0.7
	c9.6,0,19.2,0,28.7,0c0.3-2.4-1.4-2.5-2.3-3.3c-2.7-2.3-5.4-4.5-5.2-8.7c0.1-3.5-0.8-6.8-5.7-5.2c-0.4,0.1-1-0.7-1.6-1
	c1.4-0.6,3.3,0.1,4.4-1.5l-0.1,0c5.9,0.3,11.4-0.6,15.9-4.9c2.6,1,2.5,2.6,1,4.4c-0.9,1.1-2,2-3,3c-2-0.1-3.9-0.3-5.8-0.7
	c-3.2-0.7-5,0.6-3.4,4.1c0.6,1.2,0.7,3,2.6,3.4c1.3-0.8,0.1-3.9,2.7-3.3c1.8,0.4,2.9,1.7,3,3.6c0.1,2.3,1.8,3.5,3.2,4.9
	c3.7,3.5,8.6,2.7,12.6,1.8c7-1.5,11.6-7.4,17.5-11c0.1-0.1,0.2-0.3,0.2-0.4c-0.8-6,4.9-9.4,5.8-14.8c0.3-2.1,2.9-3.9,4.5-5.8
	c1.9-2.3,0-4-0.8-5.9c-0.6-1.4-1.6-1.6-2.8-1c-4.9,2.6-10.1,1.2-15.2,1.3c-3.8,0-7-1.7-9.1-5c3.7,0.6,7.1,2.1,11.2,1.8
	c7.7-0.5,11.6-7,17.7-9.9c2.5-1.2,4.6-3.8,7.5-1.7c2.8,2,2.2,4.5,0.5,7c-0.4,0.6-0.3,1.7-0.1,2.4c3.1,7.9,0.7,15.2-2.5,22.5
	c-1.4,3.2-2.4,6.5-2.3,10.1c0.1,3.9-1.1,7.3-5.7,8c-1.1,0.2-1.8,0.6-2.1,1.8c-2.1,7.8-8.2,12.1-14.4,16.3c-1.4,0.9-2.1,2-2.6,3.5
	c-0.3,1-0.7,2.3-1.8,2.1c-5.1-0.7-6.2,3.3-8,6.5c-1,1.8-1.9,3.7-4,4.9c-2.4,1.3-3.4,3.9-4.2,6.5c-1.7,5.9-5.5,9.9-11.6,11.7
	c-7.7,2.2-15.4,1.5-23.1,0.7c-3.6-0.4-4.9-4.4-7.8-5.9c-3.1-1.5-5-3.3-4.7-7.2c0.2-2.6-1.6-4.9-3.3-7c-0.4-0.5-1.3-0.8-1.5-1.3
	c-1.1-4.1-4.6-5.3-7.5-7.6c-3-2.3-5.4-7.8-8.5-9.9c-4.4-2.9-7-5-8.9-10.5c-2.1-6-2.9-12.3-5.1-18.2c-1.6-4.3-1.9-9-4.7-12.9
	c-0.1-1-0.1-2-0.2-3c1.1-1.3,1-2.5-0.2-3.6C515,422.9,515.1,422.7,515.2,422.5z M580.9,487.9c-3.6-0.4-7.3-0.8-10.9-1.3
	c-1.6-1.7-4.2-2.1-5.4-4.3c2.1,0.2,4.4,0,6.3,1.2c3.9,2.6,8.2,2,12.5,2c2,0,3.6-0.6,3.6-3c0.2-0.2,0.4-0.5,0.3-0.9
	c1.5,0.1,3.3,3.3,3.8,1.3c0.9-3.8,5.2-3.5,6.3-6.5c2.4-0.2,4.9-0.3,7.3-0.5c2.9-0.2,5.4,0.5,6,5c1.5-3,2.7-4.7,1.5-6.9
	c-1.2-2.3-2.4-1.3-3.9-0.3c-0.8,0.5-1.3-0.6-1.8-1.2c-1-1-1.9-2.4-3.7-1.5c-0.6-0.2-1.2-0.4-1.8-0.6c0-1.1,0.2-2.4-1.3-2.7
	c-1.2-0.2-1.7,0.5-1.7,1.7c-1,0.3-2,0.6-3,0.9c-0.9-4.7-4.3-4.9-8-4.5c-1.4,0.2-2.7,0.5-4.1,0.7c0-0.8,0-1.7-1.1-1.5
	c-0.3,0.1-0.5,0.9-0.7,1.5c-1.4,0-2.8,0-4.1-0.1c-0.2-1.8-1.5-2-2.9-1.9c-4.7,0-9.3,0.6-13.2,3.3c-1.8,1.3-5.1,2.1-4,5.7
	c0,0.7,0.1,1.4,0.1,2.1c0.7,4.1,5.5,3.7,7.3,6.7c-0.9,3.1,0.1,5.3,2.1,7.9c2,2.5,5.4,3.2,6.7,6.1c-1.8,2.3-4.6,1.4-6.9,2.2
	c-1.8,0.7-3.9,1.2-3.8,3.3c0.2,2.3,2.8,1.7,4.4,2.2c1.1,0.4,2.4-0.4,3.8,0.4c7.1,3.9,14.3,3.7,21.4-0.2c1.4-0.8,3.7-2.2,3.1-3.3
	c-0.8-1.4-2.7-2.9-4.9-3c-1,0-1.9,0.6-2.9,0.6c-1.7,0.1-3.8,0.7-4.7-1.7c6.8-0.4,12.6-2.1,17.2-8.3c2.4-3.3,0.6-5.8-0.3-6.5
	c-1.8-1.4-3.3,0.8-4.1,2.7c-3.9,3.3-8.9,2.5-13.3,3.8C581.6,488.1,581.3,488,580.9,487.9z M602,481l0-0.3l-0.4,0.1L602,481z"/>
<path class="st3" d="M559.2,432.5c6.9-2.4,13.6-3.6,20.1,1.3c1,0.7,3.5,0.9,4.3,0.2c4.8-4.4,10.1-1.3,15.1-1.3c1.1,0,2.3,0.8,3-0.7
	c0.6-1.3-0.2-2.2-1-3.1c-1.5-1.6-2.9-3.2-4.9-4.2c-5.5-2.6-6.8-7.4-6.9-13c-0.1-4.1,0-8.4-1-12.3c-1.4-5.3-0.3-9.9,1.6-14.7
	c0.2-0.4,0.4-1.2,0.6-1.2c5.8-0.3,2.9-4.5,3.4-7.3c0.6-3.1-0.1-4.6-3.7-4c1.9-4.5,5.8-4,9-4.9c2.7-0.8,4.5-1.2,3.2-5
	c-0.5-1.4-1.8-4.9,1.8-6.4c2-0.8,0.1-2.2-0.4-3.2c-1.4-2.7-2.1-4.9,0.4-7.6c2.1-2.3,2.4-5.6-0.2-8c-2.7-2.5-4.5-5.1-3.7-8.9
	c0.4-1.9-2-2.4-2.4-4.1c1.7-1.3,4.2-1.5,4.7-4.1c2,0.1,4,0.2,5.1,2.4c0.3,0.7,1.2,1.4,1.9,1.4c7.2-0.1,9.7,5.6,12.9,10.4
	c0.4,0.5,0.9,1.2,0.8,1.8c-1,7.5,4.8,8.4,9.6,10.2c0.8,0.3,2.2,0.4,2,1.1c-1.1,4.3,1.5,7.8,2,11.7c0.5,4.4-1.4,8.7,0.2,13.3
	c1.3,3.7-2.1,2.5-3.6,1.6c-6.4-3.4-13.3-3.7-20.3-3.8c-2.7,0-6.8-0.1-6.8,3.1c0,1.9,4,3.3,7.1,2.9c10.7-1.3,18.9,3.8,26.4,10.5
	c0.9,0.8,0.9,1.4,0.4,2.5c-1.6,3.6-5.3,8.1-11.6,6.8c0.5,1.4,1,2.8,1.5,4.1c0,0,0,0,0,0c-0.9,0-1.7,0.1-2,1.1
	c-1-0.5-2.4-0.2-3.1-1.5c-0.5-5.3-4.9-5.2-8.6-6.1c1.7-1.1,3.4-2.1,5.1-3.1c2.2-1.3,1.4-2.8,0-4c-2.5-1.9-9.4-0.6-11.6,2.1
	c-0.3,0.1-0.6,0.2-1,0.3c-1.2-0.1-2.2,0.6-3,1.4c-0.9,0.9-2.2,2-1,3.2c1,1.1,2.4,0.7,3.2-0.7c1.5-0.1,2.9-0.2,4.4-0.4
	c0.5,1.8-0.1,3-1.7,4.1c-1.2,0.8-3.6,1.6-2.2,4.1c-0.9,2.5-4.9,1.5-5.3,4.5l0,0c-0.8-0.1-1.6-0.3-1.7,0.9c-1.8-0.4-2.4-3.7-5.4-2.1
	c2,3.1,4.1,5.8,5,9.1l0,0c-1.7,0.5-2.6-2.2-4.8-1c1.9,5.2,3,10.7,7,14.9c-0.6,3.1,1.2,5.8,1.5,8.8c-1.6-0.3-3.3-0.7-4.9-1
	c-7.9-2-14.9,1.3-15.9,7.5c0,0,0.1,0,0.1,0c-1.9-0.2-3.8-0.7-5.2,1.2c-1.8-1-4.7,1-5.8-2.1c1.3-1,4.4-0.5,3.9-2.6
	c-1-3.7-4.3-5.7-7.8-6.9c-1.6-0.6-3.6-0.7-4.4,1c-1.4,2.8,0.5,4.6,2.4,6.3c-1.1,0.1-2.6-0.4-2.7,1.2c-0.1,2.6,3.1,1.2,3.9,2.9
	c-4.9,3.1-5.2,3-9.1-2C559,438.4,559.1,435.4,559.2,432.5z"/>
<path class="st3" d="M568.8,320.3c0.1,2.4,0.6,4.7-2.1,6.6c-1.1,0.8-2.3,3.8,1.6,3.7c1.5-0.1,2.7,0.9,2.9,2.3
	c0.2,1.8-1.6,1.3-2.6,1.3c-3.4,0.1-2.7,2.9-3.1,4.7c-0.5,2.5,0.2,5.3-2.7,6.9c-0.5,0.3-0.8,1.6-0.6,2.2c1.3,4.7-2.1,7.6-4.4,10.6
	c-2.4,3.2-2.3,5.2,1.7,6.4c2,0.6,4.4,0.4,5.2,3.8c-5.2-1.3-10.1-2.4-15-3.7c-2.1-0.6-4.3-0.7-6.4-0.6c-1.6,0.1-3.9-0.8-4.5,1
	c-0.7,2.1,2.6,1.5,3.2,3.2c-3.8,1.4-7.4,3-10.3,6c-2.3,0-4.7-2.6-6.9,0.2c-0.6-0.6-1.1-1.2-1.7-1.8c-0.3-3.1,0.2-5.8,2.7-8.1
	c3.3-3,1.4-7.2,2.1-10.8c0.9-4.6,0.4-9.5,1.9-14.1c2-6,8.5-6.3,12.5-9.7c4.1-3.5,9.5-5.3,14-8.7
	C558.7,319.8,564.3,318.3,568.8,320.3z M559.3,347.6c0-0.2,0.1-0.3,0.1-0.5c-0.3,0-0.5-0.1-0.8-0.1c0,0-0.1,0.3-0.1,0.4
	C558.8,347.6,559.1,347.6,559.3,347.6z"/>
<path class="st2" d="M603.2,427.2c-4-4.2-5.1-9.7-7-14.9c2.2-1.2,3.1,1.5,4.8,1c0.2,1,0.1,2,1.4,2.2c0.1,0,0.3-0.2,0.3-0.4
	c0.2-1.3-0.7-1.7-1.8-1.8c-0.9-3.4-3-6.1-5-9.1c3-1.6,3.6,1.7,5.4,2.1c0.7-0.1,1.4-0.1,1.7-0.9c0,0,0,0,0,0c1.3-0.1,2.5-0.1,3.8-0.2
	c1.7,3.8,4.7,4,8.2,3.1c4,2.2,7.2,1.8,9.1-2.8c1-1.1,2-0.5,2.9,0.2c-2.3,4.1-7.6,6.6-12.2,6.2c-2.4-0.2-4.6-2.1-7.1-0.8
	c-0.6-0.1-1.1-0.2-1.7-0.3c-0.6-0.6-1.3-0.7-2.1-0.4c-0.2-0.2-0.4-0.5-0.6-0.7c-0.1,0.1-0.2,0.3-0.3,0.4c0.3,0.1,0.6,0.2,0.9,0.3
	c0.5,1.1,1.3,1.7,2.5,2c0.5,0.1,1,0.1,1.5,0.2l-0.1,0.1c1.2,1.8,2.6,3.3,5,3.6c2.1,3.4,5.3,5,9.1,5c5.1,0,10.3,1.3,15.2-1.3
	c1.2-0.6,2.2-0.4,2.8,1c0.8,1.9,2.7,3.6,0.8,5.9c-1.6,1.9-4.2,3.7-4.5,5.8c-0.9,5.4-6.6,8.8-5.8,14.8c0,0.1-0.1,0.4-0.2,0.4
	c-5.9,3.6-10.5,9.6-17.5,11c-4.1,0.9-8.9,1.7-12.6-1.8c-1.4-1.3-3.1-2.6-3.2-4.9c-0.1-1.9-1.2-3.2-3-3.6c-2.6-0.6-1.5,2.5-2.7,3.3
	c-1.9-0.4-2.1-2.2-2.6-3.4c-1.6-3.5,0.2-4.8,3.4-4.1c2,0.4,3.9,0.6,5.8,0.7c3.5,4,4.8-0.1,6.8-1.8c0.9,1.2-0.4,3.7,2.2,3.8
	c3.1,0.1,5.8-4.2,4.7-7.3c-0.7-1.8-1.3-4,0.5-4.9c2.1-1,3.8-2.2,2.6-4.3c-1.6-2.8-3.4-5.9-6.7-6.9
	C605.2,422.9,604.3,425.4,603.2,427.2z"/>
<path class="st1" d="M563.9,295.4c2.8-1.3,3.8-6.6,8.5-4c0.4,0.2,0.7,0.6,1,0.9c-1,1.9-3.3,0.4-4.7,2.3c3,1.6,5.8,3.2,9.3,2.8
	c1-0.1,2.2,0,2.5,1.2c0.4,1.4-0.6,2.1-1.7,2.6c-1.4,0.6-2.9,1-4,1.9c-2.3,1.7-3.7,1-4.4-1.4c-1.4-5-2.9-3.5-4.7-0.3
	c-1.2,2.2-3.6,2.8-5.7,3.7c-0.4,0.2-1,0.2-1.5,0.1c-4.2-1.6-4.1-1.6-7.7,1.7c-0.7,0.7-1,3-2.8,1.2c-1.2-1.2-0.9-2.3,0.6-3.2
	c0.6-0.4,1.4-1,0.6-1.9c-2-2.5,1.4-4.3,1.8-4.2c6.1,1.3,7.6-5.6,12.3-6.7C564.2,293,563.8,294.2,563.9,295.4c-0.4,0.3-0.7,0.6-1,1
	c-1.6-0.1-3.6-1.2-4.3,1.6c1.7,0,3.1-0.4,4.3-1.5C563.3,296,563.6,295.7,563.9,295.4z"/>
<path class="st1" d="M606.8,405.2c-1.3,0.1-2.5,0.1-3.8,0.2c0.5-3.1,4.4-2,5.3-4.5c4.5-0.4,8.9-2.8,13.6-0.9c0.4,0,0.8,0,1.3,0
	c0.6,0,1.1,0,1.7,0c0.7,1.2,2.1,0.9,3.1,1.5c2,1.4,4,2.8,6,4.3c0.9,0.7,3,1,2.2,2.7c-0.6,1.5-2.4,0.9-3.6,0.8
	c-1.3-0.1-2.6-0.6-3.9-0.9c-0.1-1.2,0.2-2.7-1.8-2.7c-0.9-0.7-1.8-1.3-2.9-0.2c-3.7,0.3-7.4-1.1-11.1-0.1
	C611,401.6,608.9,402.6,606.8,405.2z"/>
<path class="st3" d="M627,405.7c2,0,1.7,1.4,1.8,2.7c-3.1,7.3-8,9.5-15,6c-1.9-0.9-4-1.2-6-1.8c0,0,0.1-0.1,0.1-0.1
	c-0.1-0.5-0.1-0.9-0.2-1.4c2.5-1.3,4.7,0.6,7.1,0.8C619.4,412.3,624.7,409.8,627,405.7z"/>
<path class="st1" d="M612.3,305.4c-2.5,0.2-4.9,0.4-5.7-3c-0.6-2.6-3.1-1.9-5-2.1c-1.5-0.1-3.6,0.6-3-2.4c0.6-3,2.1-0.7,3.2-0.7
	c3,0,5,2.1,6.4,4.1C609.3,303.1,610.6,304.2,612.3,305.4z"/>
<path class="st1" d="M589.3,304.6c-1.5-0.6-4.3,0.4-3.6-1.7c1.1-3.2,5-2.3,7.6-3.4c0.9-0.4,2.4-0.2,2.2,1.1
	C594.9,304.4,591.4,303.5,589.3,304.6z"/>
<path class="st2" d="M575,319.4c-0.1-0.7,0-1.3,0.8-1.5c0.2,0,0.6,0.3,0.6,0.5C576.3,319.2,575.5,319.2,575,319.4
	C574.9,319.3,575,319.4,575,319.4z"/>
<path class="st1" d="M622.8,285.4c-0.3-0.2-0.7-0.4-1-0.6c0.4,0.1,0.8,0.3,1.2,0.4C623,285.3,622.8,285.4,622.8,285.4z"/>
<path class="st3" d="M629.9,400.4c0.3,0,0.6,0.1,0.9,0.1c-0.1,0.2-0.1,0.3-0.2,0.5C630.4,400.8,630.2,400.5,629.9,400.4
	C629.9,400.3,629.9,400.4,629.9,400.4z"/>
<path class="st0" d="M619.9,300.4c0.7-0.8,1.5-1.2,2.4-0.4c0.1,0.1-0.2,0.8-0.2,0.8C621.4,300.7,620.7,300.5,619.9,300.4
	C619.9,300.3,619.9,300.4,619.9,300.4z"/>
<path class="st0" d="M619.9,300.3c-0.1,0.6-0.2,1.5-1,1.5c-0.8,0-0.9-0.8-1-1.5l0,0C618.6,300.4,619.3,300.4,619.9,300.3
	C619.9,300.4,619.9,300.3,619.9,300.3z"/>
<path class="st0" d="M617.9,300.3c-0.5-0.3-1-0.6-1.5-0.8c0.2-0.2,0.3-0.4,0.5-0.6C617.3,299.4,617.6,299.9,617.9,300.3
	C617.9,300.4,617.9,300.3,617.9,300.3z"/>
<path class="st3" d="M559.2,370.4c6.3,0.3,9.5,5.4,13.5,9.1c2.4,2.2,3.4,6,7.5,6.2c1.1,0.1,0.4,1.7,0.5,2.5c0.2,5.5-1.2,11-3.4,15.7
	c-1.6,3.5-6.6,5.2-10.8,6.4c0.3-0.6,0.8-1.1,1-1.7c0.7-1.8,3.9-2.7,2.8-4.7c-1.4-2.7-2.9,1.6-4.7,0.6c-0.3-0.2-0.6-0.3-0.8-0.5
	c-0.6-3.5-4.7-3.6-6-6.3c0.1-0.8,2.8-0.4,0.6-2.3c-7.5-6.6-17.6-5.2-24.6,3.7c-0.8,1-2.3,1.5-1.7,3.2c0.7,1.7,2.1,1.8,3.6,1.7
	c1,0,1.9,0,2.9,0c5.9,4,11.9,7.6,19.4,4.3c1.1-0.5,2.3-0.3,3.1,0.9c-4.1,2.7-9.3,3.2-13.1,6.4c-2.2-0.1-4.3-0.3-6.5-0.3
	c-5.3,0.1-8.7-1.8-11-7.1c-1.7-4-6.2-3.4-10.8-0.9c1.4-4.9-0.3-9.4,3.2-12.8c1.5-1.5-0.2-3.1,0.1-4.7c0.4-2.1,0.2-4.3,2.3-5.7
	c2.2,1.5,2.3-0.9,3.2-1.8c2.7-2.7,4.5-6.7,9.4-6.1c0.4,2.1-3.8,2-2.4,4.2c1.4,2.2,4-0.4,6,0.7c0.1,1.4-0.8,2.2-1.8,2.8
	c-1.2,0.8-2.3,2.2-1.4,3.3c1,1.2,2,3.1,4.1,2.8c1.8-0.2,3.6-0.6,5.4-0.9c2.4,1.8,5.4,1.3,8.1,1.8c2.5,1.6,5.6,1.9,7.2-0.5
	c1.9-2.9-1.5-4.2-3.3-5.6c-6.3-4.7-12.4-10-21.2-8.8c4.9-2.9,10.8-2.8,15.7-2.1C560.1,374.6,559,372.7,559.2,370.4z"/>
<path class="st4" d="M559.2,432.5c-0.1,3-0.1,6-0.2,8.9c0.3,4.1-2.8,5.8-5.8,6.3c-2,0.3-2.6-3.6-3.6-4.3c-4.7-3.8-3.8-8-3.3-13
	c0.3-3.4-3.7-2.9-6.3-3.1c2.5-5.4,5.1-5.9,9.2-1.8c0.7,0.7,1.7,1,2.1,0.2c1.8-3.1,5.5-2.3,7.8-4.3c0.6-0.5,1.2-0.6,1.6,0
	c0.7,1,1.2,2,0.3,3.2C559.2,426.9,558.4,429.5,559.2,432.5z"/>
<path class="st0" d="M538.9,376.3c-4.8-0.6-6.7,3.4-9.4,6.1c-0.9,0.9-0.9,3.3-3.2,1.8c0.6-3.8,1.8-7.3,5.2-9.6c2.9-3,6.5-4.6,10.3-6
	c2-0.2,4-0.5,6,0.3c0.4,1.1,1,1.6,1.9,0.4c3.2-0.2,6.4-0.1,9.4,1.1c-0.2,2.2,0.9,4.2-3.7,3.6c-5-0.7-10.8-0.9-15.7,2.1
	C539.5,376.2,539.2,376.2,538.9,376.3z"/>
<path class="st4" d="M549,415.8c3.8-3.2,9-3.7,13.1-6.4c1-0.6,2-1.4,1.6-2.7c-0.4-1.4-1.8-1.1-2.8-1.4c-2.1-0.6-4.1,1.8-6.1,0
	c1.5-4,3.7-5.4,7.2-1.9c0.6,0.6,1.8,0.6,2.7,0.8c0.3,0.2,0.6,0.3,0.8,0.5c1.8,1,3.3-3.3,4.7-0.6c1,2-2.1,2.9-2.8,4.7
	c-0.2,0.6-0.7,1.1-1,1.7c-2,0.2-3.3,1.7-4.1,3.2c-2.5,4.8-7.3,3.5-11.2,4.6C549.7,418.6,549,417.3,549,415.8z"/>
<path class="st1" d="M566.9,439.3c-1.9-1.7-3.8-3.5-2.4-6.3c0.9-1.7,2.8-1.6,4.4-1c3.5,1.2,6.9,3.2,7.8,6.9c0.6,2-2.6,1.6-3.9,2.6
	C570.7,441.5,569,439.9,566.9,439.3z"/>
<path class="st4" d="M585.9,426c-0.2,2.7-1.9,4.8-4,4.3c-2-0.5-5.2-1.8-5.1-4.4c0.1-3.1,3.1-5.1,5.8-5.2
	C585.6,420.6,585,424.2,585.9,426z"/>
<path class="st3" d="M573.4,418.1c-0.9,5.5-5.5,6.3-9.5,8.2C564.7,421.4,567.7,418.9,573.4,418.1z"/>
<path class="st1" d="M578.8,443.5c1.4-1.9,3.3-1.4,5.2-1.2c-1.1,1.6-2.9,0.9-4.4,1.5C579.3,443.8,579.1,443.7,578.8,443.5z"/>
<path class="st3" d="M549.8,369.3c-0.9,1.2-1.5,0.7-1.9-0.4C548.6,368.4,549.3,368.6,549.8,369.3z"/>
<path class="st2" d="M582.6,496.6c0.9,2.3,3,1.7,4.7,1.7c1,0,1.9-0.6,2.9-0.6c2.2,0,4,1.6,4.9,3c0.7,1.1-1.6,2.5-3.1,3.3
	c-7.1,3.9-14.3,4.1-21.4,0.2c-1.4-0.8-2.6,0-3.8-0.4c-1.6-0.5-4.2,0.2-4.4-2.2c-0.2-2.1,1.9-2.6,3.8-3.3c2.3-0.8,5.1,0.1,6.9-2.2
	c0.9,0.1,1.8,0.1,2.8,0.2c1.7,1.5,3.4,1.4,5.2,0.3C581.6,496.6,582.1,496.6,582.6,496.6z"/>
<path class="st1" d="M604.7,475.9c-2.4,0.2-4.9,0.3-7.3,0.5c-1.8-0.9-3.7-1.2-5.7-0.9c-0.2-0.1-0.5-0.1-0.7,0.1
	c-11.4,0.7-22.7-1.6-34.1-0.1c0-0.7-0.1-1.4-0.1-2.1c3.9,0.1,7.4-2.4,11.3-2c0.7,0.1,1.3-0.2,1.1-1.1c-0.8-3.7,2-0.9,2.9-1.6
	c-0.2,1.5-1,2.8,1.6,3.5c4.9,1.4,9-1.9,13.7-1.1c-2.5-1.4-4.2-3.7-7.8-2.2c-1.5,0.7-5.1,1.1-7.6-0.2c1-2,3.5-1,4.8-2.4
	c1.4,0,2.8,0,4.1,0.1c0.6,0,1.2,0,1.8,0c1.4-0.2,2.7-0.5,4.1-0.7c2.4,2,3.7,5.9,8,4.5c1-0.3,2-0.6,3-0.9c0.7,1.2,1.9,1.1,3,1
	c0.6,0.2,1.2,0.4,1.8,0.6C603.2,472.7,605.2,473.8,604.7,475.9z"/>
<path class="st2" d="M591.7,475.5c2-0.3,3.9,0,5.7,0.9c-1.1,3-5.4,2.6-6.3,6.5c-0.5,2-2.4-1.1-3.8-1.3c-4.6-5.3-10.5-1.1-15.7-2.6
	c0.9,2.1,2.6,2,4,2.6c3.7,1.6,7.6-0.4,11.3,0.9c0,2.5-1.6,3-3.6,3c-4.3,0-8.6,0.6-12.5-2c-1.8-1.2-4.1-1-6.3-1.2
	c0,0-0.3-0.2-0.3-0.2c-1.8-2.9-6.6-2.6-7.3-6.7c11.4-1.5,22.7,0.8,34.1,0.1c0,0,0.4,0.2,0.4,0.2L591.7,475.5z"/>
<path class="st0" d="M564.2,482.1c0,0,0.3,0.2,0.3,0.2c1.2,2.2,3.8,2.6,5.4,4.3c0.4,0.7,0.5,1.6,1.1,2.1c6.6,5.9,18.6,5.2,24.4-1.4
	c0.8-0.9,2.2-2-0.1-2.9c0.8-1.9,2.4-4,4.1-2.7c0.9,0.7,2.7,3.2,0.3,6.5c-4.6,6.2-10.3,7.9-17.2,8.3c-0.5,0-1,0-1.5,0
	c-1.7-1.4-3.4-1.5-5.2-0.3c-0.9-0.1-1.8-0.1-2.8-0.2c-1.3-3-4.7-3.7-6.7-6.1C564.3,487.4,563.3,485.2,564.2,482.1z"/>
<path class="st1" d="M595.3,484.4c2.3,0.9,0.9,1.9,0.1,2.9c-5.8,6.6-17.7,7.3-24.4,1.4c-0.6-0.5-0.7-1.4-1.1-2.1
	c3.6,0.4,7.3,0.8,10.9,1.3c0.4,0.1,0.7,0.3,1.1,0.4C586.4,486.9,591.5,487.7,595.3,484.4z"/>
<path class="st1" d="M583.9,442.4c1-6.2,8-9.4,15.9-7.5c0,0.9,0,1.7-0.1,2.6C595.3,441.8,589.8,442.7,583.9,442.4z"/>
<path class="st0" d="M572.2,468.7c-0.9,0.7-3.7-2.2-2.9,1.6c0.2,0.9-0.4,1.2-1.1,1.1c-4-0.4-7.4,2.1-11.3,2
	c-1.2-3.6,2.1-4.4,3.9-5.7c3.9-2.7,8.6-3.3,13.2-3.3c1.4,0,2.7,0.2,2.9,1.9C575.6,467.7,573.1,466.7,572.2,468.7l-0.2-0.2
	L572.2,468.7z"/>
<path class="st0" d="M599.8,437.5c0-0.9,0-1.7,0.1-2.6c1.6,0.3,3.3,0.7,4.9,1c0.2,2.4,0.5,4.9-0.2,7.3c-2,1.6-3.3,5.8-6.8,1.8
	c1-1,2.1-1.9,3-3C602.2,440.1,602.3,438.5,599.8,437.5z"/>
<path class="st4" d="M586.9,482.4c-3.7-1.3-7.6,0.8-11.3-0.9c-1.4-0.6-3.2-0.6-4-2.6c5.2,1.5,11.1-2.7,15.7,2.6
	C587.3,481.9,587.2,482.2,586.9,482.4z"/>
<path class="st0" d="M604.7,475.9c0.5-2.1-1.6-3.2-2-5c1.8-0.9,2.7,0.5,3.7,1.5c0.5,0.6,1,1.7,1.8,1.2c1.5-1,2.8-1.9,3.9,0.3
	c1.2,2.3-0.1,3.9-1.5,6.9C610.1,476.3,607.7,475.7,604.7,475.9z"/>
<path class="st0" d="M594.9,470.2c-4.3,1.4-5.6-2.5-8-4.5C590.6,465.3,594,465.5,594.9,470.2z"/>
<path class="st0" d="M600.9,470.3c-1.2,0.1-2.3,0.2-3-1c0-1.2,0.6-1.9,1.7-1.7C601.2,467.9,600.9,469.2,600.9,470.3z"/>
<path class="st0" d="M582.8,466.4c-0.6,0-1.2,0-1.8,0c0.2-0.5,0.4-1.4,0.7-1.5C582.8,464.8,582.8,465.6,582.8,466.4z"/>
<polygon class="st0" points="602,481 601.6,480.8 602,480.7 "/>
<path class="st0" d="M582,488.3c-0.4-0.1-0.7-0.3-1.1-0.4C581.3,488,581.6,488.1,582,488.3z"/>
<path class="st4" d="M604.6,443.2c0.6-2.4,0.3-4.9,0.2-7.3c-0.4-2.9-2.2-5.6-1.5-8.8c1.1-1.8,2.1-4.3,4.7-3.5c3.3,1,5.1,4.1,6.7,6.9
	c1.2,2.1-0.5,3.3-2.6,4.3c-1.8,0.9-1.2,3.2-0.5,4.9c1.1,3.1-1.6,7.4-4.7,7.3C604.2,446.9,605.5,444.4,604.6,443.2z"/>
<path class="st2" d="M624.8,400c-0.6,0-1.1,0-1.7,0c-0.4-0.5-0.8-0.6-1.3,0c-4.7-1.9-9.1,0.5-13.6,0.9c-1.4-2.5,1-3.2,2.2-4.1
	c1.6-1.1,2.2-2.3,1.7-4.1c0.5-0.1,0.9-0.3,1.4-0.4c1.5-0.2,3.4-0.4,2.7-2.4c-0.5-1.8-2-1.8-3.5-0.7c-1.1,0.9-2.2,0-3.2-0.3
	c2.2-2.7,9.1-4,11.6-2.1c1.4,1.1,2.2,2.6,0,4c-1.7,1-3.3,2-5.1,3.1C619.9,394.8,624.3,394.6,624.8,400z"/>
<path class="st4" d="M609.6,388.9c1.1,0.4,2.1,1.2,3.2,0.3c1.5-1.2,3-1.1,3.5,0.7c0.6,2.1-1.3,2.2-2.7,2.4c-0.5,0.1-0.9,0.3-1.4,0.4
	c-1.5,0.1-2.9,0.2-4.4,0.4c0.3-1.3,0.5-2.6,0.8-4C609,389.1,609.3,389,609.6,388.9z"/>
<path class="st2" d="M608.7,389.2c-0.3,1.3-0.5,2.6-0.8,4c-0.8,1.3-2.2,1.7-3.2,0.7c-1.2-1.2,0.2-2.4,1-3.2
	C606.5,389.8,607.5,389.1,608.7,389.2z"/>
<path class="st1" d="M603,405.4c-0.3,0.8-1,0.9-1.7,0.9C601.4,405.1,602.2,405.3,603,405.4z"/>
<path class="st2" d="M559.3,347.6c-0.3,0-0.5-0.1-0.8-0.1c0-0.2,0.1-0.4,0.1-0.4c0.3,0,0.5,0.1,0.8,0.1
	C559.4,347.3,559.4,347.5,559.3,347.6z"/>
<path class="st0" d="M613,405.3c3.7-0.9,7.4,0.4,11.1,0.1c-1.9,4.7-5.1,5-9.1,2.8C614.3,407.4,613.1,406.7,613,405.3z"/>
<path class="st4" d="M613,405.3c0.1,1.4,1.2,2,1.9,3c-3.5,0.9-6.5,0.7-8.2-3.1C608.9,402.6,611,401.6,613,405.3z"/>
<path class="st3" d="M600.9,413.4c1.1,0.1,1.9,0.5,1.8,1.8c0,0.1-0.2,0.4-0.3,0.4C601.1,415.4,601.1,414.3,600.9,413.4
	C600.9,413.3,600.9,413.4,600.9,413.4z"/>
<path class="st3" d="M606.4,412.3c-1.1-0.2-2-0.9-2.5-2l0,0c0.8-0.3,1.5-0.2,2.1,0.4C606.2,411.3,606.3,411.8,606.4,412.3z"/>
<path class="st0" d="M606.4,412.3c-0.1-0.5-0.2-1-0.4-1.5c0.6,0.1,1.1,0.2,1.7,0.3c0.1,0.5,0.1,0.9,0.2,1.4
	C607.4,412.4,606.9,412.4,606.4,412.3z"/>
<path class="st3" d="M603.9,410.3c-0.3-0.1-0.6-0.2-0.9-0.3c0.1-0.1,0.2-0.3,0.3-0.4C603.5,409.9,603.7,410.1,603.9,410.3
	C603.9,410.4,603.9,410.3,603.9,410.3z"/>
<path class="st0" d="M562.9,296.3c-1.2,1.1-2.7,1.5-4.3,1.5C559.4,295.1,561.3,296.2,562.9,296.3
	C562.9,296.3,562.9,296.3,562.9,296.3z"/>
<path class="st3" d="M621.9,400c0.4-0.5,0.9-0.5,1.3,0C622.7,400,622.3,400,621.9,400z"/>
<path class="st2" d="M538.9,376.3c0.3,0,0.6-0.1,0.9-0.2c8.8-1.2,14.9,4.1,21.2,8.8c1.8,1.4,5.2,2.7,3.3,5.6c-1.6,2.3-4.7,2-7.2,0.5
	c0.8-1,3.2-1.3,1.8-3.3c-1.5-2.1-3.5-3.5-6.2-3.2c-2.8,0.3-4,2-3.7,4.7c-1.8,0.3-3.6,0.6-5.4,0.9c-2.2,0.3-3.1-1.6-4.1-2.8
	c-0.9-1.1,0.1-2.4,1.4-3.3c0.9-0.6,1.8-1.4,1.8-2.8c-2-1.1-4.6,1.5-6-0.7C535.1,378.3,539.3,378.4,538.9,376.3z"/>
<path class="st1" d="M564.8,404.1c-0.9-0.3-2.1-0.2-2.7-0.8c-3.6-3.6-5.7-2.1-7.2,1.9c-4.8,1.8-8.5,1-9.7-2.2
	c-0.5-1.2,0.5-3.6-1.8-3.2c-2,0.3-4.1,1.5-3.6,4.4c-1,0-2,0-2.9,0c-1.5,0.1-3,0-3.6-1.7c-0.6-1.7,0.9-2.2,1.7-3.2
	c6.8-2.2,13.6-4.9,21-2.8c0.3,0.8,0.8,1.4,1.8,1.4c0.4,0,0.8,0,1.2,0.1C560.1,400.6,564.2,400.7,564.8,404.1z"/>
<path class="st2" d="M555.7,396.4c-7.4-2.1-14.2,0.6-21,2.8c7-8.9,17.2-10.3,24.6-3.7c2.2,1.9-0.5,1.5-0.6,2.3c-0.4,0-0.8,0-1.2-0.1
	C556.9,395.7,556.9,395.7,555.7,396.4z"/>
<path class="st2" d="M539.6,404.2c-0.5-2.9,1.6-4.1,3.6-4.4c2.3-0.4,1.4,2,1.8,3.2c1.2,3.2,5,4,9.7,2.2c2,1.9,4-0.6,6.1,0
	c1.1,0.3,2.4,0,2.8,1.4c0.4,1.4-0.6,2.1-1.6,2.7c-0.8-1.2-2-1.4-3.1-0.9C551.5,411.8,545.5,408.2,539.6,404.2z"/>
<path class="st4" d="M548.9,389.2c-0.2-2.7,0.9-4.4,3.7-4.7c2.8-0.3,4.8,1.1,6.2,3.2c1.4,2-1,2.3-1.8,3.3
	C554.3,390.5,551.4,391,548.9,389.2z"/>
<path class="st3" d="M575.8,496.3c1.8-1.2,3.6-1.1,5.2,0.3C579.3,497.6,577.5,497.8,575.8,496.3z"/>
<path class="st2" d="M572.1,468.7c2.5,1.3,6,0.9,7.6,0.2c3.6-1.5,5.3,0.8,7.8,2.2c-4.7-0.9-8.8,2.4-13.7,1.1
	C571.2,471.5,571.9,470.2,572.1,468.7c0,0-0.2-0.2-0.2-0.2L572.1,468.7z"/>
<path class="st3" d="M591.7,475.5l-0.3,0.2c0,0-0.4-0.2-0.4-0.2C591.3,475.4,591.5,475.4,591.7,475.5z"/>
<path class="st3" d="M555.7,396.4c1.2-0.8,1.2-0.8,1.8,1.4C556.6,397.8,556,397.3,555.7,396.4z"/>
</svg>
