<?xml version="1.0" encoding="utf-8"?>
<!-- Generator: Adobe Illustrator 22.1.0, SVG Export Plug-In . SVG Version: 6.00 Build 0)  -->
<svg version="1.1" id="Layer_1" xmlns="http://www.w3.org/2000/svg" xmlns:xlink="http://www.w3.org/1999/xlink" x="0px" y="0px"
	 viewBox="0 0 90 90.9" style="enable-background:new 0 0 90 90.9;" xml:space="preserve">
<style type="text/css">
	.st0{fill:#FDF5EA;stroke:#5B5B4B;stroke-linecap:round;stroke-miterlimit:10;}
</style>
<g>
	<path id="XMLID_655_" class="st0" d="M19.5,2.4c0,0-0.6-0.3-0.6,0.7c-1.2,32.3-1.4,83.6-1.4,83.6c0.1,1,0.6,0.7,0.6,0.7
		c18.3,1.6,52.3,1,52.3,1s0.6,0.3,0.6-0.7c2.2-50.1,1.4-84.2,1.4-84.2c-0.1-1-0.6-0.7-0.6-0.7S43.2,2.3,19.5,2.4z"/>
	<path id="XMLID_654_" class="st0" d="M61.9,12.8c0,0,1.4-0.2,1.5,1c0,0,1.3,21.2-0.9,47.3c-0.1,1.2-1.5,1-1.5,1S41.9,61.9,28.5,61
		c0,0-1.4,0.2-1.5-1c0,0-0.8-20.2,0.8-46.4c0.1-1.2,1.5-1,1.5-1L61.9,12.8z"/>
	<path id="XMLID_656_" class="st0" d="M48.3,69.5c0,0-8.4-3.4-10.9,4.7s4.6,9.8,5.6,9.7c1-0.1,9.3-0.6,8.7-5.8
		C51.2,72.5,49.9,70.3,48.3,69.5z"/>
</g>
</svg>
