<?xml version="1.0" encoding="utf-8"?>
<!-- Generator: Adobe Illustrator 22.1.0, SVG Export Plug-In . SVG Version: 6.00 Build 0)  -->
<svg version="1.1" id="Layer_1" xmlns="http://www.w3.org/2000/svg" xmlns:xlink="http://www.w3.org/1999/xlink" x="0px" y="0px"
	 viewBox="0 0 1281.1 720.5" style="enable-background:new 0 0 1281.1 720.5;" xml:space="preserve">
<style type="text/css">
	.st0{fill:none;stroke:#5B5B4B;stroke-linecap:round;stroke-miterlimit:10;}
	.st1{fill:none;stroke:#35423E;stroke-linecap:round;stroke-miterlimit:10;}
</style>
<g>
	<g id="XMLID_60_">
		<g id="XMLID_70_">
			
				<rect id="XMLID_78_" x="634.9" y="74.3" transform="matrix(2.272441e-09 -1 1 2.272441e-09 -73.8305 1354.8309)" class="st0" width="11.2" height="1280"/>
			
				<rect id="XMLID_77_" x="634.9" y="63.1" transform="matrix(2.274383e-09 -1 1 2.274383e-09 -62.5961 1343.5966)" class="st0" width="11.2" height="1280"/>
			
				<rect id="XMLID_76_" x="634.9" y="51.9" transform="matrix(2.272441e-09 -1 1 2.272441e-09 -51.3617 1332.3621)" class="st0" width="11.2" height="1280"/>
			
				<rect id="XMLID_75_" x="634.9" y="40.6" transform="matrix(2.274222e-09 -1 1 2.274222e-09 -40.1273 1321.1277)" class="st0" width="11.2" height="1280"/>
			
				<rect id="XMLID_74_" x="634.9" y="29.4" transform="matrix(2.272603e-09 -1 1 2.272603e-09 -28.8928 1309.8933)" class="st0" width="11.2" height="1280"/>
			
				<rect id="XMLID_73_" x="634.9" y="18.2" transform="matrix(2.274222e-09 -1 1 2.274222e-09 -17.6584 1298.6589)" class="st0" width="11.2" height="1280"/>
			
				<rect id="XMLID_72_" x="634.9" y="6.9" transform="matrix(2.273413e-09 -1 1 2.273413e-09 -6.424 1287.4244)" class="st0" width="11.2" height="1280"/>
			
				<rect id="XMLID_71_" x="634.9" y="-4.3" transform="matrix(2.273413e-09 -1 1 2.273413e-09 4.8104 1276.1901)" class="st0" width="11.2" height="1280"/>
		</g>
		<g id="XMLID_61_">
			<rect id="XMLID_69_" x="0.5" y="630.1" class="st0" width="160" height="89.9"/>
			<rect id="XMLID_68_" x="160.5" y="630.1" class="st0" width="160" height="89.9"/>
			<rect id="XMLID_67_" x="320.5" y="630.1" class="st0" width="160" height="89.9"/>
			<rect id="XMLID_66_" x="480.5" y="630.1" class="st0" width="160" height="89.9"/>
			<rect id="XMLID_65_" x="640.5" y="630.1" class="st0" width="160" height="89.9"/>
			<rect id="XMLID_64_" x="800.5" y="630.1" class="st0" width="160" height="89.9"/>
			<rect id="XMLID_63_" x="960.5" y="630.1" class="st0" width="160" height="89.9"/>
			<rect id="XMLID_62_" x="1120.5" y="630.1" class="st0" width="160" height="89.9"/>
		</g>
	</g>
	<g>
		<g>
			<line class="st1" x1="641.4" y1="630.2" x2="641.1" y2="720"/>
			<line class="st1" x1="0.6" y1="630.1" x2="1280.6" y2="630.1"/>
		</g>
		<path class="st0" d="M0.4,719.9l640.3-89.9L0.4,719.9z"/>
		<path class="st0" d="M0.6,697.5L640.4,630L0.6,697.5z"/>
		<g>
			<path class="st0" d="M0.6,675l639.7-45L0.6,675z"/>
		</g>
		<path class="st0" d="M0.6,652.6L640.4,630L0.6,652.6z"/>
		<line class="st0" x1="0.6" y1="630.1" x2="640.4" y2="630"/>
		<path class="st0" d="M1280.6,719.9l-640.3-89.9L1280.6,719.9z"/>
		<path class="st0" d="M1280.4,697.5L640.6,630L1280.4,697.5z"/>
		<path class="st0" d="M1280.4,675l-639.7-45L1280.4,675z"/>
		<path class="st0" d="M1280.4,652.6L640.6,630L1280.4,652.6z"/>
		<line class="st0" x1="1280.4" y1="630.1" x2="640.6" y2="630"/>
		<line id="XMLID_59_" class="st1" x1="640.6" y1="630.1" x2="800.6" y2="720"/>
		<line id="XMLID_58_" class="st1" x1="960.6" y1="720" x2="640.6" y2="630.1"/>
		<line id="XMLID_57_" class="st1" x1="1120.6" y1="720" x2="640.6" y2="630.1"/>
		<line id="XMLID_54_" class="st1" x1="640.6" y1="630.1" x2="480.6" y2="720"/>
		<line id="XMLID_2_" class="st1" x1="320.6" y1="720" x2="640.6" y2="630.1"/>
		<line class="st1" x1="640.6" y1="630.1" x2="160.6" y2="720"/>
		<line class="st1" x1="640.6" y1="630.1" x2="0.6" y2="641.2"/>
		<line class="st1" x1="1280.6" y1="641.2" x2="640.6" y2="630.1"/>
	</g>
</g>
</svg>
