<?xml version="1.0" encoding="utf-8"?>
<!-- Generator: Adobe Illustrator 22.1.0, SVG Export Plug-In . SVG Version: 6.00 Build 0)  -->
<svg version="1.1" id="Layer_1" xmlns="http://www.w3.org/2000/svg" xmlns:xlink="http://www.w3.org/1999/xlink" x="0px" y="0px"
	 viewBox="0 0 483.3 361" style="enable-background:new 0 0 483.3 361;" xml:space="preserve">
<style type="text/css">
	.st0{fill:#FDF5EA;stroke:#5B5B4B;stroke-linecap:round;stroke-miterlimit:10;}
</style>
<g>
	<g>
		<path class="st0" d="M144.9,177.4c-4.8,0.1-34.1-0.1-49.4-0.3c-5.6-0.1-9.3-0.1-9.3-0.1s-1.9-0.4-2.2-1.2
			c-0.1-0.4-0.2-1.2-0.3-2.5c0.1-5.4,0.3-9.8,0.3-9.8c-0.1-0.8,2.2-1.2,2.2-1.2c0.5-0.1,4.1-0.2,9.3-0.2c16.6-0.2,49.5-0.1,49.5-0.1
			s1.7,0.3,2.1,0.8c0,1.5,0,2.9,0,4.2c0,2.4,0,5.8,0,9.3C146.7,177.1,144.9,177.4,144.9,177.4z"/>
		<path class="st0" d="M135.5,177.4c-4.8,0.1-34.1-0.1-49.4-0.3c-5.6-0.1-9.3-0.1-9.3-0.1s-1.9-0.4-2.2-1.2
			c-0.1-0.4-0.2-1.2-0.3-2.5c0.1-5.4,0.3-9.8,0.3-9.8c-0.1-0.8,2.2-1.2,2.2-1.2c0.5-0.1,4.1-0.2,9.3-0.2c16.6-0.2,49.5-0.1,49.5-0.1
			s1.7,0.3,2.1,0.8c0,1.5,0,2.9,0,4.2c0,2.4,0,5.8,0,9.3C137.3,177.1,135.5,177.4,135.5,177.4z"/>
	</g>
	<g>
		<path class="st0" d="M76.5,162.4c4.8,0.1,34.1-0.1,49.4-0.3c5.6-0.1,9.3-0.1,9.3-0.1s1.9-0.4,2.2-1.2c0.1-0.4,0.2-1.2,0.3-2.5
			c-0.1-5.4-0.3-9.8-0.3-9.8c0.1-0.8-2.2-1.2-2.2-1.2c-0.5-0.1-4.1-0.2-9.3-0.2c-16.6-0.2-49.5-0.1-49.5-0.1s-1.7,0.3-2.1,0.8
			c0,1.5,0,2.9,0,4.2c0,2.4,0,5.8,0,9.3C74.7,162.1,76.5,162.4,76.5,162.4z"/>
		<path class="st0" d="M85.9,162.4c4.8,0.1,34.1-0.1,49.4-0.3c5.6-0.1,9.3-0.1,9.3-0.1s1.9-0.4,2.2-1.2c0.1-0.4,0.2-1.2,0.3-2.5
			c-0.1-5.4-0.3-9.8-0.3-9.8c0.1-0.8-2.2-1.2-2.2-1.2c-0.5-0.1-4.1-0.2-9.3-0.2c-16.6-0.2-49.5-0.1-49.5-0.1s-1.7,0.3-2.1,0.8
			c0,1.5,0,2.9,0,4.2c0,2.4,0,5.8,0,9.3C84.1,162.1,85.9,162.4,85.9,162.4z"/>
	</g>
	<g>
		<path class="st0" d="M144.9,147.4c-4.8,0.1-34.1-0.1-49.4-0.3c-5.6-0.1-9.3-0.1-9.3-0.1s-1.9-0.4-2.2-1.2
			c-0.1-0.4-0.2-1.2-0.3-2.5c0.1-5.4,0.3-9.8,0.3-9.8c-0.1-0.8,2.2-1.2,2.2-1.2c0.5-0.1,4.1-0.2,9.3-0.2c16.6-0.2,49.5-0.1,49.5-0.1
			s1.7,0.3,2.1,0.8c0,1.5,0,2.9,0,4.2c0,2.4,0,5.8,0,9.3C146.7,147.1,144.9,147.4,144.9,147.4z"/>
		<path class="st0" d="M135.5,147.4c-4.8,0.1-34.1-0.1-49.4-0.3c-5.6-0.1-9.3-0.1-9.3-0.1s-1.9-0.4-2.2-1.2
			c-0.1-0.4-0.2-1.2-0.3-2.5c0.1-5.4,0.3-9.8,0.3-9.8c-0.1-0.8,2.2-1.2,2.2-1.2c0.5-0.1,4.1-0.2,9.3-0.2c16.6-0.2,49.5-0.1,49.5-0.1
			s1.7,0.3,2.1,0.8c0,1.5,0,2.9,0,4.2c0,2.4,0,5.8,0,9.3C137.3,147.1,135.5,147.4,135.5,147.4z"/>
	</g>
</g>
</svg>
