<?xml version="1.0" encoding="utf-8"?>
<!-- Generator: Adobe Illustrator 22.1.0, SVG Export Plug-In . SVG Version: 6.00 Build 0)  -->
<svg version="1.1" id="Layer_1" xmlns="http://www.w3.org/2000/svg" xmlns:xlink="http://www.w3.org/1999/xlink" x="0px" y="0px"
	 viewBox="0 0 483.3 361" style="enable-background:new 0 0 483.3 361;" xml:space="preserve">
<style type="text/css">
	.st0{fill:#FDF5EA;stroke:#5B5B4B;stroke-linecap:round;stroke-miterlimit:10;}
	.st1{fill:#FDF5EA;}
	.st2{fill:#FDF5EA;stroke:#5B5B4B;stroke-linecap:round;stroke-linejoin:round;stroke-miterlimit:10;}
	.st3{fill:none;stroke:#5B5B4B;stroke-linecap:round;stroke-miterlimit:10;}
</style>
<g>
	<g>
		<g id="XMLID_26066_">
			<path id="XMLID_26067_" class="st0" d="M181.6,264c-4.9,1.4-4.7-7,0.8-5.4"/>
		</g>
		<g id="XMLID_26064_">
			<path id="XMLID_26065_" class="st0" d="M233.9,258.9c3.9-3.2,7.2,4.5,1.4,5.3"/>
		</g>
		<g>
			<g id="XMLID_26062_">
				<path id="XMLID_26063_" class="st0" d="M185.6,354.2c0,0,5.7-0.6,3.6,4.1C187.2,362.9,180.8,357.4,185.6,354.2z"/>
			</g>
			<g id="XMLID_26060_">
				<path id="XMLID_26061_" class="st0" d="M175.7,355.7c0,0,4.3-0.4,2.7,3C176.9,362.2,172.1,358.1,175.7,355.7z"/>
			</g>
			<path id="XMLID_26059_" class="st0" d="M194.2,360c0,0-6.8,0.5-3.6-4c3.1-4.4,8.7,0.1,9.1,2C200.2,359.9,194.2,360,194.2,360z"/>
			<g id="XMLID_26057_">
				<path id="XMLID_26058_" class="st0" d="M180.3,354.9c0,0,5-0.5,3.2,3.5C181.7,362.5,176.1,357.7,180.3,354.9z"/>
			</g>
			<g id="XMLID_26055_">
				<path id="XMLID_26056_" class="st0" d="M171.6,356.1c0,0,3.9-0.4,2.5,2.7C172.7,361.9,168.4,358.3,171.6,356.1z"/>
			</g>
		</g>
		<g>
			<g id="XMLID_26053_">
				<path id="XMLID_26054_" class="st0" d="M230.3,354.2c0,0-5.7-0.6-3.6,4.1C228.7,362.9,235.1,357.4,230.3,354.2z"/>
			</g>
			<g id="XMLID_26051_">
				<path id="XMLID_26052_" class="st0" d="M240.2,355.7c0,0-4.3-0.4-2.7,3C239.1,362.2,243.8,358.1,240.2,355.7z"/>
			</g>
			<path id="XMLID_26050_" class="st0" d="M221.7,360c0,0,6.8,0.5,3.6-4c-3.1-4.4-8.7,0.1-9.1,2C215.8,359.9,221.7,360,221.7,360z"
				/>
			<g id="XMLID_26048_">
				<path id="XMLID_26049_" class="st0" d="M235.6,354.9c0,0-5-0.5-3.2,3.5C234.3,362.5,239.8,357.7,235.6,354.9z"/>
			</g>
			<g id="XMLID_26046_">
				<path id="XMLID_26047_" class="st0" d="M244.3,356.1c0,0-3.9-0.4-2.5,2.7C243.3,361.9,247.6,358.3,244.3,356.1z"/>
			</g>
		</g>
		<g>
			<path id="XMLID_26045_" class="st0" d="M152.6,169.4c0.8,19.3,1.5,40,2.1,51.7c1.3,25.7-0.7,63.5-0.7,63.5l10.8-0.9
				c0,0-2.2-66.7,0-80.7c1.7-10.5-1.5-50.7-2.2-71.8"/>
			<g id="XMLID_26032_">
				<path id="XMLID_26044_" class="st1" d="M167.3,302c-1.9,0.5-3.2,0.6-4.1,0.5c0.5,6.9-2.8,4.8-4.4,3.5l-0.7,0.3
					c-2.2,4.1-4.9,0.1-5.6-1.2l-0.1,1c-3.6,1.8-3.4-2.1-3.1-4.2c-0.4,0.6-1.3,1.3-3.8,1.2c-4.7-0.1,9-22.4,9-22.4l10.4,2.4
					C164.8,283,176.7,299.6,167.3,302z"/>
				<path id="XMLID_26043_" class="st0" d="M164.8,283c0,0,11.9,16.5,2.4,18.9c-1.9,0.5-3.2,0.6-4.1,0.5c0.5,6.9-2.8,4.8-4.4,3.5
					l-0.7,0.3c-2.2,4.1-4.9,0.1-5.6-1.2l-0.1,1c-3.6,1.8-3.4-2.1-3.1-4.2c-0.4,0.6-1.3,1.3-3.8,1.2c-4.7-0.1,9-22.4,9-22.4"/>
				<g id="XMLID_26036_">
					<g id="XMLID_26038_">
						<path id="XMLID_26042_" class="st2" d="M154.5,280.6c0,0-13.7,22.3-9,22.4s3.9-2.2,4-2.4c0,0-2,7.8,2.8,5.4"/>
						<path id="XMLID_26041_" class="st2" d="M152.2,304.6c0,0,3.4,6.7,6,1.4"/>
						<path id="XMLID_26040_" class="st2" d="M164.8,283c0,0,11.9,16.5,2.4,18.9s-4.8-4.2-2-4"/>
						<path id="XMLID_26039_" class="st2" d="M157.9,305.2c0,0,6.3,6.6,5.2-3.5l-0.3-5.1"/>
					</g>
					<path id="XMLID_26037_" class="st2" d="M156.1,280c0,0-6.4-6.5,0-7"/>
				</g>
				<path id="XMLID_26035_" class="st0" d="M158.5,296.2c0,0,0.3,3.1-0.3,4.8"/>
				<path id="XMLID_26034_" class="st0" d="M153.4,300c0,0-0.1,2.2-0.5,2.3"/>
				<path id="XMLID_26033_" class="st2" d="M152.9,291c-0.4,1.4-2.3,4.4-2.3,4.4"/>
			</g>
			<g id="XMLID_26030_">
				<path id="XMLID_26031_" class="st0" d="M157.1,213.1c-3.9-3.2-7.2,4.5-1.4,5.3"/>
			</g>
			<path id="XMLID_26029_" class="st0" d="M159,213.2c0,0-1.5,0.1-1.5,1.3"/>
			<path id="XMLID_26028_" class="st0" d="M159.5,217.3c0,0,1.7-0.6,1.8-1"/>
		</g>
		<g>
			<path id="XMLID_26027_" class="st0" d="M262.8,157.3c-1,22.2-1.9,49.6-2.7,63.7c-1.3,25.7,0.7,63.5,0.7,63.5l-10.8-0.9
				c0,0,2.2-66.7,0-80.7c-1.6-10,1.2-47.2,2.1-68.9"/>
			<g id="XMLID_26025_">
				<path id="XMLID_26026_" class="st0" d="M250,282.2c-4.4,4.6-5.8,6.1-8.1,12.2c-2.4,6,6.3-8.6,5.8-6.4
					c-0.5,2.1-8.7,43.8-1.9,18.2c6.7-25.6,4.1-9.3,4.1-9.3c0,35.2,2.8,7,3.7,2.6c0.8-4.4,6.6,23.4,5.6,9.7c-1.1-13.8,0-14.9,2.3-3.5
					c2.3,11.5,1.1-15.5,1.1-15.5s-0.5-8.4-2.6-7.7"/>
			</g>
			<path id="XMLID_26024_" class="st2" d="M258.5,274.8c0,0,8.7,5.9,0,6.3"/>
			<g id="XMLID_26022_">
				<path id="XMLID_26023_" class="st0" d="M259.3,218.1c4.9,1.4,4.7-7-0.8-5.4"/>
			</g>
			<path id="XMLID_26021_" class="st0" d="M256.1,213c0,0-1.8,0.4-1.9,0.8"/>
			<path id="XMLID_26020_" class="st0" d="M256.4,217.3c0,0,1.4,0.3,1.7-0.9"/>
		</g>
		<path class="st0" d="M236.2,254.1c0,4.8-0.2,7.1-0.7,7.7c-1.9,16.5,0.2,79.3,0.2,79.3l-10.8,0.9c0,0,2-37.8,0.7-63.5
			c-0.3-5.9-0.6-14-1-23.2"/>
		<path class="st0" d="M179.9,256.2c0,3.4,0.3,5.1,0.7,5.6c1.9,16.5-0.2,79.3-0.2,79.3l10.8,0.9c0,0-2-37.8-0.7-63.5
			c0.3-5.7,0.6-13.6,1-22.4"/>
		<path class="st0" d="M242.6,235.6l-70.9-2.6c0,0,0.4,18.8,0.8,26c0,0.7,0.1,1.3,0.2,2c0,0.2,0.1,0.4,0.1,0.6l0,0
			c2,10.9,14.4,20.5,34,20.8c32,0.5,32.9-9.2,32.9-9.2c1.6-2.9,2.5-5.7,2.8-8.3c0.1,0,0.2,0,0.2,0S243.8,241.3,242.6,235.6z"/>
		<path class="st0" d="M161.3,137.6c0,0,1-4.9,46.8-7.1s64.9,9.5,36,18.7S139.2,153.5,161.3,137.6z"/>
		<path id="XMLID_26019_" class="st0" d="M169.3,150.7c1.3,2.8-4.7,38.6-4.6,41.7c0,3.1-1.2,3.4-9.9,2.6c-8.7-0.8-1.4-57.8,2.4-62.8
			c1.4-1.9,7.2-3.5,13.7-4.8c0,0,34.2-5.3,77.2-1.3c6,0.6,10.7,3.3,11.9,5.1c3.5,5.2,7.8,62.6-0.9,62.9c-8.7,0.3-10,0-9.8-3.2
			s-3.8-39.1-2.4-41.9"/>
		<path class="st0" d="M235.6,340.3l-5.4-0.5l-5.4,0.5c0,0.3-0.1,0.5-0.1,0.7c0,1.4,0,2.5-0.1,3.1c0,0.1,0,0.3,0,0.4
			c0,0.2,0,0.3,0,0.3s0,0,0.1,0c-1.1,4.4-2.9,7.3-3.5,9.4c-0.1,0.2-0.1,0.5-0.2,0.7c0,0.2-0.1,0.4-0.1,0.6c0,0.4,0,0.8,0.2,1.1
			c0.1,0.4,0.4,0.7,0.7,1c0.2,0.2,0.4,0.3,0.6,0.5c1.4,1,4.2,1.5,7.9,1.8c3.6-0.3,6.5-0.8,7.9-1.8c0.2-0.2,0.4-0.3,0.6-0.5
			c0.3-0.3,0.6-0.7,0.7-1c0.1-0.4,0.2-0.7,0.2-1.1c0-0.2,0-0.4-0.1-0.6c0-0.2-0.1-0.4-0.2-0.7c-0.7-2.1-2.4-5-3.5-9.4
			c0.1,0,0.1,0,0.1,0s0-0.1,0-0.3c0-0.1,0-0.2,0-0.4c0-0.6,0-1.7-0.1-3.1C235.7,340.8,235.6,340.6,235.6,340.3z"/>
		<path class="st0" d="M191.2,340.3l-5.4-0.5l-5.4,0.5c0,0.3-0.1,0.5-0.1,0.7c0,1.4,0,2.5-0.1,3.1c0,0.1,0,0.3,0,0.4
			c0,0.2,0,0.3,0,0.3s0,0,0.1,0c-1.1,4.4-2.9,7.3-3.5,9.4c-0.1,0.2-0.1,0.5-0.2,0.7c0,0.2-0.1,0.4-0.1,0.6c0,0.4,0,0.8,0.2,1.1
			c0.1,0.4,0.4,0.7,0.7,1c0.2,0.2,0.4,0.3,0.6,0.5c1.4,1,4.2,1.5,7.9,1.8c3.6-0.3,6.5-0.8,7.9-1.8c0.2-0.2,0.4-0.3,0.6-0.5
			c0.3-0.3,0.6-0.7,0.7-1c0.1-0.4,0.2-0.7,0.2-1.1c0-0.2,0-0.4-0.1-0.6c0-0.2-0.1-0.4-0.2-0.7c-0.7-2.1-2.4-5-3.5-9.4
			c0.1,0,0.1,0,0.1,0s0-0.1,0-0.3c0-0.1,0-0.2,0-0.4c0-0.6,0-1.7-0.1-3.1C191.2,340.8,191.2,340.6,191.2,340.3z"/>
		<g>
			<path class="st1" d="M249.7,145.6c0,0-4.1,73.6-3.1,83.5s3.8,31-7.7,26.7c-11.4-4.3-64.5-4.3-64.5-4.3c-10.2,3.6-7.8-18.6-6.8-27
				s-0.7-75.8-0.7-75.8"/>
			<path class="st0" d="M174.6,251.5c-10.2,3.6-7.8-18.6-6.8-27s-0.7-75.8-0.7-75.8"/>
			<path class="st0" d="M231.7,254.1c-13.4-1.9-37.6-2.5-49.7-2.6"/>
			<path class="st0" d="M249.9,145.6c0,0-4.1,73.6-3.1,83.5s3.8,31-7.7,26.7c-0.7-0.3-1.5-0.5-2.5-0.7"/>
		</g>
		<path id="XMLID_26018_" class="st0" d="M227.9,256.3c0,0,0.8-1.2,1.8-0.7"/>
		<path id="XMLID_26017_" class="st0" d="M232.2,265.9c0,0-1.7-0.6-1.8-1"/>
		<path id="XMLID_26016_" class="st0" d="M186.9,256.2c0,0,1.5,0.1,1.5,1.3"/>
		<path id="XMLID_26015_" class="st0" d="M184.6,266.9c0,0-1.7-0.6-1.8-1"/>
		<path id="XMLID_26014_" class="st0" d="M242.3,176.9c0,0-5.6,59.7-3.3,68.5"/>
		<path id="XMLID_26013_" class="st0" d="M174.2,208.7c0,0,1.8-60-1.1-68.6"/>
		<g id="XMLID_26011_">
			<path id="XMLID_26012_" class="st0" d="M182.2,343.6c-3.9,3.2-7.2-4.5-1.4-5.3"/>
		</g>
		<g id="XMLID_26009_">
			<path id="XMLID_26010_" class="st0" d="M233.9,339.1c3.9-3.2,7.2,4.5,1.4,5.3"/>
		</g>
		<g>
			<g>
				<g id="XMLID_26000_">
					<g id="XMLID_26001_">
						<path id="XMLID_26008_" class="st0" d="M204.2,27.9c0,0,33.5,2.4,28.8,42s-3.4,46.8-22.3,50.8s-29.3-9.8-31.3-20.3
							S162.2,33.2,204.2,27.9z"/>
						<g>
							<path id="XMLID_26007_" class="st0" d="M231.9,73.6c0,0,4.9-6.4,5.7-3.1"/>
							<path id="XMLID_26006_" class="st0" d="M229.9,78.1c0,0,6.5-1.1,5.3,2.5s-3.7,5.9-4.5,1.7"/>
							<path id="XMLID_26005_" class="st0" d="M228.4,72.5c0,0,12.4-13.8,11.7-2.3s-4.9,23.7-8.9,21.8c-4-1.9-3.7-5.3-3.7-5.3"/>
						</g>
						<g>
							<path id="XMLID_26004_" class="st0" d="M177.8,73.6c0,0-4.9-6.4-5.7-3.1"/>
							<path id="XMLID_26003_" class="st0" d="M179.9,78.1c0,0-6.5-1.1-5.3,2.5s3.7,5.9,4.5,1.7"/>
							<path id="XMLID_26002_" class="st0" d="M181.4,72.5c0,0-12.4-13.8-11.7-2.3s4.9,23.7,8.9,21.8c4-1.9,3.7-5.3,3.7-5.3"/>
						</g>
					</g>
					<g>
						<path class="st1" d="M216,135.9c-1.9-4.4,2.6-35,2.6-35h-29.8c0,0,6.5,30.9,5.5,34.2L216,135.9z"/>
						<path class="st3" d="M188.8,100.9c0,0,6.5,30.9,5.5,34.2"/>
						<path class="st3" d="M218.6,100.9c0,0-4.4,30.6-2.6,35"/>
					</g>
				</g>
				<g>
					<path id="XMLID_25999_" class="st0" d="M204.5,18.5c0,0-4.2,3.7,1,5.4C210.8,25.6,209.1,16.6,204.5,18.5z"/>
					<g>
						<path class="st0" d="M206.9,22.2c-6-1.8-34.9-8.8-29,24.6l52.7,1.8C235.9,18.7,216.7,19.9,206.9,22.2z"/>
						<path class="st0" d="M208,22.6c0,0-36.7-13-30.1,24.2"/>
						<path class="st0" d="M230.5,48.6c7.1-39.5-29-24.7-29-24.7"/>
					</g>
				</g>
				<path id="XMLID_25998_" class="st0" d="M186.6,36.8c0,0-29.1,16.4,19.6,18.3S222.5,26.6,186.6,36.8z"/>
			</g>
		</g>
	</g>
	<path id="XMLID_25997_" class="st3" d="M191.4,129.2c5.7,5.3,16.7,12,28.4-0.6"/>
</g>
<g>
	<g>
		<path class="st0" d="M236.2,283.3c0,0-1.2,17-1.1,30.1c0,1.5,0.1,3,0.1,4.3l0,0c0.1,3.2,0,4.6-0.3,5c-0.9,7.6,0.1,36.5,0.1,36.5
			l-5.4,0.4c0,0,1-17.4,0.4-29.2c-0.7-11.8-1.6-43.5-2.7-45.1"/>
		<path class="st0" d="M252.1,282.4c0,0-1.2,17-1.1,30.1c0,1.5,0.1,3,0.1,4.3l0,0c0.1,3.2,0,4.6-0.3,5c-0.9,7.6,0.1,36.5,0.1,36.5
			l-5.4,0.4c0,0,1-17.4,0.4-29.2c-0.7-11.8-1.6-43.5-2.7-45.1"/>
		<path class="st0" d="M184.2,282.4c0,0,1.2,17,1.1,30.1c0,1.5-0.1,3-0.1,4.3l0,0c-0.1,3.2,0,4.6,0.3,5c0.9,7.6-0.1,36.5-0.1,36.5
			l5.4,0.4c0,0-1-17.4-0.4-29.2c0.7-11.8,1.6-43.5,2.7-45.1"/>
		<path class="st0" d="M168.3,281.4c0,0,1.2,17,1.1,30.1c0,1.5-0.1,3-0.1,4.3l0,0c-0.1,3.2,0,4.6,0.3,5c0.9,7.6-0.1,36.5-0.1,36.5
			l5.4,0.4c0,0-1-17.4-0.4-29.2c0.7-11.8,1.6-43.5,2.7-45.1"/>
		<path class="st0" d="M251.9,292.8c1.3-3.7,0-10.5,0-10.5s0.3-0.1-0.7-0.1c-0.1,0-0.1,0-0.2,0c-0.1,0-0.1,0-0.2,0
			c0,0-15.5-0.1-40.9-0.1s-40.9,0.1-40.9,0.1c-0.1,0-0.1,0-0.2,0c-0.1,0-0.1,0-0.2,0c-1,0-0.7,0.1-0.7,0.1s-1.3,6.9,0,10.5
			c0,0-0.3,0.1,0.7,0.1c0,0,0.3,0,0.7,0c0.1,0,0.1,0,0.2,0c12,0.1,26.7,0.1,40.3,0.1s28.3,0,40.3-0.1c0.1,0,0.2,0,0.2,0
			c0.5,0,0.7,0,0.7,0C252.2,292.9,251.9,292.8,251.9,292.8z"/>
		<path class="st0" d="M242,289.6c0,0,0.3-51.4,0-127c0-1.5-0.1-1.1-0.1-1.1s-61.4-1.3-63.8,0c0,0-0.1-0.4-0.1,1.1
			c0,0-0.1,77.4,0,126.1"/>
	</g>
</g>
</svg>
