<?xml version="1.0" encoding="utf-8"?>
<!-- Generator: Adobe Illustrator 22.1.0, SVG Export Plug-In . SVG Version: 6.00 Build 0)  -->
<svg version="1.1" id="Layer_1" xmlns="http://www.w3.org/2000/svg" xmlns:xlink="http://www.w3.org/1999/xlink" x="0px" y="0px"
	 viewBox="0 0 1281.1 721.2" style="enable-background:new 0 0 1281.1 721.2;" xml:space="preserve">
<style type="text/css">
	.st0{fill:none;stroke:#5B5B4B;stroke-linecap:round;stroke-miterlimit:10;}
</style>
<g>
	<g id="XMLID_1862_">
		<g id="XMLID_1872_">
			
				<rect id="XMLID_1880_" x="595.5" y="-594.3" transform="matrix(2.835614e-10 1 -1 2.835614e-10 686.2103 -594.7902)" class="st0" width="90" height="1280"/>
			
				<rect id="XMLID_1879_" x="595.5" y="-504.3" transform="matrix(2.838847e-10 1 -1 2.838847e-10 776.2098 -504.7907)" class="st0" width="90" height="1280"/>
			
				<rect id="XMLID_1878_" x="595.5" y="-414.3" transform="matrix(2.837835e-10 1 -1 2.837835e-10 866.2094 -414.7911)" class="st0" width="90" height="1280"/>
			
				<rect id="XMLID_1877_" x="595.5" y="-324.3" transform="matrix(2.838847e-10 1 -1 2.838847e-10 956.2089 -324.7916)" class="st0" width="90" height="1280"/>
			
				<rect id="XMLID_1876_" x="595.5" y="-234.3" transform="matrix(2.836822e-10 1 -1 2.836822e-10 1046.2085 -234.792)" class="st0" width="90" height="1280"/>
			
				<rect id="XMLID_1875_" x="595.5" y="-144.3" transform="matrix(2.838847e-10 1 -1 2.838847e-10 1136.208 -144.7925)" class="st0" width="90" height="1280"/>
			
				<rect id="XMLID_1874_" x="595.5" y="-54.3" transform="matrix(2.836627e-10 1 -1 2.836627e-10 1226.2075 -54.7929)" class="st0" width="90" height="1280"/>
			
				<rect id="XMLID_1873_" x="595.5" y="35.7" transform="matrix(2.839051e-10 1 -1 2.839051e-10 1316.207 35.2066)" class="st0" width="90" height="1280"/>
		</g>
		<g id="XMLID_1863_">
			<rect id="XMLID_1871_" x="0.5" y="0.7" class="st0" width="160" height="720"/>
			<rect id="XMLID_1870_" x="160.5" y="0.7" class="st0" width="160" height="720"/>
			<rect id="XMLID_1869_" x="320.5" y="0.7" class="st0" width="160" height="720"/>
			<rect id="XMLID_1868_" x="480.5" y="0.7" class="st0" width="160" height="720"/>
			<rect id="XMLID_1867_" x="640.5" y="0.7" class="st0" width="160" height="720"/>
			<rect id="XMLID_1866_" x="800.5" y="0.7" class="st0" width="160" height="720"/>
			<rect id="XMLID_1865_" x="960.5" y="0.7" class="st0" width="160" height="720"/>
			<rect id="XMLID_1864_" x="1120.5" y="0.7" class="st0" width="160" height="720"/>
		</g>
	</g>
</g>
</svg>
