<?xml version="1.0" encoding="utf-8"?>
<!-- Generator: Adobe Illustrator 22.1.0, SVG Export Plug-In . SVG Version: 6.00 Build 0)  -->
<svg version="1.1" id="Layer_1" xmlns="http://www.w3.org/2000/svg" xmlns:xlink="http://www.w3.org/1999/xlink" x="0px" y="0px"
	 viewBox="0 0 129 456.6" style="enable-background:new 0 0 129 456.6;" xml:space="preserve">
<style type="text/css">
	.st0{fill:#FDF5EA;stroke:#5B5B4B;stroke-linecap:round;stroke-miterlimit:10;}
	.st1{fill:#FDF5EA;stroke:#5B5B4B;stroke-linecap:round;stroke-linejoin:round;stroke-miterlimit:10;}
	.st2{fill:#FDF5EA;}
	.st3{fill:none;stroke:#5B5B4B;stroke-linecap:round;stroke-miterlimit:10;}
</style>
<g>
	<path class="st0" d="M38.9,22.8c0,0-1.6-6,4.5-7c6.1-1,18.3-0.9,20.3,16.9c0,0-0.3-0.4-1-1c-1.3-1.3-4.1-3.7-8.1-6
		c-1.4-0.7-2.8-1.2-4.3-1.4c-4.5-0.2-7.8,3.2-7.8,3.2c-1-0.6-1.7-1.4-2.3-2.1C39.6,24.5,39,23.6,38.9,22.8z"/>
	<g>
		<g>
			<g id="XMLID_24458_">
				<path id="XMLID_24459_" class="st0" d="M111.4,215.1c5.2,1.4,5.1-7.5-0.8-5.8"/>
			</g>
			<path id="XMLID_24457_" class="st0" d="M114,174.4c-0.7,17-1.3,33.6-1.8,43.8c-1.4,27.5,0.8,67.9,0.8,67.9l-11.6-1
				c0,0,2.4-71.3,0-86.3c-0.7-4.2-0.6-12.9-0.2-23.3"/>
			<g id="XMLID_24455_">
				<path id="XMLID_24456_" class="st0" d="M101.4,283.7c-4.8,4.9-6.2,6.6-8.7,13s6.8-9.2,6.2-6.9s-9.3,46.9-2.1,19.5
					c7.2-27.4,4.4-9.9,4.4-9.9c0,37.6,3,7.5,3.9,2.8c0.9-4.7,7.1,25.1,6,10.3c-1.1-14.7,0-16,2.5-3.7c2.4,12.3,1.2-16.6,1.2-16.6
					s-0.6-9-2.8-8.3"/>
			</g>
			<path id="XMLID_24454_" class="st0" d="M108,209.6c0,0-1.9,0.4-2,0.8"/>
			<path id="XMLID_24453_" class="st0" d="M108.2,214.2c0,0,1.5,0.3,1.9-0.9"/>
			<path id="XMLID_24452_" class="st1" d="M110.5,275.8c0,0,9.3,6.3,0,6.7"/>
		</g>
		<path class="st0" d="M27.4,232.8l75.9-2.8c0,0-0.4,20.1-0.9,27.8c0,0.7-0.1,1.4-0.2,2.2c0,0.3-0.1,0.5-0.1,0.6c0,0,0,0,0,0
			c-2.1,11.7-15.4,21.9-36.3,22.2c-34.2,0.5-35.2-9.9-35.2-9.9c-1.7-3.1-2.6-6.1-3-8.9c-0.1,0-0.2,0-0.2,0S26.2,238.9,27.4,232.8z"
			/>
		<path id="XMLID_24451_" class="st0" d="M98.9,150.4c-1.5,2.9,2.8,41.5,2.6,44.8c-0.2,3.3,1.1,3.7,10.4,3.4
			c9.3-0.4,4.8-61.7,1-67.3c-1.3-2-6.6-3.9-12.8-5.5"/>
		<path class="st0" d="M23.6,216.1c0.1-0.5,0.1-1,0.2-1.5c0.6-4.1,1.1-7.1,1.3-8.1c0.9-4.3,2.6-46.3,3.7-63.2
			c0.1-2.1-5.6-18.1,8.9-21.3c6.6-1.4,15.3-2.1,25.7-1.7c0.1,0,0.2,0,0.3,0c2.1-0.1,4.4-0.1,6.8,0c6.3,0.3,14.3,0.4,20.8,2.9
			c9.2,2,9.5,4,9.5,4c3.5,3.4,2.3,10.9,2.4,12.1c0.1,2.1,0.1,4.4,0,7.1c-1,24.8-1,64.9,1.6,75.6c0.1,0.5,0.3,1,0.4,1.4
			c2.2,5.8,5,20.4,2.1,25.9c0,0.1-0.1,0.1-0.1,0.2c-1.1,1.9-3,2.5-6.1,0.9l-6.6-0.9l-54.2,2.8c-2.3,0.3-4.3,0.7-5.9,1.1
			C18.9,264.7,21.3,233.1,23.6,216.1z"/>
		<g id="XMLID_24449_">
			<path id="XMLID_24450_" class="st0" d="M86.4,353.1c5.2,1.4,5.1-7.5-0.8-5.8"/>
		</g>
		<path class="st0" d="M91.7,259.4c0,0-2.5,39.5-2.3,70c0.1,3.6,0.2,6.9,0.2,9.9c0,0,0,0,0,0.1c0.2,7.5-0.1,10.8-0.7,11.5
			c-2,17.6,0.2,84.9,0.2,84.9l-11.6,1c0,0,2.2-40.4,0.8-67.9c-1.4-27.5-3.4-101.1-5.8-104.9"/>
		<path id="XMLID_24448_" class="st0" d="M82,344.9c0,0-1.6,0.1-1.6,1.4"/>
		<path id="XMLID_24447_" class="st0" d="M84.5,356.2c0,0,1.8-0.6,2-1"/>
		<g>
			<g id="XMLID_24445_">
				<path id="XMLID_24446_" class="st0" d="M83.4,449.6c0,0-6.1-0.6-3.9,4.3C81.7,458.9,88.5,453.1,83.4,449.6z"/>
			</g>
			<g id="XMLID_24443_">
				<path id="XMLID_24444_" class="st0" d="M94,451.2c0,0-4.6-0.4-2.9,3.2C92.7,458.1,97.9,453.8,94,451.2z"/>
			</g>
			<path id="XMLID_24442_" class="st0" d="M74.2,455.9c0,0,7.2,0.5,3.9-4.2s-9.3,0.1-9.8,2.1C67.9,455.8,74.2,455.9,74.2,455.9z"/>
			<g id="XMLID_24440_">
				<path id="XMLID_24441_" class="st0" d="M89.1,450.4c0,0-5.3-0.5-3.4,3.8S93.6,453.4,89.1,450.4z"/>
			</g>
			<g id="XMLID_24438_">
				<path id="XMLID_24439_" class="st0" d="M98.4,451.7c0,0-4.1-0.4-2.6,2.9C97.2,457.9,101.8,454,98.4,451.7z"/>
			</g>
		</g>
		<path class="st0" d="M77.5,434.8l5.8-0.5l5.8,0.5c0,0.3,0.1,0.5,0.1,0.7c0,1.5,0.1,2.7,0.1,3.3c0,0.2,0,0.3,0,0.4
			c0,0.2,0,0.3,0,0.3c0,0,0,0-0.1,0c1.2,4.7,3.1,7.8,3.8,10.1c0.1,0.3,0.1,0.5,0.2,0.7c0,0.2,0.1,0.5,0.1,0.7c0,0.4,0,0.8-0.2,1.2
			c-0.1,0.4-0.4,0.8-0.7,1.1c-0.2,0.2-0.4,0.4-0.6,0.5c-1.5,1.1-4.5,1.7-8.4,2c-3.9-0.3-6.9-0.9-8.4-2c-0.2-0.2-0.4-0.3-0.6-0.5
			c-0.4-0.4-0.6-0.7-0.7-1.1c-0.1-0.4-0.2-0.8-0.2-1.2c0-0.2,0-0.4,0.1-0.7c0-0.2,0.1-0.5,0.2-0.7c0.7-2.3,2.6-5.3,3.8-10.1
			c-0.1,0-0.1,0-0.1,0c0,0,0-0.1,0-0.3c0-0.1,0-0.2,0-0.4c0-0.7,0-1.8,0.1-3.3C77.4,435.3,77.4,435.1,77.5,434.8z"/>
		<g id="XMLID_24436_">
			<path id="XMLID_24437_" class="st0" d="M87.1,438.3c4.2,3.4,7.7-4.9,1.5-5.6"/>
		</g>
		<g id="XMLID_24395_">
			<g id="XMLID_24399_">
				<path id="XMLID_24435_" class="st0" d="M54,109.2c0,0-4.2,3.9,4.6,5.7s14.6-0.6,12.9-3.9"/>
				<g id="XMLID_24430_">
					<path id="XMLID_24434_" class="st0" d="M54.5,84.1c0,0-13.1,1.7-5.8,6.5S54.5,84.1,54.5,84.1z"/>
					<path id="XMLID_24433_" class="st0" d="M52.5,80.2c0,0-10.8-0.6-5.8,5c5,5.6,13.9-0.1,14.6-2.5C62,80.3,52.5,80.2,52.5,80.2z"
						/>
					<path id="XMLID_24432_" class="st0" d="M74.2,83c0,0-5.3-1.8-4.4,4.9s10,5.5,10.6,3.6C80.9,89.6,81.8,86.4,74.2,83z"/>
					<path id="XMLID_24431_" class="st0" d="M69.7,81.2c0,0-15.4-1.9-0.2,5.5S87.2,83.5,69.7,81.2z"/>
				</g>
				<g id="XMLID_24426_">
					<path id="XMLID_24429_" class="st0" d="M46,90.5c0,0,8,7.9,12.5,0"/>
					<path id="XMLID_24428_" class="st0" d="M47.8,89.2c0,0,2.2-2.3,3.9,0"/>
					<path id="XMLID_24427_" class="st0" d="M55.5,89.2c0,0-2.2-2.3-3.9,0"/>
				</g>
				<g>
					<path id="XMLID_24425_" class="st0" d="M46.1,35.7c0,0,24.4-2.4,15.6,17.3S25.6,49.5,46.1,35.7z"/>
					<path id="XMLID_24424_" class="st0" d="M43.8,49.3c0,0,3.7-1.5,3.3,2.3C46.7,55.4,41.3,52.6,43.8,49.3z"/>
					<path id="XMLID_24423_" class="st0" d="M73.3,38.5c0,0-17.9,15.8,4.4,23C100,68.6,92.8,30.4,73.3,38.5z"/>
					<path id="XMLID_24422_" class="st0" d="M85.7,51.5c0,0,3.7-1.5,3.3,2.3C88.6,57.6,83.2,54.8,85.7,51.5z"/>
					<path id="XMLID_24421_" class="st0" d="M74.8,35.3c0,0-8.2,1-2.3,6.7s17.2,0.2,16.6-1.9C88.4,38.1,87.3,34.7,74.8,35.3z"/>
					<path id="XMLID_24420_" class="st0" d="M50.8,31.8c0,0-12.7-0.7-6.8,6.3S60.3,38,61.1,35C61.9,32,50.8,31.8,50.8,31.8z"/>
					<g id="XMLID_24415_">
						<path id="XMLID_24419_" class="st0" d="M44.8,56.8c0,0-3.5,0.5-2,2.2c1.6,1.7,2.3-0.4,4.9,0.9"/>
						<path id="XMLID_24418_" class="st0" d="M88.6,58.3c0,0,3.5,0.5,2,2.2c-1.6,1.7-2.3-0.4-4.9,0.9"/>
						<path id="XMLID_24417_" class="st0" d="M84.7,58c0,0-8.2-0.6-13.1,0.7"/>
						<path id="XMLID_24416_" class="st0" d="M48.8,56c0,0,4.8-0.9,10.2,0.8"/>
					</g>
				</g>
				<path id="XMLID_24414_" class="st0" d="M73,2c0,0-4.5,3.9,1.1,5.7S77.9,0,73,2z"/>
				<path id="XMLID_24413_" class="st0" d="M83.8,48.8c0,0,0.7,1.4-0.4,2"/>
				<path id="XMLID_24412_" class="st0" d="M80,63.1c0,0-0.3,1.3-0.7,1.7"/>
				<path id="XMLID_24411_" class="st0" d="M80.4,38.2c0,0,0.5-2.4,0-2.4"/>
				<path id="XMLID_24410_" class="st0" d="M45.5,30.1c0,0,2.3,0.3,2,0.7"/>
				<path id="XMLID_24409_" class="st0" d="M59.3,34.3c0,0,2.6-0.4,2.8-0.9"/>
				<path id="XMLID_24408_" class="st0" d="M46.5,98.7c0,0,1.9,0.4,2,0.8"/>
				<path id="XMLID_24407_" class="st0" d="M62.4,99.6c0,0-1.7,0.8-2.2,1.7"/>
				<path id="XMLID_24406_" class="st0" d="M44.7,57.4"/>
				<path id="XMLID_24405_" class="st0" d="M57.2,58.9"/>
				<line id="XMLID_24404_" class="st0" x1="75.1" y1="72.9" x2="76.9" y2="72.4"/>
				<g>
					<path id="XMLID_24403_" class="st0" d="M92.3,64.1c0,0,13.3-14.8,12.5-2.4S99.6,87,95.4,85c-4.2-2-4-5.7-4-5.7"/>
				</g>
				<path id="XMLID_24402_" class="st0" d="M56.2,111.5c-9.4-4-14.7-13-16.2-20.5c-2.2-11.3-18.4-71.9,26.5-77.5
					c0,0,35.8,2.6,30.8,44.9c-5,42.3-3.6,50.1-23.9,54.4c-2.4,0.5-4.7,0.8-6.9,0.8"/>
				<g>
					<path id="XMLID_24401_" class="st0" d="M42.9,64.1c0,0-13.3-14.8-12.5-2.4S35.7,87,39.9,85c4.2-2,4-5.7,4-5.7"/>
				</g>
				<path id="XMLID_24400_" class="st0" d="M95.3,23.7c-0.2-1.4-0.8-3.2-2.2-5.4c0,0,0,0,0,0l0,0c-0.3-0.5-0.6-1-1-1.5
					C87.7,10.5,80.4,6.9,73.8,5c-28.3-11.5-31.2,12.8-31.3,22c0,0.9,53.1,8.7,53.1,8.7S96.7,27.9,95.3,23.7z"/>
			</g>
			<g>
				<g>
					<path class="st2" d="M54.5,131c2-4.7-2.7-37.4-2.7-37.4h31.9c0,0-7,33-5.9,36.6L54.5,131z"/>
					<path class="st3" d="M83.7,93.6c0,0-7,33-5.9,36.6"/>
					<path class="st3" d="M51.8,93.6c0,0,4.7,32.7,2.7,37.4"/>
				</g>
				<path id="XMLID_24398_" class="st0" d="M54.4,130.3c-0.6-0.2-1.1-0.7-1.7-1.5"/>
				<path id="XMLID_24397_" class="st3" d="M66.2,130.2c4.4,2.5,9.6,1.2,13.3-2.1"/>
				<path id="XMLID_24396_" class="st0" d="M79.8,132c-0.2,0.1-0.4,0.2-0.6,0.3"/>
			</g>
		</g>
		<g>
			<g>
				<g>
					<g id="XMLID_24393_">
						<path id="XMLID_24394_" class="st0" d="M44.1,451.8c0,0-4.1-0.4-2.6,2.9C42.9,458.1,47.5,454.2,44.1,451.8z"/>
					</g>
					<g id="XMLID_24391_">
						<path id="XMLID_24392_" class="st0" d="M41.7,451.4c0,0-4.6-0.4-2.9,3.2C40.4,458.3,45.6,453.9,41.7,451.4z"/>
					</g>
					<g id="XMLID_24386_">
						<path id="XMLID_24389_" class="st0" d="M38.8,450.6c0,0-5.3-0.5-3.4,3.8C37.3,458.7,43.3,453.6,38.8,450.6z"/>
					</g>
					<g id="XMLID_24384_">
						<path id="XMLID_24385_" class="st0" d="M35.1,449.8c0,0-6.1-0.6-3.9,4.3S40.2,453.2,35.1,449.8z"/>
					</g>
					<path id="XMLID_24383_" class="st0" d="M27.9,456c0,0,7.2,0.5,3.9-4.2s-9.3,0.1-9.8,2.1S27.9,456,27.9,456z"/>
				</g>
				<path class="st0" d="M62.4,448.7c-0.4-1.2-1-2.6-1.8-4.3c-0.7-1.6-1.4-3.5-2-5.8c0.1,0,0.1,0,0.1,0s0,0,0-0.1
					c0-0.4,0-2.1-0.1-4.7l-10.4-0.9l-0.6,0l-0.6,0c-0.1,0.7-0.1,1.3-0.2,1.6c0,0,0,0.1,0,0.1c-0.1,0.1-0.1,0.2-0.2,0.2
					c-0.2,0.3-0.4,0.5-0.4,0.5s-0.4,0.4-1.2,1.1c-1.3,7.3-6.4,11.7-12.4,14.2c0.1,0.6,0.3,1.2,0.9,1.7c0.2,0.2,0.4,0.4,0.6,0.5
					c0.8,0.6,2.1,1,3.7,1.3c1.2,0.2,2.6,0.4,4.2,0.6c1,0.1,2,0.2,3.1,0.2c0.8,0,1.7,0.1,2.5,0.1c0.9,0,1.7,0,2.5-0.1
					c1.1,0,2.1-0.1,3.1-0.2c1.6-0.1,3-0.3,4.2-0.6c1.6-0.3,2.9-0.8,3.7-1.3c0.2-0.2,0.4-0.3,0.6-0.5c0.7-0.7,1-1.5,0.9-2.3
					C62.6,449.6,62.5,449.2,62.4,448.7z"/>
			</g>
			<g id="XMLID_24379_">
				<path id="XMLID_24380_" class="st0" d="M50,347.2c-4.2-3.4-7.7,4.9-1.5,5.6"/>
			</g>
			<path class="st0" d="M61.3,257.6c0,0-2.5,39.5-2.3,70c0.1,3.6,0.2,6.9,0.2,9.9c0,0,0,0,0,0.1c0.2,7.5-0.1,10.8-0.7,11.5
				c-2,17.6,0.2,84.9,0.2,84.9l-11.6,1c0,0,2.2-40.4,0.8-67.9c-1.4-27.5-3.4-101.1-5.8-104.9"/>
			<path id="XMLID_24378_" class="st0" d="M55.1,344.4c0,0-0.9-1.3-2-0.7"/>
			<path id="XMLID_24377_" class="st0" d="M50.5,354.8c0,0,1.8-0.6,2-1"/>
			<g id="XMLID_23884_">
				<path id="XMLID_23885_" class="st0" d="M56.7,431.7c4.2-3.4,7.7,4.9,1.5,5.6"/>
			</g>
		</g>
		<g>
			<path id="XMLID_23883_" class="st0" d="M30.8,172.4c-0.7,17.4-1.3,34.4-1.9,44.8c-1.4,27.5,0.8,67.9,0.8,67.9l-11.6-1
				c0,0,2.4-71.3,0-86.3c-0.5-3.5-0.6-10.1-0.4-18.1"/>
			<path id="XMLID_23882_" class="st0" d="M24.3,208.9c0,0,1.6,0.1,1.6,1.4"/>
			<path id="XMLID_23881_" class="st0" d="M23.9,213.2c0,0-1.8-0.6-2-1"/>
			<g id="XMLID_858_">
				<path id="XMLID_23880_" class="st2" d="M15.5,303.8c2,0.5,3.4,0.6,4.3,0.5c-0.6,7.4,3,5.2,4.8,3.7l0.7,0.3
					c2.4,4.3,5.2,0.1,6-1.3l0.1,1.1c3.8,1.9,3.6-2.2,3.3-4.4c0.4,0.7,1.4,1.3,4,1.3c5-0.1-9.6-24-9.6-24l-11.1,2.6
					C18.1,283.5,5.4,301.2,15.5,303.8z"/>
				<path id="XMLID_23879_" class="st0" d="M18.1,283.5c0,0-12.7,17.7-2.6,20.3c2,0.5,3.4,0.6,4.3,0.5c-0.6,7.4,3,5.2,4.8,3.7
					l0.7,0.3c2.4,4.3,5.2,0.1,6-1.3l0.1,1.1c3.8,1.9,3.6-2.2,3.3-4.4c0.4,0.7,1.4,1.3,4,1.3c5-0.1-9.6-24-9.6-24"/>
				<g id="XMLID_862_">
					<g id="XMLID_864_">
						<path id="XMLID_23878_" class="st1" d="M29.2,280.9c0,0,14.6,23.9,9.6,24s-4.1-2.4-4.3-2.6c0,0,2.1,8.4-3,5.7"/>
						<path id="XMLID_12712_" class="st1" d="M31.6,306.6c0,0-3.6,7.2-6.4,1.5"/>
						<path id="XMLID_1077_" class="st1" d="M18.1,283.5c0,0-12.7,17.7-2.6,20.3s5.1-4.5,2.2-4.3"/>
						<path id="XMLID_865_" class="st1" d="M25.5,307.2c0,0-6.7,7.1-5.6-3.7l0.4-5.4"/>
					</g>
					<path id="XMLID_863_" class="st1" d="M27.4,280.3c0,0,6.8-6.9,0-7.4"/>
				</g>
				<path id="XMLID_861_" class="st0" d="M24.9,297.6c0,0-0.3,3.3,0.3,5.1"/>
				<path id="XMLID_860_" class="st0" d="M30.3,301.6c0,0,0.1,2.4,0.6,2.4"/>
				<path id="XMLID_859_" class="st1" d="M30.9,292c0.5,1.5,2.5,4.8,2.5,4.8"/>
			</g>
			<g id="XMLID_856_">
				<path id="XMLID_857_" class="st0" d="M26.4,208.7c4.2-3.4,7.7,4.9,1.5,5.6"/>
			</g>
		</g>
		<path id="XMLID_855_" class="st0" d="M37.7,122.6c-7,1.4-13.1,3.1-14.6,5.1c-4.1,5.4-11.9,66.4-2.6,67.2s10.6,0.5,10.6-2.8
			c0-3.3,6.3-41.6,5-44.6"/>
		<path id="XMLID_854_" class="st0" d="M46.5,174.5c0,0,5.9,63.9,3.5,73.3"/>
		<path id="XMLID_853_" class="st0" d="M93.6,215c0,0-1.9-64.1,1.2-73.4"/>
	</g>
	<path class="st1" d="M95.9,35.6c0,0-2,18.7-53.1-8.7C42.8,27,86.1,23.7,95.9,35.6z"/>
</g>
</svg>
