<?xml version="1.0" encoding="utf-8"?>
<!-- Generator: Adobe Illustrator 22.1.0, SVG Export Plug-In . SVG Version: 6.00 Build 0)  -->
<svg version="1.1" id="Layer_1" xmlns="http://www.w3.org/2000/svg" xmlns:xlink="http://www.w3.org/1999/xlink" x="0px" y="0px"
	 viewBox="0 0 233.4 222.8" style="enable-background:new 0 0 233.4 222.8;" xml:space="preserve">
<style type="text/css">
	.st0{fill:#FDF5EA;stroke:#5B5B4B;stroke-linecap:round;stroke-miterlimit:10;}
</style>
<g>
	<g id="XMLID_482_">
		<path id="XMLID_485_" class="st0" d="M104.2,84.5c0,0-28.9,11.4-4.8,30S131.7,83.3,104.2,84.5z"/>
	</g>
</g>
<g>
	<path id="XMLID_411_" class="st0" d="M0.7,106.5c0,0-0.8,0.4,1.9,0.5c87.9,0.5,227.9,0,227.9,0c2.7-0.1,1.9-0.5,1.9-0.5
		c3.6-14.1-14.2-40.9-20.2-41C123,64.9,54.7,65.2,22.1,65.4C8.4,65.5-1.1,88.2,0.7,106.5z"/>
	<path id="XMLID_412_" class="st0" d="M25.1,0.7c0,0,4.3-6.5,2.7,47.9S21.5,38.7,25.1,0.7z"/>
	<path id="XMLID_413_" class="st0" d="M207.1,0.7c0,0,4.3-6.5,2.7,47.9C208.2,103.2,203.5,38.7,207.1,0.7z"/>
</g>
</svg>
