<?xml version="1.0" encoding="utf-8"?>
<!-- Generator: Adobe Illustrator 22.1.0, SVG Export Plug-In . SVG Version: 6.00 Build 0)  -->
<svg version="1.1" id="Layer_1" xmlns="http://www.w3.org/2000/svg" xmlns:xlink="http://www.w3.org/1999/xlink" x="0px" y="0px"
	 viewBox="0 0 483.3 361" style="enable-background:new 0 0 483.3 361;" xml:space="preserve">
<style type="text/css">
	.st0{fill:#FDF5EA;stroke:#5B5B4B;stroke-linecap:round;stroke-miterlimit:10;}
</style>
<g>
	<path class="st0" d="M357.7,147.4V171c0,0,0,4.7,1.1,5.7c1.1,0.9,28,0,28.8,0c0.7,0,1.8,0,1.8-3.8c0-2.8-0.8-18.4-1.2-25.9"/>
	<path id="XMLID_330_" class="st0" d="M264.7,157.2c0,0-0.8,1.7,1.8,1.8c82.2,2,213.1-0.1,213.1-0.1c2.5-0.2,1.8-1.8,1.8-1.8
		c3.3-53.5,0-153,0-153s0.8-1.7-1.8-1.8C351.8-1.7,265,2.2,265,2.2c-2.5,0.2-1.8,1.8-1.8,1.8S263,87.9,264.7,157.2z"/>
	<path id="XMLID_329_" class="st0" d="M271.5,17.7c0,0-1-5.7,4.1-5.9c0,0,87.3-6.7,194.7,0.1c5,0.3,4.1,5.9,4.1,5.9
		s0.9,73.9-1.8,125.5c0,0,1,5.7-4.1,5.9c0,0-83.2,4.6-191.2,0.1c-5-0.2-4.1-5.9-4.1-5.9L271.5,17.7z"/>
	<path id="XMLID_328_" class="st0" d="M287,20.2c-4.2-0.4-6.2,4.2-6.2,4.2s-0.1,108,1.9,112.4c0,0,2,4.4,6.2,4.2
		c0,0,153.7,1.8,167.4-0.1c4.2-0.6,6.2-4.2,6.2-4.2s3-99.6,1.9-112.2c0,0-2-4.4-6.2-4.2C458.2,20.3,291.8,20.6,287,20.2z"/>
	<path id="XMLID_327_" class="st0" d="M288.2,32.9c0.8,2.3,1.3,4.1,1.6,5.5c0.6,2.7,2.7,3.1,4,1.9c2-1.9,1.8-4.2,1.2-6.2
		c-0.3-1.3,0.7-2.4,2-3.1c1-0.5,3.6-1.4,0.8-2.1c-1.5-0.4-3.4-0.7-5.1-0.8C289.6,28.1,286.9,29.1,288.2,32.9z"/>
</g>
</svg>
