<?xml version="1.0" encoding="utf-8"?>
<!-- Generator: Adobe Illustrator 22.1.0, SVG Export Plug-In . SVG Version: 6.00 Build 0)  -->
<svg version="1.1" id="Layer_1" xmlns="http://www.w3.org/2000/svg" xmlns:xlink="http://www.w3.org/1999/xlink" x="0px" y="0px"
	 viewBox="0 0 96 96" style="enable-background:new 0 0 96 96;" xml:space="preserve">
<style type="text/css">
	.st0{fill:#FDF5EA;stroke:#5B5B4B;stroke-linecap:round;stroke-miterlimit:10;}
</style>
<g>
	<path id="XMLID_445_" class="st0" d="M57,81.7c0.1-1.9-0.6-7.2-0.8-8.9c-0.1-1.6-0.3-2.9-0.7-4c6-10.4-10.9-22.2-16.8-8.8
		c-1.8,4.2-1.5,12.3-1.5,13.6c0,1.7,0.2,7.8,0.2,9.3c0.1,8.6,13,15.4,17.9,4"/>
	<g id="XMLID_434_">
		<g id="XMLID_435_">
			<path id="XMLID_444_" class="st0" d="M46.3,3c0,0,27.8,1.8,24.3,34.6c-3.5,32.9-2.5,38.9-18.1,42.5C36.7,83.6,28,72.2,26.2,63.4
				S11.3,7.6,46.3,3z"/>
			<path id="XMLID_443_" class="st0" d="M40.3,78c0,0-3,3.3,4,4.1s11.3-1.6,9.7-4.1"/>
			<path id="XMLID_442_" class="st0" d="M68.3,41.2c0,0,10.2-11.6,9.8-2c-0.4,9.7-3.9,19.7-7.2,18.2c-3.3-1.6-3-4.5-3-4.5"/>
			<path id="XMLID_441_" class="st0" d="M71.3,42.1c0,0,4.1-5.3,4.8-2.5"/>
			<path id="XMLID_440_" class="st0" d="M69.6,46c0,0,5.4-0.9,4.4,2.1c-1,3-3,4.9-3.7,1.5"/>
			<g id="XMLID_436_">
				<path id="XMLID_439_" class="st0" d="M25.4,42.9c0,0-9.4-12.2-9.5-2.5c-0.1,9.7,2.6,20,6,18.6s3.4-4.1,3.4-4.1"/>
				<path id="XMLID_438_" class="st0" d="M22.3,43.6c0,0-3.6-5.7-4.5-2.9"/>
				<path id="XMLID_437_" class="st0" d="M23.7,47.4c0,0-5.3-1.5-4.5,1.7c0.8,3,2.6,5.2,3.6,1.7"/>
			</g>
		</g>
	</g>
</g>
</svg>
