<?xml version="1.0" encoding="utf-8"?>
<!-- Generator: Adobe Illustrator 22.1.0, SVG Export Plug-In . SVG Version: 6.00 Build 0)  -->
<svg version="1.1" id="Layer_1" xmlns="http://www.w3.org/2000/svg" xmlns:xlink="http://www.w3.org/1999/xlink" x="0px" y="0px"
	 viewBox="0 0 432 171.4" style="enable-background:new 0 0 432 171.4;" xml:space="preserve">
<style type="text/css">
	.st0{fill:#FDF5EA;stroke:#5B5B4B;stroke-linecap:round;stroke-miterlimit:10;}
</style>
<g>
	<path class="st0" d="M430.1,4.3c0,0,0.8-1.8-1.8-1.9C304-1.8,2.4,2.3,2.4,2.3c-2.6,0.2-1.8,1.9-1.8,1.9S0.4,93.9,2.1,168
		c0,0-0.8,1.8,1.8,1.9c75.1,2,210.8,0,211,0c82.3,2.2,213.3-0.1,213.3-0.1c2.6-0.2,1.8-1.9,1.8-1.9C433.4,110.7,430.1,4.3,430.1,4.3
		z"/>
	<path id="XMLID_2765_" class="st0" d="M9,18.9c0,0-2-6.1,8.2-6.3c0,0,177.4-7.1,395.7,0.1c10.2,0.3,8.2,6.3,8.2,6.3
		s1.9,79-3.6,134.2c0,0,2,6.1-8.2,6.3c0,0-169.1,4.9-388.4,0.1c-10.2-0.2-8.2-6.3-8.2-6.3L9,18.9z"/>
</g>
<path id="XMLID_2763_" class="st0" d="M70.3,152.5c0,0-73.2-33.5-37.5-98.8s90.8-30.3,96.6-23.8c5.8,6.5,53.7,63.1,15.9,92.3
	S86.2,156.9,70.3,152.5z"/>
<path id="XMLID_2764_" class="st0" d="M80,118.7c0,0-36.6-16.8-18.7-49.4s45.4-15.1,48.3-11.9c2.9,3.2,26.9,31.5,7.9,46.1
	S87.9,120.8,80,118.7z"/>
<g>
	<g>
		<path id="XMLID_2768_" class="st0" d="M219.9,18.1c0,0,6.9-2.5,8.8,3.9s-3.9,7.8-4.7,7.7c-0.8,0-7.5-0.6-6.9-4.9
			S218.6,18.8,219.9,18.1z"/>
		<path id="XMLID_2767_" class="st0" d="M221.5,20.9c0,0,3.4-1.3,4.4,2s-1.9,3.9-2.3,3.9c-0.4,0-3.8-0.3-3.5-2.5
			S220.8,21.2,221.5,20.9z"/>
	</g>
	<g>
		<path id="XMLID_2770_" class="st0" d="M201.7,18.1c0,0,6.9-2.5,8.8,3.9c1.9,6.5-3.9,7.8-4.7,7.7c-0.8,0-7.5-0.6-7-4.9
			S200.4,18.8,201.7,18.1z"/>
		<path id="XMLID_2769_" class="st0" d="M203.3,20.9c0,0,3.4-1.3,4.4,2s-1.9,3.9-2.3,3.9s-3.8-0.3-3.5-2.5S202.6,21.2,203.3,20.9z"
			/>
	</g>
	<g>
		<path id="XMLID_2774_" class="st0" d="M183.5,18.1c0,0,6.9-2.5,8.8,3.9c1.9,6.5-3.9,7.8-4.7,7.7c-0.8,0-7.5-0.6-6.9-4.9
			S182.2,18.8,183.5,18.1z"/>
		<path id="XMLID_2773_" class="st0" d="M185.1,20.9c0,0,3.4-1.3,4.4,2c0.9,3.2-1.9,3.9-2.3,3.9c-0.4,0-3.8-0.3-3.5-2.5
			S184.5,21.2,185.1,20.9z"/>
	</g>
	<g>
		<path id="XMLID_2772_" class="st0" d="M165.4,18.1c0,0,6.9-2.5,8.8,3.9c1.9,6.5-3.9,7.8-4.7,7.7c-0.8,0-7.5-0.6-6.9-4.9
			S164.1,18.8,165.4,18.1z"/>
		<path id="XMLID_2771_" class="st0" d="M166.9,20.9c0,0,3.4-1.3,4.4,2s-1.9,3.9-2.3,3.9c-0.4,0-3.8-0.3-3.5-2.5
			S166.3,21.2,166.9,20.9z"/>
	</g>
</g>
<path id="XMLID_2775_" class="st0" d="M281.2,106.6c0,0,33.5,73.2,98.8,37.5s30.3-90.8,23.8-96.6c-6.5-5.8-63.1-53.7-92.3-15.9
	C282.3,69.5,276.9,90.8,281.2,106.6z"/>
<path id="XMLID_2766_" class="st0" d="M315.1,97c0,0,16.8,36.6,49.4,18.7s15.1-45.4,11.9-48.3c-3.2-2.9-31.5-26.9-46.1-7.9
	C315.7,78.4,312.9,89.1,315.1,97z"/>
<g>
	<g>
		<path id="XMLID_2783_" class="st0" d="M220.6,37c0,0,6.9-2.5,8.8,3.9c1.9,6.5-3.9,7.8-4.7,7.7c-0.8,0-7.5-0.6-7-4.9
			S219.3,37.7,220.6,37z"/>
		<path id="XMLID_2782_" class="st0" d="M222.2,39.8c0,0,3.4-1.3,4.4,2c0.9,3.2-1.9,3.9-2.3,3.9s-3.8-0.3-3.5-2.5
			S221.5,40.1,222.2,39.8z"/>
	</g>
	<g>
		<path id="XMLID_2781_" class="st0" d="M202.4,37c0,0,6.9-2.5,8.8,3.9c1.9,6.5-3.9,7.8-4.7,7.7c-0.8,0-7.5-0.6-6.9-4.9
			S201.2,37.7,202.4,37z"/>
		<path id="XMLID_2780_" class="st0" d="M204,39.8c0,0,3.4-1.3,4.4,2c0.9,3.2-1.9,3.9-2.3,3.9c-0.4,0-3.8-0.3-3.5-2.5
			S203.4,40.1,204,39.8z"/>
	</g>
	<g>
		<path id="XMLID_2779_" class="st0" d="M184.3,37c0,0,6.9-2.5,8.8,3.9c1.9,6.5-3.9,7.8-4.7,7.7c-0.8,0-7.5-0.6-6.9-4.9
			S183,37.7,184.3,37z"/>
		<path id="XMLID_2778_" class="st0" d="M185.8,39.8c0,0,3.4-1.3,4.4,2c0.9,3.2-1.9,3.9-2.3,3.9c-0.4,0-3.8-0.3-3.5-2.5
			S185.2,40.1,185.8,39.8z"/>
	</g>
	<g>
		<path id="XMLID_2777_" class="st0" d="M166.1,37c0,0,6.9-2.5,8.8,3.9c1.9,6.5-3.9,7.8-4.7,7.7c-0.8,0-7.5-0.6-6.9-4.9
			S164.8,37.7,166.1,37z"/>
		<path id="XMLID_2776_" class="st0" d="M167.6,39.8c0,0,3.4-1.3,4.4,2c0.9,3.2-1.9,3.9-2.3,3.9s-3.8-0.3-3.5-2.5
			S167,40.1,167.6,39.8z"/>
	</g>
</g>
<g>
	<g>
		<path id="XMLID_2898_" class="st0" d="M220.6,55.9c0,0,6.9-2.5,8.8,3.9c1.9,6.5-3.9,7.8-4.7,7.7c-0.8,0-7.5-0.6-7-4.9
			S219.3,56.6,220.6,55.9z"/>
		<path id="XMLID_2897_" class="st0" d="M222.2,58.7c0,0,3.4-1.3,4.4,2c0.9,3.2-1.9,3.9-2.3,3.9c-0.4,0-3.8-0.3-3.5-2.5
			S221.5,59.1,222.2,58.7z"/>
	</g>
	<g>
		<path id="XMLID_2896_" class="st0" d="M202.4,55.9c0,0,6.9-2.5,8.8,3.9c1.9,6.5-3.9,7.8-4.7,7.7c-0.8,0-7.5-0.6-6.9-4.9
			S201.2,56.6,202.4,55.9z"/>
		<path id="XMLID_2895_" class="st0" d="M204,58.7c0,0,3.4-1.3,4.4,2c0.9,3.2-1.9,3.9-2.3,3.9c-0.4,0-3.8-0.3-3.5-2.5
			S203.4,59.1,204,58.7z"/>
	</g>
	<g>
		<path id="XMLID_2894_" class="st0" d="M184.3,55.9c0,0,6.9-2.5,8.8,3.9c1.9,6.5-3.9,7.8-4.7,7.7c-0.8,0-7.5-0.6-6.9-4.9
			S183,56.6,184.3,55.9z"/>
		<path id="XMLID_2893_" class="st0" d="M185.8,58.7c0,0,3.4-1.3,4.4,2c0.9,3.2-1.9,3.9-2.3,3.9c-0.4,0-3.8-0.3-3.5-2.5
			S185.2,59.1,185.8,58.7z"/>
	</g>
	<g>
		<path id="XMLID_2793_" class="st0" d="M166.1,55.9c0,0,6.9-2.5,8.8,3.9c1.9,6.5-3.9,7.8-4.7,7.7c-0.8,0-7.5-0.6-6.9-4.9
			S164.8,56.6,166.1,55.9z"/>
		<path id="XMLID_2792_" class="st0" d="M167.6,58.7c0,0,3.4-1.3,4.4,2c0.9,3.2-1.9,3.9-2.3,3.9c-0.4,0-3.8-0.3-3.5-2.5
			S167,59.1,167.6,58.7z"/>
	</g>
</g>
<g>
	<g>
		<path id="XMLID_2791_" class="st0" d="M221.4,74.8c0,0,6.9-2.5,8.8,3.9c1.9,6.5-3.9,7.8-4.7,7.7c-0.8,0-7.5-0.6-6.9-4.9
			C219,77.3,220.1,75.5,221.4,74.8z"/>
		<path id="XMLID_2790_" class="st0" d="M222.9,77.6c0,0,3.4-1.3,4.4,2c0.9,3.2-1.9,3.9-2.3,3.9c-0.4,0-3.8-0.3-3.5-2.5
			C221.8,78.8,222.3,78,222.9,77.6z"/>
	</g>
	<g>
		<path id="XMLID_2789_" class="st0" d="M203.2,74.8c0,0,6.9-2.5,8.8,3.9c1.9,6.5-3.9,7.8-4.7,7.7c-0.8,0-7.5-0.6-7-4.9
			C200.9,77.3,201.9,75.5,203.2,74.8z"/>
		<path id="XMLID_2788_" class="st0" d="M204.7,77.6c0,0,3.4-1.3,4.4,2s-1.9,3.9-2.3,3.9c-0.4,0-3.8-0.3-3.5-2.5
			C203.6,78.8,204.1,78,204.7,77.6z"/>
	</g>
	<g>
		<path id="XMLID_2787_" class="st0" d="M185,74.8c0,0,6.9-2.5,8.8,3.9c1.9,6.5-3.9,7.8-4.7,7.7c-0.8,0-7.5-0.6-6.9-4.9
			C182.7,77.3,183.7,75.5,185,74.8z"/>
		<path id="XMLID_2786_" class="st0" d="M186.6,77.6c0,0,3.4-1.3,4.4,2c0.9,3.2-1.9,3.9-2.3,3.9c-0.4,0-3.8-0.3-3.5-2.5
			C185.4,78.8,185.9,78,186.6,77.6z"/>
	</g>
	<g>
		<path id="XMLID_2785_" class="st0" d="M166.8,74.8c0,0,6.9-2.5,8.8,3.9c1.9,6.5-3.9,7.8-4.7,7.7c-0.8,0-7.5-0.6-6.9-4.9
			C164.5,77.3,165.5,75.5,166.8,74.8z"/>
		<path id="XMLID_2784_" class="st0" d="M168.4,77.6c0,0,3.4-1.3,4.4,2s-1.9,3.9-2.3,3.9c-0.4,0-3.8-0.3-3.5-2.5
			C167.2,78.8,167.7,78,168.4,77.6z"/>
	</g>
</g>
<path id="XMLID_2899_" class="st0" d="M180.3,122.6c0,0-0.4-2,1.6-2.1c0,0,35.4-2.4,79,0c2,0.1,1.6,2.1,1.6,2.1s0.4,26.1-0.7,44.3
	c0,0,0.4,2-1.6,2.1c0,0-33.7,1.6-77.5,0c-2-0.1-1.6-2.1-1.6-2.1L180.3,122.6z"/>
<path id="XMLID_2900_" class="st0" d="M186.4,126.1c0,0-0.3-1.7,1.4-1.7c0,0,29.8-2,66.4,0c1.7,0.1,1.4,1.7,1.4,1.7
	s0.3,21.9-0.6,37.2c0,0,0.3,1.7-1.4,1.7c0,0-28.4,1.4-65.2,0c-1.7-0.1-1.4-1.7-1.4-1.7L186.4,126.1z"/>
<g>
	<path id="XMLID_2902_" class="st0" d="M176,98.7c0,0-0.4-0.2,1.7-0.2c0,0,37.5-0.2,83.6,0c2.2,0,1.7,0.2,1.7,0.2s0.4,2.1-0.8,3.5
		c0,0,0.4,0.2-1.7,0.2c0,0-35.7,0.1-82,0c-2.2,0-1.7-0.2-1.7-0.2L176,98.7z"/>
	<path id="XMLID_2901_" class="st0" d="M173,91.7c0,0,0-0.8,0.1-0.8c0,0,2.6-0.9,5.9,0c0.2,0,0.1,0.8,0.1,0.8s0,9.9-0.1,16.7
		c0,0,0,0.8-0.1,0.8c0,0-2.5,0.6-5.8,0c-0.2,0-0.1-0.8-0.1-0.8L173,91.7z"/>
</g>
<g>
	<path id="XMLID_2904_" class="st0" d="M244.1,84.8c0,0-0.1,0.3-0.1-1.3c0,0-0.1-27.8,0-62.1c0-1.6,0.1-1.3,0.1-1.3s1.5-0.3,2.6,0.6
		c0,0,0.1-0.3,0.1,1.3c0,0,0.1,26.5,0,61c0,1.6-0.1,1.3-0.1,1.3L244.1,84.8z"/>
	<path id="XMLID_2903_" class="st0" d="M238.9,67c0,0-0.6,0-0.6-0.1c0,0-0.7-2,0-4.4c0-0.1,0.6-0.1,0.6-0.1s7.3,0,12.4,0
		c0,0,0.6,0,0.6,0.1c0,0,0.5,1.9,0,4.3c0,0.1-0.6,0.1-0.6,0.1L238.9,67z"/>
</g>
<g>
	<path id="XMLID_2906_" class="st0" d="M265.1,84.8c0,0-0.1,0.3-0.1-1.3c0,0-0.1-27.8,0-62.1c0-1.6,0.1-1.3,0.1-1.3s1.5-0.3,2.6,0.6
		c0,0,0.1-0.3,0.1,1.3c0,0,0.1,26.5,0,61c0,1.6-0.1,1.3-0.1,1.3L265.1,84.8z"/>
	<path id="XMLID_2905_" class="st0" d="M259.9,57c0,0-0.6,0-0.6-0.1c0,0-0.7-2,0-4.4c0-0.1,0.6-0.1,0.6-0.1s7.3,0,12.4,0
		c0,0,0.6,0,0.6,0.1c0,0,0.5,1.9,0,4.3c0,0.1-0.6,0.1-0.6,0.1L259.9,57z"/>
</g>
</svg>
