<?xml version="1.0" encoding="utf-8"?>
<!-- Generator: Adobe Illustrator 19.0.0, SVG Export Plug-In . SVG Version: 6.00 Build 0)  -->
<svg version="1.1" id="Layer_1" xmlns="http://www.w3.org/2000/svg" xmlns:xlink="http://www.w3.org/1999/xlink" x="0px" y="0px"
	 viewBox="0 0 106.1 67.4" style="enable-background:new 0 0 106.1 67.4;" xml:space="preserve">
<style type="text/css">
	.st0{fill:#FDF5EB;stroke:#231F20;stroke-miterlimit:10;}
</style>
<path id="XMLID_1622_" class="st0" d="M1.4,66c0,0-0.4,0.7,0.9,0.7c39.3,0.7,101.9-0.5,101.9-0.5c1.2-0.1,0.9-0.7,0.9-0.7
	c1.5-22.3-0.3-63.7-0.3-63.7s0.4-0.7-0.9-0.7C42.8-0.4,1.3,1.4,1.3,1.4C0.1,1.5,0.4,2.2,0.4,2.2S0.5,37.1,1.4,66z"/>
<path id="XMLID_1626_" class="st0" d="M26.3,20.5c-14.1,4.5-6.6,21.5-6.6,21.5s9.1,10.6,20.6,2.1C51.8,35.5,40.4,15.9,26.3,20.5z
	 M28.4,38.2c-7.7-1,3-15.4,6.6-6.3C38.5,41.1,28.4,38.2,28.4,38.2z"/>
<path id="XMLID_1623_" class="st0" d="M71.9,19c-14.1,4.5-6.6,21.5-6.6,21.5s9.1,10.6,20.6,2.1C97.3,34,85.9,14.5,71.9,19z
	 M73.9,36.7c-7.7-1,3-15.4,6.6-6.3C84.1,39.6,73.9,36.7,73.9,36.7z"/>
</svg>
