<?xml version="1.0" encoding="utf-8"?>
<!-- Generator: Adobe Illustrator 19.0.0, SVG Export Plug-In . SVG Version: 6.00 Build 0)  -->
<svg version="1.1" id="Layer_1" xmlns="http://www.w3.org/2000/svg" xmlns:xlink="http://www.w3.org/1999/xlink" x="0px" y="0px"
	 viewBox="62.2 141 288.8 288.8" style="enable-background:new 62.2 141 288.8 288.8;" xml:space="preserve">
<style type="text/css">
	.st0{display:none;}
	.st1{display:inline;}
	.st2{fill:#4E8EF7;}
</style>
<g id="Layer_1_1_" class="st0">
	<g class="st1">
		<path class="st2" d="M385.6,262.3c4.5-5.4,7.2-12.4,7.2-20c0-17.3-14-31.3-31.3-31.3c-7.6,0-14.5,2.7-20,7.2
			C304,189.8,257.3,173,206.8,173c-123.5,0-224,100.5-224,224s100.5,224,224,224s224-100.5,224-224
			C430.8,346.4,414,299.8,385.6,262.3z M206.8,612c-118.6,0-215-96.5-215-215c0-118.6,96.5-215,215-215c48.2,0,92.8,16,128.7,42.8
			c-3.4,5-5.3,11-5.3,17.5c0,17.3,14,31.3,31.3,31.3c6.5,0,12.5-2,17.5-5.3c26.9,35.9,42.8,80.5,42.8,128.7
			C421.8,515.5,325.3,612,206.8,612z"/>
		<ellipse class="st2" cx="206.8" cy="397" rx="96.2" ry="96.1"/>
	</g>
</g>
<g id="Layer_2">
	<g>
		<path class="st2" d="M321.9,198.5c2.9-3.5,4.6-8,4.6-12.9c0-11.2-9-20.2-20.2-20.2c-4.9,0-9.4,1.7-12.9,4.6
			c-24.2-18.2-54.2-29-86.8-29C127,141,62.2,205.8,62.2,285.4S127,429.8,206.6,429.8S351,365,351,285.4
			C351,252.8,340.1,222.7,321.9,198.5z M206.6,423.9C130.2,423.9,68,361.7,68,285.3s62.2-138.5,138.6-138.5
			c31.1,0,59.8,10.3,82.9,27.6c-2.2,3.2-3.4,7.1-3.4,11.3c0,11.2,9,20.2,20.2,20.2c4.2,0,8.1-1.3,11.3-3.4
			c17.3,23.1,27.6,51.9,27.6,82.9C345.2,361.8,283,423.9,206.6,423.9z"/>
		<circle class="st2" cx="206.6" cy="285.4" r="58.8"/>
	</g>
</g>
<wappalyzerData  id="wappalyzerData" style="display: none"></wappalyzerData>
<script  id="wappalyzerEnvDetection" src="chrome-extension://gppongmhjkpfnbhagpmjfkannfbllamg/js/inject.js"></script>
</svg>
