<svg xmlns="http://www.w3.org/2000/svg" xmlns:xlink="http://www.w3.org/1999/xlink" version="1.1" id="Layer_1" x="0px" y="0px" viewBox="0 0 396 324" style="enable-background:new 0 0 396 324;" xml:space="preserve">
<style type="text/css">
	.ruby0{fill:#F8ACA8;}
	.ruby1{fill:#EF3B30;}
	.ruby2{fill:#E54743;}
	.ruby3{fill:#F4857F;}
	.ruby4{fill:#CC2227;}
	.ruby5{fill:#FFFFFF;}
</style>
<g>
	<polygon class="ruby0" points="198.2,109 122.2,109 160.2,65.2 198.2,21.5 236.3,65.2 274.3,109  "/>
	<polygon class="ruby1" points="198.2,109 274.3,109 236.3,205.7 198.2,302.5 160.2,205.7 122.2,109  "/>
	<polygon class="ruby2" points="73.3,109 23.9,109 48.6,65.2 73.3,21.5 97.9,65.2 122.6,109  "/>
	<polygon class="ruby2" points="322.8,109 273.4,109 298.1,65.2 322.8,21.5 347.4,65.2 372.1,109  "/>
	<polygon class="ruby3" points="73.3,21.5 198.2,21.5 122.6,109  "/>
	<polygon class="ruby3" points="322.8,21.5 198.2,21.5 273.4,109  "/>
	<polygon class="ruby4" points="23.9,109 122.6,109 198.2,302.5  "/>
	<polygon class="ruby3" points="198.2,302.5 273.4,109 372.1,109  "/>
	<polygon class="ruby5" points="122.6,109 198.2,21.5 154.4,97.5 273.4,109  "/>
	<polygon class="ruby5" points="198.2,21.5 273.4,109 322.8,21.5 272.7,90.9  "/>
</g>
<wappalyzerData id="wappalyzerData" style="display: none"/><script id="wappalyzerEnvDetection" src="chrome-extension://gppongmhjkpfnbhagpmjfkannfbllamg/js/inject.js"/></svg>