<?xml version="1.0" encoding="utf-8"?>
<!-- Generator: Adobe Illustrator 22.1.0, SVG Export Plug-In . SVG Version: 6.00 Build 0)  -->
<svg version="1.1" id="Layer_1" xmlns="http://www.w3.org/2000/svg" xmlns:xlink="http://www.w3.org/1999/xlink" x="0px" y="0px"
	 viewBox="0 0 91 91" style="enable-background:new 0 0 91 91;" xml:space="preserve">
<style type="text/css">
	.st0{fill:#FDF5EA;stroke:#5B5B4B;stroke-linecap:round;stroke-miterlimit:10;}
</style>
<g>
	<path class="st0" d="M67.4,86.9c-1.9-13-5.4-18.6-9.8-21.3c0,0-26.3-10.5-34.3,14.4c-0.6,2.1-1,3.9-1.4,5.7L67.4,86.9L67.4,86.9z"
		/>
	<path class="st0" d="M88.7,7.6c0,0,0.3-0.8-0.6-1C38.6,3.2,4.9,4.3,4.9,4.3C3.9,4.4,4.2,5.2,4.2,5.2S3.2,33.4,2.8,62.8L87.6,65
		L88.7,7.6z"/>
	<path class="st0" d="M3.4,76.8c31.8,1.5,82.6,2.2,82.6,2.2c0.9-0.1,0.7-0.5,0.7-0.5c0.3-2.6,0.4-5.6,0.6-8.7l0.1-5L2.8,62.5
		c0,4.5-0.1,9.2-0.1,13.6C2.7,76.1,2.4,76.6,3.4,76.8z"/>
	<path class="st0" d="M77.6,16.4c0,0,0.2-0.6-0.5-0.6C40.8,13.6,16,14.3,16,14.3c-0.8,0.1-0.5,0.6-0.5,0.6s-0.5,18.4-0.8,37.8
		L77,54.3L77.6,16.4z"/>
</g>
</svg>
