<?xml version="1.0" encoding="utf-8"?>
<!-- Generator: Adobe Illustrator 22.1.0, SVG Export Plug-In . SVG Version: 6.00 Build 0)  -->
<svg version="1.1" id="Layer_1" xmlns="http://www.w3.org/2000/svg" xmlns:xlink="http://www.w3.org/1999/xlink" x="0px" y="0px"
	 viewBox="0 0 91 91" style="enable-background:new 0 0 91 91;" xml:space="preserve">
<style type="text/css">
	.st0{fill:#FDF5EA;stroke:#5B5B4B;stroke-linecap:round;stroke-miterlimit:10;}
</style>
<g>
	<path class="st0" d="M69.5,86.4c-2.3-13-5.9-18.4-10.3-21c0,0-26.6-9.8-34,15.3c-0.6,2.1-0.9,4-1.2,5.8L69.5,86.4L69.5,86.4z"/>
	<path class="st0" d="M88.7,6.4c0,0,0.3-0.9-0.7-0.9C38.5,3.4,4.8,5.4,4.8,5.4C3.8,5.5,4.1,6.3,4.1,6.3S3.9,34.5,4.2,63.9h84.8
		L88.7,6.4z"/>
	<path class="st0" d="M5.3,77.8c31.9,0.7,82.7,0,82.7,0c0.9-0.1,0.7-0.6,0.7-0.6c0.2-2.6,0.3-5.6,0.4-8.7v-5H4.2
		c0.1,4.5,0.2,9.2,0.3,13.6C4.5,77.2,4.2,77.8,5.3,77.8z"/>
	<path class="st0" d="M77.8,15.6c0,0,0.2-0.6-0.5-0.6c-36.4-1.3-61.1,0-61.1,0c-0.8,0.1-0.5,0.6-0.5,0.6s0,18.4,0.2,37.8h62.2
		L77.8,15.6z"/>
</g>
</svg>
