<?xml version="1.0" encoding="utf-8"?>
<!-- Generator: Adobe Illustrator 22.1.0, SVG Export Plug-In . SVG Version: 6.00 Build 0)  -->
<svg version="1.1" id="Layer_1" xmlns="http://www.w3.org/2000/svg" xmlns:xlink="http://www.w3.org/1999/xlink" x="0px" y="0px"
	 viewBox="0 0 129 456.6" style="enable-background:new 0 0 129 456.6;" xml:space="preserve">
<style type="text/css">
	.st0{fill:#FDF5EA;stroke:#5B5B4B;stroke-linecap:round;stroke-miterlimit:10;}
	.st1{fill:#FDF5EA;stroke:#5B5B4B;stroke-linecap:round;stroke-linejoin:round;stroke-miterlimit:10;}
	.st2{fill:#FDF5EA;}
	.st3{fill:none;stroke:#5B5B4B;stroke-linecap:round;stroke-miterlimit:10;}
</style>
<g>
	<g>
		<path class="st0" d="M37.2,28c3-0.8,6.5-1.6,10.5-2.5c3.8-0.7,7.8-1.2,11.9-1.4C71.9,23.9,81,27.4,81,27.4
			c2.7-0.6,4.8-1.4,6.3-2.1c1.7-0.7,3.3-1.6,3.7-2.5c0,0,4.5-6-12.4-7c-10.9-0.6-28.7-0.8-41.5,3.9"/>
		<path id="XMLID_25507_" class="st0" d="M44.7,122.5c-7,1.4-13.1,3.1-14.6,5.1C26,133,18.2,194,27.5,194.8s10.6,0.5,10.6-2.8
			c0-3.3,6.3-41.6,5-44.6"/>
		<g>
			<g id="XMLID_25505_">
				<path id="XMLID_25506_" class="st0" d="M31.9,208.1c-5.2,1.4-5.1-7.5,0.8-5.8"/>
			</g>
			<path id="XMLID_25504_" class="st0" d="M28.2,143c1.1,23.8,2.1,53,2.9,68.2c1.4,27.5-0.8,67.9-0.8,67.9l11.6-1
				c0,0-2.4-71.3,0-86.3c1.7-10.7-1.3-50.5-2.2-73.7"/>
			<g id="XMLID_25502_">
				<path id="XMLID_25503_" class="st0" d="M41.8,276.7c4.8,4.9,6.2,6.6,8.7,13c2.5,6.5-6.8-9.2-6.2-6.9c0.6,2.3,9.3,46.9,2.1,19.5
					c-7.2-27.4-4.4-9.9-4.4-9.9c0,37.6-3,7.5-3.9,2.8c-0.9-4.7-7.1,25.1-6,10.3c1.1-14.7,0-16-2.5-3.7s-1.2-16.6-1.2-16.6
					s0.6-9,2.8-8.3"/>
			</g>
			<path id="XMLID_25501_" class="st0" d="M35.3,202.6c0,0,1.9,0.4,2,0.8"/>
			<path id="XMLID_25500_" class="st0" d="M35,207.2c0,0-1.5,0.3-1.9-0.9"/>
			<path id="XMLID_25499_" class="st1" d="M32.7,268.8c0,0-9.3,6.3,0,6.7"/>
		</g>
		<path class="st0" d="M95.8,226.8L20,224c0,0,0.4,20.1,0.9,27.8c0,0.7,0.1,1.4,0.2,2.2c0,0.3,0.1,0.5,0.1,0.6c0,0,0,0,0,0
			c2.1,11.7,15.4,21.9,36.3,22.2c34.2,0.5,35.2-9.9,35.2-9.9c1.7-3.1,2.6-6.1,3-8.9c0.1,0,0.2,0,0.2,0S97.1,232.9,95.8,226.8z"/>
		<path class="st0" d="M102.2,237.7c0-0.7-0.1-1.3-0.2-2c-0.4-3.6-1.4-6.8-2.2-8.5c-0.9-1.7-2.7-8.5-4.9-17.6
			c-3.9-16.3-7.4-59.8-13.2-81.7c-2-7.5-17.3-13.8-20.7-13.6c-6.3,0.3-11.1,0.8-14.9,1.4c-12.2,2-14.9,9.3-14.7,11.2
			c0.3,3.1-4.4,79.3-8.7,89.4c-0.3,0.6-0.5,1.2-0.7,1.8c-3.9,9.6-6.6,20.9-3.3,25.2c0.2,0.2,0.3,0.4,0.5,0.6
			c1.5,1.4,3.9,1.7,7.5,0.4l0-0.2l5.1,0l52.7,2.8c0.7,0.1,1.4,0.2,2.1,0.3l0,0.1C100.2,255.2,102.8,246.3,102.2,237.7z"/>
		<g>
			<g id="XMLID_25497_">
				<path id="XMLID_25498_" class="st0" d="M43.3,347.2c4.2-3.4,7.7,4.9,1.5,5.6"/>
			</g>
			<path class="st0" d="M31.9,257.6c0,0,2.5,39.5,2.3,70c-0.1,3.6-0.2,6.9-0.2,9.9c0,0,0,0,0,0.1c-0.2,7.5,0.1,10.8,0.7,11.5
				c2,17.6-0.2,84.9-0.2,84.9l11.6,1c0,0-2.2-40.4-0.8-67.9c1.4-27.5,3.4-101.1,5.8-104.9"/>
			<path id="XMLID_25496_" class="st0" d="M38.1,344.4c0,0,0.9-1.3,2-0.7"/>
			<path id="XMLID_25495_" class="st0" d="M42.8,354.8c0,0-1.8-0.6-2-1"/>
			<g id="XMLID_25493_">
				<path id="XMLID_25494_" class="st0" d="M36.5,431.7c-4.2-3.4-7.7,4.9-1.5,5.6"/>
			</g>
			<g>
				<g>
					<g id="XMLID_25491_">
						<path id="XMLID_25492_" class="st0" d="M49.2,451.8c0,0,4.1-0.4,2.6,2.9C50.3,458.1,45.7,454.2,49.2,451.8z"/>
					</g>
					<g id="XMLID_25489_">
						<path id="XMLID_25490_" class="st0" d="M51.5,451.4c0,0,4.6-0.4,2.9,3.2C52.8,458.3,47.7,453.9,51.5,451.4z"/>
					</g>
					<g id="XMLID_25487_">
						<path id="XMLID_25488_" class="st0" d="M54.5,450.6c0,0,5.3-0.5,3.4,3.8C55.9,458.7,50,453.6,54.5,450.6z"/>
					</g>
					<g id="XMLID_25485_">
						<path id="XMLID_25486_" class="st0" d="M58.2,449.8c0,0,6.1-0.6,3.9,4.3S53,453.2,58.2,449.8z"/>
					</g>
					<path id="XMLID_25484_" class="st0" d="M65.3,456c0,0-7.2,0.5-3.9-4.2s9.3,0.1,9.8,2.1C71.7,455.9,65.3,456,65.3,456z"/>
				</g>
				<path class="st0" d="M30.9,448.7c0.4-1.2,1-2.6,1.8-4.3c0.7-1.6,1.4-3.5,2-5.8c-0.1,0-0.1,0-0.1,0s0,0,0-0.1
					c0-0.4,0-2.1,0.1-4.7l10.4-0.9l0.6,0l0.6,0c0.1,0.7,0.1,1.3,0.2,1.6c0,0,0,0.1,0,0.1c0.1,0.1,0.1,0.2,0.2,0.2
					c0.2,0.3,0.4,0.5,0.4,0.5s0.4,0.4,1.2,1.1c1.3,7.3,6.4,11.7,12.4,14.2c-0.1,0.6-0.3,1.2-0.9,1.7c-0.2,0.2-0.4,0.4-0.6,0.5
					c-0.8,0.6-2.1,1-3.7,1.3c-1.2,0.2-2.6,0.4-4.2,0.6c-1,0.1-2,0.2-3.1,0.2c-0.8,0-1.7,0.1-2.5,0.1c-0.9,0-1.7,0-2.5-0.1
					c-1.1,0-2.1-0.1-3.1-0.2c-1.6-0.1-3-0.3-4.2-0.6c-1.6-0.3-2.9-0.8-3.7-1.3c-0.2-0.2-0.4-0.3-0.6-0.5c-0.7-0.7-1-1.5-0.9-2.3
					C30.6,449.6,30.7,449.2,30.9,448.7z"/>
			</g>
		</g>
		<path id="XMLID_25483_" class="st0" d="M79.4,170.2c0,0,10.4,63.3,15.2,71.8"/>
		<path id="XMLID_25482_" class="st0" d="M26.5,238.6c0,0,12.5-62.9,11.1-72.5"/>
		<g id="XMLID_25442_">
			<path id="XMLID_25481_" class="st0" d="M69.2,109.2c0,0,4.2,3.9-4.6,5.7s-14.6-0.6-12.9-3.9"/>
			<g id="XMLID_25476_">
				<path id="XMLID_25480_" class="st0" d="M78.8,84.1c0,0,13.1,1.7,5.8,6.5S78.8,84.1,78.8,84.1z"/>
				<path id="XMLID_25479_" class="st0" d="M80.7,80.2c0,0,10.8-0.6,5.8,5c-5,5.6-13.9-0.1-14.6-2.5S80.7,80.2,80.7,80.2z"/>
				<path id="XMLID_25478_" class="st0" d="M59.1,83c0,0,5.3-1.8,4.4,4.9s-10,5.5-10.6,3.6C52.3,89.6,51.4,86.4,59.1,83z"/>
				<path id="XMLID_25477_" class="st0" d="M63.6,81.2c0,0,15.4-1.9,0.2,5.5S46,83.5,63.6,81.2z"/>
			</g>
			<g id="XMLID_25472_">
				<path id="XMLID_25475_" class="st0" d="M77.3,90.5c0,0-8,7.9-12.5,0"/>
				<path id="XMLID_25474_" class="st0" d="M75.5,89.2c0,0-2.2-2.3-3.9,0"/>
				<path id="XMLID_25473_" class="st0" d="M67.7,89.2c0,0,2.2-2.3,3.9,0"/>
			</g>
			<g>
				<path id="XMLID_25471_" class="st0" d="M60,38.5c0,0,17.9,15.8-4.4,23C33.2,68.6,40.5,30.4,60,38.5z"/>
				<path id="XMLID_25470_" class="st0" d="M47.5,51.5c0,0-3.7-1.5-3.3,2.3C44.7,57.6,50,54.8,47.5,51.5z"/>
				<path id="XMLID_25469_" class="st0" d="M58.5,35.3c0,0,8.2,1,2.3,6.7s-17.2,0.2-16.6-1.9C44.9,38.1,45.9,34.7,58.5,35.3z"/>
				<path id="XMLID_25468_" class="st0" d="M44.7,58.3c0,0-3.5,0.5-2,2.2c1.6,1.7,2.3-0.4,4.9,0.9"/>
				<path id="XMLID_25467_" class="st0" d="M48.6,58c0,0,8.2-0.6,13.1,0.7"/>
			</g>
			<path id="XMLID_25466_" class="st0" d="M50.2,2c0,0,4.5,3.9-1.1,5.7S45.4,0,50.2,2z"/>
			<path id="XMLID_25465_" class="st0" d="M39.5,48.8c0,0-0.7,1.4,0.4,2"/>
			<path id="XMLID_25464_" class="st0" d="M43.3,63.1c0,0,0.3,1.3,0.7,1.7"/>
			<path id="XMLID_25463_" class="st0" d="M42.9,38.2c0,0-0.5-2.4,0-2.4"/>
			<path id="XMLID_25462_" class="st0" d="M77.8,30.1c0,0-2.3,0.3-2,0.7"/>
			<path id="XMLID_25461_" class="st0" d="M64,34.3c0,0-2.6-0.4-2.8-0.9"/>
			<path id="XMLID_25460_" class="st0" d="M76.8,98.7c0,0-1.9,0.4-2,0.8"/>
			<path id="XMLID_25459_" class="st0" d="M60.9,99.6c0,0,1.7,0.8,2.2,1.7"/>
			<path id="XMLID_25458_" class="st0" d="M78.6,57.4"/>
			<path id="XMLID_25457_" class="st0" d="M66.1,58.9"/>
			<line id="XMLID_25456_" class="st0" x1="48.2" y1="72.9" x2="46.4" y2="72.4"/>
			<g>
				<path id="XMLID_25455_" class="st0" d="M30.9,64.1c0,0-13.3-14.8-12.5-2.4S23.6,87,27.9,85c4.2-2,4-5.7,4-5.7"/>
			</g>
			<path id="XMLID_25454_" class="st0" d="M67.1,111.5c9.4-4,14.7-13,16.2-20.5c2.2-11.3,18.4-71.9-26.5-77.5
				c0,0-35.8,2.6-30.8,44.9s3.6,50.1,23.9,54.4c2.4,0.5,4.7,0.8,6.9,0.8"/>
			<g>
				<path id="XMLID_25453_" class="st0" d="M60.9,64.1c0,0-13.3-14.8-12.5-2.4S53.6,87,57.9,85c4.2-2,4-5.7,4-5.7"/>
				<path id="XMLID_25452_" class="st0" d="M57.1,65.2c0,0-5.3-6.8-6.1-3.3"/>
				<path id="XMLID_25451_" class="st0" d="M59.3,70.1c0,0-7-1.2-5.7,2.7c1.3,3.9,4,6.3,4.8,1.8"/>
			</g>
			<path id="XMLID_25450_" class="st0" d="M28,23.7c0.2-1.4,0.8-3.2,2.2-5.4c0,0,0,0,0,0l0,0c0.3-0.5,0.6-1,1-1.5
				C35.6,10.5,42.8,6.9,49.4,5c28.3-11.5,31.2,12.8,31.3,22c0,0.9-53.1,8.7-53.1,8.7S26.6,27.9,28,23.7z"/>
			<g>
				<path id="XMLID_25449_" class="st0" d="M87.1,35.7c0,0-24.4-2.4-15.6,17.3S107.7,49.5,87.1,35.7z"/>
				<path id="XMLID_25448_" class="st0" d="M89.4,49.3c0,0-3.7-1.5-3.3,2.3S91.9,52.6,89.4,49.3z"/>
				<path id="XMLID_25447_" class="st0" d="M82.5,31.8c0,0,12.7-0.7,6.8,6.3S73,38,72.2,35S82.5,31.8,82.5,31.8z"/>
				<path id="XMLID_25446_" class="st0" d="M88.5,56.8c0,0,3.5,0.5,2,2.2c-1.6,1.7-2.3-0.4-4.9,0.9"/>
				<path id="XMLID_25445_" class="st0" d="M84.5,56c0,0-4.8-0.9-10.2,0.8"/>
			</g>
			<g>
				<path class="st2" d="M63.6,129c-2-4.7,2.7-37.4,2.7-37.4H34.4c0,0,7,33,5.9,36.6L63.6,129z"/>
				<path class="st3" d="M34.4,91.6c0,0,7,33,5.9,36.6"/>
				<path class="st3" d="M66.3,91.6c0,0-4.7,32.7-2.7,37.4"/>
			</g>
			<path id="XMLID_25444_" class="st3" d="M59.1,128.9c-6.8,2.8-15.1,1.7-21.1-1.3"/>
			<path id="XMLID_25443_" class="st0" d="M48.3,132c0.2,0.1,0.4,0.2,0.6,0.3"/>
		</g>
		<g>
			<g id="XMLID_25435_">
				<path id="XMLID_25440_" class="st0" d="M63.1,452.9c4.4,3.2,23.5,2,34.5,2.2c4,0.1,4.9-0.3,4.6-0.7c1-0.7,1.5-1.2,1.6-1.6
					c6.2-0.5,5.5-1.4,2.8-2.3c14.7,0.7-6.7-3.1-13.4-4.8c-7.4-1.8-15.2-10.4-15.2-10.4s-0.2-0.3-0.6-0.7c-0.1-0.4-0.2-1-0.3-1.9
					l-11.6,1c-0.1,3-0.1,4.8-0.1,4.8s0,0,0.1,0C63.5,447,59.3,450.1,63.1,452.9z"/>
				<path id="XMLID_25439_" class="st0" d="M100.9,450.2c25,1.8-0.2-2.5-7.6-4.4c-7.4-1.8-15.2-10.4-15.2-10.4s-0.2-0.3-0.6-0.7
					c-0.1-0.4-0.2-1-0.3-1.9l-11.6,1c-0.1,3-0.1,4.8-0.1,4.8s0,0,0.1,0c-2.2,8.4-6.3,11.6-2.5,14.4c4.4,3.2,23.5,2,34.5,2.2"/>
				<path id="XMLID_25438_" class="st0" d="M97.7,448.5c0,0,21.4,3.5,4.4,4.4"/>
				<path id="XMLID_25437_" class="st0" d="M102,454.6c5.7-3.6-3-3.3-3-3.3"/>
				<path id="XMLID_25436_" class="st0" d="M96.5,452.2c0,0,12.2,3.1,1.2,2.9"/>
			</g>
			<path class="st0" d="M63.1,258.3c0,0,2.5,39.5,2.3,70c-0.1,3.6-0.2,6.9-0.2,9.9c0,0,0,0,0,0.1c-0.2,7.5,0.1,10.8,0.7,11.5
				c2,17.6-0.2,84.9-0.2,84.9l11.6,1c0,0-2.2-40.4-0.8-67.9c1.4-27.5,3.4-101.1,5.8-104.9"/>
			<path id="XMLID_25434_" class="st0" d="M69.6,343.8c0,0,0.9-1.3,2-0.7"/>
			<path id="XMLID_25433_" class="st0" d="M74.2,354.2c0,0-1.8-0.6-2-1"/>
			<g id="XMLID_25431_">
				<path id="XMLID_25432_" class="st0" d="M67.7,432.4c-4.2-3.4-7.7,4.9-1.5,5.6"/>
			</g>
			<g id="XMLID_25429_">
				<path id="XMLID_25430_" class="st0" d="M74.8,346.6c4.2-3.4,7.7,4.9,1.5,5.6"/>
			</g>
		</g>
		<g>
			<g id="XMLID_25427_">
				<path id="XMLID_25428_" class="st0" d="M86.2,202.7c4.2-3.4,7.7,4.9,1.5,5.6"/>
			</g>
			<path id="XMLID_25426_" class="st0" d="M90.2,174.8c-0.6,14.3-1.1,27.7-1.5,36.4c-1.4,27.5,0.8,67.9,0.8,67.9l-11.6-1
				c0,0,2.4-71.3,0-86.3c-0.5-3-0.6-8.2-0.5-14.6"/>
			<path id="XMLID_25425_" class="st0" d="M84.1,202.9c0,0,1.6,0.1,1.6,1.4"/>
			<path id="XMLID_25424_" class="st0" d="M83.7,207.2c0,0-1.8-0.6-2-1"/>
			<g id="XMLID_25411_">
				<path id="XMLID_25423_" class="st2" d="M75.3,297.8c2,0.5,3.4,0.6,4.3,0.5c-0.6,7.4,3,5.2,4.8,3.7l0.7,0.3
					c2.4,4.3,5.2,0.1,6-1.3l0.1,1.1c3.8,1.9,3.6-2.2,3.3-4.4c0.4,0.7,1.4,1.3,4,1.3c5-0.1-9.6-24-9.6-24l-11.1,2.6
					C77.9,277.5,65.2,295.2,75.3,297.8z"/>
				<path id="XMLID_25422_" class="st0" d="M77.9,277.5c0,0-12.7,17.7-2.6,20.3c2,0.5,3.4,0.6,4.3,0.5c-0.6,7.4,3,5.2,4.8,3.7
					l0.7,0.3c2.4,4.3,5.2,0.1,6-1.3l0.1,1.1c3.8,1.9,3.6-2.2,3.3-4.4c0.4,0.7,1.4,1.3,4,1.3c5-0.1-9.6-24-9.6-24"/>
				<g id="XMLID_25415_">
					<g id="XMLID_25417_">
						<path id="XMLID_25421_" class="st1" d="M89,274.9c0,0,14.6,23.9,9.6,24s-4.1-2.4-4.3-2.6c0,0,2.1,8.4-3,5.7"/>
						<path id="XMLID_25420_" class="st1" d="M91.4,300.6c0,0-3.6,7.2-6.4,1.5"/>
						<path id="XMLID_25419_" class="st1" d="M77.9,277.5c0,0-12.7,17.7-2.6,20.3s5.1-4.5,2.2-4.3"/>
						<path id="XMLID_25418_" class="st1" d="M85.3,301.2c0,0-6.7,7.1-5.6-3.7l0.4-5.4"/>
					</g>
					<path id="XMLID_25416_" class="st1" d="M87.2,274.3c0,0,6.8-6.9,0-7.4"/>
				</g>
				<path id="XMLID_25414_" class="st0" d="M84.7,291.6c0,0-0.3,3.3,0.3,5.1"/>
				<path id="XMLID_25413_" class="st0" d="M90.1,295.6c0,0,0.1,2.4,0.6,2.4"/>
				<path id="XMLID_25412_" class="st1" d="M90.7,286c0.5,1.5,2.5,4.8,2.5,4.8"/>
			</g>
		</g>
		<path id="XMLID_25410_" class="st0" d="M70.6,121.5c7,1.4,13.1,3.1,14.6,5.1c4.1,5.4,11.9,66.4,2.6,67.2s-10.6,0.5-10.6-2.8
			c0-3.3-6.3-41.6-5-44.6"/>
	</g>
	<path class="st1" d="M27.4,36.6c0,0,2,18.7,53.1-8.7C80.5,28,37.2,24.7,27.4,36.6z"/>
</g>
</svg>
