<?xml version="1.0" encoding="utf-8"?>
<!-- Generator: Adobe Illustrator 19.0.0, SVG Export Plug-In . SVG Version: 6.00 Build 0)  -->
<svg version="1.1" id="Layer_1" xmlns="http://www.w3.org/2000/svg" xmlns:xlink="http://www.w3.org/1999/xlink" x="0px" y="0px"
	 viewBox="0 0 106.1 67.4" style="enable-background:new 0 0 106.1 67.4;" xml:space="preserve">
<style type="text/css">
	.st0{fill:#FDF5EB;stroke:#231F20;stroke-miterlimit:10;}
</style>
<path id="XMLID_1622_" class="st0" d="M1,65.3c0,0-0.4,0.7,0.9,0.7c39.3,1.2,101.9,0.8,101.9,0.8c1.2-0.1,0.9-0.7,0.9-0.7
	c1.8-22.3,0.6-63.7,0.6-63.7s0.4-0.7-0.9-0.7C43.2-0.5,1.7,0.8,1.7,0.8C0.5,0.8,0.8,1.5,0.8,1.5S0.4,36.4,1,65.3z"/>
<path id="XMLID_1626_" class="st0" d="M26.5,20.1c-14.1,4.4-6.9,21.4-6.9,21.4s8.9,10.7,20.5,2.3C51.8,35.5,40.6,15.8,26.5,20.1z
	 M28.3,37.9c-7.7-1.1,3.2-15.4,6.7-6.2C38.4,40.9,28.3,37.9,28.3,37.9z"/>
<path id="XMLID_1623_" class="st0" d="M72.1,19.3c-14.1,4.4-6.9,21.4-6.9,21.4s8.9,10.7,20.5,2.3C97.3,34.6,86.2,14.9,72.1,19.3z
	 M73.9,37c-7.7-1.1,3.2-15.4,6.7-6.2C84,40,73.9,37,73.9,37z"/>
</svg>
