<?xml version="1.0" encoding="utf-8"?>
<!-- Generator: Adobe Illustrator 19.0.0, SVG Export Plug-In . SVG Version: 6.00 Build 0)  -->
<svg version="1.1" id="Layer_1" xmlns="http://www.w3.org/2000/svg" xmlns:xlink="http://www.w3.org/1999/xlink" x="0px" y="0px"
	 viewBox="0 0 106.1 67.4" style="enable-background:new 0 0 106.1 67.4;" xml:space="preserve">
<style type="text/css">
	.st0{fill:#FDF5EB;stroke:#231F20;stroke-miterlimit:10;}
</style>
<path id="XMLID_1622_" class="st0" d="M1.8,66.7c0,0-0.3,0.7,0.9,0.7c39.3,0.2,101.9-1.8,101.9-1.8c1.2-0.1,0.9-0.8,0.9-0.8
	c1.2-22.3-1.1-63.7-1.1-63.7s0.3-0.7-0.9-0.7C42.3-0.2,0.9,2.1,0.9,2.1C-0.4,2.2,0,2.9,0,2.9S0.5,37.8,1.8,66.7z"/>
<path id="XMLID_1626_" class="st0" d="M26.2,20.8c-14,4.7-6.3,21.5-6.3,21.5s9.2,10.5,20.6,1.8C51.8,35.5,40.2,16.1,26.2,20.8z
	 M28.4,38.5c-7.7-0.9,2.8-15.5,6.5-6.4C38.6,41.3,28.4,38.5,28.4,38.5z"/>
<path id="XMLID_1623_" class="st0" d="M71.7,18.8c-14,4.7-6.3,21.5-6.3,21.5s9.2,10.5,20.6,1.8C97.3,33.4,85.7,14,71.7,18.8z
	 M74,36.5c-7.7-0.9,2.8-15.5,6.5-6.4C84.1,39.2,74,36.5,74,36.5z"/>
</svg>
