<?xml version="1.0" encoding="utf-8"?>
<!-- Generator: Adobe Illustrator 19.0.0, SVG Export Plug-In . SVG Version: 6.00 Build 0)  -->
<svg version="1.1" id="Layer_1" xmlns="http://www.w3.org/2000/svg" xmlns:xlink="http://www.w3.org/1999/xlink" x="0px" y="0px"
	 viewBox="0 0 106.1 67.4" style="enable-background:new 0 0 106.1 67.4;" xml:space="preserve">
<style type="text/css">
	.st0{fill:#FDF5EB;stroke:#231F20;stroke-miterlimit:10;}
</style>
<path id="XMLID_1622_" class="st0" d="M1.2,65.8c0,0-0.4,0.7,0.9,0.7c39.3,0.8,101.9,0,101.9,0c1.2-0.1,0.9-0.7,0.9-0.7
	c1.6-22.3,0-63.7,0-63.7s0.4-0.7-0.9-0.7C42.9-0.4,1.4,1.2,1.4,1.2C0.2,1.3,0.5,1.9,0.5,1.9S0.4,36.9,1.2,65.8z"/>
<path id="XMLID_1626_" class="st0" d="M26.4,20.4c-14.1,4.5-6.7,21.4-6.7,21.4s9,10.6,20.6,2.2C51.8,35.5,40.5,15.9,26.4,20.4z
	 M28.4,38.1c-7.7-1,3.1-15.4,6.6-6.3C38.5,41,28.4,38.1,28.4,38.1z"/>
<path id="XMLID_1623_" class="st0" d="M71.9,19.1c-14.1,4.5-6.7,21.4-6.7,21.4s9,10.6,20.6,2.2C97.3,34.2,86,14.6,71.9,19.1z
	 M73.9,36.8c-7.7-1,3.1-15.4,6.6-6.3C84,39.7,73.9,36.8,73.9,36.8z"/>
</svg>
