<?xml version="1.0" encoding="utf-8"?>
<!-- Generator: Adobe Illustrator 22.1.0, SVG Export Plug-In . SVG Version: 6.00 Build 0)  -->
<svg version="1.1" id="Layer_1" xmlns="http://www.w3.org/2000/svg" xmlns:xlink="http://www.w3.org/1999/xlink" x="0px" y="0px"
	 viewBox="0 0 91 91" style="enable-background:new 0 0 91 91;" xml:space="preserve">
<style type="text/css">
	.st0{fill:#FDF5EA;stroke:#5B5B4B;stroke-linecap:round;stroke-miterlimit:10;}
</style>
<g>
	<path class="st0" d="M69.8,88.7c-2.4-13.7-6.2-19.5-10.9-22.2c0,0-28.1-10.4-35.9,16.2c-0.6,2.2-1,4.2-1.3,6.1H69.8z"/>
	<path class="st0" d="M90.1,4.2c0,0,0.3-0.9-0.7-1c-52.4-2.2-88-0.1-88-0.1c-1,0.1-0.7,1-0.7,1S0.5,33.9,0.8,65h89.7L90.1,4.2z"/>
	<path class="st0" d="M1.9,79.7c33.7,0.7,87.4,0,87.4,0c1-0.1,0.7-0.6,0.7-0.6c0.2-2.8,0.3-5.9,0.4-9.2v-5.3H0.8
		C0.9,69.4,1,74.3,1.1,79C1.1,79,0.8,79.6,1.9,79.7z"/>
	<path class="st0" d="M78.6,13.9c0,0,0.2-0.6-0.5-0.6c-38.5-1.4-64.6,0-64.6,0c-0.8,0.1-0.5,0.6-0.5,0.6s0,19.5,0.2,40h65.8
		L78.6,13.9z"/>
</g>
</svg>
