<?xml version="1.0" encoding="utf-8"?>
<!-- Generator: Adobe Illustrator 22.1.0, SVG Export Plug-In . SVG Version: 6.00 Build 0)  -->
<svg version="1.1" id="Layer_1" xmlns="http://www.w3.org/2000/svg" xmlns:xlink="http://www.w3.org/1999/xlink" x="0px" y="0px"
	 viewBox="0 0 129 456.6" style="enable-background:new 0 0 129 456.6;" xml:space="preserve">
<style type="text/css">
	.st0{fill:#FDF5EA;stroke:#5B5B4B;stroke-linecap:round;stroke-miterlimit:10;}
	.st1{fill:#FDF5EA;}
	.st2{fill:#FDF5EA;stroke:#5B5B4B;stroke-linecap:round;stroke-linejoin:round;stroke-miterlimit:10;}
	.st3{fill:none;stroke:#5B5B4B;stroke-linecap:round;stroke-miterlimit:10;}
</style>
<g>
	<g>
		<g id="XMLID_25724_">
			<path id="XMLID_25725_" class="st0" d="M69.7,208.5c4.2-3.4,7.7,4.9,1.5,5.6"/>
		</g>
		<path id="XMLID_25723_" class="st0" d="M75.9,132.6c-1.5,24.8-2.7,65.5-3.7,84.4c-1.4,27.5,0.8,67.9,0.8,67.9l-11.6-1
			c0,0,2.4-71.3,0-86.3c-1.8-11.2,1.6-54.3,2.3-76.8"/>
		<path id="XMLID_25722_" class="st0" d="M67.6,208.6c0,0,1.6,0.1,1.6,1.4"/>
		<path id="XMLID_25721_" class="st0" d="M67.2,213c0,0-1.8-0.6-2-1"/>
		<g id="XMLID_25708_">
			<path id="XMLID_25720_" class="st1" d="M58.8,303.5c2,0.5,3.4,0.6,4.3,0.5c-0.6,7.4,3,5.2,4.8,3.7l0.7,0.3c2.4,4.3,5.2,0.1,6-1.3
				l0.1,1.1c3.8,1.9,3.6-2.2,3.3-4.4c0.4,0.7,1.4,1.3,4,1.3c5-0.1-9.6-24-9.6-24l-11.1,2.6C61.4,283.3,48.7,301,58.8,303.5z"/>
			<path id="XMLID_25719_" class="st0" d="M61.4,283.3c0,0-12.7,17.7-2.6,20.3c2,0.5,3.4,0.6,4.3,0.5c-0.6,7.4,3,5.2,4.8,3.7
				l0.7,0.3c2.4,4.3,5.2,0.1,6-1.3l0.1,1.1c3.8,1.9,3.6-2.2,3.3-4.4c0.4,0.7,1.4,1.3,4,1.3c5-0.1-9.6-24-9.6-24"/>
			<g id="XMLID_25712_">
				<g id="XMLID_25714_">
					<path id="XMLID_25718_" class="st2" d="M72.5,280.7c0,0,14.6,23.9,9.6,24s-4.1-2.4-4.3-2.6c0,0,2.1,8.4-3,5.7"/>
					<path id="XMLID_25717_" class="st2" d="M74.9,306.4c0,0-3.6,7.2-6.4,1.5"/>
					<path id="XMLID_25716_" class="st2" d="M61.4,283.3c0,0-12.7,17.7-2.6,20.3c10.1,2.6,5.1-4.5,2.2-4.3"/>
					<path id="XMLID_25715_" class="st2" d="M68.8,307c0,0-6.7,7.1-5.6-3.7l0.4-5.4"/>
				</g>
				<path id="XMLID_25713_" class="st2" d="M70.7,280.1c0,0,6.8-6.9,0-7.4"/>
			</g>
			<path id="XMLID_25711_" class="st0" d="M68.2,297.4c0,0-0.3,3.3,0.3,5.1"/>
			<path id="XMLID_25710_" class="st0" d="M73.6,301.4c0,0,0.1,2.4,0.6,2.4"/>
			<path id="XMLID_25709_" class="st2" d="M74.2,291.8c0.5,1.5,2.5,4.8,2.5,4.8"/>
		</g>
	</g>
	<g>
		<path class="st0" d="M72.7,259.2c0,0-2.5,39.5-2.3,70c0.1,3.6,0.2,6.9,0.2,9.9c0,0,0,0,0,0.1c0.2,7.5-0.1,10.8-0.7,11.5
			c-2,17.6,0.2,84.9,0.2,84.9l-11.6,1c0,0,2.2-40.4,0.8-67.9c-1.4-27.5-3.4-101.1-5.8-104.9"/>
		<path class="st0" d="M58.5,434.6l5.8-0.5l5.8,0.5c0,0.3,0.1,0.5,0.1,0.7c0,1.5,0.1,2.7,0.1,3.3c0,0.2,0,0.3,0,0.4
			c0,0.2,0,0.3,0,0.3c0,0,0,0-0.1,0c1.2,4.7,3.1,7.8,3.8,10.1c0.1,0.3,0.1,0.5,0.2,0.7c0,0.2,0.1,0.5,0.1,0.7c0,0.4,0,0.8-0.2,1.2
			c-0.1,0.4-0.4,0.8-0.7,1.1c-0.2,0.2-0.4,0.4-0.6,0.5c-1.5,1.1-4.5,1.7-8.4,2c-3.9-0.3-6.9-0.9-8.4-2c-0.2-0.2-0.4-0.3-0.6-0.5
			c-0.4-0.4-0.6-0.7-0.7-1.1c-0.1-0.4-0.2-0.8-0.2-1.2c0-0.2,0-0.4,0.1-0.7c0-0.2,0.1-0.5,0.2-0.7c0.7-2.3,2.6-5.3,3.8-10.1
			c-0.1,0-0.1,0-0.1,0c0,0,0-0.1,0-0.3c0-0.1,0-0.2,0-0.4c0-0.7,0-1.8,0.1-3.3C58.4,435.1,58.5,434.9,58.5,434.6z"/>
		<path id="XMLID_25707_" class="st0" d="M63.1,344.6c0,0-1.6,0.1-1.6,1.4"/>
		<path id="XMLID_25706_" class="st0" d="M65.5,356c0,0,1.8-0.6,2-1"/>
		<g id="XMLID_25704_">
			<path id="XMLID_25705_" class="st0" d="M68.1,438c4.2,3.4,7.7-4.9,1.5-5.6"/>
		</g>
		<g id="XMLID_25702_">
			<path id="XMLID_25703_" class="st0" d="M67.4,352.9c5.2,1.4,5.1-7.5-0.8-5.8"/>
		</g>
		<g id="XMLID_25695_">
			<path id="XMLID_25700_" class="st0" d="M55.5,453.8c4.4,3.2,23.5,2,34.5,2.2c4,0.1,4.9-0.3,4.6-0.7c1-0.7,1.5-1.2,1.6-1.6
				c6.2-0.5,5.5-1.4,2.8-2.3c14.7,0.7-6.7-3.1-13.4-4.8c-7.4-1.8-15.2-10.4-15.2-10.4s-0.2-0.3-0.6-0.7c-0.1-0.4-0.2-1-0.3-1.9
				l-11.6,1c-0.1,3-0.1,4.8-0.1,4.8s0,0,0.1,0C55.9,447.9,51.7,451,55.5,453.8z"/>
			<path id="XMLID_25699_" class="st0" d="M93.3,451c25,1.8-0.2-2.5-7.6-4.4c-7.4-1.8-15.2-10.4-15.2-10.4s-0.2-0.3-0.6-0.7
				c-0.1-0.4-0.2-1-0.3-1.9l-11.6,1c-0.1,3-0.1,4.8-0.1,4.8s0,0,0.1,0c-2.2,8.4-6.3,11.6-2.5,14.4c4.4,3.2,23.5,2,34.5,2.2"/>
			<path id="XMLID_25698_" class="st0" d="M90.1,449.4c0,0,21.4,3.5,4.4,4.4"/>
			<path id="XMLID_25697_" class="st0" d="M94.4,455.4c5.7-3.6-3-3.3-3-3.3"/>
			<path id="XMLID_25696_" class="st0" d="M88.9,453.1c0,0,12.2,3.1,1.2,2.9"/>
		</g>
	</g>
	<path class="st0" d="M23.5,232.6l75.9-2.8c0,0-0.4,20.1-0.9,27.8c0,0.7-0.1,1.4-0.2,2.2c0,0.3-0.1,0.5-0.1,0.6c0,0,0,0,0,0
		C96,272,82.8,282.3,61.8,282.6c-34.2,0.5-35.2-9.9-35.2-9.9c-1.7-3.1-2.6-6.1-3-8.9c-0.1,0-0.2,0-0.2,0S22.2,238.7,23.5,232.6z"/>
	<g>
		<path class="st1" d="M19.2,239.7c0-0.7,0.1-1.3,0.2-2c0.4-3.6,1.4-6.8,2.2-8.5c0.9-1.7,2.7-8.5,4.9-17.6
			c5.3-22.4,13-59.5,15.1-74.4c0.2-1.3,0.4-2.4,0.6-3.5c0.3-1.4,0.7-2.7,1-3.8c-0.5-4.4,2.4-8.6,7.8-11c2.3-1.4,4.3-1.6,5.1-1.6
			c2.2-0.4,4.7-0.6,7.5-0.5c10.3,0.4,14.9,2.2,17,3.7l0-0.1c0,0,0,0.1,0,0.2c1.7,1.2,1.7,2.2,1.7,2.2c2,3.9,0.4,11.7,0.5,12.6
			c3.8,24.8,11.4,72.7,15.8,83c0.3,0.6,0.5,1.2,0.7,1.8c3.9,9.6,6.6,20.9,3.3,25.2c-0.2,0.2-0.3,0.4-0.5,0.6
			c-1.5,1.4-3.9,1.7-7.5,0.4l0-0.2c-1.3,0-3.1,0-5.1,0l-52.7,2.8c-0.7,0.1-1.4,0.2-2.1,0.3l0,0.1C21.3,257.2,18.6,248.3,19.2,239.7z
			"/>
		<path class="st0" d="M89.5,246.1l-52.7,2.8c-0.7,0.1-1.4,0.2-2.1,0.3l0,0.1c-13.4,8-16-0.9-15.4-9.5c0-0.7,0.1-1.3,0.2-2
			c0.4-3.6,1.4-6.8,2.2-8.5c0.9-1.7,2.7-8.5,4.9-17.6c5.3-22.4,13-59.5,15.1-74.4c0.2-1.3,0.4-2.4,0.6-3.5c0.3-1.4,0.7-2.7,1-3.8
			c-0.5-4.4,2.4-8.6,7.8-11c2.3-1.4,4.3-1.6,5.1-1.6c2.2-0.4,4.7-0.6,7.5-0.5c10.3,0.4,14.9,2.2,17,3.7l0-0.1c0,0,0,0.1,0,0.2
			c1.7,1.2,1.7,2.2,1.7,2.2c2,3.9,0.4,11.7,0.5,12.6c3.8,24.8,11.4,72.7,15.8,83c0.3,0.6,0.5,1.2,0.7,1.8c3.9,9.6,6.6,20.9,3.3,25.2
			c-0.2,0.2-0.3,0.4-0.5,0.6c-1.5,1.4-3.9,1.7-7.5,0.4l0-0.2"/>
	</g>
	<g>
		<g id="XMLID_25688_">
			<path id="XMLID_25693_" class="st0" d="M43.9,453.8c4.4,3.2,23.5,2,34.5,2.2c4,0.1,4.9-0.3,4.6-0.7c1-0.7,1.5-1.2,1.6-1.6
				c6.2-0.5,5.5-1.4,2.8-2.3c14.7,0.7-6.7-3.1-13.4-4.8c-7.4-1.8-15.2-10.4-15.2-10.4s-0.2-0.3-0.6-0.7c-0.1-0.4-0.2-1-0.3-1.9
				l-11.6,1c-0.1,3-0.1,4.8-0.1,4.8s0,0,0.1,0C44.3,447.9,40.1,451,43.9,453.8z"/>
			<path id="XMLID_25692_" class="st0" d="M81.7,451c25,1.8-0.2-2.5-7.6-4.4c-7.4-1.8-15.2-10.4-15.2-10.4s-0.2-0.3-0.6-0.7
				c-0.1-0.4-0.2-1-0.3-1.9l-11.6,1c-0.1,3-0.1,4.8-0.1,4.8s0,0,0.1,0c-2.2,8.4-6.3,11.6-2.5,14.4c4.4,3.2,23.5,2,34.5,2.2"/>
			<path id="XMLID_25691_" class="st0" d="M78.5,449.4c0,0,21.4,3.5,4.4,4.4"/>
			<path id="XMLID_25690_" class="st0" d="M82.8,455.4c5.7-3.6-3-3.3-3-3.3"/>
			<path id="XMLID_25689_" class="st0" d="M77.3,453.1c0,0,12.2,3.1,1.2,2.9"/>
		</g>
		<path class="st0" d="M44,259.2c0,0,2.5,39.5,2.3,70c-0.1,3.6-0.2,6.9-0.2,9.9c0,0,0,0,0,0.1c-0.2,7.5,0.1,10.8,0.7,11.5
			c2,17.6-0.2,84.9-0.2,84.9l11.6,1c0,0-2.2-40.4-0.8-67.9c1.4-27.5,3.4-101.1,5.8-104.9"/>
		<path id="XMLID_25687_" class="st0" d="M50.4,344.7c0,0,0.9-1.3,2-0.7"/>
		<path id="XMLID_25686_" class="st0" d="M55,355c0,0-1.8-0.6-2-1"/>
		<g id="XMLID_25684_">
			<path id="XMLID_25685_" class="st0" d="M48.6,433.3c-4.2-3.4-7.7,4.9-1.5,5.6"/>
		</g>
		<g id="XMLID_25682_">
			<path id="XMLID_25683_" class="st0" d="M55.6,347.5c4.2-3.4,7.7,4.9,1.5,5.6"/>
		</g>
	</g>
	<g>
		<path class="st1" d="M75.7,121.9c-2-4.7,2.7-37.4,2.7-37.4H46.5c0,0,7,33,5.9,36.6L75.7,121.9z"/>
		<path class="st3" d="M46.5,84.5c0,0,7,33,5.9,36.6"/>
		<path class="st3" d="M78.4,84.5c0,0-4.7,32.7-2.7,37.4"/>
	</g>
	<g id="XMLID_25637_">
		<g id="XMLID_25638_">
			<path id="XMLID_25681_" class="st0" d="M66.7,14.6c0,0-35.8,2.6-30.8,44.9s3.6,50.1,23.9,54.4C80,118.1,91.1,103.3,93.3,92
				S111.7,20.1,66.7,14.6z"/>
			<path id="XMLID_25680_" class="st0" d="M57.2,4.9c0,0,4.5,3.9-1.1,5.7S52.3,2.9,57.2,4.9z"/>
			<path id="XMLID_25679_" class="st0" d="M37.9,24.6c0.1-1.4,0.7-3.2,2-5.4c0,0,0,0,0,0l0,0c0.3-0.5,0.6-1,0.9-1.5
				c4-6.3,10.6-9.9,16.5-11.7C83-5.6,85.6,18.8,85.7,28c0,0.9-11.6-0.1-22.1-2.7c-13.4,5.4-26,11.4-26,11.4S36.6,28.8,37.9,24.6z"/>
			<path id="XMLID_25678_" class="st0" d="M85.4,63.1c0,0-6.4,4.8-14.6,1.8"/>
			<path id="XMLID_25677_" class="st0" d="M88.7,66.2c0,0,6.5-8,6.2-12.5"/>
			<path id="XMLID_25676_" class="st0" d="M85,39.4c0,0,17.9,15.8-4.4,23C58.2,69.6,65.4,31.4,85,39.4z"/>
			<path id="XMLID_25675_" class="st0" d="M72.5,52.5c0,0-3.7-1.5-3.3,2.3C69.7,58.6,75,55.7,72.5,52.5z"/>
			<path id="XMLID_25674_" class="st0" d="M78.2,110.1c0,0,4.2,3.9-4.6,5.7s-14.6-0.6-12.9-3.9"/>
			<path id="XMLID_25673_" class="st0" d="M83.5,36.3c0,0,8.2,1,2.3,6.7c-5.9,5.8-17.2,0.2-16.6-1.9S70.9,35.7,83.5,36.3z"/>
			<path id="XMLID_25672_" class="st0" d="M92,31.4c0,0-13.7-5.6-29.8-2s-24.5,7.3-24.5,7.3c5.1-17.8,36.4-17.9,52.1-16.9
				s11.5,7,11.5,7S99,29.7,92,31.4z"/>
			<path id="XMLID_25671_" class="st0" d="M92,31.4c0,0,27.2-7.5-10.4-9.2C44,20.5,37.8,36.6,37.8,36.6S72.6,21.6,92,31.4z"/>
			<g id="XMLID_25663_">
				<g id="XMLID_25668_">
					<path id="XMLID_25670_" class="st0" d="M104,70.1c-0.2,2.1-0.9,3.6-2.3,3.9c-0.8,0.1-1.4,0.1-1.9,0c-0.4-0.1-0.8-0.3-1.1-0.4"
						/>
					<path id="XMLID_25669_" class="st0" d="M93,41.6c0,0,4.9,13.2,6.3,22.4"/>
				</g>
				<g id="XMLID_25664_">
					<path id="XMLID_25667_" class="st0" d="M89.1,68.2c0,0-5.1,4.2,2.1,7.1"/>
					<path id="XMLID_25666_" class="st0" d="M92.9,71.7c-0.7,0.2-1.8-1.3-2.6,0c-0.8,1.3,0.1,0.9,1.2,1.2
						C92.5,73.1,93.6,71.5,92.9,71.7z"/>
					<path id="XMLID_25665_" class="st0" d="M95,65.3c0,0-1.5,0-1.9,0.5"/>
				</g>
			</g>
			<path id="XMLID_25662_" class="st0" d="M86.2,70.5c0,0-4.9,2.3-5.3,2.3"/>
			<path id="XMLID_25661_" class="st0" d="M59.5,49.7c0,0-0.7,1.4,0.4,2"/>
			<path id="XMLID_25660_" class="st0" d="M63.3,64.1c0,0,0.3,1.3,0.7,1.7"/>
			<path id="XMLID_25659_" class="st0" d="M62.8,39.1c0,0-0.5-2.4,0-2.4"/>
			<path id="XMLID_25658_" class="st0" d="M83.9,35.3c0,0-2.6-0.4-2.8-0.9"/>
			<path id="XMLID_25657_" class="st0" d="M52.8,100.5c0,0,1.7,0.8,2.2,1.7"/>
			<path id="XMLID_25656_" class="st0" d="M88.6,58.4"/>
			<path id="XMLID_25655_" class="st0" d="M76.1,59.9"/>
			<line id="XMLID_25654_" class="st0" x1="74.2" y1="73.8" x2="72.3" y2="73.3"/>
			<path id="XMLID_25653_" class="st0" d="M60.9,65c0,0-13.3-14.8-12.5-2.4s5.2,25.3,9.5,23.3c4.2-2,4-5.7,4-5.7"/>
			<path id="XMLID_25652_" class="st0" d="M57.1,66.2c0,0-5.3-6.8-6.1-3.3"/>
			<path id="XMLID_25651_" class="st0" d="M59.3,71.1c0,0-7-1.2-5.7,2.7c1.3,3.9,4,6.3,4.8,1.8"/>
			<g id="XMLID_25648_">
				<path id="XMLID_25650_" class="st0" d="M69.7,59.3c0,0-3.5,0.5-2,2.2c1.6,1.7,2.3-0.4,4.9,0.9"/>
				<path id="XMLID_25649_" class="st0" d="M73.5,59c0,0,8.2-0.6,13.1,0.7"/>
			</g>
			<g id="XMLID_25643_">
				<path id="XMLID_25647_" class="st0" d="M100.7,85c0,0,13.1,1.7,5.8,6.5S100.7,85,100.7,85z"/>
				<path id="XMLID_25646_" class="st0" d="M102.7,81.1c0,0,10.8-0.6,5.8,5c-5,5.6-13.9-0.1-14.6-2.5S102.7,81.1,102.7,81.1z"/>
				<path id="XMLID_25645_" class="st0" d="M81.1,83.9c0,0,5.3-1.8,4.4,4.9s-10,5.5-10.6,3.6C74.3,90.5,73.4,87.3,81.1,83.9z"/>
				<path id="XMLID_25644_" class="st0" d="M85.6,82.2c0,0,15.4-1.9,0.2,5.5S68,84.5,85.6,82.2z"/>
			</g>
			<g id="XMLID_25639_">
				<path id="XMLID_25642_" class="st0" d="M99.3,91.4c0,0-8,7.9-12.5,0"/>
				<path id="XMLID_25641_" class="st0" d="M97.4,90.2c0,0-2.2-2.3-3.9,0"/>
				<path id="XMLID_25640_" class="st0" d="M89.7,90.2c0,0,2.2-2.3,3.9,0"/>
			</g>
		</g>
	</g>
	<g>
		<g id="XMLID_25635_">
			<path id="XMLID_25636_" class="st0" d="M41.4,218.4c-5.2,1.4-5.1-7.5,0.8-5.8"/>
		</g>
		<path id="XMLID_25634_" class="st0" d="M37.7,153.3c1.1,23.8,2.1,53,2.9,68.2c1.4,27.5-0.8,67.9-0.8,67.9l11.6-1
			c0,0-2.4-71.3,0-86.3c1.7-10.7-1.3-50.5-2.2-73.7"/>
		<g id="XMLID_25632_">
			<path id="XMLID_25633_" class="st0" d="M51.3,287c4.8,4.9,6.2,6.6,8.7,13c2.5,6.5-6.8-9.2-6.2-6.9c0.6,2.3,9.3,46.9,2.1,19.5
				c-7.2-27.4-4.4-9.9-4.4-9.9c0,37.6-3,7.5-3.9,2.8c-0.9-4.7-7.1,25.1-6,10.3c1.1-14.7,0-16-2.5-3.7S38,295.5,38,295.5
				s0.6-9,2.8-8.3"/>
		</g>
		<path id="XMLID_25631_" class="st0" d="M44.8,212.9c0,0,1.9,0.4,2,0.8"/>
		<path id="XMLID_25630_" class="st0" d="M44.5,217.5c0,0-1.5,0.3-1.9-0.9"/>
		<path id="XMLID_25629_" class="st2" d="M42.2,279c0,0-9.3,6.3,0,6.7"/>
	</g>
	<path id="XMLID_25628_" class="st0" d="M53.9,149.9c1.5,2.9-2.8,41.5-2.6,44.8c0.2,3.3-1.1,3.7-10.4,3.4c-9.3-0.4-4.8-61.7-1-67.3
		c1.3-2,6.6-3.9,12.8-5.5"/>
	<path id="XMLID_25627_" class="st0" d="M75,128.5c0.6-0.2,1.1-0.7,1.7-1.5"/>
	<path id="XMLID_25626_" class="st0" d="M53.4,123.7c0,0,0.2,0.8,0.7,1.5"/>
	<path id="XMLID_25625_" class="st3" d="M71.8,128.3c-4.4,2.5-9.6,1.2-13.3-2.1"/>
	<path id="XMLID_25624_" class="st0" d="M58.2,130.2c0.2,0.1,0.4,0.2,0.6,0.3"/>
	<path id="XMLID_25623_" class="st0" d="M57.6,242.5c0,0,1.9-64.1-1.2-73.4"/>
	<g>
		<path id="XMLID_25622_" class="st0" d="M71.6,140.4c0,0,1.2,1,0.5,2"/>
		<path id="XMLID_25621_" class="st0" d="M63,139.9c0,0-1.7,0.8-2.2,1.6"/>
		<path id="XMLID_25620_" class="st0" d="M71.8,147.9c0,0,0.5-1.8,0.2-2.7"/>
		<path id="XMLID_25619_" class="st0" d="M62.6,153.7c0,0,1.7,0.7,2.7,0.5"/>
		<path id="XMLID_25618_" class="st0" d="M70.7,152.3c0,0-0.6,1.4-1.8,1"/>
		<path id="XMLID_25617_" class="st0" d="M61.2,144.9c0,0-0.3,1.3-0.7,1.7"/>
		<line id="XMLID_25616_" class="st0" x1="67.9" y1="139.5" x2="66" y2="139.5"/>
		<path id="XMLID_25615_" class="st0" d="M60.6,149.8c0,0-0.4,1.8-0.1,2.7"/>
	</g>
	<g>
		<path id="XMLID_25614_" class="st0" d="M86.9,261.3c0,0,1.1-2,0.3-3.1"/>
		<path id="XMLID_25613_" class="st0" d="M84.3,252.7c0,0,1.4,1.4,1.6,2.3"/>
		<path id="XMLID_25612_" class="st0" d="M85.1,264.7c0,0-0.6,1.9-1.3,2.5"/>
	</g>
	<path id="XMLID_25611_" class="st0" d="M88.7,218c0,0,5.6,20.3,9,21.2"/>
</g>
</svg>
