<?xml version="1.0" encoding="utf-8"?>
<!-- Generator: Adobe Illustrator 22.1.0, SVG Export Plug-In . SVG Version: 6.00 Build 0)  -->
<svg version="1.1" id="Layer_1" xmlns="http://www.w3.org/2000/svg" xmlns:xlink="http://www.w3.org/1999/xlink" x="0px" y="0px"
	 viewBox="0 0 483.3 361" style="enable-background:new 0 0 483.3 361;" xml:space="preserve">
<style type="text/css">
	.st0{fill:#FDF5EA;stroke:#5B5B4B;stroke-linecap:round;stroke-miterlimit:10;}
</style>
<g>
	<path id="XMLID_362_" class="st0" d="M399.1,111c0.2-0.2,0.1,2.2,0.1,2.2s-3.5,56.4-3.7,58.7c0,0-0.2,2.3-0.4,2.2
		c0,0-5.8,0.6-6.2-0.4c-0.1-0.3-0.1-2.2-0.1-2.2s3.1-52,3.5-58.6c0,0,0.2-2.3,0.4-2.2C392.7,110.6,398.9,111.2,399.1,111z"/>
	<g>
		<path id="XMLID_363_" class="st0" d="M392.5,110.3c0.2,0.2-2.2,0.1-2.2,0.1s-56.4-3.5-58.7-3.7c0,0-2.3-0.2-2.2-0.4
			c0,0-0.6-5.8,0.4-6.2c0.3-0.1,2.2-0.1,2.2-0.1s52,3.1,58.6,3.5c0,0,2.3,0.2,2.2,0.4C392.8,103.9,392.2,110.1,392.5,110.3z"/>
		<g>
			<g>
				<path id="XMLID_365_" class="st0" d="M386.5,102.5c0,0-4.5,18.9,11.9,14.1S399.5,87.9,386.5,102.5z"/>
				<g>
					<path id="XMLID_364_" class="st0" d="M390,104.7c0,0-2.6,11.2,7,8.3C406.7,110.2,397.7,96.1,390,104.7z"/>
				</g>
			</g>
		</g>
	</g>
	<g>
		<path id="XMLID_368_" class="st0" d="M321.4,104.6c0,0.2-0.6-0.1-0.6-0.1s-13.3-8.7-13.8-9.2c0,0-0.5-0.4-0.4-0.5
			c0,0,2.9-4.9,3.4-5.2c0.2-0.1,0.6,0.1,0.6,0.1s12.3,8,13.9,9c0,0,0.5,0.4,0.4,0.5C324.9,99.2,321.5,104.4,321.4,104.6z"/>
		<g>
			<g>
				<path id="XMLID_367_" class="st0" d="M320.8,93.8c0,0-13.3,14.2,3.3,18.1C340.7,115.8,339.3,87.5,320.8,93.8z"/>
				<g>
					<path id="XMLID_366_" class="st0" d="M322.8,97.5c0,0-7.8,8.4,2,10.7S333.7,93.8,322.8,97.5z"/>
				</g>
			</g>
		</g>
		<g>
			<path id="XMLID_360_" class="st0" d="M282.1,75.3c0,0,6.3-7.8,18.2,1.7c11.9,9.6,14.5,10.8,12.6,16.3c-1.8,5.6-8,5.2-11.7,3.5
				C297.6,95.1,276.9,86.8,282.1,75.3z"/>
			<path id="XMLID_356_" class="st0" d="M265.5,63.7c0,0,10.8-14.6,22.1-4.1s14,11.5,9.6,20.9s-11.9,11.1-15.9,9.8
				C277.4,89,254.6,83.8,265.5,63.7z"/>
		</g>
	</g>
	<g>
		<g>
			<path id="XMLID_370_" class="st0" d="M382.2,172.5c0,0-4.5,18.9,11.9,14.1C410.4,181.7,395.2,157.9,382.2,172.5z"/>
			<g>
				<path id="XMLID_369_" class="st0" d="M385.8,174.7c0,0-2.6,11.2,7,8.3S393.4,166,385.8,174.7z"/>
			</g>
		</g>
	</g>
</g>
</svg>
