<?xml version="1.0" encoding="utf-8"?>
<!-- Generator: Adobe Illustrator 22.1.0, SVG Export Plug-In . SVG Version: 6.00 Build 0)  -->
<svg version="1.1" id="Layer_1" xmlns="http://www.w3.org/2000/svg" xmlns:xlink="http://www.w3.org/1999/xlink" x="0px" y="0px"
	 viewBox="0 0 1280 720" style="enable-background:new 0 0 1280 720;" xml:space="preserve">
<style type="text/css">
	.st0{fill:#FDF5EA;stroke:#5B5B4B;stroke-linecap:round;stroke-miterlimit:10;}
</style>
<path class="st0" d="M680.5,486.7"/>
<g>
	<rect id="XMLID_21361_" x="412.5" y="557.7" class="st0" width="25" height="50"/>
	<path id="XMLID_21362_" class="st0" d="M422.5,565.2c0,0,12.2-1.2,7.8,8.7C425.9,583.7,412.2,572,422.5,565.2z"/>
	<path id="XMLID_21363_" class="st0" d="M422.5,588.2c0,0,12.2-1.2,7.8,8.7C425.9,606.7,412.2,595,422.5,588.2z"/>
	<path class="st0" d="M423.9,568.6c0,0,0.6,1.7-0.5,4.6"/>
	<path class="st0" d="M426.9,568.4c0,0-0.4,3.2,0.3,4.1"/>
	<path class="st0" d="M423.9,596.9c0,0,0.6-1.7-0.5-4.6"/>
	<path class="st0" d="M426.9,597.1c0,0-0.4-3.2,0.3-4.1"/>
</g>
<g>
	<rect id="XMLID_21561_" x="945.5" y="561.7" class="st0" width="25" height="50"/>
	<path id="XMLID_21560_" class="st0" d="M955.5,569.2c0,0,12.2-1.2,7.8,8.7C958.9,587.7,945.2,576,955.5,569.2z"/>
	<path id="XMLID_21559_" class="st0" d="M955.5,592.2c0,0,12.2-1.2,7.8,8.7C958.9,610.7,945.2,599,955.5,592.2z"/>
	<path class="st0" d="M956.9,572.6c0,0,0.6,1.7-0.5,4.6"/>
	<path class="st0" d="M959.9,572.4c0,0-0.4,3.2,0.3,4.1"/>
	<path class="st0" d="M956.9,600.9c0,0,0.6-1.7-0.5-4.6"/>
	<path class="st0" d="M959.9,601.1c0,0-0.4-3.2,0.3-4.1"/>
</g>
<path class="st0" d="M412.5,137.7c0,0-13,47,6,48s81,9,81-18s-3-39-30-37S412.5,137.7,412.5,137.7z"/>
<path class="st0" d="M403.5,222.7c0,0-13,47,6,48s81,9,81-18s-3-39-30-37S403.5,222.7,403.5,222.7z"/>
<path class="st0" d="M746.5,159.7c0,0-13,47,6,48s81,9,81-18s-3-39-30-37S746.5,159.7,746.5,159.7z"/>
<path class="st0" d="M874.5,221.7c0,0-13,47,6,48s81,9,81-18s-3-39-30-37S874.5,221.7,874.5,221.7z"/>
</svg>
