<?xml version="1.0" encoding="utf-8"?>
<!-- Generator: Adobe Illustrator 22.1.0, SVG Export Plug-In . SVG Version: 6.00 Build 0)  -->
<svg version="1.1" id="Layer_1" xmlns="http://www.w3.org/2000/svg" xmlns:xlink="http://www.w3.org/1999/xlink" x="0px" y="0px"
	 viewBox="0 0 129 456.6" style="enable-background:new 0 0 129 456.6;" xml:space="preserve">
<style type="text/css">
	.st0{fill:#FDF5EA;stroke:#5B5B4B;stroke-linecap:round;stroke-miterlimit:10;}
	.st1{fill:#FDF5EA;}
	.st2{fill:#FDF5EA;stroke:#5B5B4B;stroke-linecap:round;stroke-linejoin:round;stroke-miterlimit:10;}
	.st3{fill:none;stroke:#5B5B4B;stroke-linecap:round;stroke-miterlimit:10;}
</style>
<g>
	<path class="st0" d="M100.6,21.8c0,0,3.7-6-10.2-7c-13.9-1-41.4-0.9-45.9,16.9c0,0,0.8-0.4,2.2-1c3-1.3,9.2-3.7,18.4-6
		c3.1-0.7,6.4-1.2,9.7-1.4c10.1-0.2,17.6,3.2,17.6,3.2c2.2-0.6,3.9-1.4,5.2-2.1C98.9,23.5,100.2,22.6,100.6,21.8z"/>
	<g>
		<path id="XMLID_25610_" class="st0" d="M22.1,159.6c0.9,21.1,1.7,43.8,2.3,56.5c1.4,27.5-0.8,67.9-0.8,67.9l11.6-1
			c0,0-2.4-71.3,0-86.3c1.4-8.8-0.4-37.4-1.6-60.1"/>
		<g id="XMLID_25597_">
			<path id="XMLID_25609_" class="st1" d="M37.8,302.7c-2,0.5-3.4,0.6-4.3,0.5c0.6,7.4-3,5.2-4.8,3.7l-0.7,0.3
				c-2.4,4.3-5.2,0.1-6-1.3l-0.1,1.1c-3.8,1.9-3.6-2.2-3.3-4.4c-0.4,0.7-1.4,1.3-4,1.3c-5-0.1,9.6-24,9.6-24l11.1,2.6
				C35.3,282.4,48,300.1,37.8,302.7z"/>
			<path id="XMLID_25608_" class="st0" d="M35.3,282.4c0,0,12.7,17.7,2.6,20.3c-2,0.5-3.4,0.6-4.3,0.5c0.6,7.4-3,5.2-4.8,3.7
				l-0.7,0.3c-2.4,4.3-5.2,0.1-6-1.3l-0.1,1.1c-3.8,1.9-3.6-2.2-3.3-4.4c-0.4,0.7-1.4,1.3-4,1.3c-5-0.1,9.6-24,9.6-24"/>
			<g id="XMLID_25601_">
				<g id="XMLID_25603_">
					<path id="XMLID_25607_" class="st2" d="M24.2,279.9c0,0-14.6,23.9-9.6,24s4.1-2.4,4.3-2.6c0,0-2.1,8.4,3,5.7"/>
					<path id="XMLID_25606_" class="st2" d="M21.7,305.5c0,0,3.6,7.2,6.4,1.5"/>
					<path id="XMLID_25605_" class="st2" d="M35.3,282.4c0,0,12.7,17.7,2.6,20.3c-10.1,2.6-5.1-4.5-2.2-4.3"/>
					<path id="XMLID_25604_" class="st2" d="M27.9,306.1c0,0,6.7,7.1,5.6-3.7l-0.4-5.4"/>
				</g>
				<path id="XMLID_25602_" class="st2" d="M25.9,279.2c0,0-6.8-6.9,0-7.4"/>
			</g>
			<path id="XMLID_25600_" class="st0" d="M28.5,296.5c0,0,0.3,3.3-0.3,5.1"/>
			<path id="XMLID_25599_" class="st0" d="M23,300.5c0,0-0.1,2.4-0.6,2.4"/>
			<path id="XMLID_25598_" class="st2" d="M22.5,290.9c-0.5,1.5-2.5,4.8-2.5,4.8"/>
		</g>
		<g id="XMLID_25595_">
			<path id="XMLID_25596_" class="st0" d="M26.5,208c-4.2-3.4-7.7,4.9-1.5,5.6"/>
		</g>
		<path id="XMLID_25594_" class="st0" d="M29.9,207.8c0,0-1.6,0.1-1.6,1.4"/>
		<path id="XMLID_25593_" class="st0" d="M30.3,212.2c0,0,1.8-0.6,2-1"/>
	</g>
	<g>
		<g id="XMLID_25591_">
			<path id="XMLID_25592_" class="st0" d="M55.2,347.2c4.2-3.4,7.7,4.9,1.5,5.6"/>
		</g>
		<path class="st0" d="M43.9,257.6c0,0,2.5,39.5,2.3,70c-0.1,3.6-0.2,6.9-0.2,9.9c0,0,0,0,0,0.1c-0.2,7.5,0.1,10.8,0.7,11.5
			c2,17.6-0.2,84.9-0.2,84.9l11.6,1c0,0-2.2-40.4-0.8-67.9c1.4-27.5,3.4-101.1,5.8-104.9"/>
		<path id="XMLID_25590_" class="st0" d="M50,344.4c0,0,0.9-1.3,2-0.7"/>
		<path id="XMLID_25589_" class="st0" d="M54.7,354.8c0,0-1.8-0.6-2-1"/>
		<g id="XMLID_25587_">
			<path id="XMLID_25588_" class="st0" d="M48.5,431.7c-4.2-3.4-7.7,4.9-1.5,5.6"/>
		</g>
		<g>
			<g>
				<g id="XMLID_25585_">
					<path id="XMLID_25586_" class="st0" d="M61.1,451.8c0,0,4.1-0.4,2.6,2.9C62.3,458.1,57.7,454.2,61.1,451.8z"/>
				</g>
				<g id="XMLID_25583_">
					<path id="XMLID_25584_" class="st0" d="M63.5,451.4c0,0,4.6-0.4,2.9,3.2C64.7,458.3,59.6,453.9,63.5,451.4z"/>
				</g>
				<g id="XMLID_25581_">
					<path id="XMLID_25582_" class="st0" d="M66.4,450.6c0,0,5.3-0.5,3.4,3.8C67.9,458.7,61.9,453.6,66.4,450.6z"/>
				</g>
				<g id="XMLID_25579_">
					<path id="XMLID_25580_" class="st0" d="M70.1,449.8c0,0,6.1-0.6,3.9,4.3S65,453.2,70.1,449.8z"/>
				</g>
				<path id="XMLID_25578_" class="st0" d="M77.3,456c0,0-7.2,0.5-3.9-4.2c3.3-4.7,9.3,0.1,9.8,2.1C83.6,455.9,77.3,456,77.3,456z"
					/>
			</g>
			<path class="st0" d="M42.8,448.7c0.4-1.2,1-2.6,1.8-4.3c0.7-1.6,1.4-3.5,2-5.8c-0.1,0-0.1,0-0.1,0s0,0,0-0.1c0-0.4,0-2.1,0.1-4.7
				l10.4-0.9l0.6,0l0.6,0c0.1,0.7,0.1,1.3,0.2,1.6c0,0,0,0.1,0,0.1c0.1,0.1,0.1,0.2,0.2,0.2c0.2,0.3,0.4,0.5,0.4,0.5
				s0.4,0.4,1.2,1.1c1.3,7.3,6.4,11.7,12.4,14.2c-0.1,0.6-0.3,1.2-0.9,1.7c-0.2,0.2-0.4,0.4-0.6,0.5c-0.8,0.6-2.1,1-3.7,1.3
				c-1.2,0.2-2.6,0.4-4.2,0.6c-1,0.1-2,0.2-3.1,0.2c-0.8,0-1.7,0.1-2.5,0.1c-0.9,0-1.7,0-2.5-0.1c-1.1,0-2.1-0.1-3.1-0.2
				c-1.6-0.1-3-0.3-4.2-0.6c-1.6-0.3-2.9-0.8-3.7-1.3c-0.2-0.2-0.4-0.3-0.6-0.5c-0.7-0.7-1-1.5-0.9-2.3
				C42.5,449.6,42.6,449.2,42.8,448.7z"/>
		</g>
	</g>
	<path id="XMLID_25577_" class="st0" d="M38.3,148.4c1.5,2.9-2.8,41.5-2.6,44.8c0.2,3.3-1.1,3.7-10.4,3.4c-9.3-0.4-4.8-61.7-1-67.3
		c1.3-2,6.6-3.9,12.8-5.5"/>
	<path class="st0" d="M28.8,231.7l75.9-2.8c0,0-0.4,20.1-0.9,27.8c0,0.7-0.1,1.4-0.2,2.2c0,0.3-0.1,0.5-0.1,0.6c0,0,0,0,0,0
		c-2.1,11.7-15.4,21.9-36.3,22.2C33,282.3,32,271.8,32,271.8c-1.7-3.1-2.6-6.1-3-8.9c-0.1,0-0.2,0-0.2,0S27.6,237.8,28.8,231.7z"/>
	<g>
		<path class="st1" d="M105.6,211.6c-0.1-0.5-0.1-1-0.2-1.5c-0.6-4.1-1.1-7.1-1.3-8.1c-1-5-3-60-4-69c0-0.3-0.1-0.6-0.1-0.9
			c-0.6-2.5-2.3-4.6-4.4-6.2c-2.9-2.2-6.5-3.5-8.9-4.3c-4.6-3.8-14-6.4-26.8-5.8c-12.1,0.5-30.9,0.7-31.8,19c-0.1,2.1-0.1,4.4,0,7.1
			c1,24.8,1,64.9-1.6,75.6c-0.1,0.5-0.3,1-0.4,1.4c-2.2,5.8-4.9,20.4-2,25.9c0,0.1,0.1,0.1,0.1,0.2c1.1,1.9,3,2.5,5.9,0.9
			c0,0,3.7-0.9,6.4-0.9l52.7,2.8c2.2,0.3,4.2,0.7,5.8,1.1C110.2,260.2,107.9,228.6,105.6,211.6z"/>
		<path class="st0" d="M36.5,245.1l52.7,2.8c2.2,0.3,4.2,0.7,5.8,1.1c15.2,11.3,12.9-20.3,10.6-37.3c-0.1-0.5-0.1-1-0.2-1.5
			c-0.6-4.1-1.1-7.1-1.3-8.1c-1-5-3-60-4-69c0-0.3-0.1-0.6-0.1-0.9c-0.6-2.5-2.3-4.6-4.4-6.2c-2.9-2.2-6.5-3.5-8.9-4.3
			c-4.6-3.8-14-6.4-26.8-5.8c-12.1,0.5-30.9,0.7-31.8,19c-0.1,2.1-0.1,4.4,0,7.1c1,24.8,1,64.9-1.6,75.6c-0.1,0.5-0.3,1-0.4,1.4
			c-2.2,5.8-4.9,20.4-2,25.9c0,0.1,0.1,0.1,0.1,0.2c1.1,1.9,3,2.5,5.9,0.9"/>
	</g>
	<path id="XMLID_25576_" class="st0" d="M105,203.9c0,0-1.9-64.1,1.2-73.4"/>
	<g>
		<path id="XMLID_25575_" class="st0" d="M92.7,148c1.1,23.8,2.1,53,2.9,68.2c1.4,27.5-0.8,67.9-0.8,67.9l11.6-1
			c0,0-2.4-71.3,0-86.3c1.4-8.8-0.4-37.4-1.6-60.1"/>
		<g id="XMLID_25573_">
			<path id="XMLID_25574_" class="st0" d="M106.4,281.6c4.8,4.9,6.2,6.6,8.7,13c2.5,6.5-6.8-9.2-6.2-6.9c0.6,2.3,9.3,46.9,2.1,19.5
				c-7.2-27.4-4.4-9.9-4.4-9.9c0,37.6-3,7.5-3.9,2.8c-0.9-4.7-7.1,25.1-6,10.3c1.1-14.7,0-16-2.5-3.7S93,290.1,93,290.1
				s0.6-9,2.8-8.3"/>
		</g>
		<path id="XMLID_25572_" class="st0" d="M99.9,207.5c0,0,1.9,0.4,2,0.8"/>
		<path id="XMLID_25571_" class="st0" d="M99.6,212.1c0,0-1.5,0.3-1.9-0.9"/>
		<path id="XMLID_25570_" class="st2" d="M97.3,273.7c0,0-9.3,6.3,0,6.7"/>
		<g id="XMLID_25568_">
			<path id="XMLID_25569_" class="st0" d="M96.4,213c-5.2,1.4-5.1-7.5,0.8-5.8"/>
		</g>
	</g>
	<path id="XMLID_25567_" class="st0" d="M90.7,148.4c-1.5,2.9,2.8,41.5,2.6,44.8c-0.2,3.3,1.1,3.7,10.4,3.4c9.3-0.4,4.8-61.7,1-67.3
		c-1.3-2-6.6-3.9-12.8-5.5"/>
	<g>
		<g id="XMLID_25565_">
			<path id="XMLID_25566_" class="st0" d="M83.3,351.3c5.2,1.4,5.1-7.5-0.8-5.8"/>
		</g>
		<g>
			<g id="XMLID_25563_">
				<path id="XMLID_25564_" class="st0" d="M87.2,449.9c0,0,4.1-0.4,2.6,2.9S83.8,452.2,87.2,449.9z"/>
			</g>
			<g id="XMLID_25561_">
				<path id="XMLID_25562_" class="st0" d="M89.6,449.4c0,0,4.6-0.4,2.9,3.2C90.9,456.4,85.8,452,89.6,449.4z"/>
			</g>
			<g id="XMLID_25559_">
				<path id="XMLID_25560_" class="st0" d="M92.5,448.6c0,0,5.3-0.5,3.4,3.8C94,456.7,88,451.6,92.5,448.6z"/>
			</g>
			<g id="XMLID_25557_">
				<path id="XMLID_25558_" class="st0" d="M96.2,447.9c0,0,6.1-0.6,3.9,4.3C97.9,457.1,91.1,451.3,96.2,447.9z"/>
			</g>
			<path id="XMLID_25556_" class="st0" d="M103.4,454.1c0,0-7.2,0.5-3.9-4.2c3.3-4.7,9.3,0.1,9.8,2.1
				C109.8,454,103.4,454.1,103.4,454.1z"/>
		</g>
		<path class="st0" d="M68.9,446.7c0.4-1.2,1-2.6,1.8-4.3c0.7-1.6,1.4-3.5,2-5.8c-0.1,0-0.1,0-0.1,0s0,0,0-0.1c0-0.4,0-2.1,0.1-4.7
			l10.4-0.9l0.6,0l0.6,0c0.1,0.7,0.1,1.3,0.2,1.6c0,0,0,0.1,0,0.1c0.1,0.1,0.1,0.2,0.2,0.2c0.2,0.3,0.4,0.5,0.4,0.5s0.4,0.4,1.2,1.1
			c1.3,7.3,6.4,11.7,12.4,14.2c-0.1,0.6-0.3,1.2-0.9,1.7c-0.2,0.2-0.4,0.4-0.6,0.5c-0.8,0.6-2.1,1-3.7,1.3c-1.2,0.2-2.6,0.4-4.2,0.6
			c-1,0.1-2,0.2-3.1,0.2c-0.8,0-1.7,0.1-2.5,0.1c-0.9,0-1.7,0-2.5-0.1c-1.1,0-2.1-0.1-3.1-0.2c-1.6-0.1-3-0.3-4.2-0.6
			c-1.6-0.3-2.9-0.8-3.7-1.3c-0.2-0.2-0.4-0.3-0.6-0.5c-0.7-0.7-1-1.5-0.9-2.3C68.7,447.7,68.8,447.2,68.9,446.7z"/>
		<path class="st0" d="M87.3,257.6c0,0-2.5,39.5-2.3,70c0.1,3.6,0.2,6.9,0.2,9.9c0,0,0,0,0,0.1c0.2,7.5-0.1,10.8-0.7,11.5
			c-2,17.6,0.2,84.9,0.2,84.9l-11.6,1c0,0,2.2-40.4,0.8-67.9c-1.4-27.5-3.4-101.1-5.8-104.9"/>
		<path id="XMLID_25555_" class="st0" d="M77.7,343.1c0,0-1.6,0.1-1.6,1.4"/>
		<path id="XMLID_25554_" class="st0" d="M80.2,354.4c0,0,1.8-0.6,2-1"/>
		<g id="XMLID_25552_">
			<path id="XMLID_25553_" class="st0" d="M82.7,436.5c4.2,3.4,7.7-4.9,1.5-5.6"/>
		</g>
	</g>
	<g id="XMLID_25512_">
		<g id="XMLID_25513_">
			<path id="XMLID_25551_" class="st0" d="M80.9,109.1c0,0,4.2,3.9-4.6,5.7c-8.8,1.7-14.6-0.6-12.9-3.9"/>
			<g id="XMLID_25546_">
				<path id="XMLID_25550_" class="st0" d="M90.5,84c0,0,13.1,1.7,5.8,6.5S90.5,84,90.5,84z"/>
				<path id="XMLID_25549_" class="st0" d="M92.4,80.1c0,0,10.8-0.6,5.8,5c-5,5.6-13.9-0.1-14.6-2.5S92.4,80.1,92.4,80.1z"/>
				<path id="XMLID_25548_" class="st0" d="M70.8,82.9c0,0,5.3-1.8,4.4,4.9c-0.9,6.7-10,5.5-10.6,3.6C64,89.5,63.1,86.3,70.8,82.9z"
					/>
				<path id="XMLID_25547_" class="st0" d="M75.3,81.1c0,0,15.4-1.9,0.2,5.5C60.4,94,57.7,83.4,75.3,81.1z"/>
			</g>
			<g id="XMLID_25542_">
				<path id="XMLID_25545_" class="st0" d="M89,90.4c0,0-8,7.9-12.5,0"/>
				<path id="XMLID_25544_" class="st0" d="M87.2,89.1c0,0-2.2-2.3-3.9,0"/>
				<path id="XMLID_25543_" class="st0" d="M79.5,89.1c0,0,2.2-2.3,3.9,0"/>
			</g>
			<g>
				<path id="XMLID_25541_" class="st0" d="M98.8,35.7c0,0-24.4-2.4-15.6,17.3S119.4,49.4,98.8,35.7z"/>
				<path id="XMLID_25540_" class="st0" d="M101.1,49.2c0,0-3.7-1.5-3.3,2.3S103.7,52.5,101.1,49.2z"/>
				<path id="XMLID_25539_" class="st0" d="M71.7,38.4c0,0,17.9,15.8-4.4,23S52.2,30.4,71.7,38.4z"/>
				<path id="XMLID_25538_" class="st0" d="M59.2,51.4c0,0-3.7-1.5-3.3,2.3C56.4,57.5,61.8,54.7,59.2,51.4z"/>
				<path id="XMLID_25537_" class="st0" d="M70.2,35.2c0,0,8.2,1,2.3,6.7c-5.9,5.8-17.2,0.2-16.6-1.9C56.6,38,57.6,34.6,70.2,35.2z"
					/>
				<path id="XMLID_25536_" class="st0" d="M94.2,31.7c0,0,12.7-0.7,6.8,6.3c-5.9,7.1-16.3-0.2-17.2-3.2S94.2,31.7,94.2,31.7z"/>
				<g id="XMLID_25531_">
					<path id="XMLID_25535_" class="st0" d="M100.2,56.7c0,0,3.5,0.5,2,2.2c-1.6,1.7-2.3-0.4-4.9,0.9"/>
					<path id="XMLID_25534_" class="st0" d="M56.4,58.2c0,0-3.5,0.5-2,2.2c1.6,1.7,2.3-0.4,4.9,0.9"/>
					<path id="XMLID_25533_" class="st0" d="M60.3,57.9c0,0,8.2-0.6,13.1,0.7"/>
					<path id="XMLID_25532_" class="st0" d="M96.2,55.9c0,0-4.8-0.9-10.2,0.8"/>
				</g>
			</g>
			<path id="XMLID_25530_" class="st0" d="M61.9,1.9c0,0,4.5,3.9-1.1,5.7S57.1-0.1,61.9,1.9z"/>
			<path id="XMLID_25529_" class="st0" d="M51.2,48.7c0,0-0.7,1.4,0.4,2"/>
			<path id="XMLID_25528_" class="st0" d="M55,63.1c0,0,0.3,1.3,0.7,1.7"/>
			<path id="XMLID_25527_" class="st0" d="M54.6,38.1c0,0-0.5-2.4,0-2.4"/>
			<path id="XMLID_25526_" class="st0" d="M89.5,30c0,0-2.3,0.3-2,0.7"/>
			<path id="XMLID_25525_" class="st0" d="M75.7,34.2c0,0-2.6-0.4-2.8-0.9"/>
			<path id="XMLID_25524_" class="st0" d="M88.5,98.6c0,0-1.9,0.4-2,0.8"/>
			<path id="XMLID_25523_" class="st0" d="M72.6,99.5c0,0,1.7,0.8,2.2,1.7"/>
			<path id="XMLID_25522_" class="st0" d="M90.3,57.3"/>
			<path id="XMLID_25521_" class="st0" d="M77.8,58.8"/>
			<line id="XMLID_25520_" class="st0" x1="59.9" y1="72.8" x2="58.1" y2="72.3"/>
			<g>
				<path id="XMLID_25519_" class="st0" d="M42.6,64c0,0-13.3-14.8-12.5-2.4s5.3,25.3,9.5,23.3s4-5.7,4-5.7"/>
			</g>
			<path id="XMLID_25518_" class="st0" d="M78.8,111.5c9.4-4,14.7-13,16.2-20.5c2.2-11.3,18.4-71.9-26.5-77.5
				c0,0-35.8,2.6-30.8,44.9s3.6,50.1,23.9,54.4c2.4,0.5,4.7,0.8,6.9,0.8"/>
			<g>
				<path id="XMLID_25517_" class="st0" d="M82.6,64c0,0-13.3-14.8-12.5-2.4s5.2,25.3,9.5,23.3s4-5.7,4-5.7"/>
				<path id="XMLID_25516_" class="st0" d="M78.8,65.2c0,0-5.3-6.8-6.1-3.3"/>
				<path id="XMLID_25515_" class="st0" d="M81,70c0,0-7-1.2-5.7,2.7c1.3,3.9,4,6.3,4.8,1.8"/>
			</g>
			<path id="XMLID_25514_" class="st2" d="M39.7,23.6c0.2-1.4,0.8-3.2,2.2-5.4c0,0,0,0,0,0l0,0c0.3-0.5,0.6-1,1-1.5
				c4.4-6.3,11.6-9.9,18.2-11.7C89.5-6.6,92.3,17.7,92.4,27c0,0.9-53.1,8.7-53.1,8.7S38.3,27.8,39.7,23.6z"/>
			<path class="st2" d="M39.3,35.6c0,0,2,18.7,53.1-8.7C92.4,27,49.1,23.7,39.3,35.6z"/>
		</g>
	</g>
	<g>
		<path class="st1" d="M75.7,125c-2-4.7,2.7-37.4,2.7-37.4H46.5c0,0,7,33,5.9,36.6L75.7,125z"/>
		<path class="st3" d="M46.5,87.6c0,0,7,33,5.9,36.6"/>
		<path class="st3" d="M78.4,87.6c0,0-4.7,32.7-2.7,37.4"/>
	</g>
	<path id="XMLID_25511_" class="st0" d="M75.8,124.3c0.6-0.2,1.1-0.7,1.7-1.5"/>
	<path id="XMLID_25510_" class="st3" d="M64,124.2c-4.4,2.5-9.6,1.2-13.3-2.1"/>
	<path id="XMLID_25509_" class="st0" d="M50.3,126.1c0.2,0.1,0.4,0.2,0.6,0.3"/>
	<path id="XMLID_25508_" class="st0" d="M36.9,234.6c0,0,1.9-64.1-1.2-73.4"/>
</g>
</svg>
