<?xml version="1.0" encoding="utf-8"?>
<!-- Generator: Adobe Illustrator 19.0.0, SVG Export Plug-In . SVG Version: 6.00 Build 0)  -->
<svg version="1.1" id="Layer_1" xmlns="http://www.w3.org/2000/svg" xmlns:xlink="http://www.w3.org/1999/xlink" x="0px" y="0px"
	 viewBox="510.2 140.4 225.1 264.1" style="enable-background:new 510.2 140.4 225.1 264.1;" xml:space="preserve">
<style type="text/css">
	.st0{fill:#171634;}
	.st1{fill:#362E4D;}
	.st2{fill:#B3B39B;}
	.st3{fill:#C92A42;}
	.st4{fill:#CCCDAD;}
</style>
<path class="st0" d="M608,148.1c-0.3,1.2,0.6,1.5,1.4,1.6c6,0.8,9,4.3,9.4,10.2c-4.8-0.4-8.8,2.9-13.5,3.2c-0.9,0.1-2.3,0.4-2.7-0.7
	c-0.3-1.1,0-2.4,0-3.6c3.5,0.2,4.8-3.9,8-4.1c0.8,0,1.9,1.5,2.2-0.5c0.1-1.2-0.7-1.6-1.7-2.1c-5.8-3-15-0.1-17.7,6.5
	c-1.9,4.4-5.4,7.3-8.6,9.8c-3.9,3-9.4,3.9-14.2,5.7c-3,1.2-5.6,3-6.6,6.3c-0.9,3.2-3.1,4.1-6.1,3.6c3.7-7.6,9.5-12,18-13.9
	c6.6-1.5,10.4-7.7,14.5-12.8c2.9-3.6,8.4-4.2,9.7-9.2C602.7,148.1,605.4,148.1,608,148.1z"/>
<path class="st0" d="M394.1,449.2c-0.2,3.3,1.9,7.6-3.7,8.7c-0.4,0.1-0.6,0.7-0.9,1.1c-5.9,9.5-10.5,19.6-13,30.4
	c-1.3,5.5,1.6,11.2,3.7,16.7c1.4,3.6,4,6.3,4.9,9.9c-0.1,0.1-0.1,0.2-0.2,0.3c0.1-0.1,0.1-0.2,0.2-0.3c6.3,8.4,16.6,5.5,24.8,8.8
	c3.8,1.5,8.1,1.1,11.7,3.7c1.7,1.2,5.5,1.3,6,0.1c0.9-2,0.5-5-0.2-7.4c-1.6-5.7,0.1-10.8,1.2-16.2c1.6-7.7,4.4-14.9,8.5-21.5
	c7.1-11.6,15.1-22.6,28.1-28.2c4.4-1.9,9-3.3,13.9-3.3c1.7,0,3.5,0,5.3-0.7c-6.9-1.3-13-4.4-19.1-7.5c-9.3-4.7-18.8-9.1-27.8-14.4
	c-5.5-3.3-10.3-2.7-15.4,0.1c-1.4,0.8-2.5,2.2-4.3,2c1.5-7.6,9.2-5.6,13.6-8.8c0.4-0.3,2.6,2.2,4,3.3c1.5,1.1,3.2,2.6,4.8,0.7
	c1.4-1.7-0.7-2.7-1.7-3.5c-13.3-12.1-28.3-20.6-46.3-23.3c-5-0.7-8.7-5-13.1-7.2c4.5-0.2,7.6-3.6,11.8-4.7c1.9,0,3.7-0.1,5.6-0.1
	c2.3,1.5,4.7,1.4,7.1,0.4c9.6-4.1,19.7-7.3,28.6-12.6c5.9-3.6,10-2.2,14.8,0.4c3.7,0.4,7.4,0.6,9.5,4.5c0.4,0.8,1.8,0.5,2.7-0.3
	c0.8-0.8,0.9-1.7,0.5-2.7c-4-9.9-7-20.2-13-29.3c-0.7-1.1-2.4-2.3-1-3.3c1.6-1.3,2.7,0.9,3.4,1.9c4.5,6.2,7.4,13.2,10,20.3
	c0.6,1.5,0.4,3.5,2.7,4.6c0.2-3.7-0.9-6.6-2.1-9.5c-0.4-0.9-0.8-2,0.2-2.7c1-0.7,2.1-0.2,2.5,0.8c1.2,2.6,3.6,4.1,3.9,7.5
	c0.5,5,3,9.7,4.6,14.6c0.4-10.8-3.3-20.7-5.9-30.9c6.5,6.7,6.2,16.5,11.2,24c0.5-3.1-0.6-6.4,2.5-8.6c0.3-0.2,0.2-1.4-0.1-1.9
	c-4-7.7,0.7-14.8,1.2-22.2c4.6,20.3,1.9,39.8-7.2,58.6c4.2-3.3,4.5-8.8,8.4-12.5c-0.7,8.6-5,16-6.3,24.1c4.8-8.9,8.6-18.1,10-28.2
	c2-14.8,3.6-29.6,1.4-44.6c-1-6.7-0.6-13.7-9.1-16.1c-0.8-0.2-1.8-1.2-1.3-2.3c0.5-1.1,1.7-0.7,2.7-0.8c5.5-0.4,9.3,3.8,14.1,5.3
	c3.1,1,4.1,3.4,1,6.4c-1.5,1.4-2.8,3.4-3,6.1c0.9-0.3,1.4-0.4,1.8-0.7c1.7-1.5,3.6-3.2,5.6-1.2c2.2,2.2,4.4,4.7,3.9,8.3
	c-0.2,1.5-0.9,1.2-2.1,0.7c-2.2-1.1-4.1-3-6.8-2.8c-0.1-0.6-0.1-1.3-0.9-1.4c-0.2,0-0.5,0.4-0.5,0.5c0.1,0.8,0.8,0.8,1.4,0.9
	c-2.1,3.4-1.4,5.2,2.9,4.9c1-0.1,2.4-1.2,2.9,0.6c2.3,7.8,4.7,15.5,2.6,23.8c-2.3,9.5-4.4,19.1-7.4,28.4c-0.3,0.9-1.5,2.4,0.2,3
	c1.6,0.6,1.6-1.2,2.1-2.1c1.3-2.7,3.1-5.1,5-7.4c6-7.4,7.5-15.6,5-24.8c-1.5-5.6,0.3-11.7-2.6-17.2c-0.7-1.3-0.3-4.6,1.3-6.6
	c0.8-1,1.1-2.1,0.2-3.2c-1.1-1.2-2.1-2.7-0.3-3.6c1.5-0.7,2.6,0.9,3.5,2.1c2.4,3.1,2.5,3,4.9,3.2c-1.8-2.2-1.8-2.1,0.7-4.3
	c1.1-0.9,0.2-1.8-0.5-2.5c-1.6-1.6-2.1-3.3-1.2-5.4c2.6,1.4,2.6,1.4,6.5-0.1c-4-2.4-6.1-6.4-4.3-9c2.2-3.2,5-3.4,7.9-1.1
	c-0.3,2.2-3.2-0.5-3.1,2.2c0.2,4.2,1.2,8.1,4.7,11c0.7-1.5,1.3-2.6,1.9-3.7c0.3,1.1-0.6,2.7,1.4,3.6c0.4-1.5,1.6-2.4,2.6-3.4
	c1-1.1,1.4-2.7,0.1-3.5c-2-1.2-1.9,0.9-2.3,2c-0.3,0.9-1,1.2-1.9,1.4c-4.2-4.6-4-5.6,1.8-8.3c-4.8-3-6.8-6.4-1.2-10.3
	c0.3-0.2,0.3-0.9,0.4-1.4c1.2-0.1,2.4-0.3,2.5-1.8c0-0.2-0.4-0.6-0.6-0.6c-1.5,0.1-1.7,1.3-1.9,2.5c-1.6-1-3.5,2.8-4.6,0.2
	c-1.2-2.9-3.2-5.7-3.4-9.5c1.4,1.1,2.4,1.9,3.4,2.7c1.6,1.3,3.4,1.6,4.5-0.2c0.8-1.2,3.6-1.1,2.6-3c-1-1.8-3,0.4-4.5-0.1
	c-0.3-0.1-0.7,0-1,0l0,0c-1-0.5-2-1-1.8-1c1.6,1.7,1.6-9.6,5.3-1.4c0.9-3.2,0.4-5.5-2.2-6.9c-3.6-1.9-2.6,3.1-5.1,3.4
	c0.2-2.6-0.3-6.5,2.4-6.5c4.7,0.1,3.1-2.6,3.5-4.8c0.3-0.1,0.6-0.1,0.9-0.2c-0.1-0.1-0.2-0.3-0.2-0.4c-0.2,0.2-0.4,0.4-0.7,0.6
	c-1.9,0-4.1-0.2-3.8-2.8c0.4-3,2.1-0.4,3.2-0.5c1.1-0.2,2.3-0.4,3.3-1c1.1-0.6,2.8-1.5,2.8-2.3c0.1-2.2-2.4-0.6-2.9-1.2
	c-1.5-1.9-3.8-0.1-6-1.6c2.9-0.9,3-4,5.1-4.6c1-0.3,2.2,0.5,2.2-1.2c0-1.3,1.6-2.9-0.6-3.9c-1.3-0.6-2.1-1.5-1.9-3.2
	c1.3-0.7,5.7,1.7,3.7-1.1c-3.2-4.6,0.3-5.5,2-7.7c0.9-1.2,1-2.5,0-3.7c-0.8-0.9-1-1.7,0.2-2.4c0.9-0.6,1.8-0.8,2.5,0.5
	c0.6,1.1,1.3,1.6,2.1,0.3c0.5-0.9,1.7-2.7,0.1-2.8c-3.2-0.2-1.3-3.5-3.3-4.5c-1.7,1.2-2.2,3.7-4.3,4.5c-3.2,1.1-3.2,3.7-3.8,6.6
	c-0.9,4.2,1.4,10-4.7,12.4c-0.8,0.3-0.8,1.4-0.5,2.2c1.5,3.8-1.3,3.1-3.3,3c0.1-1,0.2-2.1,0.3-3.1c0.2-0.7,0.4-1.4,0.6-2.1
	c2.1-2.2,4.7-4.2,4.2-7.8c1.1-0.2,2.1-0.4,1.2-1.9c2-4.5,0.7-9.4,1.5-14.1c1.1-6.6,4.4-12,6.7-17.9c1.3,0,2.1-0.7,2.2-2.1
	c0.1-0.4,0.2-0.7,0.2-1.1c1.5,0.1,2.3,2.7,3.8,1.5c1.9-1.5-0.5-2.4-0.9-3.7c-0.5-1.6-1.3-3-1.1-4.8c0,0,0,0,0,0
	c3.3-0.4,3.1-3.2,3.8-5.4c0.3-0.5,0.6-1,0.8-1.5c2.4,1.7-1.9,4.4,1.1,6.5c0.2-3.5,2.4-6.2,1.3-9.5c2.1-3.3,3.1-7,5.3-10.4
	c1.8-2.7,3.8-4.3,6.5-5.6c0.9,3.3-1.9,5.5-2.6,8.3c-3.4,13.1-9.5,25.1-15.5,37.2c-1.7,3.5-2.7,6.4,0.7,9.3c1.5-2,3-3.7,4.2,0.5
	c0.5,1.9,1.4,3.7,2.2,5.5c-0.1,0.1-0.2,0.2-0.3,0.4c0,0,0.2,0.2,0.2,0.2c0.1-0.1,0.2-0.2,0.4-0.3c0.4,0.2,0.8,0.4,1.2,0.7
	c-2.1,3.1-0.8,6,0.4,9.1c0.7,1.8-0.1,3.6-2.4,4.1c-4.5,1-3.9,3.6-2.1,6.7c1.9,3.4,3,6.7,1.4,10.7c-1,2.6-1.4,5.8,0.2,8.6
	c1.2,2.9-1,6.4,1.5,9.2c-0.1,0.2-0.1,0.4-0.2,0.6c0.1,1.2,0.1,2.4,0.2,3.6c0.1,1,0.1,2,0.2,3c0,2.9-2,5.8-0.2,8.8
	c-1.9,3.6-1.7,6.8,1.6,9.5c2.9,2.4,2.3,6,3.2,9c1.6,5.6,0.5,11.5,4.2,17c6,8.9,10.6,18.7,19.9,24.8c0.4,0.3,1.2,0.4,0.5,1.3
	c-2.6,3.3,1.2,1.6,1.9,2.3c-1.1,3.9,2.7,5.8,3.9,8.8c1,2.5,3.5,5.3,4,7.3c0.9,3.8,3.2,5.4,5.7,7.4c0.9,0.7,2.9,1,2.2,2.8
	c-2.1,5.4,1.1,10.4,1.1,15.6c-2.3-1.2-3.9-1.3-3.4,2.1c0.2,1.5,0,3,0,5.5c-2.2-3.6-9.5-6.4-12.1-5.2c-0.5,0.2-1.1,0.9-1.2,1.5
	c-1.2,4.3-0.8,8.5,1.5,12.5c2,3.5,5.2,2.1,8,2.4c1.4,0.1,3.3-2,4,1c-9,1-18,2.1-27,3.1c-0.3-0.1-0.6-0.1-0.8,0.2
	c-2.3,1-4.7,1-7.2,0.8c-1.1-0.8-0.8-3.3-3.1-2.5c-2.2,0.9-4.5-0.7-6.8,0.7c-1.6,1-3.7,0.2-4.8-1.3c-1.4-1.9,0-2.8,1.6-3.7
	c1.1-0.6,1-2,1.1-3.1c0.9-6-3.3-8.2-7.6-10.7c-0.9,2.7-0.3,5-0.1,7.3c0.5,5.2,1.2,10.6-3.8,14.4c-1.1,0.9-1.8,2-1.4,3.5
	c1.4-1.4,3.9,0.6,4.6-0.7c2.5-4.8,6-2.6,9.3-1.9c-6.8,3.4-13,8.1-21,8.3c-1.7,0-3.4,0.8-5-0.4c-3-1.2-3.7-3.2-2.3-6.4
	c1.4,0.4,1.6,3.2,3.6,1.7c1.5-1.1,2.3-3,1.6-4.4c-2.3-4.8-0.6-9.4,0-14.1c0.1-1.1,0.3-2.7-0.3-3.4c-1.8-2-0.6-3.5,0.2-5.3
	c2.4-5.6,0.9-11-3.6-14.6c-1.5-1.2-2.6-0.4-2.5,0.6c0.5,4.3-3.4,7.2-3.5,11c-0.1,6.2-1.8,12.3-1.6,18.4c0.2,3.1,1,6.1-0.5,9.4
	c-1.4-1.2-1-2.5-1.3-3.5c-1.4-4.6-4.1-5.3-7.5-2c-1.3,1.3-2.5,2.7-2.3,4.7c-3,0.5-4,2.6-4.8,6c3.1-1.6,4-3.7,4.8-6
	c1.6-0.5,2.2-3,4.9-2.3c-2.4,3.9-6.1,6.9-6.9,11.4c-0.7,0.3-1.7,0.4-1.9,1.4c-1.9-1-3.9,0.5-5.9,0c-0.4-0.7-0.3-1.7-1.3-1.9
	c-0.1,0-0.4,0.2-0.4,0.3c0,1.1,1,1.1,1.6,1.6c0.5,1.2-1.3,1.5-1.1,2.6c-9.3-3-18-1.9-26,3.8l-0.2,0.1c-0.8,0-1.4,0.1-1.7,1
	c-6.1,3.7-10.5,9.2-14.6,14.8c-6,8.4-10.8,17.4-11.8,28c-2.8,11.6,1.7,18.3,13.2,19.8c3.3,0.4,6.5,0.8,9.8,1.2
	c3,3.1,6.1,6.1,9.1,9.3c1.7,1.9-0.8,3.2-0.9,4.9c-0.5,0.2-2.2-0.4-1.3,0.9c2.1,2.7,3.7,5.9,7.3,7.2l-0.1-0.1
	c-0.9,1.1,0.6,1.9,0.3,2.9c-2.9-1.4-5.5-1.8-8,1.1c-1,1.2-1.4,2.2-0.7,3.5c0.6,1.3,1.7,1.2,3,0.8c2.9-0.8,5-2.4,5.8-5.4
	c0.5,0.4,1.2,0.6,1.5,1.1c19.8,26.8,21.4,63.8,2.5,91.2c-1.1,1.5-1.8,3.6-4.1,4c-0.4-1.9,1.1-3,1.9-4.4c4.2-7.3,9-14.3,10.4-22.9
	c0.5-2.8,0.8-5-3.1-5c-2.4,0-4.3-0.8-3.7-3.9c0.2-1.2-0.5-1.8-1.6-2c-0.1-4.3,0.1-8.6-0.4-12.9c-1.3-11.9-4.2-23.4-11.8-33.1
	c-0.6-1.7-1.5-3.1-3-4.1l0.1,0c-0.7-1.3-1-3.1-3.1-3.1l0.1,0.1c0.3-1,0.1-1.6-1.1-1.1c0,0,0.1,0.1,0.1,0.1c0.9-0.8-0.1-1.3-0.3-1.9
	c2.9-1.5,0.1-3.4,0.4-5c0.9-3.7-2.3-2.8-3.8-3.7c-2-1.3-3.4-0.5-4.2,1.6c-0.8-0.4-1.6-0.7-2.4-1.1l0,0.1c-0.4-0.4-0.7-0.7-1.1-1.1
	l0.1,0.1c-0.4-0.3-0.7-0.6-1.1-1c-0.3-0.4-0.6-0.8-0.9-1.2c0.1-3.4-3.3-5.8-2.3-9.5c0.3-1-1.3-1.2-2.3-1.3c-3.2-0.5-6.3-0.6-8.5,2.3
	c-3.3,0.1-6.5-0.7-9.7-1.5c-11.8-2.8-23.7-3.8-35.5,0.1c-4.1,0.2-7.5,2.5-11.3,3.5c-0.8-0.6-0.7-1.1-0.4-2.1c2.1-5.6,2-5.6-3.7-4.7
	c-0.5,0.1-1-0.6-1.6-0.9c3.6-2.6,7.6-4.5,11.9-5.9c1.9,0.1,3.8-0.9,5.9-0.4c-7.8-4.4-8.3-12.5-10.6-19.6c-0.7-2.1-0.4-4.2-3.2-5.5
	c-1.9-0.9-0.6-3.9-0.8-6.3c1.8,1.1,0.7,3.8,3.4,4.3c1.4-10.5,6-20.1,8.6-30.3l0,0c3.5-3.5,5.9-7.8,8.4-11.9c0.9-1.4,1.5-3,3.5-3.2
	L394.1,449.2z M460,538.1c0.2,0.2,0.4,0.4,0.5,0.7c0.1-0.2,0.1-0.4,0.2-0.6C460.5,538.2,460.2,538.2,460,538.1
	c-0.1-0.2-0.2-0.4-0.2-0.6c-0.1,0-0.3,0.1-0.4,0.1C459.6,537.7,459.8,537.9,460,538.1z M520,373.1c0.8-0.1,1.9-0.3,1.3-1.3
	c-0.7-1.1-1.6-0.5-2.3,0.3c-1.1,0.2-2.5-0.5-3.3,0.9C519.3,375.3,519.3,375.3,520,373.1z M538,372.1c0.6,0.7,1.3,1,2.1,0.6
	c0.2-0.1,0.2-0.5,0.3-0.7C539.6,372,538.8,372.1,538,372.1c-0.5-3.6-2.8-3.8-8.1,0C533.2,372.1,535.6,372.1,538,372.1z M550,417.1
	L550,417.1c-0.1,1.4,0.3,3.1-2.4,2.2c-3.8-1.3-5.3,0.3-4.3,4.1c1,3.7,3.4,7.9,7,7.2c3.2-0.6,7.6-4.1,8.3-7.1
	c1.6-6.5,8.6-12.2,3.7-19.8c2.6-4.7-0.2-8.9-0.6-13.5c-2.4,0.7-1.1,4-3.8,3.9c-0.1-0.1-0.2-0.1-0.3-0.2c0.1,0.1,0.2,0.1,0.3,0.2
	c0.2,1.7-0.5,3.6,1,5l0,0c1.4,7.8-1.5,14.9-3.6,22.6c-2.7-2.9-2.8-6.6-4.3-9.5c-0.7-1.4-1.8-2.9-2.5-1c-1.1,2.7-2.2,3.3-4.8,2.4
	c-0.9-0.3-1.6,0.3-1.6,1.3c0,0.6,0,1.6,0.9,1.1C545.7,414.5,547.5,417.9,550,417.1z M413.5,385.9c-1.7,2.5-5.7,1.3-6.9,3.4
	c-1.7,2.8,2.1,2.3,3.3,3.5c0.6,0.6,0.8,1.4,1.3,2.1c1.7,2.4,3.7,4.7,5.2,7.2c1.6,2.6,3.5,1.2,5.2,0.7c2.3-0.7,0.9-2.4,0.6-3.7
	c-1-4.7-5.9-7.2-6.8-11.9C415.2,386.8,414.3,386.5,413.5,385.9z M483.9,612.3c0.5-2.1,1-4,1.5-5.9c0.6-2,1.2-4.2-1.4-5
	c-2.7-0.9-4.4,1.1-5.5,3.2c-1.1,2.1-0.3,4,2.1,4.6C482.3,609.5,482.5,611.2,483.9,612.3z M448.2,541.1c2.1-0.5,5.3-1,5.4-4.1
	c0.1-2.1-2.3-3.8-4.5-3.8c-3.3,0-4.3,3-4.8,5.4C443.9,540.6,446,541.1,448.2,541.1z M546.5,347.7c-0.3-4.2-3.3-5.9-5.9-7.2
	c-1.7-0.8-1.8,2.5-2.1,3.6c-0.6,2.3,1.2,4.6,3.2,5.6C543.8,350.8,545,348.2,546.5,347.7z M511.9,363.8c1.8,1.5,3,4.1,5.7,2.5
	c0.9-0.6,1.8-2.1,1-3C516.4,360.8,514.2,364.1,511.9,363.8z M512.7,348.5c-0.8-2.4-3.5-0.5-4.9-1.9c-0.4-0.4-1.6,1.4-1.3,1.4
	c2.1,0.6,1.4,3.8,3.6,3.9C512.3,352,512,349.9,512.7,348.5z M519.9,382.8c2.7,2.3,4.8,2.9,7.2,1.4c0.8-0.5,0.5-1.2-0.2-2
	C524.3,379.5,522.7,382.3,519.9,382.8z M540,396.7c-2.4,1.4-3.8,2.1-4.1,3.8c0,0.3,1.3,1.3,1.8,1.1
	C539.7,401.2,539.3,399.4,540,396.7z M537.3,408.6c0.8,2.4,1.8,3.5,3.8,3.1c0.3-0.1,0.8-0.8,0.7-1.1
	C541.1,408.6,539.4,408.8,537.3,408.6z M536.8,228.6c-0.2-0.7-0.4-1.2-1-0.9c-0.3,0.2-0.7,0.7-0.6,1.1c0,0.3,0.6,0.5,0.9,0.8
	C536.4,229.2,536.7,228.8,536.8,228.6z M534,231.3c-0.5-0.3-0.8-0.5-1.2-0.7c-0.2,0.4-0.6,0.8-0.5,1.1c0,0.3,0.6,0.5,0.9,0.8
	C533.4,232.2,533.7,231.8,534,231.3z M547.6,432.8c-0.3-0.1-0.6-0.4-0.8-0.3c-0.2,0.1-0.3,0.5-0.4,0.8c0.3,0.1,0.6,0.4,0.8,0.3
	C547.4,433.5,547.5,433.1,547.6,432.8z M513.4,372.7c-0.3-0.1-0.4-0.1-0.6-0.2c0,0.1,0.1,0.2,0.1,0.3
	C513,372.8,513.1,372.8,513.4,372.7z"/>
<path class="st1" d="M543.8,287.1c-1.6-2.8-1.3-6-0.2-8.6c1.6-4.1,0.6-7.4-1.4-10.7c-1.7-3-2.3-5.7,2.1-6.7c2.3-0.5,3.1-2.3,2.4-4.1
	c-1.2-3.1-2.5-6-0.4-9.1c-0.4-0.2-0.8-0.4-1.2-0.7l-0.3-0.3c-0.7-1.8-1.6-3.6-2.2-5.5c-1.2-4.1-2.7-2.5-4.2-0.5
	c-3.4-2.8-2.4-5.8-0.7-9.3c5.9-12.1,12-24.1,15.5-37.2c0.7-2.8,3.5-5,2.6-8.3c0,0,0.1-0.1,0.1-0.1c1.4,0,2-0.8,2-2.1c0,0,0,0,0,0
	c3,0.4,5.2-0.4,6.1-3.6c0.9-3.3,3.5-5.1,6.6-6.3c4.8-1.9,10.3-2.7,14.2-5.7c3.2-2.5,6.7-5.4,8.6-9.8c2.8-6.6,12-9.5,17.7-6.5
	c1,0.5,1.8,0.9,1.7,2.1c-0.2,2-1.4,0.4-2.2,0.5c-3.3,0.2-4.6,4.3-8,4.1c0,1.2-0.3,2.5,0,3.6c0.4,1.1,1.7,0.8,2.7,0.7
	c4.7-0.3,8.6-3.6,13.5-3.2c5.3,0.3,10.5,0.5,15.8,0.9c1.5,0.1,2.5-0.3,3.1-1.7c1.3-3.2,4.2-4,6.9-3.5c4,0.6,8.1,1.1,11.6,3.5
	c-1,0-2.1,0-3.1,0c-0.4-0.1-0.8-0.3-1.2-0.4c0.3,0.2,0.7,0.4,1,0.6c1.1,1.2,3.2,2.1,2.4,3.9c-0.8,1.9-2.6,0.6-3.9,0.2
	c-1.7-0.5-2.7,0.3-4,1.2c-1.3,0.9-2.1,2.7-4.7,1.8c-1.1-0.4-3.7,2.2-5,3.8c-0.6,0.7,1.1,2.2,2,2.4c5.1,1.1,7.8,5,10.8,8.5
	c1.5-0.9-0.8-2.9,1-3.8c0.9,0.9,2.1,0.9,3.3-0.2c1-0.9,1.5-0.1,2,0.6c0.8,1.3,1.9,1.2,3,0.5c2.2-1.5,3.3-0.1,4.4,1.5
	c1,1.5,2.9,2.3,3.8,3.3c3.4,3.9,9.1,3.8,12,8c-0.8,3.6,3.9,4,4.1,7c-2.9,1-3.6,2.5-1.6,5.2c1.5,2,2.6,4.5,2.5,6.9
	c-0.4,4.9,1.3,8.9,3.7,13c2.5,4.3,1.9,5.1-3.4,5.8c2.3,2.3,3.8,4.8,2.5,8c-1.7,0.8-2-3-4.2-1.2c-0.1,1.3,0.8,2.1,1.8,2.6
	c1.8,0.9,4.2,1.3,3.5,4c-0.8,2.9-3.3-0.5-5,1.4c3.9,0.8,1.8,2.8,1.5,5c-1.5,9.6-0.8,19.2-1,28.9c-0.3,12.8-0.7,25.5-2.2,38.2
	c-0.3,2.6-0.1,5,1.7,7.5c3.2,4.2,1.4,8.3-3.5,9c-1.5,0.2-2.1,0.4-2.2,1.9c-0.7,9.4-7.9,15.1-12.7,22.1c-5,7.4-13.1,11.3-19.6,17.2
	c-4,3.6-10.4,4.6-11.6,11.4c-0.3,1.5-2.9,2.5-4.9,3c-2.6,0.6-5.1,1.5-7.7,2c-1.6,0.3-2.4,0.9-2.3,2.6c-16.3,0.1-30.5-5.4-42.6-16.2
	c-0.7-0.7-4.4,1-1.9-2.3c0.7-0.9,0-1-0.5-1.3c-9.3-6.1-13.9-15.9-19.9-24.8c-3.7-5.5-2.5-11.4-4.2-17c-0.9-3.1-0.3-6.7-3.2-9
	c0.6-2.4,1.2-4.7,1.1-7.3c-0.1-2-0.9-2.7-2.7-2.3c-1.8-3,0.2-5.8,0.2-8.8c2.9,3.8,3.2,8.6,4.7,12.9c2.2,5.9,3,12.2,5.1,18.2
	c1.9,5.5,4.5,7.6,8.9,10.5c3.1,2,5.4,7.6,8.5,9.9c3,2.3,6.4,3.5,7.5,7.6c0.1,0.5,1,0.8,1.5,1.3c1.6,2.1,3.4,4.4,3.3,7
	c-0.2,3.9,1.7,5.7,4.7,7.2c2.9,1.5,4.2,5.5,7.8,5.9c7.7,0.8,15.4,1.5,23.1-0.7c6.1-1.8,9.9-5.7,11.6-11.7c0.8-2.7,1.7-5.2,4.2-6.5
	c2.1-1.2,2.9-3.1,4-4.9c1.8-3.3,2.9-7.2,8-6.5c1.1,0.1,1.5-1.1,1.8-2.1c0.5-1.4,1.2-2.5,2.6-3.5c6.2-4.2,12.3-8.5,14.4-16.3
	c0.3-1.1,1.1-1.6,2.1-1.8c4.6-0.7,5.8-4.1,5.7-8c-0.1-3.6,0.9-6.9,2.3-10.1c3.1-7.2,5.6-14.5,2.5-22.5c-0.3-0.7-0.3-1.8,0.1-2.4
	c1.7-2.5,2.3-5-0.5-7c-3-2.1-5,0.5-7.5,1.7c-6.1,2.9-10,9.4-17.7,9.9c-4.1,0.2-7.5-1.2-11.2-1.8c-2.3-0.2-3.8-1.7-5-3.6
	c2,0.6,4.2,0.9,6,1.8c7,3.5,11.8,1.3,15-6c1.3,0.3,2.6,0.8,3.9,0.9c1.2,0.1,3,0.7,3.6-0.8c0.7-1.7-1.3-2-2.2-2.7
	c-1.9-1.5-4-2.9-6-4.3c0.3-1,1.1-1.1,2-1.1c0.2,0.2,0.5,0.4,0.7,0.6c0.1-0.2,0.1-0.3,0.2-0.5c-0.3,0-0.6-0.1-0.9-0.1
	c-0.5-1.3-1-2.7-1.5-4.1c6.3,1.3,10-3.2,11.6-6.8c0.5-1.1,0.4-1.8-0.4-2.5c-7.5-6.7-15.7-11.7-26.4-10.5c-3.1,0.4-7.1-1-7.1-2.9
	c0-3.3,4.1-3.2,6.8-3.1c6.9,0.1,13.9,0.3,20.3,3.8c1.5,0.8,4.9,2,3.6-1.6c-1.6-4.6,0.3-8.9-0.2-13.3c-0.5-3.9-3.1-7.5-2-11.7
	c0.2-0.7-1.2-0.8-2-1.1c-4.9-1.8-10.7-2.7-9.6-10.2c0.1-0.5-0.5-1.2-0.8-1.8c-3.2-4.9-5.7-10.5-12.9-10.4c-0.6,0-1.5-0.8-1.9-1.4
	c-1.1-2.2-3.1-2.3-5.1-2.4c-1.8,0.2-3.6,1-5.3,0.7c-6.5-1.4-12.9-3-19.4,0.2c-1.2,0.6-2.1-0.5-2.6-1.7c0.6-0.1,1.4-0.1,1.5-1
	c0-0.1-0.4-0.5-0.6-0.5c-0.8,0.2-0.9,0.8-0.8,1.5c-2.1-0.1-4.3-0.5-6.2,0.9c-4.4-2.1-10.1-0.5-12.5,1.3c-4.5,3.4-9.9,5.2-14,8.7
	c-4,3.4-10.5,3.7-12.5,9.7c-1.5,4.6-1,9.5-1.9,14.1c-0.7,3.6,1.2,7.8-2.1,10.8c-2.5,2.3-3.1,5-2.7,8.1c-4.6,6-4.1,13.4-5.1,20.3
	C546.9,273.9,547.4,280.9,543.8,287.1z M594,169.1L594,169.1c-0.2-1.2,0.2-2.4-0.6-3.3c-4.7,1.1-6.2,7.9-12.3,6.7
	c-0.4-0.1-3.8,1.7-1.8,4.2c0.8,1,0.1,1.6-0.6,1.9c-1.5,0.9-1.8,1.9-0.6,3.2c1.8,1.8,2.1-0.5,2.8-1.2c3.6-3.3,3.5-3.3,7.7-1.7
	c0.4,0.2,1,0.1,1.5-0.1c2.1-0.9,4.5-1.5,5.7-3.7c1.8-3.2,3.3-4.7,4.7,0.3c0.7,2.5,2.1,3.2,4.4,1.4c1.2-0.9,2.7-1.3,4-1.9
	c1.2-0.5,2.1-1.2,1.7-2.6c-0.3-1.2-1.5-1.3-2.5-1.2c-3.6,0.3-6.4-1.3-9.3-2.8c1.3-1.9,3.6-0.4,4.7-2.3c-0.3-0.3-0.6-0.7-1-0.9
	C597.8,162.5,596.9,167.8,594,169.1z M642.4,179.2c-1.7-1.2-3-2.3-4.1-4c-1.4-2.1-3.4-4.2-6.4-4.1c-1.1,0-2.6-2.3-3.2,0.7
	c-0.6,3,1.5,2.3,3,2.4c1.9,0.1,4.4-0.6,5,2.1C637.5,179.6,639.8,179.4,642.4,179.2z M619.4,178.4c2.1-1.1,5.7-0.2,6.2-4
	c0.2-1.3-1.3-1.5-2.2-1.1c-2.6,1.1-6.5,0.2-7.6,3.4C615.1,178.7,617.8,177.7,619.4,178.4z M628.6,385.4c-0.1-0.3-0.1-0.7-0.3-0.7
	c-0.2-0.1-0.5,0.2-0.8,0.3c0.1,0.3,0.1,0.7,0.3,0.7C628,385.7,628.4,385.5,628.6,385.4z"/>
<path class="st1" d="M537.1,212.1c-0.2,1.7,0.6,3.2,1.1,4.8c0.4,1.2,2.9,2.2,0.9,3.7c-1.6,1.2-2.3-1.5-3.8-1.5
	C533.8,216.2,534.1,213.9,537.1,212.1z"/>
<path class="st1" d="M544.1,202.2c1.1,3.3-1.1,6-1.3,9.5c-3-2.1,1.3-4.8-1.1-6.5C541.9,203.8,543,203,544.1,202.2z"/>
<path class="st1" d="M540.8,206.7c-0.7,2.2-0.5,5-3.8,5.4C539.1,210.8,538.3,207.6,540.8,206.7z"/>
<path class="st1" d="M535.1,220.2c-0.1,1.4-0.9,2-2.2,2.1C532.6,220.4,533.8,220.3,535.1,220.2z"/>
<path class="st1" d="M524.5,254.3c0.9,1.5-0.1,1.7-1.2,1.9C523.1,255.1,523.2,254.3,524.5,254.3z"/>
<path class="st0" d="M558,184c0,1.4-0.7,2.1-2,2.1C556.3,185.1,557.1,184.5,558,184z"/>
<path class="st1" d="M519.1,263.9c-0.2,0.7-0.4,1.4-0.6,2.1C518.5,265.2,517.6,264.3,519.1,263.9z"/>
<path class="st0" d="M722.3,267.6c-0.5,4.6-0.5,8.9,5.7,9.5c1.4,0.1,3.3,1.2,2.7,2.3c-2.4,4.3,1.6,4.6,3.4,6.5
	c4.5,4.9,6,11.2,7.9,17.3c2.5,7.7,1.5,15.5,1.1,23.7c-2.4-1.3-4.5-3.4-8.2-2c5.4,2.6,6.1,7,6.6,11.8c0.1,1.5,0.5,3.7,2.9,3.3
	c2.4-0.4,0.7-2.4,1.2-3.6c1.3-3.4-2.2-7.2,1.2-10.8c2.2,4.6,2,9.4,2.9,13.8c0.3,1.5,0.2,2.2,1.8,2.7c3.8,1.3,2.7,3.5,0.7,5.6
	c-4.8,5-3.8,12.4,2.3,15.5c1.6,0.8,2.3,2.2,4.5,4.1c-0.7-5.9,2.2-9.5,5.5-13c2.2-2.3,4.5-3,7.1-1.3c2.7,1.7,1.3,3.9,0.2,6.1
	c-2.1,4.6-3.8,9.3-10,9.6c-2.9,0.2-3.9,3.8-3.2,4.7c2.6,3.5-1.6,5.2-1.5,7.8c0.1,3.5-1,6.9-2.8,9.9c-3.5,6.1-4.8,12.8-5.7,19.7
	c-0.7,4.9-5.7,7.9-5.7,13.1c0,0.8-0.3,1.5-0.6,2.6c4-0.3,7.5-0.6,8.1,4.7c0.2,2.2,1.8,1.1,3.2,0c5.3-4.2,6.6-10.6,9.4-16.1
	c1.4-2.6,2.3-5.5,3.1-8.4c2.3-8.1,9.4-12.2,14.8-17.7c1.8-1.8,3.6-3.6,4.2-5.9c1.6-5.7,6.8-7.9,10.3-11.6c1.1-1.2,3-2,5.4-0.5
	c-2.2,1.5-4.1,2.6-5.9,4c-1.8,1.4-4.6,2.7-0.6,4.9c1.9,1,0.1,1.9-0.5,2.7c-1.4,1.7-2.7,3.4-4.2,4.9c-6.4,6.4-11.3,13.9-17.1,22.3
	c-0.7-5.9,3.7-8.2,5.3-12.3c-3,0.2-4,2.1-5,3.8c-5,8.6-8.6,17.9-13.1,26.8c-3.5,7.1-4,14.9-7.3,22c-1.1,2.5,1.6,4.9,1.4,5.8
	c-1.2,5.9,3,1,4,2.2c0.4,0.5,1.5,0.3,3,0.5c-2.1,2.2-4.1,3.7-5.3,5.7c-2.1,3.7,2.4,3.2,4.2,5.3c-7.4,1.1-13.1-1.1-18.2-5.5
	c-9.3-8-20.1-12-32.2-12.9c-1.4-0.1-3.2,0.2-4.3,1c-3.2,2.4-6.1,1.4-9.4,0.3c-9.4-3.1-18.4-7.3-28-9.9c-2.8-0.8-4.9-3.4-7.9-4.1
	c-2-0.5-3.7-0.8-4,2c-2.8,1.6-5.4,0.6-8-0.4c-2.6-2.2-6.1-0.1-8.8-2c-2.3-2.7,2.1-4.8,0.7-7.5c0.8-2.3,4.7-2.3,4.1-5.7
	c1.8-4.5,2.3-9.2,3-13.9c-0.8-1.7,1.6-2.8,0.7-4.9c-3.3,2.5-7.7,3.6-7.5,8.9c-1.9,3.5-5.3,6.6-3.1,11.2c-0.1,2.1,2.6,2.3,2.8,4.2
	c-2.1-0.8-3.8,0.7-5.7,1c0.5-2.9-3.2-5.7,0.2-8.7c0.7-0.7-0.8-1.6-1.7-1.8c-1.1-0.2-1.8-2-3-1c-0.5,0.5-0.8,2.1-0.4,2.7
	c1.8,2.8,1.2,7,4.9,8.8c-0.5,1.8-1.1,3.6-1.6,5.4c-0.5,0.1-1.1,0.1-1.6,0.2c-4.2,0-8.3-0.2-12.5,0c-8.5,0.3-17,0.7-25.4,1
	c0.1-3.4,0.5-6.9-0.4-10.2c2.2-0.8,3.1,2.3,5.5,1.2c-1.7-2.5,1.4-5.9-1.9-8.2c1.9-1-0.3-3.1,1.4-4.3c1.1,0.8,2.2,1.5,3.4,2.3
	c1.4,5.1,3.9,9.4,8.9,11.8c0.7,1.8-2.6,2.8-1.2,4.4c1.5,1.6,3.4-0.1,5.1-0.4c3.1-0.4,6.1-1.2,9.2-1.9c1.6-0.3,3.9-0.4,3.6-2.5
	c-0.3-2,0.4-4.5-1.8-5.9c-1.9-1.2-3.1,0.5-4.2,1.6c-3,3-6.2,5.3-10.6,4.7c0.7-1.7,2.2-2.7,3.4-4c4-3.9,8.5-7.5,11.1-12.7l-0.1,0
	c1.6,0,2.5-0.9,3-2.3c3.4-3.1,7.1-6.1,9.8-9.9c1.5-0.7,3.7-1.2,2.6-3.3c-0.9-1.7-2.6,0-4,0.3c-1.3,0.4-2.5,0.7-3.8,1.1
	c-1.1,0.3-2.4,1.2-3.2,0c-1-1.7,0.9-2.2,1.8-2.9c1-0.8,2.2-1.5,3.4-1.9c2.5-0.9,4.5-2.2,6-5.2c-5-0.1-9.4-0.3-13.2,2.6
	c-2.5,0.3-5.1,0.3-7.6-0.2c-0.1-1.7,0.8-2.3,2.3-2.6c2.6-0.5,5.1-1.3,7.7-2c2-0.5,4.7-1.5,4.9-3c1.2-6.8,7.6-7.7,11.6-11.4
	c6.4-5.8,14.5-9.7,19.6-17.2c4.8-7.1,12.1-12.7,12.7-22.1c0.1-1.4,0.8-1.7,2.2-1.9c5-0.7,6.7-4.8,3.5-9c-1.9-2.5-2-4.9-1.7-7.5
	c1.4-12.7,1.8-25.5,2.2-38.2c0.3-9.6-0.5-19.3,1-28.9c0.3-2.2,2.5-4.2-1.5-5c1.7-1.9,4.2,1.5,5-1.4c0.7-2.7-1.7-3.1-3.5-4
	c-1-0.5-1.9-1.3-1.8-2.6c2.1-1.9,2.5,1.9,4.2,1.2c1.3-3.2-0.2-5.7-2.5-8c5.3-0.7,5.9-1.5,3.4-5.8c-2.4-4.1-4-8.1-3.7-13
	c0.2-2.4-0.9-5-2.5-6.9c-2.1-2.7-1.3-4.2,1.6-5.2c0.8,1.5,2.6,2.4,2.3,4.5c-0.4,0.2-0.9,0.4-1.3,0.5c-0.1-0.1-0.2-0.1-0.3-0.2
	c0.1,0.1,0.2,0.1,0.3,0.2c0.1,0.6,0.2,1.2,0.4,1.7c1.2-0.3,0.5-1.6,1.1-2.2c7.2,3.6,10.6,10.9,16.1,16.2c5.1,4.9,9.9,10.6,10.7,17.4
	c1.2,10.1,7.3,18.7,7.6,28.8C720.8,265.9,721.8,266.8,722.3,267.6z M703.9,324c-2.2,1.2-3.9,2.9-5.8,5.6c4.1-0.4,5.8-2.2,6-5.4
	c0.6-0.1,1.3-0.2,1.4-1c0-0.2-0.4-0.6-0.5-0.5C704.2,322.7,704.1,323.4,703.9,324z M731,352.1c0.9-3.1,3.3-5,5.6-7.4
	c-2.2,0.3-4.1,0.2-5.7-1.2c1.5-2.1,4-2.7,6.2-4c-0.5-0.6-0.8-1.2-1.4-1.5c-3-1.9-8.5-1-10.4,2.5c-1.3,2.2,0.5,5,2.7,6.6
	C729.9,348.4,730.7,350,731,352.1c-1.2,0.2-2.5-1.4-3.6,0c-0.7,0.9-0.7,2.8,0.1,3C729.6,355.6,730.5,353.9,731,352.1z M712.1,446.2
	c1.1-0.2,1.5-1,2-1.9c1.2-2.3,1.3-6.6,2.7-7.1c6.5-2.2,3.8-6.8,3.7-10.9c-0.2-5.1,4.8-8.3,9.5-6.4c1.4,0.6,2.9,1,4.4,1.6
	c0.6-7.6,2.1-14.7,4-21.7c1.3-4.8,3.8-8.8,6.8-12.4c3.1-3.6,4.7-10.4,2.3-13.9c-1-1.5-2.1-0.5-2.9,0.2c-3,2.9-5.2,6.2-6.8,10.2
	c-3.5,8.5-0.9,9.7-11.2,9.1c-3.3-0.2-5.2,1.7-6.3,4c-3.1,6.8-5.5,14-4.2,21.6c0.4,2.5-0.4,4.9,0.5,7.3c0.3,0.9-0.1,1.8-1.1,1.8
	c-1.1,0.1-0.9-0.9-1.1-1.7c-1.4-4-0.1-8.1-0.5-12.1c-0.1-1.7-0.6-2.9-2.6-2.8c-1.4,0.1-2.3,0.7-2.3,2.1c0,2.7,1.6,6.3-3.6,5.8
	c-0.1,0-0.2,1.5-0.5,2.3c-1.5,4.3-1.3,8.4,0.4,12.6c0.4,1-0.8,2.9,1.3,2.9c1.8,0,2.4-1.6,2.3-3.2c0-1-0.4-1.9-0.6-2.9
	c-0.4-1.6-0.6-3.2,1.6-3.4c2-0.2,1.4,1.4,1.7,2.7c1.1,5.3,0.5,10.7,0.3,16c-0.6,0.1-1.3,0.2-1.4,1c0,0.2,0.4,0.6,0.5,0.5
	C711.9,447.5,712,446.8,712.1,446.2z M715.4,345.3c-2.8-0.3-5.8,0.2-5.6,2.1c0.5,4.6-3.1,4.8-5.5,6.6c-3.2,2.3-5.9,4.6-6.7,9.2
	c-0.6,3.6-1.6,7.6-3.4,10.7c-4.5,7.7-4,15-0.1,22.4c0.7,1.4,2.3,2.5,0.5,4.3c-0.8,0.8-0.4,1.9,0.8,2.3c1.1,0.3,1.9-0.1,2.4-1.2
	c2.1-4.6,2.2-9.7,3.4-14.5c2-7.8,1-15.7,7.6-22.7c4.4-4.7,8.6-9.1,14.2-12.3c1.8-1,1.7-1.5,0.9-3.3
	C722,344.3,717.7,346.6,715.4,345.3z M697.5,418c1.4-4.6,0.1-6-4.1-6c-5.2-0.1-7.6,2.9-8.9,7c-0.5,1.7-1.1,2.4-2.6,3
	c-4,1.6-4.6,3.9-1.6,6.8c1,1,1.4,2,2,3.2c2.5,5-2.7,5.9-4.4,8.5c3.1,3.2,6.8,4.3,11,3.4c1.5-0.3,3.1-0.4,2.2-3.5
	c-0.5-1.7-3-2-2.2-3.9c2.4-5.3,0.5-11.1,2.2-16.5c0.5-1.8-0.8-4.4,1.6-5.3C694.8,413.7,695.6,416.5,697.5,418z M724.2,355.7
	c-3.2,3-6.1,5.3-8.5,8c-2.4,2.7-5.4,5-6.5,8.7c-0.2,0.7-1.2,1.4-0.4,2.2c0.9,0.9,1.9,0.2,2.6-0.4c3.4-3.2,6.8-6.3,10.1-9.6
	C723.7,362.3,724.7,359.7,724.2,355.7z M672.1,400c2.5-1.7,6-2.3,5.3-4.7c-1.2-3.9,6-4.2,2.8-8.2c1.4-0.5,2.1-1.3,0.7-2.4
	c-1-0.8-2.1-0.1-2.5,0.8C676.3,390,672.3,393.5,672.1,400z M601.4,427.6c-2.1,0.4-2.3,2-2.3,3.4c0,1.8-1.3,4.5,1.8,4.8
	c2.3,0.2,4.1-2.2,4.5-3.9C606.1,429.3,602.2,429.7,601.4,427.6z M735.3,309.4c0.8-2.9,1.5-5.6-2.3-6.5c-1.4-0.3-2.5-0.8-3.1,1.1
	C728.5,309,734.1,307,735.3,309.4z M720.5,376.4c-3.8-0.3-6.1,1.2-7.6,4C717.6,383.4,719.1,380.5,720.5,376.4z M732.5,294.6
	c-1.7-2.6,1.8-4.9-1-7.1c-0.7-0.5-1.8-0.5-2.3,0.2c-1.8,2.6,0.7,4.4,1.4,6.6C730.7,294.4,730.9,294.4,732.5,294.6z M652.8,388.4
	c-3.6,3.7-3.7,8.3-3.4,13.1C650.5,397.1,651.7,392.8,652.8,388.4z M724.3,369.9c-3.2-0.5-4.4,2.3-6.6,3.4
	C721.1,374.5,722.6,371.9,724.3,369.9z M698.3,347c-5.2-0.9-5.5-0.7-6.4,3.9C693.9,349.7,695.7,348.6,698.3,347z M740.3,316.1
	c-1.2,1.6-2.5,2.4-4,2.9c1.2,1.6,2.6,2.5,4,1.5C741.5,319.7,741.1,318.2,740.3,316.1z M713.5,384.6c-2.4-1.8-4.3-1.6-5.3,1.5
	C710,385.6,711.8,385.1,713.5,384.6z M725.5,278.9c-0.3-0.1-0.7-0.5-0.8-0.4c-0.4,0.2-0.6,0.6-0.9,1c0.3,0.1,0.6,0.4,0.8,0.4
	C725.2,279.9,725.6,279.6,725.5,278.9z M727.2,369.7c0.1-0.3,0.2-0.5,0.3-0.8c0-0.1-0.3-0.3-0.4-0.2c-0.2,0.1-0.4,0.3-0.6,0.5
	C726.7,369.3,726.9,369.5,727.2,369.7z"/>
<path class="st0" d="M679.9,191.1c-2.9-4.2-8.7-4.1-12-8c-0.9-1-2.8-1.9-3.8-3.3c-1.1-1.6-2.2-3-4.4-1.5c-1.1,0.7-2.1,0.8-3-0.5
	c-0.4-0.7-1-1.4-2-0.6c-1.2,1-2.4,1.1-3.3,0.2c-1.9,0.9,0.5,2.9-1,3.8c-3.1-3.5-5.8-7.4-10.8-8.5c-0.9-0.2-2.6-1.8-2-2.4
	c1.4-1.7,3.9-4.2,5-3.8c2.6,0.9,3.4-0.9,4.7-1.8c1.3-0.9,2.4-1.7,4-1.2c1.3,0.4,3.1,1.7,3.9-0.2c0.8-1.8-1.3-2.8-2.4-3.9l0.2-0.2
	c1,0,2.1,0,3.1,0c8.4,3.9,13.4,10.8,16.3,19.3c0.5,1.4,1.4,2.6,2.8,3.3C679.1,183.7,680.2,187,679.9,191.1z M648,174.1
	c-0.3-0.5-0.6-0.9-0.9-1.4c-0.2,0.2-0.3,0.4-0.5,0.6C647.1,173.5,647.6,173.8,648,174.1c0.1,0.6,0.2,1.4,1,1.4c0.8,0,0.9-0.8,1-1.5
	c0.7,0.2,1.5,0.3,2.2,0.4c0,0,0.3-0.7,0.2-0.8c-0.9-0.9-1.7-0.4-2.4,0.4C649.4,174.1,648.7,174.1,648,174.1z"/>
<path class="st0" d="M757.3,338c-6.4-1.5-5-7.6-6.7-11.8c-0.9-2.2,0.2-5.2,0.5-7.8c0.1-0.8,0.3-1.8,0.8-2.2c2.2-1.8,2.6-1.9,0.6-4.1
	c-2.2-2.4-0.3-4.7-0.4-7c-0.2-4.9-0.9-9.9,2.4-14.3c-0.1,2.2,3.2,2.8,2.6,5.3c-0.9,0.2-2.3-0.9-2.7,0.2c-0.9,2.3,0.2,4.3,1.6,6.4
	c1.7-2.1,0.7-4.2,1.2-6c4,5.1,2.6,10.8,2,16.4c-0.1,1.3-0.7,2.6-1.3,3.7C754.5,323.8,753.6,330.9,757.3,338z"/>
<path class="st0" d="M754.6,290.6c-4.4,0.6-5.4-4-8.5-5.5c0.5-0.2,1.3,0.1,1.2-0.9c0-0.1-0.2-0.3-0.3-0.3c-1-0.1-0.7,0.7-0.9,1.2
	c-0.6-4.8-5.7-6.7-7-11C745.7,278.2,750.3,284.2,754.6,290.6z"/>
<path class="st1" d="M757.2,296.8c-0.5,1.8,0.5,3.9-1.2,6c-1.4-2.1-2.4-4.1-1.6-6.4c0.4-1.1,1.8,0,2.7-0.2
	C757.3,296.3,757.3,296.5,757.2,296.8z"/>
<path class="st2" d="M605,193.1c0.5,1.2,1.5,2.3,2.6,1.7c6.5-3.3,12.9-1.6,19.4-0.2c1.6,0.3,3.5-0.4,5.3-0.7c-0.5,2.5-3,2.8-4.7,4.1
	c0.4,1.7,2.8,2.2,2.4,4.1c-0.8,3.9,1,6.4,3.7,8.9c2.6,2.4,2.3,5.7,0.2,8c-2.5,2.7-1.9,5-0.4,7.6c0.5,1,2.4,2.4,0.4,3.2
	c-3.6,1.5-2.3,5-1.8,6.4c1.3,3.7-0.5,4.2-3.2,5c-3.2,0.9-7.1,0.4-9,4.9c3.6-0.6,4.3,0.9,3.7,4c-0.6,2.8,2.4,7-3.4,7.3
	c-0.2,0-0.5,0.7-0.6,1.2c-1.9,4.7-3,9.4-1.6,14.7c1,3.9,1,8.2,1,12.3c0.1,5.6,1.4,10.4,6.9,13c2,1,3.4,2.6,4.9,4.2
	c0.8,0.9,1.6,1.8,1,3.1c-0.7,1.5-1.9,0.7-3,0.7c-5,0-10.3-3.1-15.1,1.3c-0.8,0.7-3.3,0.5-4.3-0.2c-6.5-4.9-13.2-3.8-20.1-1.3
	c-0.7-3,0.1-5.6,1.9-7.9c0.9-1.1,0.4-2.2-0.3-3.2c-0.5-0.6-1-0.5-1.6,0c-2.3,2-6,1.2-7.8,4.3c-0.4,0.8-1.4,0.5-2.1-0.2
	c-4.1-4-6.8-3.5-9.2,1.8c2.6,0.2,6.6-0.3,6.3,3.1c-0.4,4.9-1.4,9.2,3.3,13c1,0.8,1.6,4.7,3.6,4.3c3-0.5,6-2.2,5.8-6.3
	c3.9,4.9,4.2,5,9.1,2c-0.8-1.7-4-0.3-3.9-2.9c0.1-1.6,1.7-1.1,2.7-1.2c2,0.7,3.7,2.2,6,2.2c1.1,3.1,4,1.1,5.8,2.1
	c0.3,0.1,0.5,0.2,0.8,0.3c0.5,0.4,1.2,1.2,1.6,1c5-1.6,5.9,1.7,5.7,5.2c-0.2,4.3,2.5,6.4,5.2,8.7c0.9,0.8,2.6,0.9,2.3,3.3
	c-9.5,0-19.1,0-28.7,0c-0.7,0-1.4,0-1.7-0.7c-0.4-1,0.2-1.5,0.9-2c1.3-0.9,3.2-1.5,3.1-4.1c-3,1.2-5.7,2.1-8.1,3.4
	c-8,4.2-9.8,3.9-13.8-3.8c-0.9-1.7-1.1-2.8-3-1.3c-0.5,0.4-1.1,0.5-1.7,0.8c-0.9-4.7-6.3-4.7-8.6-8.1c-2.4-3.5-3.4-7.8-6.6-10.9
	c-1.1-1.1-1.3-2.8-3.1-1c-0.3,0.4-0.7,1.5-1.2,0.3c-1-2.7-4-3.8-4.6-7.2c-0.6-3.6,0-7.2-1.1-11.8c-0.7,3.1,0.3,5.2-1.2,6.9
	c-2.4-2.7-0.3-6.2-1.5-9.2c3.6-6.2,3.1-13.3,4.1-20c1-7,0.5-14.3,5.1-20.3c0.6,0.6,1.1,1.2,1.7,1.8c2.2-2.8,4.6-0.2,6.9-0.2
	c-3.4,2.3-4.6,5.8-5.2,9.6c-2.1,1.4-1.9,3.7-2.3,5.7c-0.3,1.6,1.4,3.2-0.1,4.7c-3.5,3.5-1.8,7.9-3.2,12.8c4.7-2.5,9.1-3.1,10.8,0.9
	c2.3,5.3,5.7,7.2,11,7.1c2.1,0,4.3,0.2,6.5,0.3c0,1.5,0.7,2.9,2.3,2.4c3.9-1.1,8.7,0.1,11.2-4.6c0.8-1.5,2-3,4.1-3.2
	c4.2-1.3,9.2-2.9,10.8-6.4c2.2-4.7,3.6-10.2,3.4-15.7c0-0.9,0.6-2.5-0.5-2.5c-4.2-0.2-5.1-4-7.5-6.2c-4-3.7-7.2-8.8-13.5-9.1
	c-3-1.2-6.2-1.3-9.4-1.1c-0.5-0.7-1.1-0.8-1.9-0.4c-2-0.8-4-0.5-6-0.3c-0.5-1.6-3.8-1.1-3.2-3.2c0.6-1.8,2.9-1,4.5-1
	c2.1-0.1,4.3,0.1,6.4,0.6c4.9,1.3,9.8,2.5,15,3.7c-0.8-3.3-3.2-3.1-5.2-3.8c-4-1.3-4.1-3.2-1.7-6.4c2.3-3,5.7-5.9,4.4-10.6
	c-0.2-0.7,0.1-1.9,0.6-2.2c2.9-1.6,2.2-4.4,2.7-6.9c0.3-1.8-0.4-4.7,3.1-4.7c1,0,2.8,0.5,2.6-1.3c-0.1-1.4-1.4-2.4-2.9-2.3
	c-4,0.2-2.8-2.9-1.6-3.7c2.7-1.9,2.2-4.2,2.1-6.6C600.8,192.7,602.9,193,605,193.1L605,193.1z M616,299.8c-0.9-1.8-0.4-5.4-3.3-5.3
	c-2.6,0.1-5.7,2.2-5.8,5.2c-0.1,2.6,3.2,3.9,5.1,4.4C614.1,304.6,615.8,302.5,616,299.8z M603.5,291.8c-5.7,0.9-8.7,3.4-9.5,8.2
	C598,298.1,602.6,297.3,603.5,291.8z"/>
<path class="st3" d="M545.3,296.3c1.5-1.7,0.5-3.8,1.2-6.9c1,4.6,0.5,8.3,1.1,11.8c0.6,3.4,3.6,4.5,4.6,7.2c0.4,1.2,0.8,0.1,1.2-0.3
	c1.8-1.8,2-0.1,3.1,1c3.1,3.1,4.1,7.4,6.6,10.9c2.4,3.4,7.7,3.4,8.6,8.1c0.6-0.3,1.2-0.4,1.7-0.8c1.9-1.5,2.1-0.4,3,1.3
	c4,7.7,5.8,8,13.8,3.8c2.5-1.3,5.1-2.2,8.1-3.4c0.1,2.6-1.8,3.1-3.1,4.1c-0.7,0.5-1.3,1.1-0.9,2c0.3,0.7,1,0.7,1.7,0.7
	c9.6,0,19.2,0,28.7,0c0.3-2.4-1.4-2.5-2.3-3.3c-2.7-2.3-5.4-4.5-5.2-8.7c0.1-3.5-0.8-6.8-5.7-5.2c-0.4,0.1-1-0.7-1.6-1
	c1.4-0.6,3.3,0.1,4.4-1.5l-0.1,0c5.9,0.3,11.4-0.6,15.9-4.9c2.6,1,2.5,2.6,1,4.4c-0.9,1.1-2,2-3,3c-2-0.1-3.9-0.3-5.8-0.7
	c-3.2-0.7-5,0.6-3.4,4.1c0.6,1.2,0.7,3,2.6,3.4c1.3-0.8,0.1-3.9,2.7-3.3c1.8,0.4,2.9,1.7,3,3.6c0.1,2.3,1.8,3.5,3.2,4.9
	c3.7,3.5,8.6,2.7,12.6,1.8c7-1.5,11.6-7.4,17.5-11c0.1-0.1,0.2-0.3,0.2-0.4c-0.8-6,4.9-9.4,5.8-14.8c0.3-2.1,2.9-3.9,4.5-5.8
	c1.9-2.3,0-4-0.8-5.9c-0.6-1.4-1.6-1.6-2.8-1c-4.9,2.6-10.1,1.2-15.2,1.3c-3.8,0-7-1.7-9.1-5c3.7,0.6,7.1,2.1,11.2,1.8
	c7.7-0.5,11.6-7,17.7-9.9c2.5-1.2,4.6-3.8,7.5-1.7c2.8,2,2.2,4.5,0.5,7c-0.4,0.6-0.3,1.7-0.1,2.4c3.1,7.9,0.7,15.2-2.5,22.5
	c-1.4,3.2-2.4,6.5-2.3,10.1c0.1,3.9-1.1,7.3-5.7,8c-1.1,0.2-1.8,0.6-2.1,1.8c-2.1,7.8-8.2,12.1-14.4,16.3c-1.4,0.9-2.1,2-2.6,3.5
	c-0.3,1-0.7,2.3-1.8,2.1c-5.1-0.7-6.2,3.3-8,6.5c-1,1.8-1.9,3.7-4,4.9c-2.4,1.3-3.4,3.9-4.2,6.5c-1.7,5.9-5.5,9.9-11.6,11.7
	c-7.7,2.2-15.4,1.5-23.1,0.7c-3.6-0.4-4.9-4.4-7.8-5.9c-3.1-1.5-5-3.3-4.7-7.2c0.2-2.6-1.6-4.9-3.3-7c-0.4-0.5-1.3-0.8-1.5-1.3
	c-1.1-4.1-4.6-5.3-7.5-7.6c-3-2.3-5.4-7.8-8.5-9.9c-4.4-2.9-7-5-8.9-10.5c-2.1-6-2.9-12.3-5.1-18.2c-1.6-4.3-1.9-9-4.7-12.9
	c-0.1-1-0.1-2-0.2-3c1.1-1.3,1-2.5-0.2-3.6C545.1,296.7,545.2,296.5,545.3,296.3z M611,361.6c-3.6-0.4-7.3-0.8-10.9-1.3
	c-1.6-1.7-4.2-2.1-5.4-4.3c2.1,0.2,4.4,0,6.3,1.2c3.9,2.6,8.2,2,12.5,2c2,0,3.6-0.6,3.6-3c0.2-0.2,0.4-0.5,0.3-0.9
	c1.5,0.1,3.3,3.3,3.8,1.3c0.9-3.8,5.2-3.5,6.3-6.5c2.4-0.2,4.9-0.3,7.3-0.5c2.9-0.2,5.4,0.5,6,5c1.5-3,2.7-4.7,1.5-6.9
	c-1.2-2.3-2.4-1.3-3.9-0.3c-0.8,0.5-1.3-0.6-1.8-1.2c-1-1-1.9-2.4-3.7-1.5c-0.6-0.2-1.2-0.4-1.8-0.6c0-1.1,0.2-2.4-1.3-2.7
	c-1.2-0.2-1.7,0.5-1.7,1.7c-1,0.3-2,0.6-3,0.9c-0.9-4.7-4.3-4.9-8-4.5c-1.4,0.2-2.7,0.5-4.1,0.7c0-0.8,0-1.7-1.1-1.5
	c-0.3,0.1-0.5,0.9-0.7,1.5c-1.4,0-2.8,0-4.1-0.1c-0.2-1.8-1.5-2-2.9-1.9c-4.7,0-9.3,0.6-13.2,3.3c-1.8,1.3-5.1,2.1-4,5.7
	c0,0.7,0.1,1.4,0.1,2.1c0.7,4.1,5.5,3.7,7.3,6.7c-0.9,3.1,0.1,5.3,2.1,7.9c2,2.5,5.4,3.2,6.7,6.1c-1.8,2.3-4.6,1.4-6.9,2.2
	c-1.8,0.7-3.9,1.2-3.8,3.3c0.2,2.3,2.8,1.7,4.4,2.2c1.1,0.4,2.4-0.4,3.8,0.4c7.1,3.9,14.3,3.7,21.4-0.2c1.4-0.8,3.7-2.2,3.1-3.3
	c-0.8-1.4-2.7-2.9-4.9-3c-1,0-1.9,0.6-2.9,0.6c-1.7,0.1-3.8,0.7-4.7-1.7c6.8-0.4,12.6-2.1,17.2-8.3c2.4-3.3,0.6-5.8-0.3-6.5
	c-1.8-1.4-3.3,0.8-4.1,2.7c-3.9,3.3-8.9,2.5-13.3,3.8C611.7,361.9,611.4,361.8,611,361.6z M632.1,354.8l0-0.3l-0.4,0.1L632.1,354.8z
	"/>
<path class="st2" d="M637,402.1c-2.7,3.8-6.4,6.7-9.8,9.9c-1.4,0.2-3.1,0-3,2.3c0,0,0.1,0,0.1,0c-1.6-0.8-4.1,2.3-5.1-0.9
	c-0.8-2.6-2-1.9-3.7-1.2c-2.5,1.1-5.4,1.5-6.6-1.2c-1.8-4.2-5.7-4.1-8.9-5.5c-0.8-0.3-1.7-0.7-2.3,0c-0.9,1,0.1,1.8,0.6,2.6
	c2.3,3.6,4.6,7.3,7,10.8c1,1.4,2.4,2.6,1.9,5c-3-0.9-2.8-5.4-6.4-4.9c-1.1-0.8-2.3-1.6-3.4-2.3c-1.7,1.2,0.4,3.4-1.4,4.3
	c0.3-2.2-3.7,0-2.8-2.7c0-5.2-3.2-10.2-1.1-15.6c0.7-1.8-1.3-2.1-2.2-2.8c-2.5-2-4.8-3.5-5.7-7.4c-0.5-2-3-4.8-4-7.3
	c-1.2-3-4.9-4.9-3.9-8.8c12.2,10.8,26.3,16.4,42.6,16.2c2.5,0.5,5.1,0.5,7.6,0.2c-0.7,3.4-3.8,3.6-6.3,4.8c-1.7,0.8-4.9-0.8-5,1.8
	c-0.1,2.6,3.1,3,5.2,3.9c2.7,1.2,5.5,1.3,8.3,1C631.7,404.1,634,402,637,402.1z M596.5,416c0.1-0.1,0.3-0.2,0.3-0.3
	c0-0.1-0.1-0.2-0.2-0.3c-0.1,0.1-0.3,0.2-0.3,0.3C596.3,415.8,596.5,415.9,596.5,416z M599.4,416.4c-0.1,0.1-0.2,0.2-0.3,0.3
	c0.1,0.1,0.2,0.3,0.3,0.3c0.1,0,0.2-0.2,0.3-0.3C599.6,416.6,599.5,416.5,599.4,416.4z"/>
<path class="st1" d="M550,417.1c-2.5,0.8-4.3-2.6-7-1.1c-1,0.5-1-0.5-0.9-1.1c0-1,0.7-1.6,1.6-1.3c2.5,1,3.7,0.3,4.8-2.4
	c0.8-1.9,1.8-0.4,2.5,1c1.5,3,1.7,6.6,4.3,9.5c2.1-7.8,5.1-14.8,3.6-22.6c1-0.2,1.9-0.4,1.7-1.7c0-0.3-0.7-0.8-0.9-0.7
	c-1.1,0.4-0.7,1.5-0.8,2.4c-1.5-1.4-0.8-3.3-1-5l0,0c2.6,0.1,1.4-3.2,3.8-3.9c0.4,4.6,3.2,8.8,0.6,13.5c4.8,7.7-2.1,13.4-3.7,19.8
	c-0.8,3-5.1,6.5-8.3,7.1c-3.6,0.6-6-3.5-7-7.2c-1-3.7,0.6-5.3,4.3-4.1C550.4,420.2,549.9,418.5,550,417.1c0.1-0.1,0.1-0.2,0.2-0.4
	C550.2,416.9,550.1,417,550,417.1z"/>
<path class="st1" d="M546.5,347.7c-1.5,0.5-2.7,3.1-4.8,2c-2-1-3.8-3.3-3.2-5.6c0.3-1.1,0.4-4.5,2.1-3.6
	C543.2,341.8,546.2,343.5,546.5,347.7z"/>
<path class="st2" d="M545.2,312.3c1.9-0.4,2.7,0.3,2.7,2.3c0.1,2.5-0.5,4.9-1.1,7.3C543.6,319.2,543.3,315.9,545.2,312.3z"/>
<path class="st1" d="M511.9,363.8c2.4,0.3,4.6-3.1,6.7-0.5c0.8,0.9-0.1,2.4-1,3C514.9,368,513.6,365.3,511.9,363.8z"/>
<path class="st1" d="M512.7,348.5c-0.8,1.4-0.5,3.5-2.6,3.4c-2.2-0.1-1.5-3.3-3.6-3.9c-0.3-0.1,0.9-1.9,1.3-1.4
	C509.2,348,511.9,346.1,512.7,348.5z"/>
<path class="st1" d="M519.9,382.8c2.8-0.5,4.5-3.3,7-0.6c0.7,0.8,1,1.5,0.2,2C524.7,385.7,522.5,385.1,519.9,382.8z"/>
<path class="st1" d="M526,331.1c0.8-0.2,1.6-0.4,1.9-1.4c0.4-1.1,0.3-3.2,2.3-2c1.3,0.8,0.9,2.4-0.1,3.5c-1,1.1-2.2,1.9-2.6,3.4
	C525.5,333.8,526.3,332.2,526,331.1C526,331.1,526,331.1,526,331.1z"/>
<path class="st1" d="M538,372.1c-2.4,0-4.8,0-8.1,0C535.3,368.3,537.5,368.5,538,372.1L538,372.1z"/>
<path class="st1" d="M540,396.7c-0.7,2.7-0.3,4.5-2.3,5c-0.5,0.1-1.9-0.8-1.8-1.1C536.2,398.8,537.6,398.1,540,396.7z"/>
<path class="st1" d="M520,373.1c-0.8,2.2-0.8,2.2-4.3-0.1c0.9-1.4,2.3-0.6,3.3-0.9l0,0C519.4,372.4,519.7,372.8,520,373.1L520,373.1
	z"/>
<path class="st1" d="M527,311.1c0.2-1.2,0.4-2.4,1.9-2.5c0.2,0,0.6,0.4,0.6,0.6C529.4,310.8,528.2,310.9,527,311.1
	C527,311.1,527,311.1,527,311.1z"/>
<path class="st1" d="M536.8,228.6c-0.2,0.3-0.4,0.6-0.7,1c-0.3-0.3-0.9-0.5-0.9-0.8c0-0.4,0.3-0.9,0.6-1.1
	C536.4,227.4,536.7,227.9,536.8,228.6z"/>
<path class="st1" d="M534,231.3c-0.3,0.5-0.6,0.9-0.8,1.2c-0.3-0.3-0.9-0.5-0.9-0.8c0-0.3,0.3-0.7,0.5-1.1
	C533.2,230.8,533.6,231,534,231.3z"/>
<path class="st1" d="M519,372.1c0.7-0.9,1.6-1.4,2.3-0.3c0.6,1-0.5,1.2-1.3,1.3c0,0,0,0,0,0C519.7,372.8,519.4,372.4,519,372.1
	C519,372.1,519,372.1,519,372.1z"/>
<path class="st1" d="M493,343.1c-0.6-0.1-1.3-0.1-1.4-0.9c0-0.2,0.4-0.5,0.5-0.5C492.9,341.8,492.9,342.5,493,343.1
	C493,343.1,493,343.1,493,343.1z"/>
<path class="st1" d="M538.1,372.1c0.8,0,1.6,0,2.4,0c-0.1,0.3-0.1,0.7-0.3,0.7C539.3,373.2,538.6,372.9,538.1,372.1
	C538,372.1,538.1,372.1,538.1,372.1z"/>
<path class="st1" d="M545.1,296.9c1.2,1.2,1.3,2.4,0.2,3.6C545.2,299.3,545.2,298.1,545.1,296.9z"/>
<path class="st1" d="M526,284.1c0.2-0.2,0.4-0.4,0.7-0.6c0.1,0.1,0.2,0.3,0.2,0.4C526.6,284,526.3,284,526,284.1
	C526,284.1,526,284.1,526,284.1z"/>
<path class="st1" d="M513.4,372.7c-0.2,0.1-0.4,0.1-0.5,0.2c0-0.1-0.1-0.2-0.1-0.3C512.9,372.5,513.1,372.6,513.4,372.7z"/>
<path class="st1" d="M545.2,247.3c-0.1,0.1-0.2,0.2-0.4,0.3c0,0-0.2-0.2-0.2-0.2c0.1-0.1,0.2-0.2,0.3-0.4
	C544.9,247,545.2,247.3,545.2,247.3z"/>
<path class="st1" d="M558,394.1c-0.1-0.1-0.2-0.1-0.3-0.2C557.8,394,557.9,394,558,394.1C558,394.1,558,394.1,558,394.1z"/>
<path class="st3" d="M589.3,306.2c6.9-2.4,13.6-3.6,20.1,1.3c1,0.7,3.5,0.9,4.3,0.2c4.8-4.4,10.1-1.3,15.1-1.3c1.1,0,2.3,0.8,3-0.7
	c0.6-1.3-0.2-2.2-1-3.1c-1.5-1.6-2.9-3.2-4.9-4.2c-5.5-2.6-6.8-7.4-6.9-13c-0.1-4.1,0-8.4-1-12.3c-1.4-5.3-0.3-9.9,1.6-14.7
	c0.2-0.4,0.4-1.2,0.6-1.2c5.8-0.3,2.9-4.5,3.4-7.3c0.6-3.1-0.1-4.6-3.7-4c1.9-4.5,5.8-4,9-4.9c2.7-0.8,4.5-1.2,3.2-5
	c-0.5-1.4-1.8-4.9,1.8-6.4c2-0.8,0.1-2.2-0.4-3.2c-1.4-2.7-2.1-4.9,0.4-7.6c2.1-2.3,2.4-5.6-0.2-8c-2.7-2.5-4.5-5.1-3.7-8.9
	c0.4-1.9-2-2.4-2.4-4.1c1.7-1.3,4.2-1.5,4.7-4.1c2,0.1,4,0.2,5.1,2.4c0.3,0.7,1.2,1.4,1.9,1.4c7.2-0.1,9.7,5.6,12.9,10.4
	c0.4,0.5,0.9,1.2,0.8,1.8c-1,7.5,4.8,8.4,9.6,10.2c0.8,0.3,2.2,0.4,2,1.1c-1.1,4.3,1.5,7.8,2,11.7c0.5,4.4-1.4,8.7,0.2,13.3
	c1.3,3.7-2.1,2.5-3.6,1.6c-6.4-3.4-13.3-3.7-20.3-3.8c-2.7,0-6.8-0.1-6.8,3.1c0,1.9,4,3.3,7.1,2.9c10.7-1.3,18.9,3.8,26.4,10.5
	c0.9,0.8,0.9,1.4,0.4,2.5c-1.6,3.6-5.3,8.1-11.6,6.8c0.5,1.4,1,2.8,1.5,4.1c0,0,0,0,0,0c-0.9,0-1.7,0.1-2,1.1
	c-1-0.5-2.4-0.2-3.1-1.5c-0.5-5.3-4.9-5.2-8.6-6.1c1.7-1.1,3.4-2.1,5.1-3.1c2.2-1.3,1.4-2.8,0-4c-2.5-1.9-9.4-0.6-11.6,2.1
	c-0.3,0.1-0.6,0.2-1,0.3c-1.2-0.1-2.2,0.6-3,1.4c-0.9,0.9-2.2,2-1,3.2c1,1.1,2.4,0.7,3.2-0.7c1.5-0.1,2.9-0.2,4.4-0.4
	c0.5,1.8-0.1,3-1.7,4.1c-1.2,0.8-3.6,1.6-2.2,4.1c-0.9,2.5-4.9,1.5-5.3,4.5l0,0c-0.8-0.1-1.6-0.3-1.7,0.9c-1.8-0.4-2.4-3.7-5.4-2.1
	c2,3.1,4.1,5.8,5,9.1l0,0c-1.7,0.5-2.6-2.2-4.8-1c1.9,5.2,3,10.7,7,14.9c-0.6,3.1,1.2,5.8,1.5,8.8c-1.6-0.3-3.3-0.7-4.9-1
	c-7.9-2-14.9,1.3-15.9,7.5c0,0,0.1,0,0.1,0c-1.9-0.2-3.8-0.7-5.2,1.2c-1.8-1-4.7,1-5.8-2.1c1.3-1,4.4-0.5,3.9-2.6
	c-1-3.7-4.3-5.7-7.8-6.9c-1.6-0.6-3.6-0.7-4.4,1c-1.4,2.8,0.5,4.6,2.4,6.3c-1.1,0.1-2.6-0.4-2.7,1.2c-0.1,2.6,3.1,1.2,3.9,2.9
	c-4.9,3.1-5.2,3-9.1-2C589.1,312.2,589.2,309.2,589.3,306.2z"/>
<path class="st3" d="M598.9,194.1c0.1,2.4,0.6,4.7-2.1,6.6c-1.1,0.8-2.3,3.8,1.6,3.7c1.5-0.1,2.7,0.9,2.9,2.3
	c0.2,1.8-1.6,1.3-2.6,1.3c-3.4,0.1-2.7,2.9-3.1,4.7c-0.5,2.5,0.2,5.3-2.7,6.9c-0.5,0.3-0.8,1.6-0.6,2.2c1.3,4.7-2.1,7.6-4.4,10.6
	c-2.4,3.2-2.3,5.2,1.7,6.4c2,0.6,4.4,0.4,5.2,3.8c-5.2-1.3-10.1-2.4-15-3.7c-2.1-0.6-4.3-0.7-6.4-0.6c-1.6,0.1-3.9-0.8-4.5,1
	c-0.7,2.1,2.6,1.5,3.2,3.2c-3.8,1.4-7.4,3-10.3,6c-2.3,0-4.7-2.6-6.9,0.2c-0.6-0.6-1.1-1.2-1.7-1.8c-0.3-3.1,0.2-5.8,2.7-8.1
	c3.3-3,1.4-7.2,2.1-10.8c0.9-4.6,0.4-9.5,1.9-14.1c2-6,8.5-6.3,12.5-9.7c4.1-3.5,9.5-5.3,14-8.7C588.8,193.6,594.4,192,598.9,194.1z
	 M589.4,221.4c0-0.2,0.1-0.3,0.1-0.5c-0.3,0-0.5-0.1-0.8-0.1c0,0-0.1,0.3-0.1,0.4C588.9,221.3,589.2,221.4,589.4,221.4z"/>
<path class="st2" d="M633.3,300.9c-4-4.2-5.1-9.7-7-14.9c2.2-1.2,3.1,1.5,4.8,1c0.2,1,0.1,2,1.4,2.2c0.1,0,0.3-0.2,0.3-0.4
	c0.2-1.3-0.7-1.7-1.8-1.8c-0.9-3.4-3-6.1-5-9.1c3-1.6,3.6,1.7,5.4,2.1c0.7-0.1,1.4-0.1,1.7-0.9c0,0,0,0,0,0c1.3-0.1,2.5-0.1,3.8-0.2
	c1.7,3.8,4.7,4,8.2,3.1c4,2.2,7.2,1.8,9.1-2.8c1-1.1,2-0.5,2.9,0.2c-2.3,4.1-7.6,6.6-12.2,6.2c-2.4-0.2-4.6-2.1-7.1-0.8
	c-0.6-0.1-1.1-0.2-1.7-0.3c-0.6-0.6-1.3-0.7-2.1-0.4c-0.2-0.2-0.4-0.5-0.6-0.7c-0.1,0.1-0.2,0.3-0.3,0.4c0.3,0.1,0.6,0.2,0.9,0.3
	c0.5,1.1,1.3,1.7,2.5,2c0.5,0.1,1,0.1,1.5,0.2l-0.1,0.1c1.2,1.8,2.6,3.3,5,3.6c2.1,3.4,5.3,5,9.1,5c5.1,0,10.3,1.3,15.2-1.3
	c1.2-0.6,2.2-0.4,2.8,1c0.8,1.9,2.7,3.6,0.8,5.9c-1.6,1.9-4.2,3.7-4.5,5.8c-0.9,5.4-6.6,8.8-5.8,14.8c0,0.1-0.1,0.4-0.2,0.4
	c-5.9,3.6-10.5,9.6-17.5,11c-4.1,0.9-8.9,1.7-12.6-1.8c-1.4-1.3-3.1-2.6-3.2-4.9c-0.1-1.9-1.2-3.2-3-3.6c-2.6-0.6-1.5,2.5-2.7,3.3
	c-1.9-0.4-2.1-2.2-2.6-3.4c-1.6-3.5,0.2-4.8,3.4-4.1c2,0.4,3.9,0.6,5.8,0.7c3.5,4,4.8-0.1,6.8-1.8c0.9,1.2-0.4,3.7,2.2,3.8
	c3.1,0.1,5.8-4.2,4.7-7.3c-0.7-1.8-1.3-4,0.5-4.9c2.1-1,3.8-2.2,2.6-4.3c-1.6-2.8-3.4-5.9-6.7-6.9
	C635.3,296.6,634.4,299.1,633.3,300.9z"/>
<path class="st0" d="M594,169.1c2.8-1.3,3.8-6.6,8.5-4c0.4,0.2,0.7,0.6,1,0.9c-1,1.9-3.3,0.4-4.7,2.3c3,1.6,5.8,3.2,9.3,2.8
	c1-0.1,2.2,0,2.5,1.2c0.4,1.4-0.6,2.1-1.7,2.6c-1.4,0.6-2.9,1-4,1.9c-2.3,1.7-3.7,1-4.4-1.4c-1.4-5-2.9-3.5-4.7-0.3
	c-1.2,2.2-3.6,2.8-5.7,3.7c-0.4,0.2-1,0.2-1.5,0.1c-4.2-1.6-4.1-1.6-7.7,1.7c-0.7,0.7-1,3-2.8,1.2c-1.2-1.2-0.9-2.3,0.6-3.2
	c0.6-0.4,1.4-1,0.6-1.9c-2-2.5,1.4-4.3,1.8-4.2c6.1,1.3,7.6-5.6,12.3-6.7C594.3,166.7,593.9,168,594,169.1c-0.4,0.3-0.7,0.6-1,1
	c-1.6-0.1-3.6-1.2-4.3,1.6c1.7,0,3.1-0.4,4.3-1.5C593.4,169.8,593.7,169.4,594,169.1z"/>
<path class="st0" d="M636.9,279c-1.3,0.1-2.5,0.1-3.8,0.2c0.5-3.1,4.4-2,5.3-4.5c4.5-0.4,8.9-2.8,13.6-0.9c0.4,0,0.8,0,1.3,0
	c0.6,0,1.1,0,1.7,0c0.7,1.2,2.1,0.9,3.1,1.5c2,1.4,4,2.8,6,4.3c0.9,0.7,3,1,2.2,2.7c-0.6,1.5-2.4,0.9-3.6,0.8
	c-1.3-0.1-2.6-0.6-3.9-0.9c-0.1-1.2,0.2-2.7-1.8-2.7c-0.9-0.7-1.8-1.3-2.9-0.2c-3.7,0.3-7.4-1.1-11.1-0.1
	C641.1,275.3,639,276.4,636.9,279z"/>
<path class="st3" d="M657.1,279.5c2,0,1.7,1.4,1.8,2.7c-3.1,7.3-8,9.5-15,6c-1.9-0.9-4-1.2-6-1.8c0,0,0.1-0.1,0.1-0.1
	c-0.1-0.5-0.1-0.9-0.2-1.4c2.5-1.3,4.7,0.6,7.1,0.8C649.5,286.1,654.8,283.6,657.1,279.5z"/>
<path class="st0" d="M642.4,179.2c-2.5,0.2-4.9,0.4-5.7-3c-0.6-2.6-3.1-1.9-5-2.1c-1.5-0.1-3.6,0.6-3-2.4c0.6-3,2.1-0.7,3.2-0.7
	c3,0,5,2.1,6.4,4.1C639.4,176.9,640.7,178,642.4,179.2z"/>
<path class="st0" d="M619.4,178.4c-1.5-0.6-4.3,0.4-3.6-1.7c1.1-3.2,5-2.3,7.6-3.4c0.9-0.4,2.4-0.2,2.2,1.1
	C625,178.2,621.5,177.3,619.4,178.4z"/>
<path class="st2" d="M605.1,193.1c-0.1-0.7,0-1.3,0.8-1.5c0.2,0,0.6,0.3,0.6,0.5C606.4,192.9,605.6,192.9,605.1,193.1
	C605,193.1,605.1,193.1,605.1,193.1z"/>
<path class="st0" d="M628.6,385.4c-0.3,0.1-0.6,0.3-0.8,0.3c-0.2-0.1-0.2-0.5-0.3-0.7c0.3-0.1,0.6-0.3,0.8-0.3
	C628.5,384.7,628.5,385.1,628.6,385.4z"/>
<path class="st0" d="M652.9,159.2c-0.3-0.2-0.7-0.4-1-0.6c0.4,0.1,0.8,0.3,1.2,0.4C653.1,159,652.9,159.2,652.9,159.2z"/>
<path class="st3" d="M660,274.1c0.3,0,0.6,0.1,0.9,0.1c-0.1,0.2-0.1,0.3-0.2,0.5C660.5,274.5,660.3,274.3,660,274.1
	C660,274.1,660,274.1,660,274.1z"/>
<path class="st0" d="M510.2,296.3c2.8-0.9,4.1-4.7,6.5-3.8c3.2,1.2,0.2,4.4,0.9,6.6c1.5,5.1-0.1,9.8-2.5,14.2
	c-0.4,0.8-0.7,1.6-1.8,1.3c-1.2-0.3-0.9-1.2-0.7-2c0.5-1.8,0.6-3.6-1-5.1c-0.5-0.5-0.6-1.7-0.2-1.7c5.3-0.4,1.8-4.2,2.5-6.3
	C515,296.7,513.7,295.7,510.2,296.3z"/>
<path class="st0" d="M504,310.8c0,2.8,0,5.1,0,7.4c2.6,0.6,3.7-2.7,6.3-1.4c-0.1,1.6-1.1,3.3-2.2,3.9c-2.3,1.3-2,2.6-1.1,4.5
	c0.4,0.8,1.2,1.9,0,2.6c-1,0.6-1.9-0.1-2.5-1C501.2,322.6,500.8,315.8,504,310.8z"/>
<path class="st0" d="M504.7,301.9c-0.6,2.8,0.1,5.3-2.2,6.7c-0.9,0.5-1.9-0.4-2.1-1.5C499.9,304.2,501.9,303.2,504.7,301.9z"/>
<path class="st0" d="M518.9,315.6c0.2,0.2,0.4,0.4,0.6,0.6c-0.2,0.2-0.4,0.3-0.7,0.4c-0.1,0-0.3-0.2-0.3-0.3
	C518.6,316,518.8,315.8,518.9,315.6z"/>
<path class="st0" d="M524,301.1c-0.1,0.4-0.3,0.8-0.4,1.2c-0.1-0.1-0.2-0.2-0.4-0.2C523.5,301.8,523.8,301.4,524,301.1
	C524,301.1,524,301.1,524,301.1z"/>
<path class="st0" d="M514.8,290.3c-0.1,0-0.3,0.1-0.3,0.1c-0.1-0.1-0.1-0.2-0.1-0.4c0.1,0,0.3-0.1,0.3-0.1
	C514.7,290,514.7,290.1,514.8,290.3z"/>
<path class="st1" d="M712,446c0.2-5.3,0.8-10.6-0.3-16c-0.3-1.3,0.3-2.9-1.7-2.7c-2.2,0.2-1.9,1.8-1.6,3.4c0.2,1,0.6,1.9,0.6,2.9
	c0.1,1.6-0.5,3.3-2.3,3.2c-2.1,0-0.9-1.9-1.3-2.9c-1.7-4.2-1.9-8.3-0.4-12.6c0.3-0.8,0.4-2.3,0.5-2.3c5.3,0.6,3.7-3,3.6-5.8
	c0-1.4,0.9-2,2.3-2.1c2-0.1,2.5,1.1,2.6,2.8c0.3,4-0.9,8.1,0.5,12.1c0.3,0.8,0,1.8,1.1,1.7c1-0.1,1.4-0.9,1.1-1.8
	c-0.9-2.4,0-4.8-0.5-7.3c-1.3-7.6,1.1-14.8,4.2-21.6c1.1-2.4,3-4.2,6.3-4c10.2,0.6,7.6-0.6,11.2-9.1c1.6-4,3.8-7.3,6.8-10.2
	c0.8-0.8,1.9-1.7,2.9-0.2c2.4,3.5,0.8,10.2-2.3,13.9c-3.1,3.6-5.5,7.6-6.8,12.4c-1.9,7.1-3.4,14.2-4,21.7c-1.5-0.5-3-1-4.4-1.6
	c-4.7-1.9-9.7,1.3-9.5,6.4c0.1,4.1,2.8,8.7-3.7,10.9c-1.3,0.5-1.4,4.7-2.7,7.1c-0.5,1-0.9,1.7-2,1.9L712,446z M709.8,422.1
	c0-0.4,0-0.7,0-0.9c-0.2,0.1-0.4,0.1-0.6,0.2c-0.1,0.1-0.1,0.4,0,0.4C709.3,422,709.6,422,709.8,422.1z"/>
<path class="st1" d="M715.4,345.3c2.3,1.3,6.7-1,8.7,3.6c0.8,1.8,0.9,2.3-0.9,3.3c-5.5,3.2-9.7,7.6-14.2,12.3
	c-6.6,7-5.6,14.9-7.6,22.7c-1.2,4.8-1.4,9.9-3.4,14.5c-0.5,1.1-1.3,1.5-2.4,1.2c-1.2-0.3-1.6-1.4-0.8-2.3c1.8-1.8,0.2-2.9-0.5-4.3
	c-4-7.5-4.4-14.7,0.1-22.4c1.8-3.1,2.7-7.1,3.4-10.7c0.8-4.6,3.5-6.9,6.7-9.2c2.4-1.7,6-1.9,5.5-6.6
	C709.6,345.5,712.5,345,715.4,345.3z"/>
<path class="st1" d="M637,402.1c-2.9-0.1-5.3,1.9-8.1,2.2c-2.8,0.3-5.7,0.2-8.3-1c-2.1-0.9-5.3-1.3-5.2-3.9c0.1-2.6,3.3-1.1,5-1.8
	c2.5-1.1,5.6-1.4,6.3-4.8c3.8-3,8.1-2.7,13.2-2.6c-1.5,3-3.5,4.3-6,5.2c-1.2,0.5-2.4,1.1-3.4,1.9c-1,0.7-2.8,1.3-1.8,2.9
	c0.7,1.2,2.1,0.3,3.2,0c1.3-0.3,2.5-0.7,3.8-1.1c1.3-0.4,3.1-2,4-0.3C640.7,400.9,638.4,401.4,637,402.1z"/>
<path class="st1" d="M724.2,355.7c0.5,4-0.6,6.7-2.7,8.8c-3.3,3.3-6.7,6.4-10.1,9.6c-0.7,0.7-1.7,1.3-2.6,0.4
	c-0.8-0.8,0.2-1.4,0.4-2.2c1.1-3.7,4.1-6,6.5-8.7C718.1,360.9,721,358.6,724.2,355.7z"/>
<path class="st1" d="M731,352.1c-0.3-2-1.1-3.7-2.9-5c-2.2-1.6-3.9-4.4-2.7-6.6c2-3.5,7.4-4.3,10.4-2.5c0.5,0.3,0.8,0.9,1.4,1.5
	c-2.2,1.3-4.7,2-6.2,4c1.6,1.3,3.5,1.4,5.7,1.2C734.3,347.1,731.9,349,731,352.1L731,352.1z"/>
<path class="st1" d="M672.1,400c0.2-6.5,4.2-10,6.2-14.5c0.4-0.9,1.6-1.5,2.5-0.8c1.4,1.1,0.7,1.9-0.7,2.4c3.2,4-4,4.3-2.8,8.2
	C678.1,397.7,674.6,398.3,672.1,400z"/>
<path class="st1" d="M735.3,309.4c-1.2-2.5-6.8-0.5-5.4-5.4c0.5-1.9,1.7-1.5,3.1-1.1C736.8,303.8,736.1,306.5,735.3,309.4z"/>
<path class="st1" d="M720.5,376.4c-1.4,4.1-2.9,7-7.6,4C714.4,377.6,716.6,376.1,720.5,376.4z"/>
<path class="st1" d="M732.5,294.6c-1.5-0.2-1.8-0.2-1.8-0.3c-0.7-2.2-3.3-4-1.4-6.6c0.5-0.7,1.6-0.8,2.3-0.2
	C734.3,289.7,730.8,292,732.5,294.6z"/>
<path class="st1" d="M652.8,388.4c-1.1,4.4-2.3,8.7-3.4,13.1C649.1,396.7,649.2,392.1,652.8,388.4z"/>
<path class="st1" d="M724.3,369.9c-1.7,2-3.2,4.6-6.6,3.4C720,372.2,721.2,369.4,724.3,369.9z"/>
<path class="st1" d="M698.3,347c-2.6,1.6-4.4,2.7-6.4,3.9C692.8,346.3,693.1,346.1,698.3,347z"/>
<path class="st1" d="M740.3,316.1c0.8,2.1,1.2,3.6,0,4.4c-1.4,1-2.8,0.1-4-1.5C737.9,318.5,739.1,317.7,740.3,316.1z"/>
<path class="st1" d="M704.1,324.2c-0.2,3.3-1.8,5-6,5.4c1.9-2.6,3.6-4.4,5.8-5.6L704.1,324.2z"/>
<path class="st1" d="M713.5,384.6c-1.8,0.5-3.5,1-5.3,1.5C709.2,383.1,711.1,382.8,713.5,384.6z"/>
<path class="st1" d="M731,352.1c-0.5,1.8-1.4,3.5-3.5,3c-0.9-0.2-0.8-2.1-0.1-3C728.5,350.7,729.8,352.3,731,352.1
	C731,352.1,731,352.1,731,352.1z"/>
<path class="st1" d="M725.5,278.9c0.1,0.6-0.3,0.9-0.9,1c-0.3,0-0.6-0.2-0.8-0.4c0.3-0.3,0.6-0.7,0.9-1
	C724.9,278.4,725.3,278.8,725.5,278.9z"/>
<path class="st1" d="M703.9,324c0.1-0.6,0.2-1.3,1-1.3c0.2,0,0.5,0.4,0.5,0.5c-0.1,0.8-0.8,0.8-1.4,1
	C704.1,324.2,703.9,324,703.9,324z"/>
<path class="st1" d="M727.2,369.7c-0.2-0.2-0.5-0.3-0.7-0.5c0.2-0.2,0.4-0.4,0.6-0.5c0.1,0,0.4,0.2,0.4,0.2
	C727.4,369.2,727.3,369.4,727.2,369.7z"/>
<path class="st1" d="M685,203.1c0.4-0.2,0.9-0.4,1.3-0.5c0,0,0.1,0.1,0.2,0.1c-0.6,0.6,0.1,1.9-1.1,2.2
	C685.3,204.3,685.2,203.7,685,203.1C685,203.1,685,203.1,685,203.1z"/>
<path class="st1" d="M685,203.1c-0.1-0.1-0.2-0.1-0.3-0.2C684.8,203,684.9,203,685,203.1C685,203.1,685,203.1,685,203.1z"/>
<path class="st1" d="M650,174.1c0.7-0.8,1.5-1.2,2.4-0.4c0.1,0.1-0.2,0.8-0.2,0.8C651.5,174.4,650.8,174.2,650,174.1
	C650,174.1,650,174.1,650,174.1z"/>
<path class="st1" d="M650,174.1c-0.1,0.6-0.2,1.5-1,1.5c-0.8,0-0.9-0.8-1-1.5l0,0C648.7,174.1,649.4,174.1,650,174.1
	C650,174.1,650,174.1,650,174.1z"/>
<path class="st1" d="M648,174.1c-0.5-0.3-1-0.6-1.5-0.8c0.2-0.2,0.3-0.4,0.5-0.6C647.4,173.2,647.7,173.6,648,174.1
	C648,174.1,648,174.1,648,174.1z"/>
<path class="st1" d="M746,285.1c0.2-0.5-0.1-1.3,0.9-1.2c0.1,0,0.3,0.2,0.3,0.3C747.4,285.2,746.5,284.9,746,285.1L746,285.1z"/>
<path class="st3" d="M589.3,244.2c6.3,0.3,9.5,5.4,13.5,9.1c2.4,2.2,3.4,6,7.5,6.2c1.1,0.1,0.4,1.7,0.5,2.5c0.2,5.5-1.2,11-3.4,15.7
	c-1.6,3.5-6.6,5.2-10.8,6.4c0.3-0.6,0.8-1.1,1-1.7c0.7-1.8,3.9-2.7,2.8-4.7c-1.4-2.7-2.9,1.6-4.7,0.6c-0.3-0.2-0.6-0.3-0.8-0.5
	c-0.6-3.5-4.7-3.6-6-6.3c0.1-0.8,2.8-0.4,0.6-2.3c-7.5-6.6-17.6-5.2-24.6,3.7c-0.8,1-2.3,1.5-1.7,3.2c0.7,1.7,2.1,1.8,3.6,1.7
	c1,0,1.9,0,2.9,0c5.9,4,11.9,7.6,19.4,4.3c1.1-0.5,2.3-0.3,3.1,0.9c-4.1,2.7-9.3,3.2-13.1,6.4c-2.2-0.1-4.3-0.3-6.5-0.3
	c-5.3,0.1-8.7-1.8-11-7.1c-1.7-4-6.2-3.4-10.8-0.9c1.4-4.9-0.3-9.4,3.2-12.8c1.5-1.5-0.2-3.1,0.1-4.7c0.4-2.1,0.2-4.3,2.3-5.7
	c2.2,1.5,2.3-0.9,3.2-1.8c2.7-2.7,4.5-6.7,9.4-6.1c0.4,2.1-3.8,2-2.4,4.2c1.4,2.2,4-0.4,6,0.7c0.1,1.4-0.8,2.2-1.8,2.8
	c-1.2,0.8-2.3,2.2-1.4,3.3c1,1.2,2,3.1,4.1,2.8c1.8-0.2,3.6-0.6,5.4-0.9c2.4,1.8,5.4,1.3,8.1,1.8c2.5,1.6,5.6,1.9,7.2-0.5
	c1.9-2.9-1.5-4.2-3.3-5.6c-6.3-4.7-12.4-10-21.2-8.8c4.9-2.9,10.8-2.8,15.7-2.1C590.2,248.4,589.1,246.4,589.3,244.2z"/>
<path class="st4" d="M589.3,306.2c-0.1,3-0.1,6-0.2,8.9c0.3,4.1-2.8,5.8-5.8,6.3c-2,0.3-2.6-3.6-3.6-4.3c-4.7-3.8-3.8-8-3.3-13
	c0.3-3.4-3.7-2.9-6.3-3.1c2.5-5.4,5.1-5.9,9.2-1.8c0.7,0.7,1.7,1,2.1,0.2c1.8-3.1,5.5-2.3,7.8-4.3c0.6-0.5,1.2-0.6,1.6,0
	c0.7,1,1.2,2,0.3,3.2C589.3,300.6,588.5,303.2,589.3,306.2z"/>
<path class="st1" d="M569,250c-4.8-0.6-6.7,3.4-9.4,6.1c-0.9,0.9-0.9,3.3-3.2,1.8c0.6-3.8,1.8-7.3,5.2-9.6c2.9-3,6.5-4.6,10.3-6
	c2-0.2,4-0.5,6,0.3c0.4,1.1,1,1.6,1.9,0.4c3.2-0.2,6.4-0.1,9.4,1.1c-0.2,2.2,0.9,4.2-3.7,3.6c-5-0.7-10.8-0.9-15.7,2.1
	C569.6,249.9,569.3,250,569,250z"/>
<path class="st4" d="M579.1,289.5c3.8-3.2,9-3.7,13.1-6.4c1-0.6,2-1.4,1.6-2.7c-0.4-1.4-1.8-1.1-2.8-1.4c-2.1-0.6-4.1,1.8-6.1,0
	c1.5-4,3.7-5.4,7.2-1.9c0.6,0.6,1.8,0.6,2.7,0.8c0.3,0.2,0.6,0.3,0.8,0.5c1.8,1,3.3-3.3,4.7-0.6c1,2-2.1,2.9-2.8,4.7
	c-0.2,0.6-0.7,1.1-1,1.7c-2,0.2-3.3,1.7-4.1,3.2c-2.5,4.8-7.3,3.5-11.2,4.6C579.8,292.4,579.1,291,579.1,289.5z"/>
<path class="st0" d="M597,313c-1.9-1.7-3.8-3.5-2.4-6.3c0.9-1.7,2.8-1.6,4.4-1c3.5,1.2,6.9,3.2,7.8,6.9c0.6,2-2.6,1.6-3.9,2.6
	C600.8,315.2,599.1,313.7,597,313z"/>
<path class="st4" d="M616,299.8c-0.2,2.7-1.9,4.8-4,4.3c-2-0.5-5.2-1.8-5.1-4.4c0.1-3.1,3.1-5.1,5.8-5.2
	C615.7,294.3,615.1,297.9,616,299.8z"/>
<path class="st3" d="M603.5,291.8c-0.9,5.5-5.5,6.3-9.5,8.2C594.8,295.2,597.8,292.7,603.5,291.8z"/>
<path class="st0" d="M608.9,317.3c1.4-1.9,3.3-1.4,5.2-1.2c-1.1,1.6-2.9,0.9-4.4,1.5C609.4,317.5,609.2,317.4,608.9,317.3z"/>
<path class="st3" d="M579.9,243c-0.9,1.2-1.5,0.7-1.9-0.4C578.7,242.2,579.4,242.4,579.9,243z"/>
<path class="st2" d="M612.7,370.3c0.9,2.3,3,1.7,4.7,1.7c1,0,1.9-0.6,2.9-0.6c2.2,0,4,1.6,4.9,3c0.7,1.1-1.6,2.5-3.1,3.3
	c-7.1,3.9-14.3,4.1-21.4,0.2c-1.4-0.8-2.6,0-3.8-0.4c-1.6-0.5-4.2,0.2-4.4-2.2c-0.2-2.1,1.9-2.6,3.8-3.3c2.3-0.8,5.1,0.1,6.9-2.2
	c0.9,0.1,1.8,0.1,2.8,0.2c1.7,1.5,3.4,1.4,5.2,0.3C611.7,370.3,612.2,370.3,612.7,370.3z"/>
<path class="st0" d="M634.8,349.6c-2.4,0.2-4.9,0.3-7.3,0.5c-1.8-0.9-3.7-1.2-5.7-0.9c-0.2-0.1-0.5-0.1-0.7,0.1
	c-11.4,0.7-22.7-1.6-34.1-0.1c0-0.7-0.1-1.4-0.1-2.1c3.9,0.1,7.4-2.4,11.3-2c0.7,0.1,1.3-0.2,1.1-1.1c-0.8-3.7,2-0.9,2.9-1.6
	c-0.2,1.5-1,2.8,1.6,3.5c4.9,1.4,9-1.9,13.7-1.1c-2.5-1.4-4.2-3.7-7.8-2.2c-1.5,0.7-5.1,1.1-7.6-0.2c1-2,3.5-1,4.8-2.4
	c1.4,0,2.8,0,4.1,0.1c0.6,0,1.2,0,1.8,0c1.4-0.2,2.7-0.5,4.1-0.7c2.4,2,3.7,5.9,8,4.5c1-0.3,2-0.6,3-0.9c0.7,1.2,1.9,1.1,3,1
	c0.6,0.2,1.2,0.4,1.8,0.6C633.3,346.4,635.3,347.5,634.8,349.6z"/>
<path class="st2" d="M621.8,349.2c2-0.3,3.9,0,5.7,0.9c-1.1,3-5.4,2.6-6.3,6.5c-0.5,2-2.4-1.1-3.8-1.3c-4.6-5.3-10.5-1.1-15.7-2.6
	c0.9,2.1,2.6,2,4,2.6c3.7,1.6,7.6-0.4,11.3,0.9c0,2.5-1.6,3-3.6,3c-4.3,0-8.6,0.6-12.5-2c-1.8-1.2-4.1-1-6.3-1.2
	c0,0-0.3-0.2-0.3-0.2c-1.8-2.9-6.6-2.6-7.3-6.7c11.4-1.5,22.7,0.8,34.1,0.1c0,0,0.4,0.2,0.4,0.2L621.8,349.2z"/>
<path class="st1" d="M594.3,355.9c0,0,0.3,0.2,0.3,0.2c1.2,2.2,3.8,2.6,5.4,4.3c0.4,0.7,0.5,1.6,1.1,2.1c6.6,5.9,18.6,5.2,24.4-1.4
	c0.8-0.9,2.2-2-0.1-2.9c0.8-1.9,2.4-4,4.1-2.7c0.9,0.7,2.7,3.2,0.3,6.5c-4.6,6.2-10.3,7.9-17.2,8.3c-0.5,0-1,0-1.5,0
	c-1.7-1.4-3.4-1.5-5.2-0.3c-0.9-0.1-1.8-0.1-2.8-0.2c-1.3-3-4.7-3.7-6.7-6.1C594.4,361.2,593.4,358.9,594.3,355.9z"/>
<path class="st0" d="M625.4,358.2c2.3,0.9,0.9,1.9,0.1,2.9c-5.8,6.6-17.7,7.3-24.4,1.4c-0.6-0.5-0.7-1.4-1.1-2.1
	c3.6,0.4,7.3,0.8,10.9,1.3c0.4,0.1,0.7,0.3,1.1,0.4C616.5,360.7,621.6,361.5,625.4,358.2z"/>
<path class="st0" d="M614,316.1c1-6.2,8-9.4,15.9-7.5c0,0.9,0,1.7-0.1,2.6C625.4,315.6,619.9,316.4,614,316.1z"/>
<path class="st1" d="M602.3,342.4c-0.9,0.7-3.7-2.2-2.9,1.6c0.2,0.9-0.4,1.2-1.1,1.1c-4-0.4-7.4,2.1-11.3,2
	c-1.2-3.6,2.1-4.4,3.9-5.7c3.9-2.7,8.6-3.3,13.2-3.3c1.4,0,2.7,0.2,2.9,1.9C605.7,341.5,603.2,340.4,602.3,342.4l-0.2-0.2
	L602.3,342.4z"/>
<path class="st1" d="M629.9,311.3c0-0.9,0-1.7,0.1-2.6c1.6,0.3,3.3,0.7,4.9,1c0.2,2.4,0.5,4.9-0.2,7.3c-2,1.6-3.3,5.8-6.8,1.8
	c1-1,2.1-1.9,3-3C632.3,313.9,632.4,312.2,629.9,311.3z"/>
<path class="st4" d="M617,356.2c-3.7-1.3-7.6,0.8-11.3-0.9c-1.4-0.6-3.2-0.6-4-2.6c5.2,1.5,11.1-2.7,15.7,2.6
	C617.4,355.6,617.3,355.9,617,356.2z"/>
<path class="st1" d="M634.8,349.6c0.5-2.1-1.6-3.2-2-5c1.8-0.9,2.7,0.5,3.7,1.5c0.5,0.6,1,1.7,1.8,1.2c1.5-1,2.8-1.9,3.9,0.3
	c1.2,2.3-0.1,3.9-1.5,6.9C640.2,350.1,637.8,349.5,634.8,349.6z"/>
<path class="st1" d="M625,344c-4.3,1.4-5.6-2.5-8-4.5C620.7,339.1,624.1,339.3,625,344z"/>
<path class="st1" d="M631,344.1c-1.2,0.1-2.3,0.2-3-1c0-1.2,0.6-1.9,1.7-1.7C631.3,341.7,631,343,631,344.1z"/>
<path class="st1" d="M612.9,340.2c-0.6,0-1.2,0-1.8,0c0.2-0.5,0.4-1.4,0.7-1.5C612.9,338.5,612.9,339.4,612.9,340.2z"/>
<polygon class="st1" points="632.1,354.8 631.7,354.6 632.1,354.5 "/>
<path class="st1" d="M612.1,362c-0.4-0.1-0.7-0.3-1.1-0.4C611.4,361.8,611.7,361.9,612.1,362z"/>
<path class="st0" d="M559,399.1c0.1-0.9-0.3-1.9,0.8-2.4c0.2-0.1,0.8,0.4,0.9,0.7C560.9,398.7,560,398.9,559,399.1
	C559,399.1,559,399.1,559,399.1z"/>
<path class="st0" d="M519,372.1c0.3,0.3,0.7,0.7,1,1C519.7,372.8,519.4,372.4,519,372.1z"/>
<path class="st4" d="M634.7,317c0.6-2.4,0.3-4.9,0.2-7.3c-0.4-2.9-2.2-5.6-1.5-8.8c1.1-1.8,2.1-4.3,4.7-3.5c3.3,1,5.1,4.1,6.7,6.9
	c1.2,2.1-0.5,3.3-2.6,4.3c-1.8,0.9-1.2,3.2-0.5,4.9c1.1,3.1-1.6,7.4-4.7,7.3C634.3,320.7,635.6,318.2,634.7,317z"/>
<path class="st2" d="M654.9,273.8c-0.6,0-1.1,0-1.7,0c-0.4-0.5-0.8-0.6-1.3,0c-4.7-1.9-9.1,0.5-13.6,0.9c-1.4-2.5,1-3.2,2.2-4.1
	c1.6-1.1,2.2-2.3,1.7-4.1c0.5-0.1,0.9-0.3,1.4-0.4c1.5-0.2,3.4-0.4,2.7-2.4c-0.5-1.8-2-1.8-3.5-0.7c-1.1,0.9-2.2,0-3.2-0.3
	c2.2-2.7,9.1-4,11.6-2.1c1.4,1.1,2.2,2.6,0,4c-1.7,1-3.3,2-5.1,3.1C650,268.5,654.4,268.4,654.9,273.8z"/>
<path class="st4" d="M639.7,262.7c1.1,0.4,2.1,1.2,3.2,0.3c1.5-1.2,3-1.1,3.5,0.7c0.6,2.1-1.3,2.2-2.7,2.4c-0.5,0.1-0.9,0.3-1.4,0.4
	c-1.5,0.1-2.9,0.2-4.4,0.4c0.3-1.3,0.5-2.6,0.8-4C639.1,262.8,639.4,262.7,639.7,262.7z"/>
<path class="st2" d="M638.8,262.9c-0.3,1.3-0.5,2.6-0.8,4c-0.8,1.3-2.2,1.7-3.2,0.7c-1.2-1.2,0.2-2.4,1-3.2
	C636.6,263.5,637.6,262.9,638.8,262.9z"/>
<path class="st0" d="M633.1,279.2c-0.3,0.8-1,0.9-1.7,0.9C631.5,278.8,632.3,279,633.1,279.2z"/>
<path class="st2" d="M589.4,221.4c-0.3,0-0.5-0.1-0.8-0.1c0-0.2,0.1-0.4,0.1-0.4c0.3,0,0.5,0.1,0.8,0.1
	C589.5,221.1,589.5,221.2,589.4,221.4z"/>
<path class="st1" d="M643.1,279.1c3.7-0.9,7.4,0.4,11.1,0.1c-1.9,4.7-5.1,5-9.1,2.8C644.4,281.1,643.2,280.4,643.1,279.1z"/>
<path class="st4" d="M643.1,279.1c0.1,1.4,1.2,2,1.9,3c-3.5,0.9-6.5,0.7-8.2-3.1C639,276.4,641.1,275.3,643.1,279.1z"/>
<path class="st3" d="M631,287.1c1.1,0.1,1.9,0.5,1.8,1.8c0,0.1-0.2,0.4-0.3,0.4C631.2,289.1,631.2,288,631,287.1
	C631,287.1,631,287.1,631,287.1z"/>
<path class="st3" d="M636.5,286.1c-1.1-0.2-2-0.9-2.5-2l0,0c0.8-0.3,1.5-0.2,2.1,0.4C636.3,285,636.4,285.5,636.5,286.1z"/>
<path class="st1" d="M636.5,286.1c-0.1-0.5-0.2-1-0.4-1.5c0.6,0.1,1.1,0.2,1.7,0.3c0.1,0.5,0.1,0.9,0.2,1.4
	C637.5,286.2,637,286.1,636.5,286.1z"/>
<path class="st3" d="M634,284.1c-0.3-0.1-0.6-0.2-0.9-0.3c0.1-0.1,0.2-0.3,0.3-0.4C633.6,283.7,633.8,283.9,634,284.1
	C634,284.1,634,284.1,634,284.1z"/>
<path class="st1" d="M593,170.1c-1.2,1.1-2.7,1.5-4.3,1.5C589.5,168.9,591.4,170,593,170.1C593,170.1,593,170.1,593,170.1z"/>
<path class="st1" d="M594,169.1c-0.3,0.3-0.7,0.7-1,1c0,0,0,0,0,0C593.4,169.8,593.7,169.4,594,169.1C594,169.1,594,169.1,594,169.1
	z"/>
<path class="st3" d="M652,273.8c0.4-0.5,0.9-0.5,1.3,0C652.8,273.8,652.4,273.8,652,273.8z"/>
<path class="st2" d="M569,250c0.3,0,0.6-0.1,0.9-0.2c8.8-1.2,14.9,4.1,21.2,8.8c1.8,1.4,5.2,2.7,3.3,5.6c-1.6,2.3-4.7,2-7.2,0.5
	c0.8-1,3.2-1.3,1.8-3.3c-1.5-2.1-3.5-3.5-6.2-3.2c-2.8,0.3-4,2-3.7,4.7c-1.8,0.3-3.6,0.6-5.4,0.9c-2.2,0.3-3.1-1.6-4.1-2.8
	c-0.9-1.1,0.1-2.4,1.4-3.3c0.9-0.6,1.8-1.4,1.8-2.8c-2-1.1-4.6,1.5-6-0.7C565.2,252,569.4,252.1,569,250z"/>
<path class="st0" d="M594.9,277.9c-0.9-0.3-2.1-0.2-2.7-0.8c-3.6-3.6-5.7-2.1-7.2,1.9c-4.8,1.8-8.5,1-9.7-2.2
	c-0.5-1.2,0.5-3.6-1.8-3.2c-2,0.3-4.1,1.5-3.6,4.4c-1,0-2,0-2.9,0c-1.5,0.1-3,0-3.6-1.7c-0.6-1.7,0.9-2.2,1.7-3.2
	c6.8-2.2,13.6-4.9,21-2.8c0.3,0.8,0.8,1.4,1.8,1.4c0.4,0,0.8,0,1.2,0.1C590.2,274.3,594.3,274.4,594.9,277.9z"/>
<path class="st2" d="M585.8,270.2c-7.4-2.1-14.2,0.6-21,2.8c7-8.9,17.2-10.3,24.6-3.7c2.2,1.9-0.5,1.5-0.6,2.3c-0.4,0-0.8,0-1.2-0.1
	C587,269.4,587,269.4,585.8,270.2z"/>
<path class="st2" d="M569.7,277.9c-0.5-2.9,1.6-4.1,3.6-4.4c2.3-0.4,1.4,2,1.8,3.2c1.2,3.2,5,4,9.7,2.2c2,1.9,4-0.6,6.1,0
	c1.1,0.3,2.4,0,2.8,1.4c0.4,1.4-0.6,2.1-1.6,2.7c-0.8-1.2-2-1.4-3.1-0.9C581.6,285.5,575.6,281.9,569.7,277.9z"/>
<path class="st4" d="M579,262.9c-0.2-2.7,0.9-4.4,3.7-4.7c2.8-0.3,4.8,1.1,6.2,3.2c1.4,2-1,2.3-1.8,3.3
	C584.4,264.3,581.5,264.8,579,262.9z"/>
<path class="st3" d="M605.9,370c1.8-1.2,3.6-1.1,5.2,0.3C609.4,371.4,607.6,371.5,605.9,370z"/>
<path class="st2" d="M602.2,342.5c2.5,1.3,6,0.9,7.6,0.2c3.6-1.5,5.3,0.8,7.8,2.2c-4.7-0.9-8.8,2.4-13.7,1.1
	C601.3,345.2,602,343.9,602.2,342.5c0,0-0.2-0.2-0.2-0.2L602.2,342.5z"/>
<path class="st3" d="M621.8,349.2l-0.3,0.2c0,0-0.4-0.2-0.4-0.2C621.4,349.2,621.6,349.1,621.8,349.2z"/>
<path class="st3" d="M585.8,270.2c1.2-0.8,1.2-0.8,1.8,1.4C586.7,271.6,586.1,271,585.8,270.2z"/>
</svg>
