<?xml version="1.0" encoding="utf-8"?>
<!-- Generator: Adobe Illustrator 22.1.0, SVG Export Plug-In . SVG Version: 6.00 Build 0)  -->
<svg version="1.1" id="Layer_1" xmlns="http://www.w3.org/2000/svg" xmlns:xlink="http://www.w3.org/1999/xlink" x="0px" y="0px"
	 viewBox="0 0 129 456.6" style="enable-background:new 0 0 129 456.6;" xml:space="preserve">
<style type="text/css">
	.st0{fill:#FDF5EA;stroke:#5B5B4B;stroke-linecap:round;stroke-miterlimit:10;}
	.st1{fill:#FDF5EA;stroke:#5B5B4B;stroke-linecap:round;stroke-linejoin:round;stroke-miterlimit:10;}
	.st2{fill:#FDF5EA;}
	.st3{fill:none;stroke:#5B5B4B;stroke-linecap:round;stroke-miterlimit:10;}
</style>
<g>
	<path class="st0" d="M90.2,22.8c0,0,1.6-6-4.5-7c-6.1-1-18.3-0.9-20.3,16.9c0,0,0.3-0.4,1-1c1.3-1.3,4.1-3.7,8.1-6
		c1.4-0.7,2.8-1.2,4.3-1.4c4.5-0.2,7.8,3.2,7.8,3.2c1-0.6,1.7-1.4,2.3-2.1C89.4,24.5,90,23.6,90.2,22.8z"/>
	<g>
		<g>
			<g id="XMLID_25408_">
				<path id="XMLID_25409_" class="st0" d="M17.6,215.1c-5.2,1.4-5.1-7.5,0.8-5.8"/>
			</g>
			<path id="XMLID_25407_" class="st0" d="M15,174.4c0.7,17,1.3,33.6,1.8,43.8c1.4,27.5-0.8,67.9-0.8,67.9l11.6-1
				c0,0-2.4-71.3,0-86.3c0.7-4.2,0.6-12.9,0.2-23.3"/>
			<g id="XMLID_25405_">
				<path id="XMLID_25406_" class="st0" d="M27.6,283.7c4.8,4.9,6.2,6.6,8.7,13c2.5,6.5-6.8-9.2-6.2-6.9s9.3,46.9,2.1,19.5
					c-7.2-27.4-4.4-9.9-4.4-9.9c0,37.6-3,7.5-3.9,2.8c-0.9-4.7-7.1,25.1-6,10.3c1.1-14.7,0-16-2.5-3.7s-1.2-16.6-1.2-16.6
					s0.6-9,2.8-8.3"/>
			</g>
			<path id="XMLID_25404_" class="st0" d="M21.1,209.6c0,0,1.9,0.4,2,0.8"/>
			<path id="XMLID_25403_" class="st0" d="M20.8,214.2c0,0-1.5,0.3-1.9-0.9"/>
			<path id="XMLID_25402_" class="st1" d="M18.5,275.8c0,0-9.3,6.3,0,6.7"/>
		</g>
		<path class="st0" d="M101.6,232.8L25.7,230c0,0,0.4,20.1,0.9,27.8c0,0.7,0.1,1.4,0.2,2.2c0,0.3,0.1,0.5,0.1,0.6c0,0,0,0,0,0
			c2.1,11.7,15.4,21.9,36.3,22.2c34.2,0.5,35.2-9.9,35.2-9.9c1.7-3.1,2.6-6.1,3-8.9c0.1,0,0.2,0,0.2,0S102.9,238.9,101.6,232.8z"/>
		<path id="XMLID_25401_" class="st0" d="M30.2,150.4c1.5,2.9-2.8,41.5-2.6,44.8c0.2,3.3-1.1,3.7-10.4,3.4c-9.3-0.4-4.8-61.7-1-67.3
			c1.3-2,6.6-3.9,12.8-5.5"/>
		<path class="st0" d="M105.4,216.1c-0.1-0.5-0.1-1-0.2-1.5c-0.6-4.1-1.1-7.1-1.3-8.1c-0.9-4.3-2.6-46.3-3.7-63.2
			c-0.1-2.1,5.6-18.1-8.9-21.3c-6.6-1.4-15.3-2.1-25.7-1.7c-0.1,0-0.2,0-0.3,0c-2.1-0.1-4.4-0.1-6.8,0c-6.3,0.3-14.3,0.4-20.8,2.9
			c-9.2,2-9.5,4-9.5,4c-3.5,3.4-2.3,10.9-2.4,12.1c-0.1,2.1-0.1,4.4,0,7.1c1,24.8,1,64.9-1.6,75.6c-0.1,0.5-0.3,1-0.4,1.4
			c-2.2,5.8-5,20.4-2.1,25.9c0,0.1,0.1,0.1,0.1,0.2c1.1,1.9,3,2.5,6.1,0.9l6.6-0.9l54.2,2.8c2.3,0.3,4.3,0.7,5.9,1.1
			C110.1,264.7,107.7,233.1,105.4,216.1z"/>
		<g id="XMLID_25399_">
			<path id="XMLID_25400_" class="st0" d="M42.6,353.1c-5.2,1.4-5.1-7.5,0.8-5.8"/>
		</g>
		<path class="st0" d="M37.4,259.4c0,0,2.5,39.5,2.3,70c-0.1,3.6-0.2,6.9-0.2,9.9c0,0,0,0,0,0.1c-0.2,7.5,0.1,10.8,0.7,11.5
			c2,17.6-0.2,84.9-0.2,84.9l11.6,1c0,0-2.2-40.4-0.8-67.9c1.4-27.5,3.4-101.1,5.8-104.9"/>
		<path id="XMLID_25398_" class="st0" d="M47,344.9c0,0,1.6,0.1,1.6,1.4"/>
		<path id="XMLID_25397_" class="st0" d="M44.5,356.2c0,0-1.8-0.6-2-1"/>
		<g>
			<g id="XMLID_25395_">
				<path id="XMLID_25396_" class="st0" d="M45.6,449.6c0,0,6.1-0.6,3.9,4.3C47.3,458.9,40.5,453.1,45.6,449.6z"/>
			</g>
			<g id="XMLID_25393_">
				<path id="XMLID_25394_" class="st0" d="M35,451.2c0,0,4.6-0.4,2.9,3.2C36.3,458.1,31.2,453.8,35,451.2z"/>
			</g>
			<path id="XMLID_25392_" class="st0" d="M54.8,455.9c0,0-7.2,0.5-3.9-4.2s9.3,0.1,9.8,2.1C61.2,455.8,54.8,455.9,54.8,455.9z"/>
			<g id="XMLID_25390_">
				<path id="XMLID_25391_" class="st0" d="M39.9,450.4c0,0,5.3-0.5,3.4,3.8S35.5,453.4,39.9,450.4z"/>
			</g>
			<g id="XMLID_25388_">
				<path id="XMLID_25389_" class="st0" d="M30.7,451.7c0,0,4.1-0.4,2.6,2.9C31.8,457.9,27.2,454,30.7,451.7z"/>
			</g>
		</g>
		<path class="st0" d="M51.6,434.8l-5.8-0.5l-5.8,0.5c0,0.3-0.1,0.5-0.1,0.7c0,1.5-0.1,2.7-0.1,3.3c0,0.2,0,0.3,0,0.4
			c0,0.2,0,0.3,0,0.3c0,0,0,0,0.1,0c-1.2,4.7-3.1,7.8-3.8,10.1c-0.1,0.3-0.1,0.5-0.2,0.7c0,0.2-0.1,0.5-0.1,0.7c0,0.4,0,0.8,0.2,1.2
			c0.1,0.4,0.4,0.8,0.7,1.1c0.2,0.2,0.4,0.4,0.6,0.5c1.5,1.1,4.5,1.7,8.4,2c3.9-0.3,6.9-0.9,8.4-2c0.2-0.2,0.4-0.3,0.6-0.5
			c0.4-0.4,0.6-0.7,0.7-1.1c0.1-0.4,0.2-0.8,0.2-1.2c0-0.2,0-0.4-0.1-0.7c0-0.2-0.1-0.5-0.2-0.7c-0.7-2.3-2.6-5.3-3.8-10.1
			c0.1,0,0.1,0,0.1,0c0,0,0-0.1,0-0.3c0-0.1,0-0.2,0-0.4c0-0.7,0-1.8-0.1-3.3C51.6,435.3,51.6,435.1,51.6,434.8z"/>
		<g id="XMLID_25386_">
			<path id="XMLID_25387_" class="st0" d="M42,438.3c-4.2,3.4-7.7-4.9-1.5-5.6"/>
		</g>
		<g id="XMLID_25345_">
			<g id="XMLID_25349_">
				<path id="XMLID_25385_" class="st0" d="M75,109.2c0,0,4.2,3.9-4.6,5.7s-14.6-0.6-12.9-3.9"/>
				<g id="XMLID_25380_">
					<path id="XMLID_25384_" class="st0" d="M74.5,84.1c0,0,13.1,1.7,5.8,6.5C73,95.2,74.5,84.1,74.5,84.1z"/>
					<path id="XMLID_25383_" class="st0" d="M76.5,80.2c0,0,10.8-0.6,5.8,5c-5,5.6-13.9-0.1-14.6-2.5S76.5,80.2,76.5,80.2z"/>
					<path id="XMLID_25382_" class="st0" d="M54.8,83c0,0,5.3-1.8,4.4,4.9s-10,5.5-10.6,3.6C48.1,89.6,47.2,86.4,54.8,83z"/>
					<path id="XMLID_25381_" class="st0" d="M59.4,81.2c0,0,15.4-1.9,0.2,5.5S41.8,83.5,59.4,81.2z"/>
				</g>
				<g id="XMLID_25376_">
					<path id="XMLID_25379_" class="st0" d="M83.1,90.5c0,0-8,7.9-12.5,0"/>
					<path id="XMLID_25378_" class="st0" d="M81.2,89.2c0,0-2.2-2.3-3.9,0"/>
					<path id="XMLID_25377_" class="st0" d="M73.5,89.2c0,0,2.2-2.3,3.9,0"/>
				</g>
				<g>
					<path id="XMLID_25375_" class="st0" d="M82.9,35.7c0,0-24.4-2.4-15.6,17.3S103.4,49.5,82.9,35.7z"/>
					<path id="XMLID_25374_" class="st0" d="M85.2,49.3c0,0-3.7-1.5-3.3,2.3S87.7,52.6,85.2,49.3z"/>
					<path id="XMLID_25373_" class="st0" d="M55.7,38.5c0,0,17.9,15.8-4.4,23C29,68.6,36.2,30.4,55.7,38.5z"/>
					<path id="XMLID_25372_" class="st0" d="M43.3,51.5c0,0-3.7-1.5-3.3,2.3C40.5,57.6,45.8,54.8,43.3,51.5z"/>
					<path id="XMLID_25371_" class="st0" d="M54.3,35.3c0,0,8.2,1,2.3,6.7S39.4,42.3,40,40.2C40.6,38.1,41.7,34.7,54.3,35.3z"/>
					<path id="XMLID_25370_" class="st0" d="M78.3,31.8c0,0,12.7-0.7,6.8,6.3C79.2,45.2,68.8,38,67.9,35
						C67.1,32,78.3,31.8,78.3,31.8z"/>
					<g id="XMLID_25365_">
						<path id="XMLID_25369_" class="st0" d="M84.2,56.8c0,0,3.5,0.5,2,2.2c-1.6,1.7-2.3-0.4-4.9,0.9"/>
						<path id="XMLID_25368_" class="st0" d="M40.5,58.3c0,0-3.5,0.5-2,2.2c1.6,1.7,2.3-0.4,4.9,0.9"/>
						<path id="XMLID_25367_" class="st0" d="M44.3,58c0,0,8.2-0.6,13.1,0.7"/>
						<path id="XMLID_25366_" class="st0" d="M80.3,56c0,0-4.8-0.9-10.2,0.8"/>
					</g>
				</g>
				<path id="XMLID_25364_" class="st0" d="M56,2c0,0,4.5,3.9-1.1,5.7S51.1,0,56,2z"/>
				<path id="XMLID_25363_" class="st0" d="M45.3,48.8c0,0-0.7,1.4,0.4,2"/>
				<path id="XMLID_25362_" class="st0" d="M49.1,63.1c0,0,0.3,1.3,0.7,1.7"/>
				<path id="XMLID_25361_" class="st0" d="M48.6,38.2c0,0-0.5-2.4,0-2.4"/>
				<path id="XMLID_25360_" class="st0" d="M83.6,30.1c0,0-2.3,0.3-2,0.7"/>
				<path id="XMLID_25359_" class="st0" d="M69.7,34.3c0,0-2.6-0.4-2.8-0.9"/>
				<path id="XMLID_25358_" class="st0" d="M82.6,98.7c0,0-1.9,0.4-2,0.8"/>
				<path id="XMLID_25357_" class="st0" d="M66.6,99.6c0,0,1.7,0.8,2.2,1.7"/>
				<path id="XMLID_25356_" class="st0" d="M84.4,57.4"/>
				<path id="XMLID_25355_" class="st0" d="M71.9,58.9"/>
				<line id="XMLID_25354_" class="st0" x1="54" y1="72.9" x2="52.1" y2="72.4"/>
				<g>
					<path id="XMLID_25353_" class="st0" d="M36.7,64.1c0,0-13.3-14.8-12.5-2.4S29.4,87,33.7,85c4.2-2,4-5.7,4-5.7"/>
				</g>
				<path id="XMLID_25352_" class="st0" d="M72.9,111.5c9.4-4,14.7-13,16.2-20.5c2.2-11.3,18.4-71.9-26.5-77.5
					c0,0-35.8,2.6-30.8,44.9s3.6,50.1,23.9,54.4c2.4,0.5,4.7,0.8,6.9,0.8"/>
				<g>
					<path id="XMLID_25351_" class="st0" d="M86.1,64.1c0,0,13.3-14.8,12.5-2.4S93.4,87,89.1,85c-4.2-2-4-5.7-4-5.7"/>
				</g>
				<path id="XMLID_25350_" class="st0" d="M33.8,23.7c0.2-1.4,0.8-3.2,2.2-5.4c0,0,0,0,0,0l0,0c0.3-0.5,0.6-1,1-1.5
					C41.4,10.5,48.6,6.9,55.2,5c28.3-11.5,31.2,12.8,31.3,22c0,0.9-53.1,8.7-53.1,8.7S32.4,27.9,33.8,23.7z"/>
			</g>
			<g>
				<path class="st2" d="M75.4,130c-2-4.7,2.7-37.4,2.7-37.4H46.2c0,0,7,33,5.9,36.6L75.4,130z"/>
				<path class="st3" d="M46.2,92.6c0,0,7,33,5.9,36.6"/>
				<path class="st3" d="M78.1,92.6c0,0-4.7,32.7-2.7,37.4"/>
			</g>
			<path id="XMLID_25348_" class="st0" d="M75.5,129.3c0.6-0.2,1.1-0.7,1.7-1.5"/>
			<path id="XMLID_25347_" class="st3" d="M63.7,129.2c-4.4,2.5-9.6,1.2-13.3-2.1"/>
			<path id="XMLID_25346_" class="st0" d="M50,131c0.2,0.1,0.4,0.2,0.6,0.3"/>
		</g>
		<g>
			<g>
				<g>
					<g id="XMLID_25343_">
						<path id="XMLID_25344_" class="st0" d="M85,451.8c0,0,4.1-0.4,2.6,2.9C86.1,458.1,81.5,454.2,85,451.8z"/>
					</g>
					<g id="XMLID_25341_">
						<path id="XMLID_25342_" class="st0" d="M87.3,451.4c0,0,4.6-0.4,2.9,3.2C88.6,458.3,83.5,453.9,87.3,451.4z"/>
					</g>
					<g id="XMLID_25339_">
						<path id="XMLID_25340_" class="st0" d="M90.2,450.6c0,0,5.3-0.5,3.4,3.8C91.7,458.7,85.8,453.6,90.2,450.6z"/>
					</g>
					<g id="XMLID_25337_">
						<path id="XMLID_25338_" class="st0" d="M93.9,449.8c0,0,6.1-0.6,3.9,4.3S88.8,453.2,93.9,449.8z"/>
					</g>
					<path id="XMLID_25336_" class="st0" d="M101.1,456c0,0-7.2,0.5-3.9-4.2c3.3-4.7,9.3,0.1,9.8,2.1
						C107.5,455.9,101.1,456,101.1,456z"/>
				</g>
				<path class="st0" d="M66.6,448.7c0.4-1.2,1-2.6,1.8-4.3c0.7-1.6,1.4-3.5,2-5.8c-0.1,0-0.1,0-0.1,0s0,0,0-0.1
					c0-0.4,0-2.1,0.1-4.7l10.4-0.9l0.6,0l0.6,0c0.1,0.7,0.1,1.3,0.2,1.6c0,0,0,0.1,0,0.1c0.1,0.1,0.1,0.2,0.2,0.2
					c0.2,0.3,0.4,0.5,0.4,0.5s0.4,0.4,1.2,1.1c1.3,7.3,6.4,11.7,12.4,14.2c-0.1,0.6-0.3,1.2-0.9,1.7c-0.2,0.2-0.4,0.4-0.6,0.5
					c-0.8,0.6-2.1,1-3.7,1.3c-1.2,0.2-2.6,0.4-4.2,0.6c-1,0.1-2,0.2-3.1,0.2c-0.8,0-1.7,0.1-2.5,0.1c-0.9,0-1.7,0-2.5-0.1
					c-1.1,0-2.1-0.1-3.1-0.2c-1.6-0.1-3-0.3-4.2-0.6c-1.6-0.3-2.9-0.8-3.7-1.3c-0.2-0.2-0.4-0.3-0.6-0.5c-0.7-0.7-1-1.5-0.9-2.3
					C66.4,449.6,66.5,449.2,66.6,448.7z"/>
			</g>
			<g id="XMLID_25334_">
				<path id="XMLID_25335_" class="st0" d="M79.1,347.2c4.2-3.4,7.7,4.9,1.5,5.6"/>
			</g>
			<path class="st0" d="M67.7,257.6c0,0,2.5,39.5,2.3,70c-0.1,3.6-0.2,6.9-0.2,9.9c0,0,0,0,0,0.1c-0.2,7.5,0.1,10.8,0.7,11.5
				c2,17.6-0.2,84.9-0.2,84.9l11.6,1c0,0-2.2-40.4-0.8-67.9c1.4-27.5,3.4-101.1,5.8-104.9"/>
			<path id="XMLID_25333_" class="st0" d="M73.9,344.4c0,0,0.9-1.3,2-0.7"/>
			<path id="XMLID_25332_" class="st0" d="M78.5,354.8c0,0-1.8-0.6-2-1"/>
			<g id="XMLID_25330_">
				<path id="XMLID_25331_" class="st0" d="M72.3,431.7c-4.2-3.4-7.7,4.9-1.5,5.6"/>
			</g>
		</g>
		<g>
			<path id="XMLID_25329_" class="st0" d="M98.3,172.4c0.7,17.4,1.3,34.4,1.9,44.8c1.4,27.5-0.8,67.9-0.8,67.9l11.6-1
				c0,0-2.4-71.3,0-86.3c0.5-3.5,0.6-10.1,0.4-18.1"/>
			<path id="XMLID_25328_" class="st0" d="M104.7,208.9c0,0-1.6,0.1-1.6,1.4"/>
			<path id="XMLID_25327_" class="st0" d="M105.1,213.2c0,0,1.8-0.6,2-1"/>
			<g id="XMLID_25314_">
				<path id="XMLID_25326_" class="st2" d="M113.5,303.8c-2,0.5-3.4,0.6-4.3,0.5c0.6,7.4-3,5.2-4.8,3.7l-0.7,0.3
					c-2.4,4.3-5.2,0.1-6-1.3l-0.1,1.1c-3.8,1.9-3.6-2.2-3.3-4.4c-0.4,0.7-1.4,1.3-4,1.3c-5-0.1,9.6-24,9.6-24l11.1,2.6
					C110.9,283.5,123.6,301.2,113.5,303.8z"/>
				<path id="XMLID_25325_" class="st0" d="M110.9,283.5c0,0,12.7,17.7,2.6,20.3c-2,0.5-3.4,0.6-4.3,0.5c0.6,7.4-3,5.2-4.8,3.7
					l-0.7,0.3c-2.4,4.3-5.2,0.1-6-1.3l-0.1,1.1c-3.8,1.9-3.6-2.2-3.3-4.4c-0.4,0.7-1.4,1.3-4,1.3c-5-0.1,9.6-24,9.6-24"/>
				<g id="XMLID_25318_">
					<g id="XMLID_25320_">
						<path id="XMLID_25324_" class="st1" d="M99.8,280.9c0,0-14.6,23.9-9.6,24s4.1-2.4,4.3-2.6c0,0-2.1,8.4,3,5.7"/>
						<path id="XMLID_25323_" class="st1" d="M97.4,306.6c0,0,3.6,7.2,6.4,1.5"/>
						<path id="XMLID_25322_" class="st1" d="M110.9,283.5c0,0,12.7,17.7,2.6,20.3s-5.1-4.5-2.2-4.3"/>
						<path id="XMLID_25321_" class="st1" d="M103.5,307.2c0,0,6.7,7.1,5.6-3.7l-0.4-5.4"/>
					</g>
					<path id="XMLID_25319_" class="st1" d="M101.6,280.3c0,0-6.8-6.9,0-7.4"/>
				</g>
				<path id="XMLID_25317_" class="st0" d="M104.1,297.6c0,0,0.3,3.3-0.3,5.1"/>
				<path id="XMLID_25316_" class="st0" d="M98.7,301.6c0,0-0.1,2.4-0.6,2.4"/>
				<path id="XMLID_25315_" class="st1" d="M98.1,292c-0.5,1.5-2.5,4.8-2.5,4.8"/>
			</g>
			<g id="XMLID_25312_">
				<path id="XMLID_25313_" class="st0" d="M102.6,208.7c-4.2-3.4-7.7,4.9-1.5,5.6"/>
			</g>
		</g>
		<path id="XMLID_25311_" class="st0" d="M91.4,122.6c7,1.4,13.1,3.1,14.6,5.1c4.1,5.4,11.9,66.4,2.6,67.2s-10.6,0.5-10.6-2.8
			c0-3.3-6.3-41.6-5-44.6"/>
		<path id="XMLID_25310_" class="st0" d="M82.5,174.5c0,0-5.9,63.9-3.5,73.3"/>
		<path id="XMLID_25309_" class="st0" d="M35.4,215c0,0,1.9-64.1-1.2-73.4"/>
	</g>
	<path class="st1" d="M33.1,35.6c0,0,2,18.7,53.1-8.7C86.2,27,42.9,23.7,33.1,35.6z"/>
</g>
</svg>
