<?xml version="1.0" encoding="utf-8"?>
<!-- Generator: Adobe Illustrator 22.1.0, SVG Export Plug-In . SVG Version: 6.00 Build 0)  -->
<svg version="1.1" id="Layer_1" xmlns="http://www.w3.org/2000/svg" xmlns:xlink="http://www.w3.org/1999/xlink" x="0px" y="0px"
	 viewBox="0 0 91 91" style="enable-background:new 0 0 91 91;" xml:space="preserve">
<style type="text/css">
	.st0{fill:#FDF5EA;stroke:#5B5B4B;stroke-linecap:round;stroke-miterlimit:10;}
</style>
<g>
	<g>
		<path class="st0" d="M87.4,22.1c0,0-1-1.8-3-1.6c0,0-76.8,1.4-79,1.4c-1.9-0.2-2.9,1.7-2.9,1.7S3.2,67,4.2,68.8c0,0,1,1.8,3,1.6
			c0,0,11.6-0.1,25.8-0.3c0-0.1,0-0.3,0.2-0.4c0.4-0.3,12.1-12.6,12.1-12.6c0.3-0.3,0.9,0,0.9,0c1.5,1.2,12.4,12.1,12.4,12.1
			s0.1,0.2,0.1,0.4c12.7-0.2,23.5-0.5,25.7-0.8c1.9-0.2,2.9-1.7,2.9-1.7S88,27.1,87.4,22.1z"/>
		<path class="st0" d="M46.3,57.1c0,0-0.7-0.4-0.9,0c0,0-11.8,12.3-12.1,12.6c-0.1,0.1-0.2,0.2-0.2,0.4c8.2,0,17.4-0.2,25.7-0.4
			c0-0.2-0.1-0.4-0.1-0.4S47.8,58.4,46.3,57.1z"/>
	</g>
	<g>
		<path class="st0" d="M37.3,45.6c0-0.2,0-0.4,0-0.6c0-0.8-0.1-1.5-0.3-2.3c-0.2-0.8-0.5-1.7-0.8-2.5c0,0-0.1-0.1-0.2-0.2
			c-0.5-1.4-1.2-2.5-2.2-3.4c-0.9-1-2-1.8-3.3-2.2c-0.7-0.4-1.3-0.7-2.1-1.1c0,0-0.5,0-1.3,0c-0.9-0.3-1.7-0.3-2.6-0.3
			c-0.2,0-0.4,0-0.6,0c-0.8,0-1.5,0.1-2.3,0.3c-0.8,0.2-1.7,0.5-2.5,0.8c0,0-0.1,0.1-0.2,0.2c-1.4,0.5-2.5,1.2-3.4,2.2
			c-1,0.9-1.8,2-2.2,3.3c-0.4,0.7-0.7,1.3-1.1,2.1c0,0,0,0.5,0,1.3c-0.3,0.9-0.3,1.7-0.3,2.6c0,0.2,0,0.4,0,0.6
			c0,0.8,0.1,1.5,0.3,2.3c0.2,0.8,0.5,1.7,0.8,2.5c0,0,0.1,0.1,0.2,0.2c0.5,1.4,1.2,2.5,2.2,3.4c0.9,1,2,1.8,3.3,2.2
			c0.7,0.4,1.3,0.7,2.1,1.1c0,0,0.5,0,1.3,0c0.9,0.3,1.7,0.3,2.6,0.3c0.2,0,0.4,0,0.6,0c0.8,0,1.5-0.1,2.3-0.3
			c0.8-0.2,1.7-0.5,2.5-0.8c0,0,0.1-0.1,0.2-0.2c1.4-0.5,2.5-1.2,3.4-2.2c1-0.9,1.8-2,2.2-3.3c0.4-0.7,0.7-1.3,1.1-2.1
			c0,0,0-0.5,0-1.3C37.2,47.3,37.4,46.5,37.3,45.6z"/>
		<path class="st0" d="M79.7,44.9c0-0.2,0-0.4,0-0.6c0-0.8-0.1-1.5-0.3-2.3c-0.2-0.8-0.5-1.7-0.8-2.5c0,0-0.1-0.1-0.2-0.2
			c-0.5-1.4-1.2-2.5-2.2-3.4c-0.9-1-2-1.8-3.3-2.2c-0.7-0.4-1.3-0.7-2.1-1.1c0,0-0.5,0-1.3,0c-0.9-0.3-1.7-0.3-2.6-0.3
			c-0.2,0-0.4,0-0.6,0c-0.8,0-1.5,0.1-2.3,0.3c-0.8,0.2-1.7,0.5-2.5,0.8c0,0-0.1,0.1-0.2,0.2c-1.4,0.5-2.5,1.2-3.4,2.2
			c-1,0.9-1.8,2-2.2,3.3c-0.4,0.7-0.7,1.3-1.1,2.1c0,0,0,0.5,0,1.3c-0.3,0.9-0.3,1.7-0.3,2.6c0,0.2,0,0.4,0,0.6
			c0,0.8,0.1,1.5,0.3,2.3c0.2,0.8,0.5,1.7,0.8,2.5c0,0,0.1,0.1,0.2,0.2c0.5,1.4,1.2,2.5,2.2,3.4c0.9,1,2,1.8,3.3,2.2
			c0.7,0.4,1.3,0.7,2.1,1.1c0,0,0.5,0,1.3,0c0.9,0.3,1.7,0.3,2.6,0.3c0.2,0,0.4,0,0.6,0c0.8,0,1.5-0.1,2.3-0.3
			c0.8-0.2,1.7-0.5,2.5-0.8c0,0,0.1-0.1,0.2-0.2c1.4-0.5,2.5-1.2,3.4-2.2c1-0.9,1.8-2,2.2-3.3c0.4-0.7,0.7-1.3,1.1-2.1
			c0,0,0-0.5,0-1.3C79.7,46.6,79.8,45.8,79.7,44.9z"/>
	</g>
</g>
</svg>
