<?xml version="1.0" encoding="utf-8"?>
<!-- Generator: Adobe Illustrator 22.1.0, SVG Export Plug-In . SVG Version: 6.00 Build 0)  -->
<svg version="1.1" id="Layer_1" xmlns="http://www.w3.org/2000/svg" xmlns:xlink="http://www.w3.org/1999/xlink" x="0px" y="0px"
	 viewBox="0 0 129 456.6" style="enable-background:new 0 0 129 456.6;" xml:space="preserve">
<style type="text/css">
	.st0{fill:#FDF5EA;stroke:#5B5B4B;stroke-linecap:round;stroke-miterlimit:10;}
	.st1{fill:#FDF5EA;}
	.st2{fill:#FDF5EA;stroke:#5B5B4B;stroke-linecap:round;stroke-linejoin:round;stroke-miterlimit:10;}
</style>
<g>
	<g>
		<g id="XMLID_38875_">
			<path id="XMLID_38876_" class="st0" d="M91.5,207.7c4.2-3.4,7.7,4.9,1.5,5.6"/>
		</g>
		<path id="XMLID_38874_" class="st0" d="M95.9,169.1c-0.7,18.1-1.4,36.3-1.9,47.1c-1.4,27.5,0.8,67.9,0.8,67.9l-11.6-1
			c0,0,2.4-71.3,0-86.3c-0.7-4.6-0.6-14.4-0.1-25.9"/>
		<path id="XMLID_38873_" class="st0" d="M89.4,207.9c0,0,1.6,0.1,1.6,1.4"/>
		<path id="XMLID_38872_" class="st0" d="M88.9,212.2c0,0-1.8-0.6-2-1"/>
		<g id="XMLID_38859_">
			<path id="XMLID_38871_" class="st1" d="M80.6,302.8c2,0.5,3.4,0.6,4.3,0.5c-0.6,7.4,3,5.2,4.8,3.7l0.7,0.3c2.4,4.3,5.2,0.1,6-1.3
				l0.1,1.1c3.8,1.9,3.6-2.2,3.3-4.4c0.4,0.7,1.4,1.3,4,1.3c5-0.1-9.6-24-9.6-24l-11.1,2.6C83.2,282.5,70.5,300.2,80.6,302.8z"/>
			<path id="XMLID_38870_" class="st0" d="M83.2,282.5c0,0-12.7,17.7-2.6,20.3c2,0.5,3.4,0.6,4.3,0.5c-0.6,7.4,3,5.2,4.8,3.7
				l0.7,0.3c2.4,4.3,5.2,0.1,6-1.3l0.1,1.1c3.8,1.9,3.6-2.2,3.3-4.4c0.4,0.7,1.4,1.3,4,1.3c5-0.1-9.6-24-9.6-24"/>
			<g id="XMLID_38863_">
				<g id="XMLID_38865_">
					<path id="XMLID_38869_" class="st2" d="M94.3,279.9c0,0,14.6,23.9,9.6,24s-4.1-2.4-4.3-2.6c0,0,2.1,8.4-3,5.7"/>
					<path id="XMLID_38868_" class="st2" d="M96.7,305.6c0,0-3.6,7.2-6.4,1.5"/>
					<path id="XMLID_38867_" class="st2" d="M83.2,282.5c0,0-12.7,17.7-2.6,20.3s5.1-4.5,2.2-4.3"/>
					<path id="XMLID_38866_" class="st2" d="M90.6,306.2c0,0-6.7,7.1-5.6-3.7l0.4-5.4"/>
				</g>
				<path id="XMLID_38864_" class="st2" d="M92.5,279.3c0,0,6.8-6.9,0-7.4"/>
			</g>
			<path id="XMLID_38862_" class="st0" d="M90,296.6c0,0-0.3,3.3,0.3,5.1"/>
			<path id="XMLID_38861_" class="st0" d="M95.4,300.6c0,0,0.1,2.4,0.6,2.4"/>
			<path id="XMLID_38860_" class="st2" d="M96,291c0.5,1.5,2.5,4.8,2.5,4.8"/>
		</g>
	</g>
	<path id="XMLID_38858_" class="st0" d="M76.3,118.3c7,1.4,13.1,3.1,14.6,5.1c4.1,5.4,11.9,66.4,2.6,67.2
		c-9.3,0.9-10.6,0.5-10.6-2.8s-6.3-41.6-5-44.6"/>
	<g>
		<path class="st0" d="M69.8,448.7c0.4-1.2,1-2.6,1.8-4.3c0.7-1.6,1.4-3.5,2-5.8c-0.1,0-0.1,0-0.1,0s0,0,0-0.1c0-0.4,0-2.1,0.1-4.7
			l10.4-0.9l0.6,0l0.6,0c0.1,0.7,0.1,1.3,0.2,1.6c0,0,0,0.1,0,0.1c0.1,0.1,0.1,0.2,0.2,0.2c0.2,0.3,0.4,0.5,0.4,0.5s0.4,0.4,1.2,1.1
			c1.3,7.3,6.4,11.7,12.4,14.2c-0.1,0.6-0.3,1.2-0.9,1.7c-0.2,0.2-0.4,0.4-0.6,0.5c-0.8,0.6-2.1,1-3.7,1.3c-1.2,0.2-2.6,0.4-4.2,0.6
			c-1,0.1-2,0.2-3.1,0.2c-0.8,0-1.7,0.1-2.5,0.1c-0.9,0-1.7,0-2.5-0.1c-1.1,0-2.1-0.1-3.1-0.2c-1.6-0.1-3-0.3-4.2-0.6
			c-1.6-0.3-2.9-0.8-3.7-1.3c-0.2-0.2-0.4-0.3-0.6-0.5c-0.7-0.7-1-1.5-0.9-2.3C69.5,449.6,69.6,449.2,69.8,448.7z"/>
		<path class="st0" d="M88.2,259.6c0,0-2.5,39.5-2.3,70c0.1,3.6,0.2,6.9,0.2,9.9c0,0,0,0,0,0.1c0.2,7.5-0.1,10.8-0.7,11.5
			c-2,17.6,0.2,84.9,0.2,84.9l-11.6,1c0,0,2.2-40.4,0.8-67.9c-1.4-27.5-3.4-101.1-5.8-104.9"/>
		<g>
			<g id="XMLID_38856_">
				<path id="XMLID_38857_" class="st0" d="M108.9,451.8c0,0-4.1-0.4-2.6,2.9C107.7,458.1,112.3,454.2,108.9,451.8z"/>
			</g>
			<g id="XMLID_38854_">
				<path id="XMLID_38855_" class="st0" d="M106.5,451.4c0,0-4.6-0.4-2.9,3.2C105.2,458.3,110.4,453.9,106.5,451.4z"/>
			</g>
			<g id="XMLID_38852_">
				<path id="XMLID_38853_" class="st0" d="M103.6,450.6c0,0-5.3-0.5-3.4,3.8C102.1,458.7,108.1,453.6,103.6,450.6z"/>
			</g>
			<g id="XMLID_38850_">
				<path id="XMLID_38851_" class="st0" d="M99.9,449.8c0,0-6.1-0.6-3.9,4.3S105,453.2,99.9,449.8z"/>
			</g>
			<path id="XMLID_38849_" class="st0" d="M92.7,456c0,0,7.2,0.5,3.9-4.2c-3.3-4.7-9.3,0.1-9.8,2.1C86.4,455.9,92.7,456,92.7,456z"
				/>
		</g>
		<path id="XMLID_38848_" class="st0" d="M78.5,345c0,0-1.6,0.1-1.6,1.4"/>
		<path id="XMLID_38847_" class="st0" d="M81,356.4c0,0,1.8-0.6,2-1"/>
		<g id="XMLID_38845_">
			<path id="XMLID_38846_" class="st0" d="M83.6,438.4c4.2,3.4,7.7-4.9,1.5-5.6"/>
		</g>
		<g id="XMLID_38843_">
			<path id="XMLID_38844_" class="st0" d="M82.9,353.3c5.2,1.4,5.1-7.5-0.8-5.8"/>
		</g>
	</g>
	<path class="st0" d="M98.1,231.8L22.3,229c0,0,0.4,20.1,0.9,27.8c0,0.7,0.1,1.4,0.2,2.2c0,0.3,0.1,0.5,0.1,0.6c0,0,0,0,0,0
		c2.1,11.7,15.4,21.9,36.3,22.2c34.2,0.5,35.2-9.9,35.2-9.9c1.7-3.1,2.6-6.1,3-8.9c0.1,0,0.2,0,0.2,0S99.4,237.9,98.1,231.8z"/>
	<path class="st0" d="M99.1,226.6c-0.2-0.6-0.5-1.2-0.7-1.8c-4.4-10.3-10.2-94.2-10.1-96.9c0.3-6.8-8.8-12.8-23.7-12.2
		c-21.5,0.9-21.9,6.1-21.9,6.1c-0.6,1-1,2-1.3,2.9c-3.6,1.6-3.7,3.1-3.7,3.1c-1.5,2.4-1.9,4.6-1.6,6.6c0.5,2.9-4.5,61.4-9.9,83.8
		c-2.2,9.2-4,15.9-4.9,17.6c-0.8,1.7-1.8,5-2.2,8.5c-0.1,0.6-0.1,1.3-0.2,2c-0.6,8.6,2,17.5,15.4,9.5l0-0.1c0.7-0.1,1.4-0.2,2.1-0.3
		l52.7-2.8l5.1,0l0,0.2c3.6,1.3,6,1,7.5-0.4c0.2-0.2,0.4-0.4,0.5-0.6C105.7,247.5,103,236.2,99.1,226.6z"/>
	<g>
		<path id="XMLID_38842_" class="st0" d="M98.7,37.1c0,0-24.4-2.4-15.6,17.3S119.2,50.8,98.7,37.1z"/>
		<path id="XMLID_38841_" class="st0" d="M101,50.7c0,0-3.7-1.5-3.3,2.3C98.2,56.8,103.5,54,101,50.7z"/>
		<path id="XMLID_38840_" class="st0" d="M94,33.2c0,0,12.7-0.7,6.8,6.3s-16.3-0.2-17.2-3.2C82.9,33.3,94,33.2,94,33.2z"/>
		<path id="XMLID_38839_" class="st0" d="M100,58.2c0,0,3.5,0.5,2,2.2s-2.3-0.4-4.9,0.9"/>
		<path id="XMLID_38838_" class="st0" d="M96,57.4c0,0-4.8-0.9-10.2,0.8"/>
	</g>
	<g>
		<path class="st0" d="M41.7,258.4c0,0,2.5,39.5,2.3,70c-0.1,3.6-0.2,6.9-0.2,9.9c0,0,0,0,0,0.1c-0.2,7.5,0.1,10.8,0.7,11.5
			c2,17.6-0.2,84.9-0.2,84.9l11.6,1c0,0-2.2-40.4-0.8-67.9c1.4-27.5,3.4-101.1,5.8-104.9"/>
		<path class="st0" d="M44.5,433.8l5.8-0.5l5.8,0.5c0,0.3,0.1,0.5,0.1,0.7c0,1.5,0.1,2.7,0.1,3.3c0,0.2,0,0.3,0,0.4
			c0,0.2,0,0.3,0,0.3c0,0,0,0-0.1,0c1.2,4.7,3.1,7.8,3.8,10.1c0.1,0.3,0.1,0.5,0.2,0.7c0,0.2,0.1,0.5,0.1,0.7c0,0.4,0,0.8-0.2,1.2
			c-0.1,0.4-0.4,0.8-0.7,1.1c-0.2,0.2-0.4,0.4-0.6,0.5c-1.5,1.1-4.5,1.7-8.4,2c-3.9-0.3-6.9-0.9-8.4-2c-0.2-0.2-0.4-0.3-0.6-0.5
			c-0.4-0.4-0.6-0.7-0.7-1.1c-0.1-0.4-0.2-0.8-0.2-1.2c0-0.2,0-0.4,0.1-0.7c0-0.2,0.1-0.5,0.2-0.7c0.7-2.3,2.6-5.3,3.8-10.1
			c-0.1,0-0.1,0-0.1,0c0,0,0-0.1,0-0.3c0-0.1,0-0.2,0-0.4c0-0.7,0-1.8,0.1-3.3C44.4,434.3,44.4,434.1,44.5,433.8z"/>
		<g>
			<g id="XMLID_29294_">
				<path id="XMLID_29295_" class="st0" d="M50.1,448.6c0,0,6.1-0.6,3.9,4.3C51.8,457.9,45,452.1,50.1,448.6z"/>
			</g>
			<g id="XMLID_29192_">
				<path id="XMLID_29193_" class="st0" d="M39.5,450.2c0,0,4.6-0.4,2.9,3.2C40.8,457.1,35.6,452.8,39.5,450.2z"/>
			</g>
			<path id="XMLID_28642_" class="st0" d="M59.3,454.9c0,0-7.2,0.5-3.9-4.2s9.3,0.1,9.8,2.1C65.6,454.8,59.3,454.9,59.3,454.9z"/>
			<g id="XMLID_28527_">
				<path id="XMLID_28630_" class="st0" d="M44.4,449.4c0,0,5.3-0.5,3.4,3.8C45.9,457.5,39.9,452.4,44.4,449.4z"/>
			</g>
			<g id="XMLID_27184_">
				<path id="XMLID_28515_" class="st0" d="M35.1,450.7c0,0,4.1-0.4,2.6,2.9C36.3,456.9,31.7,453,35.1,450.7z"/>
			</g>
		</g>
		<path id="XMLID_27183_" class="st0" d="M52.7,343.9c0,0-0.9-1.3-2-0.7"/>
		<path id="XMLID_27182_" class="st0" d="M48.1,354.2c0,0,1.8-0.6,2-1"/>
		<g id="XMLID_27180_">
			<path id="XMLID_27181_" class="st0" d="M46.3,432.5c-4.2-3.4-7.7,4.9-1.5,5.6"/>
		</g>
		<g id="XMLID_27178_">
			<path id="XMLID_27179_" class="st0" d="M47.6,346.7c-4.2-3.4-7.7,4.9-1.5,5.6"/>
		</g>
	</g>
	<g>
		<g id="XMLID_26090_">
			<path id="XMLID_27177_" class="st0" d="M55.3,115.1c-0.1-2.4,0.7-9.1,0.8-11.3c0.1-2,0.4-3.7,0.9-5.2
				c-7.8-13.3,13.7-28.5,21.4-11.5c2.4,5.3,2.1,15.7,2,17.4c-0.1,2.3-0.1,10-0.1,12c0,11.1-16.6,20-23.1,5.5"/>
			<g id="XMLID_26091_">
				<path id="XMLID_27176_" class="st0" d="M67.9,13.8c0,0-35.8,2.6-30.8,44.9s3.6,50.1,23.9,54.4c20.2,4.3,31.3-10.5,33.5-21.8
					S112.9,19.3,67.9,13.8z"/>
				<path id="XMLID_26686_" class="st0" d="M58.4,4.2c0,0,4.5,3.9-1.1,5.7S53.5,2.1,58.4,4.2z"/>
				<path id="XMLID_26685_" class="st0" d="M39.1,23.9c0.1-1.4,0.7-3.2,2-5.4c0,0,0,0,0,0l0,0c0.3-0.5,0.6-1,0.9-1.5
					C46,10.7,52.6,7,58.5,5.2C84.2-6.3,86.8,18,86.9,27.2c0,0.9-11.6-0.1-22.1-2.7c-13.4,5.4-26,11.4-26,11.4S37.8,28,39.1,23.9z"/>
				<path id="XMLID_26684_" class="st0" d="M83.6,62.3c0,0-6.4,4.8-14.6,1.8"/>
				<path id="XMLID_26683_" class="st0" d="M86.9,65.5c0,0,6.5-8,6.2-12.5"/>
				<path id="XMLID_26682_" class="st0" d="M83.2,38.7c0,0,17.9,15.8-4.4,23S63.6,30.6,83.2,38.7z"/>
				<path id="XMLID_26681_" class="st0" d="M70.7,51.7c0,0-3.7-1.5-3.3,2.3S73.2,55,70.7,51.7z"/>
				<path id="XMLID_26680_" class="st0" d="M79.4,109.3c0,0,4.2,3.9-4.6,5.7c-8.8,1.7-14.6-0.6-12.9-3.9"/>
				<path id="XMLID_26679_" class="st0" d="M81.7,35.5c0,0,8.2,1,2.3,6.7s-17.2,0.2-16.6-1.9C68.1,38.3,69.1,34.9,81.7,35.5z"/>
				<path id="XMLID_26678_" class="st0" d="M93.2,30.6c0,0-13.7-5.6-29.8-2s-24.5,7.3-24.5,7.3C44.1,18.1,75.3,18,91.1,19
					s11.5,7,11.5,7S100.2,28.9,93.2,30.6z"/>
				<path id="XMLID_26677_" class="st0" d="M93.2,30.6c0,0,27.2-7.5-10.4-9.2c-37.6-1.7-43.8,14.5-43.8,14.5S73.7,20.8,93.2,30.6z"
					/>
				<g id="XMLID_26116_">
					<g id="XMLID_26121_">
						<path id="XMLID_26123_" class="st0" d="M102.1,69.3c-0.2,2.1-0.9,3.6-2.3,3.9c-0.8,0.1-1.4,0.1-1.9,0
							c-0.4-0.1-0.8-0.3-1.1-0.4"/>
						<path id="XMLID_26122_" class="st0" d="M91.2,40.8c0,0,4.9,13.2,6.3,22.4"/>
					</g>
					<g id="XMLID_26117_">
						<path id="XMLID_26120_" class="st0" d="M87.3,67.4c0,0-5.1,4.2,2.1,7.1"/>
						<path id="XMLID_26119_" class="st0" d="M91.1,70.9c-0.7,0.2-1.8-1.3-2.6,0c-0.8,1.3,0.1,0.9,1.2,1.2
							C90.7,72.4,91.8,70.7,91.1,70.9z"/>
						<path id="XMLID_26118_" class="st0" d="M93.2,64.5c0,0-1.5,0-1.9,0.5"/>
					</g>
				</g>
				<path id="XMLID_26115_" class="st0" d="M84.4,69.7c0,0-4.9,2.3-5.3,2.3"/>
				<path id="XMLID_26114_" class="st0" d="M57.7,48.9c0,0-0.7,1.4,0.4,2"/>
				<path id="XMLID_26113_" class="st0" d="M61.5,63.3c0,0,0.3,1.3,0.7,1.7"/>
				<path id="XMLID_26112_" class="st0" d="M61,38.4c0,0-0.5-2.4,0-2.4"/>
				<path id="XMLID_26111_" class="st0" d="M88.1,34.5c0,0-2.6-0.4-2.8-0.9"/>
				<path id="XMLID_26110_" class="st0" d="M51,99.8c0,0,1.7,0.8,2.2,1.7"/>
				<path id="XMLID_26109_" class="st0" d="M86.8,57.6"/>
				<path id="XMLID_26108_" class="st0" d="M74.3,59.1"/>
				<line id="XMLID_26107_" class="st0" x1="72.4" y1="73" x2="70.5" y2="72.5"/>
				<path id="XMLID_26106_" class="st0" d="M59.1,64.3c0,0-13.3-14.8-12.5-2.4s5.2,25.3,9.5,23.3s4-5.7,4-5.7"/>
				<path id="XMLID_26105_" class="st0" d="M55.3,65.4c0,0-5.3-6.8-6.1-3.3"/>
				<path id="XMLID_26104_" class="st0" d="M57.5,70.3c0,0-7-1.2-5.7,2.7c1.3,3.9,4,6.3,4.8,1.8"/>
				<g id="XMLID_26101_">
					<path id="XMLID_26103_" class="st0" d="M67.9,58.5c0,0-3.5,0.5-2,2.2s2.3-0.4,4.9,0.9"/>
					<path id="XMLID_26102_" class="st0" d="M71.7,58.2c0,0,8.2-0.6,13.1,0.7"/>
				</g>
				<g id="XMLID_26096_">
					<path id="XMLID_26100_" class="st0" d="M98.9,84.2c0,0,13.1,1.7,5.8,6.5C97.4,95.4,98.9,84.2,98.9,84.2z"/>
					<path id="XMLID_26099_" class="st0" d="M100.9,80.4c0,0,10.8-0.6,5.8,5c-5,5.6-13.9-0.1-14.6-2.5S100.9,80.4,100.9,80.4z"/>
					<path id="XMLID_26098_" class="st0" d="M79.3,83.2c0,0,5.3-1.8,4.4,4.9s-10,5.5-10.6,3.6C72.5,89.8,71.6,86.6,79.3,83.2z"/>
					<path id="XMLID_26097_" class="st0" d="M83.8,81.4c0,0,15.4-1.9,0.2,5.5C68.8,94.2,66.2,83.7,83.8,81.4z"/>
				</g>
				<g id="XMLID_26092_">
					<path id="XMLID_26095_" class="st0" d="M97.5,90.7c0,0-8,7.9-12.5,0"/>
					<path id="XMLID_26094_" class="st0" d="M95.6,89.4c0,0-2.2-2.3-3.9,0"/>
					<path id="XMLID_26093_" class="st0" d="M87.9,89.4c0,0,2.2-2.3,3.9,0"/>
				</g>
			</g>
		</g>
	</g>
	<path id="XMLID_26089_" class="st0" d="M53,177.5c0,0-5.9,63.9-3.5,73.3"/>
	<path id="XMLID_26088_" class="st0" d="M96.2,248.4c0,0-9.2-63.5-13.7-72.1"/>
	<g>
		<g id="XMLID_26086_">
			<path id="XMLID_26087_" class="st0" d="M34.1,213.1c-5.2,1.4-5.1-7.5,0.8-5.8"/>
		</g>
		<path id="XMLID_26085_" class="st0" d="M30.5,148c1.1,23.8,2.1,53,2.9,68.2c1.4,27.5-0.8,67.9-0.8,67.9l11.6-1
			c0,0-2.4-71.3,0-86.3c1.7-10.7-1.3-50.5-2.2-73.7"/>
		<g id="XMLID_26083_">
			<path id="XMLID_26084_" class="st0" d="M44.1,281.7c4.8,4.9,6.2,6.6,8.7,13c2.5,6.5-6.8-9.2-6.2-6.9c0.6,2.3,9.3,46.9,2.1,19.5
				c-7.2-27.4-4.4-9.9-4.4-9.9c0,37.6-3,7.5-3.9,2.8c-0.9-4.7-7.1,25.1-6,10.3c1.1-14.7,0-16-2.5-3.7s-1.2-16.6-1.2-16.6
				s0.6-9,2.8-8.3"/>
		</g>
		<path id="XMLID_26082_" class="st0" d="M37.6,207.6c0,0,1.9,0.4,2,0.8"/>
		<path id="XMLID_26081_" class="st0" d="M37.3,212.2c0,0-1.5,0.3-1.9-0.9"/>
		<path id="XMLID_26080_" class="st2" d="M35,273.8c0,0-9.3,6.3,0,6.7"/>
	</g>
	<path id="XMLID_26079_" class="st0" d="M50.9,120.3c-7,1.4-13.1,3.1-14.6,5.1c-4.1,5.4-11.9,66.4-2.6,67.2
		c9.3,0.9,10.6,0.5,10.6-2.8s6.3-41.6,5-44.6"/>
	<g>
		<path id="XMLID_26078_" class="st0" d="M85.3,137c0,0,1.2,1,0.5,2"/>
		<path id="XMLID_26077_" class="st0" d="M76.8,136.5c0,0-1.7,0.8-2.2,1.6"/>
		<path id="XMLID_26076_" class="st0" d="M85.6,144.5c0,0,0.5-1.8,0.2-2.7"/>
		<path id="XMLID_26075_" class="st0" d="M76.3,150.3c0,0,1.7,0.7,2.7,0.5"/>
		<path id="XMLID_26074_" class="st0" d="M84.5,148.9c0,0-0.6,1.4-1.8,1"/>
		<path id="XMLID_26073_" class="st0" d="M74.9,141.5c0,0-0.3,1.3-0.7,1.7"/>
		<line id="XMLID_26072_" class="st0" x1="81.6" y1="136.2" x2="79.8" y2="136.1"/>
		<path id="XMLID_26071_" class="st0" d="M74.3,146.4c0,0-0.4,1.8-0.1,2.7"/>
	</g>
	<g>
		<path id="XMLID_26070_" class="st0" d="M77.6,268.9c0,0,1.1-2,0.3-3.1"/>
		<path id="XMLID_26069_" class="st0" d="M75,260.3c0,0,1.4,1.4,1.6,2.3"/>
		<path id="XMLID_26068_" class="st0" d="M75.8,272.3c0,0-0.6,1.9-1.3,2.5"/>
	</g>
</g>
</svg>
