<?xml version="1.0" encoding="utf-8"?>
<!-- Generator: Adobe Illustrator 22.1.0, SVG Export Plug-In . SVG Version: 6.00 Build 0)  -->
<svg version="1.1" id="Layer_1" xmlns="http://www.w3.org/2000/svg" xmlns:xlink="http://www.w3.org/1999/xlink" x="0px" y="0px"
	 viewBox="0 0 129 456.6" style="enable-background:new 0 0 129 456.6;" xml:space="preserve">
<style type="text/css">
	.st0{fill:#FDF5EA;stroke:#5B5B4B;stroke-linecap:round;stroke-miterlimit:10;}
	.st1{fill:#FDF5EA;}
	.st2{fill:#FDF5EA;stroke:#5B5B4B;stroke-linecap:round;stroke-linejoin:round;stroke-miterlimit:10;}
	.st3{fill:none;stroke:#5B5B4B;stroke-linecap:round;stroke-miterlimit:10;}
</style>
<g>
	<g>
		<path class="st0" d="M65.8,448.7c-0.4-1.2-1-2.6-1.8-4.3c-0.7-1.6-1.4-3.5-2-5.8c0.1,0,0.1,0,0.1,0s0,0,0-0.1c0-0.4,0-2.1-0.1-4.7
			l-10.4-0.9l-0.6,0l-0.6,0c-0.1,0.7-0.1,1.3-0.2,1.6c0,0,0,0.1,0,0.1c-0.1,0.1-0.1,0.2-0.2,0.2c-0.2,0.3-0.4,0.5-0.4,0.5
			s-0.4,0.4-1.2,1.1c-1.3,7.3-6.4,11.7-12.4,14.2c0.1,0.6,0.3,1.2,0.9,1.7c0.2,0.2,0.4,0.4,0.6,0.5c0.8,0.6,2.1,1,3.7,1.3
			c1.2,0.2,2.6,0.4,4.2,0.6c1,0.1,2,0.2,3.1,0.2c0.8,0,1.7,0.1,2.5,0.1c0.9,0,1.7,0,2.5-0.1c1.1,0,2.1-0.1,3.1-0.2
			c1.6-0.1,3-0.3,4.2-0.6c1.6-0.3,2.9-0.8,3.7-1.3c0.2-0.2,0.4-0.3,0.6-0.5c0.7-0.7,1-1.5,0.9-2.3C66,449.6,65.9,449.2,65.8,448.7z"
			/>
		<path class="st0" d="M47.4,259.6c0,0,2.5,39.5,2.3,70c-0.1,3.6-0.2,6.9-0.2,9.9c0,0,0,0,0,0.1c-0.2,7.5,0.1,10.8,0.7,11.5
			c2,17.6-0.2,84.9-0.2,84.9l11.6,1c0,0-2.2-40.4-0.8-67.9c1.4-27.5,3.4-101.1,5.8-104.9"/>
		<g>
			<g id="XMLID_25052_">
				<path id="XMLID_25053_" class="st0" d="M26.7,451.8c0,0,4.1-0.4,2.6,2.9C27.8,458.1,23.2,454.2,26.7,451.8z"/>
			</g>
			<g id="XMLID_25050_">
				<path id="XMLID_25051_" class="st0" d="M29,451.4c0,0,4.6-0.4,2.9,3.2C30.3,458.3,25.2,453.9,29,451.4z"/>
			</g>
			<g id="XMLID_25048_">
				<path id="XMLID_25049_" class="st0" d="M31.9,450.6c0,0,5.3-0.5,3.4,3.8C33.4,458.7,27.4,453.6,31.9,450.6z"/>
			</g>
			<g id="XMLID_25046_">
				<path id="XMLID_25047_" class="st0" d="M35.6,449.8c0,0,6.1-0.6,3.9,4.3S30.5,453.2,35.6,449.8z"/>
			</g>
			<path id="XMLID_25045_" class="st0" d="M42.8,456c0,0-7.2,0.5-3.9-4.2s9.3,0.1,9.8,2.1S42.8,456,42.8,456z"/>
		</g>
		<path id="XMLID_25044_" class="st0" d="M57,345c0,0,1.6,0.1,1.6,1.4"/>
		<path id="XMLID_25043_" class="st0" d="M54.5,356.4c0,0-1.8-0.6-2-1"/>
		<g id="XMLID_25041_">
			<path id="XMLID_25042_" class="st0" d="M51.9,438.4c-4.2,3.4-7.7-4.9-1.5-5.6"/>
		</g>
		<g id="XMLID_25039_">
			<path id="XMLID_25040_" class="st0" d="M52.6,353.3c-5.2,1.4-5.1-7.5,0.8-5.8"/>
		</g>
	</g>
	<g>
		<g id="XMLID_25037_">
			<path id="XMLID_25038_" class="st0" d="M30.8,208.9c-4.2-3.4-7.7,4.9-1.5,5.6"/>
		</g>
		<path id="XMLID_25036_" class="st0" d="M26.5,172.6c0.7,17.4,1.3,34.4,1.9,44.8c1.4,27.5-0.8,67.9-0.8,67.9l11.6-1
			c0,0-2.4-71.3,0-86.3c1.4-8.6-0.3-36-1.5-58.4"/>
		<path id="XMLID_25035_" class="st0" d="M32.9,209c0,0-1.6,0.1-1.6,1.4"/>
		<path id="XMLID_25034_" class="st0" d="M33.4,213.4c0,0,1.8-0.6,2-1"/>
		<g id="XMLID_25021_">
			<path id="XMLID_25033_" class="st1" d="M41.7,303.9c-2,0.5-3.4,0.6-4.3,0.5c0.6,7.4-3,5.2-4.8,3.7l-0.7,0.3
				c-2.4,4.3-5.2,0.1-6-1.3l-0.1,1.1c-3.8,1.9-3.6-2.2-3.3-4.4c-0.4,0.7-1.4,1.3-4,1.3c-5-0.1,9.6-24,9.6-24l11.1,2.6
				C39.1,283.7,51.8,301.4,41.7,303.9z"/>
			<path id="XMLID_25032_" class="st0" d="M39.1,283.7c0,0,12.7,17.7,2.6,20.3c-2,0.5-3.4,0.6-4.3,0.5c0.6,7.4-3,5.2-4.8,3.7
				l-0.7,0.3c-2.4,4.3-5.2,0.1-6-1.3l-0.1,1.1c-3.8,1.9-3.6-2.2-3.3-4.4c-0.4,0.7-1.4,1.3-4,1.3c-5-0.1,9.6-24,9.6-24"/>
			<g id="XMLID_25025_">
				<g id="XMLID_25027_">
					<path id="XMLID_25031_" class="st2" d="M28,281.1c0,0-14.6,23.9-9.6,24s4.1-2.4,4.3-2.6c0,0-2.1,8.4,3,5.7"/>
					<path id="XMLID_25030_" class="st2" d="M25.6,306.8c0,0,3.6,7.2,6.4,1.5"/>
					<path id="XMLID_25029_" class="st2" d="M39.1,283.7c0,0,12.7,17.7,2.6,20.3c-10.1,2.6-5.1-4.5-2.2-4.3"/>
					<path id="XMLID_25028_" class="st2" d="M31.8,307.4c0,0,6.7,7.1,5.6-3.7l-0.4-5.4"/>
				</g>
				<path id="XMLID_25026_" class="st2" d="M29.8,280.5c0,0-6.8-6.9,0-7.4"/>
			</g>
			<path id="XMLID_25024_" class="st0" d="M32.3,297.8c0,0,0.3,3.3-0.3,5.1"/>
			<path id="XMLID_25023_" class="st0" d="M26.9,301.8c0,0-0.1,2.4-0.6,2.4"/>
			<path id="XMLID_25022_" class="st2" d="M26.3,292.2c-0.5,1.5-2.5,4.8-2.5,4.8"/>
		</g>
	</g>
	<path id="XMLID_25020_" class="st0" d="M44.3,148.5c1.5,2.9-2.8,41.5-2.6,44.8c0.2,3.3-1.1,3.7-10.4,3.4c-9.3-0.4-4.8-61.7-1-67.3
		c1.3-2,6.6-3.9,12.8-5.5"/>
	<path class="st0" d="M105.6,233l-75.9-2.8c0,0,0.4,20.1,0.9,27.8c0,0.7,0.1,1.4,0.2,2.2c0,0.3,0.1,0.5,0.1,0.6c0,0,0,0,0,0
		c2.1,11.7,15.4,21.9,36.3,22.2c34.2,0.5,35.2-9.9,35.2-9.9c1.7-3.1,2.6-6.1,3-8.9c0.1,0,0.2,0,0.2,0S106.8,239.1,105.6,233z"/>
	<g>
		<path class="st1" d="M110,214.1c-0.1-0.5-0.1-1-0.2-1.5c-0.6-4.1-1.1-7.1-1.3-8.1c-1-5-3-60-4-69c0-0.3-0.1-0.6-0.1-0.9
			c-0.6-2.5-2.3-4.6-4.4-6.2c-2.9-2.2-22.8-10.7-35.7-10.1c-12.1,0.5-30.9,0.7-31.8,19c-0.1,2.1-0.1,4.4,0,7.1
			c1,24.8,1,64.9-1.6,75.6c-0.1,0.5-0.3,1-0.4,1.4c-2.2,5.8-4.9,20.4-2,25.9c0,0.1,0.1,0.1,0.1,0.2c1.1,1.9,3,2.5,5.9,0.9
			c0,0,3.7-0.9,6.4-0.9l52.7,2.8c2.2,0.3,4.2,0.7,5.8,1.1C114.6,262.6,112.2,231.1,110,214.1z"/>
		<path class="st0" d="M40.9,247.5l52.7,2.8c2.2,0.3,4.2,0.7,5.8,1.1c15.2,11.3,12.9-20.3,10.6-37.3c-0.1-0.5-0.1-1-0.2-1.5
			c-0.6-4.1-1.1-7.1-1.3-8.1c-1-5-3-60-4-69c0-0.3-0.1-0.6-0.1-0.9c-0.6-2.5-2.3-4.6-4.4-6.2c-2.9-2.2-22.8-10.7-35.7-10.1
			c-12.1,0.5-30.9,0.7-31.8,19c-0.1,2.1-0.1,4.4,0,7.1c1,24.8,1,64.9-1.6,75.6c-0.1,0.5-0.3,1-0.4,1.4c-2.2,5.8-4.9,20.4-2,25.9
			c0,0.1,0.1,0.1,0.1,0.2c1.1,1.9,3,2.5,5.9,0.9"/>
	</g>
	<path id="XMLID_25019_" class="st0" d="M106.5,174.7c0,0-5.9,63.9-3.5,73.3"/>
	<g>
		<g>
			<path id="XMLID_25018_" class="st0" d="M48.7,147.5c0,0,1.2,1,0.5,2"/>
			<path id="XMLID_25017_" class="st0" d="M40.1,147c0,0-1.7,0.8-2.2,1.6"/>
			<path id="XMLID_25016_" class="st0" d="M48.9,155c0,0,0.5-1.8,0.2-2.7"/>
			<path id="XMLID_25015_" class="st0" d="M39.7,160.8c0,0,1.7,0.7,2.7,0.5"/>
			<path id="XMLID_25014_" class="st0" d="M47.8,159.4c0,0-0.6,1.4-1.8,1"/>
			<path id="XMLID_25013_" class="st0" d="M38.3,152c0,0-0.3,1.3-0.7,1.7"/>
			<line id="XMLID_25012_" class="st0" x1="45" y1="146.6" x2="43.1" y2="146.6"/>
			<path id="XMLID_25011_" class="st0" d="M37.6,156.9c0,0-0.4,1.8-0.1,2.7"/>
		</g>
		<g>
			<path id="XMLID_25010_" class="st0" d="M55,269c0,0-1.1-2-0.3-3.1"/>
			<path id="XMLID_25009_" class="st0" d="M57.6,260.6c0,0-1.3,1.3-1.5,2.3"/>
			<path id="XMLID_25008_" class="st0" d="M56.8,272.2c0,0,0.5,1.8,1.3,2.4"/>
		</g>
	</g>
	<g>
		<path id="XMLID_25007_" class="st1" d="M53.4,118.1c-0.1-2.4,0.7-9.1,0.8-11.3c0.1-2,0.4-3.7,0.9-5.2
			c-7.8-13.3,13.7-28.5,21.4-11.5c2.4,5.3,2.1,15.7,2,17.4c-0.1,2.3-0.1,10-0.1,12c0,11.1-16.6,20-23.1,5.5"/>
		<path id="XMLID_25006_" class="st3" d="M78.2,121.6c0.1-0.7,0.2-1.4,0.2-2c0-2,0.1-9.7,0.1-12c0-1.8,0.4-12.1-2-17.4
			c-7.7-17.1-29.2-1.8-21.4,11.5c-0.4,1.4-0.7,3.2-0.9,5.2c-0.1,2.2-0.9,9-0.8,11.3l1.9,6.9c5.1,11.4,16.5,8.4,21.1,1.1"/>
	</g>
	<g>
		<g id="XMLID_25004_">
			<path id="XMLID_25005_" class="st0" d="M104.5,214.3c5.2,1.4,5.1-7.5-0.8-5.8"/>
		</g>
		<path id="XMLID_25003_" class="st0" d="M107.7,159.6c-0.9,21.4-1.7,44.8-2.4,57.8c-1.4,27.5,0.8,67.9,0.8,67.9l-11.6-1
			c0,0,2.4-71.3,0-86.3c-1.3-8.2,0.2-33.6,1.3-55.4"/>
		<g id="XMLID_25001_">
			<path id="XMLID_25002_" class="st0" d="M94.5,282.9c-4.8,4.9-6.2,6.6-8.7,13c-2.5,6.5,6.8-9.2,6.2-6.9
				c-0.6,2.3-9.3,46.9-2.1,19.5c7.2-27.4,4.4-9.9,4.4-9.9c0,37.6,3,7.5,3.9,2.8s7.1,25.1,6,10.3s0-16,2.5-3.7s1.2-16.6,1.2-16.6
				s-0.6-9-2.8-8.3"/>
		</g>
		<path id="XMLID_25000_" class="st0" d="M101,208.8c0,0-1.9,0.4-2,0.8"/>
		<path id="XMLID_24999_" class="st0" d="M101.3,213.4c0,0,1.5,0.3,1.9-0.9"/>
		<path id="XMLID_24998_" class="st2" d="M103.6,274.9c0,0,9.3,6.3,0,6.7"/>
	</g>
	<path id="XMLID_24997_" class="st0" d="M90.7,150.5c-1.5,2.9,2.8,41.5,2.6,44.8c-0.2,3.3,1.1,3.7,10.4,3.4s4.8-61.7,1-67.3
		c-1.3-2-6.6-3.9-12.8-5.5"/>
	<g id="XMLID_24940_">
		<g id="XMLID_24993_">
			<path id="XMLID_24996_" class="st0" d="M43.8,61.2c0,0-12-15.8-12.3-3.5s3.1,25.7,7.5,24s4.5-5.3,4.5-5.3"/>
			<path id="XMLID_24995_" class="st0" d="M39.9,62.1c0,0-4.7-7.2-5.8-3.8"/>
			<path id="XMLID_24994_" class="st0" d="M41.7,67.1c0,0-6.9-1.8-5.9,2.2c1,4,3.4,6.6,4.7,2.2"/>
		</g>
		<path id="XMLID_24992_" class="st0" d="M75.7,5.6c0,0-4.5,3.9,1.1,5.7S80.6,3.6,75.7,5.6z"/>
		<path id="XMLID_24991_" class="st0" d="M66.2,15.3c0,0,35.8,2.6,30.8,44.9c-5,42.3-3.6,50.1-23.9,54.4S41.9,104,39.7,92.7
			C37.5,81.5,21.3,20.8,66.2,15.3z"/>
		<path id="XMLID_24990_" class="st0" d="M95,25.3c-0.1-1.4-0.7-3.2-2-5.4c0,0,0,0,0,0l0,0c-0.3-0.5-0.6-1-0.9-1.5
			c-4-6.3-10.6-9.9-16.5-11.7c-25.7-11.5-28.3,12.8-28.4,22c0,0.9,11.6-0.1,22.1-2.7c13.4,5.4,26,11.4,26,11.4S96.3,29.5,95,25.3z"
			/>
		<path id="XMLID_24989_" class="st0" d="M62.5,63.8c0,0,6.4,4.8,14.6,1.8"/>
		<path id="XMLID_24988_" class="st0" d="M46.9,64c0,0-10.3,2.2-12.5,1.3"/>
		<path id="XMLID_24987_" class="st0" d="M53.7,110.8c0,0-4.2,3.9,4.6,5.7c8.8,1.7,14.6-0.6,12.9-3.9"/>
		<path id="XMLID_24986_" class="st0" d="M40.9,32.1c0,0,13.7-5.6,29.8-2s24.5,7.3,24.5,7.3c-5.1-17.8-36.4-17.9-52.1-16.9
			s-11.5,7-11.5,7S33.9,30.4,40.9,32.1z"/>
		<path id="XMLID_24985_" class="st0" d="M40.9,32.1c0,0-27.2-7.5,10.4-9.2s43.8,14.5,43.8,14.5S60.4,22.3,40.9,32.1z"/>
		<g>
			<path id="XMLID_24984_" class="st0" d="M60.2,66.9c0,0-6.5-8-6.2-12.5"/>
			<g id="XMLID_24981_">
				<path id="XMLID_24983_" class="st0" d="M49,67.8c0.2,2.1,0.9,3.6,2.3,3.9c0.8,0.1,1.4,0.1,1.9,0c0.4-0.1,0.8-0.3,1.1-0.4"/>
				<path id="XMLID_24982_" class="st0" d="M56,42.3c0,0-4.9,13.2-6.3,22.4"/>
			</g>
			<g id="XMLID_24975_">
				<path id="XMLID_24980_" class="st0" d="M46.7,68.9c0,0-4.8,5.5,2.9,7.1"/>
				<path id="XMLID_24979_" class="st0" d="M59.8,68.9c0,0,5.1,4.2-2.1,7.1"/>
				<path id="XMLID_24978_" class="st0" d="M56,72.4c0.7,0.2,1.8-1.3,2.6,0c0.8,1.3-0.1,0.9-1.2,1.2C56.4,73.8,55.3,72.2,56,72.4z"
					/>
				<path id="XMLID_24977_" class="st0" d="M48.8,74.3c-1.4-0.1-1.8-1.2-1-1.8c0.3-0.2,1.1,0.2,1.9,0.6
					C50.3,73.4,48.8,74.3,48.8,74.3z"/>
				<path id="XMLID_24976_" class="st0" d="M54,66c0,0,1.5,0,1.9,0.5"/>
			</g>
			<path id="XMLID_24974_" class="st0" d="M43.9,72.3c0,0-4.2,2.1-5.4,2.5"/>
			<path id="XMLID_24973_" class="st0" d="M62.8,71.2c0,0,4.9,2.3,5.3,2.3"/>
		</g>
		<path id="XMLID_24972_" class="st0" d="M83.5,50.4c0,0,0.7,1.4-0.4,2"/>
		<path id="XMLID_24971_" class="st0" d="M79.7,64.8c0,0-0.3,1.3-0.7,1.7"/>
		<path id="XMLID_24970_" class="st0" d="M80.1,39.8c0,0,0.5-2.4,0-2.4"/>
		<path id="XMLID_24969_" class="st0" d="M45.2,31.7c0,0,2.3,0.3,2,0.7"/>
		<path id="XMLID_24968_" class="st0" d="M59,36c0,0,2.6-0.4,2.8-0.9"/>
		<path id="XMLID_24967_" class="st0" d="M46.2,100.4c0,0,1.9,0.4,2,0.8"/>
		<path id="XMLID_24966_" class="st0" d="M62.1,101.2c0,0-1.7,0.8-2.2,1.7"/>
		<path id="XMLID_24965_" class="st0" d="M44.4,59.1"/>
		<path id="XMLID_24964_" class="st0" d="M56.9,60.6"/>
		<line id="XMLID_24963_" class="st0" x1="74.8" y1="74.5" x2="76.6" y2="74"/>
		<path id="XMLID_24962_" class="st0" d="M87.1,65.7c0,0,13.3-14.8,12.5-2.4s-5.2,25.3-9.5,23.3s-4-5.7-4-5.7"/>
		<path id="XMLID_24961_" class="st0" d="M90.9,66.9c0,0,5.3-6.8,6.1-3.3"/>
		<path id="XMLID_24960_" class="st0" d="M88.7,71.8c0,0,7-1.2,5.7,2.7c-1.3,3.9-4,6.3-4.8,1.8"/>
		<path id="XMLID_24959_" class="st0" d="M63,40.1c0,0-17.9,15.8,4.4,23S82.5,32.1,63,40.1z"/>
		<path id="XMLID_24958_" class="st0" d="M75.4,53.2c0,0,3.7-1.5,3.3,2.3C78.3,59.3,72.9,56.4,75.4,53.2z"/>
		<path id="XMLID_24957_" class="st0" d="M64.5,37c0,0-8.2,1-2.3,6.7s17.2,0.2,16.6-1.9S77,36.4,64.5,37z"/>
		<path id="XMLID_24956_" class="st0" d="M78.3,60c0,0,3.5,0.5,2,2.2c-1.6,1.7-2.3-0.4-4.9,0.9"/>
		<path id="XMLID_24955_" class="st0" d="M74.4,59.7c0,0-8.2-0.6-13.1,0.7"/>
		<g id="XMLID_24950_">
			<path id="XMLID_24954_" class="st0" d="M44.2,85.7c0,0-13.1,1.7-5.8,6.5S44.2,85.7,44.2,85.7z"/>
			<path id="XMLID_24953_" class="st0" d="M42.2,81.8c0,0-10.8-0.6-5.8,5c5,5.6,13.9-0.1,14.6-2.5C51.7,81.9,42.2,81.8,42.2,81.8z"
				/>
			<path id="XMLID_24952_" class="st0" d="M63.9,84.6c0,0-5.3-1.8-4.4,4.9s10,5.5,10.6,3.6C70.7,91.2,71.6,88,63.9,84.6z"/>
			<path id="XMLID_24951_" class="st0" d="M59.4,82.9c0,0-15.4-1.9-0.2,5.5C74.3,95.7,76.9,85.1,59.4,82.9z"/>
		</g>
		<g id="XMLID_24946_">
			<path id="XMLID_24949_" class="st0" d="M45.7,92.1c0,0,8,7.9,12.5,0"/>
			<path id="XMLID_24948_" class="st0" d="M47.5,90.9c0,0,2.2-2.3,3.9,0"/>
			<path id="XMLID_24947_" class="st0" d="M55.2,90.9c0,0-2.2-2.3-3.9,0"/>
		</g>
		<g>
			<path id="XMLID_24945_" class="st0" d="M35.8,37.4c0,0,24.4-2.4,15.6,17.3S15.3,51.1,35.8,37.4z"/>
			<path id="XMLID_24944_" class="st0" d="M33.5,51c0,0,3.7-1.5,3.3,2.3C36.4,57.1,31,54.2,33.5,51z"/>
			<path id="XMLID_24943_" class="st0" d="M40.5,33.5c0,0-12.7-0.7-6.8,6.3s16.3-0.2,17.2-3.2C51.6,33.6,40.5,33.5,40.5,33.5z"/>
			<path id="XMLID_24942_" class="st0" d="M34.5,58.4c0,0-3.5,0.5-2,2.2c1.6,1.7,2.3-0.4,4.9,0.9"/>
			<path id="XMLID_24941_" class="st0" d="M38.5,57.7c0,0,4.8-0.9,10.2,0.8"/>
		</g>
	</g>
	<path id="XMLID_24939_" class="st0" d="M55.9,130.4c-0.6-0.2-1.1-0.7-1.7-1.5"/>
	<path id="XMLID_24938_" class="st0" d="M81.7,125.8c0,0-0.2,0.8-0.7,1.5"/>
	<path id="XMLID_24937_" class="st3" d="M57.4,133.3c4.4,2.5,9.6,1.2,13.3-2.1"/>
	<path id="XMLID_24936_" class="st0" d="M76.9,132.3c-0.2,0.1-0.4,0.2-0.6,0.3"/>
	<path id="XMLID_24935_" class="st0" d="M85,243.6c0,0-1.9-64.1,1.2-73.4"/>
	<g>
		<path class="st0" d="M89.8,258.9c0,0-2.5,39.5-2.3,70c0.1,3.6,0.2,6.9,0.2,9.9c0,0,0,0,0,0.1c0.2,7.5-0.1,10.8-0.7,11.5
			c-2,17.6,0.2,84.9,0.2,84.9l-11.6,1c0,0,2.2-40.4,0.8-67.9c-1.4-27.5-3.4-101.1-5.8-104.9"/>
		<path class="st0" d="M87.1,434.3l-5.8-0.5l-5.8,0.5c0,0.3-0.1,0.5-0.1,0.7c0,1.5-0.1,2.7-0.1,3.3c0,0.2,0,0.3,0,0.4
			c0,0.2,0,0.3,0,0.3c0,0,0,0,0.1,0c-1.2,4.7-3.1,7.8-3.8,10.1c-0.1,0.3-0.1,0.5-0.2,0.7c0,0.2-0.1,0.5-0.1,0.7c0,0.4,0,0.8,0.2,1.2
			c0.1,0.4,0.4,0.8,0.7,1.1c0.2,0.2,0.4,0.4,0.6,0.5c1.5,1.1,4.5,1.7,8.4,2c3.9-0.3,6.9-0.9,8.4-2c0.2-0.2,0.4-0.3,0.6-0.5
			c0.4-0.4,0.6-0.7,0.7-1.1c0.1-0.4,0.2-0.8,0.2-1.2c0-0.2,0-0.4-0.1-0.7c0-0.2-0.1-0.5-0.2-0.7c-0.7-2.3-2.6-5.3-3.8-10.1
			c0.1,0,0.1,0,0.1,0c0,0,0-0.1,0-0.3c0-0.1,0-0.2,0-0.4c0-0.7,0-1.8-0.1-3.3C87.2,434.8,87.1,434.6,87.1,434.3z"/>
		<g>
			<g id="XMLID_24933_">
				<path id="XMLID_24934_" class="st0" d="M81.4,449.1c0,0-6.1-0.6-3.9,4.3C79.7,458.4,86.5,452.6,81.4,449.1z"/>
			</g>
			<g id="XMLID_24931_">
				<path id="XMLID_24932_" class="st0" d="M92,450.7c0,0-4.6-0.4-2.9,3.2C90.8,457.6,95.9,453.3,92,450.7z"/>
			</g>
			<path id="XMLID_24930_" class="st0" d="M72.3,455.4c0,0,7.2,0.5,3.9-4.2c-3.3-4.7-9.3,0.1-9.8,2.1
				C65.9,455.3,72.3,455.4,72.3,455.4z"/>
			<g id="XMLID_24928_">
				<path id="XMLID_24929_" class="st0" d="M87.1,449.9c0,0-5.3-0.5-3.4,3.8C85.6,458,91.6,452.9,87.1,449.9z"/>
			</g>
			<g id="XMLID_24926_">
				<path id="XMLID_24927_" class="st0" d="M96.4,451.2c0,0-4.1-0.4-2.6,2.9C95.3,457.4,99.9,453.5,96.4,451.2z"/>
			</g>
		</g>
		<path id="XMLID_24925_" class="st0" d="M78.8,344.4c0,0,0.9-1.3,2-0.7"/>
		<path id="XMLID_24924_" class="st0" d="M83.4,354.7c0,0-1.8-0.6-2-1"/>
		<g id="XMLID_24922_">
			<path id="XMLID_24923_" class="st0" d="M85.2,433c4.2-3.4,7.7,4.9,1.5,5.6"/>
		</g>
		<g id="XMLID_24920_">
			<path id="XMLID_24921_" class="st0" d="M84,347.2c4.2-3.4,7.7,4.9,1.5,5.6"/>
		</g>
	</g>
	<path id="XMLID_24919_" class="st0" d="M35.6,219.2c0,0,1,21-2,23"/>
</g>
</svg>
