<?xml version="1.0" encoding="utf-8"?>
<!-- Generator: Adobe Illustrator 22.1.0, SVG Export Plug-In . SVG Version: 6.00 Build 0)  -->
<svg version="1.1" id="Layer_1" xmlns="http://www.w3.org/2000/svg" xmlns:xlink="http://www.w3.org/1999/xlink" x="0px" y="0px"
	 viewBox="0 0 22 91" style="enable-background:new 0 0 22 91;" xml:space="preserve">
<style type="text/css">
	.st0{opacity:0.1;fill:#092D30;enable-background:new    ;}
	.st1{fill:#FDF5EA;stroke:#5B5B4B;stroke-linecap:round;stroke-miterlimit:10;}
</style>
<g id="Layer_5">
</g>
<g id="Layer_3">
</g>
<g>
	<path id="XMLID_57216_" class="st0" d="M6.9,57c0,0-12.1,0.9-3.4,6.3S25.4,56.4,6.9,57z"/>
	<path id="XMLID_57215_" class="st0" d="M7.4,25.9c0,0-10.6-0.6-5.7,4.7s13.6-0.1,14.3-2.4S7.4,25.9,7.4,25.9z"/>
	<path id="XMLID_57217_" class="st0" d="M6.7,41.1c0,0-13.1,1.8-2.6,6.4S21.7,39.1,6.7,41.1z"/>
	<path id="XMLID_2400_" class="st1" d="M12.2,51.8c0,0-12.1,0.9-3.4,6.3S30.6,51.2,12.2,51.8z"/>
	<path id="XMLID_2399_" class="st1" d="M12.6,20.7c0,0-10.6-0.6-5.7,4.7c4.9,5.2,13.6-0.1,14.3-2.4S12.6,20.7,12.6,20.7z"/>
	<path id="XMLID_2398_" class="st1" d="M12,35.8c0,0-13.1,1.8-2.6,6.4S27,33.9,12,35.8z"/>
</g>
</svg>
