<?xml version="1.0" encoding="utf-8"?>
<!-- Generator: Adobe Illustrator 22.1.0, SVG Export Plug-In . SVG Version: 6.00 Build 0)  -->
<svg version="1.1" id="Layer_1" xmlns="http://www.w3.org/2000/svg" xmlns:xlink="http://www.w3.org/1999/xlink" x="0px" y="0px"
	 viewBox="0 0 91 91" style="enable-background:new 0 0 91 91;" xml:space="preserve">
<style type="text/css">
	.st0{fill:#FDF5EA;stroke:#5B5B4B;stroke-linecap:round;stroke-miterlimit:10;}
</style>
<g>
	<g>
		<path class="st0" d="M88,24.2c0,0-0.9-1.8-2.9-1.7c0,0-76.8-0.6-79-0.7c-1.9-0.2-2.9,1.7-2.9,1.7S2.7,66.9,3.6,68.7
			c0,0,0.9,1.8,2.9,1.7c0,0,11.6,0.2,25.8,0.4c0-0.1,0-0.3,0.2-0.4C32.9,70.2,45,58.2,45,58.2c0.3-0.3,0.9,0,0.9,0
			C47.5,59.4,58,70.7,58,70.7s0.1,0.2,0.1,0.4c12.7,0.1,23.5,0.1,25.8-0.2c1.9-0.2,2.9-1.7,2.9-1.7S88.5,29.2,88,24.2z"/>
		<path class="st0" d="M46,58.1c0,0-0.7-0.4-0.9,0c0,0-12.1,12-12.5,12.2c-0.1,0.1-0.2,0.2-0.2,0.4C40.6,70.9,49.7,71,58,71
			c0-0.2-0.1-0.4-0.1-0.4S47.5,59.4,46,58.1z"/>
	</g>
	<g>
		<path class="st0" d="M37.3,46.4c0-0.2,0-0.4,0-0.6c0-0.8-0.1-1.5-0.3-2.3c-0.2-0.9-0.5-1.7-0.7-2.6c0,0-0.1-0.1-0.2-0.2
			c-0.5-1.4-1.1-2.6-2.1-3.4c-0.8-1-2-1.8-3.3-2.3c-0.7-0.4-1.3-0.8-2.1-1.2c0,0-0.5,0-1.3,0c-0.8-0.3-1.7-0.4-2.5-0.4
			c-0.2,0-0.4,0-0.6,0c-0.8,0-1.5,0.1-2.3,0.3c-0.9,0.2-1.7,0.5-2.6,0.7c0,0-0.1,0.1-0.2,0.2c-1.4,0.5-2.6,1.1-3.4,2.1
			c-1,0.8-1.8,2-2.3,3.3c-0.4,0.7-0.8,1.3-1.2,2.1c0,0,0,0.5,0,1.3c-0.3,0.8-0.4,1.7-0.4,2.5c0,0.2,0,0.4,0,0.6
			c0,0.8,0.1,1.5,0.3,2.3c0.2,0.9,0.5,1.7,0.7,2.6c0,0,0.1,0.1,0.2,0.2c0.5,1.4,1.1,2.6,2.1,3.4c0.8,1,2,1.8,3.3,2.3
			c0.7,0.4,1.3,0.8,2.1,1.2c0,0,0.5,0,1.3,0c0.8,0.3,1.7,0.4,2.5,0.4c0.2,0,0.4,0,0.6,0c0.8,0,1.5-0.1,2.3-0.3
			c0.9-0.2,1.7-0.5,2.6-0.7c0,0,0.1-0.1,0.2-0.2c1.4-0.5,2.6-1.1,3.4-2.1c1-0.8,1.8-2,2.3-3.3c0.4-0.7,0.8-1.3,1.2-2.1
			c0,0,0-0.5,0-1.3C37.2,48.1,37.4,47.3,37.3,46.4z"/>
		<path class="st0" d="M79.7,46.8c0-0.2,0-0.4,0-0.6c0-0.8-0.1-1.5-0.3-2.3c-0.2-0.9-0.5-1.7-0.7-2.6c0,0-0.1-0.1-0.2-0.2
			c-0.5-1.4-1.1-2.6-2.1-3.4c-0.8-1-2-1.8-3.3-2.3c-0.7-0.4-1.3-0.8-2.1-1.2c0,0-0.5,0-1.3,0c-0.8-0.3-1.7-0.4-2.5-0.4
			c-0.2,0-0.4,0-0.6,0c-0.8,0-1.5,0.1-2.3,0.3c-0.9,0.2-1.7,0.5-2.6,0.7c0,0-0.1,0.1-0.2,0.2c-1.4,0.5-2.6,1.1-3.4,2.1
			c-1,0.8-1.8,2-2.3,3.3c-0.4,0.7-0.8,1.3-1.2,2.1c0,0,0,0.5,0,1.3c-0.3,0.8-0.4,1.7-0.4,2.5c0,0.2,0,0.4,0,0.6
			c0,0.8,0.1,1.5,0.3,2.3c0.2,0.9,0.5,1.7,0.7,2.6c0,0,0.1,0.1,0.2,0.2c0.5,1.4,1.1,2.6,2.1,3.4c0.8,1,2,1.8,3.3,2.3
			c0.7,0.4,1.3,0.8,2.1,1.2c0,0,0.5,0,1.3,0c0.8,0.3,1.7,0.4,2.5,0.4c0.2,0,0.4,0,0.6,0c0.8,0,1.5-0.1,2.3-0.3
			c0.9-0.2,1.7-0.5,2.6-0.7c0,0,0.1-0.1,0.2-0.2c1.4-0.5,2.6-1.1,3.4-2.1c1-0.8,1.8-2,2.3-3.3c0.4-0.7,0.8-1.3,1.2-2.1
			c0,0,0-0.5,0-1.3C79.6,48.5,79.8,47.7,79.7,46.8z"/>
	</g>
</g>
</svg>
