<?xml version="1.0" encoding="utf-8"?>
<!-- Generator: Adobe Illustrator 19.0.0, SVG Export Plug-In . SVG Version: 6.00 Build 0)  -->
<svg version="1.1" id="Layer_1" xmlns="http://www.w3.org/2000/svg" xmlns:xlink="http://www.w3.org/1999/xlink" x="0px" y="0px"
	 viewBox="0 0 254.7 215.7" style="enable-background:new 0 0 254.7 215.7;" xml:space="preserve">
<g>
	<path style="fill:#8B022F;" d="M221,0.1c10.8,0,20.6,0,30.4,0c2.4,0,3.3,0.9,3.2,3.3c-0.1,2,0,4,0,6c0,49-0.1,98,0.1,147
		c0,4.8-1.4,5.8-5.9,5.6c-8.6-0.3-17.2-0.1-26.9-0.1c8-9.1,14.3-18,20.2-27.3c2.5-3.9,2.1-5.7-2.2-7.6c-9.8-4.5-19.4-9.5-29-14.5
		c-3-1.6-4.5-1.2-6.3,1.7c-6.9,10.9-15.2,20.6-25.9,28.1c-21,14.7-48.9,14-66.2-1.9c-11-10.2-15.9-23.6-18.7-37.9
		c-1.5-7.5-2-15.2-2.4-22.8c-0.2-3.9,1-5,5-5c45.5,0.1,91,0.1,136.5,0.1c6.9,0,6.6,0,6.7-6.9c0.2-12.2-0.5-24.4-3.4-36.1
		c-2.2-9.2-6.3-18-11.7-26C223.5,4,222.6,2.5,221,0.1z"/>
	<path style="fill:#8B022F;" d="M35.2,0.1c-19.5,24.7-27,52.1-26,82c1,29.8,10.3,56.5,30.9,79.2c-4.3,1-8.2,0.5-12.1,0.5
		c-7.7,0.1-15.3-0.2-23,0.1C1.2,162.1,0,161,0,157c0.2-18.8,0.1-37.6,0.1-56.5C0.1,68.7,0.2,36.9,0,5.1C0,1.2,1-0.1,5,0
		C14.7,0.3,24.5,0.1,35.2,0.1z"/>
	<path style="fill:#8B022F;" d="M127.2,37.1c-9.8,0-19.6-0.1-29.5,0.1c-3.4,0.1-4.3-1.1-3.7-4.4c4.4-26.1,36-38.2,56.7-21.6
		c7.4,6,9.6,14.5,10.3,23.5c0.2,3-2.1,2.4-3.8,2.4C147.2,37.1,137.2,37.1,127.2,37.1z"/>
	<path style="fill:#121212;" d="M175.6,189.8c0,6.8-0.2,13.6,0.1,20.4c0.1,3.6-1.4,4-4.4,4c-2.9,0-4.1-0.7-4.1-3.9
		c0.2-10.6,0-21.3,0.1-31.9c0-1.4-1.1-3.7,1.4-4.1c2.2-0.3,4.5-0.7,6.3,1.8c5.2,7.1,10.7,14,16.1,20.9c0.5,0.6,1.1,1.3,1.6,1.9
		c2-1,1.1-2.7,1.1-4c0.1-5.5,0.3-11,0-16.5c-0.2-3.7,1.4-4.3,4.6-4.4c3.2,0,3.9,1.1,3.9,4c-0.2,10.5,0,21-0.1,31.5
		c0,1.6,1.1,4-1.7,4.5c-2.1,0.4-4.2,0.3-5.8-1.9c-4.7-6.2-9.6-12.3-14.5-18.5c-1.2-1.5-2.4-3-3.6-4.5
		C176.3,189.4,176,189.6,175.6,189.8z"/>
	<path style="fill:#121212;" d="M244.4,192.8c10,0,10.6,0.9,7.3,10.4c-4.5,13.2-20.4,16.8-30.2,6.7c-6.8-7.1-8-19.1-2.6-27.8
		c4.7-7.7,13.9-10.9,22.6-8c2.6,0.8,5,2.2,6.6,4.3c1.1,1.4,4.3,3.1,1.6,5.2c-1.9,1.5-4.3,4-7.5,0.3c-4.5-5.3-10.7-4.8-15,0.5
		c-4.4,5.5-4.5,14.6,0,20c3.9,4.8,10.5,5.2,14.4,0.8c1.2-1.4,2.6-3,1.8-4.8c-0.7-1.7-2.6-0.8-4-0.9c-2.2,0-3.9,0-3.9-3.1
		c0.1-2.4,0.5-3.9,3.3-3.6C240.7,193,242.6,192.8,244.4,192.8z"/>
	<path style="fill:#121212;" d="M40.3,194.1c0-5.5,0.1-11,0-16.5c-0.1-2.4,0.4-3.8,3.2-3.6c3.3,0.2,6.7-0.1,10,0.2
		c5,0.4,8.9,2.6,10.4,7.8c1.6,5.3,0.6,10.1-3.7,13.5c-2.7,2.1-2.7,3.5-0.9,6c2.3,3.2,4.3,6.7,6.6,10c1.4,2.1,1,2.8-1.5,2.9
		c-4.2,0.3-8,0.1-9.6-4.8c-0.6-1.7-1.8-3.2-2.8-4.7c-0.6-0.9-1-2.4-2.4-2.1c-1.6,0.3-1,1.9-1.1,2.9c-0.1,1.3-0.1,2.7,0,4
		c0.3,3-0.1,4.9-4.1,4.9c-4,0-4.2-1.8-4.1-4.9C40.4,204.5,40.3,199.3,40.3,194.1z M48.2,186.4c1.3,1.9-1.8,5.6,2.6,5.8
		c3.6,0.1,5.4-2.2,5.3-5.7c0-3.3-1.8-5.4-5.1-5.5C46.4,180.8,49.4,184.6,48.2,186.4z"/>
	<path style="fill:#121212;" d="M120.3,214.3c-4,0.8-4.3-0.8-2.9-4.3c4.4-10.8,8.6-21.6,12.7-32.5c1-2.6,2.4-3.4,5.1-3.5
		c2.8,0,3.7,1.3,4.5,3.6c3.8,10.6,7.9,21.2,11.7,31.8c0.5,1.4,2.7,3.9,0.3,4.6c-2.4,0.6-6.5,2.3-7.7-1.9c-1.5-5.4-4.8-6.4-9.9-6.3
		c-4.5,0.1-7.7,0.8-8.7,5.8C124.8,214.4,122.7,214.6,120.3,214.3z M133.9,186.5c-1.1,3.9-2.1,7.3-3,10.6c-0.2,0.8-0.5,2,0.5,2.1
		c2.1,0.3,4.3,0.3,6.4,0.2c1.1,0,1.2-1.1,0.8-1.9C137.1,194.1,136.7,190.2,133.9,186.5z"/>
	<path style="fill:#121212;" d="M0.7,194.1c0-5.5,0.1-11,0-16.5c-0.1-2.5,0.7-3.6,3.4-3.5c4.8,0.2,9.7,0.2,14.5,0
		c2.8-0.1,3.3,1.2,3.3,3.6c0,2.5-0.6,3.8-3.4,3.6c-1.7-0.1-3.4,0.2-5-0.1c-4.1-0.6-5.1,1.3-4.9,5.1c0.1,2.8,1.1,3.9,3.8,3.7
		c1.7-0.1,3.3,0.1,5,0c2.5-0.2,4,0.2,4,3.4c-0.1,2.9-1.1,3.9-3.9,3.5c-0.8-0.1-1.7,0-2.5,0c-6.7,0-6.8,0.2-6.4,7.1
		c0.1,2.3,0.9,3.4,3.2,3.3c2-0.1,4,0.1,6,0c2.4-0.1,4,0.1,4,3.4c0,3.3-1.3,3.9-4.1,3.8c-4.3-0.2-8.7-0.3-13,0
		c-3.6,0.3-4.2-1.3-4-4.4C0.8,204.7,0.7,199.4,0.7,194.1z"/>
	<path style="fill:#121212;" d="M83.5,194c0-5,0.1-10,0-14.9c-0.1-2.8-0.4-5.1,3.9-5c4,0.1,4.1,1.9,4.1,4.9
		c-0.2,7.8,0.1,15.6-0.2,23.4c-0.2,4,1.1,5.3,5,5c2-0.1,4.5-1.2,6,1c1.8,2.6-0.3,6-3.5,6c-3.8,0.1-7.7-0.2-11.5,0.1
		c-3.2,0.2-4-1.1-3.9-4C83.6,204.9,83.5,199.4,83.5,194z"/>
	<path style="fill:#FEFEFE;" d="M48.2,186.4c1.3-1.8-1.8-5.6,2.8-5.5c3.3,0.1,5.1,2.2,5.1,5.5c0.1,3.5-1.7,5.9-5.3,5.7
		C46.4,192,49.4,188.3,48.2,186.4z"/>
	<path style="fill:#FEFEFE;" d="M133.9,186.5c2.8,3.6,3.3,7.5,4.7,11.1c0.3,0.8,0.2,1.8-0.8,1.9c-2.1,0.1-4.3,0.1-6.4-0.2
		c-1-0.1-0.7-1.3-0.5-2.1C131.8,193.8,132.8,190.5,133.9,186.5z"/>
</g>
</svg>
