<?xml version="1.0" encoding="utf-8"?>
<!-- Generator: Adobe Illustrator 19.0.0, SVG Export Plug-In . SVG Version: 6.00 Build 0)  -->
<svg version="1.1" id="Layer_1" xmlns="http://www.w3.org/2000/svg" xmlns:xlink="http://www.w3.org/1999/xlink" x="0px" y="0px"
	 viewBox="0 0 100.5 100.5" style="enable-background:new 0 0 100.5 100.5;" xml:space="preserve">
<g>
	<path style="fill:#4C4C4C;" d="M100.5,50.4c0,27.3-22.7,50-49.9,50.1C23.1,100.5,0,77.6,0,50.3C0,23.4,23.1,0.2,50.1,0
		C77.3-0.2,100.5,23,100.5,50.4z M29.7,89.7c0.2,0.2,0.3,0.4,0.5,0.6c0-0.1,0.1-0.3,0.1-0.4C30.2,89.8,30,89.8,29.7,89.7
		c-1.6-8.2-5.3-15.6-8-23.4c-3.9-11.2-8.1-22.2-12.4-34C5.6,40.1,4.8,47.5,5.7,55C7.7,70.6,15,82.8,29.7,89.7z M13.4,25.4
		c4.8,0.6,9.1-0.1,13.4-0.3c1.2-0.1,2.4,0.2,2.7,1.6c0.3,1.2-0.7,2.1-1.6,2c-6.4-0.2-4.1,3.5-3,6.6c1.6,4.9,3.3,9.8,4.9,14.7
		c3,8.9,6.1,17.8,9.4,27.8c1.8-5.4,2.7-10,4.8-14.1c5.2-10.3,5-20.2-0.4-30.2c-0.2-0.3-0.4-0.6-0.4-0.9c-0.4-2.3-1.7-3.4-4.1-3.5
		c-1.4-0.1-3.5,0.1-3.2-2.1c0.2-2.4,2.4-1.9,4-1.7c6.3,0.6,12.6,0.7,19,0c1.7-0.2,4.2-0.9,4.5,1.7c0.2,2.3-2.2,2.1-3.7,2.1
		c-2.9,0.1-2.8,1.4-1.8,3.4c0.5,1,0.7,2.2,1.1,3.3c4.6,13.6,9.1,27.1,14,41.7c2.1-6.9,3.7-12.8,5.8-18.5c3.4-9.3,2.4-17.7-3.1-26
		c-5.1-7.6-3.7-11.8,4.2-16.5C59.3-1.1,27.2,3,13.4,25.4z M37.7,93.4C46,95.7,54,95.6,62,93.7c1.6-0.4,3.3-0.7,2.4-3.2
		C60,78.8,55.8,67,51.1,54.3C46.4,67.9,42.1,80.6,37.7,93.4z M90.4,31.6c-2.1,20-11.7,37.2-16.6,56C94,78.5,100.6,47.8,90.4,31.6z"
		/>
	<path style="fill:#F9F9F9;" d="M29.7,89.7c0.2,0.1,0.4,0.1,0.6,0.2c0,0.1-0.1,0.3-0.1,0.4C30.1,90.1,29.9,89.9,29.7,89.7
		C29.7,89.7,29.7,89.7,29.7,89.7z"/>
</g>
</svg>
