<?xml version="1.0" encoding="utf-8"?>
<!-- Generator: Adobe Illustrator 22.1.0, SVG Export Plug-In . SVG Version: 6.00 Build 0)  -->
<svg version="1.1" id="Layer_1" xmlns="http://www.w3.org/2000/svg" xmlns:xlink="http://www.w3.org/1999/xlink" x="0px" y="0px"
	 viewBox="0 0 127.1 72.3" style="enable-background:new 0 0 127.1 72.3;" xml:space="preserve">
<style type="text/css">
	.st0{fill:#231F20;stroke:#231F20;stroke-miterlimit:10;}
</style>
<path class="st0" d="M47.1,13.6c0,0-7.5-4.7-12.9,2.6c-1.3,1.8-1.7,3.8-1.3,5.7c0.1,0.5,0.2,2.4,0.2,5.1c-2.1,0-4.2,0-6.2-0.1
	c0-1.1,0-1.8-0.1-2c-0.5-3.8-3.4-7.2-3.4-7.2s-7.5-4.7-12.9,2.6c-1.3,1.8-1.7,3.8-1.3,5.7c0,0.2,0.1,0.5,0.1,0.9
	C5.4,27.4,2,30.4,2,30.4s-4.7,7.5,2.6,12.9c1.5,1.1,3.1,1.5,4.7,1.4c0.4,0,0.7,0,1-0.1c1.1-0.2,8.1-0.2,16.4-0.2c2,0,4.1,0,6.2,0
	c6.4,0.1,12.8,0.1,17.4,0.2c3.7,0,6.3,0.1,6.7,0.1c0.4,0,0.7-0.1,1.1-0.1c1.8,7.2,6.3,14.7,15.4,21.3c29.5,21.5,68.4-21,46.7-51.8
	C98.6-16.7,63,14.3,63,14.3s-3.2,5.1-4.9,12.6c-0.4,0-0.7,0-1.1,0.1c-0.8,0.1-3.2,0.1-6.5,0.2c0-3.4,0-5.8-0.1-6.3
	C50,17,47.1,13.6,47.1,13.6z M77.4,25.7c0,0,17.1-14.9,27.5-0.1c10.4,14.8-8.3,35.3-22.5,24.9C68.3,40.1,77.4,25.7,77.4,25.7z"/>
</svg>
