<?xml version="1.0" encoding="utf-8"?>
<!-- Generator: Adobe Illustrator 22.1.0, SVG Export Plug-In . SVG Version: 6.00 Build 0)  -->
<svg version="1.1" id="Layer_1" xmlns="http://www.w3.org/2000/svg" xmlns:xlink="http://www.w3.org/1999/xlink" x="0px" y="0px"
	 viewBox="0 0 44.9 45.4" style="enable-background:new 0 0 44.9 45.4;" xml:space="preserve">
<style type="text/css">
	.st0{opacity:0.1;fill:#35423E;stroke:#35423E;stroke-linecap:round;stroke-miterlimit:10;}
	.st1{fill:#FDF5EA;stroke:#35423E;stroke-linecap:round;stroke-miterlimit:10;}
	.st2{fill:#F7C872;stroke:#35423E;stroke-linecap:round;stroke-miterlimit:10;}
</style>
<path id="XMLID_35_" class="st0" d="M35.4,7.1c0,0-22.5-8.3-28.7,12.9s12.7,25.5,15.3,25.3c2.6-0.2,24.6-2,22.8-16.1
	C43,15.2,39.7,9.5,35.4,7.1z"/>
<path id="XMLID_36_" class="st1" d="M30.4,2.1C30.4,2.1,8-6.2,1.7,15s12.7,25.5,15.3,25.3c2.6-0.2,24.6-2,22.8-16.1
	C38,10.2,34.7,4.5,30.4,2.1z"/>
<g id="XMLID_31_">
	<g id="XMLID_33_">
		<path id="XMLID_34_" class="st2" d="M24,22.4c0,0,1.3-6.5-4.3-4.7c-5.5,1.8-2.2,16.1,0.7,15.5S24.8,30.3,24,22.4z"/>
	</g>
	<path id="XMLID_32_" class="st2" d="M21,8.8c0,0,6.2,3.6,0.1,6.2S16.9,5.6,21,8.8z"/>
</g>
</svg>
