<?xml version="1.0" encoding="utf-8"?>
<!-- Generator: Adobe Illustrator 19.0.0, SVG Export Plug-In . SVG Version: 6.00 Build 0)  -->
<svg version="1.1" id="Layer_1" xmlns="http://www.w3.org/2000/svg" xmlns:xlink="http://www.w3.org/1999/xlink" x="0px" y="0px"
	 viewBox="60.4 207 293.3 380" style="enable-background:new 60.4 207 293.3 380;" xml:space="preserve">
<style type="text/css">
	.st0{fill:#008CDB;}
</style>
<g>
	<path class="st0" d="M136.2,492.2c-12.4-12.1-24.8-24.5-36.8-36.6c-12-12-24.4-24.5-36.7-36.5l-2.3-2.3l2.2-2.4
		c3.9-4.2,8-8.2,11.9-12.1c3.9-3.9,7.9-7.9,11.7-11.9l2.2-2.3l2.4,2.1c5.6,4.8,10.8,10.1,15.8,15.2c2.1,2.2,4.3,4.4,6.4,6.5v-130
		c0-26,5.2-43.6,16.4-55.4c11-11.6,27.9-17.5,53.3-18.9c8.4-0.4,16.4-0.7,23.8-0.7c30,0,52.3,3.7,66.5,11
		c12,6.1,20.3,14.9,25.6,26.8c5.1,11.5,7.1,25.8,6.2,43.6l-0.2,3.1h-58.5l0.3-3.6c1.3-14.6-0.8-25.3-6.4-31.8
		c-3.8-4.5-9.2-6.9-16.4-7.5c-2.8-0.2-5.8-0.3-9.3-0.3c-3.2,0-6.4,0.1-9.5,0.2c-2.7,0.1-5.5,0.1-8.2,0.2c-21.2,0.1-31.2,9-32.5,28.7
		c-1,14.8-0.7,29.8-0.3,45.7c0.2,8.2,0.4,16.7,0.4,25.4v53.2c0,1-0.1,2.7-0.2,4.7c-0.1,1.5-0.2,3.8-0.3,6c0.2-0.2,0.4-0.4,0.6-0.6
		c0.5-0.5,0.7-0.8,0.9-1c2.4-2.4,4.8-4.7,7.1-7c4.6-4.5,8.9-8.7,13.1-13.3l2.3-2.5l2.4,2.3c4.2,3.9,8.2,8,12.1,11.9
		c3.9,3.9,7.8,7.9,11.9,11.7l2.5,2.3l-2.4,2.4c-12.1,12.4-24.6,24.8-36.6,36.8c-12,12-24.5,24.4-36.5,36.7l-2.3,2.4L136.2,492.2
		L136.2,492.2z"/>
	<path class="st0" d="M211.6,587c-21.7,0-39.5-0.3-54.8-4.6c-16.8-4.6-29.2-13.2-37.1-25.5c-8.2-12.8-11.5-30-10-51.1l0.2-3.1h58.4
		l-0.2,3.5c-1.8,25.6,4.8,37.7,21.4,39.3c2,0.2,4.3,0.3,7.1,0.3c2.6,0,5.4-0.1,8.1-0.1c2.8-0.1,5.7-0.2,8.5-0.2
		c16,0,25.8-1.6,31.6-10c5.3-7.7,5.7-18.9,5.7-33.9V382.3c-4.9,4.9-10.2,10.3-15.3,15.6c-2,2.1-4,4.1-5.9,6.1l-2.2,2.2l-2.4-2
		c-4.9-4.1-9.4-8.7-13.8-13.2c-3.3-3.4-6.8-7-10.4-10.2l-2.5-2.3l2.4-2.5c17.6-18.5,36.1-36.8,53.9-54.4
		c6.3-6.3,12.9-12.7,19.3-19.1l2.3-2.3l2.3,2.3c12.3,12,24.7,24.4,36.6,36.4c11.9,12,24.3,24.3,36.5,36.4l2.3,2.2l-2.1,2.4
		c-7.6,8.6-15.7,16.7-24.3,24.3l-2.3,2.1l-2.2-2.2c-2.3-2.3-4.6-4.7-6.9-7.1c-4.7-4.9-9.6-9.9-14.3-14.3v110.7c0,1.8,0,3.7,0,5.5
		c0,18.7,0.1,36.3-4.6,50.2c-5,14.8-15.5,25.4-31.1,31.6C250.5,586.5,230.6,587,211.6,587L211.6,587z"/>
</g>
<wappalyzerData  id="wappalyzerData" style="display: none"></wappalyzerData>
<script  id="wappalyzerEnvDetection" src="chrome-extension://gppongmhjkpfnbhagpmjfkannfbllamg/js/inject.js"></script>
</svg>
