<?xml version="1.0" encoding="utf-8"?>
<!-- Generator: Adobe Illustrator 19.0.0, SVG Export Plug-In . SVG Version: 6.00 Build 0)  -->
<svg version="1.1" id="Layer_1" xmlns="http://www.w3.org/2000/svg" xmlns:xlink="http://www.w3.org/1999/xlink" x="0px" y="0px"
	 viewBox="0 0 117.8 150" style="enable-background:new 0 0 117.8 150;" xml:space="preserve">
<g>
	<path style="fill:#2BA977;" d="M0,83.2c0-4.5,0-9,0-13.5c1.5-0.8,1.2-2.4,1.4-3.6c1.1-5.5,3.2-10.5,6.7-14.9
		c10.5-13.2,24.7-16.3,40.5-14.8c4.4,0.4,4.4,0.6,4.4-3.9c0.1-10.6,0.1-21.2,0.2-31.8c8,0,16,0,24,0c0.1,1.2,0.2,2.5,0.2,3.7
		c0,17.4,0,34.7,0,52.1c0,17.5,0,35,0,52.5c0,1.7,0.5,3.5-2.1,3.9c-14.7,2.5-29.5,4.2-44.3,1.5c-17.4-3.1-26.6-12.3-30.1-29.4
		C0.7,84.4,0.9,83.6,0,83.2z M53.9,76.8c0-5.6,0-11.2,0-16.8c0-1.3,0.1-2.3-1.5-3c-8.6-3.4-20.3,1-24.1,9.1c-8,17,2,31.9,20.6,30.8
		c0.7,0,1.5-0.2,2.2-0.1c2.3,0.1,3-0.9,2.9-3.2C53.8,88,53.9,82.4,53.9,76.8z"/>
	<path style="fill:#2BA977;" d="M91.5,150c-7.3-3.5-14.5-7.1-22.1-10.7c1.9-1,3.4-1.9,5-2.7c11.2-5.6,16.6-15,17.9-27.2
		c0.9-8.5,0.8-17,0.8-25.5c0-13.9,0.1-27.7-0.1-41.6c0-2.6,0.7-3.4,3.3-3.4c6.9,0.2,13.7,0.1,20.6,0.1c0.1,1.1,0.2,2.2,0.2,3.3
		c0,19,0,38.1,0,57.1c0,1.4-0.3,2.8,0.5,4c0,2.8,0,5.5,0,8.2c-1.3,0.7-0.8,2-0.9,3c-1.7,15.8-9,27.7-23.7,34.6
		c-0.3,0.1-0.6,0.5-0.9,0.7C92,150,91.8,150,91.5,150z"/>
	<path style="fill:#2BA977;" d="M115.5,0c-0.8,7.2-0.3,14.4-0.2,21.6c0,3.1-1,3.8-3.8,3.7c-6-0.2-12-0.1-18,0c-2,0-2.9-0.5-2.8-2.7
		c0.2-7.2,0.1-14.5,0.2-21.7c6.6,0,13.1,0,19.7-0.1c1.4,0,3,0.5,4.2-0.7C115,0,115.2,0,115.5,0z"/>
</g>
</svg>
