<?xml version="1.0" encoding="utf-8"?>
<!-- Generator: Adobe Illustrator 19.0.0, SVG Export Plug-In . SVG Version: 6.00 Build 0)  -->
<svg version="1.1" id="Layer_1" xmlns="http://www.w3.org/2000/svg" xmlns:xlink="http://www.w3.org/1999/xlink" x="0px" y="0px"
	 viewBox="0 0 2000 1412" style="enable-background:new 0 0 2000 1412;" xml:space="preserve">
<g>
	<path style="fill:#989898;" d="M826,1c-0.2,2.3,1.5,3.6,2.6,5.2c266.4,399.7,532.9,799.4,799.3,1199.1
		c44.9,67.4,89.8,134.7,134.7,202.1c1.1,1.7,3.2,3.1,2.5,5.6c-117.3,0-234.7,0-352,0c-0.7-1.1-1.3-2.3-2.1-3.4
		c-96-144.1-192.1-288.2-288.1-432.2c-3.5-5.2-3.5-5.2-6.9-0.1c-95.1,142.7-190.3,285.4-285.4,428.1c-1.6,2.5-3.8,4.6-4.6,7.6
		c-117.7,0-235.3,0-353,0c0.2-2.3,1.9-3.8,3.1-5.6c154.3-231.5,308.6-463.1,463.1-694.5c2.9-4.3,2.8-7.1-0.1-11.4
		C784.5,469.8,629.9,238,475.4,6.2c-1.1-1.6-2.8-2.9-2.4-5.2C590.7,1,708.3,1,826,1z"/>
	<path style="fill:#666666;" d="M355,1413c-117.7,0-235.3,0-353,0c0.3-2.3,2-3.8,3.2-5.6C159.6,1175.8,314,944.1,468.5,712.5
		c2.6-3.9,2.7-6.4,0.1-10.4c-154.8-232-309.5-464-464.2-696C3.4,4.7,2.9,2.7,1,2c1.1-2.1,3-0.9,4.5-0.9C78.2,1,150.8,1,223.5,1
		c43.8,0,87.7,0,131.5,0c-0.2,2.3,1.6,3.6,2.6,5.2C512.2,238.1,666.8,470,821.5,701.8c2.7,4,2.9,6.6,0.1,10.8
		c-153.3,229.6-306.4,459.3-459.5,689C359.7,1405.4,357.4,1409.2,355,1413z"/>
	<path style="fill:#FEFEFE;" d="M1,2c1.9,0.7,2.4,2.7,3.4,4.1c154.7,232,309.4,464,464.2,696c2.7,4,2.5,6.5-0.1,10.4
		C314,944.1,159.6,1175.8,5.2,1407.4c-1.2,1.8-2.9,3.3-3.2,5.6c-0.3-0.2-1,0.5-1-0.5c0-1.3,0-2.7,0-4C1,939.7,1,470.8,1,2z"/>
	<path style="fill:#FEFEFE;" d="M355,1413c2.4-3.8,4.7-7.6,7.2-11.4c153.1-229.7,306.2-459.4,459.5-689c2.8-4.2,2.5-6.8-0.1-10.8
		C666.8,470,512.2,238.1,357.6,6.2c-1.1-1.6-2.8-2.9-2.6-5.2c39.3,0,78.7,0,118,0c-0.4,2.3,1.4,3.6,2.4,5.2
		c154.5,231.8,309,463.6,463.7,695.3c2.9,4.3,2.9,7,0.1,11.4c-154.5,231.4-308.8,463-463.1,694.5c-1.2,1.8-2.9,3.2-3.1,5.6
		C433.7,1413,394.3,1413,355,1413z"/>
	<path style="fill:#666666;" d="M2001,648c-2,0.1-4,0.4-5.9,0.4c-205,0-409.9,0-614.9,0.1c-4.4,0-6.8-1.3-9.2-4.9
		c-49.9-75.2-100-150.2-150.1-225.3c-1-1.5-1.9-3-3.2-5.2c261.6,0,522.5,0,783.3,0C2001,491.3,2001,569.7,2001,648z"/>
	<path style="fill:#FEFEFE;" d="M826,1413c0.7-3,2.9-5.2,4.6-7.6c95.1-142.7,190.2-285.4,285.4-428.1c3.4-5.1,3.4-5.1,6.9,0.1
		c96.1,144.1,192.1,288.1,288.1,432.2c0.7,1.1,1.4,2.3,2.1,3.4C1217.3,1413,1021.7,1413,826,1413z"/>
	<path style="fill:#666666;" d="M2001,1002c-2.2-0.1-4.3-0.3-6.5-0.3c-126.3,0-252.6,0-379,0.1c-4.1,0-6.6-1.2-8.9-4.7
		c-50.1-75.3-100.2-150.5-150.4-225.8c-1-1.5-1.9-3-3.2-5.3c2.6,0,4.6,0,6.5,0c178.3,0,356.6,0,535,0c2.2,0,4.3-0.1,6.5-0.1
		C2001,844.7,2001,923.3,2001,1002z"/>
</g>
</svg>
