<?xml version="1.0" encoding="utf-8"?>
<!-- Generator: Adobe Illustrator 19.0.0, SVG Export Plug-In . SVG Version: 6.00 Build 0)  -->
<svg version="1.1" id="Layer_1" xmlns="http://www.w3.org/2000/svg" xmlns:xlink="http://www.w3.org/1999/xlink" x="0px" y="0px"
	 viewBox="2648.1 1014.7 316.4 224.7" style="enable-background:new 2648.1 1014.7 316.4 224.7;" xml:space="preserve">
<g>
	<path style="fill:#060601;" d="M2891.2,1239.4c-28.5-0.1-51.6-7.3-70.2-26c-4.8-4.9-8.7-10.5-12.3-16.3c-1.8-2.9-1.6-4.3,1.5-6
		c10-5.6,19.9-11.3,29.7-17.3c2.8-1.7,4.1-1.3,5.7,1.4c6.7,10.5,15.4,18.8,27.8,22.1c9.9,2.7,19.8,2.9,29.5-0.5
		c7.9-2.8,13.9-7.8,15.1-16.9c1.2-9.2-2.3-16.2-9.9-21.3c-9.5-6.3-20.1-10.3-30.4-14.8c-13.4-5.8-26.8-11.8-37.7-22
		c-19.3-18.1-24.2-40.6-17.1-65.2c7-24.3,25.2-36.8,49.3-40.6c18.6-3,36.9-1.5,53.6,8.4c9.8,5.8,17,14.2,23,23.8c1.3,2,1,3.1-1,4.3
		c-10.1,6.4-20.2,12.8-30.2,19.4c-3.2,2.1-3.7-0.4-4.7-2.1c-6.2-10.1-14.9-16.1-27-15.8c-20.9,0.6-24.9,18.6-18.6,30
		c2.8,5.2,7.8,8.1,12.8,10.8c10.1,5.4,20.9,9.2,31.3,14.1c13.4,6.3,26.6,13.1,36.7,24.4c31.6,35.1,14.7,90.2-31.2,102.4
		C2907.7,1238.3,2898.2,1239.5,2891.2,1239.4z"/>
	<path style="fill:#060601;" d="M2782,1101.6c0,26.2,0.6,52.3-0.1,78.5c-0.9,33.7-24.1,56.8-57.7,59c-18.1,1.1-35.5-0.9-51.2-11
		c-10.5-6.7-18.2-15.9-24.1-26.8c-1.4-2.6-0.7-3.7,1.5-5c10.3-6.1,20.6-12.2,30.7-18.6c2.4-1.5,3.5-1.3,4.9,1.2
		c1.8,3.3,3.9,6.6,6.2,9.6c6.9,9.2,16.4,12.1,27.4,10.2c11-1.9,16.7-9.2,17.4-21.7c0.2-3.3,0.2-6.7,0.2-10
		c0-48.1,0.1-96.3-0.1-144.4c0-4.6,1.3-5.5,5.6-5.4c11.8,0.3,23.7,0.2,35.5,0c3.6-0.1,4.4,1.1,4.4,4.5c-0.1,26.7-0.1,53.3-0.1,80
		C2782.3,1101.6,2782.2,1101.6,2782,1101.6z"/>
</g>
</svg>
