<?xml version="1.0" encoding="utf-8"?>
<!-- Generator: Adobe Illustrator 19.0.0, SVG Export Plug-In . SVG Version: 6.00 Build 0)  -->
<svg version="1.1" id="Layer_1" xmlns="http://www.w3.org/2000/svg" xmlns:xlink="http://www.w3.org/1999/xlink" x="0px" y="0px"
	 viewBox="0 0 431.5 295.5" style="enable-background:new 0 0 431.5 295.5;" xml:space="preserve">
<g>
	<path style="fill:#FA503B;" d="M99.6,0.2c0.2,0.2,0.4,0.2,0.6,0.2c2.3,0.4,4.2,1.5,5.6,3.4c2.8,3.6,5,7.7,7.4,11.6
		c10.2,17,20.4,34.1,30.6,51.1c22.6,37.8,45.2,75.6,67.8,113.5c0.7,1.2,1.4,1.4,2.7,1.1c28.2-6.8,56.3-13.6,84.5-20.3
		c14.2-3.4,28.4-6.8,42.6-10.2c1.4-0.3,1.4-0.4,0.6-1.6c-14.1-19.9-28.2-39.9-42.3-59.8c-2.6-3.7-1.8-6.2,2.5-7.7
		c3.2-1.1,6.6-1.4,9.9-1.9c11.3-1.9,22.5-3.8,33.8-5.6c7.4-1.2,14.9-2.5,22.3-3.7c2.8-0.5,5.3,0.4,7.5,2.2c2.8,2.2,5,5.1,7.2,7.8
		c15.3,19,30.7,38,46,57c0.5,0.6,0.9,1.1,1.3,1.7c1.5,2.2,1,3.9-1.3,5.2c-0.9,0.5-1.9,0.8-2.9,1.1c-19,5.1-38,10.1-56.9,15.2
		c-0.2,0.1-0.4,0.1-0.6,0.2c-1,0.1-0.8,0.5-0.4,1.1c2.6,3.5,5.3,7,7.9,10.6c14.8,19.8,29.7,39.6,44.2,59.6c0.8,1.1,1.5,2.2,1.9,3.4
		c0.6,1.8,0.2,3.2-1.3,4.4c-1.9,1.4-4,2.3-6.2,3.1c-22,8.2-44.1,16.1-66.2,24c-22.6,8.1-45.2,16.3-67.9,24.1
		c-4.4,1.5-8.9,3.1-13.5,4c-5.1,1-9.3-0.5-12.6-4.5c-3.2-3.8-5.5-8-8-12.2c-14.4-24.6-28.1-49.5-41.9-74.5c-0.9-1.6-0.9-1.6-2.6-1.2
		c-27.6,7.2-55.1,14.5-82.8,21.4c-3.2,0.8-6.3,1.8-9.6,2.1c-8.4,0.8-14.7-2.7-18.3-10.4c-4.4-9.4-8.7-18.8-13.1-28.3
		C59.3,145.8,40,104.2,20.8,62.6c-6.1-13.3-12.2-26.6-18.3-40c-1-2.2-1.6-4.5-2.3-6.8c0-1.2,0-2.4,0-3.6c0.9-3.1,3.2-4.5,6.2-5
		C7.3,7.1,8.3,7.1,9.2,7C17.5,6.3,25.7,5.6,34,5c9.3-0.8,18.6-1.5,27.9-2.3C70.9,2,79.8,1.3,88.7,0.6c0.9-0.1,1.9,0.1,2.8-0.4
		C94.2,0.2,96.9,0.2,99.6,0.2z M111.2,205.7c0.4-0.1,0.8-0.1,1.2-0.2c3.1-0.7,6.1-1.4,9.2-2.1c19.4-4.6,38.7-9.2,58.1-13.9
		c4.2-1,8.4-2,12.6-3c1.8-0.4,2.2-1.2,1.5-2.9c-0.2-0.5-0.5-1-0.8-1.5c-22.5-38.9-45.1-77.8-67.6-116.8c-10-17.3-20-34.6-30-51.9
		c-0.5-0.8-1-1.2-1.9-1.1c-2,0.2-4.1,0.3-6.1,0.5c-9.6,0.8-19.3,1.6-28.9,2.5c-11.9,1-23.8,2.1-35.7,3.1c-2.3,0.2-2.7,0.8-1.8,3
		c0.1,0.3,0.2,0.5,0.3,0.8c8,16.4,15.9,32.7,23.9,49.1c7.6,15.7,15.2,31.3,22.8,47c10,20.6,20,41.2,29.9,61.8
		c4,8.2,8.1,16.4,11.8,24.7C110,205.5,110.5,205.8,111.2,205.7z M269.1,272.9c0.8,0,1.9-0.6,3-1c18.1-6.2,36.3-12.4,54.4-18.5
		c22.2-7.5,44.5-15.1,66.7-22.6c1.7-0.6,3.5-1.1,5.2-1.9c1.2-0.7,1.4-1.4,0.7-2.5c-0.5-0.8-1-1.5-1.5-2.3c-11-15-21.9-30-32.9-45
		c-3.3-4.5-6.5-9.1-9.8-13.6c-1.3-1.9-2.2-2.2-4.4-1.5c-0.5,0.2-1.1,0.3-1.6,0.5c-20.3,5.3-40.6,10.6-60.8,15.8
		c-21.7,5.6-43.3,11.3-65,16.9c-0.9,0.2-1.1,0.4-0.6,1.3c13.2,22.7,26.3,45.4,39.7,68c0.9,1.6,1.9,3.2,3.1,4.6
		C266.2,272,267.2,272.9,269.1,272.9z M357.6,146.9c0.1,0,0.3-0.1,0.6-0.1c12.8-3.2,25.6-6.3,38.5-9.5c4-1,8.1-1.9,12.1-3.1
		c2.3-0.7,2.4-1.5,1-3.3c-9.9-12.6-19.9-25.2-29.8-37.9c-2.2-2.8-4.4-5.7-6.6-8.5c-1.1-1.5-2.5-2.5-4.5-2.1
		c-2.1,0.4-4.1,0.8-6.2,1.2c-11.8,2.1-23.6,4.3-35.5,6.4c-2.5,0.4-5,0.8-7.4,1.3c-2,0.3-2.2,1-1.2,2.7c0.3,0.4,0.5,0.8,0.8,1.2
		c7.3,10,14.5,20,21.8,29.9c5.1,7,10.2,14,15.3,21C356.6,146.5,356.8,147,357.6,146.9z"/>
	<path style="fill:#FEFEFE;" d="M91.4,0.2c-0.9,0.5-1.8,0.3-2.8,0.4C79.8,1.3,70.9,2,61.9,2.7C52.6,3.4,43.3,4.2,34,5
		C25.7,5.6,17.5,6.3,9.2,7C8.3,7.1,7.3,7.1,6.4,7.3c-3,0.5-5.3,1.9-6.2,5c0-3.7,0-7.4,0-11c0-0.8,0.2-1,1-1
		C31.3,0.2,61.4,0.2,91.4,0.2z"/>
</g>
</svg>
