<?xml version="1.0" encoding="utf-8"?>
<!-- Generator: Adobe Illustrator 19.0.0, SVG Export Plug-In . SVG Version: 6.00 Build 0)  -->
<svg version="1.1" id="Layer_1" xmlns="http://www.w3.org/2000/svg" xmlns:xlink="http://www.w3.org/1999/xlink" x="0px" y="0px"
	 viewBox="0 0 896.1 442" style="enable-background:new 0 0 896.1 442;" xml:space="preserve">
<g>
	<path style="fill:#FEFEFE;" d="M315.2,279.6c-8.1,12.3-16.5,22.7-26.2,32.1c-23.5,22.9-51.6,36-83.9,40.4
		c-28,3.9-56.2,2.5-84.3,2.8c-8,0.1-7.9,0-9.4,7.6c-4.3,22.2-8.6,44.4-13,66.6C96.6,438.2,92,442,82.9,442c-22.5,0-45,0-67.5,0
		c-11.3,0-17.1-7.1-15-18.3c7.3-37.9,14.7-75.8,22.1-113.6C34.8,247.3,47,184.4,59.2,121.6c1.4-7.3,2.8-14.7,4.3-22
		c1.7-8.4,6.5-12.4,15-12.4c47.8,0,95.7-0.4,143.5,0.2c27.5,0.3,53.9,6,77,22.4c20.4,14.5,32.5,34.4,38.3,58.8
		c1.7-8.3,3.4-16.6,5-24.9c8.5-43.6,16.9-87.2,25.3-130.8C369.3,3.8,374,0,383.3,0c22.3,0,44.7,0,67,0c11.3,0,17,6.7,14.9,17.7
		c-4,21.2-8.2,42.5-12.4,63.7c-1.1,5.6-1.2,5.6,4.8,5.6c15.8,0,31.7-0.1,47.5,0.1c17.2,0.2,34.2,1.8,50.8,6.6
		c28,8,49.1,24.1,53.9,59.4c2.2-2.2,1.8-5,2.3-7.3c3.1-15.3,6-30.7,9.1-46c1.8-8.8,6.4-12.6,15.2-12.7c47.7,0,95.3-0.3,143,0.2
		c25.4,0.2,50,5.2,72,19c25.2,15.7,40.3,38.6,43.5,67.8c5.8,53.5-9.7,100-48.6,138c-25.6,25-56.7,37.7-92,41.1
		c-25.8,2.5-51.6,1.6-77.4,1.6c-4.9,0-6.8,1.4-7.7,6.2c-4.1,22.6-8.6,45.1-13,67.6c-1.9,9.6-6.5,13.4-16.2,13.4
		c-22.2,0-44.3,0-66.5,0c-11.8,0-17.6-6.7-15.4-18.2c4.1-21.7,8.4-43.4,12.6-65.2c0.3-1.6,0.9-3.2,0.3-5.1
		c-8.3,2.3-16.8,1.2-25.2,1.3c-17,0.2-34,0.1-51,0c-11.9,0-17.5-7.1-15.2-18.9c9.4-48.3,18.9-96.6,28.2-145
		c0.9-4.7,1.2-9.5,0.8-14.4c-0.3-4.3-2.6-6.3-6.3-7.3c-4.7-1.2-9.5-2.1-14.3-2.1c-16-0.1-32,0-48-0.2c-3.2,0-4.3,1.1-4.9,4.1
		c-10.9,56.8-22,113.6-33,170.5c-1.8,9.4-6.5,13.4-16.3,13.4c-22,0-44,0-66,0c-11.9,0-17.6-7.1-15.2-18.9
		c3.5-17.5,6.9-34.9,10.3-52.4C315.2,282.7,315.1,281.7,315.2,279.6z M718.2,100.6c-28.3,0-52.5,0.2-76.6-0.2
		c-5.4-0.1-7.2,1.5-8.2,6.8C613,212.6,592.6,318.1,572,423.5c-0.8,4.1-0.2,4.9,3.9,4.9c20.8-0.2,41.7-0.2,62.5,0c3.3,0,4.4-1,5-4.3
		c4.9-26.2,10.1-52.2,15-78.4c0.7-3.6,2.1-4.6,5.8-4.6c28-0.2,56,1.2,83.9-1c23.8-1.9,46.8-7,66.9-20.6
		c49.9-33.7,71.4-81.5,66.9-140.8c-1.9-25-14-45.2-35.1-59.4c-18.4-12.4-39.2-17-60.9-18.2C762,99.9,738,100.8,718.2,100.6z
		 M13.4,428.3c23.4,0,46.4,0,69.4,0c2.5,0,2.3-1.7,2.7-3.3c4.6-23.8,9.3-47.6,13.9-71.5c2.4-12.3,2.3-12.2,14.8-12.4
		c28.3-0.4,56.6,1.5,84.9-2c20.2-2.5,39.6-7.5,56.8-18.7c48.9-31.9,70.9-77.9,69.2-135.4c-0.7-24.3-10.2-45.3-29.4-61
		c-19.5-16-42.8-22-67.3-22.8c-49.1-1.6-98.3-0.3-147.4-0.7c-3,0-4,1.1-4.5,3.8c-5.3,27.6-10.7,55.2-16,82.8
		c-12.5,64.3-25,128.6-37.5,192.9C19.7,396,16.6,411.9,13.4,428.3z M452.1,13.3c-23.1,0-45.7,0.1-68.4-0.1c-3.2,0-2.9,2.2-3.2,3.9
		c-2.8,14.4-5.5,28.7-8.3,43.1c-11.8,60.6-23.5,121.1-35.3,181.7c-6.1,31.5-12.3,63-18.5,94.5c-0.6,3.3-0.8,4.9,3.7,4.8
		c20.8-0.3,41.7-0.2,62.5,0c3.2,0,4.2-1,4.8-4c11.6-60.1,23.3-120.2,34.9-180.3c0.6-3,1.8-3.7,4.6-3.7c17.7,0.1,35.3,0,53,0.2
		c8.8,0.1,17.6,0.6,26.1,3.4c9,3,13.5,9.3,14.3,18.5c0.4,4.8,0.4,9.7-0.5,14.5c-2.3,12.3-4.5,24.5-6.9,36.8
		c-7.1,36.7-14.2,73.5-21.6,110.2c-0.8,4.1,0.4,4.6,4,4.5c21-0.2,42-0.1,63,0c3.2,0,4.5-0.7,5.1-4.2c7.4-38.7,15.2-77.4,22.5-116.1
		c3.3-17.6,7.9-35.1,8.8-53.1c1.3-28.7-9.9-47.8-34.3-57.7c-15.6-6.3-32.1-8.5-48.8-9.2c-24.7-1-49.3-0.4-74-0.4
		c-3.6,0-4.3-0.7-3.5-4.4C441.5,68.9,446.7,41.4,452.1,13.3z"/>
	<path style="fill:#010101;" d="M718.2,100.6c19.8,0.3,43.8-0.7,67.8,0.6c21.7,1.2,42.5,5.8,60.9,18.2
		c21.1,14.2,33.2,34.4,35.1,59.4c4.5,59.4-17,107.1-66.9,140.8c-20.1,13.6-43.1,18.7-66.9,20.6c-27.9,2.2-55.9,0.7-83.9,1
		c-3.7,0-5.1,1-5.8,4.6c-4.9,26.1-10.1,52.2-15,78.4c-0.6,3.3-1.7,4.3-5,4.3c-20.8-0.1-41.7-0.2-62.5,0c-4.1,0-4.7-0.8-3.9-4.9
		c20.6-105.4,41.1-210.9,61.4-316.3c1-5.3,2.8-6.8,8.2-6.8C665.7,100.8,689.9,100.6,718.2,100.6z M701,289.4c14,0,28,0.2,41.8-2.3
		c19.3-3.5,36.5-10.8,47.5-28c13.7-21.3,18.8-45,17.5-69.9c-0.8-15.8-9.3-26.7-24.5-31.8c-7.1-2.4-14.5-3.7-22-4.3
		c-20.3-1.6-40.6-0.4-60.9-1c-4-0.1-4.7,1.6-5.2,4.7c-2.1,11.3-4.3,22.5-6.5,33.8c-6.1,31.5-12.2,63-18.5,94.5
		c-0.7,3.4,0,4.6,3.7,4.5C683,289.3,692,289.4,701,289.4z"/>
	<path style="fill:#010101;" d="M13.4,428.3c3.2-16.4,6.3-32.3,9.4-48.3c12.5-64.3,25-128.6,37.5-192.9c5.4-27.6,10.7-55.2,16-82.8
		c0.5-2.7,1.5-3.9,4.5-3.8c49.1,0.4,98.3-0.9,147.4,0.7c24.5,0.8,47.8,6.8,67.3,22.8c19.2,15.7,28.7,36.8,29.4,61
		c1.7,57.6-20.3,103.6-69.2,135.4c-17.2,11.2-36.6,16.2-56.8,18.7c-28.2,3.4-56.6,1.5-84.9,2c-12.5,0.2-12.4,0-14.8,12.4
		c-4.6,23.8-9.3,47.7-13.9,71.5c-0.3,1.6-0.1,3.3-2.7,3.3C59.8,428.3,36.8,428.3,13.4,428.3z M143.7,289.4c13.8,0,27.6,0.2,41.3-2.3
		c19.7-3.5,37.1-11.1,48.2-28.8c13.6-21.7,18.7-45.8,16.8-71.1c-1.1-14.1-8.8-24.1-22.3-29.2c-7.7-2.9-15.7-4.4-23.8-5
		c-20.1-1.7-40.3-0.4-60.4-1c-4.2-0.1-5.3,1.5-5.9,5c-8.2,42.8-16.5,85.5-24.9,128.3c-0.7,3.6,0.5,4.1,3.7,4.1
		C125.3,289.3,134.5,289.4,143.7,289.4z"/>
	<path style="fill:#010101;" d="M452.1,13.3c-5.4,28.2-10.6,55.6-16.1,83c-0.7,3.7-0.1,4.4,3.5,4.4c24.7,0,49.3-0.6,74,0.4
		c16.7,0.7,33.2,2.8,48.8,9.2c24.5,9.9,35.6,29,34.3,57.7c-0.8,18.1-5.4,35.5-8.8,53.1c-7.3,38.7-15.1,77.4-22.5,116.1
		c-0.7,3.5-1.9,4.2-5.1,4.2c-21-0.1-42-0.2-63,0c-3.7,0-4.8-0.5-4-4.5c7.3-36.7,14.4-73.4,21.6-110.2c2.4-12.2,4.6-24.5,6.9-36.8
		c0.9-4.8,0.9-9.6,0.5-14.5c-0.8-9.2-5.3-15.5-14.3-18.5c-8.5-2.8-17.3-3.3-26.1-3.4c-17.7-0.2-35.3,0-53-0.2c-2.8,0-4,0.7-4.6,3.7
		c-11.6,60.1-23.3,120.2-34.9,180.3c-0.6,3-1.5,4.1-4.8,4c-20.8-0.2-41.7-0.2-62.5,0c-4.5,0.1-4.3-1.6-3.7-4.8
		c6.2-31.5,12.4-63,18.5-94.5c11.8-60.6,23.6-121.1,35.3-181.7c2.8-14.4,5.5-28.8,8.3-43.1c0.3-1.7,0.1-4,3.2-3.9
		C406.4,13.4,429.1,13.3,452.1,13.3z"/>
	<path style="fill:#FEFEFE;" d="M701,289.4c-9,0-18-0.2-27,0.1c-3.7,0.1-4.4-1.1-3.7-4.5c6.2-31.5,12.3-63,18.5-94.5
		c2.2-11.3,4.4-22.5,6.5-33.8c0.6-3.1,1.3-4.8,5.2-4.7c20.3,0.6,40.6-0.6,60.9,1c7.5,0.6,14.8,1.9,22,4.3
		c15.2,5.1,23.7,16,24.5,31.8c1.3,25-3.8,48.7-17.5,69.9c-11.1,17.2-28.2,24.5-47.5,28C729,289.7,715,289.4,701,289.4z M734.1,165.9
		c-7.5,0-15,0.2-22.5-0.1c-3.4-0.1-4.7,1.1-5.3,4.2c-6.5,34.1-13.2,68.2-19.8,102.3c-0.6,2.9,0.1,3.8,3.1,3.8
		c16.3-0.2,32.6,0.4,48.8-1.9c22.2-3.2,39.1-13.5,47.5-35.2c5.6-14.6,9-29.6,8.6-45.3c-0.4-14.9-5.4-20.9-19.7-24.7
		C761.4,165.5,747.8,166,734.1,165.9z"/>
	<path style="fill:#FEFEFE;" d="M143.7,289.4c-9.2,0-18.3-0.1-27.5,0.1c-3.2,0.1-4.4-0.4-3.7-4.1c8.4-42.7,16.7-85.5,24.9-128.3
		c0.7-3.6,1.8-5.2,5.9-5c20.1,0.6,40.3-0.7,60.4,1c8.1,0.7,16.1,2.1,23.8,5c13.5,5.1,21.2,15,22.3,29.2c1.9,25.4-3.2,49.4-16.8,71.1
		c-11,17.7-28.5,25.2-48.2,28.8C171.3,289.6,157.5,289.4,143.7,289.4z M149.5,276.1c9,0.3,20-0.4,30.9-1.9
		c20.9-2.9,37.5-11.8,46.5-32.1c5.9-13.2,9.3-27.1,10-41.4c1.1-21.8-4.2-29-25.1-32.8c-19.8-3.6-39.8-1.4-59.8-2
		c-2.2-0.1-2.7,1.2-3,3.1c-1.4,7.5-2.9,15-4.4,22.5c-5.2,26.7-10.3,53.5-15.6,80.2c-0.7,3.4-0.4,4.7,3.5,4.5
		C137.5,275.8,142.5,276.1,149.5,276.1z"/>
</g>
</svg>
